<?xml version="1.0" encoding="utf-8"?>
<svg version="1.1" xmlns:xlink="http://www.w3.org/1999/xlink" width="12px" height="12px" viewBox="2352 3260.5  12 12" xmlns="http://www.w3.org/2000/svg">
  <path d="M 2358 3260.5  C 2361.36 3260.5  2364 3263.14  2364 3266.5  C 2364 3269.86  2361.36 3272.5  2358 3272.5  C 2354.64 3272.5  2352 3269.86  2352 3266.5  C 2352 3263.14  2354.64 3260.5  2358 3260.5  Z " fill-rule="nonzero" fill="#ffffff" stroke="none" fill-opacity="0" />
  <path d="M 2358 3261  C 2361.08 3261  2363.5 3263.42  2363.5 3266.5  C 2363.5 3269.58  2361.08 3272  2358 3272  C 2354.92 3272  2352.5 3269.58  2352.5 3266.5  C 2352.5 3263.42  2354.92 3261  2358 3261  Z " stroke-width="1" stroke="#797979" fill="none" />
  <path d="M 2358 3269.5  C 2356.32 3269.5  2355 3268.18  2355 3266.5  C 2355 3264.82  2356.32 3263.5  2358 3263.5  C 2359.68 3263.5  2361 3264.82  2361 3266.5  C 2361 3268.18  2359.68 3269.5  2358 3269.5  " fill-rule="nonzero" fill="#797979" stroke="none" />
</svg>