<?xml version="1.0" encoding="utf-8"?>
<svg version="1.1" xmlns:xlink="http://www.w3.org/1999/xlink" width="12px" height="12px" viewBox="2399 3260.5  12 12" xmlns="http://www.w3.org/2000/svg">
  <path d="M 2405 3260.5  C 2408.36 3260.5  2411 3263.14  2411 3266.5  C 2411 3269.86  2408.36 3272.5  2405 3272.5  C 2401.64 3272.5  2399 3269.86  2399 3266.5  C 2399 3263.14  2401.64 3260.5  2405 3260.5  Z " fill-rule="nonzero" fill="#ffffff" stroke="none" fill-opacity="0" />
  <path d="M 2405 3261  C 2408.08 3261  2410.5 3263.42  2410.5 3266.5  C 2410.5 3269.58  2408.08 3272  2405 3272  C 2401.92 3272  2399.5 3269.58  2399.5 3266.5  C 2399.5 3263.42  2401.92 3261  2405 3261  Z " stroke-width="1" stroke="#797979" fill="none" />
  <path d="M 2405 3269.5  C 2403.32 3269.5  2402 3268.18  2402 3266.5  C 2402 3264.82  2403.32 3263.5  2405 3263.5  C 2406.68 3263.5  2408 3264.82  2408 3266.5  C 2408 3268.18  2406.68 3269.5  2405 3269.5  " fill-rule="nonzero" fill="#797979" stroke="none" />
</svg>