<?xml version="1.0" encoding="utf-8"?>
<svg version="1.1" xmlns:xlink="http://www.w3.org/1999/xlink" width="12px" height="12px" viewBox="1997 2672  12 12" xmlns="http://www.w3.org/2000/svg">
  <path d="M 1997.5 2674  A 1.5 1.5 0 0 1 1999 2672.5 L 2007 2672.5  A 1.5 1.5 0 0 1 2008.5 2674 L 2008.5 2682  A 1.5 1.5 0 0 1 2007 2683.5 L 1999 2683.5  A 1.5 1.5 0 0 1 1997.5 2682 L 1997.5 2674  Z " fill-rule="nonzero" fill="#f0f0f0" stroke="none" />
  <path d="M 1997.5 2674  A 1.5 1.5 0 0 1 1999 2672.5 L 2007 2672.5  A 1.5 1.5 0 0 1 2008.5 2674 L 2008.5 2682  A 1.5 1.5 0 0 1 2007 2683.5 L 1999 2683.5  A 1.5 1.5 0 0 1 1997.5 2682 L 1997.5 2674  Z " stroke-width="1" stroke="#797979" fill="none" />
  <path d="M 1999.57142857143 2678  L 2002.14285714286 2680.57142857143  " stroke-width="2.57142857142857" stroke="#797979" fill="none" />
  <path d="M 2002.14285714286 2680.57142857143  L 2006.42857142857 2674.57142857143  " stroke-width="2.57142857142857" stroke="#797979" fill="none" />
</svg>