<?xml version="1.0" encoding="utf-8"?>
<svg version="1.1" xmlns:xlink="http://www.w3.org/1999/xlink" width="12px" height="12px" viewBox="2351 2633.5  12 12" xmlns="http://www.w3.org/2000/svg">
  <path d="M 2357 2633.5  C 2360.36 2633.5  2363 2636.14  2363 2639.5  C 2363 2642.86  2360.36 2645.5  2357 2645.5  C 2353.64 2645.5  2351 2642.86  2351 2639.5  C 2351 2636.14  2353.64 2633.5  2357 2633.5  Z " fill-rule="nonzero" fill="#ffffff" stroke="none" />
  <path d="M 2357 2634  C 2360.08 2634  2362.5 2636.42  2362.5 2639.5  C 2362.5 2642.58  2360.08 2645  2357 2645  C 2353.92 2645  2351.5 2642.58  2351.5 2639.5  C 2351.5 2636.42  2353.92 2634  2357 2634  Z " stroke-width="1" stroke="#797979" fill="none" />
  <path d="M 2357 2642.5  C 2355.32 2642.5  2354 2641.18  2354 2639.5  C 2354 2637.82  2355.32 2636.5  2357 2636.5  C 2358.68 2636.5  2360 2637.82  2360 2639.5  C 2360 2641.18  2358.68 2642.5  2357 2642.5  " fill-rule="nonzero" fill="#797979" stroke="none" />
</svg>