<?xml version="1.0" encoding="utf-8"?>
<svg version="1.1" xmlns:xlink="http://www.w3.org/1999/xlink" width="12px" height="12px" viewBox="2398 2633.5  12 12" xmlns="http://www.w3.org/2000/svg">
  <path d="M 2404 2633.5  C 2407.36 2633.5  2410 2636.14  2410 2639.5  C 2410 2642.86  2407.36 2645.5  2404 2645.5  C 2400.64 2645.5  2398 2642.86  2398 2639.5  C 2398 2636.14  2400.64 2633.5  2404 2633.5  Z " fill-rule="nonzero" fill="#f0f0f0" stroke="none" />
  <path d="M 2404 2634  C 2407.08 2634  2409.5 2636.42  2409.5 2639.5  C 2409.5 2642.58  2407.08 2645  2404 2645  C 2400.92 2645  2398.5 2642.58  2398.5 2639.5  C 2398.5 2636.42  2400.92 2634  2404 2634  Z " stroke-width="1" stroke="#797979" fill="none" />
  <path d="M 2404 2642.5  C 2402.32 2642.5  2401 2641.18  2401 2639.5  C 2401 2637.82  2402.32 2636.5  2404 2636.5  C 2405.68 2636.5  2407 2637.82  2407 2639.5  C 2407 2641.18  2405.68 2642.5  2404 2642.5  " fill-rule="nonzero" fill="#797979" stroke="none" />
</svg>