<?xml version="1.0" encoding="utf-8"?>
<svg version="1.1" xmlns:xlink="http://www.w3.org/1999/xlink" width="12px" height="12px" viewBox="849 1850.5  12 12" xmlns="http://www.w3.org/2000/svg">
  <path d="M 855 1850.5  C 858.36 1850.5  861 1853.14  861 1856.5  C 861 1859.86  858.36 1862.5  855 1862.5  C 851.64 1862.5  849 1859.86  849 1856.5  C 849 1853.14  851.64 1850.5  855 1850.5  Z " fill-rule="nonzero" fill="#ffffff" stroke="none" fill-opacity="0" />
  <path d="M 855 1851  C 858.08 1851  860.5 1853.42  860.5 1856.5  C 860.5 1859.58  858.08 1862  855 1862  C 851.92 1862  849.5 1859.58  849.5 1856.5  C 849.5 1853.42  851.92 1851  855 1851  Z " stroke-width="1" stroke="#797979" fill="none" />
  <path d="M 855 1859.5  C 853.32 1859.5  852 1858.18  852 1856.5  C 852 1854.82  853.32 1853.5  855 1853.5  C 856.68 1853.5  858 1854.82  858 1856.5  C 858 1858.18  856.68 1859.5  855 1859.5  " fill-rule="nonzero" fill="#797979" stroke="none" />
</svg>