<?xml version="1.0" encoding="utf-8"?>
<svg version="1.1" xmlns:xlink="http://www.w3.org/1999/xlink" width="12px" height="12px" viewBox="2350 2724.5  12 12" xmlns="http://www.w3.org/2000/svg">
  <path d="M 2356 2724.5  C 2359.36 2724.5  2362 2727.14  2362 2730.5  C 2362 2733.86  2359.36 2736.5  2356 2736.5  C 2352.64 2736.5  2350 2733.86  2350 2730.5  C 2350 2727.14  2352.64 2724.5  2356 2724.5  Z " fill-rule="nonzero" fill="#ffffff" stroke="none" />
  <path d="M 2356 2725  C 2359.08 2725  2361.5 2727.42  2361.5 2730.5  C 2361.5 2733.58  2359.08 2736  2356 2736  C 2352.92 2736  2350.5 2733.58  2350.5 2730.5  C 2350.5 2727.42  2352.92 2725  2356 2725  Z " stroke-width="1" stroke="#797979" fill="none" />
  <path d="M 2356 2733.5  C 2354.32 2733.5  2353 2732.18  2353 2730.5  C 2353 2728.82  2354.32 2727.5  2356 2727.5  C 2357.68 2727.5  2359 2728.82  2359 2730.5  C 2359 2732.18  2357.68 2733.5  2356 2733.5  " fill-rule="nonzero" fill="#797979" stroke="none" />
</svg>