<?xml version="1.0" encoding="utf-8"?>
<svg version="1.1" xmlns:xlink="http://www.w3.org/1999/xlink" width="12px" height="12px" viewBox="802 1850.5  12 12" xmlns="http://www.w3.org/2000/svg">
  <path d="M 808 1850.5  C 811.36 1850.5  814 1853.14  814 1856.5  C 814 1859.86  811.36 1862.5  808 1862.5  C 804.64 1862.5  802 1859.86  802 1856.5  C 802 1853.14  804.64 1850.5  808 1850.5  Z " fill-rule="nonzero" fill="#ffffff" stroke="none" fill-opacity="0" />
  <path d="M 808 1851  C 811.08 1851  813.5 1853.42  813.5 1856.5  C 813.5 1859.58  811.08 1862  808 1862  C 804.92 1862  802.5 1859.58  802.5 1856.5  C 802.5 1853.42  804.92 1851  808 1851  Z " stroke-width="1" stroke="#797979" fill="none" />
  <path d="M 808 1859.5  C 806.32 1859.5  805 1858.18  805 1856.5  C 805 1854.82  806.32 1853.5  808 1853.5  C 809.68 1853.5  811 1854.82  811 1856.5  C 811 1858.18  809.68 1859.5  808 1859.5  " fill-rule="nonzero" fill="#797979" stroke="none" />
</svg>