<?xml version="1.0" encoding="utf-8"?>
<svg version="1.1" xmlns:xlink="http://www.w3.org/1999/xlink" width="12px" height="12px" viewBox="803 1893.5  12 12" xmlns="http://www.w3.org/2000/svg">
  <path d="M 809 1893.5  C 812.36 1893.5  815 1896.14  815 1899.5  C 815 1902.86  812.36 1905.5  809 1905.5  C 805.64 1905.5  803 1902.86  803 1899.5  C 803 1896.14  805.64 1893.5  809 1893.5  Z " fill-rule="nonzero" fill="#f0f0f0" stroke="none" />
  <path d="M 809 1894  C 812.08 1894  814.5 1896.42  814.5 1899.5  C 814.5 1902.58  812.08 1905  809 1905  C 805.92 1905  803.5 1902.58  803.5 1899.5  C 803.5 1896.42  805.92 1894  809 1894  Z " stroke-width="1" stroke="#797979" fill="none" />
  <path d="M 809 1902.5  C 807.32 1902.5  806 1901.18  806 1899.5  C 806 1897.82  807.32 1896.5  809 1896.5  C 810.68 1896.5  812 1897.82  812 1899.5  C 812 1901.18  810.68 1902.5  809 1902.5  " fill-rule="nonzero" fill="#797979" stroke="none" />
</svg>