<?xml version="1.0" encoding="utf-8"?>
<svg version="1.1" xmlns:xlink="http://www.w3.org/1999/xlink" width="12px" height="12px" viewBox="2350 3385.5  12 12" xmlns="http://www.w3.org/2000/svg">
  <path d="M 2356 3385.5  C 2359.36 3385.5  2362 3388.14  2362 3391.5  C 2362 3394.86  2359.36 3397.5  2356 3397.5  C 2352.64 3397.5  2350 3394.86  2350 3391.5  C 2350 3388.14  2352.64 3385.5  2356 3385.5  Z " fill-rule="nonzero" fill="#f0f0f0" stroke="none" />
  <path d="M 2356 3386  C 2359.08 3386  2361.5 3388.42  2361.5 3391.5  C 2361.5 3394.58  2359.08 3397  2356 3397  C 2352.92 3397  2350.5 3394.58  2350.5 3391.5  C 2350.5 3388.42  2352.92 3386  2356 3386  Z " stroke-width="1" stroke="#797979" fill="none" />
  <path d="M 2356 3394.5  C 2354.32 3394.5  2353 3393.18  2353 3391.5  C 2353 3389.82  2354.32 3388.5  2356 3388.5  C 2357.68 3388.5  2359 3389.82  2359 3391.5  C 2359 3393.18  2357.68 3394.5  2356 3394.5  " fill-rule="nonzero" fill="#797979" stroke="none" />
</svg>