<?xml version="1.0" encoding="utf-8"?>
<svg version="1.1" xmlns:xlink="http://www.w3.org/1999/xlink" width="12px" height="12px" viewBox="2351 4125.5  12 12" xmlns="http://www.w3.org/2000/svg">
  <path d="M 2357 4125.5  C 2360.36 4125.5  2363 4128.14  2363 4131.5  C 2363 4134.86  2360.36 4137.5  2357 4137.5  C 2353.64 4137.5  2351 4134.86  2351 4131.5  C 2351 4128.14  2353.64 4125.5  2357 4125.5  Z " fill-rule="nonzero" fill="#ffffff" stroke="none" />
  <path d="M 2357 4126  C 2360.08 4126  2362.5 4128.42  2362.5 4131.5  C 2362.5 4134.58  2360.08 4137  2357 4137  C 2353.92 4137  2351.5 4134.58  2351.5 4131.5  C 2351.5 4128.42  2353.92 4126  2357 4126  Z " stroke-width="1" stroke="#797979" fill="none" />
  <path d="M 2357 4134.5  C 2355.32 4134.5  2354 4133.18  2354 4131.5  C 2354 4129.82  2355.32 4128.5  2357 4128.5  C 2358.68 4128.5  2360 4129.82  2360 4131.5  C 2360 4133.18  2358.68 4134.5  2357 4134.5  " fill-rule="nonzero" fill="#797979" stroke="none" />
</svg>