<?xml version="1.0" encoding="utf-8"?>
<svg version="1.1" xmlns:xlink="http://www.w3.org/1999/xlink" width="12px" height="12px" viewBox="1997 4123  12 12" xmlns="http://www.w3.org/2000/svg">
  <path d="M 1997.5 4125  A 1.5 1.5 0 0 1 1999 4123.5 L 2007 4123.5  A 1.5 1.5 0 0 1 2008.5 4125 L 2008.5 4133  A 1.5 1.5 0 0 1 2007 4134.5 L 1999 4134.5  A 1.5 1.5 0 0 1 1997.5 4133 L 1997.5 4125  Z " fill-rule="nonzero" fill="#ffffff" stroke="none" />
  <path d="M 1997.5 4125  A 1.5 1.5 0 0 1 1999 4123.5 L 2007 4123.5  A 1.5 1.5 0 0 1 2008.5 4125 L 2008.5 4133  A 1.5 1.5 0 0 1 2007 4134.5 L 1999 4134.5  A 1.5 1.5 0 0 1 1997.5 4133 L 1997.5 4125  Z " stroke-width="1" stroke="#797979" fill="none" />
</svg>