<?xml version="1.0" encoding="utf-8"?>
<svg version="1.1" xmlns:xlink="http://www.w3.org/1999/xlink" width="12px" height="12px" viewBox="2397 4170.5  12 12" xmlns="http://www.w3.org/2000/svg">
  <path d="M 2403 4170.5  C 2406.36 4170.5  2409 4173.14  2409 4176.5  C 2409 4179.86  2406.36 4182.5  2403 4182.5  C 2399.64 4182.5  2397 4179.86  2397 4176.5  C 2397 4173.14  2399.64 4170.5  2403 4170.5  Z " fill-rule="nonzero" fill="#ffffff" stroke="none" />
  <path d="M 2403 4171  C 2406.08 4171  2408.5 4173.42  2408.5 4176.5  C 2408.5 4179.58  2406.08 4182  2403 4182  C 2399.92 4182  2397.5 4179.58  2397.5 4176.5  C 2397.5 4173.42  2399.92 4171  2403 4171  Z " stroke-width="1" stroke="#797979" fill="none" />
  <path d="M 2403 4179.5  C 2401.32 4179.5  2400 4178.18  2400 4176.5  C 2400 4174.82  2401.32 4173.5  2403 4173.5  C 2404.68 4173.5  2406 4174.82  2406 4176.5  C 2406 4178.18  2404.68 4179.5  2403 4179.5  " fill-rule="nonzero" fill="#797979" stroke="none" />
</svg>