<?xml version="1.0" encoding="utf-8"?>
<svg version="1.1" xmlns:xlink="http://www.w3.org/1999/xlink" width="12px" height="12px" viewBox="2397 4211.5  12 12" xmlns="http://www.w3.org/2000/svg">
  <path d="M 2403 4211.5  C 2406.36 4211.5  2409 4214.14  2409 4217.5  C 2409 4220.86  2406.36 4223.5  2403 4223.5  C 2399.64 4223.5  2397 4220.86  2397 4217.5  C 2397 4214.14  2399.64 4211.5  2403 4211.5  Z " fill-rule="nonzero" fill="#f0f0f0" stroke="none" />
  <path d="M 2403 4212  C 2406.08 4212  2408.5 4214.42  2408.5 4217.5  C 2408.5 4220.58  2406.08 4223  2403 4223  C 2399.92 4223  2397.5 4220.58  2397.5 4217.5  C 2397.5 4214.42  2399.92 4212  2403 4212  Z " stroke-width="1" stroke="#797979" fill="none" />
  <path d="M 2403 4220.5  C 2401.32 4220.5  2400 4219.18  2400 4217.5  C 2400 4215.82  2401.32 4214.5  2403 4214.5  C 2404.68 4214.5  2406 4215.82  2406 4217.5  C 2406 4219.18  2404.68 4220.5  2403 4220.5  " fill-rule="nonzero" fill="#797979" stroke="none" />
</svg>