<?xml version="1.0" encoding="utf-8"?>
<svg version="1.1" xmlns:xlink="http://www.w3.org/1999/xlink" width="12px" height="12px" viewBox="2353 4301.5  12 12" xmlns="http://www.w3.org/2000/svg">
  <path d="M 2359 4301.5  C 2362.36 4301.5  2365 4304.14  2365 4307.5  C 2365 4310.86  2362.36 4313.5  2359 4313.5  C 2355.64 4313.5  2353 4310.86  2353 4307.5  C 2353 4304.14  2355.64 4301.5  2359 4301.5  Z " fill-rule="nonzero" fill="#ffffff" stroke="none" />
  <path d="M 2359 4302  C 2362.08 4302  2364.5 4304.42  2364.5 4307.5  C 2364.5 4310.58  2362.08 4313  2359 4313  C 2355.92 4313  2353.5 4310.58  2353.5 4307.5  C 2353.5 4304.42  2355.92 4302  2359 4302  Z " stroke-width="1" stroke="#797979" fill="none" />
  <path d="M 2359 4310.5  C 2357.32 4310.5  2356 4309.18  2356 4307.5  C 2356 4305.82  2357.32 4304.5  2359 4304.5  C 2360.68 4304.5  2362 4305.82  2362 4307.5  C 2362 4309.18  2360.68 4310.5  2359 4310.5  " fill-rule="nonzero" fill="#797979" stroke="none" />
</svg>