<?xml version="1.0" encoding="utf-8"?>
<svg version="1.1" xmlns:xlink="http://www.w3.org/1999/xlink" width="12px" height="12px" viewBox="1999 4250  12 12" xmlns="http://www.w3.org/2000/svg">
  <path d="M 1999.5 4252  A 1.5 1.5 0 0 1 2001 4250.5 L 2009 4250.5  A 1.5 1.5 0 0 1 2010.5 4252 L 2010.5 4260  A 1.5 1.5 0 0 1 2009 4261.5 L 2001 4261.5  A 1.5 1.5 0 0 1 1999.5 4260 L 1999.5 4252  Z " fill-rule="nonzero" fill="#ffffff" stroke="none" />
  <path d="M 1999.5 4252  A 1.5 1.5 0 0 1 2001 4250.5 L 2009 4250.5  A 1.5 1.5 0 0 1 2010.5 4252 L 2010.5 4260  A 1.5 1.5 0 0 1 2009 4261.5 L 2001 4261.5  A 1.5 1.5 0 0 1 1999.5 4260 L 1999.5 4252  Z " stroke-width="1" stroke="#797979" fill="none" />
  <path d="M 2001.57142857143 4256  L 2004.14285714286 4258.57142857143  " stroke-width="2.57142857142857" stroke="#797979" fill="none" />
  <path d="M 2004.14285714286 4258.57142857143  L 2008.42857142857 4252.57142857143  " stroke-width="2.57142857142857" stroke="#797979" fill="none" />
</svg>