<?xml version="1.0" encoding="utf-8"?>
<svg version="1.1" xmlns:xlink="http://www.w3.org/1999/xlink" width="12px" height="12px" viewBox="2350 3431.5  12 12" xmlns="http://www.w3.org/2000/svg">
  <path d="M 2356 3431.5  C 2359.36 3431.5  2362 3434.14  2362 3437.5  C 2362 3440.86  2359.36 3443.5  2356 3443.5  C 2352.64 3443.5  2350 3440.86  2350 3437.5  C 2350 3434.14  2352.64 3431.5  2356 3431.5  Z " fill-rule="nonzero" fill="#f0f0f0" stroke="none" />
  <path d="M 2356 3432  C 2359.08 3432  2361.5 3434.42  2361.5 3437.5  C 2361.5 3440.58  2359.08 3443  2356 3443  C 2352.92 3443  2350.5 3440.58  2350.5 3437.5  C 2350.5 3434.42  2352.92 3432  2356 3432  Z " stroke-width="1" stroke="#797979" fill="none" />
  <path d="M 2356 3440.5  C 2354.32 3440.5  2353 3439.18  2353 3437.5  C 2353 3435.82  2354.32 3434.5  2356 3434.5  C 2357.68 3434.5  2359 3435.82  2359 3437.5  C 2359 3439.18  2357.68 3440.5  2356 3440.5  " fill-rule="nonzero" fill="#797979" stroke="none" />
</svg>