<?xml version="1.0" encoding="utf-8"?>
<svg version="1.1" xmlns:xlink="http://www.w3.org/1999/xlink" width="12px" height="12px" viewBox="2350 3471.5  12 12" xmlns="http://www.w3.org/2000/svg">
  <path d="M 2356 3471.5  C 2359.36 3471.5  2362 3474.14  2362 3477.5  C 2362 3480.86  2359.36 3483.5  2356 3483.5  C 2352.64 3483.5  2350 3480.86  2350 3477.5  C 2350 3474.14  2352.64 3471.5  2356 3471.5  Z " fill-rule="nonzero" fill="#ffffff" stroke="none" />
  <path d="M 2356 3472  C 2359.08 3472  2361.5 3474.42  2361.5 3477.5  C 2361.5 3480.58  2359.08 3483  2356 3483  C 2352.92 3483  2350.5 3480.58  2350.5 3477.5  C 2350.5 3474.42  2352.92 3472  2356 3472  Z " stroke-width="1" stroke="#797979" fill="none" />
  <path d="M 2356 3480.5  C 2354.32 3480.5  2353 3479.18  2353 3477.5  C 2353 3475.82  2354.32 3474.5  2356 3474.5  C 2357.68 3474.5  2359 3475.82  2359 3477.5  C 2359 3479.18  2357.68 3480.5  2356 3480.5  " fill-rule="nonzero" fill="#797979" stroke="none" />
</svg>