<?xml version="1.0" encoding="utf-8"?>
<svg version="1.1" xmlns:xlink="http://www.w3.org/1999/xlink" width="12px" height="12px" viewBox="801 1264.5  12 12" xmlns="http://www.w3.org/2000/svg">
  <path d="M 807 1264.5  C 810.36 1264.5  813 1267.14  813 1270.5  C 813 1273.86  810.36 1276.5  807 1276.5  C 803.64 1276.5  801 1273.86  801 1270.5  C 801 1267.14  803.64 1264.5  807 1264.5  Z " fill-rule="nonzero" fill="#ffffff" stroke="none" />
  <path d="M 807 1265  C 810.08 1265  812.5 1267.42  812.5 1270.5  C 812.5 1273.58  810.08 1276  807 1276  C 803.92 1276  801.5 1273.58  801.5 1270.5  C 801.5 1267.42  803.92 1265  807 1265  Z " stroke-width="1" stroke="#797979" fill="none" />
  <path d="M 807 1273.5  C 805.32 1273.5  804 1272.18  804 1270.5  C 804 1268.82  805.32 1267.5  807 1267.5  C 808.68 1267.5  810 1268.82  810 1270.5  C 810 1272.18  808.68 1273.5  807 1273.5  " fill-rule="nonzero" fill="#797979" stroke="none" />
</svg>