<?xml version="1.0" encoding="utf-8"?>
<svg version="1.1" xmlns:xlink="http://www.w3.org/1999/xlink" width="12px" height="12px" viewBox="1998 5003  12 12" xmlns="http://www.w3.org/2000/svg">
  <path d="M 1998.5 5005  A 1.5 1.5 0 0 1 2000 5003.5 L 2008 5003.5  A 1.5 1.5 0 0 1 2009.5 5005 L 2009.5 5013  A 1.5 1.5 0 0 1 2008 5014.5 L 2000 5014.5  A 1.5 1.5 0 0 1 1998.5 5013 L 1998.5 5005  Z " fill-rule="nonzero" fill="#f0f0f0" stroke="none" />
  <path d="M 1998.5 5005  A 1.5 1.5 0 0 1 2000 5003.5 L 2008 5003.5  A 1.5 1.5 0 0 1 2009.5 5005 L 2009.5 5013  A 1.5 1.5 0 0 1 2008 5014.5 L 2000 5014.5  A 1.5 1.5 0 0 1 1998.5 5013 L 1998.5 5005  Z " stroke-width="1" stroke="#797979" fill="none" />
</svg>