<?xml version="1.0" encoding="utf-8"?>
<svg version="1.1" xmlns:xlink="http://www.w3.org/1999/xlink" width="12px" height="12px" viewBox="214 1649  12 12" xmlns="http://www.w3.org/2000/svg">
  <path d="M 214.5 1651  A 1.5 1.5 0 0 1 216 1649.5 L 224 1649.5  A 1.5 1.5 0 0 1 225.5 1651 L 225.5 1659  A 1.5 1.5 0 0 1 224 1660.5 L 216 1660.5  A 1.5 1.5 0 0 1 214.5 1659 L 214.5 1651  Z " fill-rule="nonzero" fill="#f0f0f0" stroke="none" />
  <path d="M 214.5 1651  A 1.5 1.5 0 0 1 216 1649.5 L 224 1649.5  A 1.5 1.5 0 0 1 225.5 1651 L 225.5 1659  A 1.5 1.5 0 0 1 224 1660.5 L 216 1660.5  A 1.5 1.5 0 0 1 214.5 1659 L 214.5 1651  Z " stroke-width="1" stroke="#797979" fill="none" />
  <path d="M 216.571428571429 1655  L 219.142857142857 1657.57142857143  " stroke-width="2.57142857142857" stroke="#797979" fill="none" />
  <path d="M 219.142857142857 1657.57142857143  L 223.428571428571 1651.57142857143  " stroke-width="2.57142857142857" stroke="#797979" fill="none" />
</svg>