<?xml version="1.0" encoding="utf-8"?>
<svg version="1.1" xmlns:xlink="http://www.w3.org/1999/xlink" width="12px" height="12px" viewBox="2397 5045.5  12 12" xmlns="http://www.w3.org/2000/svg">
  <path d="M 2403 5045.5  C 2406.36 5045.5  2409 5048.14  2409 5051.5  C 2409 5054.86  2406.36 5057.5  2403 5057.5  C 2399.64 5057.5  2397 5054.86  2397 5051.5  C 2397 5048.14  2399.64 5045.5  2403 5045.5  Z " fill-rule="nonzero" fill="#f0f0f0" stroke="none" />
  <path d="M 2403 5046  C 2406.08 5046  2408.5 5048.42  2408.5 5051.5  C 2408.5 5054.58  2406.08 5057  2403 5057  C 2399.92 5057  2397.5 5054.58  2397.5 5051.5  C 2397.5 5048.42  2399.92 5046  2403 5046  Z " stroke-width="1" stroke="#797979" fill="none" />
  <path d="M 2403 5054.5  C 2401.32 5054.5  2400 5053.18  2400 5051.5  C 2400 5049.82  2401.32 5048.5  2403 5048.5  C 2404.68 5048.5  2406 5049.82  2406 5051.5  C 2406 5053.18  2404.68 5054.5  2403 5054.5  " fill-rule="nonzero" fill="#797979" stroke="none" />
</svg>