<?xml version="1.0" encoding="utf-8"?>
<svg version="1.1" xmlns:xlink="http://www.w3.org/1999/xlink" width="12px" height="12px" viewBox="848 1264.5  12 12" xmlns="http://www.w3.org/2000/svg">
  <path d="M 854 1264.5  C 857.36 1264.5  860 1267.14  860 1270.5  C 860 1273.86  857.36 1276.5  854 1276.5  C 850.64 1276.5  848 1273.86  848 1270.5  C 848 1267.14  850.64 1264.5  854 1264.5  Z " fill-rule="nonzero" fill="#ffffff" stroke="none" />
  <path d="M 854 1265  C 857.08 1265  859.5 1267.42  859.5 1270.5  C 859.5 1273.58  857.08 1276  854 1276  C 850.92 1276  848.5 1273.58  848.5 1270.5  C 848.5 1267.42  850.92 1265  854 1265  Z " stroke-width="1" stroke="#797979" fill="none" />
  <path d="M 854 1273.5  C 852.32 1273.5  851 1272.18  851 1270.5  C 851 1268.82  852.32 1267.5  854 1267.5  C 855.68 1267.5  857 1268.82  857 1270.5  C 857 1272.18  855.68 1273.5  854 1273.5  " fill-rule="nonzero" fill="#797979" stroke="none" />
</svg>