<?xml version="1.0" encoding="utf-8"?>
<svg version="1.1" xmlns:xlink="http://www.w3.org/1999/xlink" width="12px" height="12px" viewBox="800 1314.5  12 12" xmlns="http://www.w3.org/2000/svg">
  <path d="M 806 1314.5  C 809.36 1314.5  812 1317.14  812 1320.5  C 812 1323.86  809.36 1326.5  806 1326.5  C 802.64 1326.5  800 1323.86  800 1320.5  C 800 1317.14  802.64 1314.5  806 1314.5  Z " fill-rule="nonzero" fill="#ffffff" stroke="none" />
  <path d="M 806 1315  C 809.08 1315  811.5 1317.42  811.5 1320.5  C 811.5 1323.58  809.08 1326  806 1326  C 802.92 1326  800.5 1323.58  800.5 1320.5  C 800.5 1317.42  802.92 1315  806 1315  Z " stroke-width="1" stroke="#797979" fill="none" />
  <path d="M 806 1323.5  C 804.32 1323.5  803 1322.18  803 1320.5  C 803 1318.82  804.32 1317.5  806 1317.5  C 807.68 1317.5  809 1318.82  809 1320.5  C 809 1322.18  807.68 1323.5  806 1323.5  " fill-rule="nonzero" fill="#797979" stroke="none" />
</svg>