<?xml version="1.0" encoding="utf-8"?>
<svg version="1.1" xmlns:xlink="http://www.w3.org/1999/xlink" width="12px" height="12px" viewBox="2396 5090.5  12 12" xmlns="http://www.w3.org/2000/svg">
  <path d="M 2402 5090.5  C 2405.36 5090.5  2408 5093.14  2408 5096.5  C 2408 5099.86  2405.36 5102.5  2402 5102.5  C 2398.64 5102.5  2396 5099.86  2396 5096.5  C 2396 5093.14  2398.64 5090.5  2402 5090.5  Z " fill-rule="nonzero" fill="#f0f0f0" stroke="none" />
  <path d="M 2402 5091  C 2405.08 5091  2407.5 5093.42  2407.5 5096.5  C 2407.5 5099.58  2405.08 5102  2402 5102  C 2398.92 5102  2396.5 5099.58  2396.5 5096.5  C 2396.5 5093.42  2398.92 5091  2402 5091  Z " stroke-width="1" stroke="#797979" fill="none" />
  <path d="M 2402 5099.5  C 2400.32 5099.5  2399 5098.18  2399 5096.5  C 2399 5094.82  2400.32 5093.5  2402 5093.5  C 2403.68 5093.5  2405 5094.82  2405 5096.5  C 2405 5098.18  2403.68 5099.5  2402 5099.5  " fill-rule="nonzero" fill="#797979" stroke="none" />
</svg>