<?xml version="1.0" encoding="utf-8"?>
<svg version="1.1" xmlns:xlink="http://www.w3.org/1999/xlink" width="12px" height="12px" viewBox="848 1223.5  12 12" xmlns="http://www.w3.org/2000/svg">
  <path d="M 854 1223.5  C 857.36 1223.5  860 1226.14  860 1229.5  C 860 1232.86  857.36 1235.5  854 1235.5  C 850.64 1235.5  848 1232.86  848 1229.5  C 848 1226.14  850.64 1223.5  854 1223.5  Z " fill-rule="nonzero" fill="#ffffff" stroke="none" />
  <path d="M 854 1224  C 857.08 1224  859.5 1226.42  859.5 1229.5  C 859.5 1232.58  857.08 1235  854 1235  C 850.92 1235  848.5 1232.58  848.5 1229.5  C 848.5 1226.42  850.92 1224  854 1224  Z " stroke-width="1" stroke="#797979" fill="none" />
  <path d="M 854 1232.5  C 852.32 1232.5  851 1231.18  851 1229.5  C 851 1227.82  852.32 1226.5  854 1226.5  C 855.68 1226.5  857 1227.82  857 1229.5  C 857 1231.18  855.68 1232.5  854 1232.5  " fill-rule="nonzero" fill="#797979" stroke="none" />
</svg>