<?xml version="1.0" encoding="utf-8"?>
<svg version="1.1" xmlns:xlink="http://www.w3.org/1999/xlink" width="12px" height="12px" viewBox="2396 5131.5  12 12" xmlns="http://www.w3.org/2000/svg">
  <path d="M 2402 5131.5  C 2405.36 5131.5  2408 5134.14  2408 5137.5  C 2408 5140.86  2405.36 5143.5  2402 5143.5  C 2398.64 5143.5  2396 5140.86  2396 5137.5  C 2396 5134.14  2398.64 5131.5  2402 5131.5  Z " fill-rule="nonzero" fill="#ffffff" stroke="none" />
  <path d="M 2402 5132  C 2405.08 5132  2407.5 5134.42  2407.5 5137.5  C 2407.5 5140.58  2405.08 5143  2402 5143  C 2398.92 5143  2396.5 5140.58  2396.5 5137.5  C 2396.5 5134.42  2398.92 5132  2402 5132  Z " stroke-width="1" stroke="#797979" fill="none" />
  <path d="M 2402 5140.5  C 2400.32 5140.5  2399 5139.18  2399 5137.5  C 2399 5135.82  2400.32 5134.5  2402 5134.5  C 2403.68 5134.5  2405 5135.82  2405 5137.5  C 2405 5139.18  2403.68 5140.5  2402 5140.5  " fill-rule="nonzero" fill="#797979" stroke="none" />
</svg>