<?xml version="1.0" encoding="utf-8"?>
<svg version="1.1" xmlns:xlink="http://www.w3.org/1999/xlink" width="12px" height="12px" viewBox="1995 5129  12 12" xmlns="http://www.w3.org/2000/svg">
  <path d="M 1995.5 5131  A 1.5 1.5 0 0 1 1997 5129.5 L 2005 5129.5  A 1.5 1.5 0 0 1 2006.5 5131 L 2006.5 5139  A 1.5 1.5 0 0 1 2005 5140.5 L 1997 5140.5  A 1.5 1.5 0 0 1 1995.5 5139 L 1995.5 5131  Z " fill-rule="nonzero" fill="#f0f0f0" stroke="none" />
  <path d="M 1995.5 5131  A 1.5 1.5 0 0 1 1997 5129.5 L 2005 5129.5  A 1.5 1.5 0 0 1 2006.5 5131 L 2006.5 5139  A 1.5 1.5 0 0 1 2005 5140.5 L 1997 5140.5  A 1.5 1.5 0 0 1 1995.5 5139 L 1995.5 5131  Z " stroke-width="1" stroke="#797979" fill="none" />
</svg>