<?xml version="1.0" encoding="utf-8"?>
<svg version="1.1" xmlns:xlink="http://www.w3.org/1999/xlink" width="12px" height="12px" viewBox="800 1975.5  12 12" xmlns="http://www.w3.org/2000/svg">
  <path d="M 806 1975.5  C 809.36 1975.5  812 1978.14  812 1981.5  C 812 1984.86  809.36 1987.5  806 1987.5  C 802.64 1987.5  800 1984.86  800 1981.5  C 800 1978.14  802.64 1975.5  806 1975.5  Z " fill-rule="nonzero" fill="#f0f0f0" stroke="none" />
  <path d="M 806 1976  C 809.08 1976  811.5 1978.42  811.5 1981.5  C 811.5 1984.58  809.08 1987  806 1987  C 802.92 1987  800.5 1984.58  800.5 1981.5  C 800.5 1978.42  802.92 1976  806 1976  Z " stroke-width="1" stroke="#797979" fill="none" />
  <path d="M 806 1984.5  C 804.32 1984.5  803 1983.18  803 1981.5  C 803 1979.82  804.32 1978.5  806 1978.5  C 807.68 1978.5  809 1979.82  809 1981.5  C 809 1983.18  807.68 1984.5  806 1984.5  " fill-rule="nonzero" fill="#797979" stroke="none" />
</svg>