<?xml version="1.0" encoding="utf-8"?>
<svg version="1.1" xmlns:xlink="http://www.w3.org/1999/xlink" width="12px" height="12px" viewBox="2394 5223.5  12 12" xmlns="http://www.w3.org/2000/svg">
  <path d="M 2400 5223.5  C 2403.36 5223.5  2406 5226.14  2406 5229.5  C 2406 5232.86  2403.36 5235.5  2400 5235.5  C 2396.64 5235.5  2394 5232.86  2394 5229.5  C 2394 5226.14  2396.64 5223.5  2400 5223.5  Z " fill-rule="nonzero" fill="#f0f0f0" stroke="none" />
  <path d="M 2400 5224  C 2403.08 5224  2405.5 5226.42  2405.5 5229.5  C 2405.5 5232.58  2403.08 5235  2400 5235  C 2396.92 5235  2394.5 5232.58  2394.5 5229.5  C 2394.5 5226.42  2396.92 5224  2400 5224  Z " stroke-width="1" stroke="#797979" fill="none" />
  <path d="M 2400 5232.5  C 2398.32 5232.5  2397 5231.18  2397 5229.5  C 2397 5227.82  2398.32 5226.5  2400 5226.5  C 2401.68 5226.5  2403 5227.82  2403 5229.5  C 2403 5231.18  2401.68 5232.5  2400 5232.5  " fill-rule="nonzero" fill="#797979" stroke="none" />
</svg>