<?xml version="1.0" encoding="utf-8"?>
<svg version="1.1" xmlns:xlink="http://www.w3.org/1999/xlink" width="12px" height="12px" viewBox="1998 4341  12 12" xmlns="http://www.w3.org/2000/svg">
  <path d="M 1998.5 4343  A 1.5 1.5 0 0 1 2000 4341.5 L 2008 4341.5  A 1.5 1.5 0 0 1 2009.5 4343 L 2009.5 4351  A 1.5 1.5 0 0 1 2008 4352.5 L 2000 4352.5  A 1.5 1.5 0 0 1 1998.5 4351 L 1998.5 4343  Z " fill-rule="nonzero" fill="#f0f0f0" stroke="none" />
  <path d="M 1998.5 4343  A 1.5 1.5 0 0 1 2000 4341.5 L 2008 4341.5  A 1.5 1.5 0 0 1 2009.5 4343 L 2009.5 4351  A 1.5 1.5 0 0 1 2008 4352.5 L 2000 4352.5  A 1.5 1.5 0 0 1 1998.5 4351 L 1998.5 4343  Z " stroke-width="1" stroke="#797979" fill="none" />
  <path d="M 2000.57142857143 4347  L 2003.14285714286 4349.57142857143  " stroke-width="2.57142857142857" stroke="#797979" fill="none" />
  <path d="M 2003.14285714286 4349.57142857143  L 2007.42857142857 4343.57142857143  " stroke-width="2.57142857142857" stroke="#797979" fill="none" />
</svg>