<?xml version="1.0" encoding="utf-8"?>
<svg version="1.1" xmlns:xlink="http://www.w3.org/1999/xlink" width="12px" height="12px" viewBox="447 2713  12 12" xmlns="http://www.w3.org/2000/svg">
  <path d="M 447.5 2715  A 1.5 1.5 0 0 1 449 2713.5 L 457 2713.5  A 1.5 1.5 0 0 1 458.5 2715 L 458.5 2723  A 1.5 1.5 0 0 1 457 2724.5 L 449 2724.5  A 1.5 1.5 0 0 1 447.5 2723 L 447.5 2715  Z " fill-rule="nonzero" fill="#ffffff" stroke="none" />
  <path d="M 447.5 2715  A 1.5 1.5 0 0 1 449 2713.5 L 457 2713.5  A 1.5 1.5 0 0 1 458.5 2715 L 458.5 2723  A 1.5 1.5 0 0 1 457 2724.5 L 449 2724.5  A 1.5 1.5 0 0 1 447.5 2723 L 447.5 2715  Z " stroke-width="1" stroke="#797979" fill="none" />
  <path d="M 449.571428571429 2719  L 452.142857142857 2721.57142857143  " stroke-width="2.57142857142857" stroke="#797979" fill="none" />
  <path d="M 452.142857142857 2721.57142857143  L 456.428571428571 2715.57142857143  " stroke-width="2.57142857142857" stroke="#797979" fill="none" />
</svg>