<?xml version="1.0" encoding="utf-8"?>
<svg version="1.1" xmlns:xlink="http://www.w3.org/1999/xlink" width="12px" height="12px" viewBox="2350 4383.5  12 12" xmlns="http://www.w3.org/2000/svg">
  <path d="M 2356 4383.5  C 2359.36 4383.5  2362 4386.14  2362 4389.5  C 2362 4392.86  2359.36 4395.5  2356 4395.5  C 2352.64 4395.5  2350 4392.86  2350 4389.5  C 2350 4386.14  2352.64 4383.5  2356 4383.5  Z " fill-rule="nonzero" fill="#ffffff" stroke="none" />
  <path d="M 2356 4384  C 2359.08 4384  2361.5 4386.42  2361.5 4389.5  C 2361.5 4392.58  2359.08 4395  2356 4395  C 2352.92 4395  2350.5 4392.58  2350.5 4389.5  C 2350.5 4386.42  2352.92 4384  2356 4384  Z " stroke-width="1" stroke="#797979" fill="none" />
  <path d="M 2356 4392.5  C 2354.32 4392.5  2353 4391.18  2353 4389.5  C 2353 4387.82  2354.32 4386.5  2356 4386.5  C 2357.68 4386.5  2359 4387.82  2359 4389.5  C 2359 4391.18  2357.68 4392.5  2356 4392.5  " fill-rule="nonzero" fill="#797979" stroke="none" />
</svg>