<?xml version="1.0" encoding="utf-8"?>
<svg version="1.1" xmlns:xlink="http://www.w3.org/1999/xlink" width="12px" height="12px" viewBox="1996 4381  12 12" xmlns="http://www.w3.org/2000/svg">
  <path d="M 1996.5 4383  A 1.5 1.5 0 0 1 1998 4381.5 L 2006 4381.5  A 1.5 1.5 0 0 1 2007.5 4383 L 2007.5 4391  A 1.5 1.5 0 0 1 2006 4392.5 L 1998 4392.5  A 1.5 1.5 0 0 1 1996.5 4391 L 1996.5 4383  Z " fill-rule="nonzero" fill="#ffffff" stroke="none" />
  <path d="M 1996.5 4383  A 1.5 1.5 0 0 1 1998 4381.5 L 2006 4381.5  A 1.5 1.5 0 0 1 2007.5 4383 L 2007.5 4391  A 1.5 1.5 0 0 1 2006 4392.5 L 1998 4392.5  A 1.5 1.5 0 0 1 1996.5 4391 L 1996.5 4383  Z " stroke-width="1" stroke="#797979" fill="none" />
</svg>