<?xml version="1.0" encoding="utf-8"?>
<svg version="1.1" xmlns:xlink="http://www.w3.org/1999/xlink" width="12px" height="12px" viewBox="801 2715.5  12 12" xmlns="http://www.w3.org/2000/svg">
  <path d="M 807 2715.5  C 810.36 2715.5  813 2718.14  813 2721.5  C 813 2724.86  810.36 2727.5  807 2727.5  C 803.64 2727.5  801 2724.86  801 2721.5  C 801 2718.14  803.64 2715.5  807 2715.5  Z " fill-rule="nonzero" fill="#f0f0f0" stroke="none" />
  <path d="M 807 2716  C 810.08 2716  812.5 2718.42  812.5 2721.5  C 812.5 2724.58  810.08 2727  807 2727  C 803.92 2727  801.5 2724.58  801.5 2721.5  C 801.5 2718.42  803.92 2716  807 2716  Z " stroke-width="1" stroke="#797979" fill="none" />
  <path d="M 807 2724.5  C 805.32 2724.5  804 2723.18  804 2721.5  C 804 2719.82  805.32 2718.5  807 2718.5  C 808.68 2718.5  810 2719.82  810 2721.5  C 810 2723.18  808.68 2724.5  807 2724.5  " fill-rule="nonzero" fill="#797979" stroke="none" />
</svg>