<?xml version="1.0" encoding="utf-8"?>
<svg version="1.1" xmlns:xlink="http://www.w3.org/1999/xlink" width="12px" height="12px" viewBox="1997 4426  12 12" xmlns="http://www.w3.org/2000/svg">
  <path d="M 1997.5 4428  A 1.5 1.5 0 0 1 1999 4426.5 L 2007 4426.5  A 1.5 1.5 0 0 1 2008.5 4428 L 2008.5 4436  A 1.5 1.5 0 0 1 2007 4437.5 L 1999 4437.5  A 1.5 1.5 0 0 1 1997.5 4436 L 1997.5 4428  Z " fill-rule="nonzero" fill="#f0f0f0" stroke="none" />
  <path d="M 1997.5 4428  A 1.5 1.5 0 0 1 1999 4426.5 L 2007 4426.5  A 1.5 1.5 0 0 1 2008.5 4428 L 2008.5 4436  A 1.5 1.5 0 0 1 2007 4437.5 L 1999 4437.5  A 1.5 1.5 0 0 1 1997.5 4436 L 1997.5 4428  Z " stroke-width="1" stroke="#797979" fill="none" />
  <path d="M 1999.57142857143 4432  L 2002.14285714286 4434.57142857143  " stroke-width="2.57142857142857" stroke="#797979" fill="none" />
  <path d="M 2002.14285714286 4434.57142857143  L 2006.42857142857 4428.57142857143  " stroke-width="2.57142857142857" stroke="#797979" fill="none" />
</svg>