<?xml version="1.0" encoding="utf-8"?>
<svg version="1.1" xmlns:xlink="http://www.w3.org/1999/xlink" width="12px" height="12px" viewBox="2349 4428.5  12 12" xmlns="http://www.w3.org/2000/svg">
  <path d="M 2355 4428.5  C 2358.36 4428.5  2361 4431.14  2361 4434.5  C 2361 4437.86  2358.36 4440.5  2355 4440.5  C 2351.64 4440.5  2349 4437.86  2349 4434.5  C 2349 4431.14  2351.64 4428.5  2355 4428.5  Z " fill-rule="nonzero" fill="#f0f0f0" stroke="none" />
  <path d="M 2355 4429  C 2358.08 4429  2360.5 4431.42  2360.5 4434.5  C 2360.5 4437.58  2358.08 4440  2355 4440  C 2351.92 4440  2349.5 4437.58  2349.5 4434.5  C 2349.5 4431.42  2351.92 4429  2355 4429  Z " stroke-width="1" stroke="#797979" fill="none" />
  <path d="M 2355 4437.5  C 2353.32 4437.5  2352 4436.18  2352 4434.5  C 2352 4432.82  2353.32 4431.5  2355 4431.5  C 2356.68 4431.5  2358 4432.82  2358 4434.5  C 2358 4436.18  2356.68 4437.5  2355 4437.5  " fill-rule="nonzero" fill="#797979" stroke="none" />
</svg>