<?xml version="1.0" encoding="utf-8"?>
<svg version="1.1" xmlns:xlink="http://www.w3.org/1999/xlink" width="12px" height="12px" viewBox="847 2760.5  12 12" xmlns="http://www.w3.org/2000/svg">
  <path d="M 853 2760.5  C 856.36 2760.5  859 2763.14  859 2766.5  C 859 2769.86  856.36 2772.5  853 2772.5  C 849.64 2772.5  847 2769.86  847 2766.5  C 847 2763.14  849.64 2760.5  853 2760.5  Z " fill-rule="nonzero" fill="#f0f0f0" stroke="none" />
  <path d="M 853 2761  C 856.08 2761  858.5 2763.42  858.5 2766.5  C 858.5 2769.58  856.08 2772  853 2772  C 849.92 2772  847.5 2769.58  847.5 2766.5  C 847.5 2763.42  849.92 2761  853 2761  Z " stroke-width="1" stroke="#797979" fill="none" />
  <path d="M 853 2769.5  C 851.32 2769.5  850 2768.18  850 2766.5  C 850 2764.82  851.32 2763.5  853 2763.5  C 854.68 2763.5  856 2764.82  856 2766.5  C 856 2768.18  854.68 2769.5  853 2769.5  " fill-rule="nonzero" fill="#797979" stroke="none" />
</svg>