<?xml version="1.0" encoding="utf-8"?>
<svg version="1.1" xmlns:xlink="http://www.w3.org/1999/xlink" width="12px" height="12px" viewBox="850 2891.5  12 12" xmlns="http://www.w3.org/2000/svg">
  <path d="M 856 2891.5  C 859.36 2891.5  862 2894.14  862 2897.5  C 862 2900.86  859.36 2903.5  856 2903.5  C 852.64 2903.5  850 2900.86  850 2897.5  C 850 2894.14  852.64 2891.5  856 2891.5  Z " fill-rule="nonzero" fill="#ffffff" stroke="none" />
  <path d="M 856 2892  C 859.08 2892  861.5 2894.42  861.5 2897.5  C 861.5 2900.58  859.08 2903  856 2903  C 852.92 2903  850.5 2900.58  850.5 2897.5  C 850.5 2894.42  852.92 2892  856 2892  Z " stroke-width="1" stroke="#797979" fill="none" />
  <path d="M 856 2900.5  C 854.32 2900.5  853 2899.18  853 2897.5  C 853 2895.82  854.32 2894.5  856 2894.5  C 857.68 2894.5  859 2895.82  859 2897.5  C 859 2899.18  857.68 2900.5  856 2900.5  " fill-rule="nonzero" fill="#797979" stroke="none" />
</svg>