<?xml version="1.0" encoding="utf-8"?>
<svg version="1.1" xmlns:xlink="http://www.w3.org/1999/xlink" width="12px" height="12px" viewBox="449 2673  12 12" xmlns="http://www.w3.org/2000/svg">
  <path d="M 449.5 2675  A 1.5 1.5 0 0 1 451 2673.5 L 459 2673.5  A 1.5 1.5 0 0 1 460.5 2675 L 460.5 2683  A 1.5 1.5 0 0 1 459 2684.5 L 451 2684.5  A 1.5 1.5 0 0 1 449.5 2683 L 449.5 2675  Z " fill-rule="nonzero" fill="#ffffff" stroke="none" />
  <path d="M 449.5 2675  A 1.5 1.5 0 0 1 451 2673.5 L 459 2673.5  A 1.5 1.5 0 0 1 460.5 2675 L 460.5 2683  A 1.5 1.5 0 0 1 459 2684.5 L 451 2684.5  A 1.5 1.5 0 0 1 449.5 2683 L 449.5 2675  Z " stroke-width="1" stroke="#797979" fill="none" />
</svg>