<?xml version="1.0" encoding="utf-8"?>
<svg version="1.1" xmlns:xlink="http://www.w3.org/1999/xlink" width="12px" height="12px" viewBox="801 2675.5  12 12" xmlns="http://www.w3.org/2000/svg">
  <path d="M 807 2675.5  C 810.36 2675.5  813 2678.14  813 2681.5  C 813 2684.86  810.36 2687.5  807 2687.5  C 803.64 2687.5  801 2684.86  801 2681.5  C 801 2678.14  803.64 2675.5  807 2675.5  Z " fill-rule="nonzero" fill="#ffffff" stroke="none" />
  <path d="M 807 2676  C 810.08 2676  812.5 2678.42  812.5 2681.5  C 812.5 2684.58  810.08 2687  807 2687  C 803.92 2687  801.5 2684.58  801.5 2681.5  C 801.5 2678.42  803.92 2676  807 2676  Z " stroke-width="1" stroke="#797979" fill="none" />
  <path d="M 807 2684.5  C 805.32 2684.5  804 2683.18  804 2681.5  C 804 2679.82  805.32 2678.5  807 2678.5  C 808.68 2678.5  810 2679.82  810 2681.5  C 810 2683.18  808.68 2684.5  807 2684.5  " fill-rule="nonzero" fill="#797979" stroke="none" />
</svg>