<?xml version="1.0" encoding="utf-8"?>
<svg version="1.1" xmlns:xlink="http://www.w3.org/1999/xlink" width="12px" height="12px" viewBox="848 2842.5  12 12" xmlns="http://www.w3.org/2000/svg">
  <path d="M 854 2842.5  C 857.36 2842.5  860 2845.14  860 2848.5  C 860 2851.86  857.36 2854.5  854 2854.5  C 850.64 2854.5  848 2851.86  848 2848.5  C 848 2845.14  850.64 2842.5  854 2842.5  Z " fill-rule="nonzero" fill="#ffffff" stroke="none" />
  <path d="M 854 2843  C 857.08 2843  859.5 2845.42  859.5 2848.5  C 859.5 2851.58  857.08 2854  854 2854  C 850.92 2854  848.5 2851.58  848.5 2848.5  C 848.5 2845.42  850.92 2843  854 2843  Z " stroke-width="1" stroke="#797979" fill="none" />
  <path d="M 854 2851.5  C 852.32 2851.5  851 2850.18  851 2848.5  C 851 2846.82  852.32 2845.5  854 2845.5  C 855.68 2845.5  857 2846.82  857 2848.5  C 857 2850.18  855.68 2851.5  854 2851.5  " fill-rule="nonzero" fill="#797979" stroke="none" />
</svg>