<?xml version="1.0" encoding="utf-8"?>
<svg version="1.1" xmlns:xlink="http://www.w3.org/1999/xlink" width="12px" height="12px" viewBox="2350 4718.5  12 12" xmlns="http://www.w3.org/2000/svg">
  <path d="M 2356 4718.5  C 2359.36 4718.5  2362 4721.14  2362 4724.5  C 2362 4727.86  2359.36 4730.5  2356 4730.5  C 2352.64 4730.5  2350 4727.86  2350 4724.5  C 2350 4721.14  2352.64 4718.5  2356 4718.5  Z " fill-rule="nonzero" fill="#f0f0f0" stroke="none" />
  <path d="M 2356 4719  C 2359.08 4719  2361.5 4721.42  2361.5 4724.5  C 2361.5 4727.58  2359.08 4730  2356 4730  C 2352.92 4730  2350.5 4727.58  2350.5 4724.5  C 2350.5 4721.42  2352.92 4719  2356 4719  Z " stroke-width="1" stroke="#797979" fill="none" />
  <path d="M 2356 4727.5  C 2354.32 4727.5  2353 4726.18  2353 4724.5  C 2353 4722.82  2354.32 4721.5  2356 4721.5  C 2357.68 4721.5  2359 4722.82  2359 4724.5  C 2359 4726.18  2357.68 4727.5  2356 4727.5  " fill-rule="nonzero" fill="#797979" stroke="none" />
</svg>