<?xml version="1.0" encoding="utf-8"?>
<svg version="1.1" xmlns:xlink="http://www.w3.org/1999/xlink" width="12px" height="12px" viewBox="801 2842.5  12 12" xmlns="http://www.w3.org/2000/svg">
  <path d="M 807 2842.5  C 810.36 2842.5  813 2845.14  813 2848.5  C 813 2851.86  810.36 2854.5  807 2854.5  C 803.64 2854.5  801 2851.86  801 2848.5  C 801 2845.14  803.64 2842.5  807 2842.5  Z " fill-rule="nonzero" fill="#f0f0f0" stroke="none" />
  <path d="M 807 2843  C 810.08 2843  812.5 2845.42  812.5 2848.5  C 812.5 2851.58  810.08 2854  807 2854  C 803.92 2854  801.5 2851.58  801.5 2848.5  C 801.5 2845.42  803.92 2843  807 2843  Z " stroke-width="1" stroke="#797979" fill="none" />
  <path d="M 807 2851.5  C 805.32 2851.5  804 2850.18  804 2848.5  C 804 2846.82  805.32 2845.5  807 2845.5  C 808.68 2845.5  810 2846.82  810 2848.5  C 810 2850.18  808.68 2851.5  807 2851.5  " fill-rule="nonzero" fill="#797979" stroke="none" />
</svg>