<?xml version="1.0" encoding="utf-8"?>
<svg version="1.1" xmlns:xlink="http://www.w3.org/1999/xlink" width="12px" height="12px" viewBox="800 2061.5  12 12" xmlns="http://www.w3.org/2000/svg">
  <path d="M 806 2061.5  C 809.36 2061.5  812 2064.14  812 2067.5  C 812 2070.86  809.36 2073.5  806 2073.5  C 802.64 2073.5  800 2070.86  800 2067.5  C 800 2064.14  802.64 2061.5  806 2061.5  Z " fill-rule="nonzero" fill="#f0f0f0" stroke="none" />
  <path d="M 806 2062  C 809.08 2062  811.5 2064.42  811.5 2067.5  C 811.5 2070.58  809.08 2073  806 2073  C 802.92 2073  800.5 2070.58  800.5 2067.5  C 800.5 2064.42  802.92 2062  806 2062  Z " stroke-width="1" stroke="#797979" fill="none" />
  <path d="M 806 2070.5  C 804.32 2070.5  803 2069.18  803 2067.5  C 803 2065.82  804.32 2064.5  806 2064.5  C 807.68 2064.5  809 2065.82  809 2067.5  C 809 2069.18  807.68 2070.5  806 2070.5  " fill-rule="nonzero" fill="#797979" stroke="none" />
</svg>