<?xml version="1.0" encoding="utf-8"?>
<svg version="1.1" xmlns:xlink="http://www.w3.org/1999/xlink" width="12px" height="12px" viewBox="847 2061.5  12 12" xmlns="http://www.w3.org/2000/svg">
  <path d="M 853 2061.5  C 856.36 2061.5  859 2064.14  859 2067.5  C 859 2070.86  856.36 2073.5  853 2073.5  C 849.64 2073.5  847 2070.86  847 2067.5  C 847 2064.14  849.64 2061.5  853 2061.5  Z " fill-rule="nonzero" fill="#f0f0f0" stroke="none" />
  <path d="M 853 2062  C 856.08 2062  858.5 2064.42  858.5 2067.5  C 858.5 2070.58  856.08 2073  853 2073  C 849.92 2073  847.5 2070.58  847.5 2067.5  C 847.5 2064.42  849.92 2062  853 2062  Z " stroke-width="1" stroke="#797979" fill="none" />
  <path d="M 853 2070.5  C 851.32 2070.5  850 2069.18  850 2067.5  C 850 2065.82  851.32 2064.5  853 2064.5  C 854.68 2064.5  856 2065.82  856 2067.5  C 856 2069.18  854.68 2070.5  853 2070.5  " fill-rule="nonzero" fill="#797979" stroke="none" />
</svg>