<?xml version="1.0" encoding="utf-8"?>
<svg version="1.1" xmlns:xlink="http://www.w3.org/1999/xlink" width="12px" height="12px" viewBox="2396 4844.5  12 12" xmlns="http://www.w3.org/2000/svg">
  <path d="M 2402 4844.5  C 2405.36 4844.5  2408 4847.14  2408 4850.5  C 2408 4853.86  2405.36 4856.5  2402 4856.5  C 2398.64 4856.5  2396 4853.86  2396 4850.5  C 2396 4847.14  2398.64 4844.5  2402 4844.5  Z " fill-rule="nonzero" fill="#f0f0f0" stroke="none" />
  <path d="M 2402 4845  C 2405.08 4845  2407.5 4847.42  2407.5 4850.5  C 2407.5 4853.58  2405.08 4856  2402 4856  C 2398.92 4856  2396.5 4853.58  2396.5 4850.5  C 2396.5 4847.42  2398.92 4845  2402 4845  Z " stroke-width="1" stroke="#797979" fill="none" />
  <path d="M 2402 4853.5  C 2400.32 4853.5  2399 4852.18  2399 4850.5  C 2399 4848.82  2400.32 4847.5  2402 4847.5  C 2403.68 4847.5  2405 4848.82  2405 4850.5  C 2405 4852.18  2403.68 4853.5  2402 4853.5  " fill-rule="nonzero" fill="#797979" stroke="none" />
</svg>