<?xml version="1.0" encoding="utf-8"?>
<svg version="1.1" xmlns:xlink="http://www.w3.org/1999/xlink" width="12px" height="12px" viewBox="797 3768.5  12 12" xmlns="http://www.w3.org/2000/svg">
  <path d="M 803 3768.5  C 806.36 3768.5  809 3771.14  809 3774.5  C 809 3777.86  806.36 3780.5  803 3780.5  C 799.64 3780.5  797 3777.86  797 3774.5  C 797 3771.14  799.64 3768.5  803 3768.5  Z " fill-rule="nonzero" fill="#ffffff" stroke="none" />
  <path d="M 803 3769  C 806.08 3769  808.5 3771.42  808.5 3774.5  C 808.5 3777.58  806.08 3780  803 3780  C 799.92 3780  797.5 3777.58  797.5 3774.5  C 797.5 3771.42  799.92 3769  803 3769  Z " stroke-width="1" stroke="#797979" fill="none" />
  <path d="M 803 3777.5  C 801.32 3777.5  800 3776.18  800 3774.5  C 800 3772.82  801.32 3771.5  803 3771.5  C 804.68 3771.5  806 3772.82  806 3774.5  C 806 3776.18  804.68 3777.5  803 3777.5  " fill-rule="nonzero" fill="#797979" stroke="none" />
</svg>