<?xml version="1.0" encoding="utf-8"?>
<svg version="1.1" xmlns:xlink="http://www.w3.org/1999/xlink" width="12px" height="12px" viewBox="800 2021.5  12 12" xmlns="http://www.w3.org/2000/svg">
  <path d="M 806 2021.5  C 809.36 2021.5  812 2024.14  812 2027.5  C 812 2030.86  809.36 2033.5  806 2033.5  C 802.64 2033.5  800 2030.86  800 2027.5  C 800 2024.14  802.64 2021.5  806 2021.5  Z " fill-rule="nonzero" fill="#ffffff" stroke="none" />
  <path d="M 806 2022  C 809.08 2022  811.5 2024.42  811.5 2027.5  C 811.5 2030.58  809.08 2033  806 2033  C 802.92 2033  800.5 2030.58  800.5 2027.5  C 800.5 2024.42  802.92 2022  806 2022  Z " stroke-width="1" stroke="#797979" fill="none" />
  <path d="M 806 2030.5  C 804.32 2030.5  803 2029.18  803 2027.5  C 803 2025.82  804.32 2024.5  806 2024.5  C 807.68 2024.5  809 2025.82  809 2027.5  C 809 2029.18  807.68 2030.5  806 2030.5  " fill-rule="nonzero" fill="#797979" stroke="none" />
</svg>