<?xml version="1.0" encoding="utf-8"?>
<svg version="1.1" xmlns:xlink="http://www.w3.org/1999/xlink" width="12px" height="12px" viewBox="2349 4759.5  12 12" xmlns="http://www.w3.org/2000/svg">
  <path d="M 2355 4759.5  C 2358.36 4759.5  2361 4762.14  2361 4765.5  C 2361 4768.86  2358.36 4771.5  2355 4771.5  C 2351.64 4771.5  2349 4768.86  2349 4765.5  C 2349 4762.14  2351.64 4759.5  2355 4759.5  Z " fill-rule="nonzero" fill="#f0f0f0" stroke="none" />
  <path d="M 2355 4760  C 2358.08 4760  2360.5 4762.42  2360.5 4765.5  C 2360.5 4768.58  2358.08 4771  2355 4771  C 2351.92 4771  2349.5 4768.58  2349.5 4765.5  C 2349.5 4762.42  2351.92 4760  2355 4760  Z " stroke-width="1" stroke="#797979" fill="none" />
  <path d="M 2355 4768.5  C 2353.32 4768.5  2352 4767.18  2352 4765.5  C 2352 4763.82  2353.32 4762.5  2355 4762.5  C 2356.68 4762.5  2358 4763.82  2358 4765.5  C 2358 4767.18  2356.68 4768.5  2355 4768.5  " fill-rule="nonzero" fill="#797979" stroke="none" />
</svg>