<?xml version="1.0" encoding="utf-8"?>
<svg version="1.1" xmlns:xlink="http://www.w3.org/1999/xlink" width="12px" height="12px" viewBox="844 3768.5  12 12" xmlns="http://www.w3.org/2000/svg">
  <path d="M 850 3768.5  C 853.36 3768.5  856 3771.14  856 3774.5  C 856 3777.86  853.36 3780.5  850 3780.5  C 846.64 3780.5  844 3777.86  844 3774.5  C 844 3771.14  846.64 3768.5  850 3768.5  Z " fill-rule="nonzero" fill="#ffffff" stroke="none" />
  <path d="M 850 3769  C 853.08 3769  855.5 3771.42  855.5 3774.5  C 855.5 3777.58  853.08 3780  850 3780  C 846.92 3780  844.5 3777.58  844.5 3774.5  C 844.5 3771.42  846.92 3769  850 3769  Z " stroke-width="1" stroke="#797979" fill="none" />
  <path d="M 850 3777.5  C 848.32 3777.5  847 3776.18  847 3774.5  C 847 3772.82  848.32 3771.5  850 3771.5  C 851.68 3771.5  853 3772.82  853 3774.5  C 853 3776.18  851.68 3777.5  850 3777.5  " fill-rule="nonzero" fill="#797979" stroke="none" />
</svg>