<?xml version="1.0" encoding="utf-8"?>
<svg version="1.1" xmlns:xlink="http://www.w3.org/1999/xlink" width="12px" height="12px" viewBox="214 2227  12 12" xmlns="http://www.w3.org/2000/svg">
  <path d="M 214.5 2229  A 1.5 1.5 0 0 1 216 2227.5 L 224 2227.5  A 1.5 1.5 0 0 1 225.5 2229 L 225.5 2237  A 1.5 1.5 0 0 1 224 2238.5 L 216 2238.5  A 1.5 1.5 0 0 1 214.5 2237 L 214.5 2229  Z " fill-rule="nonzero" fill="#ffffff" stroke="none" />
  <path d="M 214.5 2229  A 1.5 1.5 0 0 1 216 2227.5 L 224 2227.5  A 1.5 1.5 0 0 1 225.5 2229 L 225.5 2237  A 1.5 1.5 0 0 1 224 2238.5 L 216 2238.5  A 1.5 1.5 0 0 1 214.5 2237 L 214.5 2229  Z " stroke-width="1" stroke="#797979" fill="none" />
  <path d="M 216.571428571429 2233  L 219.142857142857 2235.57142857143  " stroke-width="2.57142857142857" stroke="#797979" fill="none" />
  <path d="M 219.142857142857 2235.57142857143  L 223.428571428571 2229.57142857143  " stroke-width="2.57142857142857" stroke="#797979" fill="none" />
</svg>