<?xml version="1.0" encoding="utf-8"?>
<svg version="1.1" xmlns:xlink="http://www.w3.org/1999/xlink" width="12px" height="12px" viewBox="2397 4885.5  12 12" xmlns="http://www.w3.org/2000/svg">
  <path d="M 2403 4885.5  C 2406.36 4885.5  2409 4888.14  2409 4891.5  C 2409 4894.86  2406.36 4897.5  2403 4897.5  C 2399.64 4897.5  2397 4894.86  2397 4891.5  C 2397 4888.14  2399.64 4885.5  2403 4885.5  Z " fill-rule="nonzero" fill="#ffffff" stroke="none" fill-opacity="0" />
  <path d="M 2403 4886  C 2406.08 4886  2408.5 4888.42  2408.5 4891.5  C 2408.5 4894.58  2406.08 4897  2403 4897  C 2399.92 4897  2397.5 4894.58  2397.5 4891.5  C 2397.5 4888.42  2399.92 4886  2403 4886  Z " stroke-width="1" stroke="#797979" fill="none" />
  <path d="M 2403 4894.5  C 2401.32 4894.5  2400 4893.18  2400 4891.5  C 2400 4889.82  2401.32 4888.5  2403 4888.5  C 2404.68 4888.5  2406 4889.82  2406 4891.5  C 2406 4893.18  2404.68 4894.5  2403 4894.5  " fill-rule="nonzero" fill="#797979" stroke="none" />
</svg>