<?xml version="1.0" encoding="utf-8"?>
<svg version="1.1" xmlns:xlink="http://www.w3.org/1999/xlink" width="12px" height="12px" viewBox="445 3766  12 12" xmlns="http://www.w3.org/2000/svg">
  <path d="M 445.5 3768  A 1.5 1.5 0 0 1 447 3766.5 L 455 3766.5  A 1.5 1.5 0 0 1 456.5 3768 L 456.5 3776  A 1.5 1.5 0 0 1 455 3777.5 L 447 3777.5  A 1.5 1.5 0 0 1 445.5 3776 L 445.5 3768  Z " fill-rule="nonzero" fill="#f0f0f0" stroke="none" />
  <path d="M 445.5 3768  A 1.5 1.5 0 0 1 447 3766.5 L 455 3766.5  A 1.5 1.5 0 0 1 456.5 3768 L 456.5 3776  A 1.5 1.5 0 0 1 455 3777.5 L 447 3777.5  A 1.5 1.5 0 0 1 445.5 3776 L 445.5 3768  Z " stroke-width="1" stroke="#797979" fill="none" />
</svg>