<?xml version="1.0" encoding="utf-8"?>
<svg version="1.1" xmlns:xlink="http://www.w3.org/1999/xlink" width="12px" height="12px" viewBox="799 3721.5  12 12" xmlns="http://www.w3.org/2000/svg">
  <path d="M 805 3721.5  C 808.36 3721.5  811 3724.14  811 3727.5  C 811 3730.86  808.36 3733.5  805 3733.5  C 801.64 3733.5  799 3730.86  799 3727.5  C 799 3724.14  801.64 3721.5  805 3721.5  Z " fill-rule="nonzero" fill="#f0f0f0" stroke="none" />
  <path d="M 805 3722  C 808.08 3722  810.5 3724.42  810.5 3727.5  C 810.5 3730.58  808.08 3733  805 3733  C 801.92 3733  799.5 3730.58  799.5 3727.5  C 799.5 3724.42  801.92 3722  805 3722  Z " stroke-width="1" stroke="#797979" fill="none" />
  <path d="M 805 3730.5  C 803.32 3730.5  802 3729.18  802 3727.5  C 802 3725.82  803.32 3724.5  805 3724.5  C 806.68 3724.5  808 3725.82  808 3727.5  C 808 3729.18  806.68 3730.5  805 3730.5  " fill-rule="nonzero" fill="#797979" stroke="none" />
</svg>