<?xml version="1.0" encoding="utf-8"?>
<svg version="1.1" xmlns:xlink="http://www.w3.org/1999/xlink" width="12px" height="12px" viewBox="2349 6236.5  12 12" xmlns="http://www.w3.org/2000/svg">
  <path d="M 2355 6236.5  C 2358.36 6236.5  2361 6239.14  2361 6242.5  C 2361 6245.86  2358.36 6248.5  2355 6248.5  C 2351.64 6248.5  2349 6245.86  2349 6242.5  C 2349 6239.14  2351.64 6236.5  2355 6236.5  Z " fill-rule="nonzero" fill="#ffffff" stroke="none" />
  <path d="M 2355 6237  C 2358.08 6237  2360.5 6239.42  2360.5 6242.5  C 2360.5 6245.58  2358.08 6248  2355 6248  C 2351.92 6248  2349.5 6245.58  2349.5 6242.5  C 2349.5 6239.42  2351.92 6237  2355 6237  Z " stroke-width="1" stroke="#797979" fill="none" />
  <path d="M 2355 6245.5  C 2353.32 6245.5  2352 6244.18  2352 6242.5  C 2352 6240.82  2353.32 6239.5  2355 6239.5  C 2356.68 6239.5  2358 6240.82  2358 6242.5  C 2358 6244.18  2356.68 6245.5  2355 6245.5  " fill-rule="nonzero" fill="#797979" stroke="none" />
</svg>