<?xml version="1.0" encoding="utf-8"?>
<svg version="1.1" xmlns:xlink="http://www.w3.org/1999/xlink" width="12px" height="12px" viewBox="800 3635.5  12 12" xmlns="http://www.w3.org/2000/svg">
  <path d="M 806 3635.5  C 809.36 3635.5  812 3638.14  812 3641.5  C 812 3644.86  809.36 3647.5  806 3647.5  C 802.64 3647.5  800 3644.86  800 3641.5  C 800 3638.14  802.64 3635.5  806 3635.5  Z " fill-rule="nonzero" fill="#f0f0f0" stroke="none" />
  <path d="M 806 3636  C 809.08 3636  811.5 3638.42  811.5 3641.5  C 811.5 3644.58  809.08 3647  806 3647  C 802.92 3647  800.5 3644.58  800.5 3641.5  C 800.5 3638.42  802.92 3636  806 3636  Z " stroke-width="1" stroke="#797979" fill="none" />
  <path d="M 806 3644.5  C 804.32 3644.5  803 3643.18  803 3641.5  C 803 3639.82  804.32 3638.5  806 3638.5  C 807.68 3638.5  809 3639.82  809 3641.5  C 809 3643.18  807.68 3644.5  806 3644.5  " fill-rule="nonzero" fill="#797979" stroke="none" />
</svg>