<?xml version="1.0" encoding="utf-8"?>
<svg version="1.1" xmlns:xlink="http://www.w3.org/1999/xlink" width="12px" height="12px" viewBox="1995 4924  12 12" xmlns="http://www.w3.org/2000/svg">
  <path d="M 1995.5 4926  A 1.5 1.5 0 0 1 1997 4924.5 L 2005 4924.5  A 1.5 1.5 0 0 1 2006.5 4926 L 2006.5 4934  A 1.5 1.5 0 0 1 2005 4935.5 L 1997 4935.5  A 1.5 1.5 0 0 1 1995.5 4934 L 1995.5 4926  Z " fill-rule="nonzero" fill="#f0f0f0" stroke="none" />
  <path d="M 1995.5 4926  A 1.5 1.5 0 0 1 1997 4924.5 L 2005 4924.5  A 1.5 1.5 0 0 1 2006.5 4926 L 2006.5 4934  A 1.5 1.5 0 0 1 2005 4935.5 L 1997 4935.5  A 1.5 1.5 0 0 1 1995.5 4934 L 1995.5 4926  Z " stroke-width="1" stroke="#797979" fill="none" />
  <path d="M 1997.57142857143 4930  L 2000.14285714286 4932.57142857143  " stroke-width="2.57142857142857" stroke="#797979" fill="none" />
  <path d="M 2000.14285714286 4932.57142857143  L 2004.42857142857 4926.57142857143  " stroke-width="2.57142857142857" stroke="#797979" fill="none" />
</svg>