<?xml version="1.0" encoding="utf-8"?>
<svg version="1.1" xmlns:xlink="http://www.w3.org/1999/xlink" width="12px" height="12px" viewBox="799 3680.5  12 12" xmlns="http://www.w3.org/2000/svg">
  <path d="M 805 3680.5  C 808.36 3680.5  811 3683.14  811 3686.5  C 811 3689.86  808.36 3692.5  805 3692.5  C 801.64 3692.5  799 3689.86  799 3686.5  C 799 3683.14  801.64 3680.5  805 3680.5  Z " fill-rule="nonzero" fill="#ffffff" stroke="none" />
  <path d="M 805 3681  C 808.08 3681  810.5 3683.42  810.5 3686.5  C 810.5 3689.58  808.08 3692  805 3692  C 801.92 3692  799.5 3689.58  799.5 3686.5  C 799.5 3683.42  801.92 3681  805 3681  Z " stroke-width="1" stroke="#797979" fill="none" />
  <path d="M 805 3689.5  C 803.32 3689.5  802 3688.18  802 3686.5  C 802 3684.82  803.32 3683.5  805 3683.5  C 806.68 3683.5  808 3684.82  808 3686.5  C 808 3688.18  806.68 3689.5  805 3689.5  " fill-rule="nonzero" fill="#797979" stroke="none" />
</svg>