<?xml version="1.0" encoding="utf-8"?>
<svg version="1.1" xmlns:xlink="http://www.w3.org/1999/xlink" width="12px" height="12px" viewBox="2396 6236.5  12 12" xmlns="http://www.w3.org/2000/svg">
  <path d="M 2402 6236.5  C 2405.36 6236.5  2408 6239.14  2408 6242.5  C 2408 6245.86  2405.36 6248.5  2402 6248.5  C 2398.64 6248.5  2396 6245.86  2396 6242.5  C 2396 6239.14  2398.64 6236.5  2402 6236.5  Z " fill-rule="nonzero" fill="#ffffff" stroke="none" />
  <path d="M 2402 6237  C 2405.08 6237  2407.5 6239.42  2407.5 6242.5  C 2407.5 6245.58  2405.08 6248  2402 6248  C 2398.92 6248  2396.5 6245.58  2396.5 6242.5  C 2396.5 6239.42  2398.92 6237  2402 6237  Z " stroke-width="1" stroke="#797979" fill="none" />
  <path d="M 2402 6245.5  C 2400.32 6245.5  2399 6244.18  2399 6242.5  C 2399 6240.82  2400.32 6239.5  2402 6239.5  C 2403.68 6239.5  2405 6240.82  2405 6242.5  C 2405 6244.18  2403.68 6245.5  2402 6245.5  " fill-rule="nonzero" fill="#797979" stroke="none" />
</svg>