<?xml version="1.0" encoding="utf-8"?>
<svg version="1.1" xmlns:xlink="http://www.w3.org/1999/xlink" width="12px" height="12px" viewBox="2348 6321.5  12 12" xmlns="http://www.w3.org/2000/svg">
  <path d="M 2354 6321.5  C 2357.36 6321.5  2360 6324.14  2360 6327.5  C 2360 6330.86  2357.36 6333.5  2354 6333.5  C 2350.64 6333.5  2348 6330.86  2348 6327.5  C 2348 6324.14  2350.64 6321.5  2354 6321.5  Z " fill-rule="nonzero" fill="#ffffff" stroke="none" />
  <path d="M 2354 6322  C 2357.08 6322  2359.5 6324.42  2359.5 6327.5  C 2359.5 6330.58  2357.08 6333  2354 6333  C 2350.92 6333  2348.5 6330.58  2348.5 6327.5  C 2348.5 6324.42  2350.92 6322  2354 6322  Z " stroke-width="1" stroke="#797979" fill="none" />
  <path d="M 2354 6330.5  C 2352.32 6330.5  2351 6329.18  2351 6327.5  C 2351 6325.82  2352.32 6324.5  2354 6324.5  C 2355.68 6324.5  2357 6325.82  2357 6327.5  C 2357 6329.18  2355.68 6330.5  2354 6330.5  " fill-rule="nonzero" fill="#797979" stroke="none" />
</svg>