<?xml version="1.0" encoding="utf-8"?>
<svg version="1.1" xmlns:xlink="http://www.w3.org/1999/xlink" width="12px" height="12px" viewBox="800 3595.5  12 12" xmlns="http://www.w3.org/2000/svg">
  <path d="M 806 3595.5  C 809.36 3595.5  812 3598.14  812 3601.5  C 812 3604.86  809.36 3607.5  806 3607.5  C 802.64 3607.5  800 3604.86  800 3601.5  C 800 3598.14  802.64 3595.5  806 3595.5  Z " fill-rule="nonzero" fill="#ffffff" stroke="none" />
  <path d="M 806 3596  C 809.08 3596  811.5 3598.42  811.5 3601.5  C 811.5 3604.58  809.08 3607  806 3607  C 802.92 3607  800.5 3604.58  800.5 3601.5  C 800.5 3598.42  802.92 3596  806 3596  Z " stroke-width="1" stroke="#797979" fill="none" />
  <path d="M 806 3604.5  C 804.32 3604.5  803 3603.18  803 3601.5  C 803 3599.82  804.32 3598.5  806 3598.5  C 807.68 3598.5  809 3599.82  809 3601.5  C 809 3603.18  807.68 3604.5  806 3604.5  " fill-rule="nonzero" fill="#797979" stroke="none" />
</svg>