<?xml version="1.0" encoding="utf-8"?>
<svg version="1.1" xmlns:xlink="http://www.w3.org/1999/xlink" width="12px" height="12px" viewBox="2349 6276.5  12 12" xmlns="http://www.w3.org/2000/svg">
  <path d="M 2355 6276.5  C 2358.36 6276.5  2361 6279.14  2361 6282.5  C 2361 6285.86  2358.36 6288.5  2355 6288.5  C 2351.64 6288.5  2349 6285.86  2349 6282.5  C 2349 6279.14  2351.64 6276.5  2355 6276.5  Z " fill-rule="nonzero" fill="#f0f0f0" stroke="none" />
  <path d="M 2355 6277  C 2358.08 6277  2360.5 6279.42  2360.5 6282.5  C 2360.5 6285.58  2358.08 6288  2355 6288  C 2351.92 6288  2349.5 6285.58  2349.5 6282.5  C 2349.5 6279.42  2351.92 6277  2355 6277  Z " stroke-width="1" stroke="#797979" fill="none" />
  <path d="M 2355 6285.5  C 2353.32 6285.5  2352 6284.18  2352 6282.5  C 2352 6280.82  2353.32 6279.5  2355 6279.5  C 2356.68 6279.5  2358 6280.82  2358 6282.5  C 2358 6284.18  2356.68 6285.5  2355 6285.5  " fill-rule="nonzero" fill="#797979" stroke="none" />
</svg>