<?xml version="1.0" encoding="utf-8"?>
<svg version="1.1" xmlns:xlink="http://www.w3.org/1999/xlink" width="12px" height="12px" viewBox="445 3719  12 12" xmlns="http://www.w3.org/2000/svg">
  <path d="M 445.5 3721  A 1.5 1.5 0 0 1 447 3719.5 L 455 3719.5  A 1.5 1.5 0 0 1 456.5 3721 L 456.5 3729  A 1.5 1.5 0 0 1 455 3730.5 L 447 3730.5  A 1.5 1.5 0 0 1 445.5 3729 L 445.5 3721  Z " fill-rule="nonzero" fill="#ffffff" stroke="none" />
  <path d="M 445.5 3721  A 1.5 1.5 0 0 1 447 3719.5 L 455 3719.5  A 1.5 1.5 0 0 1 456.5 3721 L 456.5 3729  A 1.5 1.5 0 0 1 455 3730.5 L 447 3730.5  A 1.5 1.5 0 0 1 445.5 3729 L 445.5 3721  Z " stroke-width="1" stroke="#797979" fill="none" />
  <path d="M 447.571428571429 3725  L 450.142857142857 3727.57142857143  " stroke-width="2.57142857142857" stroke="#797979" fill="none" />
  <path d="M 450.142857142857 3727.57142857143  L 454.428571428571 3721.57142857143  " stroke-width="2.57142857142857" stroke="#797979" fill="none" />
</svg>