<?xml version="1.0" encoding="utf-8"?>
<svg version="1.1" xmlns:xlink="http://www.w3.org/1999/xlink" width="12px" height="12px" viewBox="797 3813.5  12 12" xmlns="http://www.w3.org/2000/svg">
  <path d="M 803 3813.5  C 806.36 3813.5  809 3816.14  809 3819.5  C 809 3822.86  806.36 3825.5  803 3825.5  C 799.64 3825.5  797 3822.86  797 3819.5  C 797 3816.14  799.64 3813.5  803 3813.5  Z " fill-rule="nonzero" fill="#ffffff" stroke="none" />
  <path d="M 803 3814  C 806.08 3814  808.5 3816.42  808.5 3819.5  C 808.5 3822.58  806.08 3825  803 3825  C 799.92 3825  797.5 3822.58  797.5 3819.5  C 797.5 3816.42  799.92 3814  803 3814  Z " stroke-width="1" stroke="#797979" fill="none" />
  <path d="M 803 3822.5  C 801.32 3822.5  800 3821.18  800 3819.5  C 800 3817.82  801.32 3816.5  803 3816.5  C 804.68 3816.5  806 3817.82  806 3819.5  C 806 3821.18  804.68 3822.5  803 3822.5  " fill-rule="nonzero" fill="#797979" stroke="none" />
</svg>