<?xml version="1.0" encoding="utf-8"?>
<svg version="1.1" xmlns:xlink="http://www.w3.org/1999/xlink" width="12px" height="12px" viewBox="1996 6319  12 12" xmlns="http://www.w3.org/2000/svg">
  <path d="M 1996.5 6321  A 1.5 1.5 0 0 1 1998 6319.5 L 2006 6319.5  A 1.5 1.5 0 0 1 2007.5 6321 L 2007.5 6329  A 1.5 1.5 0 0 1 2006 6330.5 L 1998 6330.5  A 1.5 1.5 0 0 1 1996.5 6329 L 1996.5 6321  Z " fill-rule="nonzero" fill="#ffffff" stroke="none" />
  <path d="M 1996.5 6321  A 1.5 1.5 0 0 1 1998 6319.5 L 2006 6319.5  A 1.5 1.5 0 0 1 2007.5 6321 L 2007.5 6329  A 1.5 1.5 0 0 1 2006 6330.5 L 1998 6330.5  A 1.5 1.5 0 0 1 1996.5 6329 L 1996.5 6321  Z " stroke-width="1" stroke="#797979" fill="none" />
  <path d="M 1998.57142857143 6325  L 2001.14285714286 6327.57142857143  " stroke-width="2.57142857142857" stroke="#797979" fill="none" />
  <path d="M 2001.14285714286 6327.57142857143  L 2005.42857142857 6321.57142857143  " stroke-width="2.57142857142857" stroke="#797979" fill="none" />
</svg>