<?xml version="1.0" encoding="utf-8"?>
<svg version="1.1" xmlns:xlink="http://www.w3.org/1999/xlink" width="12px" height="12px" viewBox="2397 6449.5  12 12" xmlns="http://www.w3.org/2000/svg">
  <path d="M 2403 6449.5  C 2406.36 6449.5  2409 6452.14  2409 6455.5  C 2409 6458.86  2406.36 6461.5  2403 6461.5  C 2399.64 6461.5  2397 6458.86  2397 6455.5  C 2397 6452.14  2399.64 6449.5  2403 6449.5  Z " fill-rule="nonzero" fill="#f0f0f0" stroke="none" />
  <path d="M 2403 6450  C 2406.08 6450  2408.5 6452.42  2408.5 6455.5  C 2408.5 6458.58  2406.08 6461  2403 6461  C 2399.92 6461  2397.5 6458.58  2397.5 6455.5  C 2397.5 6452.42  2399.92 6450  2403 6450  Z " stroke-width="1" stroke="#797979" fill="none" />
  <path d="M 2403 6458.5  C 2401.32 6458.5  2400 6457.18  2400 6455.5  C 2400 6453.82  2401.32 6452.5  2403 6452.5  C 2404.68 6452.5  2406 6453.82  2406 6455.5  C 2406 6457.18  2404.68 6458.5  2403 6458.5  " fill-rule="nonzero" fill="#797979" stroke="none" />
</svg>