<?xml version="1.0" encoding="utf-8"?>
<svg version="1.1" xmlns:xlink="http://www.w3.org/1999/xlink" width="12px" height="12px" viewBox="447 3016  12 12" xmlns="http://www.w3.org/2000/svg">
  <path d="M 447.5 3018  A 1.5 1.5 0 0 1 449 3016.5 L 457 3016.5  A 1.5 1.5 0 0 1 458.5 3018 L 458.5 3026  A 1.5 1.5 0 0 1 457 3027.5 L 449 3027.5  A 1.5 1.5 0 0 1 447.5 3026 L 447.5 3018  Z " fill-rule="nonzero" fill="#f0f0f0" stroke="none" />
  <path d="M 447.5 3018  A 1.5 1.5 0 0 1 449 3016.5 L 457 3016.5  A 1.5 1.5 0 0 1 458.5 3018 L 458.5 3026  A 1.5 1.5 0 0 1 457 3027.5 L 449 3027.5  A 1.5 1.5 0 0 1 447.5 3026 L 447.5 3018  Z " stroke-width="1" stroke="#797979" fill="none" />
</svg>