<?xml version="1.0" encoding="utf-8"?>
<svg version="1.1" xmlns:xlink="http://www.w3.org/1999/xlink" width="12px" height="12px" viewBox="1998 6407  12 12" xmlns="http://www.w3.org/2000/svg">
  <path d="M 1998.5 6409  A 1.5 1.5 0 0 1 2000 6407.5 L 2008 6407.5  A 1.5 1.5 0 0 1 2009.5 6409 L 2009.5 6417  A 1.5 1.5 0 0 1 2008 6418.5 L 2000 6418.5  A 1.5 1.5 0 0 1 1998.5 6417 L 1998.5 6409  Z " fill-rule="nonzero" fill="#ffffff" stroke="none" />
  <path d="M 1998.5 6409  A 1.5 1.5 0 0 1 2000 6407.5 L 2008 6407.5  A 1.5 1.5 0 0 1 2009.5 6409 L 2009.5 6417  A 1.5 1.5 0 0 1 2008 6418.5 L 2000 6418.5  A 1.5 1.5 0 0 1 1998.5 6417 L 1998.5 6409  Z " stroke-width="1" stroke="#797979" fill="none" />
</svg>