<?xml version="1.0" encoding="utf-8"?>
<svg version="1.1" xmlns:xlink="http://www.w3.org/1999/xlink" width="12px" height="12px" viewBox="800 2973.5  12 12" xmlns="http://www.w3.org/2000/svg">
  <path d="M 806 2973.5  C 809.36 2973.5  812 2976.14  812 2979.5  C 812 2982.86  809.36 2985.5  806 2985.5  C 802.64 2985.5  800 2982.86  800 2979.5  C 800 2976.14  802.64 2973.5  806 2973.5  Z " fill-rule="nonzero" fill="#f0f0f0" stroke="none" />
  <path d="M 806 2974  C 809.08 2974  811.5 2976.42  811.5 2979.5  C 811.5 2982.58  809.08 2985  806 2985  C 802.92 2985  800.5 2982.58  800.5 2979.5  C 800.5 2976.42  802.92 2974  806 2974  Z " stroke-width="1" stroke="#797979" fill="none" />
  <path d="M 806 2982.5  C 804.32 2982.5  803 2981.18  803 2979.5  C 803 2977.82  804.32 2976.5  806 2976.5  C 807.68 2976.5  809 2977.82  809 2979.5  C 809 2981.18  807.68 2982.5  806 2982.5  " fill-rule="nonzero" fill="#797979" stroke="none" />
</svg>