<?xml version="1.0" encoding="utf-8"?>
<svg version="1.1" xmlns:xlink="http://www.w3.org/1999/xlink" width="12px" height="12px" viewBox="844 3813.5  12 12" xmlns="http://www.w3.org/2000/svg">
  <path d="M 850 3813.5  C 853.36 3813.5  856 3816.14  856 3819.5  C 856 3822.86  853.36 3825.5  850 3825.5  C 846.64 3825.5  844 3822.86  844 3819.5  C 844 3816.14  846.64 3813.5  850 3813.5  Z " fill-rule="nonzero" fill="#f0f0f0" stroke="none" />
  <path d="M 850 3814  C 853.08 3814  855.5 3816.42  855.5 3819.5  C 855.5 3822.58  853.08 3825  850 3825  C 846.92 3825  844.5 3822.58  844.5 3819.5  C 844.5 3816.42  846.92 3814  850 3814  Z " stroke-width="1" stroke="#797979" fill="none" />
  <path d="M 850 3822.5  C 848.32 3822.5  847 3821.18  847 3819.5  C 847 3817.82  848.32 3816.5  850 3816.5  C 851.68 3816.5  853 3817.82  853 3819.5  C 853 3821.18  851.68 3822.5  850 3822.5  " fill-rule="nonzero" fill="#797979" stroke="none" />
</svg>