<?xml version="1.0" encoding="utf-8"?>
<svg version="1.1" xmlns:xlink="http://www.w3.org/1999/xlink" width="12px" height="12px" viewBox="445 3149  12 12" xmlns="http://www.w3.org/2000/svg">
  <path d="M 445.5 3151  A 1.5 1.5 0 0 1 447 3149.5 L 455 3149.5  A 1.5 1.5 0 0 1 456.5 3151 L 456.5 3159  A 1.5 1.5 0 0 1 455 3160.5 L 447 3160.5  A 1.5 1.5 0 0 1 445.5 3159 L 445.5 3151  Z " fill-rule="nonzero" fill="#ffffff" stroke="none" />
  <path d="M 445.5 3151  A 1.5 1.5 0 0 1 447 3149.5 L 455 3149.5  A 1.5 1.5 0 0 1 456.5 3151 L 456.5 3159  A 1.5 1.5 0 0 1 455 3160.5 L 447 3160.5  A 1.5 1.5 0 0 1 445.5 3159 L 445.5 3151  Z " stroke-width="1" stroke="#797979" fill="none" />
</svg>