<?xml version="1.0" encoding="utf-8"?>
<svg version="1.1" xmlns:xlink="http://www.w3.org/1999/xlink" width="12px" height="12px" viewBox="846 3018.5  12 12" xmlns="http://www.w3.org/2000/svg">
  <path d="M 852 3018.5  C 855.36 3018.5  858 3021.14  858 3024.5  C 858 3027.86  855.36 3030.5  852 3030.5  C 848.64 3030.5  846 3027.86  846 3024.5  C 846 3021.14  848.64 3018.5  852 3018.5  Z " fill-rule="nonzero" fill="#f0f0f0" stroke="none" />
  <path d="M 852 3019  C 855.08 3019  857.5 3021.42  857.5 3024.5  C 857.5 3027.58  855.08 3030  852 3030  C 848.92 3030  846.5 3027.58  846.5 3024.5  C 846.5 3021.42  848.92 3019  852 3019  Z " stroke-width="1" stroke="#797979" fill="none" />
  <path d="M 852 3027.5  C 850.32 3027.5  849 3026.18  849 3024.5  C 849 3022.82  850.32 3021.5  852 3021.5  C 853.68 3021.5  855 3022.82  855 3024.5  C 855 3026.18  853.68 3027.5  852 3027.5  " fill-rule="nonzero" fill="#797979" stroke="none" />
</svg>