<?xml version="1.0" encoding="utf-8"?>
<svg version="1.1" xmlns:xlink="http://www.w3.org/1999/xlink" width="12px" height="12px" viewBox="448 2931  12 12" xmlns="http://www.w3.org/2000/svg">
  <path d="M 448.5 2933  A 1.5 1.5 0 0 1 450 2931.5 L 458 2931.5  A 1.5 1.5 0 0 1 459.5 2933 L 459.5 2941  A 1.5 1.5 0 0 1 458 2942.5 L 450 2942.5  A 1.5 1.5 0 0 1 448.5 2941 L 448.5 2933  Z " fill-rule="nonzero" fill="#f0f0f0" stroke="none" />
  <path d="M 448.5 2933  A 1.5 1.5 0 0 1 450 2931.5 L 458 2931.5  A 1.5 1.5 0 0 1 459.5 2933 L 459.5 2941  A 1.5 1.5 0 0 1 458 2942.5 L 450 2942.5  A 1.5 1.5 0 0 1 448.5 2941 L 448.5 2933  Z " stroke-width="1" stroke="#797979" fill="none" />
  <path d="M 450.571428571429 2937  L 453.142857142857 2939.57142857143  " stroke-width="2.57142857142857" stroke="#797979" fill="none" />
  <path d="M 453.142857142857 2939.57142857143  L 457.428571428571 2933.57142857143  " stroke-width="2.57142857142857" stroke="#797979" fill="none" />
</svg>