<?xml version="1.0" encoding="utf-8"?>
<svg version="1.1" xmlns:xlink="http://www.w3.org/1999/xlink" width="12px" height="12px" viewBox="1995 6533  12 12" xmlns="http://www.w3.org/2000/svg">
  <path d="M 1995.5 6535  A 1.5 1.5 0 0 1 1997 6533.5 L 2005 6533.5  A 1.5 1.5 0 0 1 2006.5 6535 L 2006.5 6543  A 1.5 1.5 0 0 1 2005 6544.5 L 1997 6544.5  A 1.5 1.5 0 0 1 1995.5 6543 L 1995.5 6535  Z " fill-rule="nonzero" fill="#f0f0f0" stroke="none" />
  <path d="M 1995.5 6535  A 1.5 1.5 0 0 1 1997 6533.5 L 2005 6533.5  A 1.5 1.5 0 0 1 2006.5 6535 L 2006.5 6543  A 1.5 1.5 0 0 1 2005 6544.5 L 1997 6544.5  A 1.5 1.5 0 0 1 1995.5 6543 L 1995.5 6535  Z " stroke-width="1" stroke="#797979" fill="none" />
</svg>