<?xml version="1.0" encoding="utf-8"?>
<svg version="1.1" xmlns:xlink="http://www.w3.org/1999/xlink" width="12px" height="12px" viewBox="2396 6494.5  12 12" xmlns="http://www.w3.org/2000/svg">
  <path d="M 2402 6494.5  C 2405.36 6494.5  2408 6497.14  2408 6500.5  C 2408 6503.86  2405.36 6506.5  2402 6506.5  C 2398.64 6506.5  2396 6503.86  2396 6500.5  C 2396 6497.14  2398.64 6494.5  2402 6494.5  Z " fill-rule="nonzero" fill="#ffffff" stroke="none" />
  <path d="M 2402 6495  C 2405.08 6495  2407.5 6497.42  2407.5 6500.5  C 2407.5 6503.58  2405.08 6506  2402 6506  C 2398.92 6506  2396.5 6503.58  2396.5 6500.5  C 2396.5 6497.42  2398.92 6495  2402 6495  Z " stroke-width="1" stroke="#797979" fill="none" />
  <path d="M 2402 6503.5  C 2400.32 6503.5  2399 6502.18  2399 6500.5  C 2399 6498.82  2400.32 6497.5  2402 6497.5  C 2403.68 6497.5  2405 6498.82  2405 6500.5  C 2405 6502.18  2403.68 6503.5  2402 6503.5  " fill-rule="nonzero" fill="#797979" stroke="none" />
</svg>