<?xml version="1.0" encoding="utf-8"?>
<svg version="1.1" xmlns:xlink="http://www.w3.org/1999/xlink" width="12px" height="12px" viewBox="1997 6492  12 12" xmlns="http://www.w3.org/2000/svg">
  <path d="M 1997.5 6494  A 1.5 1.5 0 0 1 1999 6492.5 L 2007 6492.5  A 1.5 1.5 0 0 1 2008.5 6494 L 2008.5 6502  A 1.5 1.5 0 0 1 2007 6503.5 L 1999 6503.5  A 1.5 1.5 0 0 1 1997.5 6502 L 1997.5 6494  Z " fill-rule="nonzero" fill="#ffffff" stroke="none" />
  <path d="M 1997.5 6494  A 1.5 1.5 0 0 1 1999 6492.5 L 2007 6492.5  A 1.5 1.5 0 0 1 2008.5 6494 L 2008.5 6502  A 1.5 1.5 0 0 1 2007 6503.5 L 1999 6503.5  A 1.5 1.5 0 0 1 1997.5 6502 L 1997.5 6494  Z " stroke-width="1" stroke="#797979" fill="none" />
</svg>