<?xml version="1.0" encoding="utf-8"?>
<svg version="1.1" xmlns:xlink="http://www.w3.org/1999/xlink" width="12px" height="12px" viewBox="190 3068  12 12" xmlns="http://www.w3.org/2000/svg">
  <path d="M 190.5 3070  A 1.5 1.5 0 0 1 192 3068.5 L 200 3068.5  A 1.5 1.5 0 0 1 201.5 3070 L 201.5 3078  A 1.5 1.5 0 0 1 200 3079.5 L 192 3079.5  A 1.5 1.5 0 0 1 190.5 3078 L 190.5 3070  Z " fill-rule="nonzero" fill="#f0f0f0" stroke="none" />
  <path d="M 190.5 3070  A 1.5 1.5 0 0 1 192 3068.5 L 200 3068.5  A 1.5 1.5 0 0 1 201.5 3070 L 201.5 3078  A 1.5 1.5 0 0 1 200 3079.5 L 192 3079.5  A 1.5 1.5 0 0 1 190.5 3078 L 190.5 3070  Z " stroke-width="1" stroke="#797979" fill="none" />
</svg>