<?xml version="1.0" encoding="utf-8"?>
<svg version="1.1" xmlns:xlink="http://www.w3.org/1999/xlink" width="12px" height="12px" viewBox="2396 6617.5  12 12" xmlns="http://www.w3.org/2000/svg">
  <path d="M 2402 6617.5  C 2405.36 6617.5  2408 6620.14  2408 6623.5  C 2408 6626.86  2405.36 6629.5  2402 6629.5  C 2398.64 6629.5  2396 6626.86  2396 6623.5  C 2396 6620.14  2398.64 6617.5  2402 6617.5  Z " fill-rule="nonzero" fill="#f0f0f0" stroke="none" />
  <path d="M 2402 6618  C 2405.08 6618  2407.5 6620.42  2407.5 6623.5  C 2407.5 6626.58  2405.08 6629  2402 6629  C 2398.92 6629  2396.5 6626.58  2396.5 6623.5  C 2396.5 6620.42  2398.92 6618  2402 6618  Z " stroke-width="1" stroke="#797979" fill="none" />
  <path d="M 2402 6626.5  C 2400.32 6626.5  2399 6625.18  2399 6623.5  C 2399 6621.82  2400.32 6620.5  2402 6620.5  C 2403.68 6620.5  2405 6621.82  2405 6623.5  C 2405 6625.18  2403.68 6626.5  2402 6626.5  " fill-rule="nonzero" fill="#797979" stroke="none" />
</svg>