<?xml version="1.0" encoding="utf-8"?>
<svg version="1.1" xmlns:xlink="http://www.w3.org/1999/xlink" width="12px" height="12px" viewBox="2349 6577.5  12 12" xmlns="http://www.w3.org/2000/svg">
  <path d="M 2355 6577.5  C 2358.36 6577.5  2361 6580.14  2361 6583.5  C 2361 6586.86  2358.36 6589.5  2355 6589.5  C 2351.64 6589.5  2349 6586.86  2349 6583.5  C 2349 6580.14  2351.64 6577.5  2355 6577.5  Z " fill-rule="nonzero" fill="#ffffff" stroke="none" />
  <path d="M 2355 6578  C 2358.08 6578  2360.5 6580.42  2360.5 6583.5  C 2360.5 6586.58  2358.08 6589  2355 6589  C 2351.92 6589  2349.5 6586.58  2349.5 6583.5  C 2349.5 6580.42  2351.92 6578  2355 6578  Z " stroke-width="1" stroke="#797979" fill="none" />
  <path d="M 2355 6586.5  C 2353.32 6586.5  2352 6585.18  2352 6583.5  C 2352 6581.82  2353.32 6580.5  2355 6580.5  C 2356.68 6580.5  2358 6581.82  2358 6583.5  C 2358 6585.18  2356.68 6586.5  2355 6586.5  " fill-rule="nonzero" fill="#797979" stroke="none" />
</svg>