<?xml version="1.0" encoding="utf-8"?>
<svg version="1.1" xmlns:xlink="http://www.w3.org/1999/xlink" width="12px" height="12px" viewBox="799 3151.5  12 12" xmlns="http://www.w3.org/2000/svg">
  <path d="M 805 3151.5  C 808.36 3151.5  811 3154.14  811 3157.5  C 811 3160.86  808.36 3163.5  805 3163.5  C 801.64 3163.5  799 3160.86  799 3157.5  C 799 3154.14  801.64 3151.5  805 3151.5  Z " fill-rule="nonzero" fill="#f0f0f0" stroke="none" />
  <path d="M 805 3152  C 808.08 3152  810.5 3154.42  810.5 3157.5  C 810.5 3160.58  808.08 3163  805 3163  C 801.92 3163  799.5 3160.58  799.5 3157.5  C 799.5 3154.42  801.92 3152  805 3152  Z " stroke-width="1" stroke="#797979" fill="none" />
  <path d="M 805 3160.5  C 803.32 3160.5  802 3159.18  802 3157.5  C 802 3155.82  803.32 3154.5  805 3154.5  C 806.68 3154.5  808 3155.82  808 3157.5  C 808 3159.18  806.68 3160.5  805 3160.5  " fill-rule="nonzero" fill="#797979" stroke="none" />
</svg>