<?xml version="1.0" encoding="utf-8"?>
<svg version="1.1" xmlns:xlink="http://www.w3.org/1999/xlink" width="12px" height="12px" viewBox="800 3308.5  12 12" xmlns="http://www.w3.org/2000/svg">
  <path d="M 806 3308.5  C 809.36 3308.5  812 3311.14  812 3314.5  C 812 3317.86  809.36 3320.5  806 3320.5  C 802.64 3320.5  800 3317.86  800 3314.5  C 800 3311.14  802.64 3308.5  806 3308.5  Z " fill-rule="nonzero" fill="#ffffff" stroke="none" fill-opacity="0" />
  <path d="M 806 3309  C 809.08 3309  811.5 3311.42  811.5 3314.5  C 811.5 3317.58  809.08 3320  806 3320  C 802.92 3320  800.5 3317.58  800.5 3314.5  C 800.5 3311.42  802.92 3309  806 3309  Z " stroke-width="1" stroke="#797979" fill="none" />
  <path d="M 806 3317.5  C 804.32 3317.5  803 3316.18  803 3314.5  C 803 3312.82  804.32 3311.5  806 3311.5  C 807.68 3311.5  809 3312.82  809 3314.5  C 809 3316.18  807.68 3317.5  806 3317.5  " fill-rule="nonzero" fill="#797979" stroke="none" />
</svg>