<?xml version="1.0" encoding="utf-8"?>
<svg version="1.1" xmlns:xlink="http://www.w3.org/1999/xlink" width="12px" height="12px" viewBox="846 3151.5  12 12" xmlns="http://www.w3.org/2000/svg">
  <path d="M 852 3151.5  C 855.36 3151.5  858 3154.14  858 3157.5  C 858 3160.86  855.36 3163.5  852 3163.5  C 848.64 3163.5  846 3160.86  846 3157.5  C 846 3154.14  848.64 3151.5  852 3151.5  Z " fill-rule="nonzero" fill="#f0f0f0" stroke="none" />
  <path d="M 852 3152  C 855.08 3152  857.5 3154.42  857.5 3157.5  C 857.5 3160.58  855.08 3163  852 3163  C 848.92 3163  846.5 3160.58  846.5 3157.5  C 846.5 3154.42  848.92 3152  852 3152  Z " stroke-width="1" stroke="#797979" fill="none" />
  <path d="M 852 3160.5  C 850.32 3160.5  849 3159.18  849 3157.5  C 849 3155.82  850.32 3154.5  852 3154.5  C 853.68 3154.5  855 3155.82  855 3157.5  C 855 3159.18  853.68 3160.5  852 3160.5  " fill-rule="nonzero" fill="#797979" stroke="none" />
</svg>