<?xml version="1.0" encoding="utf-8"?>
<svg version="1.1" xmlns:xlink="http://www.w3.org/1999/xlink" width="12px" height="12px" viewBox="846 3188.5  12 12" xmlns="http://www.w3.org/2000/svg">
  <path d="M 852 3188.5  C 855.36 3188.5  858 3191.14  858 3194.5  C 858 3197.86  855.36 3200.5  852 3200.5  C 848.64 3200.5  846 3197.86  846 3194.5  C 846 3191.14  848.64 3188.5  852 3188.5  Z " fill-rule="nonzero" fill="#d7d7d7" stroke="none" />
  <path d="M 852 3189  C 855.08 3189  857.5 3191.42  857.5 3194.5  C 857.5 3197.58  855.08 3200  852 3200  C 848.92 3200  846.5 3197.58  846.5 3194.5  C 846.5 3191.42  848.92 3189  852 3189  Z " stroke-width="1" stroke="#797979" fill="none" />
  <path d="M 852 3197.5  C 850.32 3197.5  849 3196.18  849 3194.5  C 849 3192.82  850.32 3191.5  852 3191.5  C 853.68 3191.5  855 3192.82  855 3194.5  C 855 3196.18  853.68 3197.5  852 3197.5  " fill-rule="nonzero" fill="#797979" stroke="none" />
</svg>