<?xml version="1.0" encoding="utf-8"?>
<svg version="1.1" xmlns:xlink="http://www.w3.org/1999/xlink" width="12px" height="12px" viewBox="2397 2893.5  12 12" xmlns="http://www.w3.org/2000/svg">
  <path d="M 2403 2893.5  C 2406.36 2893.5  2409 2896.14  2409 2899.5  C 2409 2902.86  2406.36 2905.5  2403 2905.5  C 2399.64 2905.5  2397 2902.86  2397 2899.5  C 2397 2896.14  2399.64 2893.5  2403 2893.5  Z " fill-rule="nonzero" fill="#f0f0f0" stroke="none" />
  <path d="M 2403 2894  C 2406.08 2894  2408.5 2896.42  2408.5 2899.5  C 2408.5 2902.58  2406.08 2905  2403 2905  C 2399.92 2905  2397.5 2902.58  2397.5 2899.5  C 2397.5 2896.42  2399.92 2894  2403 2894  Z " stroke-width="1" stroke="#797979" fill="none" />
  <path d="M 2403 2902.5  C 2401.32 2902.5  2400 2901.18  2400 2899.5  C 2400 2897.82  2401.32 2896.5  2403 2896.5  C 2404.68 2896.5  2406 2897.82  2406 2899.5  C 2406 2901.18  2404.68 2902.5  2403 2902.5  " fill-rule="nonzero" fill="#797979" stroke="none" />
</svg>