<?xml version="1.0" encoding="utf-8"?>
<svg version="1.1" xmlns:xlink="http://www.w3.org/1999/xlink" width="12px" height="12px" viewBox="799 3267.5  12 12" xmlns="http://www.w3.org/2000/svg">
  <path d="M 805 3267.5  C 808.36 3267.5  811 3270.14  811 3273.5  C 811 3276.86  808.36 3279.5  805 3279.5  C 801.64 3279.5  799 3276.86  799 3273.5  C 799 3270.14  801.64 3267.5  805 3267.5  Z " fill-rule="nonzero" fill="#f2f2f2" stroke="none" />
  <path d="M 805 3268  C 808.08 3268  810.5 3270.42  810.5 3273.5  C 810.5 3276.58  808.08 3279  805 3279  C 801.92 3279  799.5 3276.58  799.5 3273.5  C 799.5 3270.42  801.92 3268  805 3268  Z " stroke-width="1" stroke="#797979" fill="none" />
  <path d="M 805 3276.5  C 803.32 3276.5  802 3275.18  802 3273.5  C 802 3271.82  803.32 3270.5  805 3270.5  C 806.68 3270.5  808 3271.82  808 3273.5  C 808 3275.18  806.68 3276.5  805 3276.5  " fill-rule="nonzero" fill="#797979" stroke="none" />
</svg>