<?xml version="1.0" encoding="utf-8"?>
<svg version="1.1" xmlns:xlink="http://www.w3.org/1999/xlink" width="12px" height="12px" viewBox="2350 2856.5  12 12" xmlns="http://www.w3.org/2000/svg">
  <path d="M 2356 2856.5  C 2359.36 2856.5  2362 2859.14  2362 2862.5  C 2362 2865.86  2359.36 2868.5  2356 2868.5  C 2352.64 2868.5  2350 2865.86  2350 2862.5  C 2350 2859.14  2352.64 2856.5  2356 2856.5  Z " fill-rule="nonzero" fill="#f0f0f0" stroke="none" />
  <path d="M 2356 2857  C 2359.08 2857  2361.5 2859.42  2361.5 2862.5  C 2361.5 2865.58  2359.08 2868  2356 2868  C 2352.92 2868  2350.5 2865.58  2350.5 2862.5  C 2350.5 2859.42  2352.92 2857  2356 2857  Z " stroke-width="1" stroke="#797979" fill="none" />
  <path d="M 2356 2865.5  C 2354.32 2865.5  2353 2864.18  2353 2862.5  C 2353 2860.82  2354.32 2859.5  2356 2859.5  C 2357.68 2859.5  2359 2860.82  2359 2862.5  C 2359 2864.18  2357.68 2865.5  2356 2865.5  " fill-rule="nonzero" fill="#797979" stroke="none" />
</svg>