<?xml version="1.0" encoding="utf-8"?>
<svg version="1.1" xmlns:xlink="http://www.w3.org/1999/xlink" width="12px" height="12px" viewBox="2397 2856.5  12 12" xmlns="http://www.w3.org/2000/svg">
  <path d="M 2403 2856.5  C 2406.36 2856.5  2409 2859.14  2409 2862.5  C 2409 2865.86  2406.36 2868.5  2403 2868.5  C 2399.64 2868.5  2397 2865.86  2397 2862.5  C 2397 2859.14  2399.64 2856.5  2403 2856.5  Z " fill-rule="nonzero" fill="#f0f0f0" stroke="none" />
  <path d="M 2403 2857  C 2406.08 2857  2408.5 2859.42  2408.5 2862.5  C 2408.5 2865.58  2406.08 2868  2403 2868  C 2399.92 2868  2397.5 2865.58  2397.5 2862.5  C 2397.5 2859.42  2399.92 2857  2403 2857  Z " stroke-width="1" stroke="#797979" fill="none" />
  <path d="M 2403 2865.5  C 2401.32 2865.5  2400 2864.18  2400 2862.5  C 2400 2860.82  2401.32 2859.5  2403 2859.5  C 2404.68 2859.5  2406 2860.82  2406 2862.5  C 2406 2864.18  2404.68 2865.5  2403 2865.5  " fill-rule="nonzero" fill="#797979" stroke="none" />
</svg>