<?xml version="1.0" encoding="utf-8"?>
<svg version="1.1" xmlns:xlink="http://www.w3.org/1999/xlink" width="12px" height="12px" viewBox="846 3267.5  12 12" xmlns="http://www.w3.org/2000/svg">
  <path d="M 852 3267.5  C 855.36 3267.5  858 3270.14  858 3273.5  C 858 3276.86  855.36 3279.5  852 3279.5  C 848.64 3279.5  846 3276.86  846 3273.5  C 846 3270.14  848.64 3267.5  852 3267.5  Z " fill-rule="nonzero" fill="#f0f0f0" stroke="none" />
  <path d="M 852 3268  C 855.08 3268  857.5 3270.42  857.5 3273.5  C 857.5 3276.58  855.08 3279  852 3279  C 848.92 3279  846.5 3276.58  846.5 3273.5  C 846.5 3270.42  848.92 3268  852 3268  Z " stroke-width="1" stroke="#797979" fill="none" />
  <path d="M 852 3276.5  C 850.32 3276.5  849 3275.18  849 3273.5  C 849 3271.82  850.32 3270.5  852 3270.5  C 853.68 3270.5  855 3271.82  855 3273.5  C 855 3275.18  853.68 3276.5  852 3276.5  " fill-rule="nonzero" fill="#797979" stroke="none" />
</svg>