<?xml version="1.0" encoding="utf-8"?>
<svg version="1.1" xmlns:xlink="http://www.w3.org/1999/xlink" width="12px" height="12px" viewBox="2397 2972.5  12 12" xmlns="http://www.w3.org/2000/svg">
  <path d="M 2403 2972.5  C 2406.36 2972.5  2409 2975.14  2409 2978.5  C 2409 2981.86  2406.36 2984.5  2403 2984.5  C 2399.64 2984.5  2397 2981.86  2397 2978.5  C 2397 2975.14  2399.64 2972.5  2403 2972.5  Z " fill-rule="nonzero" fill="#f2f2f2" stroke="none" />
  <path d="M 2403 2973  C 2406.08 2973  2408.5 2975.42  2408.5 2978.5  C 2408.5 2981.58  2406.08 2984  2403 2984  C 2399.92 2984  2397.5 2981.58  2397.5 2978.5  C 2397.5 2975.42  2399.92 2973  2403 2973  Z " stroke-width="1" stroke="#797979" fill="none" />
  <path d="M 2403 2981.5  C 2401.32 2981.5  2400 2980.18  2400 2978.5  C 2400 2976.82  2401.32 2975.5  2403 2975.5  C 2404.68 2975.5  2406 2976.82  2406 2978.5  C 2406 2980.18  2404.68 2981.5  2403 2981.5  " fill-rule="nonzero" fill="#797979" stroke="none" />
</svg>