<?xml version="1.0" encoding="utf-8"?>
<svg version="1.1" xmlns:xlink="http://www.w3.org/1999/xlink" width="12px" height="12px" viewBox="847 3475.5  12 12" xmlns="http://www.w3.org/2000/svg">
  <path d="M 853 3475.5  C 856.36 3475.5  859 3478.14  859 3481.5  C 859 3484.86  856.36 3487.5  853 3487.5  C 849.64 3487.5  847 3484.86  847 3481.5  C 847 3478.14  849.64 3475.5  853 3475.5  Z " fill-rule="nonzero" fill="#f0f0f0" stroke="none" />
  <path d="M 853 3476  C 856.08 3476  858.5 3478.42  858.5 3481.5  C 858.5 3484.58  856.08 3487  853 3487  C 849.92 3487  847.5 3484.58  847.5 3481.5  C 847.5 3478.42  849.92 3476  853 3476  Z " stroke-width="1" stroke="#797979" fill="none" />
  <path d="M 853 3484.5  C 851.32 3484.5  850 3483.18  850 3481.5  C 850 3479.82  851.32 3478.5  853 3478.5  C 854.68 3478.5  856 3479.82  856 3481.5  C 856 3483.18  854.68 3484.5  853 3484.5  " fill-rule="nonzero" fill="#797979" stroke="none" />
</svg>