<?xml version="1.0" encoding="utf-8"?>
<svg version="1.1" xmlns:xlink="http://www.w3.org/1999/xlink" width="12px" height="12px" viewBox="2397 3177.5  12 12" xmlns="http://www.w3.org/2000/svg">
  <path d="M 2403 3177.5  C 2406.36 3177.5  2409 3180.14  2409 3183.5  C 2409 3186.86  2406.36 3189.5  2403 3189.5  C 2399.64 3189.5  2397 3186.86  2397 3183.5  C 2397 3180.14  2399.64 3177.5  2403 3177.5  Z " fill-rule="nonzero" fill="#ffffff" stroke="none" fill-opacity="0" />
  <path d="M 2403 3178  C 2406.08 3178  2408.5 3180.42  2408.5 3183.5  C 2408.5 3186.58  2406.08 3189  2403 3189  C 2399.92 3189  2397.5 3186.58  2397.5 3183.5  C 2397.5 3180.42  2399.92 3178  2403 3178  Z " stroke-width="1" stroke="#797979" fill="none" />
  <path d="M 2403 3186.5  C 2401.32 3186.5  2400 3185.18  2400 3183.5  C 2400 3181.82  2401.32 3180.5  2403 3180.5  C 2404.68 3180.5  2406 3181.82  2406 3183.5  C 2406 3185.18  2404.68 3186.5  2403 3186.5  " fill-rule="nonzero" fill="#797979" stroke="none" />
</svg>