<?xml version="1.0" encoding="utf-8"?>
<svg version="1.1" xmlns:xlink="http://www.w3.org/1999/xlink" width="12px" height="12px" viewBox="445 3514  12 12" xmlns="http://www.w3.org/2000/svg">
  <path d="M 445.5 3516  A 1.5 1.5 0 0 1 447 3514.5 L 455 3514.5  A 1.5 1.5 0 0 1 456.5 3516 L 456.5 3524  A 1.5 1.5 0 0 1 455 3525.5 L 447 3525.5  A 1.5 1.5 0 0 1 445.5 3524 L 445.5 3516  Z " fill-rule="nonzero" fill="#ffffff" stroke="none" />
  <path d="M 445.5 3516  A 1.5 1.5 0 0 1 447 3514.5 L 455 3514.5  A 1.5 1.5 0 0 1 456.5 3516 L 456.5 3524  A 1.5 1.5 0 0 1 455 3525.5 L 447 3525.5  A 1.5 1.5 0 0 1 445.5 3524 L 445.5 3516  Z " stroke-width="1" stroke="#797979" fill="none" />
</svg>