<?xml version="1.0" encoding="utf-8"?>
<svg version="1.1" xmlns:xlink="http://www.w3.org/1999/xlink" width="12px" height="12px" viewBox="2398 3013.5  12 12" xmlns="http://www.w3.org/2000/svg">
  <path d="M 2404 3013.5  C 2407.36 3013.5  2410 3016.14  2410 3019.5  C 2410 3022.86  2407.36 3025.5  2404 3025.5  C 2400.64 3025.5  2398 3022.86  2398 3019.5  C 2398 3016.14  2400.64 3013.5  2404 3013.5  Z " fill-rule="nonzero" fill="#ffffff" stroke="none" fill-opacity="0" />
  <path d="M 2404 3014  C 2407.08 3014  2409.5 3016.42  2409.5 3019.5  C 2409.5 3022.58  2407.08 3025  2404 3025  C 2400.92 3025  2398.5 3022.58  2398.5 3019.5  C 2398.5 3016.42  2400.92 3014  2404 3014  Z " stroke-width="1" stroke="#797979" fill="none" />
  <path d="M 2404 3022.5  C 2402.32 3022.5  2401 3021.18  2401 3019.5  C 2401 3017.82  2402.32 3016.5  2404 3016.5  C 2405.68 3016.5  2407 3017.82  2407 3019.5  C 2407 3021.18  2405.68 3022.5  2404 3022.5  " fill-rule="nonzero" fill="#797979" stroke="none" />
</svg>