<?xml version="1.0" encoding="utf-8"?>
<svg version="1.1" xmlns:xlink="http://www.w3.org/1999/xlink" width="12px" height="12px" viewBox="2350 3177.5  12 12" xmlns="http://www.w3.org/2000/svg">
  <path d="M 2356 3177.5  C 2359.36 3177.5  2362 3180.14  2362 3183.5  C 2362 3186.86  2359.36 3189.5  2356 3189.5  C 2352.64 3189.5  2350 3186.86  2350 3183.5  C 2350 3180.14  2352.64 3177.5  2356 3177.5  Z " fill-rule="nonzero" fill="#ffffff" stroke="none" fill-opacity="0" />
  <path d="M 2356 3178  C 2359.08 3178  2361.5 3180.42  2361.5 3183.5  C 2361.5 3186.58  2359.08 3189  2356 3189  C 2352.92 3189  2350.5 3186.58  2350.5 3183.5  C 2350.5 3180.42  2352.92 3178  2356 3178  Z " stroke-width="1" stroke="#797979" fill="none" />
  <path d="M 2356 3186.5  C 2354.32 3186.5  2353 3185.18  2353 3183.5  C 2353 3181.82  2354.32 3180.5  2356 3180.5  C 2357.68 3180.5  2359 3181.82  2359 3183.5  C 2359 3185.18  2357.68 3186.5  2356 3186.5  " fill-rule="nonzero" fill="#797979" stroke="none" />
</svg>