<?xml version="1.0" encoding="utf-8"?>
<svg version="1.1" xmlns:xlink="http://www.w3.org/1999/xlink" width="12px" height="12px" viewBox="799 4866.5  12 12" xmlns="http://www.w3.org/2000/svg">
  <path d="M 805 4866.5  C 808.36 4866.5  811 4869.14  811 4872.5  C 811 4875.86  808.36 4878.5  805 4878.5  C 801.64 4878.5  799 4875.86  799 4872.5  C 799 4869.14  801.64 4866.5  805 4866.5  Z " fill-rule="nonzero" fill="#f0f0f0" stroke="none" />
  <path d="M 805 4867  C 808.08 4867  810.5 4869.42  810.5 4872.5  C 810.5 4875.58  808.08 4878  805 4878  C 801.92 4878  799.5 4875.58  799.5 4872.5  C 799.5 4869.42  801.92 4867  805 4867  Z " stroke-width="1" stroke="#797979" fill="none" />
  <path d="M 805 4875.5  C 803.32 4875.5  802 4874.18  802 4872.5  C 802 4870.82  803.32 4869.5  805 4869.5  C 806.68 4869.5  808 4870.82  808 4872.5  C 808 4874.18  806.68 4875.5  805 4875.5  " fill-rule="nonzero" fill="#797979" stroke="none" />
</svg>