<?xml version="1.0" encoding="utf-8"?>
<svg version="1.1" xmlns:xlink="http://www.w3.org/1999/xlink" width="12px" height="12px" viewBox="799 4826.5  12 12" xmlns="http://www.w3.org/2000/svg">
  <path d="M 805 4826.5  C 808.36 4826.5  811 4829.14  811 4832.5  C 811 4835.86  808.36 4838.5  805 4838.5  C 801.64 4838.5  799 4835.86  799 4832.5  C 799 4829.14  801.64 4826.5  805 4826.5  Z " fill-rule="nonzero" fill="#f0f0f0" stroke="none" />
  <path d="M 805 4827  C 808.08 4827  810.5 4829.42  810.5 4832.5  C 810.5 4835.58  808.08 4838  805 4838  C 801.92 4838  799.5 4835.58  799.5 4832.5  C 799.5 4829.42  801.92 4827  805 4827  Z " stroke-width="1" stroke="#797979" fill="none" />
  <path d="M 805 4835.5  C 803.32 4835.5  802 4834.18  802 4832.5  C 802 4830.82  803.32 4829.5  805 4829.5  C 806.68 4829.5  808 4830.82  808 4832.5  C 808 4834.18  806.68 4835.5  805 4835.5  " fill-rule="nonzero" fill="#797979" stroke="none" />
</svg>