<?xml version="1.0" encoding="utf-8"?>
<svg version="1.1" xmlns:xlink="http://www.w3.org/1999/xlink" width="12px" height="12px" viewBox="2397 3054.5  12 12" xmlns="http://www.w3.org/2000/svg">
  <path d="M 2403 3054.5  C 2406.36 3054.5  2409 3057.14  2409 3060.5  C 2409 3063.86  2406.36 3066.5  2403 3066.5  C 2399.64 3066.5  2397 3063.86  2397 3060.5  C 2397 3057.14  2399.64 3054.5  2403 3054.5  Z " fill-rule="nonzero" fill="#f0f0f0" stroke="none" />
  <path d="M 2403 3055  C 2406.08 3055  2408.5 3057.42  2408.5 3060.5  C 2408.5 3063.58  2406.08 3066  2403 3066  C 2399.92 3066  2397.5 3063.58  2397.5 3060.5  C 2397.5 3057.42  2399.92 3055  2403 3055  Z " stroke-width="1" stroke="#797979" fill="none" />
  <path d="M 2403 3063.5  C 2401.32 3063.5  2400 3062.18  2400 3060.5  C 2400 3058.82  2401.32 3057.5  2403 3057.5  C 2404.68 3057.5  2406 3058.82  2406 3060.5  C 2406 3062.18  2404.68 3063.5  2403 3063.5  " fill-rule="nonzero" fill="#797979" stroke="none" />
</svg>