<?xml version="1.0" encoding="utf-8"?>
<svg version="1.1" xmlns:xlink="http://www.w3.org/1999/xlink" width="12px" height="12px" viewBox="2350 3349.5  12 12" xmlns="http://www.w3.org/2000/svg">
  <path d="M 2356 3349.5  C 2359.36 3349.5  2362 3352.14  2362 3355.5  C 2362 3358.86  2359.36 3361.5  2356 3361.5  C 2352.64 3361.5  2350 3358.86  2350 3355.5  C 2350 3352.14  2352.64 3349.5  2356 3349.5  Z " fill-rule="nonzero" fill="#f0f0f0" stroke="none" />
  <path d="M 2356 3350  C 2359.08 3350  2361.5 3352.42  2361.5 3355.5  C 2361.5 3358.58  2359.08 3361  2356 3361  C 2352.92 3361  2350.5 3358.58  2350.5 3355.5  C 2350.5 3352.42  2352.92 3350  2356 3350  Z " stroke-width="1" stroke="#797979" fill="none" />
  <path d="M 2356 3358.5  C 2354.32 3358.5  2353 3357.18  2353 3355.5  C 2353 3353.82  2354.32 3352.5  2356 3352.5  C 2357.68 3352.5  2359 3353.82  2359 3355.5  C 2359 3357.18  2357.68 3358.5  2356 3358.5  " fill-rule="nonzero" fill="#797979" stroke="none" />
</svg>