<?xml version="1.0" encoding="utf-8"?>
<svg version="1.1" xmlns:xlink="http://www.w3.org/1999/xlink" width="12px" height="12px" viewBox="2350 3054.5  12 12" xmlns="http://www.w3.org/2000/svg">
  <path d="M 2356 3054.5  C 2359.36 3054.5  2362 3057.14  2362 3060.5  C 2362 3063.86  2359.36 3066.5  2356 3066.5  C 2352.64 3066.5  2350 3063.86  2350 3060.5  C 2350 3057.14  2352.64 3054.5  2356 3054.5  Z " fill-rule="nonzero" fill="#f0f0f0" stroke="none" />
  <path d="M 2356 3055  C 2359.08 3055  2361.5 3057.42  2361.5 3060.5  C 2361.5 3063.58  2359.08 3066  2356 3066  C 2352.92 3066  2350.5 3063.58  2350.5 3060.5  C 2350.5 3057.42  2352.92 3055  2356 3055  Z " stroke-width="1" stroke="#797979" fill="none" />
  <path d="M 2356 3063.5  C 2354.32 3063.5  2353 3062.18  2353 3060.5  C 2353 3058.82  2354.32 3057.5  2356 3057.5  C 2357.68 3057.5  2359 3058.82  2359 3060.5  C 2359 3062.18  2357.68 3063.5  2356 3063.5  " fill-rule="nonzero" fill="#797979" stroke="none" />
</svg>