<?xml version="1.0" encoding="utf-8"?>
<svg version="1.1" xmlns:xlink="http://www.w3.org/1999/xlink" width="12px" height="12px" viewBox="798 4952.5  12 12" xmlns="http://www.w3.org/2000/svg">
  <path d="M 804 4952.5  C 807.36 4952.5  810 4955.14  810 4958.5  C 810 4961.86  807.36 4964.5  804 4964.5  C 800.64 4964.5  798 4961.86  798 4958.5  C 798 4955.14  800.64 4952.5  804 4952.5  Z " fill-rule="nonzero" fill="#ffffff" stroke="none" />
  <path d="M 804 4953  C 807.08 4953  809.5 4955.42  809.5 4958.5  C 809.5 4961.58  807.08 4964  804 4964  C 800.92 4964  798.5 4961.58  798.5 4958.5  C 798.5 4955.42  800.92 4953  804 4953  Z " stroke-width="1" stroke="#797979" fill="none" />
  <path d="M 804 4961.5  C 802.32 4961.5  801 4960.18  801 4958.5  C 801 4956.82  802.32 4955.5  804 4955.5  C 805.68 4955.5  807 4956.82  807 4958.5  C 807 4960.18  805.68 4961.5  804 4961.5  " fill-rule="nonzero" fill="#797979" stroke="none" />
</svg>