<?xml version="1.0" encoding="utf-8"?>
<svg version="1.1" xmlns:xlink="http://www.w3.org/1999/xlink" width="12px" height="12px" viewBox="798 4911.5  12 12" xmlns="http://www.w3.org/2000/svg">
  <path d="M 804 4911.5  C 807.36 4911.5  810 4914.14  810 4917.5  C 810 4920.86  807.36 4923.5  804 4923.5  C 800.64 4923.5  798 4920.86  798 4917.5  C 798 4914.14  800.64 4911.5  804 4911.5  Z " fill-rule="nonzero" fill="#f0f0f0" stroke="none" />
  <path d="M 804 4912  C 807.08 4912  809.5 4914.42  809.5 4917.5  C 809.5 4920.58  807.08 4923  804 4923  C 800.92 4923  798.5 4920.58  798.5 4917.5  C 798.5 4914.42  800.92 4912  804 4912  Z " stroke-width="1" stroke="#797979" fill="none" />
  <path d="M 804 4920.5  C 802.32 4920.5  801 4919.18  801 4917.5  C 801 4915.82  802.32 4914.5  804 4914.5  C 805.68 4914.5  807 4915.82  807 4917.5  C 807 4919.18  805.68 4920.5  804 4920.5  " fill-rule="nonzero" fill="#797979" stroke="none" />
</svg>