<?xml version="1.0" encoding="utf-8"?>
<svg version="1.1" xmlns:xlink="http://www.w3.org/1999/xlink" width="12px" height="12px" viewBox="845 4952.5  12 12" xmlns="http://www.w3.org/2000/svg">
  <path d="M 851 4952.5  C 854.36 4952.5  857 4955.14  857 4958.5  C 857 4961.86  854.36 4964.5  851 4964.5  C 847.64 4964.5  845 4961.86  845 4958.5  C 845 4955.14  847.64 4952.5  851 4952.5  Z " fill-rule="nonzero" fill="#ffffff" stroke="none" />
  <path d="M 851 4953  C 854.08 4953  856.5 4955.42  856.5 4958.5  C 856.5 4961.58  854.08 4964  851 4964  C 847.92 4964  845.5 4961.58  845.5 4958.5  C 845.5 4955.42  847.92 4953  851 4953  Z " stroke-width="1" stroke="#797979" fill="none" />
  <path d="M 851 4961.5  C 849.32 4961.5  848 4960.18  848 4958.5  C 848 4956.82  849.32 4955.5  851 4955.5  C 852.68 4955.5  854 4956.82  854 4958.5  C 854 4960.18  852.68 4961.5  851 4961.5  " fill-rule="nonzero" fill="#797979" stroke="none" />
</svg>