<?xml version="1.0" encoding="utf-8"?>
<svg version="1.1" xmlns:xlink="http://www.w3.org/1999/xlink" width="12px" height="12px" viewBox="800 5039.5  12 12" xmlns="http://www.w3.org/2000/svg">
  <path d="M 806 5039.5  C 809.36 5039.5  812 5042.14  812 5045.5  C 812 5048.86  809.36 5051.5  806 5051.5  C 802.64 5051.5  800 5048.86  800 5045.5  C 800 5042.14  802.64 5039.5  806 5039.5  Z " fill-rule="nonzero" fill="#ffffff" stroke="none" />
  <path d="M 806 5040  C 809.08 5040  811.5 5042.42  811.5 5045.5  C 811.5 5048.58  809.08 5051  806 5051  C 802.92 5051  800.5 5048.58  800.5 5045.5  C 800.5 5042.42  802.92 5040  806 5040  Z " stroke-width="1" stroke="#797979" fill="none" />
  <path d="M 806 5048.5  C 804.32 5048.5  803 5047.18  803 5045.5  C 803 5043.82  804.32 5042.5  806 5042.5  C 807.68 5042.5  809 5043.82  809 5045.5  C 809 5047.18  807.68 5048.5  806 5048.5  " fill-rule="nonzero" fill="#797979" stroke="none" />
</svg>