<?xml version="1.0" encoding="utf-8"?>
<svg version="1.1" xmlns:xlink="http://www.w3.org/1999/xlink" width="12px" height="12px" viewBox="2397 5303.5  12 12" xmlns="http://www.w3.org/2000/svg">
  <path d="M 2403 5303.5  C 2406.36 5303.5  2409 5306.14  2409 5309.5  C 2409 5312.86  2406.36 5315.5  2403 5315.5  C 2399.64 5315.5  2397 5312.86  2397 5309.5  C 2397 5306.14  2399.64 5303.5  2403 5303.5  Z " fill-rule="nonzero" fill="#ffffff" stroke="none" />
  <path d="M 2403 5304  C 2406.08 5304  2408.5 5306.42  2408.5 5309.5  C 2408.5 5312.58  2406.08 5315  2403 5315  C 2399.92 5315  2397.5 5312.58  2397.5 5309.5  C 2397.5 5306.42  2399.92 5304  2403 5304  Z " stroke-width="1" stroke="#797979" fill="none" />
  <path d="M 2403 5312.5  C 2401.32 5312.5  2400 5311.18  2400 5309.5  C 2400 5307.82  2401.32 5306.5  2403 5306.5  C 2404.68 5306.5  2406 5307.82  2406 5309.5  C 2406 5311.18  2404.68 5312.5  2403 5312.5  " fill-rule="nonzero" fill="#797979" stroke="none" />
</svg>