<?xml version="1.0" encoding="utf-8"?>
<svg version="1.1" xmlns:xlink="http://www.w3.org/1999/xlink" width="12px" height="12px" viewBox="448 4997  12 12" xmlns="http://www.w3.org/2000/svg">
  <path d="M 448.5 4999  A 1.5 1.5 0 0 1 450 4997.5 L 458 4997.5  A 1.5 1.5 0 0 1 459.5 4999 L 459.5 5007  A 1.5 1.5 0 0 1 458 5008.5 L 450 5008.5  A 1.5 1.5 0 0 1 448.5 5007 L 448.5 4999  Z " fill-rule="nonzero" fill="#ffffff" stroke="none" />
  <path d="M 448.5 4999  A 1.5 1.5 0 0 1 450 4997.5 L 458 4997.5  A 1.5 1.5 0 0 1 459.5 4999 L 459.5 5007  A 1.5 1.5 0 0 1 458 5008.5 L 450 5008.5  A 1.5 1.5 0 0 1 448.5 5007 L 448.5 4999  Z " stroke-width="1" stroke="#797979" fill="none" />
  <path d="M 450.571428571429 5003  L 453.142857142857 5005.57142857143  " stroke-width="2.57142857142857" stroke="#797979" fill="none" />
  <path d="M 453.142857142857 5005.57142857143  L 457.428571428571 4999.57142857143  " stroke-width="2.57142857142857" stroke="#797979" fill="none" />
</svg>