<?xml version="1.0" encoding="utf-8"?>
<svg version="1.1" xmlns:xlink="http://www.w3.org/1999/xlink" width="12px" height="12px" viewBox="847 4999.5  12 12" xmlns="http://www.w3.org/2000/svg">
  <path d="M 853 4999.5  C 856.36 4999.5  859 5002.14  859 5005.5  C 859 5008.86  856.36 5011.5  853 5011.5  C 849.64 5011.5  847 5008.86  847 5005.5  C 847 5002.14  849.64 4999.5  853 4999.5  Z " fill-rule="nonzero" fill="#f0f0f0" stroke="none" />
  <path d="M 853 5000  C 856.08 5000  858.5 5002.42  858.5 5005.5  C 858.5 5008.58  856.08 5011  853 5011  C 849.92 5011  847.5 5008.58  847.5 5005.5  C 847.5 5002.42  849.92 5000  853 5000  Z " stroke-width="1" stroke="#797979" fill="none" />
  <path d="M 853 5008.5  C 851.32 5008.5  850 5007.18  850 5005.5  C 850 5003.82  851.32 5002.5  853 5002.5  C 854.68 5002.5  856 5003.82  856 5005.5  C 856 5007.18  854.68 5008.5  853 5008.5  " fill-rule="nonzero" fill="#797979" stroke="none" />
</svg>