<?xml version="1.0" encoding="utf-8"?>
<svg version="1.1" xmlns:xlink="http://www.w3.org/1999/xlink" width="12px" height="12px" viewBox="799 5084.5  12 12" xmlns="http://www.w3.org/2000/svg">
  <path d="M 805 5084.5  C 808.36 5084.5  811 5087.14  811 5090.5  C 811 5093.86  808.36 5096.5  805 5096.5  C 801.64 5096.5  799 5093.86  799 5090.5  C 799 5087.14  801.64 5084.5  805 5084.5  Z " fill-rule="nonzero" fill="#ffffff" stroke="none" />
  <path d="M 805 5085  C 808.08 5085  810.5 5087.42  810.5 5090.5  C 810.5 5093.58  808.08 5096  805 5096  C 801.92 5096  799.5 5093.58  799.5 5090.5  C 799.5 5087.42  801.92 5085  805 5085  Z " stroke-width="1" stroke="#797979" fill="none" />
  <path d="M 805 5093.5  C 803.32 5093.5  802 5092.18  802 5090.5  C 802 5088.82  803.32 5087.5  805 5087.5  C 806.68 5087.5  808 5088.82  808 5090.5  C 808 5092.18  806.68 5093.5  805 5093.5  " fill-rule="nonzero" fill="#797979" stroke="none" />
</svg>