<?xml version="1.0" encoding="utf-8"?>
<svg version="1.1" xmlns:xlink="http://www.w3.org/1999/xlink" width="12px" height="12px" viewBox="799 5125.5  12 12" xmlns="http://www.w3.org/2000/svg">
  <path d="M 805 5125.5  C 808.36 5125.5  811 5128.14  811 5131.5  C 811 5134.86  808.36 5137.5  805 5137.5  C 801.64 5137.5  799 5134.86  799 5131.5  C 799 5128.14  801.64 5125.5  805 5125.5  Z " fill-rule="nonzero" fill="#ffffff" stroke="none" />
  <path d="M 805 5126  C 808.08 5126  810.5 5128.42  810.5 5131.5  C 810.5 5134.58  808.08 5137  805 5137  C 801.92 5137  799.5 5134.58  799.5 5131.5  C 799.5 5128.42  801.92 5126  805 5126  Z " stroke-width="1" stroke="#797979" fill="none" />
  <path d="M 805 5134.5  C 803.32 5134.5  802 5133.18  802 5131.5  C 802 5129.82  803.32 5128.5  805 5128.5  C 806.68 5128.5  808 5129.82  808 5131.5  C 808 5133.18  806.68 5134.5  805 5134.5  " fill-rule="nonzero" fill="#797979" stroke="none" />
</svg>