<?xml version="1.0" encoding="utf-8"?>
<svg version="1.1" xmlns:xlink="http://www.w3.org/1999/xlink" width="12px" height="12px" viewBox="800 4999.5  12 12" xmlns="http://www.w3.org/2000/svg">
  <path d="M 806 4999.5  C 809.36 4999.5  812 5002.14  812 5005.5  C 812 5008.86  809.36 5011.5  806 5011.5  C 802.64 5011.5  800 5008.86  800 5005.5  C 800 5002.14  802.64 4999.5  806 4999.5  Z " fill-rule="nonzero" fill="#ffffff" stroke="none" />
  <path d="M 806 5000  C 809.08 5000  811.5 5002.42  811.5 5005.5  C 811.5 5008.58  809.08 5011  806 5011  C 802.92 5011  800.5 5008.58  800.5 5005.5  C 800.5 5002.42  802.92 5000  806 5000  Z " stroke-width="1" stroke="#797979" fill="none" />
  <path d="M 806 5008.5  C 804.32 5008.5  803 5007.18  803 5005.5  C 803 5003.82  804.32 5002.5  806 5002.5  C 807.68 5002.5  809 5003.82  809 5005.5  C 809 5007.18  807.68 5008.5  806 5008.5  " fill-rule="nonzero" fill="#797979" stroke="none" />
</svg>