<?xml version="1.0" encoding="utf-8"?>
<svg version="1.1" xmlns:xlink="http://www.w3.org/1999/xlink" width="12px" height="12px" viewBox="2396 5348.5  12 12" xmlns="http://www.w3.org/2000/svg">
  <path d="M 2402 5348.5  C 2405.36 5348.5  2408 5351.14  2408 5354.5  C 2408 5357.86  2405.36 5360.5  2402 5360.5  C 2398.64 5360.5  2396 5357.86  2396 5354.5  C 2396 5351.14  2398.64 5348.5  2402 5348.5  Z " fill-rule="nonzero" fill="#ffffff" stroke="none" />
  <path d="M 2402 5349  C 2405.08 5349  2407.5 5351.42  2407.5 5354.5  C 2407.5 5357.58  2405.08 5360  2402 5360  C 2398.92 5360  2396.5 5357.58  2396.5 5354.5  C 2396.5 5351.42  2398.92 5349  2402 5349  Z " stroke-width="1" stroke="#797979" fill="none" />
  <path d="M 2402 5357.5  C 2400.32 5357.5  2399 5356.18  2399 5354.5  C 2399 5352.82  2400.32 5351.5  2402 5351.5  C 2403.68 5351.5  2405 5352.82  2405 5354.5  C 2405 5356.18  2403.68 5357.5  2402 5357.5  " fill-rule="nonzero" fill="#797979" stroke="none" />
</svg>