<?xml version="1.0" encoding="utf-8"?>
<svg version="1.1" xmlns:xlink="http://www.w3.org/1999/xlink" width="12px" height="12px" viewBox="2397 5969.5  12 12" xmlns="http://www.w3.org/2000/svg">
  <path d="M 2403 5969.5  C 2406.36 5969.5  2409 5972.14  2409 5975.5  C 2409 5978.86  2406.36 5981.5  2403 5981.5  C 2399.64 5981.5  2397 5978.86  2397 5975.5  C 2397 5972.14  2399.64 5969.5  2403 5969.5  Z " fill-rule="nonzero" fill="#f0f0f0" stroke="none" />
  <path d="M 2403 5970  C 2406.08 5970  2408.5 5972.42  2408.5 5975.5  C 2408.5 5978.58  2406.08 5981  2403 5981  C 2399.92 5981  2397.5 5978.58  2397.5 5975.5  C 2397.5 5972.42  2399.92 5970  2403 5970  Z " stroke-width="1" stroke="#797979" fill="none" />
  <path d="M 2403 5978.5  C 2401.32 5978.5  2400 5977.18  2400 5975.5  C 2400 5973.82  2401.32 5972.5  2403 5972.5  C 2404.68 5972.5  2406 5973.82  2406 5975.5  C 2406 5977.18  2404.68 5978.5  2403 5978.5  " fill-rule="nonzero" fill="#797979" stroke="none" />
</svg>