<?xml version="1.0" encoding="utf-8"?>
<svg version="1.1" xmlns:xlink="http://www.w3.org/1999/xlink" width="12px" height="12px" viewBox="799 5207.5  12 12" xmlns="http://www.w3.org/2000/svg">
  <path d="M 805 5207.5  C 808.36 5207.5  811 5210.14  811 5213.5  C 811 5216.86  808.36 5219.5  805 5219.5  C 801.64 5219.5  799 5216.86  799 5213.5  C 799 5210.14  801.64 5207.5  805 5207.5  Z " fill-rule="nonzero" fill="#ffffff" stroke="none" />
  <path d="M 805 5208  C 808.08 5208  810.5 5210.42  810.5 5213.5  C 810.5 5216.58  808.08 5219  805 5219  C 801.92 5219  799.5 5216.58  799.5 5213.5  C 799.5 5210.42  801.92 5208  805 5208  Z " stroke-width="1" stroke="#797979" fill="none" />
  <path d="M 805 5216.5  C 803.32 5216.5  802 5215.18  802 5213.5  C 802 5211.82  803.32 5210.5  805 5210.5  C 806.68 5210.5  808 5211.82  808 5213.5  C 808 5215.18  806.68 5216.5  805 5216.5  " fill-rule="nonzero" fill="#797979" stroke="none" />
</svg>