<?xml version="1.0" encoding="utf-8"?>
<svg version="1.1" xmlns:xlink="http://www.w3.org/1999/xlink" width="12px" height="12px" viewBox="2350 5969.5  12 12" xmlns="http://www.w3.org/2000/svg">
  <path d="M 2356 5969.5  C 2359.36 5969.5  2362 5972.14  2362 5975.5  C 2362 5978.86  2359.36 5981.5  2356 5981.5  C 2352.64 5981.5  2350 5978.86  2350 5975.5  C 2350 5972.14  2352.64 5969.5  2356 5969.5  Z " fill-rule="nonzero" fill="#f0f0f0" stroke="none" />
  <path d="M 2356 5970  C 2359.08 5970  2361.5 5972.42  2361.5 5975.5  C 2361.5 5978.58  2359.08 5981  2356 5981  C 2352.92 5981  2350.5 5978.58  2350.5 5975.5  C 2350.5 5972.42  2352.92 5970  2356 5970  Z " stroke-width="1" stroke="#797979" fill="none" />
  <path d="M 2356 5978.5  C 2354.32 5978.5  2353 5977.18  2353 5975.5  C 2353 5973.82  2354.32 5972.5  2356 5972.5  C 2357.68 5972.5  2359 5973.82  2359 5975.5  C 2359 5977.18  2357.68 5978.5  2356 5978.5  " fill-rule="nonzero" fill="#797979" stroke="none" />
</svg>