<?xml version="1.0" encoding="utf-8"?>
<svg version="1.1" xmlns:xlink="http://www.w3.org/1999/xlink" width="12px" height="12px" viewBox="2396 5388.5  12 12" xmlns="http://www.w3.org/2000/svg">
  <path d="M 2402 5388.5  C 2405.36 5388.5  2408 5391.14  2408 5394.5  C 2408 5397.86  2405.36 5400.5  2402 5400.5  C 2398.64 5400.5  2396 5397.86  2396 5394.5  C 2396 5391.14  2398.64 5388.5  2402 5388.5  Z " fill-rule="nonzero" fill="#ffffff" stroke="none" />
  <path d="M 2402 5389  C 2405.08 5389  2407.5 5391.42  2407.5 5394.5  C 2407.5 5397.58  2405.08 5400  2402 5400  C 2398.92 5400  2396.5 5397.58  2396.5 5394.5  C 2396.5 5391.42  2398.92 5389  2402 5389  Z " stroke-width="1" stroke="#797979" fill="none" />
  <path d="M 2402 5397.5  C 2400.32 5397.5  2399 5396.18  2399 5394.5  C 2399 5392.82  2400.32 5391.5  2402 5391.5  C 2403.68 5391.5  2405 5392.82  2405 5394.5  C 2405 5396.18  2403.68 5397.5  2402 5397.5  " fill-rule="nonzero" fill="#797979" stroke="none" />
</svg>