<?xml version="1.0" encoding="utf-8"?>
<svg version="1.1" xmlns:xlink="http://www.w3.org/1999/xlink" width="12px" height="12px" viewBox="2350 6010.5  12 12" xmlns="http://www.w3.org/2000/svg">
  <path d="M 2356 6010.5  C 2359.36 6010.5  2362 6013.14  2362 6016.5  C 2362 6019.86  2359.36 6022.5  2356 6022.5  C 2352.64 6022.5  2350 6019.86  2350 6016.5  C 2350 6013.14  2352.64 6010.5  2356 6010.5  Z " fill-rule="nonzero" fill="#ffffff" stroke="none" />
  <path d="M 2356 6011  C 2359.08 6011  2361.5 6013.42  2361.5 6016.5  C 2361.5 6019.58  2359.08 6022  2356 6022  C 2352.92 6022  2350.5 6019.58  2350.5 6016.5  C 2350.5 6013.42  2352.92 6011  2356 6011  Z " stroke-width="1" stroke="#797979" fill="none" />
  <path d="M 2356 6019.5  C 2354.32 6019.5  2353 6018.18  2353 6016.5  C 2353 6014.82  2354.32 6013.5  2356 6013.5  C 2357.68 6013.5  2359 6014.82  2359 6016.5  C 2359 6018.18  2357.68 6019.5  2356 6019.5  " fill-rule="nonzero" fill="#797979" stroke="none" />
</svg>