<?xml version="1.0" encoding="utf-8"?>
<svg version="1.1" xmlns:xlink="http://www.w3.org/1999/xlink" width="12px" height="12px" viewBox="2349 6055.5  12 12" xmlns="http://www.w3.org/2000/svg">
  <path d="M 2355 6055.5  C 2358.36 6055.5  2361 6058.14  2361 6061.5  C 2361 6064.86  2358.36 6067.5  2355 6067.5  C 2351.64 6067.5  2349 6064.86  2349 6061.5  C 2349 6058.14  2351.64 6055.5  2355 6055.5  Z " fill-rule="nonzero" fill="#f0f0f0" stroke="none" />
  <path d="M 2355 6056  C 2358.08 6056  2360.5 6058.42  2360.5 6061.5  C 2360.5 6064.58  2358.08 6067  2355 6067  C 2351.92 6067  2349.5 6064.58  2349.5 6061.5  C 2349.5 6058.42  2351.92 6056  2355 6056  Z " stroke-width="1" stroke="#797979" fill="none" />
  <path d="M 2355 6064.5  C 2353.32 6064.5  2352 6063.18  2352 6061.5  C 2352 6059.82  2353.32 6058.5  2355 6058.5  C 2356.68 6058.5  2358 6059.82  2358 6061.5  C 2358 6063.18  2356.68 6064.5  2355 6064.5  " fill-rule="nonzero" fill="#797979" stroke="none" />
</svg>