<?xml version="1.0" encoding="utf-8"?>
<svg version="1.1" xmlns:xlink="http://www.w3.org/1999/xlink" width="12px" height="12px" viewBox="1996 6008  12 12" xmlns="http://www.w3.org/2000/svg">
  <path d="M 1996.5 6010  A 1.5 1.5 0 0 1 1998 6008.5 L 2006 6008.5  A 1.5 1.5 0 0 1 2007.5 6010 L 2007.5 6018  A 1.5 1.5 0 0 1 2006 6019.5 L 1998 6019.5  A 1.5 1.5 0 0 1 1996.5 6018 L 1996.5 6010  Z " fill-rule="nonzero" fill="#f0f0f0" stroke="none" />
  <path d="M 1996.5 6010  A 1.5 1.5 0 0 1 1998 6008.5 L 2006 6008.5  A 1.5 1.5 0 0 1 2007.5 6010 L 2007.5 6018  A 1.5 1.5 0 0 1 2006 6019.5 L 1998 6019.5  A 1.5 1.5 0 0 1 1996.5 6018 L 1996.5 6010  Z " stroke-width="1" stroke="#797979" fill="none" />
  <path d="M 1998.57142857143 6014  L 2001.14285714286 6016.57142857143  " stroke-width="2.57142857142857" stroke="#797979" fill="none" />
  <path d="M 2001.14285714286 6016.57142857143  L 2005.42857142857 6010.57142857143  " stroke-width="2.57142857142857" stroke="#797979" fill="none" />
</svg>