<?xml version="1.0" encoding="utf-8"?>
<svg version="1.1" xmlns:xlink="http://www.w3.org/1999/xlink" width="12px" height="12px" viewBox="846 5207.5  12 12" xmlns="http://www.w3.org/2000/svg">
  <path d="M 852 5207.5  C 855.36 5207.5  858 5210.14  858 5213.5  C 858 5216.86  855.36 5219.5  852 5219.5  C 848.64 5219.5  846 5216.86  846 5213.5  C 846 5210.14  848.64 5207.5  852 5207.5  Z " fill-rule="nonzero" fill="#ffffff" stroke="none" />
  <path d="M 852 5208  C 855.08 5208  857.5 5210.42  857.5 5213.5  C 857.5 5216.58  855.08 5219  852 5219  C 848.92 5219  846.5 5216.58  846.5 5213.5  C 846.5 5210.42  848.92 5208  852 5208  Z " stroke-width="1" stroke="#797979" fill="none" />
  <path d="M 852 5216.5  C 850.32 5216.5  849 5215.18  849 5213.5  C 849 5211.82  850.32 5210.5  852 5210.5  C 853.68 5210.5  855 5211.82  855 5213.5  C 855 5215.18  853.68 5216.5  852 5216.5  " fill-rule="nonzero" fill="#797979" stroke="none" />
</svg>