<?xml version="1.0" encoding="utf-8"?>
<svg version="1.1" xmlns:xlink="http://www.w3.org/1999/xlink" width="12px" height="12px" viewBox="2396 6096.5  12 12" xmlns="http://www.w3.org/2000/svg">
  <path d="M 2402 6096.5  C 2405.36 6096.5  2408 6099.14  2408 6102.5  C 2408 6105.86  2405.36 6108.5  2402 6108.5  C 2398.64 6108.5  2396 6105.86  2396 6102.5  C 2396 6099.14  2398.64 6096.5  2402 6096.5  Z " fill-rule="nonzero" fill="#f0f0f0" stroke="none" />
  <path d="M 2402 6097  C 2405.08 6097  2407.5 6099.42  2407.5 6102.5  C 2407.5 6105.58  2405.08 6108  2402 6108  C 2398.92 6108  2396.5 6105.58  2396.5 6102.5  C 2396.5 6099.42  2398.92 6097  2402 6097  Z " stroke-width="1" stroke="#797979" fill="none" />
  <path d="M 2402 6105.5  C 2400.32 6105.5  2399 6104.18  2399 6102.5  C 2399 6100.82  2400.32 6099.5  2402 6099.5  C 2403.68 6099.5  2405 6100.82  2405 6102.5  C 2405 6104.18  2403.68 6105.5  2402 6105.5  " fill-rule="nonzero" fill="#797979" stroke="none" />
</svg>