<?xml version="1.0" encoding="utf-8"?>
<svg version="1.1" xmlns:xlink="http://www.w3.org/1999/xlink" width="12px" height="12px" viewBox="800 1446.5  12 12" xmlns="http://www.w3.org/2000/svg">
  <path d="M 806 1446.5  C 809.36 1446.5  812 1449.14  812 1452.5  C 812 1455.86  809.36 1458.5  806 1458.5  C 802.64 1458.5  800 1455.86  800 1452.5  C 800 1449.14  802.64 1446.5  806 1446.5  Z " fill-rule="nonzero" fill="#ffffff" stroke="none" fill-opacity="0" />
  <path d="M 806 1447  C 809.08 1447  811.5 1449.42  811.5 1452.5  C 811.5 1455.58  809.08 1458  806 1458  C 802.92 1458  800.5 1455.58  800.5 1452.5  C 800.5 1449.42  802.92 1447  806 1447  Z " stroke-width="1" stroke="#797979" fill="none" />
  <path d="M 806 1455.5  C 804.32 1455.5  803 1454.18  803 1452.5  C 803 1450.82  804.32 1449.5  806 1449.5  C 807.68 1449.5  809 1450.82  809 1452.5  C 809 1454.18  807.68 1455.5  806 1455.5  " fill-rule="nonzero" fill="#797979" stroke="none" />
</svg>