<?xml version="1.0" encoding="utf-8"?>
<svg version="1.1" xmlns:xlink="http://www.w3.org/1999/xlink" width="12px" height="12px" viewBox="2347 6149.5  12 12" xmlns="http://www.w3.org/2000/svg">
  <path d="M 2353 6149.5  C 2356.36 6149.5  2359 6152.14  2359 6155.5  C 2359 6158.86  2356.36 6161.5  2353 6161.5  C 2349.64 6161.5  2347 6158.86  2347 6155.5  C 2347 6152.14  2349.64 6149.5  2353 6149.5  Z " fill-rule="nonzero" fill="#f0f0f0" stroke="none" />
  <path d="M 2353 6150  C 2356.08 6150  2358.5 6152.42  2358.5 6155.5  C 2358.5 6158.58  2356.08 6161  2353 6161  C 2349.92 6161  2347.5 6158.58  2347.5 6155.5  C 2347.5 6152.42  2349.92 6150  2353 6150  Z " stroke-width="1" stroke="#797979" fill="none" />
  <path d="M 2353 6158.5  C 2351.32 6158.5  2350 6157.18  2350 6155.5  C 2350 6153.82  2351.32 6152.5  2353 6152.5  C 2354.68 6152.5  2356 6153.82  2356 6155.5  C 2356 6157.18  2354.68 6158.5  2353 6158.5  " fill-rule="nonzero" fill="#797979" stroke="none" />
</svg>