<?xml version="1.0" encoding="utf-8"?>
<svg version="1.1" xmlns:xlink="http://www.w3.org/1999/xlink" width="12px" height="12px" viewBox="2396 6055.5  12 12" xmlns="http://www.w3.org/2000/svg">
  <path d="M 2402 6055.5  C 2405.36 6055.5  2408 6058.14  2408 6061.5  C 2408 6064.86  2405.36 6067.5  2402 6067.5  C 2398.64 6067.5  2396 6064.86  2396 6061.5  C 2396 6058.14  2398.64 6055.5  2402 6055.5  Z " fill-rule="nonzero" fill="#ffffff" stroke="none" />
  <path d="M 2402 6056  C 2405.08 6056  2407.5 6058.42  2407.5 6061.5  C 2407.5 6064.58  2405.08 6067  2402 6067  C 2398.92 6067  2396.5 6064.58  2396.5 6061.5  C 2396.5 6058.42  2398.92 6056  2402 6056  Z " stroke-width="1" stroke="#797979" fill="none" />
  <path d="M 2402 6064.5  C 2400.32 6064.5  2399 6063.18  2399 6061.5  C 2399 6059.82  2400.32 6058.5  2402 6058.5  C 2403.68 6058.5  2405 6059.82  2405 6061.5  C 2405 6063.18  2403.68 6064.5  2402 6064.5  " fill-rule="nonzero" fill="#797979" stroke="none" />
</svg>