<?xml version="1.0" encoding="utf-8"?>
<svg version="1.1" xmlns:xlink="http://www.w3.org/1999/xlink" width="12px" height="12px" viewBox="847 1446.5  12 12" xmlns="http://www.w3.org/2000/svg">
  <path d="M 853 1446.5  C 856.36 1446.5  859 1449.14  859 1452.5  C 859 1455.86  856.36 1458.5  853 1458.5  C 849.64 1458.5  847 1455.86  847 1452.5  C 847 1449.14  849.64 1446.5  853 1446.5  Z " fill-rule="nonzero" fill="#f0f0f0" stroke="none" />
  <path d="M 853 1447  C 856.08 1447  858.5 1449.42  858.5 1452.5  C 858.5 1455.58  856.08 1458  853 1458  C 849.92 1458  847.5 1455.58  847.5 1452.5  C 847.5 1449.42  849.92 1447  853 1447  Z " stroke-width="1" stroke="#797979" fill="none" />
  <path d="M 853 1455.5  C 851.32 1455.5  850 1454.18  850 1452.5  C 850 1450.82  851.32 1449.5  853 1449.5  C 854.68 1449.5  856 1450.82  856 1452.5  C 856 1454.18  854.68 1455.5  853 1455.5  " fill-rule="nonzero" fill="#797979" stroke="none" />
</svg>