<?xml version="1.0" encoding="utf-8"?>
<svg version="1.1" xmlns:xlink="http://www.w3.org/1999/xlink" width="12px" height="12px" viewBox="847 1562.5  12 12" xmlns="http://www.w3.org/2000/svg">
  <path d="M 853 1562.5  C 856.36 1562.5  859 1565.14  859 1568.5  C 859 1571.86  856.36 1574.5  853 1574.5  C 849.64 1574.5  847 1571.86  847 1568.5  C 847 1565.14  849.64 1562.5  853 1562.5  Z " fill-rule="nonzero" fill="#f2f2f2" stroke="none" />
  <path d="M 853 1563  C 856.08 1563  858.5 1565.42  858.5 1568.5  C 858.5 1571.58  856.08 1574  853 1574  C 849.92 1574  847.5 1571.58  847.5 1568.5  C 847.5 1565.42  849.92 1563  853 1563  Z " stroke-width="1" stroke="#797979" fill="none" />
  <path d="M 853 1571.5  C 851.32 1571.5  850 1570.18  850 1568.5  C 850 1566.82  851.32 1565.5  853 1565.5  C 854.68 1565.5  856 1566.82  856 1568.5  C 856 1570.18  854.68 1571.5  853 1571.5  " fill-rule="nonzero" fill="#797979" stroke="none" />
</svg>