<?xml version="1.0" encoding="utf-8"?>
<svg version="1.1" xmlns:xlink="http://www.w3.org/1999/xlink" width="12px" height="12px" viewBox="2394 6149.5  12 12" xmlns="http://www.w3.org/2000/svg">
  <path d="M 2400 6149.5  C 2403.36 6149.5  2406 6152.14  2406 6155.5  C 2406 6158.86  2403.36 6161.5  2400 6161.5  C 2396.64 6161.5  2394 6158.86  2394 6155.5  C 2394 6152.14  2396.64 6149.5  2400 6149.5  Z " fill-rule="nonzero" fill="#ffffff" stroke="none" />
  <path d="M 2400 6150  C 2403.08 6150  2405.5 6152.42  2405.5 6155.5  C 2405.5 6158.58  2403.08 6161  2400 6161  C 2396.92 6161  2394.5 6158.58  2394.5 6155.5  C 2394.5 6152.42  2396.92 6150  2400 6150  Z " stroke-width="1" stroke="#797979" fill="none" />
  <path d="M 2400 6158.5  C 2398.32 6158.5  2397 6157.18  2397 6155.5  C 2397 6153.82  2398.32 6152.5  2400 6152.5  C 2401.68 6152.5  2403 6153.82  2403 6155.5  C 2403 6157.18  2401.68 6158.5  2400 6158.5  " fill-rule="nonzero" fill="#797979" stroke="none" />
</svg>