<?xml version="1.0" encoding="utf-8"?>
<svg version="1.1" xmlns:xlink="http://www.w3.org/1999/xlink" width="12px" height="12px" viewBox="848 1603.5  12 12" xmlns="http://www.w3.org/2000/svg">
  <path d="M 854 1603.5  C 857.36 1603.5  860 1606.14  860 1609.5  C 860 1612.86  857.36 1615.5  854 1615.5  C 850.64 1615.5  848 1612.86  848 1609.5  C 848 1606.14  850.64 1603.5  854 1603.5  Z " fill-rule="nonzero" fill="#ffffff" stroke="none" fill-opacity="0" />
  <path d="M 854 1604  C 857.08 1604  859.5 1606.42  859.5 1609.5  C 859.5 1612.58  857.08 1615  854 1615  C 850.92 1615  848.5 1612.58  848.5 1609.5  C 848.5 1606.42  850.92 1604  854 1604  Z " stroke-width="1" stroke="#797979" fill="none" />
  <path d="M 854 1612.5  C 852.32 1612.5  851 1611.18  851 1609.5  C 851 1607.82  852.32 1606.5  854 1606.5  C 855.68 1606.5  857 1607.82  857 1609.5  C 857 1611.18  855.68 1612.5  854 1612.5  " fill-rule="nonzero" fill="#797979" stroke="none" />
</svg>