<?xml version="1.0" encoding="utf-8"?>
<svg version="1.1" xmlns:xlink="http://www.w3.org/1999/xlink" width="12px" height="12px" viewBox="800 1483.5  12 12" xmlns="http://www.w3.org/2000/svg">
  <path d="M 806 1483.5  C 809.36 1483.5  812 1486.14  812 1489.5  C 812 1492.86  809.36 1495.5  806 1495.5  C 802.64 1495.5  800 1492.86  800 1489.5  C 800 1486.14  802.64 1483.5  806 1483.5  Z " fill-rule="nonzero" fill="#f0f0f0" stroke="none" />
  <path d="M 806 1484  C 809.08 1484  811.5 1486.42  811.5 1489.5  C 811.5 1492.58  809.08 1495  806 1495  C 802.92 1495  800.5 1492.58  800.5 1489.5  C 800.5 1486.42  802.92 1484  806 1484  Z " stroke-width="1" stroke="#797979" fill="none" />
  <path d="M 806 1492.5  C 804.32 1492.5  803 1491.18  803 1489.5  C 803 1487.82  804.32 1486.5  806 1486.5  C 807.68 1486.5  809 1487.82  809 1489.5  C 809 1491.18  807.68 1492.5  806 1492.5  " fill-rule="nonzero" fill="#797979" stroke="none" />
</svg>