<?xml version="1.0" encoding="utf-8"?>
<svg version="1.1" xmlns:xlink="http://www.w3.org/1999/xlink" width="12px" height="12px" viewBox="446 1481  12 12" xmlns="http://www.w3.org/2000/svg">
  <path d="M 446.5 1483  A 1.5 1.5 0 0 1 448 1481.5 L 456 1481.5  A 1.5 1.5 0 0 1 457.5 1483 L 457.5 1491  A 1.5 1.5 0 0 1 456 1492.5 L 448 1492.5  A 1.5 1.5 0 0 1 446.5 1491 L 446.5 1483  Z " fill-rule="nonzero" fill="#f0f0f0" stroke="none" />
  <path d="M 446.5 1483  A 1.5 1.5 0 0 1 448 1481.5 L 456 1481.5  A 1.5 1.5 0 0 1 457.5 1483 L 457.5 1491  A 1.5 1.5 0 0 1 456 1492.5 L 448 1492.5  A 1.5 1.5 0 0 1 446.5 1491 L 446.5 1483  Z " stroke-width="1" stroke="#797979" fill="none" />
  <path d="M 448.571428571429 1487  L 451.142857142857 1489.57142857143  " stroke-width="2.57142857142857" stroke="#797979" fill="none" />
  <path d="M 451.142857142857 1489.57142857143  L 455.428571428571 1483.57142857143  " stroke-width="2.57142857142857" stroke="#797979" fill="none" />
</svg>