<?xml version="1.0" encoding="utf-8"?>
<svg version="1.1" xmlns:xlink="http://www.w3.org/1999/xlink" width="12px" height="12px" viewBox="847 1767.5  12 12" xmlns="http://www.w3.org/2000/svg">
  <path d="M 853 1767.5  C 856.36 1767.5  859 1770.14  859 1773.5  C 859 1776.86  856.36 1779.5  853 1779.5  C 849.64 1779.5  847 1776.86  847 1773.5  C 847 1770.14  849.64 1767.5  853 1767.5  Z " fill-rule="nonzero" fill="#ffffff" stroke="none" fill-opacity="0" />
  <path d="M 853 1768  C 856.08 1768  858.5 1770.42  858.5 1773.5  C 858.5 1776.58  856.08 1779  853 1779  C 849.92 1779  847.5 1776.58  847.5 1773.5  C 847.5 1770.42  849.92 1768  853 1768  Z " stroke-width="1" stroke="#797979" fill="none" />
  <path d="M 853 1776.5  C 851.32 1776.5  850 1775.18  850 1773.5  C 850 1771.82  851.32 1770.5  853 1770.5  C 854.68 1770.5  856 1771.82  856 1773.5  C 856 1775.18  854.68 1776.5  853 1776.5  " fill-rule="nonzero" fill="#797979" stroke="none" />
</svg>