<?xml version="1.0" encoding="utf-8"?>
<svg version="1.1" xmlns:xlink="http://www.w3.org/1999/xlink" width="12px" height="12px" viewBox="847 1807.5  12 12" xmlns="http://www.w3.org/2000/svg">
  <path d="M 853 1807.5  C 856.36 1807.5  859 1810.14  859 1813.5  C 859 1816.86  856.36 1819.5  853 1819.5  C 849.64 1819.5  847 1816.86  847 1813.5  C 847 1810.14  849.64 1807.5  853 1807.5  Z " fill-rule="nonzero" fill="#ecf2fe" stroke="none" fill-opacity="0" />
  <path d="M 853 1808  C 856.08 1808  858.5 1810.42  858.5 1813.5  C 858.5 1816.58  856.08 1819  853 1819  C 849.92 1819  847.5 1816.58  847.5 1813.5  C 847.5 1810.42  849.92 1808  853 1808  Z " stroke-width="1" stroke="#797979" fill="none" />
  <path d="M 853 1816.5  C 851.32 1816.5  850 1815.18  850 1813.5  C 850 1811.82  851.32 1810.5  853 1810.5  C 854.68 1810.5  856 1811.82  856 1813.5  C 856 1815.18  854.68 1816.5  853 1816.5  " fill-rule="nonzero" fill="#797979" stroke="none" />
</svg>