<?xml version="1.0" encoding="utf-8"?>
<svg version="1.1" xmlns:xlink="http://www.w3.org/1999/xlink" width="12px" height="12px" viewBox="801 1603.5  12 12" xmlns="http://www.w3.org/2000/svg">
  <path d="M 807 1603.5  C 810.36 1603.5  813 1606.14  813 1609.5  C 813 1612.86  810.36 1615.5  807 1615.5  C 803.64 1615.5  801 1612.86  801 1609.5  C 801 1606.14  803.64 1603.5  807 1603.5  Z " fill-rule="nonzero" fill="#f0f0f0" stroke="none" />
  <path d="M 807 1604  C 810.08 1604  812.5 1606.42  812.5 1609.5  C 812.5 1612.58  810.08 1615  807 1615  C 803.92 1615  801.5 1612.58  801.5 1609.5  C 801.5 1606.42  803.92 1604  807 1604  Z " stroke-width="1" stroke="#797979" fill="none" />
  <path d="M 807 1612.5  C 805.32 1612.5  804 1611.18  804 1609.5  C 804 1607.82  805.32 1606.5  807 1606.5  C 808.68 1606.5  810 1607.82  810 1609.5  C 810 1611.18  808.68 1612.5  807 1612.5  " fill-rule="nonzero" fill="#797979" stroke="none" />
</svg>