<?xml version="1.0" encoding="utf-8"?>
<svg version="1.1" xmlns:xlink="http://www.w3.org/1999/xlink" width="12px" height="12px" viewBox="2396 5644.5  12 12" xmlns="http://www.w3.org/2000/svg">
  <path d="M 2402 5644.5  C 2405.36 5644.5  2408 5647.14  2408 5650.5  C 2408 5653.86  2405.36 5656.5  2402 5656.5  C 2398.64 5656.5  2396 5653.86  2396 5650.5  C 2396 5647.14  2398.64 5644.5  2402 5644.5  Z " fill-rule="nonzero" fill="#f2f2f2" stroke="none" />
  <path d="M 2402 5645  C 2405.08 5645  2407.5 5647.42  2407.5 5650.5  C 2407.5 5653.58  2405.08 5656  2402 5656  C 2398.92 5656  2396.5 5653.58  2396.5 5650.5  C 2396.5 5647.42  2398.92 5645  2402 5645  Z " stroke-width="1" stroke="#797979" fill="none" />
  <path d="M 2402 5653.5  C 2400.32 5653.5  2399 5652.18  2399 5650.5  C 2399 5648.82  2400.32 5647.5  2402 5647.5  C 2403.68 5647.5  2405 5648.82  2405 5650.5  C 2405 5652.18  2403.68 5653.5  2402 5653.5  " fill-rule="nonzero" fill="#797979" stroke="none" />
</svg>