<?xml version="1.0" encoding="utf-8"?>
<svg version="1.1" xmlns:xlink="http://www.w3.org/1999/xlink" width="12px" height="12px" viewBox="847 1939.5  12 12" xmlns="http://www.w3.org/2000/svg">
  <path d="M 853 1939.5  C 856.36 1939.5  859 1942.14  859 1945.5  C 859 1948.86  856.36 1951.5  853 1951.5  C 849.64 1951.5  847 1948.86  847 1945.5  C 847 1942.14  849.64 1939.5  853 1939.5  Z " fill-rule="nonzero" fill="#ffffff" stroke="none" />
  <path d="M 853 1940  C 856.08 1940  858.5 1942.42  858.5 1945.5  C 858.5 1948.58  856.08 1951  853 1951  C 849.92 1951  847.5 1948.58  847.5 1945.5  C 847.5 1942.42  849.92 1940  853 1940  Z " stroke-width="1" stroke="#797979" fill="none" />
  <path d="M 853 1948.5  C 851.32 1948.5  850 1947.18  850 1945.5  C 850 1943.82  851.32 1942.5  853 1942.5  C 854.68 1942.5  856 1943.82  856 1945.5  C 856 1947.18  854.68 1948.5  853 1948.5  " fill-rule="nonzero" fill="#797979" stroke="none" />
</svg>