<?xml version="1.0" encoding="utf-8"?>
<svg version="1.1" xmlns:xlink="http://www.w3.org/1999/xlink" width="12px" height="12px" viewBox="800 1644.5  12 12" xmlns="http://www.w3.org/2000/svg">
  <path d="M 806 1644.5  C 809.36 1644.5  812 1647.14  812 1650.5  C 812 1653.86  809.36 1656.5  806 1656.5  C 802.64 1656.5  800 1653.86  800 1650.5  C 800 1647.14  802.64 1644.5  806 1644.5  Z " fill-rule="nonzero" fill="#f0f0f0" stroke="none" />
  <path d="M 806 1645  C 809.08 1645  811.5 1647.42  811.5 1650.5  C 811.5 1653.58  809.08 1656  806 1656  C 802.92 1656  800.5 1653.58  800.5 1650.5  C 800.5 1647.42  802.92 1645  806 1645  Z " stroke-width="1" stroke="#797979" fill="none" />
  <path d="M 806 1653.5  C 804.32 1653.5  803 1652.18  803 1650.5  C 803 1648.82  804.32 1647.5  806 1647.5  C 807.68 1647.5  809 1648.82  809 1650.5  C 809 1652.18  807.68 1653.5  806 1653.5  " fill-rule="nonzero" fill="#797979" stroke="none" />
</svg>