<?xml version="1.0" encoding="utf-8"?>
<svg version="1.1" xmlns:xlink="http://www.w3.org/1999/xlink" width="12px" height="12px" viewBox="800 1939.5  12 12" xmlns="http://www.w3.org/2000/svg">
  <path d="M 806 1939.5  C 809.36 1939.5  812 1942.14  812 1945.5  C 812 1948.86  809.36 1951.5  806 1951.5  C 802.64 1951.5  800 1948.86  800 1945.5  C 800 1942.14  802.64 1939.5  806 1939.5  Z " fill-rule="nonzero" fill="#ffffff" stroke="none" />
  <path d="M 806 1940  C 809.08 1940  811.5 1942.42  811.5 1945.5  C 811.5 1948.58  809.08 1951  806 1951  C 802.92 1951  800.5 1948.58  800.5 1945.5  C 800.5 1942.42  802.92 1940  806 1940  Z " stroke-width="1" stroke="#797979" fill="none" />
  <path d="M 806 1948.5  C 804.32 1948.5  803 1947.18  803 1945.5  C 803 1943.82  804.32 1942.5  806 1942.5  C 807.68 1942.5  809 1943.82  809 1945.5  C 809 1947.18  807.68 1948.5  806 1948.5  " fill-rule="nonzero" fill="#797979" stroke="none" />
</svg>