<?xml version="1.0" encoding="utf-8"?>
<svg version="1.1" xmlns:xlink="http://www.w3.org/1999/xlink" width="12px" height="12px" viewBox="2349 5811.5  12 12" xmlns="http://www.w3.org/2000/svg">
  <path d="M 2355 5811.5  C 2358.36 5811.5  2361 5814.14  2361 5817.5  C 2361 5820.86  2358.36 5823.5  2355 5823.5  C 2351.64 5823.5  2349 5820.86  2349 5817.5  C 2349 5814.14  2351.64 5811.5  2355 5811.5  Z " fill-rule="nonzero" fill="#f0f0f0" stroke="none" />
  <path d="M 2355 5812  C 2358.08 5812  2360.5 5814.42  2360.5 5817.5  C 2360.5 5820.58  2358.08 5823  2355 5823  C 2351.92 5823  2349.5 5820.58  2349.5 5817.5  C 2349.5 5814.42  2351.92 5812  2355 5812  Z " stroke-width="1" stroke="#797979" fill="none" />
  <path d="M 2355 5820.5  C 2353.32 5820.5  2352 5819.18  2352 5817.5  C 2352 5815.82  2353.32 5814.5  2355 5814.5  C 2356.68 5814.5  2358 5815.82  2358 5817.5  C 2358 5819.18  2356.68 5820.5  2355 5820.5  " fill-rule="nonzero" fill="#797979" stroke="none" />
</svg>