<?xml version="1.0" encoding="utf-8"?>
<svg version="1.1" xmlns:xlink="http://www.w3.org/1999/xlink" width="12px" height="12px" viewBox="2396 5811.5  12 12" xmlns="http://www.w3.org/2000/svg">
  <path d="M 2402 5811.5  C 2405.36 5811.5  2408 5814.14  2408 5817.5  C 2408 5820.86  2405.36 5823.5  2402 5823.5  C 2398.64 5823.5  2396 5820.86  2396 5817.5  C 2396 5814.14  2398.64 5811.5  2402 5811.5  Z " fill-rule="nonzero" fill="#f2f2f2" stroke="none" />
  <path d="M 2402 5812  C 2405.08 5812  2407.5 5814.42  2407.5 5817.5  C 2407.5 5820.58  2405.08 5823  2402 5823  C 2398.92 5823  2396.5 5820.58  2396.5 5817.5  C 2396.5 5814.42  2398.92 5812  2402 5812  Z " stroke-width="1" stroke="#797979" fill="none" />
  <path d="M 2402 5820.5  C 2400.32 5820.5  2399 5819.18  2399 5817.5  C 2399 5815.82  2400.32 5814.5  2402 5814.5  C 2403.68 5814.5  2405 5815.82  2405 5817.5  C 2405 5819.18  2403.68 5820.5  2402 5820.5  " fill-rule="nonzero" fill="#797979" stroke="none" />
</svg>