<?xml version="1.0" encoding="utf-8"?>
<svg version="1.1" xmlns:xlink="http://www.w3.org/1999/xlink" width="12px" height="12px" viewBox="2350 5852.5  12 12" xmlns="http://www.w3.org/2000/svg">
  <path d="M 2356 5852.5  C 2359.36 5852.5  2362 5855.14  2362 5858.5  C 2362 5861.86  2359.36 5864.5  2356 5864.5  C 2352.64 5864.5  2350 5861.86  2350 5858.5  C 2350 5855.14  2352.64 5852.5  2356 5852.5  Z " fill-rule="nonzero" fill="#f0f0f0" stroke="none" />
  <path d="M 2356 5853  C 2359.08 5853  2361.5 5855.42  2361.5 5858.5  C 2361.5 5861.58  2359.08 5864  2356 5864  C 2352.92 5864  2350.5 5861.58  2350.5 5858.5  C 2350.5 5855.42  2352.92 5853  2356 5853  Z " stroke-width="1" stroke="#797979" fill="none" />
  <path d="M 2356 5861.5  C 2354.32 5861.5  2353 5860.18  2353 5858.5  C 2353 5856.82  2354.32 5855.5  2356 5855.5  C 2357.68 5855.5  2359 5856.82  2359 5858.5  C 2359 5860.18  2357.68 5861.5  2356 5861.5  " fill-rule="nonzero" fill="#797979" stroke="none" />
</svg>