<?xml version="1.0" encoding="utf-8"?>
<svg version="1.1" xmlns:xlink="http://www.w3.org/1999/xlink" width="12px" height="12px" viewBox="800 3852.5  12 12" xmlns="http://www.w3.org/2000/svg">
  <path d="M 806 3852.5  C 809.36 3852.5  812 3855.14  812 3858.5  C 812 3861.86  809.36 3864.5  806 3864.5  C 802.64 3864.5  800 3861.86  800 3858.5  C 800 3855.14  802.64 3852.5  806 3852.5  Z " fill-rule="nonzero" fill="#ffffff" stroke="none" />
  <path d="M 806 3853  C 809.08 3853  811.5 3855.42  811.5 3858.5  C 811.5 3861.58  809.08 3864  806 3864  C 802.92 3864  800.5 3861.58  800.5 3858.5  C 800.5 3855.42  802.92 3853  806 3853  Z " stroke-width="1" stroke="#797979" fill="none" />
  <path d="M 806 3861.5  C 804.32 3861.5  803 3860.18  803 3858.5  C 803 3856.82  804.32 3855.5  806 3855.5  C 807.68 3855.5  809 3856.82  809 3858.5  C 809 3860.18  807.68 3861.5  806 3861.5  " fill-rule="nonzero" fill="#797979" stroke="none" />
</svg>