<?xml version="1.0" encoding="utf-8"?>
<svg version="1.1" xmlns:xlink="http://www.w3.org/1999/xlink" width="12px" height="12px" viewBox="2396 5893.5  12 12" xmlns="http://www.w3.org/2000/svg">
  <path d="M 2402 5893.5  C 2405.36 5893.5  2408 5896.14  2408 5899.5  C 2408 5902.86  2405.36 5905.5  2402 5905.5  C 2398.64 5905.5  2396 5902.86  2396 5899.5  C 2396 5896.14  2398.64 5893.5  2402 5893.5  Z " fill-rule="nonzero" fill="#ffffff" stroke="none" fill-opacity="0" />
  <path d="M 2402 5894  C 2405.08 5894  2407.5 5896.42  2407.5 5899.5  C 2407.5 5902.58  2405.08 5905  2402 5905  C 2398.92 5905  2396.5 5902.58  2396.5 5899.5  C 2396.5 5896.42  2398.92 5894  2402 5894  Z " stroke-width="1" stroke="#797979" fill="none" />
  <path d="M 2402 5902.5  C 2400.32 5902.5  2399 5901.18  2399 5899.5  C 2399 5897.82  2400.32 5896.5  2402 5896.5  C 2403.68 5896.5  2405 5897.82  2405 5899.5  C 2405 5901.18  2403.68 5902.5  2402 5902.5  " fill-rule="nonzero" fill="#797979" stroke="none" />
</svg>