<?xml version="1.0" encoding="utf-8"?>
<svg version="1.1" xmlns:xlink="http://www.w3.org/1999/xlink" width="12px" height="12px" viewBox="445 3977  12 12" xmlns="http://www.w3.org/2000/svg">
  <path d="M 445.5 3979  A 1.5 1.5 0 0 1 447 3977.5 L 455 3977.5  A 1.5 1.5 0 0 1 456.5 3979 L 456.5 3987  A 1.5 1.5 0 0 1 455 3988.5 L 447 3988.5  A 1.5 1.5 0 0 1 445.5 3987 L 445.5 3979  Z " fill-rule="nonzero" fill="#ffffff" stroke="none" />
  <path d="M 445.5 3979  A 1.5 1.5 0 0 1 447 3977.5 L 455 3977.5  A 1.5 1.5 0 0 1 456.5 3979 L 456.5 3987  A 1.5 1.5 0 0 1 455 3988.5 L 447 3988.5  A 1.5 1.5 0 0 1 445.5 3987 L 445.5 3979  Z " stroke-width="1" stroke="#797979" fill="none" />
  <path d="M 447.571428571429 3983  L 450.142857142857 3985.57142857143  " stroke-width="2.57142857142857" stroke="#797979" fill="none" />
  <path d="M 450.142857142857 3985.57142857143  L 454.428571428571 3979.57142857143  " stroke-width="2.57142857142857" stroke="#797979" fill="none" />
</svg>