<?xml version="1.0" encoding="utf-8"?>
<svg version="1.1" xmlns:xlink="http://www.w3.org/1999/xlink" width="12px" height="12px" viewBox="2350 3089.5  12 12" xmlns="http://www.w3.org/2000/svg">
  <path d="M 2356 3089.5  C 2359.36 3089.5  2362 3092.14  2362 3095.5  C 2362 3098.86  2359.36 3101.5  2356 3101.5  C 2352.64 3101.5  2350 3098.86  2350 3095.5  C 2350 3092.14  2352.64 3089.5  2356 3089.5  Z " fill-rule="nonzero" fill="#dcf3fd" stroke="none" />
  <path d="M 2356 3090  C 2359.08 3090  2361.5 3092.42  2361.5 3095.5  C 2361.5 3098.58  2359.08 3101  2356 3101  C 2352.92 3101  2350.5 3098.58  2350.5 3095.5  C 2350.5 3092.42  2352.92 3090  2356 3090  Z " stroke-width="1" stroke="#797979" fill="none" />
  <path d="M 2356 3098.5  C 2354.32 3098.5  2353 3097.18  2353 3095.5  C 2353 3093.82  2354.32 3092.5  2356 3092.5  C 2357.68 3092.5  2359 3093.82  2359 3095.5  C 2359 3097.18  2357.68 3098.5  2356 3098.5  " fill-rule="nonzero" fill="#797979" stroke="none" />
</svg>