<?xml version="1.0" encoding="utf-8"?>
<svg version="1.1" xmlns:xlink="http://www.w3.org/1999/xlink" width="12px" height="12px" viewBox="2397 3089.5  12 12" xmlns="http://www.w3.org/2000/svg">
  <path d="M 2403 3089.5  C 2406.36 3089.5  2409 3092.14  2409 3095.5  C 2409 3098.86  2406.36 3101.5  2403 3101.5  C 2399.64 3101.5  2397 3098.86  2397 3095.5  C 2397 3092.14  2399.64 3089.5  2403 3089.5  Z " fill-rule="nonzero" fill="#dcf3fd" stroke="none" />
  <path d="M 2403 3090  C 2406.08 3090  2408.5 3092.42  2408.5 3095.5  C 2408.5 3098.58  2406.08 3101  2403 3101  C 2399.92 3101  2397.5 3098.58  2397.5 3095.5  C 2397.5 3092.42  2399.92 3090  2403 3090  Z " stroke-width="1" stroke="#797979" fill="none" />
  <path d="M 2403 3098.5  C 2401.32 3098.5  2400 3097.18  2400 3095.5  C 2400 3093.82  2401.32 3092.5  2403 3092.5  C 2404.68 3092.5  2406 3093.82  2406 3095.5  C 2406 3097.18  2404.68 3098.5  2403 3098.5  " fill-rule="nonzero" fill="#797979" stroke="none" />
</svg>