<?xml version="1.0" encoding="utf-8"?>
<svg version="1.1" xmlns:xlink="http://www.w3.org/1999/xlink" width="12px" height="12px" viewBox="799 3938.5  12 12" xmlns="http://www.w3.org/2000/svg">
  <path d="M 805 3938.5  C 808.36 3938.5  811 3941.14  811 3944.5  C 811 3947.86  808.36 3950.5  805 3950.5  C 801.64 3950.5  799 3947.86  799 3944.5  C 799 3941.14  801.64 3938.5  805 3938.5  Z " fill-rule="nonzero" fill="#ffffff" stroke="none" />
  <path d="M 805 3939  C 808.08 3939  810.5 3941.42  810.5 3944.5  C 810.5 3947.58  808.08 3950  805 3950  C 801.92 3950  799.5 3947.58  799.5 3944.5  C 799.5 3941.42  801.92 3939  805 3939  Z " stroke-width="1" stroke="#797979" fill="none" />
  <path d="M 805 3947.5  C 803.32 3947.5  802 3946.18  802 3944.5  C 802 3942.82  803.32 3941.5  805 3941.5  C 806.68 3941.5  808 3942.82  808 3944.5  C 808 3946.18  806.68 3947.5  805 3947.5  " fill-rule="nonzero" fill="#797979" stroke="none" />
</svg>