<?xml version="1.0" encoding="utf-8"?>
<svg version="1.1" xmlns:xlink="http://www.w3.org/1999/xlink" width="12px" height="12px" viewBox="847 4600.5  12 12" xmlns="http://www.w3.org/2000/svg">
  <path d="M 853 4600.5  C 856.36 4600.5  859 4603.14  859 4606.5  C 859 4609.86  856.36 4612.5  853 4612.5  C 849.64 4612.5  847 4609.86  847 4606.5  C 847 4603.14  849.64 4600.5  853 4600.5  Z " fill-rule="nonzero" fill="#ffffff" stroke="none" />
  <path d="M 853 4601  C 856.08 4601  858.5 4603.42  858.5 4606.5  C 858.5 4609.58  856.08 4612  853 4612  C 849.92 4612  847.5 4609.58  847.5 4606.5  C 847.5 4603.42  849.92 4601  853 4601  Z " stroke-width="1" stroke="#797979" fill="none" />
  <path d="M 853 4609.5  C 851.32 4609.5  850 4608.18  850 4606.5  C 850 4604.82  851.32 4603.5  853 4603.5  C 854.68 4603.5  856 4604.82  856 4606.5  C 856 4608.18  854.68 4609.5  853 4609.5  " fill-rule="nonzero" fill="#797979" stroke="none" />
</svg>