<?xml version="1.0" encoding="utf-8"?>
<svg version="1.1" xmlns:xlink="http://www.w3.org/1999/xlink" width="12px" height="12px" viewBox="2350 3643.5  12 12" xmlns="http://www.w3.org/2000/svg">
  <path d="M 2356 3643.5  C 2359.36 3643.5  2362 3646.14  2362 3649.5  C 2362 3652.86  2359.36 3655.5  2356 3655.5  C 2352.64 3655.5  2350 3652.86  2350 3649.5  C 2350 3646.14  2352.64 3643.5  2356 3643.5  Z " fill-rule="nonzero" fill="#f0f0f0" stroke="none" />
  <path d="M 2356 3644  C 2359.08 3644  2361.5 3646.42  2361.5 3649.5  C 2361.5 3652.58  2359.08 3655  2356 3655  C 2352.92 3655  2350.5 3652.58  2350.5 3649.5  C 2350.5 3646.42  2352.92 3644  2356 3644  Z " stroke-width="1" stroke="#797979" fill="none" />
  <path d="M 2356 3652.5  C 2354.32 3652.5  2353 3651.18  2353 3649.5  C 2353 3647.82  2354.32 3646.5  2356 3646.5  C 2357.68 3646.5  2359 3647.82  2359 3649.5  C 2359 3651.18  2357.68 3652.5  2356 3652.5  " fill-rule="nonzero" fill="#797979" stroke="none" />
</svg>