<?xml version="1.0" encoding="utf-8"?>
<svg version="1.1" xmlns:xlink="http://www.w3.org/1999/xlink" width="12px" height="12px" viewBox="800 4559.5  12 12" xmlns="http://www.w3.org/2000/svg">
  <path d="M 806 4559.5  C 809.36 4559.5  812 4562.14  812 4565.5  C 812 4568.86  809.36 4571.5  806 4571.5  C 802.64 4571.5  800 4568.86  800 4565.5  C 800 4562.14  802.64 4559.5  806 4559.5  Z " fill-rule="nonzero" fill="#f0f0f0" stroke="none" />
  <path d="M 806 4560  C 809.08 4560  811.5 4562.42  811.5 4565.5  C 811.5 4568.58  809.08 4571  806 4571  C 802.92 4571  800.5 4568.58  800.5 4565.5  C 800.5 4562.42  802.92 4560  806 4560  Z " stroke-width="1" stroke="#797979" fill="none" />
  <path d="M 806 4568.5  C 804.32 4568.5  803 4567.18  803 4565.5  C 803 4563.82  804.32 4562.5  806 4562.5  C 807.68 4562.5  809 4563.82  809 4565.5  C 809 4567.18  807.68 4568.5  806 4568.5  " fill-rule="nonzero" fill="#797979" stroke="none" />
</svg>