<?xml version="1.0" encoding="utf-8"?>
<svg version="1.1" xmlns:xlink="http://www.w3.org/1999/xlink" width="12px" height="12px" viewBox="844 4781.5  12 12" xmlns="http://www.w3.org/2000/svg">
  <path d="M 850 4781.5  C 853.36 4781.5  856 4784.14  856 4787.5  C 856 4790.86  853.36 4793.5  850 4793.5  C 846.64 4793.5  844 4790.86  844 4787.5  C 844 4784.14  846.64 4781.5  850 4781.5  Z " fill-rule="nonzero" fill="#f0f0f0" stroke="none" />
  <path d="M 850 4782  C 853.08 4782  855.5 4784.42  855.5 4787.5  C 855.5 4790.58  853.08 4793  850 4793  C 846.92 4793  844.5 4790.58  844.5 4787.5  C 844.5 4784.42  846.92 4782  850 4782  Z " stroke-width="1" stroke="#797979" fill="none" />
  <path d="M 850 4790.5  C 848.32 4790.5  847 4789.18  847 4787.5  C 847 4785.82  848.32 4784.5  850 4784.5  C 851.68 4784.5  853 4785.82  853 4787.5  C 853 4789.18  851.68 4790.5  850 4790.5  " fill-rule="nonzero" fill="#797979" stroke="none" />
</svg>