<?xml version="1.0" encoding="utf-8"?>
<svg version="1.1" xmlns:xlink="http://www.w3.org/1999/xlink" width="12px" height="12px" viewBox="797 4739.5  12 12" xmlns="http://www.w3.org/2000/svg">
  <path d="M 803 4739.5  C 806.36 4739.5  809 4742.14  809 4745.5  C 809 4748.86  806.36 4751.5  803 4751.5  C 799.64 4751.5  797 4748.86  797 4745.5  C 797 4742.14  799.64 4739.5  803 4739.5  Z " fill-rule="nonzero" fill="#f0f0f0" stroke="none" />
  <path d="M 803 4740  C 806.08 4740  808.5 4742.42  808.5 4745.5  C 808.5 4748.58  806.08 4751  803 4751  C 799.92 4751  797.5 4748.58  797.5 4745.5  C 797.5 4742.42  799.92 4740  803 4740  Z " stroke-width="1" stroke="#797979" fill="none" />
  <path d="M 803 4748.5  C 801.32 4748.5  800 4747.18  800 4745.5  C 800 4743.82  801.32 4742.5  803 4742.5  C 804.68 4742.5  806 4743.82  806 4745.5  C 806 4747.18  804.68 4748.5  803 4748.5  " fill-rule="nonzero" fill="#797979" stroke="none" />
</svg>