<?xml version="1.0" encoding="utf-8"?>
<svg version="1.1" xmlns:xlink="http://www.w3.org/1999/xlink" width="12px" height="12px" viewBox="1996 3678  12 12" xmlns="http://www.w3.org/2000/svg">
  <path d="M 1996.5 3680  A 1.5 1.5 0 0 1 1998 3678.5 L 2006 3678.5  A 1.5 1.5 0 0 1 2007.5 3680 L 2007.5 3688  A 1.5 1.5 0 0 1 2006 3689.5 L 1998 3689.5  A 1.5 1.5 0 0 1 1996.5 3688 L 1996.5 3680  Z " fill-rule="nonzero" fill="#ffffff" stroke="none" />
  <path d="M 1996.5 3680  A 1.5 1.5 0 0 1 1998 3678.5 L 2006 3678.5  A 1.5 1.5 0 0 1 2007.5 3680 L 2007.5 3688  A 1.5 1.5 0 0 1 2006 3689.5 L 1998 3689.5  A 1.5 1.5 0 0 1 1996.5 3688 L 1996.5 3680  Z " stroke-width="1" stroke="#797979" fill="none" />
</svg>