<?xml version="1.0" encoding="utf-8"?>
<svg version="1.1" xmlns:xlink="http://www.w3.org/1999/xlink" width="12px" height="12px" viewBox="846 4686.5  12 12" xmlns="http://www.w3.org/2000/svg">
  <path d="M 852 4686.5  C 855.36 4686.5  858 4689.14  858 4692.5  C 858 4695.86  855.36 4698.5  852 4698.5  C 848.64 4698.5  846 4695.86  846 4692.5  C 846 4689.14  848.64 4686.5  852 4686.5  Z " fill-rule="nonzero" fill="#f0f0f0" stroke="none" />
  <path d="M 852 4687  C 855.08 4687  857.5 4689.42  857.5 4692.5  C 857.5 4695.58  855.08 4698  852 4698  C 848.92 4698  846.5 4695.58  846.5 4692.5  C 846.5 4689.42  848.92 4687  852 4687  Z " stroke-width="1" stroke="#797979" fill="none" />
  <path d="M 852 4695.5  C 850.32 4695.5  849 4694.18  849 4692.5  C 849 4690.82  850.32 4689.5  852 4689.5  C 853.68 4689.5  855 4690.82  855 4692.5  C 855 4694.18  853.68 4695.5  852 4695.5  " fill-rule="nonzero" fill="#797979" stroke="none" />
</svg>