<?xml version="1.0" encoding="utf-8"?>
<svg version="1.1" xmlns:xlink="http://www.w3.org/1999/xlink" width="12px" height="12px" viewBox="846 4645.5  12 12" xmlns="http://www.w3.org/2000/svg">
  <path d="M 852 4645.5  C 855.36 4645.5  858 4648.14  858 4651.5  C 858 4654.86  855.36 4657.5  852 4657.5  C 848.64 4657.5  846 4654.86  846 4651.5  C 846 4648.14  848.64 4645.5  852 4645.5  Z " fill-rule="nonzero" fill="#f0f0f0" stroke="none" />
  <path d="M 852 4646  C 855.08 4646  857.5 4648.42  857.5 4651.5  C 857.5 4654.58  855.08 4657  852 4657  C 848.92 4657  846.5 4654.58  846.5 4651.5  C 846.5 4648.42  848.92 4646  852 4646  Z " stroke-width="1" stroke="#797979" fill="none" />
  <path d="M 852 4654.5  C 850.32 4654.5  849 4653.18  849 4651.5  C 849 4649.82  850.32 4648.5  852 4648.5  C 853.68 4648.5  855 4649.82  855 4651.5  C 855 4653.18  853.68 4654.5  852 4654.5  " fill-rule="nonzero" fill="#797979" stroke="none" />
</svg>