<?xml version="1.0" encoding="utf-8"?>
<svg version="1.1" xmlns:xlink="http://www.w3.org/1999/xlink" width="12px" height="12px" viewBox="797 4781.5  12 12" xmlns="http://www.w3.org/2000/svg">
  <path d="M 803 4781.5  C 806.36 4781.5  809 4784.14  809 4787.5  C 809 4790.86  806.36 4793.5  803 4793.5  C 799.64 4793.5  797 4790.86  797 4787.5  C 797 4784.14  799.64 4781.5  803 4781.5  Z " fill-rule="nonzero" fill="#f0f0f0" stroke="none" />
  <path d="M 803 4782  C 806.08 4782  808.5 4784.42  808.5 4787.5  C 808.5 4790.58  806.08 4793  803 4793  C 799.92 4793  797.5 4790.58  797.5 4787.5  C 797.5 4784.42  799.92 4782  803 4782  Z " stroke-width="1" stroke="#797979" fill="none" />
  <path d="M 803 4790.5  C 801.32 4790.5  800 4789.18  800 4787.5  C 800 4785.82  801.32 4784.5  803 4784.5  C 804.68 4784.5  806 4785.82  806 4787.5  C 806 4789.18  804.68 4790.5  803 4790.5  " fill-rule="nonzero" fill="#797979" stroke="none" />
</svg>