<?xml version="1.0" encoding="utf-8"?>
<svg version="1.1" xmlns:xlink="http://www.w3.org/1999/xlink" width="12px" height="12px" viewBox="799 4645.5  12 12" xmlns="http://www.w3.org/2000/svg">
  <path d="M 805 4645.5  C 808.36 4645.5  811 4648.14  811 4651.5  C 811 4654.86  808.36 4657.5  805 4657.5  C 801.64 4657.5  799 4654.86  799 4651.5  C 799 4648.14  801.64 4645.5  805 4645.5  Z " fill-rule="nonzero" fill="#ffffff" stroke="none" />
  <path d="M 805 4646  C 808.08 4646  810.5 4648.42  810.5 4651.5  C 810.5 4654.58  808.08 4657  805 4657  C 801.92 4657  799.5 4654.58  799.5 4651.5  C 799.5 4648.42  801.92 4646  805 4646  Z " stroke-width="1" stroke="#797979" fill="none" />
  <path d="M 805 4654.5  C 803.32 4654.5  802 4653.18  802 4651.5  C 802 4649.82  803.32 4648.5  805 4648.5  C 806.68 4648.5  808 4649.82  808 4651.5  C 808 4653.18  806.68 4654.5  805 4654.5  " fill-rule="nonzero" fill="#797979" stroke="none" />
</svg>