<?xml version="1.0" encoding="utf-8"?>
<svg version="1.1" xmlns:xlink="http://www.w3.org/1999/xlink" width="12px" height="12px" viewBox="2397 3841.5  12 12" xmlns="http://www.w3.org/2000/svg">
  <path d="M 2403 3841.5  C 2406.36 3841.5  2409 3844.14  2409 3847.5  C 2409 3850.86  2406.36 3853.5  2403 3853.5  C 2399.64 3853.5  2397 3850.86  2397 3847.5  C 2397 3844.14  2399.64 3841.5  2403 3841.5  Z " fill-rule="nonzero" fill="#ffffff" stroke="none" fill-opacity="0" />
  <path d="M 2403 3842  C 2406.08 3842  2408.5 3844.42  2408.5 3847.5  C 2408.5 3850.58  2406.08 3853  2403 3853  C 2399.92 3853  2397.5 3850.58  2397.5 3847.5  C 2397.5 3844.42  2399.92 3842  2403 3842  Z " stroke-width="1" stroke="#797979" fill="none" />
  <path d="M 2403 3850.5  C 2401.32 3850.5  2400 3849.18  2400 3847.5  C 2400 3845.82  2401.32 3844.5  2403 3844.5  C 2404.68 3844.5  2406 3845.82  2406 3847.5  C 2406 3849.18  2404.68 3850.5  2403 3850.5  " fill-rule="nonzero" fill="#797979" stroke="none" />
</svg>