<?xml version="1.0" encoding="utf-8"?>
<svg version="1.1" xmlns:xlink="http://www.w3.org/1999/xlink" width="12px" height="12px" viewBox="190 3988  12 12" xmlns="http://www.w3.org/2000/svg">
  <path d="M 190.5 3990  A 1.5 1.5 0 0 1 192 3988.5 L 200 3988.5  A 1.5 1.5 0 0 1 201.5 3990 L 201.5 3998  A 1.5 1.5 0 0 1 200 3999.5 L 192 3999.5  A 1.5 1.5 0 0 1 190.5 3998 L 190.5 3990  Z " fill-rule="nonzero" fill="#f0f0f0" stroke="none" />
  <path d="M 190.5 3990  A 1.5 1.5 0 0 1 192 3988.5 L 200 3988.5  A 1.5 1.5 0 0 1 201.5 3990 L 201.5 3998  A 1.5 1.5 0 0 1 200 3999.5 L 192 3999.5  A 1.5 1.5 0 0 1 190.5 3998 L 190.5 3990  Z " stroke-width="1" stroke="#797979" fill="none" />
  <path d="M 192.571428571429 3994  L 195.142857142857 3996.57142857143  " stroke-width="2.57142857142857" stroke="#797979" fill="none" />
  <path d="M 195.142857142857 3996.57142857143  L 199.428571428571 3990.57142857143  " stroke-width="2.57142857142857" stroke="#797979" fill="none" />
</svg>