<?xml version="1.0" encoding="utf-8"?>
<svg version="1.1" xmlns:xlink="http://www.w3.org/1999/xlink" width="12px" height="12px" viewBox="846 4118.5  12 12" xmlns="http://www.w3.org/2000/svg">
  <path d="M 852 4118.5  C 855.36 4118.5  858 4121.14  858 4124.5  C 858 4127.86  855.36 4130.5  852 4130.5  C 848.64 4130.5  846 4127.86  846 4124.5  C 846 4121.14  848.64 4118.5  852 4118.5  Z " fill-rule="nonzero" fill="#ffffff" stroke="none" fill-opacity="0" />
  <path d="M 852 4119  C 855.08 4119  857.5 4121.42  857.5 4124.5  C 857.5 4127.58  855.08 4130  852 4130  C 848.92 4130  846.5 4127.58  846.5 4124.5  C 846.5 4121.42  848.92 4119  852 4119  Z " stroke-width="1" stroke="#797979" fill="none" />
  <path d="M 852 4127.5  C 850.32 4127.5  849 4126.18  849 4124.5  C 849 4122.82  850.32 4121.5  852 4121.5  C 853.68 4121.5  855 4122.82  855 4124.5  C 855 4126.18  853.68 4127.5  852 4127.5  " fill-rule="nonzero" fill="#797979" stroke="none" />
</svg>