<?xml version="1.0" encoding="utf-8"?>
<svg version="1.1" xmlns:xlink="http://www.w3.org/1999/xlink" width="12px" height="12px" viewBox="2350 3926.5  12 12" xmlns="http://www.w3.org/2000/svg">
  <path d="M 2356 3926.5  C 2359.36 3926.5  2362 3929.14  2362 3932.5  C 2362 3935.86  2359.36 3938.5  2356 3938.5  C 2352.64 3938.5  2350 3935.86  2350 3932.5  C 2350 3929.14  2352.64 3926.5  2356 3926.5  Z " fill-rule="nonzero" fill="#f2f2f2" stroke="none" />
  <path d="M 2356 3927  C 2359.08 3927  2361.5 3929.42  2361.5 3932.5  C 2361.5 3935.58  2359.08 3938  2356 3938  C 2352.92 3938  2350.5 3935.58  2350.5 3932.5  C 2350.5 3929.42  2352.92 3927  2356 3927  Z " stroke-width="1" stroke="#797979" fill="none" />
  <path d="M 2356 3935.5  C 2354.32 3935.5  2353 3934.18  2353 3932.5  C 2353 3930.82  2354.32 3929.5  2356 3929.5  C 2357.68 3929.5  2359 3930.82  2359 3932.5  C 2359 3934.18  2357.68 3935.5  2356 3935.5  " fill-rule="nonzero" fill="#797979" stroke="none" />
</svg>