<?xml version="1.0" encoding="utf-8"?>
<svg version="1.1" xmlns:xlink="http://www.w3.org/1999/xlink" width="12px" height="12px" viewBox="799 4155.5  12 12" xmlns="http://www.w3.org/2000/svg">
  <path d="M 805 4155.5  C 808.36 4155.5  811 4158.14  811 4161.5  C 811 4164.86  808.36 4167.5  805 4167.5  C 801.64 4167.5  799 4164.86  799 4161.5  C 799 4158.14  801.64 4155.5  805 4155.5  Z " fill-rule="nonzero" fill="#d7d7d7" stroke="none" />
  <path d="M 805 4156  C 808.08 4156  810.5 4158.42  810.5 4161.5  C 810.5 4164.58  808.08 4167  805 4167  C 801.92 4167  799.5 4164.58  799.5 4161.5  C 799.5 4158.42  801.92 4156  805 4156  Z " stroke-width="1" stroke="#797979" fill="none" />
  <path d="M 805 4164.5  C 803.32 4164.5  802 4163.18  802 4161.5  C 802 4159.82  803.32 4158.5  805 4158.5  C 806.68 4158.5  808 4159.82  808 4161.5  C 808 4163.18  806.68 4164.5  805 4164.5  " fill-rule="nonzero" fill="#797979" stroke="none" />
</svg>