<?xml version="1.0" encoding="utf-8"?>
<svg version="1.1" xmlns:xlink="http://www.w3.org/1999/xlink" width="12px" height="12px" viewBox="846 4155.5  12 12" xmlns="http://www.w3.org/2000/svg">
  <path d="M 852 4155.5  C 855.36 4155.5  858 4158.14  858 4161.5  C 858 4164.86  855.36 4167.5  852 4167.5  C 848.64 4167.5  846 4164.86  846 4161.5  C 846 4158.14  848.64 4155.5  852 4155.5  Z " fill-rule="nonzero" fill="#d7d7d7" stroke="none" />
  <path d="M 852 4156  C 855.08 4156  857.5 4158.42  857.5 4161.5  C 857.5 4164.58  855.08 4167  852 4167  C 848.92 4167  846.5 4164.58  846.5 4161.5  C 846.5 4158.42  848.92 4156  852 4156  Z " stroke-width="1" stroke="#797979" fill="none" />
  <path d="M 852 4164.5  C 850.32 4164.5  849 4163.18  849 4161.5  C 849 4159.82  850.32 4158.5  852 4158.5  C 853.68 4158.5  855 4159.82  855 4161.5  C 855 4163.18  853.68 4164.5  852 4164.5  " fill-rule="nonzero" fill="#797979" stroke="none" />
</svg>