<?xml version="1.0" encoding="utf-8"?>
<svg version="1.1" xmlns:xlink="http://www.w3.org/1999/xlink" width="12px" height="12px" viewBox="2397 4008.5  12 12" xmlns="http://www.w3.org/2000/svg">
  <path d="M 2403 4008.5  C 2406.36 4008.5  2409 4011.14  2409 4014.5  C 2409 4017.86  2406.36 4020.5  2403 4020.5  C 2399.64 4020.5  2397 4017.86  2397 4014.5  C 2397 4011.14  2399.64 4008.5  2403 4008.5  Z " fill-rule="nonzero" fill="#f0f0f0" stroke="none" />
  <path d="M 2403 4009  C 2406.08 4009  2408.5 4011.42  2408.5 4014.5  C 2408.5 4017.58  2406.08 4020  2403 4020  C 2399.92 4020  2397.5 4017.58  2397.5 4014.5  C 2397.5 4011.42  2399.92 4009  2403 4009  Z " stroke-width="1" stroke="#797979" fill="none" />
  <path d="M 2403 4017.5  C 2401.32 4017.5  2400 4016.18  2400 4014.5  C 2400 4012.82  2401.32 4011.5  2403 4011.5  C 2404.68 4011.5  2406 4012.82  2406 4014.5  C 2406 4016.18  2404.68 4017.5  2403 4017.5  " fill-rule="nonzero" fill="#797979" stroke="none" />
</svg>