<?xml version="1.0" encoding="utf-8"?>
<svg version="1.1" xmlns:xlink="http://www.w3.org/1999/xlink" width="12px" height="12px" viewBox="799 4234.5  12 12" xmlns="http://www.w3.org/2000/svg">
  <path d="M 805 4234.5  C 808.36 4234.5  811 4237.14  811 4240.5  C 811 4243.86  808.36 4246.5  805 4246.5  C 801.64 4246.5  799 4243.86  799 4240.5  C 799 4237.14  801.64 4234.5  805 4234.5  Z " fill-rule="nonzero" fill="#f2f2f2" stroke="none" />
  <path d="M 805 4235  C 808.08 4235  810.5 4237.42  810.5 4240.5  C 810.5 4243.58  808.08 4246  805 4246  C 801.92 4246  799.5 4243.58  799.5 4240.5  C 799.5 4237.42  801.92 4235  805 4235  Z " stroke-width="1" stroke="#797979" fill="none" />
  <path d="M 805 4243.5  C 803.32 4243.5  802 4242.18  802 4240.5  C 802 4238.82  803.32 4237.5  805 4237.5  C 806.68 4237.5  808 4238.82  808 4240.5  C 808 4242.18  806.68 4243.5  805 4243.5  " fill-rule="nonzero" fill="#797979" stroke="none" />
</svg>