<?xml version="1.0" encoding="utf-8"?>
<svg version="1.1" xmlns:xlink="http://www.w3.org/1999/xlink" width="12px" height="12px" viewBox="799 4316.5  12 12" xmlns="http://www.w3.org/2000/svg">
  <path d="M 805 4316.5  C 808.36 4316.5  811 4319.14  811 4322.5  C 811 4325.86  808.36 4328.5  805 4328.5  C 801.64 4328.5  799 4325.86  799 4322.5  C 799 4319.14  801.64 4316.5  805 4316.5  Z " fill-rule="nonzero" fill="#ffffff" stroke="none" fill-opacity="0" />
  <path d="M 805 4317  C 808.08 4317  810.5 4319.42  810.5 4322.5  C 810.5 4325.58  808.08 4328  805 4328  C 801.92 4328  799.5 4325.58  799.5 4322.5  C 799.5 4319.42  801.92 4317  805 4317  Z " stroke-width="1" stroke="#797979" fill="none" />
  <path d="M 805 4325.5  C 803.32 4325.5  802 4324.18  802 4322.5  C 802 4320.82  803.32 4319.5  805 4319.5  C 806.68 4319.5  808 4320.82  808 4322.5  C 808 4324.18  806.68 4325.5  805 4325.5  " fill-rule="nonzero" fill="#797979" stroke="none" />
</svg>