<?xml version="1.0" encoding="utf-8"?>
<svg version="1.1" xmlns:xlink="http://www.w3.org/1999/xlink" width="12px" height="12px" viewBox="446 4273  12 12" xmlns="http://www.w3.org/2000/svg">
  <path d="M 446.5 4275  A 1.5 1.5 0 0 1 448 4273.5 L 456 4273.5  A 1.5 1.5 0 0 1 457.5 4275 L 457.5 4283  A 1.5 1.5 0 0 1 456 4284.5 L 448 4284.5  A 1.5 1.5 0 0 1 446.5 4283 L 446.5 4275  Z " fill-rule="nonzero" fill="#ffffff" stroke="none" fill-opacity="0" />
  <path d="M 446.5 4275  A 1.5 1.5 0 0 1 448 4273.5 L 456 4273.5  A 1.5 1.5 0 0 1 457.5 4275 L 457.5 4283  A 1.5 1.5 0 0 1 456 4284.5 L 448 4284.5  A 1.5 1.5 0 0 1 446.5 4283 L 446.5 4275  Z " stroke-width="1" stroke="#797979" fill="none" />
</svg>