<?xml version="1.0" encoding="utf-8"?>
<svg version="1.1" xmlns:xlink="http://www.w3.org/1999/xlink" width="12px" height="12px" viewBox="445 4314  12 12" xmlns="http://www.w3.org/2000/svg">
  <path d="M 445.5 4316  A 1.5 1.5 0 0 1 447 4314.5 L 455 4314.5  A 1.5 1.5 0 0 1 456.5 4316 L 456.5 4324  A 1.5 1.5 0 0 1 455 4325.5 L 447 4325.5  A 1.5 1.5 0 0 1 445.5 4324 L 445.5 4316  Z " fill-rule="nonzero" fill="#f0f0f0" stroke="none" />
  <path d="M 445.5 4316  A 1.5 1.5 0 0 1 447 4314.5 L 455 4314.5  A 1.5 1.5 0 0 1 456.5 4316 L 456.5 4324  A 1.5 1.5 0 0 1 455 4325.5 L 447 4325.5  A 1.5 1.5 0 0 1 445.5 4324 L 445.5 4316  Z " stroke-width="1" stroke="#797979" fill="none" />
  <path d="M 447.571428571429 4320  L 450.142857142857 4322.57142857143  " stroke-width="2.57142857142857" stroke="#797979" fill="none" />
  <path d="M 450.142857142857 4322.57142857143  L 454.428571428571 4316.57142857143  " stroke-width="2.57142857142857" stroke="#797979" fill="none" />
</svg>