<?xml version="1.0" encoding="utf-8"?>
<svg version="1.1" xmlns:xlink="http://www.w3.org/1999/xlink" width="12px" height="12px" viewBox="446 4273  12 12" xmlns="http://www.w3.org/2000/svg">
  <path d="M 446.5 4275  A 1.5 1.5 0 0 1 448 4273.5 L 456 4273.5  A 1.5 1.5 0 0 1 457.5 4275 L 457.5 4283  A 1.5 1.5 0 0 1 456 4284.5 L 448 4284.5  A 1.5 1.5 0 0 1 446.5 4283 L 446.5 4275  Z " fill-rule="nonzero" fill="#f0f0f0" stroke="none" />
  <path d="M 446.5 4275  A 1.5 1.5 0 0 1 448 4273.5 L 456 4273.5  A 1.5 1.5 0 0 1 457.5 4275 L 457.5 4283  A 1.5 1.5 0 0 1 456 4284.5 L 448 4284.5  A 1.5 1.5 0 0 1 446.5 4283 L 446.5 4275  Z " stroke-width="1" stroke="#797979" fill="none" />
  <path d="M 448.571428571429 4279  L 451.142857142857 4281.57142857143  " stroke-width="2.57142857142857" stroke="#797979" fill="none" />
  <path d="M 451.142857142857 4281.57142857143  L 455.428571428571 4275.57142857143  " stroke-width="2.57142857142857" stroke="#797979" fill="none" />
</svg>