<?xml version="1.0" encoding="utf-8"?>
<svg version="1.1" xmlns:xlink="http://www.w3.org/1999/xlink" width="12px" height="12px" viewBox="846 4316.5  12 12" xmlns="http://www.w3.org/2000/svg">
  <path d="M 852 4316.5  C 855.36 4316.5  858 4319.14  858 4322.5  C 858 4325.86  855.36 4328.5  852 4328.5  C 848.64 4328.5  846 4325.86  846 4322.5  C 846 4319.14  848.64 4316.5  852 4316.5  Z " fill-rule="nonzero" fill="#f0f0f0" stroke="none" />
  <path d="M 852 4317  C 855.08 4317  857.5 4319.42  857.5 4322.5  C 857.5 4325.58  855.08 4328  852 4328  C 848.92 4328  846.5 4325.58  846.5 4322.5  C 846.5 4319.42  848.92 4317  852 4317  Z " stroke-width="1" stroke="#797979" fill="none" />
  <path d="M 852 4325.5  C 850.32 4325.5  849 4324.18  849 4322.5  C 849 4320.82  850.32 4319.5  852 4319.5  C 853.68 4319.5  855 4320.82  855 4322.5  C 855 4324.18  853.68 4325.5  852 4325.5  " fill-rule="nonzero" fill="#797979" stroke="none" />
</svg>