<?xml version="1.0" encoding="utf-8"?>
<svg version="1.1" xmlns:xlink="http://www.w3.org/1999/xlink" width="12px" height="12px" viewBox="846 4401.5  12 12" xmlns="http://www.w3.org/2000/svg">
  <path d="M 852 4401.5  C 855.36 4401.5  858 4404.14  858 4407.5  C 858 4410.86  855.36 4413.5  852 4413.5  C 848.64 4413.5  846 4410.86  846 4407.5  C 846 4404.14  848.64 4401.5  852 4401.5  Z " fill-rule="nonzero" fill="#f2f2f2" stroke="none" />
  <path d="M 852 4402  C 855.08 4402  857.5 4404.42  857.5 4407.5  C 857.5 4410.58  855.08 4413  852 4413  C 848.92 4413  846.5 4410.58  846.5 4407.5  C 846.5 4404.42  848.92 4402  852 4402  Z " stroke-width="1" stroke="#797979" fill="none" />
  <path d="M 852 4410.5  C 850.32 4410.5  849 4409.18  849 4407.5  C 849 4405.82  850.32 4404.5  852 4404.5  C 853.68 4404.5  855 4405.82  855 4407.5  C 855 4409.18  853.68 4410.5  852 4410.5  " fill-rule="nonzero" fill="#797979" stroke="none" />
</svg>