<?xml version="1.0" encoding="utf-8"?>
<svg version="1.1" xmlns:xlink="http://www.w3.org/1999/xlink" width="12px" height="12px" viewBox="800 4442.5  12 12" xmlns="http://www.w3.org/2000/svg">
  <path d="M 806 4442.5  C 809.36 4442.5  812 4445.14  812 4448.5  C 812 4451.86  809.36 4454.5  806 4454.5  C 802.64 4454.5  800 4451.86  800 4448.5  C 800 4445.14  802.64 4442.5  806 4442.5  Z " fill-rule="nonzero" fill="#ffffff" stroke="none" fill-opacity="0" />
  <path d="M 806 4443  C 809.08 4443  811.5 4445.42  811.5 4448.5  C 811.5 4451.58  809.08 4454  806 4454  C 802.92 4454  800.5 4451.58  800.5 4448.5  C 800.5 4445.42  802.92 4443  806 4443  Z " stroke-width="1" stroke="#797979" fill="none" />
  <path d="M 806 4451.5  C 804.32 4451.5  803 4450.18  803 4448.5  C 803 4446.82  804.32 4445.5  806 4445.5  C 807.68 4445.5  809 4446.82  809 4448.5  C 809 4450.18  807.68 4451.5  806 4451.5  " fill-rule="nonzero" fill="#797979" stroke="none" />
</svg>