<?xml version="1.0" encoding="utf-8"?>
<svg version="1.1" xmlns:xlink="http://www.w3.org/1999/xlink" width="12px" height="12px" viewBox="799 4483.5  12 12" xmlns="http://www.w3.org/2000/svg">
  <path d="M 805 4483.5  C 808.36 4483.5  811 4486.14  811 4489.5  C 811 4492.86  808.36 4495.5  805 4495.5  C 801.64 4495.5  799 4492.86  799 4489.5  C 799 4486.14  801.64 4483.5  805 4483.5  Z " fill-rule="nonzero" fill="#f0f0f0" stroke="none" />
  <path d="M 805 4484  C 808.08 4484  810.5 4486.42  810.5 4489.5  C 810.5 4492.58  808.08 4495  805 4495  C 801.92 4495  799.5 4492.58  799.5 4489.5  C 799.5 4486.42  801.92 4484  805 4484  Z " stroke-width="1" stroke="#797979" fill="none" />
  <path d="M 805 4492.5  C 803.32 4492.5  802 4491.18  802 4489.5  C 802 4487.82  803.32 4486.5  805 4486.5  C 806.68 4486.5  808 4487.82  808 4489.5  C 808 4491.18  806.68 4492.5  805 4492.5  " fill-rule="nonzero" fill="#797979" stroke="none" />
</svg>