<?xml version="1.0" encoding="utf-8"?>
<svg version="1.1" xmlns:xlink="http://www.w3.org/1999/xlink" width="12px" height="12px" viewBox="445 4399  12 12" xmlns="http://www.w3.org/2000/svg">
  <path d="M 445.5 4401  A 1.5 1.5 0 0 1 447 4399.5 L 455 4399.5  A 1.5 1.5 0 0 1 456.5 4401 L 456.5 4409  A 1.5 1.5 0 0 1 455 4410.5 L 447 4410.5  A 1.5 1.5 0 0 1 445.5 4409 L 445.5 4401  Z " fill-rule="nonzero" fill="#f0f0f0" stroke="none" />
  <path d="M 445.5 4401  A 1.5 1.5 0 0 1 447 4399.5 L 455 4399.5  A 1.5 1.5 0 0 1 456.5 4401 L 456.5 4409  A 1.5 1.5 0 0 1 455 4410.5 L 447 4410.5  A 1.5 1.5 0 0 1 445.5 4409 L 445.5 4401  Z " stroke-width="1" stroke="#797979" fill="none" />
</svg>