<?xml version="1.0" encoding="utf-8"?>
<svg version="1.1" xmlns:xlink="http://www.w3.org/1999/xlink" width="12px" height="12px" viewBox="800 2233.5  12 12" xmlns="http://www.w3.org/2000/svg">
  <path d="M 806 2233.5  C 809.36 2233.5  812 2236.14  812 2239.5  C 812 2242.86  809.36 2245.5  806 2245.5  C 802.64 2245.5  800 2242.86  800 2239.5  C 800 2236.14  802.64 2233.5  806 2233.5  Z " fill-rule="nonzero" fill="#ffffff" stroke="none" fill-opacity="0" />
  <path d="M 806 2234  C 809.08 2234  811.5 2236.42  811.5 2239.5  C 811.5 2242.58  809.08 2245  806 2245  C 802.92 2245  800.5 2242.58  800.5 2239.5  C 800.5 2236.42  802.92 2234  806 2234  Z " stroke-width="1" stroke="#797979" fill="none" />
  <path d="M 806 2242.5  C 804.32 2242.5  803 2241.18  803 2239.5  C 803 2237.82  804.32 2236.5  806 2236.5  C 807.68 2236.5  809 2237.82  809 2239.5  C 809 2241.18  807.68 2242.5  806 2242.5  " fill-rule="nonzero" fill="#797979" stroke="none" />
</svg>