<?xml version="1.0" encoding="utf-8"?>
<svg version="1.1" xmlns:xlink="http://www.w3.org/1999/xlink" width="12px" height="12px" viewBox="846 4483.5  12 12" xmlns="http://www.w3.org/2000/svg">
  <path d="M 852 4483.5  C 855.36 4483.5  858 4486.14  858 4489.5  C 858 4492.86  855.36 4495.5  852 4495.5  C 848.64 4495.5  846 4492.86  846 4489.5  C 846 4486.14  848.64 4483.5  852 4483.5  Z " fill-rule="nonzero" fill="#ffffff" stroke="none" fill-opacity="0" />
  <path d="M 852 4484  C 855.08 4484  857.5 4486.42  857.5 4489.5  C 857.5 4492.58  855.08 4495  852 4495  C 848.92 4495  846.5 4492.58  846.5 4489.5  C 846.5 4486.42  848.92 4484  852 4484  Z " stroke-width="1" stroke="#797979" fill="none" />
  <path d="M 852 4492.5  C 850.32 4492.5  849 4491.18  849 4489.5  C 849 4487.82  850.32 4486.5  852 4486.5  C 853.68 4486.5  855 4487.82  855 4489.5  C 855 4491.18  853.68 4492.5  852 4492.5  " fill-rule="nonzero" fill="#797979" stroke="none" />
</svg>