<?xml version="1.0" encoding="utf-8"?>
<svg version="1.1" xmlns:xlink="http://www.w3.org/1999/xlink" width="12px" height="12px" viewBox="800 2270.5  12 12" xmlns="http://www.w3.org/2000/svg">
  <path d="M 806 2270.5  C 809.36 2270.5  812 2273.14  812 2276.5  C 812 2279.86  809.36 2282.5  806 2282.5  C 802.64 2282.5  800 2279.86  800 2276.5  C 800 2273.14  802.64 2270.5  806 2270.5  Z " fill-rule="nonzero" fill="#d7d7d7" stroke="none" />
  <path d="M 806 2271  C 809.08 2271  811.5 2273.42  811.5 2276.5  C 811.5 2279.58  809.08 2282  806 2282  C 802.92 2282  800.5 2279.58  800.5 2276.5  C 800.5 2273.42  802.92 2271  806 2271  Z " stroke-width="1" stroke="#797979" fill="none" />
  <path d="M 806 2279.5  C 804.32 2279.5  803 2278.18  803 2276.5  C 803 2274.82  804.32 2273.5  806 2273.5  C 807.68 2273.5  809 2274.82  809 2276.5  C 809 2278.18  807.68 2279.5  806 2279.5  " fill-rule="nonzero" fill="#797979" stroke="none" />
</svg>