<?xml version="1.0" encoding="utf-8"?>
<svg version="1.1" xmlns:xlink="http://www.w3.org/1999/xlink" width="12px" height="12px" viewBox="800 2349.5  12 12" xmlns="http://www.w3.org/2000/svg">
  <path d="M 806 2349.5  C 809.36 2349.5  812 2352.14  812 2355.5  C 812 2358.86  809.36 2361.5  806 2361.5  C 802.64 2361.5  800 2358.86  800 2355.5  C 800 2352.14  802.64 2349.5  806 2349.5  Z " fill-rule="nonzero" fill="#f0f0f0" stroke="none" />
  <path d="M 806 2350  C 809.08 2350  811.5 2352.42  811.5 2355.5  C 811.5 2358.58  809.08 2361  806 2361  C 802.92 2361  800.5 2358.58  800.5 2355.5  C 800.5 2352.42  802.92 2350  806 2350  Z " stroke-width="1" stroke="#797979" fill="none" />
  <path d="M 806 2358.5  C 804.32 2358.5  803 2357.18  803 2355.5  C 803 2353.82  804.32 2352.5  806 2352.5  C 807.68 2352.5  809 2353.82  809 2355.5  C 809 2357.18  807.68 2358.5  806 2358.5  " fill-rule="nonzero" fill="#797979" stroke="none" />
</svg>