<?xml version="1.0" encoding="utf-8"?>
<svg version="1.1" xmlns:xlink="http://www.w3.org/1999/xlink" width="12px" height="12px" viewBox="446 2231  12 12" xmlns="http://www.w3.org/2000/svg">
  <path d="M 446.5 2233  A 1.5 1.5 0 0 1 448 2231.5 L 456 2231.5  A 1.5 1.5 0 0 1 457.5 2233 L 457.5 2241  A 1.5 1.5 0 0 1 456 2242.5 L 448 2242.5  A 1.5 1.5 0 0 1 446.5 2241 L 446.5 2233  Z " fill-rule="nonzero" fill="#ffffff" stroke="none" />
  <path d="M 446.5 2233  A 1.5 1.5 0 0 1 448 2231.5 L 456 2231.5  A 1.5 1.5 0 0 1 457.5 2233 L 457.5 2241  A 1.5 1.5 0 0 1 456 2242.5 L 448 2242.5  A 1.5 1.5 0 0 1 446.5 2241 L 446.5 2233  Z " stroke-width="1" stroke="#797979" fill="none" />
</svg>