<?xml version="1.0" encoding="utf-8"?>
<svg version="1.1" xmlns:xlink="http://www.w3.org/1999/xlink" width="12px" height="12px" viewBox="801 2390.5  12 12" xmlns="http://www.w3.org/2000/svg">
  <path d="M 807 2390.5  C 810.36 2390.5  813 2393.14  813 2396.5  C 813 2399.86  810.36 2402.5  807 2402.5  C 803.64 2402.5  801 2399.86  801 2396.5  C 801 2393.14  803.64 2390.5  807 2390.5  Z " fill-rule="nonzero" fill="#ffffff" stroke="none" fill-opacity="0" />
  <path d="M 807 2391  C 810.08 2391  812.5 2393.42  812.5 2396.5  C 812.5 2399.58  810.08 2402  807 2402  C 803.92 2402  801.5 2399.58  801.5 2396.5  C 801.5 2393.42  803.92 2391  807 2391  Z " stroke-width="1" stroke="#797979" fill="none" />
  <path d="M 807 2399.5  C 805.32 2399.5  804 2398.18  804 2396.5  C 804 2394.82  805.32 2393.5  807 2393.5  C 808.68 2393.5  810 2394.82  810 2396.5  C 810 2398.18  808.68 2399.5  807 2399.5  " fill-rule="nonzero" fill="#797979" stroke="none" />
</svg>