<?xml version="1.0" encoding="utf-8"?>
<svg version="1.1" xmlns:xlink="http://www.w3.org/1999/xlink" width="12px" height="12px" viewBox="847 2270.5  12 12" xmlns="http://www.w3.org/2000/svg">
  <path d="M 853 2270.5  C 856.36 2270.5  859 2273.14  859 2276.5  C 859 2279.86  856.36 2282.5  853 2282.5  C 849.64 2282.5  847 2279.86  847 2276.5  C 847 2273.14  849.64 2270.5  853 2270.5  Z " fill-rule="nonzero" fill="#f0f0f0" stroke="none" />
  <path d="M 853 2271  C 856.08 2271  858.5 2273.42  858.5 2276.5  C 858.5 2279.58  856.08 2282  853 2282  C 849.92 2282  847.5 2279.58  847.5 2276.5  C 847.5 2273.42  849.92 2271  853 2271  Z " stroke-width="1" stroke="#797979" fill="none" />
  <path d="M 853 2279.5  C 851.32 2279.5  850 2278.18  850 2276.5  C 850 2274.82  851.32 2273.5  853 2273.5  C 854.68 2273.5  856 2274.82  856 2276.5  C 856 2278.18  854.68 2279.5  853 2279.5  " fill-rule="nonzero" fill="#797979" stroke="none" />
</svg>