<?xml version="1.0" encoding="utf-8"?>
<svg version="1.1" xmlns:xlink="http://www.w3.org/1999/xlink" width="12px" height="12px" viewBox="447 2388  12 12" xmlns="http://www.w3.org/2000/svg">
  <path d="M 447.5 2390  A 1.5 1.5 0 0 1 449 2388.5 L 457 2388.5  A 1.5 1.5 0 0 1 458.5 2390 L 458.5 2398  A 1.5 1.5 0 0 1 457 2399.5 L 449 2399.5  A 1.5 1.5 0 0 1 447.5 2398 L 447.5 2390  Z " fill-rule="nonzero" fill="#f0f0f0" stroke="none" />
  <path d="M 447.5 2390  A 1.5 1.5 0 0 1 449 2388.5 L 457 2388.5  A 1.5 1.5 0 0 1 458.5 2390 L 458.5 2398  A 1.5 1.5 0 0 1 457 2399.5 L 449 2399.5  A 1.5 1.5 0 0 1 447.5 2398 L 447.5 2390  Z " stroke-width="1" stroke="#797979" fill="none" />
</svg>