<?xml version="1.0" encoding="utf-8"?>
<svg version="1.1" xmlns:xlink="http://www.w3.org/1999/xlink" width="12px" height="12px" viewBox="446 2429  12 12" xmlns="http://www.w3.org/2000/svg">
  <path d="M 446.5 2431  A 1.5 1.5 0 0 1 448 2429.5 L 456 2429.5  A 1.5 1.5 0 0 1 457.5 2431 L 457.5 2439  A 1.5 1.5 0 0 1 456 2440.5 L 448 2440.5  A 1.5 1.5 0 0 1 446.5 2439 L 446.5 2431  Z " fill-rule="nonzero" fill="#ffffff" stroke="none" />
  <path d="M 446.5 2431  A 1.5 1.5 0 0 1 448 2429.5 L 456 2429.5  A 1.5 1.5 0 0 1 457.5 2431 L 457.5 2439  A 1.5 1.5 0 0 1 456 2440.5 L 448 2440.5  A 1.5 1.5 0 0 1 446.5 2439 L 446.5 2431  Z " stroke-width="1" stroke="#797979" fill="none" />
</svg>