<?xml version="1.0" encoding="utf-8"?>
<svg version="1.1" xmlns:xlink="http://www.w3.org/1999/xlink" width="12px" height="12px" viewBox="447 2555  12 12" xmlns="http://www.w3.org/2000/svg">
  <path d="M 447.5 2557  A 1.5 1.5 0 0 1 449 2555.5 L 457 2555.5  A 1.5 1.5 0 0 1 458.5 2557 L 458.5 2565  A 1.5 1.5 0 0 1 457 2566.5 L 449 2566.5  A 1.5 1.5 0 0 1 447.5 2565 L 447.5 2557  Z " fill-rule="nonzero" fill="#ffffff" stroke="none" fill-opacity="0" />
  <path d="M 447.5 2557  A 1.5 1.5 0 0 1 449 2555.5 L 457 2555.5  A 1.5 1.5 0 0 1 458.5 2557 L 458.5 2565  A 1.5 1.5 0 0 1 457 2566.5 L 449 2566.5  A 1.5 1.5 0 0 1 447.5 2565 L 447.5 2557  Z " stroke-width="1" stroke="#797979" fill="none" />
</svg>