<?xml version="1.0" encoding="utf-8"?>
<svg version="1.1" xmlns:xlink="http://www.w3.org/1999/xlink" width="12px" height="12px" viewBox="847 2431.5  12 12" xmlns="http://www.w3.org/2000/svg">
  <path d="M 853 2431.5  C 856.36 2431.5  859 2434.14  859 2437.5  C 859 2440.86  856.36 2443.5  853 2443.5  C 849.64 2443.5  847 2440.86  847 2437.5  C 847 2434.14  849.64 2431.5  853 2431.5  Z " fill-rule="nonzero" fill="#f0f0f0" stroke="none" />
  <path d="M 853 2432  C 856.08 2432  858.5 2434.42  858.5 2437.5  C 858.5 2440.58  856.08 2443  853 2443  C 849.92 2443  847.5 2440.58  847.5 2437.5  C 847.5 2434.42  849.92 2432  853 2432  Z " stroke-width="1" stroke="#797979" fill="none" />
  <path d="M 853 2440.5  C 851.32 2440.5  850 2439.18  850 2437.5  C 850 2435.82  851.32 2434.5  853 2434.5  C 854.68 2434.5  856 2435.82  856 2437.5  C 856 2439.18  854.68 2440.5  853 2440.5  " fill-rule="nonzero" fill="#797979" stroke="none" />
</svg>