<?xml version="1.0" encoding="utf-8"?>
<svg version="1.1" xmlns:xlink="http://www.w3.org/1999/xlink" width="12px" height="12px" viewBox="446 2596  12 12" xmlns="http://www.w3.org/2000/svg">
  <path d="M 446.5 2598  A 1.5 1.5 0 0 1 448 2596.5 L 456 2596.5  A 1.5 1.5 0 0 1 457.5 2598 L 457.5 2606  A 1.5 1.5 0 0 1 456 2607.5 L 448 2607.5  A 1.5 1.5 0 0 1 446.5 2606 L 446.5 2598  Z " fill-rule="nonzero" fill="#f0f0f0" stroke="none" />
  <path d="M 446.5 2598  A 1.5 1.5 0 0 1 448 2596.5 L 456 2596.5  A 1.5 1.5 0 0 1 457.5 2598 L 457.5 2606  A 1.5 1.5 0 0 1 456 2607.5 L 448 2607.5  A 1.5 1.5 0 0 1 446.5 2606 L 446.5 2598  Z " stroke-width="1" stroke="#797979" fill="none" />
  <path d="M 448.571428571429 2602  L 451.142857142857 2604.57142857143  " stroke-width="2.57142857142857" stroke="#797979" fill="none" />
  <path d="M 451.142857142857 2604.57142857143  L 455.428571428571 2598.57142857143  " stroke-width="2.57142857142857" stroke="#797979" fill="none" />
</svg>