<?xml version="1.0" encoding="utf-8"?>
<svg version="1.1" xmlns:xlink="http://www.w3.org/1999/xlink" width="12px" height="12px" viewBox="800 2516.5  12 12" xmlns="http://www.w3.org/2000/svg">
  <path d="M 806 2516.5  C 809.36 2516.5  812 2519.14  812 2522.5  C 812 2525.86  809.36 2528.5  806 2528.5  C 802.64 2528.5  800 2525.86  800 2522.5  C 800 2519.14  802.64 2516.5  806 2516.5  Z " fill-rule="nonzero" fill="#f0f0f0" stroke="none" />
  <path d="M 806 2517  C 809.08 2517  811.5 2519.42  811.5 2522.5  C 811.5 2525.58  809.08 2528  806 2528  C 802.92 2528  800.5 2525.58  800.5 2522.5  C 800.5 2519.42  802.92 2517  806 2517  Z " stroke-width="1" stroke="#797979" fill="none" />
  <path d="M 806 2525.5  C 804.32 2525.5  803 2524.18  803 2522.5  C 803 2520.82  804.32 2519.5  806 2519.5  C 807.68 2519.5  809 2520.82  809 2522.5  C 809 2524.18  807.68 2525.5  806 2525.5  " fill-rule="nonzero" fill="#797979" stroke="none" />
</svg>