<?xml version="1.0" encoding="utf-8"?>
<svg version="1.1" xmlns:xlink="http://www.w3.org/1999/xlink" width="12px" height="12px" viewBox="847 2516.5  12 12" xmlns="http://www.w3.org/2000/svg">
  <path d="M 853 2516.5  C 856.36 2516.5  859 2519.14  859 2522.5  C 859 2525.86  856.36 2528.5  853 2528.5  C 849.64 2528.5  847 2525.86  847 2522.5  C 847 2519.14  849.64 2516.5  853 2516.5  Z " fill-rule="nonzero" fill="#f0f0f0" stroke="none" />
  <path d="M 853 2517  C 856.08 2517  858.5 2519.42  858.5 2522.5  C 858.5 2525.58  856.08 2528  853 2528  C 849.92 2528  847.5 2525.58  847.5 2522.5  C 847.5 2519.42  849.92 2517  853 2517  Z " stroke-width="1" stroke="#797979" fill="none" />
  <path d="M 853 2525.5  C 851.32 2525.5  850 2524.18  850 2522.5  C 850 2520.82  851.32 2519.5  853 2519.5  C 854.68 2519.5  856 2520.82  856 2522.5  C 856 2524.18  854.68 2525.5  853 2525.5  " fill-rule="nonzero" fill="#797979" stroke="none" />
</svg>