<?xml version="1.0" encoding="utf-8"?>
<svg version="1.1" xmlns:xlink="http://www.w3.org/1999/xlink" width="12px" height="12px" viewBox="848 2557.5  12 12" xmlns="http://www.w3.org/2000/svg">
  <path d="M 854 2557.5  C 857.36 2557.5  860 2560.14  860 2563.5  C 860 2566.86  857.36 2569.5  854 2569.5  C 850.64 2569.5  848 2566.86  848 2563.5  C 848 2560.14  850.64 2557.5  854 2557.5  Z " fill-rule="nonzero" fill="#f0f0f0" stroke="none" />
  <path d="M 854 2558  C 857.08 2558  859.5 2560.42  859.5 2563.5  C 859.5 2566.58  857.08 2569  854 2569  C 850.92 2569  848.5 2566.58  848.5 2563.5  C 848.5 2560.42  850.92 2558  854 2558  Z " stroke-width="1" stroke="#797979" fill="none" />
  <path d="M 854 2566.5  C 852.32 2566.5  851 2565.18  851 2563.5  C 851 2561.82  852.32 2560.5  854 2560.5  C 855.68 2560.5  857 2561.82  857 2563.5  C 857 2565.18  855.68 2566.5  854 2566.5  " fill-rule="nonzero" fill="#797979" stroke="none" />
</svg>