<?xml version="1.0" encoding="utf-8"?>
<svg version="1.1" xmlns:xlink="http://www.w3.org/1999/xlink" width="12px" height="12px" viewBox="847 2598.5  12 12" xmlns="http://www.w3.org/2000/svg">
  <path d="M 853 2598.5  C 856.36 2598.5  859 2601.14  859 2604.5  C 859 2607.86  856.36 2610.5  853 2610.5  C 849.64 2610.5  847 2607.86  847 2604.5  C 847 2601.14  849.64 2598.5  853 2598.5  Z " fill-rule="nonzero" fill="#ffffff" stroke="none" fill-opacity="0" />
  <path d="M 853 2599  C 856.08 2599  858.5 2601.42  858.5 2604.5  C 858.5 2607.58  856.08 2610  853 2610  C 849.92 2610  847.5 2607.58  847.5 2604.5  C 847.5 2601.42  849.92 2599  853 2599  Z " stroke-width="1" stroke="#797979" fill="none" />
  <path d="M 853 2607.5  C 851.32 2607.5  850 2606.18  850 2604.5  C 850 2602.82  851.32 2601.5  853 2601.5  C 854.68 2601.5  856 2602.82  856 2604.5  C 856 2606.18  854.68 2607.5  853 2607.5  " fill-rule="nonzero" fill="#797979" stroke="none" />
</svg>