<?xml version="1.0" encoding="utf-8"?>
<svg version="1.1" xmlns:xlink="http://www.w3.org/1999/xlink" width="40px" height="50px" xmlns="http://www.w3.org/2000/svg">
  <defs>
    <filter x="2969px" y="155px" width="40px" height="50px" filterUnits="userSpaceOnUse" id="filter498">
      <feOffset dx="1" dy="1" in="SourceAlpha" result="shadowOffsetInner" />
      <feGaussianBlur stdDeviation="2.5" in="shadowOffsetInner" result="shadowGaussian" />
      <feComposite in2="shadowGaussian" operator="atop" in="SourceAlpha" result="shadowComposite" />
      <feColorMatrix type="matrix" values="0 0 0 0 0  0 0 0 0 0  0 0 0 0 0  0 0 0 0.698039215686274 0  " in="shadowComposite" />
    </filter>
    <g id="widget499">
      <path d="M 2988 198.036928468354  C 2982.2 188.40734059591  2973.5 182.629587872444  2973.5 173  C 2973.5 167.985714285714  2976.4 159.5  2988 159.5  C 2999.6 159.5  3002.5 167.985714285714  3002.5 173  C 3002.5 182.629587872444  2993.8 188.40734059591  2988 198.036928468354  Z " fill-rule="nonzero" fill="#ffff00" stroke="none" />
      <path d="M 2988 199  C 2982 189  2973 183  2973 173  C 2973 167.8  2976 159  2988 159  C 3000 159  3003 167.8  3003 173  C 3003 183  2994 189  2988 199  Z M 2988 197.073856936707  C 2993.6 187.81468119182  3002 182.259175744887  3002 173  C 3002 168.171428571429  2999.2 160  2988 160  C 2976.8 160  2974 168.171428571429  2974 173  C 2974 182.259175744887  2982.4 187.81468119182  2988 197.073856936707  Z " fill-rule="nonzero" fill="#ffffff" stroke="none" />
    </g>
  </defs>
  <g transform="matrix(1 0 0 1 -2969 -155 )">
    <use xlink:href="#widget499" filter="url(#filter498)" />
    <use xlink:href="#widget499" />
  </g>
</svg>