<?xml version="1.0" encoding="utf-8"?>
<svg version="1.1" xmlns:xlink="http://www.w3.org/1999/xlink" width="12px" height="12px" viewBox="1851 311  12 12" xmlns="http://www.w3.org/2000/svg">
  <path d="M 1851.5 313  A 1.5 1.5 0 0 1 1853 311.5 L 1861 311.5  A 1.5 1.5 0 0 1 1862.5 313 L 1862.5 321  A 1.5 1.5 0 0 1 1861 322.5 L 1853 322.5  A 1.5 1.5 0 0 1 1851.5 321 L 1851.5 313  Z " fill-rule="nonzero" fill="#f0f0f0" stroke="none" />
  <path d="M 1851.5 313  A 1.5 1.5 0 0 1 1853 311.5 L 1861 311.5  A 1.5 1.5 0 0 1 1862.5 313 L 1862.5 321  A 1.5 1.5 0 0 1 1861 322.5 L 1853 322.5  A 1.5 1.5 0 0 1 1851.5 321 L 1851.5 313  Z " stroke-width="1" stroke="#797979" fill="none" />
  <path d="M 1853.57142857143 317  L 1856.14285714286 319.571428571429  " stroke-width="2.57142857142857" stroke="#797979" fill="none" />
  <path d="M 1856.14285714286 319.571428571429  L 1860.42857142857 313.571428571429  " stroke-width="2.57142857142857" stroke="#797979" fill="none" />
</svg>