<?xml version="1.0" encoding="utf-8"?>
<svg version="1.1" xmlns:xlink="http://www.w3.org/1999/xlink" width="12px" height="12px" viewBox="1851 373  12 12" xmlns="http://www.w3.org/2000/svg">
  <path d="M 1851.5 375  A 1.5 1.5 0 0 1 1853 373.5 L 1861 373.5  A 1.5 1.5 0 0 1 1862.5 375 L 1862.5 383  A 1.5 1.5 0 0 1 1861 384.5 L 1853 384.5  A 1.5 1.5 0 0 1 1851.5 383 L 1851.5 375  Z " fill-rule="nonzero" fill="#ffffff" stroke="none" />
  <path d="M 1851.5 375  A 1.5 1.5 0 0 1 1853 373.5 L 1861 373.5  A 1.5 1.5 0 0 1 1862.5 375 L 1862.5 383  A 1.5 1.5 0 0 1 1861 384.5 L 1853 384.5  A 1.5 1.5 0 0 1 1851.5 383 L 1851.5 375  Z " stroke-width="1" stroke="#797979" fill="none" />
</svg>