<?xml version="1.0" encoding="utf-8"?>
<svg version="1.1" xmlns:xlink="http://www.w3.org/1999/xlink" width="12px" height="12px" viewBox="363 218  12 12" xmlns="http://www.w3.org/2000/svg">
  <path d="M 363.5 220  A 1.5 1.5 0 0 1 365 218.5 L 373 218.5  A 1.5 1.5 0 0 1 374.5 220 L 374.5 228  A 1.5 1.5 0 0 1 373 229.5 L 365 229.5  A 1.5 1.5 0 0 1 363.5 228 L 363.5 220  Z " fill-rule="nonzero" fill="#f0f0f0" stroke="none" />
  <path d="M 363.5 220  A 1.5 1.5 0 0 1 365 218.5 L 373 218.5  A 1.5 1.5 0 0 1 374.5 220 L 374.5 228  A 1.5 1.5 0 0 1 373 229.5 L 365 229.5  A 1.5 1.5 0 0 1 363.5 228 L 363.5 220  Z " stroke-width="1" stroke="#797979" fill="none" />
</svg>