<?xml version="1.0" encoding="utf-8"?>
<svg version="1.1" xmlns:xlink="http://www.w3.org/1999/xlink" width="12px" height="12px" viewBox="363 342  12 12" xmlns="http://www.w3.org/2000/svg">
  <path d="M 363.5 344  A 1.5 1.5 0 0 1 365 342.5 L 373 342.5  A 1.5 1.5 0 0 1 374.5 344 L 374.5 352  A 1.5 1.5 0 0 1 373 353.5 L 365 353.5  A 1.5 1.5 0 0 1 363.5 352 L 363.5 344  Z " fill-rule="nonzero" fill="#f0f0f0" stroke="none" />
  <path d="M 363.5 344  A 1.5 1.5 0 0 1 365 342.5 L 373 342.5  A 1.5 1.5 0 0 1 374.5 344 L 374.5 352  A 1.5 1.5 0 0 1 373 353.5 L 365 353.5  A 1.5 1.5 0 0 1 363.5 352 L 363.5 344  Z " stroke-width="1" stroke="#797979" fill="none" />
  <path d="M 365.571428571429 348  L 368.142857142857 350.571428571429  " stroke-width="2.57142857142857" stroke="#797979" fill="none" />
  <path d="M 368.142857142857 350.571428571429  L 372.428571428571 344.571428571429  " stroke-width="2.57142857142857" stroke="#797979" fill="none" />
</svg>