<?xml version="1.0" encoding="utf-8"?>
<svg version="1.1" xmlns:xlink="http://www.w3.org/1999/xlink" width="12px" height="12px" viewBox="363 466  12 12" xmlns="http://www.w3.org/2000/svg">
  <path d="M 363.5 468  A 1.5 1.5 0 0 1 365 466.5 L 373 466.5  A 1.5 1.5 0 0 1 374.5 468 L 374.5 476  A 1.5 1.5 0 0 1 373 477.5 L 365 477.5  A 1.5 1.5 0 0 1 363.5 476 L 363.5 468  Z " fill-rule="nonzero" fill="#ffffff" stroke="none" />
  <path d="M 363.5 468  A 1.5 1.5 0 0 1 365 466.5 L 373 466.5  A 1.5 1.5 0 0 1 374.5 468 L 374.5 476  A 1.5 1.5 0 0 1 373 477.5 L 365 477.5  A 1.5 1.5 0 0 1 363.5 476 L 363.5 468  Z " stroke-width="1" stroke="#797979" fill="none" />
  <path d="M 365.571428571429 472  L 368.142857142857 474.571428571429  " stroke-width="2.57142857142857" stroke="#797979" fill="none" />
  <path d="M 368.142857142857 474.571428571429  L 372.428571428571 468.571428571429  " stroke-width="2.57142857142857" stroke="#797979" fill="none" />
</svg>