<?xml version="1.0" encoding="utf-8"?>
<svg version="1.1" xmlns:xlink="http://www.w3.org/1999/xlink" width="12px" height="12px" viewBox="1851 404  12 12" xmlns="http://www.w3.org/2000/svg">
  <path d="M 1851.5 406  A 1.5 1.5 0 0 1 1853 404.5 L 1861 404.5  A 1.5 1.5 0 0 1 1862.5 406 L 1862.5 414  A 1.5 1.5 0 0 1 1861 415.5 L 1853 415.5  A 1.5 1.5 0 0 1 1851.5 414 L 1851.5 406  Z " fill-rule="nonzero" fill="#f0f0f0" stroke="none" />
  <path d="M 1851.5 406  A 1.5 1.5 0 0 1 1853 404.5 L 1861 404.5  A 1.5 1.5 0 0 1 1862.5 406 L 1862.5 414  A 1.5 1.5 0 0 1 1861 415.5 L 1853 415.5  A 1.5 1.5 0 0 1 1851.5 414 L 1851.5 406  Z " stroke-width="1" stroke="#797979" fill="none" />
</svg>