<?xml version="1.0" encoding="utf-8"?>
<svg version="1.1" xmlns:xlink="http://www.w3.org/1999/xlink" width="12px" height="12px" viewBox="1851 435  12 12" xmlns="http://www.w3.org/2000/svg">
  <path d="M 1851.5 437  A 1.5 1.5 0 0 1 1853 435.5 L 1861 435.5  A 1.5 1.5 0 0 1 1862.5 437 L 1862.5 445  A 1.5 1.5 0 0 1 1861 446.5 L 1853 446.5  A 1.5 1.5 0 0 1 1851.5 445 L 1851.5 437  Z " fill-rule="nonzero" fill="#f0f0f0" stroke="none" />
  <path d="M 1851.5 437  A 1.5 1.5 0 0 1 1853 435.5 L 1861 435.5  A 1.5 1.5 0 0 1 1862.5 437 L 1862.5 445  A 1.5 1.5 0 0 1 1861 446.5 L 1853 446.5  A 1.5 1.5 0 0 1 1851.5 445 L 1851.5 437  Z " stroke-width="1" stroke="#797979" fill="none" />
</svg>