<?xml version="1.0" encoding="utf-8"?>
<svg version="1.1" xmlns:xlink="http://www.w3.org/1999/xlink" width="12px" height="12px" viewBox="374 1664  12 12" xmlns="http://www.w3.org/2000/svg">
  <path d="M 374.5 1666  A 1.5 1.5 0 0 1 376 1664.5 L 384 1664.5  A 1.5 1.5 0 0 1 385.5 1666 L 385.5 1674  A 1.5 1.5 0 0 1 384 1675.5 L 376 1675.5  A 1.5 1.5 0 0 1 374.5 1674 L 374.5 1666  Z " fill-rule="nonzero" fill="#ffffff" stroke="none" />
  <path d="M 374.5 1666  A 1.5 1.5 0 0 1 376 1664.5 L 384 1664.5  A 1.5 1.5 0 0 1 385.5 1666 L 385.5 1674  A 1.5 1.5 0 0 1 384 1675.5 L 376 1675.5  A 1.5 1.5 0 0 1 374.5 1674 L 374.5 1666  Z " stroke-width="1" stroke="#7f7f7f" fill="none" />
</svg>