<?xml version="1.0" encoding="utf-8"?>
<svg version="1.1" xmlns:xlink="http://www.w3.org/1999/xlink" width="12px" height="12px" viewBox="665 1663  12 12" xmlns="http://www.w3.org/2000/svg">
  <path d="M 665.5 1665  A 1.5 1.5 0 0 1 667 1663.5 L 675 1663.5  A 1.5 1.5 0 0 1 676.5 1665 L 676.5 1673  A 1.5 1.5 0 0 1 675 1674.5 L 667 1674.5  A 1.5 1.5 0 0 1 665.5 1673 L 665.5 1665  Z " fill-rule="nonzero" fill="#ffffff" stroke="none" />
  <path d="M 665.5 1665  A 1.5 1.5 0 0 1 667 1663.5 L 675 1663.5  A 1.5 1.5 0 0 1 676.5 1665 L 676.5 1673  A 1.5 1.5 0 0 1 675 1674.5 L 667 1674.5  A 1.5 1.5 0 0 1 665.5 1673 L 665.5 1665  Z " stroke-width="1" stroke="#7f7f7f" fill="none" />
  <path d="M 667.571428571429 1669  L 670.142857142857 1671.57142857143  " stroke-width="2.57142857142857" stroke="#7f7f7f" fill="none" />
  <path d="M 670.142857142857 1671.57142857143  L 674.428571428571 1665.57142857143  " stroke-width="2.57142857142857" stroke="#7f7f7f" fill="none" />
</svg>