<?xml version="1.0" encoding="utf-8"?>
<svg version="1.1" xmlns:xlink="http://www.w3.org/1999/xlink" width="12px" height="12px" viewBox="374 1714  12 12" xmlns="http://www.w3.org/2000/svg">
  <path d="M 374.5 1716  A 1.5 1.5 0 0 1 376 1714.5 L 384 1714.5  A 1.5 1.5 0 0 1 385.5 1716 L 385.5 1724  A 1.5 1.5 0 0 1 384 1725.5 L 376 1725.5  A 1.5 1.5 0 0 1 374.5 1724 L 374.5 1716  Z " fill-rule="nonzero" fill="#f0f0f0" stroke="none" />
  <path d="M 374.5 1716  A 1.5 1.5 0 0 1 376 1714.5 L 384 1714.5  A 1.5 1.5 0 0 1 385.5 1716 L 385.5 1724  A 1.5 1.5 0 0 1 384 1725.5 L 376 1725.5  A 1.5 1.5 0 0 1 374.5 1724 L 374.5 1716  Z " stroke-width="1" stroke="#7f7f7f" fill="none" />
</svg>