<?xml version="1.0" encoding="utf-8"?>
<svg version="1.1" xmlns:xlink="http://www.w3.org/1999/xlink" width="12px" height="12px" viewBox="743 1663  12 12" xmlns="http://www.w3.org/2000/svg">
  <path d="M 743.5 1665  A 1.5 1.5 0 0 1 745 1663.5 L 753 1663.5  A 1.5 1.5 0 0 1 754.5 1665 L 754.5 1673  A 1.5 1.5 0 0 1 753 1674.5 L 745 1674.5  A 1.5 1.5 0 0 1 743.5 1673 L 743.5 1665  Z " fill-rule="nonzero" fill="#ffffff" stroke="none" />
  <path d="M 743.5 1665  A 1.5 1.5 0 0 1 745 1663.5 L 753 1663.5  A 1.5 1.5 0 0 1 754.5 1665 L 754.5 1673  A 1.5 1.5 0 0 1 753 1674.5 L 745 1674.5  A 1.5 1.5 0 0 1 743.5 1673 L 743.5 1665  Z " stroke-width="1" stroke="#7f7f7f" fill="none" />
</svg>