<?xml version="1.0" encoding="utf-8"?>
<svg version="1.1" xmlns:xlink="http://www.w3.org/1999/xlink" width="12px" height="12px" viewBox="376 1867  12 12" xmlns="http://www.w3.org/2000/svg">
  <path d="M 376.5 1869  A 1.5 1.5 0 0 1 378 1867.5 L 386 1867.5  A 1.5 1.5 0 0 1 387.5 1869 L 387.5 1877  A 1.5 1.5 0 0 1 386 1878.5 L 378 1878.5  A 1.5 1.5 0 0 1 376.5 1877 L 376.5 1869  Z " fill-rule="nonzero" fill="#f0f0f0" stroke="none" />
  <path d="M 376.5 1869  A 1.5 1.5 0 0 1 378 1867.5 L 386 1867.5  A 1.5 1.5 0 0 1 387.5 1869 L 387.5 1877  A 1.5 1.5 0 0 1 386 1878.5 L 378 1878.5  A 1.5 1.5 0 0 1 376.5 1877 L 376.5 1869  Z " stroke-width="1" stroke="#7f7f7f" fill="none" />
</svg>