<?xml version="1.0" encoding="utf-8"?>
<svg version="1.1" xmlns:xlink="http://www.w3.org/1999/xlink" width="12px" height="12px" viewBox="374 2165  12 12" xmlns="http://www.w3.org/2000/svg">
  <path d="M 374.5 2167  A 1.5 1.5 0 0 1 376 2165.5 L 384 2165.5  A 1.5 1.5 0 0 1 385.5 2167 L 385.5 2175  A 1.5 1.5 0 0 1 384 2176.5 L 376 2176.5  A 1.5 1.5 0 0 1 374.5 2175 L 374.5 2167  Z " fill-rule="nonzero" fill="#f0f0f0" stroke="none" />
  <path d="M 374.5 2167  A 1.5 1.5 0 0 1 376 2165.5 L 384 2165.5  A 1.5 1.5 0 0 1 385.5 2167 L 385.5 2175  A 1.5 1.5 0 0 1 384 2176.5 L 376 2176.5  A 1.5 1.5 0 0 1 374.5 2175 L 374.5 2167  Z " stroke-width="1" stroke="#7f7f7f" fill="none" />
  <path d="M 376.571428571429 2171  L 379.142857142857 2173.57142857143  " stroke-width="2.57142857142857" stroke="#7f7f7f" fill="none" />
  <path d="M 379.142857142857 2173.57142857143  L 383.428571428571 2167.57142857143  " stroke-width="2.57142857142857" stroke="#7f7f7f" fill="none" />
</svg>