<?xml version="1.0" encoding="utf-8"?>
<svg version="1.1" xmlns:xlink="http://www.w3.org/1999/xlink" width="12px" height="12px" viewBox="495 1934  12 12" xmlns="http://www.w3.org/2000/svg">
  <path d="M 495.5 1936  A 1.5 1.5 0 0 1 497 1934.5 L 505 1934.5  A 1.5 1.5 0 0 1 506.5 1936 L 506.5 1944  A 1.5 1.5 0 0 1 505 1945.5 L 497 1945.5  A 1.5 1.5 0 0 1 495.5 1944 L 495.5 1936  Z " fill-rule="nonzero" fill="#f0f0f0" stroke="none" />
  <path d="M 495.5 1936  A 1.5 1.5 0 0 1 497 1934.5 L 505 1934.5  A 1.5 1.5 0 0 1 506.5 1936 L 506.5 1944  A 1.5 1.5 0 0 1 505 1945.5 L 497 1945.5  A 1.5 1.5 0 0 1 495.5 1944 L 495.5 1936  Z " stroke-width="1" stroke="#7f7f7f" fill="none" />
  <path d="M 497.571428571429 1940  L 500.142857142857 1942.57142857143  " stroke-width="2.57142857142857" stroke="#7f7f7f" fill="none" />
  <path d="M 500.142857142857 1942.57142857143  L 504.428571428571 1936.57142857143  " stroke-width="2.57142857142857" stroke="#7f7f7f" fill="none" />
</svg>