<?xml version="1.0" encoding="utf-8"?>
<svg version="1.1" xmlns:xlink="http://www.w3.org/1999/xlink" width="12px" height="12px" viewBox="374 2121  12 12" xmlns="http://www.w3.org/2000/svg">
  <path d="M 374.5 2123  A 1.5 1.5 0 0 1 376 2121.5 L 384 2121.5  A 1.5 1.5 0 0 1 385.5 2123 L 385.5 2131  A 1.5 1.5 0 0 1 384 2132.5 L 376 2132.5  A 1.5 1.5 0 0 1 374.5 2131 L 374.5 2123  Z " fill-rule="nonzero" fill="#f0f0f0" stroke="none" />
  <path d="M 374.5 2123  A 1.5 1.5 0 0 1 376 2121.5 L 384 2121.5  A 1.5 1.5 0 0 1 385.5 2123 L 385.5 2131  A 1.5 1.5 0 0 1 384 2132.5 L 376 2132.5  A 1.5 1.5 0 0 1 374.5 2131 L 374.5 2123  Z " stroke-width="1" stroke="#7f7f7f" fill="none" />
</svg>