<?xml version="1.0" encoding="utf-8"?>
<svg version="1.1" xmlns:xlink="http://www.w3.org/1999/xlink" width="12px" height="12px" viewBox="256 1540  12 12" xmlns="http://www.w3.org/2000/svg">
  <path d="M 256.5 1542  A 1.5 1.5 0 0 1 258 1540.5 L 266 1540.5  A 1.5 1.5 0 0 1 267.5 1542 L 267.5 1550  A 1.5 1.5 0 0 1 266 1551.5 L 258 1551.5  A 1.5 1.5 0 0 1 256.5 1550 L 256.5 1542  Z " fill-rule="nonzero" fill="#f0f0f0" stroke="none" />
  <path d="M 256.5 1542  A 1.5 1.5 0 0 1 258 1540.5 L 266 1540.5  A 1.5 1.5 0 0 1 267.5 1542 L 267.5 1550  A 1.5 1.5 0 0 1 266 1551.5 L 258 1551.5  A 1.5 1.5 0 0 1 256.5 1550 L 256.5 1542  Z " stroke-width="1" stroke="#7f7f7f" fill="none" />
</svg>