<?xml version="1.0" encoding="utf-8"?>
<svg version="1.1" xmlns:xlink="http://www.w3.org/1999/xlink" width="12px" height="12px" viewBox="374 2253  12 12" xmlns="http://www.w3.org/2000/svg">
  <path d="M 374.5 2255  A 1.5 1.5 0 0 1 376 2253.5 L 384 2253.5  A 1.5 1.5 0 0 1 385.5 2255 L 385.5 2263  A 1.5 1.5 0 0 1 384 2264.5 L 376 2264.5  A 1.5 1.5 0 0 1 374.5 2263 L 374.5 2255  Z " fill-rule="nonzero" fill="#ffffff" stroke="none" />
  <path d="M 374.5 2255  A 1.5 1.5 0 0 1 376 2253.5 L 384 2253.5  A 1.5 1.5 0 0 1 385.5 2255 L 385.5 2263  A 1.5 1.5 0 0 1 384 2264.5 L 376 2264.5  A 1.5 1.5 0 0 1 374.5 2263 L 374.5 2255  Z " stroke-width="1" stroke="#7f7f7f" fill="none" />
  <path d="M 376.571428571429 2259  L 379.142857142857 2261.57142857143  " stroke-width="2.57142857142857" stroke="#7f7f7f" fill="none" />
  <path d="M 379.142857142857 2261.57142857143  L 383.428571428571 2255.57142857143  " stroke-width="2.57142857142857" stroke="#7f7f7f" fill="none" />
</svg>