<?xml version="1.0" encoding="utf-8"?>
<svg version="1.1" xmlns:xlink="http://www.w3.org/1999/xlink" width="12px" height="12px" viewBox="1695 250  12 12" xmlns="http://www.w3.org/2000/svg">
  <path d="M 1695.5 252  A 1.5 1.5 0 0 1 1697 250.5 L 1705 250.5  A 1.5 1.5 0 0 1 1706.5 252 L 1706.5 260  A 1.5 1.5 0 0 1 1705 261.5 L 1697 261.5  A 1.5 1.5 0 0 1 1695.5 260 L 1695.5 252  Z " fill-rule="nonzero" fill="#ffffff" stroke="none" />
  <path d="M 1695.5 252  A 1.5 1.5 0 0 1 1697 250.5 L 1705 250.5  A 1.5 1.5 0 0 1 1706.5 252 L 1706.5 260  A 1.5 1.5 0 0 1 1705 261.5 L 1697 261.5  A 1.5 1.5 0 0 1 1695.5 260 L 1695.5 252  Z " stroke-width="1" stroke="#797979" fill="none" />
</svg>