<?xml version="1.0" encoding="utf-8"?>
<svg version="1.1" xmlns:xlink="http://www.w3.org/1999/xlink" width="12px" height="12px" viewBox="355 348  12 12" xmlns="http://www.w3.org/2000/svg">
  <path d="M 355.5 350  A 1.5 1.5 0 0 1 357 348.5 L 365 348.5  A 1.5 1.5 0 0 1 366.5 350 L 366.5 358  A 1.5 1.5 0 0 1 365 359.5 L 357 359.5  A 1.5 1.5 0 0 1 355.5 358 L 355.5 350  Z " fill-rule="nonzero" fill="#f0f0f0" stroke="none" />
  <path d="M 355.5 350  A 1.5 1.5 0 0 1 357 348.5 L 365 348.5  A 1.5 1.5 0 0 1 366.5 350 L 366.5 358  A 1.5 1.5 0 0 1 365 359.5 L 357 359.5  A 1.5 1.5 0 0 1 355.5 358 L 355.5 350  Z " stroke-width="1" stroke="#797979" fill="none" />
</svg>