<?xml version="1.0" encoding="utf-8"?>
<svg version="1.1" xmlns:xlink="http://www.w3.org/1999/xlink" width="12px" height="12px" viewBox="190 288  12 12" xmlns="http://www.w3.org/2000/svg">
  <path d="M 190.5 290  A 1.5 1.5 0 0 1 192 288.5 L 200 288.5  A 1.5 1.5 0 0 1 201.5 290 L 201.5 298  A 1.5 1.5 0 0 1 200 299.5 L 192 299.5  A 1.5 1.5 0 0 1 190.5 298 L 190.5 290  Z " fill-rule="nonzero" fill="#ffffff" stroke="none" />
  <path d="M 190.5 290  A 1.5 1.5 0 0 1 192 288.5 L 200 288.5  A 1.5 1.5 0 0 1 201.5 290 L 201.5 298  A 1.5 1.5 0 0 1 200 299.5 L 192 299.5  A 1.5 1.5 0 0 1 190.5 298 L 190.5 290  Z " stroke-width="1" stroke="#797979" fill="none" />
  <path d="M 192.571428571429 294  L 195.142857142857 296.571428571429  " stroke-width="2.57142857142857" stroke="#797979" fill="none" />
  <path d="M 195.142857142857 296.571428571429  L 199.428571428571 290.571428571429  " stroke-width="2.57142857142857" stroke="#797979" fill="none" />
</svg>