<?xml version="1.0" encoding="utf-8"?>
<svg version="1.1" xmlns:xlink="http://www.w3.org/1999/xlink" width="12px" height="12px" viewBox="356 586  12 12" xmlns="http://www.w3.org/2000/svg">
  <path d="M 356.5 588  A 1.5 1.5 0 0 1 358 586.5 L 366 586.5  A 1.5 1.5 0 0 1 367.5 588 L 367.5 596  A 1.5 1.5 0 0 1 366 597.5 L 358 597.5  A 1.5 1.5 0 0 1 356.5 596 L 356.5 588  Z " fill-rule="nonzero" fill="#ffffff" stroke="none" />
  <path d="M 356.5 588  A 1.5 1.5 0 0 1 358 586.5 L 366 586.5  A 1.5 1.5 0 0 1 367.5 588 L 367.5 596  A 1.5 1.5 0 0 1 366 597.5 L 358 597.5  A 1.5 1.5 0 0 1 356.5 596 L 356.5 588  Z " stroke-width="1" stroke="#797979" fill="none" />
</svg>