<?xml version="1.0" encoding="utf-8"?>
<svg version="1.1" xmlns:xlink="http://www.w3.org/1999/xlink" width="12px" height="12px" viewBox="191 563  12 12" xmlns="http://www.w3.org/2000/svg">
  <path d="M 191.5 565  A 1.5 1.5 0 0 1 193 563.5 L 201 563.5  A 1.5 1.5 0 0 1 202.5 565 L 202.5 573  A 1.5 1.5 0 0 1 201 574.5 L 193 574.5  A 1.5 1.5 0 0 1 191.5 573 L 191.5 565  Z " fill-rule="nonzero" fill="#ffffff" stroke="none" />
  <path d="M 191.5 565  A 1.5 1.5 0 0 1 193 563.5 L 201 563.5  A 1.5 1.5 0 0 1 202.5 565 L 202.5 573  A 1.5 1.5 0 0 1 201 574.5 L 193 574.5  A 1.5 1.5 0 0 1 191.5 573 L 191.5 565  Z " stroke-width="1" stroke="#797979" fill="none" />
</svg>