<?xml version="1.0" encoding="utf-8"?>
<svg version="1.1" xmlns:xlink="http://www.w3.org/1999/xlink" width="12px" height="12px" viewBox="1500 1476  12 12" xmlns="http://www.w3.org/2000/svg">
  <path d="M 1500.5 1478  A 1.5 1.5 0 0 1 1502 1476.5 L 1510 1476.5  A 1.5 1.5 0 0 1 1511.5 1478 L 1511.5 1486  A 1.5 1.5 0 0 1 1510 1487.5 L 1502 1487.5  A 1.5 1.5 0 0 1 1500.5 1486 L 1500.5 1478  Z " fill-rule="nonzero" fill="#f0f0f0" stroke="none" />
  <path d="M 1500.5 1478  A 1.5 1.5 0 0 1 1502 1476.5 L 1510 1476.5  A 1.5 1.5 0 0 1 1511.5 1478 L 1511.5 1486  A 1.5 1.5 0 0 1 1510 1487.5 L 1502 1487.5  A 1.5 1.5 0 0 1 1500.5 1486 L 1500.5 1478  Z " stroke-width="1" stroke="#7f7f7f" fill="none" />
</svg>