<?xml version="1.0" encoding="utf-8"?>
<svg version="1.1" xmlns:xlink="http://www.w3.org/1999/xlink" width="12px" height="12px" viewBox="356 886  12 12" xmlns="http://www.w3.org/2000/svg">
  <path d="M 356.5 888  A 1.5 1.5 0 0 1 358 886.5 L 366 886.5  A 1.5 1.5 0 0 1 367.5 888 L 367.5 896  A 1.5 1.5 0 0 1 366 897.5 L 358 897.5  A 1.5 1.5 0 0 1 356.5 896 L 356.5 888  Z " fill-rule="nonzero" fill="#ffffff" stroke="none" />
  <path d="M 356.5 888  A 1.5 1.5 0 0 1 358 886.5 L 366 886.5  A 1.5 1.5 0 0 1 367.5 888 L 367.5 896  A 1.5 1.5 0 0 1 366 897.5 L 358 897.5  A 1.5 1.5 0 0 1 356.5 896 L 356.5 888  Z " stroke-width="1" stroke="#797979" fill="none" />
</svg>