<?xml version="1.0" encoding="utf-8"?>
<svg version="1.1" xmlns:xlink="http://www.w3.org/1999/xlink" width="12px" height="12px" viewBox="356 825  12 12" xmlns="http://www.w3.org/2000/svg">
  <path d="M 356.5 827  A 1.5 1.5 0 0 1 358 825.5 L 366 825.5  A 1.5 1.5 0 0 1 367.5 827 L 367.5 835  A 1.5 1.5 0 0 1 366 836.5 L 358 836.5  A 1.5 1.5 0 0 1 356.5 835 L 356.5 827  Z " fill-rule="nonzero" fill="#f0f0f0" stroke="none" />
  <path d="M 356.5 827  A 1.5 1.5 0 0 1 358 825.5 L 366 825.5  A 1.5 1.5 0 0 1 367.5 827 L 367.5 835  A 1.5 1.5 0 0 1 366 836.5 L 358 836.5  A 1.5 1.5 0 0 1 356.5 835 L 356.5 827  Z " stroke-width="1" stroke="#797979" fill="none" />
  <path d="M 358.571428571429 831  L 361.142857142857 833.571428571429  " stroke-width="2.57142857142857" stroke="#797979" fill="none" />
  <path d="M 361.142857142857 833.571428571429  L 365.428571428571 827.571428571429  " stroke-width="2.57142857142857" stroke="#797979" fill="none" />
</svg>