<?xml version="1.0" encoding="utf-8"?>
<svg version="1.1" xmlns:xlink="http://www.w3.org/1999/xlink" width="12px" height="12px" viewBox="356 769  12 12" xmlns="http://www.w3.org/2000/svg">
  <path d="M 356.5 771  A 1.5 1.5 0 0 1 358 769.5 L 366 769.5  A 1.5 1.5 0 0 1 367.5 771 L 367.5 779  A 1.5 1.5 0 0 1 366 780.5 L 358 780.5  A 1.5 1.5 0 0 1 356.5 779 L 356.5 771  Z " fill-rule="nonzero" fill="#f0f0f0" stroke="none" />
  <path d="M 356.5 771  A 1.5 1.5 0 0 1 358 769.5 L 366 769.5  A 1.5 1.5 0 0 1 367.5 771 L 367.5 779  A 1.5 1.5 0 0 1 366 780.5 L 358 780.5  A 1.5 1.5 0 0 1 356.5 779 L 356.5 771  Z " stroke-width="1" stroke="#797979" fill="none" />
</svg>