<?xml version="1.0" encoding="utf-8"?>
<svg version="1.1" xmlns:xlink="http://www.w3.org/1999/xlink" width="12px" height="12px" viewBox="1493 1641  12 12" xmlns="http://www.w3.org/2000/svg">
  <path d="M 1493.5 1643  A 1.5 1.5 0 0 1 1495 1641.5 L 1503 1641.5  A 1.5 1.5 0 0 1 1504.5 1643 L 1504.5 1651  A 1.5 1.5 0 0 1 1503 1652.5 L 1495 1652.5  A 1.5 1.5 0 0 1 1493.5 1651 L 1493.5 1643  Z " fill-rule="nonzero" fill="#ffffff" stroke="none" />
  <path d="M 1493.5 1643  A 1.5 1.5 0 0 1 1495 1641.5 L 1503 1641.5  A 1.5 1.5 0 0 1 1504.5 1643 L 1504.5 1651  A 1.5 1.5 0 0 1 1503 1652.5 L 1495 1652.5  A 1.5 1.5 0 0 1 1493.5 1651 L 1493.5 1643  Z " stroke-width="1" stroke="#7f7f7f" fill="none" />
</svg>