<?xml version="1.0" encoding="utf-8"?>
<svg version="1.1" xmlns:xlink="http://www.w3.org/1999/xlink" width="12px" height="12px" viewBox="1851 1737  12 12" xmlns="http://www.w3.org/2000/svg">
  <path d="M 1851.5 1739  A 1.5 1.5 0 0 1 1853 1737.5 L 1861 1737.5  A 1.5 1.5 0 0 1 1862.5 1739 L 1862.5 1747  A 1.5 1.5 0 0 1 1861 1748.5 L 1853 1748.5  A 1.5 1.5 0 0 1 1851.5 1747 L 1851.5 1739  Z " fill-rule="nonzero" fill="#f0f0f0" stroke="none" />
  <path d="M 1851.5 1739  A 1.5 1.5 0 0 1 1853 1737.5 L 1861 1737.5  A 1.5 1.5 0 0 1 1862.5 1739 L 1862.5 1747  A 1.5 1.5 0 0 1 1861 1748.5 L 1853 1748.5  A 1.5 1.5 0 0 1 1851.5 1747 L 1851.5 1739  Z " stroke-width="1" stroke="#7f7f7f" fill="none" />
  <path d="M 1853.57142857143 1743  L 1856.14285714286 1745.57142857143  " stroke-width="2.57142857142857" stroke="#7f7f7f" fill="none" />
  <path d="M 1856.14285714286 1745.57142857143  L 1860.42857142857 1739.57142857143  " stroke-width="2.57142857142857" stroke="#7f7f7f" fill="none" />
</svg>