<?xml version="1.0" encoding="utf-8"?>
<svg version="1.1" xmlns:xlink="http://www.w3.org/1999/xlink" width="12px" height="12px" viewBox="1961 1893  12 12" xmlns="http://www.w3.org/2000/svg">
  <path d="M 1961.5 1895  A 1.5 1.5 0 0 1 1963 1893.5 L 1971 1893.5  A 1.5 1.5 0 0 1 1972.5 1895 L 1972.5 1903  A 1.5 1.5 0 0 1 1971 1904.5 L 1963 1904.5  A 1.5 1.5 0 0 1 1961.5 1903 L 1961.5 1895  Z " fill-rule="nonzero" fill="#ffffff" stroke="none" />
  <path d="M 1961.5 1895  A 1.5 1.5 0 0 1 1963 1893.5 L 1971 1893.5  A 1.5 1.5 0 0 1 1972.5 1895 L 1972.5 1903  A 1.5 1.5 0 0 1 1971 1904.5 L 1963 1904.5  A 1.5 1.5 0 0 1 1961.5 1903 L 1961.5 1895  Z " stroke-width="1" stroke="#7f7f7f" fill="none" />
</svg>