<?xml version="1.0" encoding="utf-8"?>
<svg version="1.1" xmlns:xlink="http://www.w3.org/1999/xlink" width="12px" height="12px" viewBox="2224 1893  12 12" xmlns="http://www.w3.org/2000/svg">
  <path d="M 2224.5 1895  A 1.5 1.5 0 0 1 2226 1893.5 L 2234 1893.5  A 1.5 1.5 0 0 1 2235.5 1895 L 2235.5 1903  A 1.5 1.5 0 0 1 2234 1904.5 L 2226 1904.5  A 1.5 1.5 0 0 1 2224.5 1903 L 2224.5 1895  Z " fill-rule="nonzero" fill="#ffffff" stroke="none" />
  <path d="M 2224.5 1895  A 1.5 1.5 0 0 1 2226 1893.5 L 2234 1893.5  A 1.5 1.5 0 0 1 2235.5 1895 L 2235.5 1903  A 1.5 1.5 0 0 1 2234 1904.5 L 2226 1904.5  A 1.5 1.5 0 0 1 2224.5 1903 L 2224.5 1895  Z " stroke-width="1" stroke="#7f7f7f" fill="none" />
  <path d="M 2226.57142857143 1899  L 2229.14285714286 1901.57142857143  " stroke-width="2.57142857142857" stroke="#7f7f7f" fill="none" />
  <path d="M 2229.14285714286 1901.57142857143  L 2233.42857142857 1895.57142857143  " stroke-width="2.57142857142857" stroke="#7f7f7f" fill="none" />
</svg>