<?xml version="1.0" encoding="utf-8"?>
<svg version="1.1" xmlns:xlink="http://www.w3.org/1999/xlink" width="12px" height="12px" viewBox="1851 1841  12 12" xmlns="http://www.w3.org/2000/svg">
  <path d="M 1851.5 1843  A 1.5 1.5 0 0 1 1853 1841.5 L 1861 1841.5  A 1.5 1.5 0 0 1 1862.5 1843 L 1862.5 1851  A 1.5 1.5 0 0 1 1861 1852.5 L 1853 1852.5  A 1.5 1.5 0 0 1 1851.5 1851 L 1851.5 1843  Z " fill-rule="nonzero" fill="#ffffff" stroke="none" />
  <path d="M 1851.5 1843  A 1.5 1.5 0 0 1 1853 1841.5 L 1861 1841.5  A 1.5 1.5 0 0 1 1862.5 1843 L 1862.5 1851  A 1.5 1.5 0 0 1 1861 1852.5 L 1853 1852.5  A 1.5 1.5 0 0 1 1851.5 1851 L 1851.5 1843  Z " stroke-width="1" stroke="#7f7f7f" fill="none" />
  <path d="M 1853.57142857143 1847  L 1856.14285714286 1849.57142857143  " stroke-width="2.57142857142857" stroke="#7f7f7f" fill="none" />
  <path d="M 1856.14285714286 1849.57142857143  L 1860.42857142857 1843.57142857143  " stroke-width="2.57142857142857" stroke="#7f7f7f" fill="none" />
</svg>