<?xml version="1.0" encoding="utf-8"?>
<svg version="1.1" xmlns:xlink="http://www.w3.org/1999/xlink" width="12px" height="12px" viewBox="1732 2224  12 12" xmlns="http://www.w3.org/2000/svg">
  <path d="M 1732.5 2226  A 1.5 1.5 0 0 1 1734 2224.5 L 1742 2224.5  A 1.5 1.5 0 0 1 1743.5 2226 L 1743.5 2234  A 1.5 1.5 0 0 1 1742 2235.5 L 1734 2235.5  A 1.5 1.5 0 0 1 1732.5 2234 L 1732.5 2226  Z " fill-rule="nonzero" fill="#ffffff" stroke="none" />
  <path d="M 1732.5 2226  A 1.5 1.5 0 0 1 1734 2224.5 L 1742 2224.5  A 1.5 1.5 0 0 1 1743.5 2226 L 1743.5 2234  A 1.5 1.5 0 0 1 1742 2235.5 L 1734 2235.5  A 1.5 1.5 0 0 1 1732.5 2234 L 1732.5 2226  Z " stroke-width="1" stroke="#7f7f7f" fill="none" />
</svg>