<?xml version="1.0" encoding="utf-8"?>
<svg version="1.1" xmlns:xlink="http://www.w3.org/1999/xlink" width="12px" height="12px" viewBox="1611 1895  12 12" xmlns="http://www.w3.org/2000/svg">
  <path d="M 1611.5 1897  A 1.5 1.5 0 0 1 1613 1895.5 L 1621 1895.5  A 1.5 1.5 0 0 1 1622.5 1897 L 1622.5 1905  A 1.5 1.5 0 0 1 1621 1906.5 L 1613 1906.5  A 1.5 1.5 0 0 1 1611.5 1905 L 1611.5 1897  Z " fill-rule="nonzero" fill="#ffffff" stroke="none" />
  <path d="M 1611.5 1897  A 1.5 1.5 0 0 1 1613 1895.5 L 1621 1895.5  A 1.5 1.5 0 0 1 1622.5 1897 L 1622.5 1905  A 1.5 1.5 0 0 1 1621 1906.5 L 1613 1906.5  A 1.5 1.5 0 0 1 1611.5 1905 L 1611.5 1897  Z " stroke-width="1" stroke="#7f7f7f" fill="none" />
  <path d="M 1613.57142857143 1901  L 1616.14285714286 1903.57142857143  " stroke-width="2.57142857142857" stroke="#7f7f7f" fill="none" />
  <path d="M 1616.14285714286 1903.57142857143  L 1620.42857142857 1897.57142857143  " stroke-width="2.57142857142857" stroke="#7f7f7f" fill="none" />
</svg>