<?xml version="1.0" encoding="utf-8"?>
<svg version="1.1" xmlns:xlink="http://www.w3.org/1999/xlink" width="12px" height="12px" viewBox="1991 2102  12 12" xmlns="http://www.w3.org/2000/svg">
  <path d="M 1991.5 2104  A 1.5 1.5 0 0 1 1993 2102.5 L 2001 2102.5  A 1.5 1.5 0 0 1 2002.5 2104 L 2002.5 2112  A 1.5 1.5 0 0 1 2001 2113.5 L 1993 2113.5  A 1.5 1.5 0 0 1 1991.5 2112 L 1991.5 2104  Z " fill-rule="nonzero" fill="#f0f0f0" stroke="none" />
  <path d="M 1991.5 2104  A 1.5 1.5 0 0 1 1993 2102.5 L 2001 2102.5  A 1.5 1.5 0 0 1 2002.5 2104 L 2002.5 2112  A 1.5 1.5 0 0 1 2001 2113.5 L 1993 2113.5  A 1.5 1.5 0 0 1 1991.5 2112 L 1991.5 2104  Z " stroke-width="1" stroke="#7f7f7f" fill="none" />
</svg>