<?xml version="1.0" encoding="utf-8"?>
<svg version="1.1" xmlns:xlink="http://www.w3.org/1999/xlink" width="12px" height="12px" viewBox="1732 2102  12 12" xmlns="http://www.w3.org/2000/svg">
  <path d="M 1732.5 2104  A 1.5 1.5 0 0 1 1734 2102.5 L 1742 2102.5  A 1.5 1.5 0 0 1 1743.5 2104 L 1743.5 2112  A 1.5 1.5 0 0 1 1742 2113.5 L 1734 2113.5  A 1.5 1.5 0 0 1 1732.5 2112 L 1732.5 2104  Z " fill-rule="nonzero" fill="#ffffff" stroke="none" />
  <path d="M 1732.5 2104  A 1.5 1.5 0 0 1 1734 2102.5 L 1742 2102.5  A 1.5 1.5 0 0 1 1743.5 2104 L 1743.5 2112  A 1.5 1.5 0 0 1 1742 2113.5 L 1734 2113.5  A 1.5 1.5 0 0 1 1732.5 2112 L 1732.5 2104  Z " stroke-width="1" stroke="#7f7f7f" fill="none" />
  <path d="M 1734.57142857143 2108  L 1737.14285714286 2110.57142857143  " stroke-width="2.57142857142857" stroke="#7f7f7f" fill="none" />
  <path d="M 1737.14285714286 2110.57142857143  L 1741.42857142857 2104.57142857143  " stroke-width="2.57142857142857" stroke="#7f7f7f" fill="none" />
</svg>