<?xml version="1.0" encoding="utf-8"?>
<svg version="1.1" xmlns:xlink="http://www.w3.org/1999/xlink" width="12px" height="12px" viewBox="1721 2501  12 12" xmlns="http://www.w3.org/2000/svg">
  <path d="M 1721.5 2503  A 1.5 1.5 0 0 1 1723 2501.5 L 1731 2501.5  A 1.5 1.5 0 0 1 1732.5 2503 L 1732.5 2511  A 1.5 1.5 0 0 1 1731 2512.5 L 1723 2512.5  A 1.5 1.5 0 0 1 1721.5 2511 L 1721.5 2503  Z " fill-rule="nonzero" fill="#ffffff" stroke="none" />
  <path d="M 1721.5 2503  A 1.5 1.5 0 0 1 1723 2501.5 L 1731 2501.5  A 1.5 1.5 0 0 1 1732.5 2503 L 1732.5 2511  A 1.5 1.5 0 0 1 1731 2512.5 L 1723 2512.5  A 1.5 1.5 0 0 1 1721.5 2511 L 1721.5 2503  Z " stroke-width="1" stroke="#7f7f7f" fill="none" />
</svg>