<?xml version="1.0" encoding="utf-8"?>
<svg version="1.1" xmlns:xlink="http://www.w3.org/1999/xlink" width="12px" height="12px" viewBox="2015 2241  12 12" xmlns="http://www.w3.org/2000/svg">
  <path d="M 2015.5 2243  A 1.5 1.5 0 0 1 2017 2241.5 L 2025 2241.5  A 1.5 1.5 0 0 1 2026.5 2243 L 2026.5 2251  A 1.5 1.5 0 0 1 2025 2252.5 L 2017 2252.5  A 1.5 1.5 0 0 1 2015.5 2251 L 2015.5 2243  Z " fill-rule="nonzero" fill="#f0f0f0" stroke="none" />
  <path d="M 2015.5 2243  A 1.5 1.5 0 0 1 2017 2241.5 L 2025 2241.5  A 1.5 1.5 0 0 1 2026.5 2243 L 2026.5 2251  A 1.5 1.5 0 0 1 2025 2252.5 L 2017 2252.5  A 1.5 1.5 0 0 1 2015.5 2251 L 2015.5 2243  Z " stroke-width="1" stroke="#7f7f7f" fill="none" />
</svg>