<?xml version="1.0" encoding="utf-8"?>
<svg version="1.1" xmlns:xlink="http://www.w3.org/1999/xlink" width="12px" height="12px" viewBox="1611 2578  12 12" xmlns="http://www.w3.org/2000/svg">
  <path d="M 1611.5 2580  A 1.5 1.5 0 0 1 1613 2578.5 L 1621 2578.5  A 1.5 1.5 0 0 1 1622.5 2580 L 1622.5 2588  A 1.5 1.5 0 0 1 1621 2589.5 L 1613 2589.5  A 1.5 1.5 0 0 1 1611.5 2588 L 1611.5 2580  Z " fill-rule="nonzero" fill="#f0f0f0" stroke="none" />
  <path d="M 1611.5 2580  A 1.5 1.5 0 0 1 1613 2578.5 L 1621 2578.5  A 1.5 1.5 0 0 1 1622.5 2580 L 1622.5 2588  A 1.5 1.5 0 0 1 1621 2589.5 L 1613 2589.5  A 1.5 1.5 0 0 1 1611.5 2588 L 1611.5 2580  Z " stroke-width="1" stroke="#7f7f7f" fill="none" />
  <path d="M 1613.57142857143 2584  L 1616.14285714286 2586.57142857143  " stroke-width="2.57142857142857" stroke="#7f7f7f" fill="none" />
  <path d="M 1616.14285714286 2586.57142857143  L 1620.42857142857 2580.57142857143  " stroke-width="2.57142857142857" stroke="#7f7f7f" fill="none" />
</svg>