<?xml version="1.0" encoding="utf-8"?>
<svg version="1.1" xmlns:xlink="http://www.w3.org/1999/xlink" width="12px" height="12px" viewBox="1855 2605  12 12" xmlns="http://www.w3.org/2000/svg">
  <path d="M 1855.5 2607  A 1.5 1.5 0 0 1 1857 2605.5 L 1865 2605.5  A 1.5 1.5 0 0 1 1866.5 2607 L 1866.5 2615  A 1.5 1.5 0 0 1 1865 2616.5 L 1857 2616.5  A 1.5 1.5 0 0 1 1855.5 2615 L 1855.5 2607  Z " fill-rule="nonzero" fill="#ffffff" stroke="none" />
  <path d="M 1855.5 2607  A 1.5 1.5 0 0 1 1857 2605.5 L 1865 2605.5  A 1.5 1.5 0 0 1 1866.5 2607 L 1866.5 2615  A 1.5 1.5 0 0 1 1865 2616.5 L 1857 2616.5  A 1.5 1.5 0 0 1 1855.5 2615 L 1855.5 2607  Z " stroke-width="1" stroke="#7f7f7f" fill="none" />
  <path d="M 1857.57142857143 2611  L 1860.14285714286 2613.57142857143  " stroke-width="2.57142857142857" stroke="#7f7f7f" fill="none" />
  <path d="M 1860.14285714286 2613.57142857143  L 1864.42857142857 2607.57142857143  " stroke-width="2.57142857142857" stroke="#7f7f7f" fill="none" />
</svg>