<?xml version="1.0" encoding="utf-8"?>
<svg version="1.1" xmlns:xlink="http://www.w3.org/1999/xlink" width="12px" height="12px" viewBox="1611 2682  12 12" xmlns="http://www.w3.org/2000/svg">
  <path d="M 1611.5 2684  A 1.5 1.5 0 0 1 1613 2682.5 L 1621 2682.5  A 1.5 1.5 0 0 1 1622.5 2684 L 1622.5 2692  A 1.5 1.5 0 0 1 1621 2693.5 L 1613 2693.5  A 1.5 1.5 0 0 1 1611.5 2692 L 1611.5 2684  Z " fill-rule="nonzero" fill="#ffffff" stroke="none" />
  <path d="M 1611.5 2684  A 1.5 1.5 0 0 1 1613 2682.5 L 1621 2682.5  A 1.5 1.5 0 0 1 1622.5 2684 L 1622.5 2692  A 1.5 1.5 0 0 1 1621 2693.5 L 1613 2693.5  A 1.5 1.5 0 0 1 1611.5 2692 L 1611.5 2684  Z " stroke-width="1" stroke="#7f7f7f" fill="none" />
</svg>