<?xml version="1.0" encoding="utf-8"?>
<svg version="1.1" xmlns:xlink="http://www.w3.org/1999/xlink" width="12px" height="12px" viewBox="256 1614  12 12" xmlns="http://www.w3.org/2000/svg">
  <path d="M 256.5 1616  A 1.5 1.5 0 0 1 258 1614.5 L 266 1614.5  A 1.5 1.5 0 0 1 267.5 1616 L 267.5 1624  A 1.5 1.5 0 0 1 266 1625.5 L 258 1625.5  A 1.5 1.5 0 0 1 256.5 1624 L 256.5 1616  Z " fill-rule="nonzero" fill="#ffffff" stroke="none" />
  <path d="M 256.5 1616  A 1.5 1.5 0 0 1 258 1614.5 L 266 1614.5  A 1.5 1.5 0 0 1 267.5 1616 L 267.5 1624  A 1.5 1.5 0 0 1 266 1625.5 L 258 1625.5  A 1.5 1.5 0 0 1 256.5 1624 L 256.5 1616  Z " stroke-width="1" stroke="#7f7f7f" fill="none" />
  <path d="M 258.571428571429 1620  L 261.142857142857 1622.57142857143  " stroke-width="2.57142857142857" stroke="#7f7f7f" fill="none" />
  <path d="M 261.142857142857 1622.57142857143  L 265.428571428571 1616.57142857143  " stroke-width="2.57142857142857" stroke="#7f7f7f" fill="none" />
</svg>