<?xml version="1.0" encoding="utf-8"?>
<svg version="1.1" xmlns:xlink="http://www.w3.org/1999/xlink" width="12px" height="12px" viewBox="256 2152  12 12" xmlns="http://www.w3.org/2000/svg">
  <path d="M 256.5 2154  A 1.5 1.5 0 0 1 258 2152.5 L 266 2152.5  A 1.5 1.5 0 0 1 267.5 2154 L 267.5 2162  A 1.5 1.5 0 0 1 266 2163.5 L 258 2163.5  A 1.5 1.5 0 0 1 256.5 2162 L 256.5 2154  Z " fill-rule="nonzero" fill="#ffffff" stroke="none" />
  <path d="M 256.5 2154  A 1.5 1.5 0 0 1 258 2152.5 L 266 2152.5  A 1.5 1.5 0 0 1 267.5 2154 L 267.5 2162  A 1.5 1.5 0 0 1 266 2163.5 L 258 2163.5  A 1.5 1.5 0 0 1 256.5 2162 L 256.5 2154  Z " stroke-width="1" stroke="#7f7f7f" fill="none" />
</svg>