<?xml version="1.0" encoding="utf-8"?>
<svg version="1.1" xmlns:xlink="http://www.w3.org/1999/xlink" width="12px" height="12px" viewBox="374 1816  12 12" xmlns="http://www.w3.org/2000/svg">
  <path d="M 374.5 1818  A 1.5 1.5 0 0 1 376 1816.5 L 384 1816.5  A 1.5 1.5 0 0 1 385.5 1818 L 385.5 1826  A 1.5 1.5 0 0 1 384 1827.5 L 376 1827.5  A 1.5 1.5 0 0 1 374.5 1826 L 374.5 1818  Z " fill-rule="nonzero" fill="#f0f0f0" stroke="none" />
  <path d="M 374.5 1818  A 1.5 1.5 0 0 1 376 1816.5 L 384 1816.5  A 1.5 1.5 0 0 1 385.5 1818 L 385.5 1826  A 1.5 1.5 0 0 1 384 1827.5 L 376 1827.5  A 1.5 1.5 0 0 1 374.5 1826 L 374.5 1818  Z " stroke-width="1" stroke="#7f7f7f" fill="none" />
  <path d="M 376.571428571429 1822  L 379.142857142857 1824.57142857143  " stroke-width="2.57142857142857" stroke="#7f7f7f" fill="none" />
  <path d="M 379.142857142857 1824.57142857143  L 383.428571428571 1818.57142857143  " stroke-width="2.57142857142857" stroke="#7f7f7f" fill="none" />
</svg>