<?xml version="1.0" encoding="utf-8"?>
<svg version="1.1" xmlns:xlink="http://www.w3.org/1999/xlink" width="12px" height="12px" viewBox="693 1714  12 12" xmlns="http://www.w3.org/2000/svg">
  <path d="M 693.5 1716  A 1.5 1.5 0 0 1 695 1714.5 L 703 1714.5  A 1.5 1.5 0 0 1 704.5 1716 L 704.5 1724  A 1.5 1.5 0 0 1 703 1725.5 L 695 1725.5  A 1.5 1.5 0 0 1 693.5 1724 L 693.5 1716  Z " fill-rule="nonzero" fill="#ffffff" stroke="none" />
  <path d="M 693.5 1716  A 1.5 1.5 0 0 1 695 1714.5 L 703 1714.5  A 1.5 1.5 0 0 1 704.5 1716 L 704.5 1724  A 1.5 1.5 0 0 1 703 1725.5 L 695 1725.5  A 1.5 1.5 0 0 1 693.5 1724 L 693.5 1716  Z " stroke-width="1" stroke="#7f7f7f" fill="none" />
  <path d="M 695.571428571429 1720  L 698.142857142857 1722.57142857143  " stroke-width="2.57142857142857" stroke="#7f7f7f" fill="none" />
  <path d="M 698.142857142857 1722.57142857143  L 702.428571428571 1716.57142857143  " stroke-width="2.57142857142857" stroke="#7f7f7f" fill="none" />
</svg>