<?xml version="1.0" encoding="utf-8"?>
<svg version="1.1" xmlns:xlink="http://www.w3.org/1999/xlink" width="12px" height="12px" viewBox="376 1952  12 12" xmlns="http://www.w3.org/2000/svg">
  <path d="M 376.5 1954  A 1.5 1.5 0 0 1 378 1952.5 L 386 1952.5  A 1.5 1.5 0 0 1 387.5 1954 L 387.5 1962  A 1.5 1.5 0 0 1 386 1963.5 L 378 1963.5  A 1.5 1.5 0 0 1 376.5 1962 L 376.5 1954  Z " fill-rule="nonzero" fill="#f0f0f0" stroke="none" />
  <path d="M 376.5 1954  A 1.5 1.5 0 0 1 378 1952.5 L 386 1952.5  A 1.5 1.5 0 0 1 387.5 1954 L 387.5 1962  A 1.5 1.5 0 0 1 386 1963.5 L 378 1963.5  A 1.5 1.5 0 0 1 376.5 1962 L 376.5 1954  Z " stroke-width="1" stroke="#7f7f7f" fill="none" />
  <path d="M 378.571428571429 1958  L 381.142857142857 1960.57142857143  " stroke-width="2.57142857142857" stroke="#7f7f7f" fill="none" />
  <path d="M 381.142857142857 1960.57142857143  L 385.428571428571 1954.57142857143  " stroke-width="2.57142857142857" stroke="#7f7f7f" fill="none" />
</svg>