<?xml version="1.0" encoding="utf-8"?>
<svg version="1.1" xmlns:xlink="http://www.w3.org/1999/xlink" width="12px" height="12px" viewBox="495 1909  12 12" xmlns="http://www.w3.org/2000/svg">
  <path d="M 495.5 1911  A 1.5 1.5 0 0 1 497 1909.5 L 505 1909.5  A 1.5 1.5 0 0 1 506.5 1911 L 506.5 1919  A 1.5 1.5 0 0 1 505 1920.5 L 497 1920.5  A 1.5 1.5 0 0 1 495.5 1919 L 495.5 1911  Z " fill-rule="nonzero" fill="#f0f0f0" stroke="none" />
  <path d="M 495.5 1911  A 1.5 1.5 0 0 1 497 1909.5 L 505 1909.5  A 1.5 1.5 0 0 1 506.5 1911 L 506.5 1919  A 1.5 1.5 0 0 1 505 1920.5 L 497 1920.5  A 1.5 1.5 0 0 1 495.5 1919 L 495.5 1911  Z " stroke-width="1" stroke="#7f7f7f" fill="none" />
</svg>