<?xml version="1.0" encoding="utf-8"?>
<svg version="1.1" xmlns:xlink="http://www.w3.org/1999/xlink" width="12px" height="12px" viewBox="200 391  12 12" xmlns="http://www.w3.org/2000/svg">
  <path d="M 200.5 393  A 1.5 1.5 0 0 1 202 391.5 L 210 391.5  A 1.5 1.5 0 0 1 211.5 393 L 211.5 401  A 1.5 1.5 0 0 1 210 402.5 L 202 402.5  A 1.5 1.5 0 0 1 200.5 401 L 200.5 393  Z " fill-rule="nonzero" fill="#f0f0f0" stroke="none" />
  <path d="M 200.5 393  A 1.5 1.5 0 0 1 202 391.5 L 210 391.5  A 1.5 1.5 0 0 1 211.5 393 L 211.5 401  A 1.5 1.5 0 0 1 210 402.5 L 202 402.5  A 1.5 1.5 0 0 1 200.5 401 L 200.5 393  Z " stroke-width="1" stroke="#797979" fill="none" />
</svg>