<?xml version="1.0" encoding="utf-8"?>
<svg version="1.1" xmlns:xlink="http://www.w3.org/1999/xlink" width="12px" height="12px" viewBox="356 796  12 12" xmlns="http://www.w3.org/2000/svg">
  <path d="M 356.5 798  A 1.5 1.5 0 0 1 358 796.5 L 366 796.5  A 1.5 1.5 0 0 1 367.5 798 L 367.5 806  A 1.5 1.5 0 0 1 366 807.5 L 358 807.5  A 1.5 1.5 0 0 1 356.5 806 L 356.5 798  Z " fill-rule="nonzero" fill="#ffffff" stroke="none" />
  <path d="M 356.5 798  A 1.5 1.5 0 0 1 358 796.5 L 366 796.5  A 1.5 1.5 0 0 1 367.5 798 L 367.5 806  A 1.5 1.5 0 0 1 366 807.5 L 358 807.5  A 1.5 1.5 0 0 1 356.5 806 L 356.5 798  Z " stroke-width="1" stroke="#797979" fill="none" />
  <path d="M 358.571428571429 802  L 361.142857142857 804.571428571429  " stroke-width="2.57142857142857" stroke="#797979" fill="none" />
  <path d="M 361.142857142857 804.571428571429  L 365.428571428571 798.571428571429  " stroke-width="2.57142857142857" stroke="#797979" fill="none" />
</svg>