<?xml version="1.0" encoding="utf-8"?>
<svg version="1.1" xmlns:xlink="http://www.w3.org/1999/xlink" width="12px" height="12px" viewBox="1695 313  12 12" xmlns="http://www.w3.org/2000/svg">
  <path d="M 1695.5 315  A 1.5 1.5 0 0 1 1697 313.5 L 1705 313.5  A 1.5 1.5 0 0 1 1706.5 315 L 1706.5 323  A 1.5 1.5 0 0 1 1705 324.5 L 1697 324.5  A 1.5 1.5 0 0 1 1695.5 323 L 1695.5 315  Z " fill-rule="nonzero" fill="#ffffff" stroke="none" />
  <path d="M 1695.5 315  A 1.5 1.5 0 0 1 1697 313.5 L 1705 313.5  A 1.5 1.5 0 0 1 1706.5 315 L 1706.5 323  A 1.5 1.5 0 0 1 1705 324.5 L 1697 324.5  A 1.5 1.5 0 0 1 1695.5 323 L 1695.5 315  Z " stroke-width="1" stroke="#797979" fill="none" />
</svg>