<?xml version="1.0" encoding="utf-8"?>
<svg version="1.1" xmlns:xlink="http://www.w3.org/1999/xlink" width="12px" height="12px" viewBox="1695 341  12 12" xmlns="http://www.w3.org/2000/svg">
  <path d="M 1695.5 343  A 1.5 1.5 0 0 1 1697 341.5 L 1705 341.5  A 1.5 1.5 0 0 1 1706.5 343 L 1706.5 351  A 1.5 1.5 0 0 1 1705 352.5 L 1697 352.5  A 1.5 1.5 0 0 1 1695.5 351 L 1695.5 343  Z " fill-rule="nonzero" fill="#ffffff" stroke="none" />
  <path d="M 1695.5 343  A 1.5 1.5 0 0 1 1697 341.5 L 1705 341.5  A 1.5 1.5 0 0 1 1706.5 343 L 1706.5 351  A 1.5 1.5 0 0 1 1705 352.5 L 1697 352.5  A 1.5 1.5 0 0 1 1695.5 351 L 1695.5 343  Z " stroke-width="1" stroke="#797979" fill="none" />
  <path d="M 1697.57142857143 347  L 1700.14285714286 349.571428571429  " stroke-width="2.57142857142857" stroke="#797979" fill="none" />
  <path d="M 1700.14285714286 349.571428571429  L 1704.42857142857 343.571428571429  " stroke-width="2.57142857142857" stroke="#797979" fill="none" />
</svg>