<?xml version="1.0" encoding="utf-8"?>
<svg version="1.1" xmlns:xlink="http://www.w3.org/1999/xlink" width="12px" height="12px" viewBox="1695 369  12 12" xmlns="http://www.w3.org/2000/svg">
  <path d="M 1695.5 371  A 1.5 1.5 0 0 1 1697 369.5 L 1705 369.5  A 1.5 1.5 0 0 1 1706.5 371 L 1706.5 379  A 1.5 1.5 0 0 1 1705 380.5 L 1697 380.5  A 1.5 1.5 0 0 1 1695.5 379 L 1695.5 371  Z " fill-rule="nonzero" fill="#ffffff" stroke="none" />
  <path d="M 1695.5 371  A 1.5 1.5 0 0 1 1697 369.5 L 1705 369.5  A 1.5 1.5 0 0 1 1706.5 371 L 1706.5 379  A 1.5 1.5 0 0 1 1705 380.5 L 1697 380.5  A 1.5 1.5 0 0 1 1695.5 379 L 1695.5 371  Z " stroke-width="1" stroke="#797979" fill="none" />
  <path d="M 1697.57142857143 375  L 1700.14285714286 377.571428571429  " stroke-width="2.57142857142857" stroke="#797979" fill="none" />
  <path d="M 1700.14285714286 377.571428571429  L 1704.42857142857 371.571428571429  " stroke-width="2.57142857142857" stroke="#797979" fill="none" />
</svg>