<?xml version="1.0" encoding="utf-8"?>
<svg version="1.1" xmlns:xlink="http://www.w3.org/1999/xlink" width="12px" height="12px" viewBox="2132 1536  12 12" xmlns="http://www.w3.org/2000/svg">
  <path d="M 2132.5 1538  A 1.5 1.5 0 0 1 2134 1536.5 L 2142 1536.5  A 1.5 1.5 0 0 1 2143.5 1538 L 2143.5 1546  A 1.5 1.5 0 0 1 2142 1547.5 L 2134 1547.5  A 1.5 1.5 0 0 1 2132.5 1546 L 2132.5 1538  Z " fill-rule="nonzero" fill="#ffffff" stroke="none" />
  <path d="M 2132.5 1538  A 1.5 1.5 0 0 1 2134 1536.5 L 2142 1536.5  A 1.5 1.5 0 0 1 2143.5 1538 L 2143.5 1546  A 1.5 1.5 0 0 1 2142 1547.5 L 2134 1547.5  A 1.5 1.5 0 0 1 2132.5 1546 L 2132.5 1538  Z " stroke-width="1" stroke="#7f7f7f" fill="none" />
  <path d="M 2134.57142857143 1542  L 2137.14285714286 1544.57142857143  " stroke-width="2.57142857142857" stroke="#7f7f7f" fill="none" />
  <path d="M 2137.14285714286 1544.57142857143  L 2141.42857142857 1538.57142857143  " stroke-width="2.57142857142857" stroke="#7f7f7f" fill="none" />
</svg>