<?xml version="1.0" encoding="utf-8"?>
<svg version="1.1" xmlns:xlink="http://www.w3.org/1999/xlink" width="12px" height="12px" viewBox="1493 2341  12 12" xmlns="http://www.w3.org/2000/svg">
  <path d="M 1493.5 2343  A 1.5 1.5 0 0 1 1495 2341.5 L 1503 2341.5  A 1.5 1.5 0 0 1 1504.5 2343 L 1504.5 2351  A 1.5 1.5 0 0 1 1503 2352.5 L 1495 2352.5  A 1.5 1.5 0 0 1 1493.5 2351 L 1493.5 2343  Z " fill-rule="nonzero" fill="#f0f0f0" stroke="none" />
  <path d="M 1493.5 2343  A 1.5 1.5 0 0 1 1495 2341.5 L 1503 2341.5  A 1.5 1.5 0 0 1 1504.5 2343 L 1504.5 2351  A 1.5 1.5 0 0 1 1503 2352.5 L 1495 2352.5  A 1.5 1.5 0 0 1 1493.5 2351 L 1493.5 2343  Z " stroke-width="1" stroke="#7f7f7f" fill="none" />
  <path d="M 1495.57142857143 2347  L 1498.14285714286 2349.57142857143  " stroke-width="2.57142857142857" stroke="#7f7f7f" fill="none" />
  <path d="M 1498.14285714286 2349.57142857143  L 1502.42857142857 2343.57142857143  " stroke-width="2.57142857142857" stroke="#7f7f7f" fill="none" />
</svg>