<?xml version="1.0" encoding="utf-8"?>
<svg version="1.1" xmlns:xlink="http://www.w3.org/1999/xlink" width="12px" height="12px" viewBox="1611 1739  12 12" xmlns="http://www.w3.org/2000/svg">
  <path d="M 1611.5 1741  A 1.5 1.5 0 0 1 1613 1739.5 L 1621 1739.5  A 1.5 1.5 0 0 1 1622.5 1741 L 1622.5 1749  A 1.5 1.5 0 0 1 1621 1750.5 L 1613 1750.5  A 1.5 1.5 0 0 1 1611.5 1749 L 1611.5 1741  Z " fill-rule="nonzero" fill="#f0f0f0" stroke="none" />
  <path d="M 1611.5 1741  A 1.5 1.5 0 0 1 1613 1739.5 L 1621 1739.5  A 1.5 1.5 0 0 1 1622.5 1741 L 1622.5 1749  A 1.5 1.5 0 0 1 1621 1750.5 L 1613 1750.5  A 1.5 1.5 0 0 1 1611.5 1749 L 1611.5 1741  Z " stroke-width="1" stroke="#7f7f7f" fill="none" />
</svg>