<?xml version="1.0" encoding="utf-8"?>
<svg version="1.1" xmlns:xlink="http://www.w3.org/1999/xlink" width="12px" height="12px" viewBox="1493 1845  12 12" xmlns="http://www.w3.org/2000/svg">
  <path d="M 1493.5 1847  A 1.5 1.5 0 0 1 1495 1845.5 L 1503 1845.5  A 1.5 1.5 0 0 1 1504.5 1847 L 1504.5 1855  A 1.5 1.5 0 0 1 1503 1856.5 L 1495 1856.5  A 1.5 1.5 0 0 1 1493.5 1855 L 1493.5 1847  Z " fill-rule="nonzero" fill="#ffffff" stroke="none" />
  <path d="M 1493.5 1847  A 1.5 1.5 0 0 1 1495 1845.5 L 1503 1845.5  A 1.5 1.5 0 0 1 1504.5 1847 L 1504.5 1855  A 1.5 1.5 0 0 1 1503 1856.5 L 1495 1856.5  A 1.5 1.5 0 0 1 1493.5 1855 L 1493.5 1847  Z " stroke-width="1" stroke="#7f7f7f" fill="none" />
  <path d="M 1495.57142857143 1851  L 1498.14285714286 1853.57142857143  " stroke-width="2.57142857142857" stroke="#7f7f7f" fill="none" />
  <path d="M 1498.14285714286 1853.57142857143  L 1502.42857142857 1847.57142857143  " stroke-width="2.57142857142857" stroke="#7f7f7f" fill="none" />
</svg>