<?xml version="1.0" encoding="utf-8"?>
<svg version="1.1" xmlns:xlink="http://www.w3.org/1999/xlink" width="12px" height="12px" viewBox="2332 1893  12 12" xmlns="http://www.w3.org/2000/svg">
  <path d="M 2332.5 1895  A 1.5 1.5 0 0 1 2334 1893.5 L 2342 1893.5  A 1.5 1.5 0 0 1 2343.5 1895 L 2343.5 1903  A 1.5 1.5 0 0 1 2342 1904.5 L 2334 1904.5  A 1.5 1.5 0 0 1 2332.5 1903 L 2332.5 1895  Z " fill-rule="nonzero" fill="#f0f0f0" stroke="none" />
  <path d="M 2332.5 1895  A 1.5 1.5 0 0 1 2334 1893.5 L 2342 1893.5  A 1.5 1.5 0 0 1 2343.5 1895 L 2343.5 1903  A 1.5 1.5 0 0 1 2342 1904.5 L 2334 1904.5  A 1.5 1.5 0 0 1 2332.5 1903 L 2332.5 1895  Z " stroke-width="1" stroke="#7f7f7f" fill="none" />
</svg>