<?xml version="1.0" encoding="utf-8"?>
<svg version="1.1" xmlns:xlink="http://www.w3.org/1999/xlink" width="12px" height="12px" viewBox="355 460  12 12" xmlns="http://www.w3.org/2000/svg">
  <path d="M 355.5 462  A 1.5 1.5 0 0 1 357 460.5 L 365 460.5  A 1.5 1.5 0 0 1 366.5 462 L 366.5 470  A 1.5 1.5 0 0 1 365 471.5 L 357 471.5  A 1.5 1.5 0 0 1 355.5 470 L 355.5 462  Z " fill-rule="nonzero" fill="#f0f0f0" stroke="none" />
  <path d="M 355.5 462  A 1.5 1.5 0 0 1 357 460.5 L 365 460.5  A 1.5 1.5 0 0 1 366.5 462 L 366.5 470  A 1.5 1.5 0 0 1 365 471.5 L 357 471.5  A 1.5 1.5 0 0 1 355.5 470 L 355.5 462  Z " stroke-width="1" stroke="#797979" fill="none" />
  <path d="M 357.571428571429 466  L 360.142857142857 468.571428571429  " stroke-width="2.57142857142857" stroke="#797979" fill="none" />
  <path d="M 360.142857142857 468.571428571429  L 364.428571428571 462.571428571429  " stroke-width="2.57142857142857" stroke="#797979" fill="none" />
</svg>