<?xml version="1.0" encoding="utf-8"?>
<svg version="1.1" xmlns:xlink="http://www.w3.org/1999/xlink" width="12px" height="12px" viewBox="1721 2709  12 12" xmlns="http://www.w3.org/2000/svg">
  <path d="M 1721.5 2711  A 1.5 1.5 0 0 1 1723 2709.5 L 1731 2709.5  A 1.5 1.5 0 0 1 1732.5 2711 L 1732.5 2719  A 1.5 1.5 0 0 1 1731 2720.5 L 1723 2720.5  A 1.5 1.5 0 0 1 1721.5 2719 L 1721.5 2711  Z " fill-rule="nonzero" fill="#f0f0f0" stroke="none" />
  <path d="M 1721.5 2711  A 1.5 1.5 0 0 1 1723 2709.5 L 1731 2709.5  A 1.5 1.5 0 0 1 1732.5 2711 L 1732.5 2719  A 1.5 1.5 0 0 1 1731 2720.5 L 1723 2720.5  A 1.5 1.5 0 0 1 1721.5 2719 L 1721.5 2711  Z " stroke-width="1" stroke="#7f7f7f" fill="none" />
  <path d="M 1723.57142857143 2715  L 1726.14285714286 2717.57142857143  " stroke-width="2.57142857142857" stroke="#7f7f7f" fill="none" />
  <path d="M 1726.14285714286 2717.57142857143  L 1730.42857142857 2711.57142857143  " stroke-width="2.57142857142857" stroke="#7f7f7f" fill="none" />
</svg>