<?xml version="1.0" encoding="utf-8"?>
<svg version="1.1" xmlns:xlink="http://www.w3.org/1999/xlink" width="12px" height="12px" viewBox="2186 2206  12 12" xmlns="http://www.w3.org/2000/svg">
  <path d="M 2186.5 2208  A 1.5 1.5 0 0 1 2188 2206.5 L 2196 2206.5  A 1.5 1.5 0 0 1 2197.5 2208 L 2197.5 2216  A 1.5 1.5 0 0 1 2196 2217.5 L 2188 2217.5  A 1.5 1.5 0 0 1 2186.5 2216 L 2186.5 2208  Z " fill-rule="nonzero" fill="#ffffff" stroke="none" />
  <path d="M 2186.5 2208  A 1.5 1.5 0 0 1 2188 2206.5 L 2196 2206.5  A 1.5 1.5 0 0 1 2197.5 2208 L 2197.5 2216  A 1.5 1.5 0 0 1 2196 2217.5 L 2188 2217.5  A 1.5 1.5 0 0 1 2186.5 2216 L 2186.5 2208  Z " stroke-width="1" stroke="#7f7f7f" fill="none" />
</svg>