<?xml version="1.0" encoding="utf-8"?>
<svg version="1.1" xmlns:xlink="http://www.w3.org/1999/xlink" width="12px" height="12px" viewBox="2013 2206  12 12" xmlns="http://www.w3.org/2000/svg">
  <path d="M 2013.5 2208  A 1.5 1.5 0 0 1 2015 2206.5 L 2023 2206.5  A 1.5 1.5 0 0 1 2024.5 2208 L 2024.5 2216  A 1.5 1.5 0 0 1 2023 2217.5 L 2015 2217.5  A 1.5 1.5 0 0 1 2013.5 2216 L 2013.5 2208  Z " fill-rule="nonzero" fill="#f0f0f0" stroke="none" />
  <path d="M 2013.5 2208  A 1.5 1.5 0 0 1 2015 2206.5 L 2023 2206.5  A 1.5 1.5 0 0 1 2024.5 2208 L 2024.5 2216  A 1.5 1.5 0 0 1 2023 2217.5 L 2015 2217.5  A 1.5 1.5 0 0 1 2013.5 2216 L 2013.5 2208  Z " stroke-width="1" stroke="#7f7f7f" fill="none" />
  <path d="M 2015.57142857143 2212  L 2018.14285714286 2214.57142857143  " stroke-width="2.57142857142857" stroke="#7f7f7f" fill="none" />
  <path d="M 2018.14285714286 2214.57142857143  L 2022.42857142857 2208.57142857143  " stroke-width="2.57142857142857" stroke="#7f7f7f" fill="none" />
</svg>