<?xml version="1.0" encoding="utf-8"?>
<svg version="1.1" xmlns:xlink="http://www.w3.org/1999/xlink" width="12px" height="12px" viewBox="590 1866  12 12" xmlns="http://www.w3.org/2000/svg">
  <path d="M 590.5 1868  A 1.5 1.5 0 0 1 592 1866.5 L 600 1866.5  A 1.5 1.5 0 0 1 601.5 1868 L 601.5 1876  A 1.5 1.5 0 0 1 600 1877.5 L 592 1877.5  A 1.5 1.5 0 0 1 590.5 1876 L 590.5 1868  Z " fill-rule="nonzero" fill="#ffffff" stroke="none" />
  <path d="M 590.5 1868  A 1.5 1.5 0 0 1 592 1866.5 L 600 1866.5  A 1.5 1.5 0 0 1 601.5 1868 L 601.5 1876  A 1.5 1.5 0 0 1 600 1877.5 L 592 1877.5  A 1.5 1.5 0 0 1 590.5 1876 L 590.5 1868  Z " stroke-width="1" stroke="#7f7f7f" fill="none" />
</svg>