<?xml version="1.0" encoding="utf-8"?>
<svg version="1.1" xmlns:xlink="http://www.w3.org/1999/xlink" width="5px" height="11px" xmlns="http://www.w3.org/2000/svg">
  <g transform="matrix(1 0 0 1 -123 -154 )">
    <path d="M 4.83506944444444 5.0166015625  C 4.94502314814815 5.15266927083333  5 5.31380208333333  5 5.5  C 5 5.68619791666667  4.94502314814815 5.84733072916667  4.83506944444444 5.9833984375  L 0.946180555555556 10.7958984375  C 0.836226851851852 10.9319661458333  0.706018518518519 11  0.555555555555556 11  C 0.405092592592593 11  0.274884259259259 10.9319661458333  0.164930555555556 10.7958984375  C 0.0549768518518519 10.6598307291667  0 10.4986979166667  0 10.3125  L 0 0.6875  C 0 0.501302083333332  0.0549768518518519 0.340169270833332  0.164930555555556 0.2041015625  C 0.274884259259259 0.0680338541666659  0.405092592592593 0  0.555555555555556 0  C 0.706018518518519 0  0.836226851851852 0.0680338541666659  0.946180555555556 0.2041015625  L 4.83506944444444 5.0166015625  Z " fill-rule="nonzero" fill="#7f7f7f" stroke="none" transform="matrix(1 0 0 1 123 154 )" />
  </g>
</svg>