<?xml version="1.0" encoding="utf-8"?>
<svg version="1.1" xmlns:xlink="http://www.w3.org/1999/xlink" width="16px" height="13px" xmlns="http://www.w3.org/2000/svg">
  <g transform="matrix(1 0 0 1 -133 -153 )">
    <path d="M 14.5 11.5596590909091  C 14.6794871794872 11.3873106060606  14.7692307692308 11.1780303030303  14.7692307692308 10.9318181818182  L 14.7692307692308 4.43181818181818  C 14.7692307692308 4.18560606060606  14.6794871794872 3.97632575757576  14.5 3.80397727272727  C 14.3205128205128 3.63162878787879  14.1025641025641 3.54545454545454  13.8461538461538 3.54545454545454  L 7.07692307692308 3.54545454545454  C 6.82051282051282 3.54545454545454  6.6025641025641 3.4592803030303  6.42307692307692 3.28693181818182  C 6.24358974358974 3.11458333333333  6.15384615384615 2.90530303030303  6.15384615384615 2.65909090909091  L 6.15384615384615 2.06818181818182  C 6.15384615384615 1.8219696969697  6.06410256410256 1.61268939393939  5.88461538461539 1.44034090909091  C 5.70512820512821 1.26799242424242  5.48717948717949 1.18181818181818  5.23076923076923 1.18181818181818  L 2.15384615384615 1.18181818181818  C 1.8974358974359 1.18181818181818  1.67948717948718 1.26799242424242  1.5 1.44034090909091  C 1.32051282051282 1.61268939393939  1.23076923076923 1.8219696969697  1.23076923076923 2.06818181818182  L 1.23076923076923 10.9318181818182  C 1.23076923076923 11.1780303030303  1.32051282051282 11.3873106060606  1.5 11.5596590909091  C 1.67948717948718 11.7320075757576  1.8974358974359 11.8181818181818  2.15384615384615 11.8181818181818  L 13.8461538461538 11.8181818181818  C 14.1025641025641 11.8181818181818  14.3205128205128 11.7320075757576  14.5 11.5596590909091  Z M 15.3653846153846 2.97301136363636  C 15.7884615384615 3.37926136363636  16 3.8655303030303  16 4.43181818181818  L 16 10.9318181818182  C 16 11.4981060606061  15.7884615384615 11.984375  15.3653846153846 12.390625  C 14.9423076923077 12.796875  14.4358974358974 13  13.8461538461538 13  L 2.15384615384615 13  C 1.56410256410256 13  1.05769230769231 12.796875  0.634615384615385 12.390625  C 0.211538461538462 11.984375  0 11.4981060606061  0 10.9318181818182  L 0 2.06818181818182  C 0 1.50189393939394  0.211538461538462 1.015625  0.634615384615385 0.609375  C 1.05769230769231 0.203125  1.56410256410256 0  2.15384615384615 0  L 5.23076923076923 0  C 5.82051282051282 0  6.32692307692308 0.203125  6.75 0.609375  C 7.17307692307692 1.015625  7.38461538461539 1.50189393939394  7.38461538461539 2.06818181818182  L 7.38461538461539 2.36363636363636  L 13.8461538461538 2.36363636363636  C 14.4358974358974 2.36363636363636  14.9423076923077 2.56676136363636  15.3653846153846 2.97301136363636  Z " fill-rule="nonzero" fill="#555555" stroke="none" transform="matrix(1 0 0 1 133 153 )" />
  </g>
</svg>