<?xml version="1.0" encoding="utf-8"?>
<svg version="1.1" xmlns:xlink="http://www.w3.org/1999/xlink" width="12px" height="12px" viewBox="598 1419  12 12" xmlns="http://www.w3.org/2000/svg">
  <path d="M 598.5 1421  A 1.5 1.5 0 0 1 600 1419.5 L 608 1419.5  A 1.5 1.5 0 0 1 609.5 1421 L 609.5 1429  A 1.5 1.5 0 0 1 608 1430.5 L 600 1430.5  A 1.5 1.5 0 0 1 598.5 1429 L 598.5 1421  Z " fill-rule="nonzero" fill="#ffffff" stroke="none" />
  <path d="M 598.5 1421  A 1.5 1.5 0 0 1 600 1419.5 L 608 1419.5  A 1.5 1.5 0 0 1 609.5 1421 L 609.5 1429  A 1.5 1.5 0 0 1 608 1430.5 L 600 1430.5  A 1.5 1.5 0 0 1 598.5 1429 L 598.5 1421  Z " stroke-width="1" stroke="#7f7f7f" fill="none" />
</svg>