<?xml version="1.0" encoding="utf-8"?>
<svg version="1.1" xmlns:xlink="http://www.w3.org/1999/xlink" width="12px" height="12px" viewBox="279 1870  12 12" xmlns="http://www.w3.org/2000/svg">
  <path d="M 279.5 1872  A 1.5 1.5 0 0 1 281 1870.5 L 289 1870.5  A 1.5 1.5 0 0 1 290.5 1872 L 290.5 1880  A 1.5 1.5 0 0 1 289 1881.5 L 281 1881.5  A 1.5 1.5 0 0 1 279.5 1880 L 279.5 1872  Z " fill-rule="nonzero" fill="#f0f0f0" stroke="none" />
  <path d="M 279.5 1872  A 1.5 1.5 0 0 1 281 1870.5 L 289 1870.5  A 1.5 1.5 0 0 1 290.5 1872 L 290.5 1880  A 1.5 1.5 0 0 1 289 1881.5 L 281 1881.5  A 1.5 1.5 0 0 1 279.5 1880 L 279.5 1872  Z " stroke-width="1" stroke="#7f7f7f" fill="none" />
</svg>