<?xml version="1.0" encoding="utf-8"?>
<svg version="1.1" xmlns:xlink="http://www.w3.org/1999/xlink" width="12px" height="12px" viewBox="284 224  12 12" xmlns="http://www.w3.org/2000/svg">
  <path d="M 284.5 226  A 1.5 1.5 0 0 1 286 224.5 L 294 224.5  A 1.5 1.5 0 0 1 295.5 226 L 295.5 234  A 1.5 1.5 0 0 1 294 235.5 L 286 235.5  A 1.5 1.5 0 0 1 284.5 234 L 284.5 226  Z " fill-rule="nonzero" fill="#f0f0f0" stroke="none" />
  <path d="M 284.5 226  A 1.5 1.5 0 0 1 286 224.5 L 294 224.5  A 1.5 1.5 0 0 1 295.5 226 L 295.5 234  A 1.5 1.5 0 0 1 294 235.5 L 286 235.5  A 1.5 1.5 0 0 1 284.5 234 L 284.5 226  Z " stroke-width="1" stroke="#797979" fill="none" />
</svg>