<?xml version="1.0" encoding="utf-8"?>
<svg version="1.1" xmlns:xlink="http://www.w3.org/1999/xlink" width="12px" height="12px" viewBox="619 1319  12 12" xmlns="http://www.w3.org/2000/svg">
  <path d="M 619.5 1321  A 1.5 1.5 0 0 1 621 1319.5 L 629 1319.5  A 1.5 1.5 0 0 1 630.5 1321 L 630.5 1329  A 1.5 1.5 0 0 1 629 1330.5 L 621 1330.5  A 1.5 1.5 0 0 1 619.5 1329 L 619.5 1321  Z " fill-rule="nonzero" fill="#ffffff" stroke="none" />
  <path d="M 619.5 1321  A 1.5 1.5 0 0 1 621 1319.5 L 629 1319.5  A 1.5 1.5 0 0 1 630.5 1321 L 630.5 1329  A 1.5 1.5 0 0 1 629 1330.5 L 621 1330.5  A 1.5 1.5 0 0 1 619.5 1329 L 619.5 1321  Z " stroke-width="1" stroke="#7f7f7f" fill="none" />
</svg>