<?xml version="1.0" encoding="utf-8"?>
<svg version="1.1" xmlns:xlink="http://www.w3.org/1999/xlink" width="22px" height="22px" xmlns="http://www.w3.org/2000/svg">
  <defs>
    <filter x="60px" y="5474px" width="22px" height="22px" filterUnits="userSpaceOnUse" id="filter57">
      <feOffset dx="1" dy="1" in="SourceAlpha" result="shadowOffsetInner" />
      <feGaussianBlur stdDeviation="2.5" in="shadowOffsetInner" result="shadowGaussian" />
      <feComposite in2="shadowGaussian" operator="atop" in="SourceAlpha" result="shadowComposite" />
      <feColorMatrix type="matrix" values="0 0 0 0 0  0 0 0 0 0  0 0 0 0 0  0 0 0 0.698039215686274 0  " in="shadowComposite" />
    </filter>
    <g id="widget58">
      <path d="M 70 5478  C 73.36 5478  76 5480.64  76 5484  C 76 5487.36  73.36 5490  70 5490  C 66.64 5490  64 5487.36  64 5484  C 64 5480.64  66.64 5478  70 5478  Z " fill-rule="nonzero" fill="#009dd9" stroke="none" />
      <path d="M 70 5478.5  C 73.08 5478.5  75.5 5480.92  75.5 5484  C 75.5 5487.08  73.08 5489.5  70 5489.5  C 66.92 5489.5  64.5 5487.08  64.5 5484  C 64.5 5480.92  66.92 5478.5  70 5478.5  Z " stroke-width="1" stroke="#ffffff" fill="none" />
    </g>
  </defs>
  <g transform="matrix(1 0 0 1 -60 -5474 )">
    <use xlink:href="#widget58" filter="url(#filter57)" />
    <use xlink:href="#widget58" />
  </g>
</svg>