<?xml version="1.0" encoding="utf-8"?>
<svg version="1.1" xmlns:xlink="http://www.w3.org/1999/xlink" width="10px" height="10px" xmlns="http://www.w3.org/2000/svg">
  <g transform="matrix(1 0 0 1 -71 -258 )">
    <path d="M 76 258  C 78.8 258  81 260.2  81 263  C 81 265.8  78.8 268  76 268  C 73.2 268  71 265.8  71 263  C 71 260.2  73.2 258  76 258  Z " fill-rule="nonzero" fill="#000000" stroke="none" />
    <path d="M 76 258.5  C 78.52 258.5  80.5 260.48  80.5 263  C 80.5 265.52  78.52 267.5  76 267.5  C 73.48 267.5  71.5 265.52  71.5 263  C 71.5 260.48  73.48 258.5  76 258.5  Z " stroke-width="1" stroke="#797979" fill="none" />
  </g>
</svg>