<?xml version="1.0" encoding="utf-8"?>
<svg version="1.1" xmlns:xlink="http://www.w3.org/1999/xlink" width="12px" height="12px" viewBox="364 414  12 12" xmlns="http://www.w3.org/2000/svg">
  <path d="M 364.5 416  A 1.5 1.5 0 0 1 366 414.5 L 374 414.5  A 1.5 1.5 0 0 1 375.5 416 L 375.5 424  A 1.5 1.5 0 0 1 374 425.5 L 366 425.5  A 1.5 1.5 0 0 1 364.5 424 L 364.5 416  Z " fill-rule="nonzero" fill="#ffffff" stroke="none" />
  <path d="M 364.5 416  A 1.5 1.5 0 0 1 366 414.5 L 374 414.5  A 1.5 1.5 0 0 1 375.5 416 L 375.5 424  A 1.5 1.5 0 0 1 374 425.5 L 366 425.5  A 1.5 1.5 0 0 1 364.5 424 L 364.5 416  Z " stroke-width="1" stroke="#797979" fill="none" />
</svg>