<?xml version="1.0" encoding="utf-8"?>
<svg version="1.1" xmlns:xlink="http://www.w3.org/1999/xlink" width="12px" height="12px" viewBox="364 197  12 12" xmlns="http://www.w3.org/2000/svg">
  <path d="M 364.5 199  A 1.5 1.5 0 0 1 366 197.5 L 374 197.5  A 1.5 1.5 0 0 1 375.5 199 L 375.5 207  A 1.5 1.5 0 0 1 374 208.5 L 366 208.5  A 1.5 1.5 0 0 1 364.5 207 L 364.5 199  Z " fill-rule="nonzero" fill="#f0f0f0" stroke="none" />
  <path d="M 364.5 199  A 1.5 1.5 0 0 1 366 197.5 L 374 197.5  A 1.5 1.5 0 0 1 375.5 199 L 375.5 207  A 1.5 1.5 0 0 1 374 208.5 L 366 208.5  A 1.5 1.5 0 0 1 364.5 207 L 364.5 199  Z " stroke-width="1" stroke="#797979" fill="none" />
  <path d="M 366.571428571429 203  L 369.142857142857 205.571428571429  " stroke-width="2.57142857142857" stroke="#797979" fill="none" />
  <path d="M 369.142857142857 205.571428571429  L 373.428571428571 199.571428571429  " stroke-width="2.57142857142857" stroke="#797979" fill="none" />
</svg>