<?xml version="1.0" encoding="utf-8"?>
<svg version="1.1" xmlns:xlink="http://www.w3.org/1999/xlink" width="12px" height="12px" viewBox="364 166  12 12" xmlns="http://www.w3.org/2000/svg">
  <path d="M 364.5 168  A 1.5 1.5 0 0 1 366 166.5 L 374 166.5  A 1.5 1.5 0 0 1 375.5 168 L 375.5 176  A 1.5 1.5 0 0 1 374 177.5 L 366 177.5  A 1.5 1.5 0 0 1 364.5 176 L 364.5 168  Z " fill-rule="nonzero" fill="#ffffff" stroke="none" />
  <path d="M 364.5 168  A 1.5 1.5 0 0 1 366 166.5 L 374 166.5  A 1.5 1.5 0 0 1 375.5 168 L 375.5 176  A 1.5 1.5 0 0 1 374 177.5 L 366 177.5  A 1.5 1.5 0 0 1 364.5 176 L 364.5 168  Z " stroke-width="1" stroke="#797979" fill="none" />
  <path d="M 366.571428571429 172  L 369.142857142857 174.571428571429  " stroke-width="2.57142857142857" stroke="#797979" fill="none" />
  <path d="M 369.142857142857 174.571428571429  L 373.428571428571 168.571428571429  " stroke-width="2.57142857142857" stroke="#797979" fill="none" />
</svg>