<?xml version="1.0" encoding="utf-8"?>
<svg version="1.1" xmlns:xlink="http://www.w3.org/1999/xlink" width="12px" height="12px" viewBox="364 228  12 12" xmlns="http://www.w3.org/2000/svg">
  <path d="M 364.5 230  A 1.5 1.5 0 0 1 366 228.5 L 374 228.5  A 1.5 1.5 0 0 1 375.5 230 L 375.5 238  A 1.5 1.5 0 0 1 374 239.5 L 366 239.5  A 1.5 1.5 0 0 1 364.5 238 L 364.5 230  Z " fill-rule="nonzero" fill="#f0f0f0" stroke="none" />
  <path d="M 364.5 230  A 1.5 1.5 0 0 1 366 228.5 L 374 228.5  A 1.5 1.5 0 0 1 375.5 230 L 375.5 238  A 1.5 1.5 0 0 1 374 239.5 L 366 239.5  A 1.5 1.5 0 0 1 364.5 238 L 364.5 230  Z " stroke-width="1" stroke="#797979" fill="none" />
</svg>