<?xml version="1.0" encoding="utf-8"?>
<svg version="1.1" xmlns:xlink="http://www.w3.org/1999/xlink" width="12px" height="12px" viewBox="364 290  12 12" xmlns="http://www.w3.org/2000/svg">
  <path d="M 364.5 292  A 1.5 1.5 0 0 1 366 290.5 L 374 290.5  A 1.5 1.5 0 0 1 375.5 292 L 375.5 300  A 1.5 1.5 0 0 1 374 301.5 L 366 301.5  A 1.5 1.5 0 0 1 364.5 300 L 364.5 292  Z " fill-rule="nonzero" fill="#f0f0f0" stroke="none" />
  <path d="M 364.5 292  A 1.5 1.5 0 0 1 366 290.5 L 374 290.5  A 1.5 1.5 0 0 1 375.5 292 L 375.5 300  A 1.5 1.5 0 0 1 374 301.5 L 366 301.5  A 1.5 1.5 0 0 1 364.5 300 L 364.5 292  Z " stroke-width="1" stroke="#797979" fill="none" />
  <path d="M 366.571428571429 296  L 369.142857142857 298.571428571429  " stroke-width="2.57142857142857" stroke="#797979" fill="none" />
  <path d="M 369.142857142857 298.571428571429  L 373.428571428571 292.571428571429  " stroke-width="2.57142857142857" stroke="#797979" fill="none" />
</svg>