<?xml version="1.0" encoding="utf-8"?>
<svg version="1.1" xmlns:xlink="http://www.w3.org/1999/xlink" width="12px" height="12px" viewBox="364 135  12 12" xmlns="http://www.w3.org/2000/svg">
  <path d="M 364.5 137  A 1.5 1.5 0 0 1 366 135.5 L 374 135.5  A 1.5 1.5 0 0 1 375.5 137 L 375.5 145  A 1.5 1.5 0 0 1 374 146.5 L 366 146.5  A 1.5 1.5 0 0 1 364.5 145 L 364.5 137  Z " fill-rule="nonzero" fill="#ffffff" stroke="none" />
  <path d="M 364.5 137  A 1.5 1.5 0 0 1 366 135.5 L 374 135.5  A 1.5 1.5 0 0 1 375.5 137 L 375.5 145  A 1.5 1.5 0 0 1 374 146.5 L 366 146.5  A 1.5 1.5 0 0 1 364.5 145 L 364.5 137  Z " stroke-width="1" stroke="#797979" fill="none" />
</svg>