<?xml version="1.0" encoding="utf-8"?>
<svg version="1.1" xmlns:xlink="http://www.w3.org/1999/xlink" width="56px" height="20px" xmlns="http://www.w3.org/2000/svg">
  <defs>
    <linearGradient gradientUnits="userSpaceOnUse" x1="2826" y1="140" x2="2826" y2="160" id="LinearGradient243">
      <stop id="Stop244" stop-color="#5a9cf8" offset="0" />
      <stop id="Stop245" stop-color="#84b7fc" offset="1" />
    </linearGradient>
  </defs>
  <g transform="matrix(1 0 0 1 -2798 -140 )">
    <path d="M 2798.5 150  A 9.5 9.5 0 0 1 2808 140.5 L 2844 140.5  A 9.5 9.5 0 0 1 2853.5 150 A 9.5 9.5 0 0 1 2844 159.5 L 2808 159.5  A 9.5 9.5 0 0 1 2798.5 150 Z " fill-rule="nonzero" fill="#ffffff" stroke="none" />
    <path d="M 2798.5 150  A 9.5 9.5 0 0 1 2808 140.5 L 2844 140.5  A 9.5 9.5 0 0 1 2853.5 150 A 9.5 9.5 0 0 1 2844 159.5 L 2808 159.5  A 9.5 9.5 0 0 1 2798.5 150 Z " stroke-width="1" stroke="url(#LinearGradient243)" fill="none" />
  </g>
</svg>