<?xml version="1.0" encoding="utf-8"?>
<svg version="1.1" xmlns:xlink="http://www.w3.org/1999/xlink" width="11px" height="13px" xmlns="http://www.w3.org/2000/svg">
  <g transform="matrix(1 0 0 1 -2294 -1270 )">
    <path d="M 7.55588942307692 7.95814732142857  C 7.59555288461539 8.00167410714286  7.61538461538461 8.05729166666666  7.61538461538461 8.125  L 7.61538461538461 8.58928571428571  C 7.61538461538461 8.65699404761905  7.59555288461539 8.71261160714286  7.55588942307692 8.75613839285714  C 7.51622596153846 8.79966517857143  7.46554487179487 8.82142857142857  7.40384615384615 8.82142857142857  L 3.59615384615385 8.82142857142857  C 3.53445512820513 8.82142857142857  3.48377403846154 8.79966517857143  3.44411057692308 8.75613839285714  C 3.40444711538461 8.71261160714286  3.38461538461539 8.65699404761905  3.38461538461539 8.58928571428571  L 3.38461538461539 8.125  C 3.38461538461539 8.05729166666666  3.40444711538461 8.00167410714286  3.44411057692308 7.95814732142857  C 3.48377403846154 7.91462053571429  3.53445512820513 7.89285714285714  3.59615384615385 7.89285714285714  L 7.40384615384615 7.89285714285714  C 7.46554487179487 7.89285714285714  7.51622596153846 7.91462053571429  7.55588942307692 7.95814732142857  Z M 0.846153846153846 4.64285714285714  L 0.846153846153846 12.0714285714286  L 10.1538461538462 12.0714285714286  L 10.1538461538462 4.64285714285714  L 0.846153846153846 4.64285714285714  Z M 3.32512019230769 3.41685267857143  C 3.36478365384615 3.37332589285714  3.38461538461539 3.31770833333333  3.38461538461539 3.25  L 3.38461538461539 1.16071428571429  C 3.38461538461539 1.09300595238095  3.36478365384615 1.03738839285714  3.32512019230769 0.993861607142858  C 3.28545673076923 0.950334821428572  3.23477564102564 0.928571428571428  3.17307692307692 0.928571428571428  L 2.75 0.928571428571428  C 2.68830128205128 0.928571428571428  2.63762019230769 0.950334821428572  2.59795673076923 0.993861607142858  C 2.55829326923077 1.03738839285714  2.53846153846154 1.09300595238095  2.53846153846154 1.16071428571429  L 2.53846153846154 3.25  C 2.53846153846154 3.31770833333333  2.55829326923077 3.37332589285714  2.59795673076923 3.41685267857143  C 2.63762019230769 3.46037946428571  2.68830128205128 3.48214285714286  2.75 3.48214285714286  L 3.17307692307692 3.48214285714286  C 3.23477564102564 3.48214285714286  3.28545673076923 3.46037946428571  3.32512019230769 3.41685267857143  Z M 8.40204326923077 3.41685267857143  C 8.44170673076923 3.37332589285714  8.46153846153846 3.31770833333333  8.46153846153846 3.25  L 8.46153846153846 1.16071428571429  C 8.46153846153846 1.09300595238095  8.44170673076923 1.03738839285714  8.40204326923077 0.993861607142858  C 8.36237980769231 0.950334821428572  8.31169871794872 0.928571428571428  8.25 0.928571428571428  L 7.82692307692308 0.928571428571428  C 7.76522435897436 0.928571428571428  7.71454326923077 0.950334821428572  7.67487980769231 0.993861607142858  C 7.63521634615385 1.03738839285714  7.61538461538461 1.09300595238095  7.61538461538461 1.16071428571429  L 7.61538461538461 3.25  C 7.61538461538461 3.31770833333333  7.63521634615385 3.37332589285714  7.67487980769231 3.41685267857143  C 7.71454326923077 3.46037946428571  7.76522435897436 3.48214285714286  7.82692307692308 3.48214285714286  L 8.25 3.48214285714286  C 8.31169871794872 3.48214285714286  8.36237980769231 3.46037946428571  8.40204326923077 3.41685267857143  Z M 10.7487980769231 2.1328125  C 10.916266025641 2.31659226190476  11 2.53422619047619  11 2.78571428571429  L 11 12.0714285714286  C 11 12.3229166666667  10.916266025641 12.5405505952381  10.7487980769231 12.7243303571429  C 10.5813301282051 12.9081101190476  10.3830128205128 13  10.1538461538462 13  L 0.846153846153846 13  C 0.61698717948718 13  0.418669871794872 12.9081101190476  0.251201923076923 12.7243303571429  C 0.0837339743589744 12.5405505952381  0 12.3229166666667  0 12.0714285714286  L 0 2.78571428571429  C 0 2.53422619047619  0.0837339743589744 2.31659226190476  0.251201923076923 2.1328125  C 0.418669871794872 1.94903273809524  0.61698717948718 1.85714285714286  0.846153846153846 1.85714285714286  L 1.69230769230769 1.85714285714286  L 1.69230769230769 1.16071428571429  C 1.69230769230769 0.841517857142858  1.7958733974359 0.568266369047618  2.00300480769231 0.340959821428572  C 2.21013621794872 0.113653273809524  2.45913461538462 0  2.75 0  L 3.17307692307692 0  C 3.46394230769231 0  3.71294070512821 0.113653273809524  3.92007211538461 0.340959821428572  C 4.12720352564103 0.568266369047618  4.23076923076923 0.841517857142858  4.23076923076923 1.16071428571429  L 4.23076923076923 1.85714285714286  L 6.76923076923077 1.85714285714286  L 6.76923076923077 1.16071428571429  C 6.76923076923077 0.841517857142858  6.87279647435897 0.568266369047618  7.07992788461539 0.340959821428572  C 7.2870592948718 0.113653273809524  7.53605769230769 0  7.82692307692308 0  L 8.25 0  C 8.54086538461539 0  8.78986378205128 0.113653273809524  8.99699519230769 0.340959821428572  C 9.2041266025641 0.568266369047618  9.30769230769231 0.841517857142858  9.30769230769231 1.16071428571429  L 9.30769230769231 1.85714285714286  L 10.1538461538462 1.85714285714286  C 10.3830128205128 1.85714285714286  10.5813301282051 1.94903273809524  10.7487980769231 2.1328125  Z " fill-rule="nonzero" fill="#000000" stroke="none" transform="matrix(1 0 0 1 2294 1270 )" />
  </g>
</svg>