<?xml version="1.0" encoding="utf-8"?>
<svg version="1.1" xmlns:xlink="http://www.w3.org/1999/xlink" width="349px" height="55px" xmlns="http://www.w3.org/2000/svg">
  <defs>
    <filter x="2300px" y="631px" width="349px" height="55px" filterUnits="userSpaceOnUse" id="filter667">
      <feOffset dx="0" dy="0" in="SourceAlpha" result="shadowOffsetInner" />
      <feGaussianBlur stdDeviation="1.5" in="shadowOffsetInner" result="shadowGaussian" />
      <feComposite in2="shadowGaussian" operator="atop" in="SourceAlpha" result="shadowComposite" />
      <feColorMatrix type="matrix" values="0 0 0 0 0  0 0 0 0 0  0 0 0 0 0  0 0 0 0.349019607843137 0  " in="shadowComposite" />
    </filter>
    <g id="widget668">
      <path d="M 0 42.3729508196721  L 0 10.2618852459016  C 0 6.57322950819665  7.22970059880234 3.675  16.4311377245509 4  L 82.6280892904597 4  L 86.8411584028082 0.227906976744204  L 90.2902223197308 4  L 326.568862275449 4  C 335.770299401198 3.675  343 6.57322950819665  343 10.2618852459016  L 343 42.3729508196721  C 343 46.061606557377  335.770299401198 48.9598360655738  326.568862275449 49  L 136.265199161425 49  L 109.299790356394 49  L 16.4311377245509 49  C 7.22970059880234 48.9598360655738  0 46.061606557377  0 42.3729508196721  Z " fill-rule="nonzero" fill="#ffffff" stroke="none" transform="matrix(1 0 0 1 2303 634 )" />
    </g>
  </defs>
  <g transform="matrix(1 0 0 1 -2300 -631 )">
    <use xlink:href="#widget668" filter="url(#filter667)" />
    <use xlink:href="#widget668" />
  </g>
</svg>