<?xml version="1.0" encoding="utf-8"?>
<svg version="1.1" xmlns:xlink="http://www.w3.org/1999/xlink" width="249px" height="55px" xmlns="http://www.w3.org/2000/svg">
  <defs>
    <filter x="2300px" y="538px" width="249px" height="55px" filterUnits="userSpaceOnUse" id="filter134">
      <feOffset dx="0" dy="0" in="SourceAlpha" result="shadowOffsetInner" />
      <feGaussianBlur stdDeviation="1.5" in="shadowOffsetInner" result="shadowGaussian" />
      <feComposite in2="shadowGaussian" operator="atop" in="SourceAlpha" result="shadowComposite" />
      <feColorMatrix type="matrix" values="0 0 0 0 0  0 0 0 0 0  0 0 0 0 0  0 0 0 0.349019607843137 0  " in="shadowComposite" />
    </filter>
    <g id="widget135">
      <path d="M 0 42.3729508196721  L 0 10.2618852459016  C 0 6.57322950819665  5.12191616766463 3.675  11.6407185628743 4  L 58.5382673398884 4  L 61.5230364194822 0.227906976744204  L 63.9665423431329 4  L 231.359281437126 4  C 237.878083832335 3.675  243 6.57322950819665  243 10.2618852459016  L 243 42.3729508196721  C 243 46.061606557377  237.878083832335 48.9598360655738  231.359281437126 49  L 96.5377358490565 49  L 77.4339622641509 49  L 11.6407185628743 49  C 5.12191616766463 48.9598360655738  0 46.061606557377  0 42.3729508196721  Z " fill-rule="nonzero" fill="#ffffff" stroke="none" transform="matrix(1 0 0 1 2303 541 )" />
    </g>
  </defs>
  <g transform="matrix(1 0 0 1 -2300 -538 )">
    <use xlink:href="#widget135" filter="url(#filter134)" />
    <use xlink:href="#widget135" />
  </g>
</svg>