<?xml version="1.0" encoding="utf-8"?>
<svg version="1.1" xmlns:xlink="http://www.w3.org/1999/xlink" width="17px" height="20px" xmlns="http://www.w3.org/2000/svg">
  <g transform="matrix(1 0 0 1 -295 -494 )">
    <path d="M 16.9098772321429 12.9985119047619  C 16.969959077381 13.0927579365079  17 13.2043650793651  17 13.3333333333333  L 17 16.1904761904762  C 17 16.3194444444444  16.969959077381 16.4310515873016  16.9098772321429 16.5252976190476  C 16.8497953869048 16.6195436507936  16.7786458333333 16.6666666666667  16.6964285714286 16.6666666666667  L 3.64285714285714 16.6666666666667  L 3.64285714285714 19.5238095238095  C 3.64285714285714 19.6527777777778  3.6128162202381 19.7643849206349  3.552734375 19.858630952381  C 3.4926525297619 19.952876984127  3.42150297619048 20  3.33928571428571 20  C 3.26339285714286 20  3.1875 19.9503968253968  3.11160714285714 19.8511904761905  L 0.0853794642857143 15.0892857142857  C 0.0284598214285714 15  0 14.890873015873  0 14.7619047619048  C 0 14.6230158730159  0.0284598214285714 14.5089285714286  0.0853794642857143 14.4196428571429  L 3.12109375 9.65773809523809  C 3.17801339285714 9.56845238095238  3.25074404761905 9.52380952380952  3.33928571428571 9.52380952380952  C 3.42150297619048 9.52380952380952  3.4926525297619 9.57093253968254  3.552734375 9.66517857142857  C 3.6128162202381 9.7594246031746  3.64285714285714 9.87103174603174  3.64285714285714 10  L 3.64285714285714 12.8571428571429  L 16.6964285714286 12.8571428571429  C 16.7786458333333 12.8571428571429  16.8497953869048 12.9042658730159  16.9098772321429 12.9985119047619  Z M 16.9146205357143 4.89583333333333  C 16.9715401785714 4.98511904761905  17 5.09920634920635  17 5.23809523809524  C 17 5.37698412698413  16.9715401785714 5.49107142857143  16.9146205357143 5.58035714285714  L 13.87890625 10.3422619047619  C 13.8219866071429 10.4315476190476  13.749255952381 10.4761904761905  13.6607142857143 10.4761904761905  C 13.5784970238095 10.4761904761905  13.5073474702381 10.4290674603175  13.447265625 10.3348214285714  C 13.3871837797619 10.2405753968254  13.3571428571429 10.1289682539683  13.3571428571429 10  L 13.3571428571429 7.14285714285714  L 0.303571428571429 7.14285714285714  C 0.221354166666667 7.14285714285714  0.150204613095238 7.09573412698413  0.0901227678571429 7.00148809523809  C 0.0300409226190476 6.90724206349206  0 6.79563492063492  0 6.66666666666667  L 0 3.80952380952381  C 0 3.68055555555555  0.0300409226190476 3.56894841269841  0.0901227678571429 3.47470238095238  C 0.150204613095238 3.38045634920635  0.221354166666667 3.33333333333333  0.303571428571429 3.33333333333333  L 13.3571428571429 3.33333333333333  L 13.3571428571429 0.476190476190477  C 13.3571428571429 0.337301587301586  13.3856026785714 0.223214285714286  13.4425223214286 0.133928571428572  C 13.4994419642857 0.0446428571428581  13.5721726190476 0  13.6607142857143 0  C 13.7366071428571 0  13.8125 0.0496031746031744  13.8883928571429 0.148809523809523  L 16.9146205357143 4.89583333333333  Z " fill-rule="nonzero" fill="#aaaaaa" stroke="none" transform="matrix(1 0 0 1 295 494 )" />
  </g>
</svg>