<?xml version="1.0" encoding="utf-8"?>
<svg version="1.1" xmlns:xlink="http://www.w3.org/1999/xlink" width="421px" height="129px" xmlns="http://www.w3.org/2000/svg">
  <g transform="matrix(1 0 0 1 -259 -1356 )">
    <path d="M 260 1361  A 4 4 0 0 1 264 1357 L 675 1357  A 4 4 0 0 1 679 1361 L 679 1480  A 4 4 0 0 1 675 1484 L 264 1484  A 4 4 0 0 1 260 1480 L 260 1361  Z " fill-rule="nonzero" fill="#ffffff" stroke="none" />
    <path d="M 259.5 1361  A 4.5 4.5 0 0 1 264 1356.5 L 675 1356.5  A 4.5 4.5 0 0 1 679.5 1361 L 679.5 1480  A 4.5 4.5 0 0 1 675 1484.5 L 264 1484.5  A 4.5 4.5 0 0 1 259.5 1480 L 259.5 1361  Z " stroke-width="1" stroke-dasharray="3,1" stroke="#797979" fill="none" stroke-dashoffset="0.5" />
  </g>
</svg>