<?xml version="1.0" encoding="utf-8"?>
<svg version="1.1" xmlns:xlink="http://www.w3.org/1999/xlink" width="216px" height="116px" xmlns="http://www.w3.org/2000/svg">
  <g transform="matrix(1 0 0 1 -404 -1777 )">
    <path d="M 405 1782  A 4 4 0 0 1 409 1778 L 615 1778  A 4 4 0 0 1 619 1782 L 619 1888  A 4 4 0 0 1 615 1892 L 409 1892  A 4 4 0 0 1 405 1888 L 405 1782  Z " fill-rule="nonzero" fill="#ffffff" stroke="none" />
    <path d="M 404.5 1782  A 4.5 4.5 0 0 1 409 1777.5 L 615 1777.5  A 4.5 4.5 0 0 1 619.5 1782 L 619.5 1888  A 4.5 4.5 0 0 1 615 1892.5 L 409 1892.5  A 4.5 4.5 0 0 1 404.5 1888 L 404.5 1782  Z " stroke-width="1" stroke-dasharray="3,1" stroke="#797979" fill="none" stroke-dashoffset="0.5" />
  </g>
</svg>