<?xml version="1.0" encoding="utf-8"?>
<svg version="1.1" xmlns:xlink="http://www.w3.org/1999/xlink" width="216px" height="118px" xmlns="http://www.w3.org/2000/svg">
  <g transform="matrix(1 0 0 1 -324 -1089 )">
    <path d="M 325 1094  A 4 4 0 0 1 329 1090 L 535 1090  A 4 4 0 0 1 539 1094 L 539 1202  A 4 4 0 0 1 535 1206 L 329 1206  A 4 4 0 0 1 325 1202 L 325 1094  Z " fill-rule="nonzero" fill="#ffffff" stroke="none" />
    <path d="M 324.5 1094  A 4.5 4.5 0 0 1 329 1089.5 L 535 1089.5  A 4.5 4.5 0 0 1 539.5 1094 L 539.5 1202  A 4.5 4.5 0 0 1 535 1206.5 L 329 1206.5  A 4.5 4.5 0 0 1 324.5 1202 L 324.5 1094  Z " stroke-width="1" stroke-dasharray="3,1" stroke="#797979" fill="none" stroke-dashoffset="0.5" />
  </g>
</svg>