<?xml version="1.0" encoding="utf-8"?>
<svg version="1.1" xmlns:xlink="http://www.w3.org/1999/xlink" width="12px" height="12px" viewBox="473 1237  12 12" xmlns="http://www.w3.org/2000/svg">
  <path d="M 479 1237  C 482.36 1237  485 1239.64  485 1243  C 485 1246.36  482.36 1249  479 1249  C 475.64 1249  473 1246.36  473 1243  C 473 1239.64  475.64 1237  479 1237  Z " fill-rule="nonzero" fill="#f0f0f0" stroke="none" />
  <path d="M 479 1237.5  C 482.08 1237.5  484.5 1239.92  484.5 1243  C 484.5 1246.08  482.08 1248.5  479 1248.5  C 475.92 1248.5  473.5 1246.08  473.5 1243  C 473.5 1239.92  475.92 1237.5  479 1237.5  Z " stroke-width="1" stroke="#797979" fill="none" />
  <path d="M 479 1246  C 477.32 1246  476 1244.68  476 1243  C 476 1241.32  477.32 1240  479 1240  C 480.68 1240  482 1241.32  482 1243  C 482 1244.68  480.68 1246  479 1246  " fill-rule="nonzero" fill="#797979" stroke="none" />
</svg>