<?xml version="1.0" encoding="utf-8"?>
<svg version="1.1" xmlns:xlink="http://www.w3.org/1999/xlink" width="12px" height="12px" viewBox="404 1237  12 12" xmlns="http://www.w3.org/2000/svg">
  <path d="M 410 1237  C 413.36 1237  416 1239.64  416 1243  C 416 1246.36  413.36 1249  410 1249  C 406.64 1249  404 1246.36  404 1243  C 404 1239.64  406.64 1237  410 1237  Z " fill-rule="nonzero" fill="#f0f0f0" stroke="none" />
  <path d="M 410 1237.5  C 413.08 1237.5  415.5 1239.92  415.5 1243  C 415.5 1246.08  413.08 1248.5  410 1248.5  C 406.92 1248.5  404.5 1246.08  404.5 1243  C 404.5 1239.92  406.92 1237.5  410 1237.5  Z " stroke-width="1" stroke="#797979" fill="none" />
  <path d="M 410 1246  C 408.32 1246  407 1244.68  407 1243  C 407 1241.32  408.32 1240  410 1240  C 411.68 1240  413 1241.32  413 1243  C 413 1244.68  411.68 1246  410 1246  " fill-rule="nonzero" fill="#797979" stroke="none" />
</svg>