<?xml version="1.0" encoding="utf-8"?>
<svg version="1.1" xmlns:xlink="http://www.w3.org/1999/xlink" width="12px" height="12px" viewBox="65 258  12 12" xmlns="http://www.w3.org/2000/svg">
  <path d="M 65.5 260  A 1.5 1.5 0 0 1 67 258.5 L 75 258.5  A 1.5 1.5 0 0 1 76.5 260 L 76.5 268  A 1.5 1.5 0 0 1 75 269.5 L 67 269.5  A 1.5 1.5 0 0 1 65.5 268 L 65.5 260  Z " fill-rule="nonzero" fill="#f0f0f0" stroke="none" />
  <path d="M 65.5 260  A 1.5 1.5 0 0 1 67 258.5 L 75 258.5  A 1.5 1.5 0 0 1 76.5 260 L 76.5 268  A 1.5 1.5 0 0 1 75 269.5 L 67 269.5  A 1.5 1.5 0 0 1 65.5 268 L 65.5 260  Z " stroke-width="1" stroke="#797979" fill="none" />
</svg>