<?xml version="1.0" encoding="utf-8"?>
<svg version="1.1" xmlns:xlink="http://www.w3.org/1999/xlink" width="12px" height="12px" viewBox="65 430  12 12" xmlns="http://www.w3.org/2000/svg">
  <path d="M 65.5 432  A 1.5 1.5 0 0 1 67 430.5 L 75 430.5  A 1.5 1.5 0 0 1 76.5 432 L 76.5 440  A 1.5 1.5 0 0 1 75 441.5 L 67 441.5  A 1.5 1.5 0 0 1 65.5 440 L 65.5 432  Z " fill-rule="nonzero" fill="#ffffff" stroke="none" />
  <path d="M 65.5 432  A 1.5 1.5 0 0 1 67 430.5 L 75 430.5  A 1.5 1.5 0 0 1 76.5 432 L 76.5 440  A 1.5 1.5 0 0 1 75 441.5 L 67 441.5  A 1.5 1.5 0 0 1 65.5 440 L 65.5 432  Z " stroke-width="1" stroke="#797979" fill="none" />
</svg>