<?xml version="1.0" encoding="utf-8"?>
<svg version="1.1" xmlns:xlink="http://www.w3.org/1999/xlink" width="12px" height="12px" viewBox="977 659  12 12" xmlns="http://www.w3.org/2000/svg">
  <path d="M 977.5 661  A 1.5 1.5 0 0 1 979 659.5 L 987 659.5  A 1.5 1.5 0 0 1 988.5 661 L 988.5 669  A 1.5 1.5 0 0 1 987 670.5 L 979 670.5  A 1.5 1.5 0 0 1 977.5 669 L 977.5 661  Z " fill-rule="nonzero" fill="#ffffff" stroke="none" />
  <path d="M 977.5 661  A 1.5 1.5 0 0 1 979 659.5 L 987 659.5  A 1.5 1.5 0 0 1 988.5 661 L 988.5 669  A 1.5 1.5 0 0 1 987 670.5 L 979 670.5  A 1.5 1.5 0 0 1 977.5 669 L 977.5 661  Z " stroke-width="1" stroke="#7f7f7f" fill="none" />
  <path d="M 979.571428571429 665  L 982.142857142857 667.571428571429  " stroke-width="2.57142857142857" stroke="#7f7f7f" fill="none" />
  <path d="M 982.142857142857 667.571428571429  L 986.428571428571 661.571428571429  " stroke-width="2.57142857142857" stroke="#7f7f7f" fill="none" />
</svg>