<?xml version="1.0" encoding="utf-8"?>
<svg version="1.1" xmlns:xlink="http://www.w3.org/1999/xlink" width="12px" height="12px" viewBox="2611 405  12 12" xmlns="http://www.w3.org/2000/svg">
  <path d="M 2611.5 407  A 1.5 1.5 0 0 1 2613 405.5 L 2621 405.5  A 1.5 1.5 0 0 1 2622.5 407 L 2622.5 415  A 1.5 1.5 0 0 1 2621 416.5 L 2613 416.5  A 1.5 1.5 0 0 1 2611.5 415 L 2611.5 407  Z " fill-rule="nonzero" fill="#ffffff" stroke="none" />
  <path d="M 2611.5 407  A 1.5 1.5 0 0 1 2613 405.5 L 2621 405.5  A 1.5 1.5 0 0 1 2622.5 407 L 2622.5 415  A 1.5 1.5 0 0 1 2621 416.5 L 2613 416.5  A 1.5 1.5 0 0 1 2611.5 415 L 2611.5 407  Z " stroke-width="1" stroke="#7f7f7f" fill="none" />
  <path d="M 2613.57142857143 411  L 2616.14285714286 413.571428571429  " stroke-width="2.57142857142857" stroke="#7f7f7f" fill="none" />
  <path d="M 2616.14285714286 413.571428571429  L 2620.42857142857 407.571428571429  " stroke-width="2.57142857142857" stroke="#7f7f7f" fill="none" />
</svg>