<?xml version="1.0" encoding="utf-8"?>
<svg version="1.1" xmlns:xlink="http://www.w3.org/1999/xlink" width="12px" height="12px" viewBox="2330 405  12 12" xmlns="http://www.w3.org/2000/svg">
  <path d="M 2330.5 407  A 1.5 1.5 0 0 1 2332 405.5 L 2340 405.5  A 1.5 1.5 0 0 1 2341.5 407 L 2341.5 415  A 1.5 1.5 0 0 1 2340 416.5 L 2332 416.5  A 1.5 1.5 0 0 1 2330.5 415 L 2330.5 407  Z " fill-rule="nonzero" fill="#f0f0f0" stroke="none" />
  <path d="M 2330.5 407  A 1.5 1.5 0 0 1 2332 405.5 L 2340 405.5  A 1.5 1.5 0 0 1 2341.5 407 L 2341.5 415  A 1.5 1.5 0 0 1 2340 416.5 L 2332 416.5  A 1.5 1.5 0 0 1 2330.5 415 L 2330.5 407  Z " stroke-width="1" stroke="#7f7f7f" fill="none" />
  <path d="M 2332.57142857143 411  L 2335.14285714286 413.571428571429  " stroke-width="2.57142857142857" stroke="#7f7f7f" fill="none" />
  <path d="M 2335.14285714286 413.571428571429  L 2339.42857142857 407.571428571429  " stroke-width="2.57142857142857" stroke="#7f7f7f" fill="none" />
</svg>