<?xml version="1.0" encoding="utf-8"?>
<svg version="1.1" xmlns:xlink="http://www.w3.org/1999/xlink" width="12px" height="12px" viewBox="2480 659  12 12" xmlns="http://www.w3.org/2000/svg">
  <path d="M 2480.5 661  A 1.5 1.5 0 0 1 2482 659.5 L 2490 659.5  A 1.5 1.5 0 0 1 2491.5 661 L 2491.5 669  A 1.5 1.5 0 0 1 2490 670.5 L 2482 670.5  A 1.5 1.5 0 0 1 2480.5 669 L 2480.5 661  Z " fill-rule="nonzero" fill="#ffffff" stroke="none" />
  <path d="M 2480.5 661  A 1.5 1.5 0 0 1 2482 659.5 L 2490 659.5  A 1.5 1.5 0 0 1 2491.5 661 L 2491.5 669  A 1.5 1.5 0 0 1 2490 670.5 L 2482 670.5  A 1.5 1.5 0 0 1 2480.5 669 L 2480.5 661  Z " stroke-width="1" stroke="#7f7f7f" fill="none" />
  <path d="M 2482.57142857143 665  L 2485.14285714286 667.571428571429  " stroke-width="2.57142857142857" stroke="#7f7f7f" fill="none" />
  <path d="M 2485.14285714286 667.571428571429  L 2489.42857142857 661.571428571429  " stroke-width="2.57142857142857" stroke="#7f7f7f" fill="none" />
</svg>