<?xml version="1.0" encoding="utf-8"?>
<svg version="1.1" xmlns:xlink="http://www.w3.org/1999/xlink" width="12px" height="12px" viewBox="2211 692  12 12" xmlns="http://www.w3.org/2000/svg">
  <path d="M 2211.5 694  A 1.5 1.5 0 0 1 2213 692.5 L 2221 692.5  A 1.5 1.5 0 0 1 2222.5 694 L 2222.5 702  A 1.5 1.5 0 0 1 2221 703.5 L 2213 703.5  A 1.5 1.5 0 0 1 2211.5 702 L 2211.5 694  Z " fill-rule="nonzero" fill="#f0f0f0" stroke="none" />
  <path d="M 2211.5 694  A 1.5 1.5 0 0 1 2213 692.5 L 2221 692.5  A 1.5 1.5 0 0 1 2222.5 694 L 2222.5 702  A 1.5 1.5 0 0 1 2221 703.5 L 2213 703.5  A 1.5 1.5 0 0 1 2211.5 702 L 2211.5 694  Z " stroke-width="1" stroke="#7f7f7f" fill="none" />
  <path d="M 2213.57142857143 698  L 2216.14285714286 700.571428571429  " stroke-width="2.57142857142857" stroke="#7f7f7f" fill="none" />
  <path d="M 2216.14285714286 700.571428571429  L 2220.42857142857 694.571428571429  " stroke-width="2.57142857142857" stroke="#7f7f7f" fill="none" />
</svg>