<?xml version="1.0" encoding="utf-8"?>
<svg version="1.1" xmlns:xlink="http://www.w3.org/1999/xlink" width="12px" height="12px" viewBox="2211 608  12 12" xmlns="http://www.w3.org/2000/svg">
  <path d="M 2211.5 610  A 1.5 1.5 0 0 1 2213 608.5 L 2221 608.5  A 1.5 1.5 0 0 1 2222.5 610 L 2222.5 618  A 1.5 1.5 0 0 1 2221 619.5 L 2213 619.5  A 1.5 1.5 0 0 1 2211.5 618 L 2211.5 610  Z " fill-rule="nonzero" fill="#ffffff" stroke="none" />
  <path d="M 2211.5 610  A 1.5 1.5 0 0 1 2213 608.5 L 2221 608.5  A 1.5 1.5 0 0 1 2222.5 610 L 2222.5 618  A 1.5 1.5 0 0 1 2221 619.5 L 2213 619.5  A 1.5 1.5 0 0 1 2211.5 618 L 2211.5 610  Z " stroke-width="1" stroke="#7f7f7f" fill="none" />
</svg>