<?xml version="1.0" encoding="utf-8"?>
<svg version="1.1" xmlns:xlink="http://www.w3.org/1999/xlink" width="12px" height="12px" viewBox="2330 608  12 12" xmlns="http://www.w3.org/2000/svg">
  <path d="M 2330.5 610  A 1.5 1.5 0 0 1 2332 608.5 L 2340 608.5  A 1.5 1.5 0 0 1 2341.5 610 L 2341.5 618  A 1.5 1.5 0 0 1 2340 619.5 L 2332 619.5  A 1.5 1.5 0 0 1 2330.5 618 L 2330.5 610  Z " fill-rule="nonzero" fill="#ffffff" stroke="none" />
  <path d="M 2330.5 610  A 1.5 1.5 0 0 1 2332 608.5 L 2340 608.5  A 1.5 1.5 0 0 1 2341.5 610 L 2341.5 618  A 1.5 1.5 0 0 1 2340 619.5 L 2332 619.5  A 1.5 1.5 0 0 1 2330.5 618 L 2330.5 610  Z " stroke-width="1" stroke="#7f7f7f" fill="none" />
  <path d="M 2332.57142857143 614  L 2335.14285714286 616.571428571429  " stroke-width="2.57142857142857" stroke="#7f7f7f" fill="none" />
  <path d="M 2335.14285714286 616.571428571429  L 2339.42857142857 610.571428571429  " stroke-width="2.57142857142857" stroke="#7f7f7f" fill="none" />
</svg>