<?xml version="1.0" encoding="utf-8"?>
<svg version="1.1" xmlns:xlink="http://www.w3.org/1999/xlink" width="12px" height="12px" viewBox="827 659  12 12" xmlns="http://www.w3.org/2000/svg">
  <path d="M 827.5 661  A 1.5 1.5 0 0 1 829 659.5 L 837 659.5  A 1.5 1.5 0 0 1 838.5 661 L 838.5 669  A 1.5 1.5 0 0 1 837 670.5 L 829 670.5  A 1.5 1.5 0 0 1 827.5 669 L 827.5 661  Z " fill-rule="nonzero" fill="#ffffff" stroke="none" />
  <path d="M 827.5 661  A 1.5 1.5 0 0 1 829 659.5 L 837 659.5  A 1.5 1.5 0 0 1 838.5 661 L 838.5 669  A 1.5 1.5 0 0 1 837 670.5 L 829 670.5  A 1.5 1.5 0 0 1 827.5 669 L 827.5 661  Z " stroke-width="1" stroke="#7f7f7f" fill="none" />
  <path d="M 829.571428571429 665  L 832.142857142857 667.571428571429  " stroke-width="2.57142857142857" stroke="#7f7f7f" fill="none" />
  <path d="M 832.142857142857 667.571428571429  L 836.428571428571 661.571428571429  " stroke-width="2.57142857142857" stroke="#7f7f7f" fill="none" />
</svg>