<?xml version="1.0" encoding="utf-8"?>
<svg version="1.1" xmlns:xlink="http://www.w3.org/1999/xlink" width="12px" height="12px" viewBox="587 558  12 12" xmlns="http://www.w3.org/2000/svg">
  <path d="M 587.5 560  A 1.5 1.5 0 0 1 589 558.5 L 597 558.5  A 1.5 1.5 0 0 1 598.5 560 L 598.5 568  A 1.5 1.5 0 0 1 597 569.5 L 589 569.5  A 1.5 1.5 0 0 1 587.5 568 L 587.5 560  Z " fill-rule="nonzero" fill="#f0f0f0" stroke="none" />
  <path d="M 587.5 560  A 1.5 1.5 0 0 1 589 558.5 L 597 558.5  A 1.5 1.5 0 0 1 598.5 560 L 598.5 568  A 1.5 1.5 0 0 1 597 569.5 L 589 569.5  A 1.5 1.5 0 0 1 587.5 568 L 587.5 560  Z " stroke-width="1" stroke="#7f7f7f" fill="none" />
  <path d="M 589.571428571429 564  L 592.142857142857 566.571428571429  " stroke-width="2.57142857142857" stroke="#7f7f7f" fill="none" />
  <path d="M 592.142857142857 566.571428571429  L 596.428571428571 560.571428571429  " stroke-width="2.57142857142857" stroke="#7f7f7f" fill="none" />
</svg>