<?xml version="1.0" encoding="utf-8"?>
<svg version="1.1" xmlns:xlink="http://www.w3.org/1999/xlink" width="12px" height="12px" viewBox="2330 506  12 12" xmlns="http://www.w3.org/2000/svg">
  <path d="M 2330.5 508  A 1.5 1.5 0 0 1 2332 506.5 L 2340 506.5  A 1.5 1.5 0 0 1 2341.5 508 L 2341.5 516  A 1.5 1.5 0 0 1 2340 517.5 L 2332 517.5  A 1.5 1.5 0 0 1 2330.5 516 L 2330.5 508  Z " fill-rule="nonzero" fill="#f0f0f0" stroke="none" />
  <path d="M 2330.5 508  A 1.5 1.5 0 0 1 2332 506.5 L 2340 506.5  A 1.5 1.5 0 0 1 2341.5 508 L 2341.5 516  A 1.5 1.5 0 0 1 2340 517.5 L 2332 517.5  A 1.5 1.5 0 0 1 2330.5 516 L 2330.5 508  Z " stroke-width="1" stroke="#7f7f7f" fill="none" />
</svg>