<?xml version="1.0" encoding="utf-8"?>
<svg version="1.1" xmlns:xlink="http://www.w3.org/1999/xlink" width="12px" height="12px" viewBox="1972 894  12 12" xmlns="http://www.w3.org/2000/svg">
  <path d="M 1972.5 896  A 1.5 1.5 0 0 1 1974 894.5 L 1982 894.5  A 1.5 1.5 0 0 1 1983.5 896 L 1983.5 904  A 1.5 1.5 0 0 1 1982 905.5 L 1974 905.5  A 1.5 1.5 0 0 1 1972.5 904 L 1972.5 896  Z " fill-rule="nonzero" fill="#ffffff" stroke="none" />
  <path d="M 1972.5 896  A 1.5 1.5 0 0 1 1974 894.5 L 1982 894.5  A 1.5 1.5 0 0 1 1983.5 896 L 1983.5 904  A 1.5 1.5 0 0 1 1982 905.5 L 1974 905.5  A 1.5 1.5 0 0 1 1972.5 904 L 1972.5 896  Z " stroke-width="1" stroke="#7f7f7f" fill="none" />
  <path d="M 1974.57142857143 900  L 1977.14285714286 902.571428571429  " stroke-width="2.57142857142857" stroke="#7f7f7f" fill="none" />
  <path d="M 1977.14285714286 902.571428571429  L 1981.42857142857 896.571428571429  " stroke-width="2.57142857142857" stroke="#7f7f7f" fill="none" />
</svg>