<?xml version="1.0" encoding="utf-8"?>
<svg version="1.1" xmlns:xlink="http://www.w3.org/1999/xlink" width="12px" height="12px" viewBox="2480 456  12 12" xmlns="http://www.w3.org/2000/svg">
  <path d="M 2480.5 458  A 1.5 1.5 0 0 1 2482 456.5 L 2490 456.5  A 1.5 1.5 0 0 1 2491.5 458 L 2491.5 466  A 1.5 1.5 0 0 1 2490 467.5 L 2482 467.5  A 1.5 1.5 0 0 1 2480.5 466 L 2480.5 458  Z " fill-rule="nonzero" fill="#ffffff" stroke="none" />
  <path d="M 2480.5 458  A 1.5 1.5 0 0 1 2482 456.5 L 2490 456.5  A 1.5 1.5 0 0 1 2491.5 458 L 2491.5 466  A 1.5 1.5 0 0 1 2490 467.5 L 2482 467.5  A 1.5 1.5 0 0 1 2480.5 466 L 2480.5 458  Z " stroke-width="1" stroke="#7f7f7f" fill="none" />
</svg>