<?xml version="1.0" encoding="utf-8"?>
<svg version="1.1" xmlns:xlink="http://www.w3.org/1999/xlink" width="12px" height="12px" viewBox="1972 279  12 12" xmlns="http://www.w3.org/2000/svg">
  <path d="M 1972.5 281  A 1.5 1.5 0 0 1 1974 279.5 L 1982 279.5  A 1.5 1.5 0 0 1 1983.5 281 L 1983.5 289  A 1.5 1.5 0 0 1 1982 290.5 L 1974 290.5  A 1.5 1.5 0 0 1 1972.5 289 L 1972.5 281  Z " fill-rule="nonzero" fill="#f0f0f0" stroke="none" />
  <path d="M 1972.5 281  A 1.5 1.5 0 0 1 1974 279.5 L 1982 279.5  A 1.5 1.5 0 0 1 1983.5 281 L 1983.5 289  A 1.5 1.5 0 0 1 1982 290.5 L 1974 290.5  A 1.5 1.5 0 0 1 1972.5 289 L 1972.5 281  Z " stroke-width="1" stroke="#7f7f7f" fill="none" />
  <path d="M 1974.57142857143 285  L 1977.14285714286 287.571428571429  " stroke-width="2.57142857142857" stroke="#7f7f7f" fill="none" />
  <path d="M 1977.14285714286 287.571428571429  L 1981.42857142857 281.571428571429  " stroke-width="2.57142857142857" stroke="#7f7f7f" fill="none" />
</svg>