<?xml version="1.0" encoding="utf-8"?>
<svg version="1.1" xmlns:xlink="http://www.w3.org/1999/xlink" width="12px" height="12px" viewBox="2211 456  12 12" xmlns="http://www.w3.org/2000/svg">
  <path d="M 2211.5 458  A 1.5 1.5 0 0 1 2213 456.5 L 2221 456.5  A 1.5 1.5 0 0 1 2222.5 458 L 2222.5 466  A 1.5 1.5 0 0 1 2221 467.5 L 2213 467.5  A 1.5 1.5 0 0 1 2211.5 466 L 2211.5 458  Z " fill-rule="nonzero" fill="#ffffff" stroke="none" />
  <path d="M 2211.5 458  A 1.5 1.5 0 0 1 2213 456.5 L 2221 456.5  A 1.5 1.5 0 0 1 2222.5 458 L 2222.5 466  A 1.5 1.5 0 0 1 2221 467.5 L 2213 467.5  A 1.5 1.5 0 0 1 2211.5 466 L 2211.5 458  Z " stroke-width="1" stroke="#7f7f7f" fill="none" />
  <path d="M 2213.57142857143 462  L 2216.14285714286 464.571428571429  " stroke-width="2.57142857142857" stroke="#7f7f7f" fill="none" />
  <path d="M 2216.14285714286 464.571428571429  L 2220.42857142857 458.571428571429  " stroke-width="2.57142857142857" stroke="#7f7f7f" fill="none" />
</svg>