<?xml version="1.0" encoding="utf-8"?>
<svg version="1.1" xmlns:xlink="http://www.w3.org/1999/xlink" width="12px" height="12px" viewBox="2092 694  12 12" xmlns="http://www.w3.org/2000/svg">
  <path d="M 2092.5 696  A 1.5 1.5 0 0 1 2094 694.5 L 2102 694.5  A 1.5 1.5 0 0 1 2103.5 696 L 2103.5 704  A 1.5 1.5 0 0 1 2102 705.5 L 2094 705.5  A 1.5 1.5 0 0 1 2092.5 704 L 2092.5 696  Z " fill-rule="nonzero" fill="#ffffff" stroke="none" />
  <path d="M 2092.5 696  A 1.5 1.5 0 0 1 2094 694.5 L 2102 694.5  A 1.5 1.5 0 0 1 2103.5 696 L 2103.5 704  A 1.5 1.5 0 0 1 2102 705.5 L 2094 705.5  A 1.5 1.5 0 0 1 2092.5 704 L 2092.5 696  Z " stroke-width="1" stroke="#7f7f7f" fill="none" />
</svg>