<?xml version="1.0" encoding="utf-8"?>
<svg version="1.1" xmlns:xlink="http://www.w3.org/1999/xlink" width="12px" height="12px" viewBox="2092 609  12 12" xmlns="http://www.w3.org/2000/svg">
  <path d="M 2092.5 611  A 1.5 1.5 0 0 1 2094 609.5 L 2102 609.5  A 1.5 1.5 0 0 1 2103.5 611 L 2103.5 619  A 1.5 1.5 0 0 1 2102 620.5 L 2094 620.5  A 1.5 1.5 0 0 1 2092.5 619 L 2092.5 611  Z " fill-rule="nonzero" fill="#f0f0f0" stroke="none" />
  <path d="M 2092.5 611  A 1.5 1.5 0 0 1 2094 609.5 L 2102 609.5  A 1.5 1.5 0 0 1 2103.5 611 L 2103.5 619  A 1.5 1.5 0 0 1 2102 620.5 L 2094 620.5  A 1.5 1.5 0 0 1 2092.5 619 L 2092.5 611  Z " stroke-width="1" stroke="#7f7f7f" fill="none" />
</svg>