<?xml version="1.0" encoding="utf-8"?>
<svg version="1.1" xmlns:xlink="http://www.w3.org/1999/xlink" width="12px" height="12px" viewBox="2090 356  12 12" xmlns="http://www.w3.org/2000/svg">
  <path d="M 2090.5 358  A 1.5 1.5 0 0 1 2092 356.5 L 2100 356.5  A 1.5 1.5 0 0 1 2101.5 358 L 2101.5 366  A 1.5 1.5 0 0 1 2100 367.5 L 2092 367.5  A 1.5 1.5 0 0 1 2090.5 366 L 2090.5 358  Z " fill-rule="nonzero" fill="#ffffff" stroke="none" />
  <path d="M 2090.5 358  A 1.5 1.5 0 0 1 2092 356.5 L 2100 356.5  A 1.5 1.5 0 0 1 2101.5 358 L 2101.5 366  A 1.5 1.5 0 0 1 2100 367.5 L 2092 367.5  A 1.5 1.5 0 0 1 2090.5 366 L 2090.5 358  Z " stroke-width="1" stroke="#7f7f7f" fill="none" />
</svg>