<?xml version="1.0" encoding="utf-8"?>
<svg version="1.1" xmlns:xlink="http://www.w3.org/1999/xlink" width="12px" height="12px" viewBox="2330 356  12 12" xmlns="http://www.w3.org/2000/svg">
  <path d="M 2330.5 358  A 1.5 1.5 0 0 1 2332 356.5 L 2340 356.5  A 1.5 1.5 0 0 1 2341.5 358 L 2341.5 366  A 1.5 1.5 0 0 1 2340 367.5 L 2332 367.5  A 1.5 1.5 0 0 1 2330.5 366 L 2330.5 358  Z " fill-rule="nonzero" fill="#ffffff" stroke="none" />
  <path d="M 2330.5 358  A 1.5 1.5 0 0 1 2332 356.5 L 2340 356.5  A 1.5 1.5 0 0 1 2341.5 358 L 2341.5 366  A 1.5 1.5 0 0 1 2340 367.5 L 2332 367.5  A 1.5 1.5 0 0 1 2330.5 366 L 2330.5 358  Z " stroke-width="1" stroke="#7f7f7f" fill="none" />
  <path d="M 2332.57142857143 362  L 2335.14285714286 364.571428571429  " stroke-width="2.57142857142857" stroke="#7f7f7f" fill="none" />
  <path d="M 2335.14285714286 364.571428571429  L 2339.42857142857 358.571428571429  " stroke-width="2.57142857142857" stroke="#7f7f7f" fill="none" />
</svg>