<?xml version="1.0" encoding="utf-8"?>
<svg version="1.1" xmlns:xlink="http://www.w3.org/1999/xlink" width="12px" height="12px" viewBox="2090 819  12 12" xmlns="http://www.w3.org/2000/svg">
  <path d="M 2090.5 821  A 1.5 1.5 0 0 1 2092 819.5 L 2100 819.5  A 1.5 1.5 0 0 1 2101.5 821 L 2101.5 829  A 1.5 1.5 0 0 1 2100 830.5 L 2092 830.5  A 1.5 1.5 0 0 1 2090.5 829 L 2090.5 821  Z " fill-rule="nonzero" fill="#ffffff" stroke="none" />
  <path d="M 2090.5 821  A 1.5 1.5 0 0 1 2092 819.5 L 2100 819.5  A 1.5 1.5 0 0 1 2101.5 821 L 2101.5 829  A 1.5 1.5 0 0 1 2100 830.5 L 2092 830.5  A 1.5 1.5 0 0 1 2090.5 829 L 2090.5 821  Z " stroke-width="1" stroke="#7f7f7f" fill="none" />
  <path d="M 2092.57142857143 825  L 2095.14285714286 827.571428571429  " stroke-width="2.57142857142857" stroke="#7f7f7f" fill="none" />
  <path d="M 2095.14285714286 827.571428571429  L 2099.42857142857 821.571428571429  " stroke-width="2.57142857142857" stroke="#7f7f7f" fill="none" />
</svg>