<?xml version="1.0" encoding="utf-8"?>
<svg version="1.1" xmlns:xlink="http://www.w3.org/1999/xlink" width="12px" height="12px" viewBox="183 458  12 12" xmlns="http://www.w3.org/2000/svg">
  <path d="M 183.5 460  A 1.5 1.5 0 0 1 185 458.5 L 193 458.5  A 1.5 1.5 0 0 1 194.5 460 L 194.5 468  A 1.5 1.5 0 0 1 193 469.5 L 185 469.5  A 1.5 1.5 0 0 1 183.5 468 L 183.5 460  Z " fill-rule="nonzero" fill="#f0f0f0" stroke="none" />
  <path d="M 183.5 460  A 1.5 1.5 0 0 1 185 458.5 L 193 458.5  A 1.5 1.5 0 0 1 194.5 460 L 194.5 468  A 1.5 1.5 0 0 1 193 469.5 L 185 469.5  A 1.5 1.5 0 0 1 183.5 468 L 183.5 460  Z " stroke-width="1" stroke="#797979" fill="none" />
  <path d="M 185.571428571429 464  L 188.142857142857 466.571428571429  " stroke-width="2.57142857142857" stroke="#797979" fill="none" />
  <path d="M 188.142857142857 466.571428571429  L 192.428571428571 460.571428571429  " stroke-width="2.57142857142857" stroke="#797979" fill="none" />
</svg>