<?xml version="1.0" encoding="utf-8"?>
<svg version="1.1" xmlns:xlink="http://www.w3.org/1999/xlink" width="12px" height="12px" viewBox="183 307  12 12" xmlns="http://www.w3.org/2000/svg">
  <path d="M 183.5 309  A 1.5 1.5 0 0 1 185 307.5 L 193 307.5  A 1.5 1.5 0 0 1 194.5 309 L 194.5 317  A 1.5 1.5 0 0 1 193 318.5 L 185 318.5  A 1.5 1.5 0 0 1 183.5 317 L 183.5 309  Z " fill-rule="nonzero" fill="#f0f0f0" stroke="none" />
  <path d="M 183.5 309  A 1.5 1.5 0 0 1 185 307.5 L 193 307.5  A 1.5 1.5 0 0 1 194.5 309 L 194.5 317  A 1.5 1.5 0 0 1 193 318.5 L 185 318.5  A 1.5 1.5 0 0 1 183.5 317 L 183.5 309  Z " stroke-width="1" stroke="#797979" fill="none" />
</svg>