<?xml version="1.0" encoding="utf-8"?>
<svg version="1.1" xmlns:xlink="http://www.w3.org/1999/xlink" width="12px" height="12px" viewBox="183 609  12 12" xmlns="http://www.w3.org/2000/svg">
  <path d="M 183.5 611  A 1.5 1.5 0 0 1 185 609.5 L 193 609.5  A 1.5 1.5 0 0 1 194.5 611 L 194.5 619  A 1.5 1.5 0 0 1 193 620.5 L 185 620.5  A 1.5 1.5 0 0 1 183.5 619 L 183.5 611  Z " fill-rule="nonzero" fill="#f0f0f0" stroke="none" />
  <path d="M 183.5 611  A 1.5 1.5 0 0 1 185 609.5 L 193 609.5  A 1.5 1.5 0 0 1 194.5 611 L 194.5 619  A 1.5 1.5 0 0 1 193 620.5 L 185 620.5  A 1.5 1.5 0 0 1 183.5 619 L 183.5 611  Z " stroke-width="1" stroke="#797979" fill="none" />
  <path d="M 185.571428571429 615  L 188.142857142857 617.571428571429  " stroke-width="2.57142857142857" stroke="#797979" fill="none" />
  <path d="M 188.142857142857 617.571428571429  L 192.428571428571 611.571428571429  " stroke-width="2.57142857142857" stroke="#797979" fill="none" />
</svg>