<?xml version="1.0" encoding="utf-8"?>
<svg version="1.1" xmlns:xlink="http://www.w3.org/1999/xlink" width="12px" height="12px" viewBox="1701 381  12 12" xmlns="http://www.w3.org/2000/svg">
  <path d="M 1701.5 383  A 1.5 1.5 0 0 1 1703 381.5 L 1711 381.5  A 1.5 1.5 0 0 1 1712.5 383 L 1712.5 391  A 1.5 1.5 0 0 1 1711 392.5 L 1703 392.5  A 1.5 1.5 0 0 1 1701.5 391 L 1701.5 383  Z " fill-rule="nonzero" fill="#ffffff" stroke="none" />
  <path d="M 1701.5 383  A 1.5 1.5 0 0 1 1703 381.5 L 1711 381.5  A 1.5 1.5 0 0 1 1712.5 383 L 1712.5 391  A 1.5 1.5 0 0 1 1711 392.5 L 1703 392.5  A 1.5 1.5 0 0 1 1701.5 391 L 1701.5 383  Z " stroke-width="1" stroke="#797979" fill="none" />
  <path d="M 1703.57142857143 387  L 1706.14285714286 389.571428571429  " stroke-width="2.57142857142857" stroke="#797979" fill="none" />
  <path d="M 1706.14285714286 389.571428571429  L 1710.42857142857 383.571428571429  " stroke-width="2.57142857142857" stroke="#797979" fill="none" />
</svg>