<?xml version="1.0" encoding="utf-8"?>
<svg version="1.1" xmlns:xlink="http://www.w3.org/1999/xlink" width="12px" height="12px" viewBox="1701 420  12 12" xmlns="http://www.w3.org/2000/svg">
  <path d="M 1701.5 422  A 1.5 1.5 0 0 1 1703 420.5 L 1711 420.5  A 1.5 1.5 0 0 1 1712.5 422 L 1712.5 430  A 1.5 1.5 0 0 1 1711 431.5 L 1703 431.5  A 1.5 1.5 0 0 1 1701.5 430 L 1701.5 422  Z " fill-rule="nonzero" fill="#f0f0f0" stroke="none" />
  <path d="M 1701.5 422  A 1.5 1.5 0 0 1 1703 420.5 L 1711 420.5  A 1.5 1.5 0 0 1 1712.5 422 L 1712.5 430  A 1.5 1.5 0 0 1 1711 431.5 L 1703 431.5  A 1.5 1.5 0 0 1 1701.5 430 L 1701.5 422  Z " stroke-width="1" stroke="#797979" fill="none" />
  <path d="M 1703.57142857143 426  L 1706.14285714286 428.571428571429  " stroke-width="2.57142857142857" stroke="#797979" fill="none" />
  <path d="M 1706.14285714286 428.571428571429  L 1710.42857142857 422.571428571429  " stroke-width="2.57142857142857" stroke="#797979" fill="none" />
</svg>