<?xml version="1.0" encoding="utf-8"?>
<svg version="1.1" xmlns:xlink="http://www.w3.org/1999/xlink" width="12px" height="12px" viewBox="1701 458  12 12" xmlns="http://www.w3.org/2000/svg">
  <path d="M 1701.5 460  A 1.5 1.5 0 0 1 1703 458.5 L 1711 458.5  A 1.5 1.5 0 0 1 1712.5 460 L 1712.5 468  A 1.5 1.5 0 0 1 1711 469.5 L 1703 469.5  A 1.5 1.5 0 0 1 1701.5 468 L 1701.5 460  Z " fill-rule="nonzero" fill="#f0f0f0" stroke="none" />
  <path d="M 1701.5 460  A 1.5 1.5 0 0 1 1703 458.5 L 1711 458.5  A 1.5 1.5 0 0 1 1712.5 460 L 1712.5 468  A 1.5 1.5 0 0 1 1711 469.5 L 1703 469.5  A 1.5 1.5 0 0 1 1701.5 468 L 1701.5 460  Z " stroke-width="1" stroke="#797979" fill="none" />
</svg>