<?xml version="1.0" encoding="utf-8"?>
<svg version="1.1" xmlns:xlink="http://www.w3.org/1999/xlink" width="12px" height="12px" viewBox="183 343  12 12" xmlns="http://www.w3.org/2000/svg">
  <path d="M 183.5 345  A 1.5 1.5 0 0 1 185 343.5 L 193 343.5  A 1.5 1.5 0 0 1 194.5 345 L 194.5 353  A 1.5 1.5 0 0 1 193 354.5 L 185 354.5  A 1.5 1.5 0 0 1 183.5 353 L 183.5 345  Z " fill-rule="nonzero" fill="#ffffff" stroke="none" />
  <path d="M 183.5 345  A 1.5 1.5 0 0 1 185 343.5 L 193 343.5  A 1.5 1.5 0 0 1 194.5 345 L 194.5 353  A 1.5 1.5 0 0 1 193 354.5 L 185 354.5  A 1.5 1.5 0 0 1 183.5 353 L 183.5 345  Z " stroke-width="1" stroke="#797979" fill="none" />
</svg>