<?xml version="1.0" encoding="utf-8"?>
<svg version="1.1" xmlns:xlink="http://www.w3.org/1999/xlink" width="12px" height="12px" viewBox="1701 307  12 12" xmlns="http://www.w3.org/2000/svg">
  <path d="M 1701.5 309  A 1.5 1.5 0 0 1 1703 307.5 L 1711 307.5  A 1.5 1.5 0 0 1 1712.5 309 L 1712.5 317  A 1.5 1.5 0 0 1 1711 318.5 L 1703 318.5  A 1.5 1.5 0 0 1 1701.5 317 L 1701.5 309  Z " fill-rule="nonzero" fill="#f0f0f0" stroke="none" />
  <path d="M 1701.5 309  A 1.5 1.5 0 0 1 1703 307.5 L 1711 307.5  A 1.5 1.5 0 0 1 1712.5 309 L 1712.5 317  A 1.5 1.5 0 0 1 1711 318.5 L 1703 318.5  A 1.5 1.5 0 0 1 1701.5 317 L 1701.5 309  Z " stroke-width="1" stroke="#797979" fill="none" />
</svg>