<?xml version="1.0" encoding="utf-8"?>
<svg version="1.1" xmlns:xlink="http://www.w3.org/1999/xlink" width="28px" height="27px" xmlns="http://www.w3.org/2000/svg">
  <g transform="matrix(1 0 0 1 -422 -205 )">
    <path d="M 17.0709134615385 10.5387620192308  C 17.177483974359 10.6415264423077  17.2307692307692 10.7632211538462  17.2307692307692 10.9038461538462  L 17.2307692307692 11.9423076923077  C 17.2307692307692 12.0829326923077  17.177483974359 12.2046274038462  17.0709134615385 12.3073918269231  C 16.9643429487179 12.41015625  16.838141025641 12.4615384615385  16.6923076923077 12.4615384615385  L 12.9230769230769 12.4615384615385  L 12.9230769230769 16.0961538461538  C 12.9230769230769 16.2367788461538  12.8697916666667 16.3584735576923  12.7632211538462 16.4612379807692  C 12.6566506410256 16.5640024038462  12.5304487179487 16.6153846153846  12.3846153846154 16.6153846153846  L 11.3076923076923 16.6153846153846  C 11.161858974359 16.6153846153846  11.0356570512821 16.5640024038462  10.9290865384615 16.4612379807692  C 10.822516025641 16.3584735576923  10.7692307692308 16.2367788461538  10.7692307692308 16.0961538461538  L 10.7692307692308 12.4615384615385  L 7 12.4615384615385  C 6.85416666666667 12.4615384615385  6.72796474358974 12.41015625  6.62139423076923 12.3073918269231  C 6.51482371794872 12.2046274038462  6.46153846153846 12.0829326923077  6.46153846153846 11.9423076923077  L 6.46153846153846 10.9038461538462  C 6.46153846153846 10.7632211538462  6.51482371794872 10.6415264423077  6.62139423076923 10.5387620192308  C 6.72796474358974 10.4359975961538  6.85416666666667 10.3846153846154  7 10.3846153846154  L 10.7692307692308 10.3846153846154  L 10.7692307692308 6.75  C 10.7692307692308 6.609375  10.822516025641 6.48768028846154  10.9290865384615 6.38491586538462  C 11.0356570512821 6.28215144230769  11.161858974359 6.23076923076923  11.3076923076923 6.23076923076923  L 12.3846153846154 6.23076923076923  C 12.5304487179487 6.23076923076923  12.6566506410256 6.28215144230769  12.7632211538462 6.38491586538462  C 12.8697916666667 6.48768028846154  12.9230769230769 6.609375  12.9230769230769 6.75  L 12.9230769230769 10.3846153846154  L 16.6923076923077 10.3846153846154  C 16.838141025641 10.3846153846154  16.9643429487179 10.4359975961538  17.0709134615385 10.5387620192308  Z M 17.171875 16.55859375  C 18.6470352564103 15.1361177884615  19.3846153846154 13.4242788461538  19.3846153846154 11.4230769230769  C 19.3846153846154 9.421875  18.6470352564103 7.71003605769231  17.171875 6.28756009615385  C 15.6967147435897 4.86508413461538  13.9214743589744 4.15384615384615  11.8461538461538 4.15384615384615  C 9.77083333333333 4.15384615384615  7.99559294871795 4.86508413461538  6.52043269230769 6.28756009615385  C 5.04527243589744 7.71003605769231  4.30769230769231 9.421875  4.30769230769231 11.4230769230769  C 4.30769230769231 13.4242788461538  5.04527243589744 15.1361177884615  6.52043269230769 16.55859375  C 7.99559294871795 17.9810697115385  9.77083333333333 18.6923076923077  11.8461538461538 18.6923076923077  C 13.9214743589744 18.6923076923077  15.6967147435897 17.9810697115385  17.171875 16.55859375  Z M 27.3774038461538 23.4627403846154  C 27.7924679487179 23.8629807692308  28 24.3497596153846  28 24.9230769230769  C 28 25.4963942307692  27.7896634615385 25.9858774038462  27.3689903846154 26.3915264423077  C 26.9483173076923 26.7971754807692  26.4407051282051 27  25.8461538461538 27  C 25.2403846153846 27  24.7355769230769 26.7944711538462  24.3317307692308 26.3834134615385  L 18.5600961538462 20.8341346153846  C 16.5520833333333 22.1754807692308  14.3141025641026 22.8461538461538  11.8461538461538 22.8461538461538  C 10.2419871794872 22.8461538461538  8.70793269230769 22.5459735576923  7.24399038461538 21.9456129807692  C 5.78004807692308 21.3452524038462  4.51802884615385 20.5339543269231  3.45793269230769 19.51171875  C 2.39783653846154 18.4894831730769  1.55649038461539 17.2725360576923  0.933894230769231 15.8608774038462  C 0.311298076923077 14.44921875  0 12.9699519230769  0 11.4230769230769  C 0 9.87620192307692  0.311298076923077 8.39693509615385  0.933894230769231 6.98527644230769  C 1.55649038461539 5.57361778846154  2.39783653846154 4.35667067307692  3.45793269230769 3.33443509615385  C 4.51802884615385 2.31219951923077  5.78004807692308 1.50090144230769  7.24399038461538 0.900540865384616  C 8.70793269230769 0.300180288461538  10.2419871794872 0  11.8461538461538 0  C 13.4503205128205 0  14.984375 0.300180288461538  16.4483173076923 0.900540865384616  C 17.9122596153846 1.50090144230769  19.1742788461538 2.31219951923077  20.234375 3.33443509615385  C 21.2944711538462 4.35667067307692  22.1358173076923 5.57361778846154  22.7584134615385 6.98527644230769  C 23.3810096153846 8.39693509615385  23.6923076923077 9.87620192307692  23.6923076923077 11.4230769230769  C 23.6923076923077 13.8028846153846  22.9967948717949 15.9609375  21.6057692307692 17.8972355769231  L 27.3774038461538 23.4627403846154  Z " fill-rule="nonzero" fill="#108de9" stroke="none" transform="matrix(1 0 0 1 422 205 )" />
  </g>
</svg>