<?xml version="1.0" encoding="utf-8"?>
<svg version="1.1" xmlns:xlink="http://www.w3.org/1999/xlink" width="28px" height="24px" xmlns="http://www.w3.org/2000/svg">
  <g transform="matrix(1 0 0 1 -463 -205 )">
    <path d="M 21.21875 21.703125  C 21.431891025641 21.5052083333333  21.5384615384615 21.2708333333333  21.5384615384615 21  C 21.5384615384615 20.7291666666667  21.431891025641 20.4947916666667  21.21875 20.296875  C 21.005608974359 20.0989583333333  20.7532051282051 20  20.4615384615385 20  C 20.1698717948718 20  19.9174679487179 20.0989583333333  19.7043269230769 20.296875  C 19.4911858974359 20.4947916666667  19.3846153846154 20.7291666666667  19.3846153846154 21  C 19.3846153846154 21.2708333333333  19.4911858974359 21.5052083333333  19.7043269230769 21.703125  C 19.9174679487179 21.9010416666667  20.1698717948718 22  20.4615384615385 22  C 20.7532051282051 22  21.005608974359 21.9010416666667  21.21875 21.703125  Z M 25.5264423076923 21.703125  C 25.7395833333333 21.5052083333333  25.8461538461538 21.2708333333333  25.8461538461538 21  C 25.8461538461538 20.7291666666667  25.7395833333333 20.4947916666667  25.5264423076923 20.296875  C 25.3133012820513 20.0989583333333  25.0608974358974 20  24.7692307692308 20  C 24.4775641025641 20  24.2251602564103 20.0989583333333  24.0120192307692 20.296875  C 23.7988782051282 20.4947916666667  23.6923076923077 20.7291666666667  23.6923076923077 21  C 23.6923076923077 21.2708333333333  23.7988782051282 21.5052083333333  24.0120192307692 21.703125  C 24.2251602564103 21.9010416666667  24.4775641025641 22  24.7692307692308 22  C 25.0608974358974 22  25.3133012820513 21.9010416666667  25.5264423076923 21.703125  Z M 27.5288461538462 16.4375  C 27.8429487179487 16.7291666666667  28 17.0833333333333  28 17.5  L 28 22.5  C 28 22.9166666666667  27.8429487179487 23.2708333333333  27.5288461538462 23.5625  C 27.2147435897436 23.8541666666667  26.8333333333333 24  26.3846153846154 24  L 1.61538461538462 24  C 1.16666666666667 24  0.78525641025641 23.8541666666667  0.471153846153846 23.5625  C 0.157051282051282 23.2708333333333  0 22.9166666666667  0 22.5  L 0 17.5  C 0 17.0833333333333  0.157051282051282 16.7291666666667  0.471153846153846 16.4375  C 0.78525641025641 16.1458333333333  1.16666666666667 16  1.61538461538462 16  L 9.43990384615385 16  L 11.7115384615385 18.125  C 12.3621794871795 18.7083333333333  13.125 19  14 19  C 14.875 19  15.6378205128205 18.7083333333333  16.2884615384615 18.125  L 18.5769230769231 16  L 26.3846153846154 16  C 26.8333333333333 16  27.2147435897436 16.1458333333333  27.5288461538462 16.4375  Z M 21.5384615384615 8  C 22.0096153846154 8  22.3405448717949 8.203125  22.53125 8.609375  C 22.7219551282051 9.03645833333333  22.6434294871795 9.40104166666667  22.2956730769231 9.703125  L 14.7572115384615 16.703125  C 14.5552884615385 16.9010416666667  14.3028846153846 17  14 17  C 13.6971153846154 17  13.4447115384615 16.9010416666667  13.2427884615385 16.703125  L 5.70432692307692 9.703125  C 5.35657051282051 9.40104166666667  5.27804487179487 9.03645833333333  5.46875 8.609375  C 5.65945512820513 8.203125  5.99038461538461 8  6.46153846153846 8  L 10.7692307692308 8  L 10.7692307692308 0.999999999999999  C 10.7692307692308 0.729166666666663  10.8758012820513 0.494791666666663  11.0889423076923 0.296874999999999  C 11.3020833333333 0.0989583333333348  11.5544871794872 0  11.8461538461538 0  L 16.1538461538462 0  C 16.4455128205128 0  16.6979166666667 0.0989583333333348  16.9110576923077 0.296874999999999  C 17.1241987179487 0.494791666666663  17.2307692307692 0.729166666666663  17.2307692307692 0.999999999999999  L 17.2307692307692 8  L 21.5384615384615 8  Z " fill-rule="nonzero" fill="#108de9" stroke="none" transform="matrix(1 0 0 1 463 205 )" />
  </g>
</svg>