<?xml version="1.0" encoding="utf-8"?>
<svg version="1.1" xmlns:xlink="http://www.w3.org/1999/xlink" width="1106px" height="206px" xmlns="http://www.w3.org/2000/svg">
  <g transform="matrix(1 0 0 1 -60 -123 )">
    <path d="M 61 128  A 4 4 0 0 1 65 124 L 1161 124  A 4 4 0 0 1 1165 128 L 1165 324  A 4 4 0 0 1 1161 328 L 65 328  A 4 4 0 0 1 61 324 L 61 128  Z " fill-rule="nonzero" fill="#ffffff" stroke="none" />
    <path d="M 60.5 128  A 4.5 4.5 0 0 1 65 123.5 L 1161 123.5  A 4.5 4.5 0 0 1 1165.5 128 L 1165.5 324  A 4.5 4.5 0 0 1 1161 328.5 L 65 328.5  A 4.5 4.5 0 0 1 60.5 324 L 60.5 128  Z " stroke-width="1" stroke-dasharray="3,1" stroke="#797979" fill="none" stroke-dashoffset="0.5" />
  </g>
</svg>