<?xml version="1.0" encoding="utf-8"?>
<svg version="1.1" xmlns:xlink="http://www.w3.org/1999/xlink" width="12px" height="12px" viewBox="803 2139.5  12 12" xmlns="http://www.w3.org/2000/svg">
  <path d="M 809 2139.5  C 812.36 2139.5  815 2142.14  815 2145.5  C 815 2148.86  812.36 2151.5  809 2151.5  C 805.64 2151.5  803 2148.86  803 2145.5  C 803 2142.14  805.64 2139.5  809 2139.5  Z " fill-rule="nonzero" fill="#f0f0f0" stroke="none" />
  <path d="M 809 2140  C 812.08 2140  814.5 2142.42  814.5 2145.5  C 814.5 2148.58  812.08 2151  809 2151  C 805.92 2151  803.5 2148.58  803.5 2145.5  C 803.5 2142.42  805.92 2140  809 2140  Z " stroke-width="1" stroke="#797979" fill="none" />
  <path d="M 809 2148.5  C 807.32 2148.5  806 2147.18  806 2145.5  C 806 2143.82  807.32 2142.5  809 2142.5  C 810.68 2142.5  812 2143.82  812 2145.5  C 812 2147.18  810.68 2148.5  809 2148.5  " fill-rule="nonzero" fill="#797979" stroke="none" />
</svg>