<?xml version="1.0" encoding="utf-8"?>
<svg version="1.1" xmlns:xlink="http://www.w3.org/1999/xlink" width="14px" height="13px" xmlns="http://www.w3.org/2000/svg">
  <g transform="matrix(1 0 0 1 -11 -785 )">
    <path d="M 2.96223958333333 5.25948660714286  C 4.21397569444444 5.46744791666667  5.55989583333333 5.57142857142857  7 5.57142857142857  C 8.44010416666667 5.57142857142857  9.78602430555556 5.46744791666667  11.0377604166667 5.25948660714286  C 12.2894965277778 5.05152529761905  13.2769097222222 4.74441964285714  14 4.33816964285714  L 14 5.57142857142857  C 14 5.90513392857143  13.6870659722222 6.21465773809524  13.0611979166667 6.5  C 12.4353298611111 6.78534226190476  11.5846354166667 7.01143973214286  10.5091145833333 7.17829241071429  C 9.43359375 7.34514508928571  8.26388888888889 7.42857142857143  7 7.42857142857143  C 5.73611111111111 7.42857142857143  4.56640625 7.34514508928571  3.49088541666667 7.17829241071429  C 2.41536458333333 7.01143973214286  1.56467013888889 6.78534226190476  0.938802083333333 6.5  C 0.312934027777778 6.21465773809524  0 5.90513392857143  0 5.57142857142857  L 0 4.33816964285714  C 0.723090277777778 4.74441964285714  1.71050347222222 5.05152529761905  2.96223958333333 5.25948660714286  Z M 2.96223958333333 10.8309151785714  C 4.21397569444444 11.0388764880952  5.55989583333333 11.1428571428571  7 11.1428571428571  C 8.44010416666667 11.1428571428571  9.78602430555556 11.0388764880952  11.0377604166667 10.8309151785714  C 12.2894965277778 10.6229538690476  13.2769097222222 10.3158482142857  14 9.90959821428571  L 14 11.1428571428571  C 14 11.4765625  13.6870659722222 11.7860863095238  13.0611979166667 12.0714285714286  C 12.4353298611111 12.3567708333333  11.5846354166667 12.5828683035714  10.5091145833333 12.7497209821429  C 9.43359375 12.9165736607143  8.26388888888889 13  7 13  C 5.73611111111111 13  4.56640625 12.9165736607143  3.49088541666667 12.7497209821429  C 2.41536458333333 12.5828683035714  1.56467013888889 12.3567708333333  0.938802083333333 12.0714285714286  C 0.312934027777778 11.7860863095238  0 11.4765625  0 11.1428571428571  L 0 9.90959821428571  C 0.723090277777778 10.3158482142857  1.71050347222222 10.6229538690476  2.96223958333333 10.8309151785714  Z M 2.96223958333333 8.04520089285714  C 4.21397569444444 8.25316220238095  5.55989583333333 8.35714285714286  7 8.35714285714286  C 8.44010416666667 8.35714285714286  9.78602430555556 8.25316220238095  11.0377604166667 8.04520089285714  C 12.2894965277778 7.83723958333333  13.2769097222222 7.53013392857143  14 7.12388392857143  L 14 8.35714285714286  C 14 8.69084821428571  13.6870659722222 9.00037202380952  13.0611979166667 9.28571428571429  C 12.4353298611111 9.57105654761905  11.5846354166667 9.79715401785714  10.5091145833333 9.96400669642857  C 9.43359375 10.130859375  8.26388888888889 10.2142857142857  7 10.2142857142857  C 5.73611111111111 10.2142857142857  4.56640625 10.130859375  3.49088541666667 9.96400669642857  C 2.41536458333333 9.79715401785714  1.56467013888889 9.57105654761905  0.938802083333333 9.28571428571429  C 0.312934027777778 9.00037202380952  0 8.69084821428571  0 8.35714285714286  L 0 7.12388392857143  C 0.723090277777778 7.53013392857143  1.71050347222222 7.83723958333333  2.96223958333333 8.04520089285714  Z M 3.49088541666667 0.250279017857142  C 4.56640625 0.0834263392857141  5.73611111111111 0  7 0  C 8.26388888888889 0  9.43359375 0.0834263392857141  10.5091145833333 0.250279017857142  C 11.5846354166667 0.417131696428572  12.4353298611111 0.643229166666666  13.0611979166667 0.928571428571428  C 13.6870659722222 1.21391369047619  14 1.5234375  14 1.85714285714286  L 14 2.78571428571429  C 14 3.11941964285714  13.6870659722222 3.42894345238095  13.0611979166667 3.71428571428571  C 12.4353298611111 3.99962797619048  11.5846354166667 4.22572544642857  10.5091145833333 4.392578125  C 9.43359375 4.55943080357143  8.26388888888889 4.64285714285714  7 4.64285714285714  C 5.73611111111111 4.64285714285714  4.56640625 4.55943080357143  3.49088541666667 4.392578125  C 2.41536458333333 4.22572544642857  1.56467013888889 3.99962797619048  0.938802083333333 3.71428571428571  C 0.312934027777778 3.42894345238095  0 3.11941964285714  0 2.78571428571429  L 0 1.85714285714286  C 0 1.5234375  0.312934027777778 1.21391369047619  0.938802083333333 0.928571428571428  C 1.56467013888889 0.643229166666666  2.41536458333333 0.417131696428572  3.49088541666667 0.250279017857142  Z " fill-rule="nonzero" fill="#ffffff" stroke="none" transform="matrix(1 0 0 1 11 785 )" />
  </g>
</svg>