<?xml version="1.0" encoding="utf-8"?>
<svg version="1.1" xmlns:xlink="http://www.w3.org/1999/xlink" width="12px" height="12px" viewBox="450 1405  12 12" xmlns="http://www.w3.org/2000/svg">
  <path d="M 450.5 1407  A 1.5 1.5 0 0 1 452 1405.5 L 460 1405.5  A 1.5 1.5 0 0 1 461.5 1407 L 461.5 1415  A 1.5 1.5 0 0 1 460 1416.5 L 452 1416.5  A 1.5 1.5 0 0 1 450.5 1415 L 450.5 1407  Z " fill-rule="nonzero" fill="#ffffff" stroke="none" />
  <path d="M 450.5 1407  A 1.5 1.5 0 0 1 452 1405.5 L 460 1405.5  A 1.5 1.5 0 0 1 461.5 1407 L 461.5 1415  A 1.5 1.5 0 0 1 460 1416.5 L 452 1416.5  A 1.5 1.5 0 0 1 450.5 1415 L 450.5 1407  Z " stroke-width="1" stroke="#797979" fill="none" />
  <path d="M 452.571428571429 1411  L 455.142857142857 1413.57142857143  " stroke-width="2.57142857142857" stroke="#797979" fill="none" />
  <path d="M 455.142857142857 1413.57142857143  L 459.428571428571 1407.57142857143  " stroke-width="2.57142857142857" stroke="#797979" fill="none" />
</svg>