<?xml version="1.0" encoding="utf-8"?>
<svg version="1.1" xmlns:xlink="http://www.w3.org/1999/xlink" width="12px" height="12px" viewBox="801 1223.5  12 12" xmlns="http://www.w3.org/2000/svg">
  <path d="M 807 1223.5  C 810.36 1223.5  813 1226.14  813 1229.5  C 813 1232.86  810.36 1235.5  807 1235.5  C 803.64 1235.5  801 1232.86  801 1229.5  C 801 1226.14  803.64 1223.5  807 1223.5  Z " fill-rule="nonzero" fill="#f0f0f0" stroke="none" />
  <path d="M 807 1224  C 810.08 1224  812.5 1226.42  812.5 1229.5  C 812.5 1232.58  810.08 1235  807 1235  C 803.92 1235  801.5 1232.58  801.5 1229.5  C 801.5 1226.42  803.92 1224  807 1224  Z " stroke-width="1" stroke="#797979" fill="none" />
  <path d="M 807 1232.5  C 805.32 1232.5  804 1231.18  804 1229.5  C 804 1227.82  805.32 1226.5  807 1226.5  C 808.68 1226.5  810 1227.82  810 1229.5  C 810 1231.18  808.68 1232.5  807 1232.5  " fill-rule="nonzero" fill="#797979" stroke="none" />
</svg>