<?xml version="1.0" encoding="utf-8"?>
<svg version="1.1" xmlns:xlink="http://www.w3.org/1999/xlink" width="12px" height="12px" viewBox="196 1170  12 12" xmlns="http://www.w3.org/2000/svg">
  <path d="M 196.5 1172  A 1.5 1.5 0 0 1 198 1170.5 L 206 1170.5  A 1.5 1.5 0 0 1 207.5 1172 L 207.5 1180  A 1.5 1.5 0 0 1 206 1181.5 L 198 1181.5  A 1.5 1.5 0 0 1 196.5 1180 L 196.5 1172  Z " fill-rule="nonzero" fill="#ffffff" stroke="none" />
  <path d="M 196.5 1172  A 1.5 1.5 0 0 1 198 1170.5 L 206 1170.5  A 1.5 1.5 0 0 1 207.5 1172 L 207.5 1180  A 1.5 1.5 0 0 1 206 1181.5 L 198 1181.5  A 1.5 1.5 0 0 1 196.5 1180 L 196.5 1172  Z " stroke-width="1" stroke="#797979" fill="none" />
</svg>