<?xml version="1.0" encoding="utf-8"?>
<svg version="1.1" xmlns:xlink="http://www.w3.org/1999/xlink" width="12px" height="12px" viewBox="847 1314.5  12 12" xmlns="http://www.w3.org/2000/svg">
  <path d="M 853 1314.5  C 856.36 1314.5  859 1317.14  859 1320.5  C 859 1323.86  856.36 1326.5  853 1326.5  C 849.64 1326.5  847 1323.86  847 1320.5  C 847 1317.14  849.64 1314.5  853 1314.5  Z " fill-rule="nonzero" fill="#ffffff" stroke="none" />
  <path d="M 853 1315  C 856.08 1315  858.5 1317.42  858.5 1320.5  C 858.5 1323.58  856.08 1326  853 1326  C 849.92 1326  847.5 1323.58  847.5 1320.5  C 847.5 1317.42  849.92 1315  853 1315  Z " stroke-width="1" stroke="#797979" fill="none" />
  <path d="M 853 1323.5  C 851.32 1323.5  850 1322.18  850 1320.5  C 850 1318.82  851.32 1317.5  853 1317.5  C 854.68 1317.5  856 1318.82  856 1320.5  C 856 1322.18  854.68 1323.5  853 1323.5  " fill-rule="nonzero" fill="#797979" stroke="none" />
</svg>