<?xml version="1.0" encoding="utf-8"?>
<svg version="1.1" xmlns:xlink="http://www.w3.org/1999/xlink" width="12px" height="12px" viewBox="448 1312  12 12" xmlns="http://www.w3.org/2000/svg">
  <path d="M 448.5 1314  A 1.5 1.5 0 0 1 450 1312.5 L 458 1312.5  A 1.5 1.5 0 0 1 459.5 1314 L 459.5 1322  A 1.5 1.5 0 0 1 458 1323.5 L 450 1323.5  A 1.5 1.5 0 0 1 448.5 1322 L 448.5 1314  Z " fill-rule="nonzero" fill="#f0f0f0" stroke="none" />
  <path d="M 448.5 1314  A 1.5 1.5 0 0 1 450 1312.5 L 458 1312.5  A 1.5 1.5 0 0 1 459.5 1314 L 459.5 1322  A 1.5 1.5 0 0 1 458 1323.5 L 450 1323.5  A 1.5 1.5 0 0 1 448.5 1322 L 448.5 1314  Z " stroke-width="1" stroke="#797979" fill="none" />
  <path d="M 450.571428571429 1318  L 453.142857142857 1320.57142857143  " stroke-width="2.57142857142857" stroke="#797979" fill="none" />
  <path d="M 453.142857142857 1320.57142857143  L 457.428571428571 1314.57142857143  " stroke-width="2.57142857142857" stroke="#797979" fill="none" />
</svg>