<?xml version="1.0" encoding="utf-8"?>
<svg version="1.1" xmlns:xlink="http://www.w3.org/1999/xlink" width="12px" height="12px" viewBox="849 1589.5  12 12" xmlns="http://www.w3.org/2000/svg">
  <path d="M 855 1589.5  C 858.36 1589.5  861 1592.14  861 1595.5  C 861 1598.86  858.36 1601.5  855 1601.5  C 851.64 1601.5  849 1598.86  849 1595.5  C 849 1592.14  851.64 1589.5  855 1589.5  Z " fill-rule="nonzero" fill="#ffffff" stroke="none" />
  <path d="M 855 1590  C 858.08 1590  860.5 1592.42  860.5 1595.5  C 860.5 1598.58  858.08 1601  855 1601  C 851.92 1601  849.5 1598.58  849.5 1595.5  C 849.5 1592.42  851.92 1590  855 1590  Z " stroke-width="1" stroke="#797979" fill="none" />
  <path d="M 855 1598.5  C 853.32 1598.5  852 1597.18  852 1595.5  C 852 1593.82  853.32 1592.5  855 1592.5  C 856.68 1592.5  858 1593.82  858 1595.5  C 858 1597.18  856.68 1598.5  855 1598.5  " fill-rule="nonzero" fill="#797979" stroke="none" />
</svg>