<?xml version="1.0" encoding="utf-8"?>
<svg version="1.1" xmlns:xlink="http://www.w3.org/1999/xlink" width="12px" height="12px" viewBox="802 1589.5  12 12" xmlns="http://www.w3.org/2000/svg">
  <path d="M 808 1589.5  C 811.36 1589.5  814 1592.14  814 1595.5  C 814 1598.86  811.36 1601.5  808 1601.5  C 804.64 1601.5  802 1598.86  802 1595.5  C 802 1592.14  804.64 1589.5  808 1589.5  Z " fill-rule="nonzero" fill="#f0f0f0" stroke="none" />
  <path d="M 808 1590  C 811.08 1590  813.5 1592.42  813.5 1595.5  C 813.5 1598.58  811.08 1601  808 1601  C 804.92 1601  802.5 1598.58  802.5 1595.5  C 802.5 1592.42  804.92 1590  808 1590  Z " stroke-width="1" stroke="#797979" fill="none" />
  <path d="M 808 1598.5  C 806.32 1598.5  805 1597.18  805 1595.5  C 805 1593.82  806.32 1592.5  808 1592.5  C 809.68 1592.5  811 1593.82  811 1595.5  C 811 1597.18  809.68 1598.5  808 1598.5  " fill-rule="nonzero" fill="#797979" stroke="none" />
</svg>