<?xml version="1.0" encoding="utf-8"?>
<svg version="1.1" xmlns:xlink="http://www.w3.org/1999/xlink" width="12px" height="12px" viewBox="802 1632.5  12 12" xmlns="http://www.w3.org/2000/svg">
  <path d="M 808 1632.5  C 811.36 1632.5  814 1635.14  814 1638.5  C 814 1641.86  811.36 1644.5  808 1644.5  C 804.64 1644.5  802 1641.86  802 1638.5  C 802 1635.14  804.64 1632.5  808 1632.5  Z " fill-rule="nonzero" fill="#ffffff" stroke="none" />
  <path d="M 808 1633  C 811.08 1633  813.5 1635.42  813.5 1638.5  C 813.5 1641.58  811.08 1644  808 1644  C 804.92 1644  802.5 1641.58  802.5 1638.5  C 802.5 1635.42  804.92 1633  808 1633  Z " stroke-width="1" stroke="#797979" fill="none" />
  <path d="M 808 1641.5  C 806.32 1641.5  805 1640.18  805 1638.5  C 805 1636.82  806.32 1635.5  808 1635.5  C 809.68 1635.5  811 1636.82  811 1638.5  C 811 1640.18  809.68 1641.5  808 1641.5  " fill-rule="nonzero" fill="#797979" stroke="none" />
</svg>