<?xml version="1.0" encoding="utf-8"?>
<svg version="1.1" xmlns:xlink="http://www.w3.org/1999/xlink" width="12px" height="12px" viewBox="450 1587  12 12" xmlns="http://www.w3.org/2000/svg">
  <path d="M 450.5 1589  A 1.5 1.5 0 0 1 452 1587.5 L 460 1587.5  A 1.5 1.5 0 0 1 461.5 1589 L 461.5 1597  A 1.5 1.5 0 0 1 460 1598.5 L 452 1598.5  A 1.5 1.5 0 0 1 450.5 1597 L 450.5 1589  Z " fill-rule="nonzero" fill="#f0f0f0" stroke="none" />
  <path d="M 450.5 1589  A 1.5 1.5 0 0 1 452 1587.5 L 460 1587.5  A 1.5 1.5 0 0 1 461.5 1589 L 461.5 1597  A 1.5 1.5 0 0 1 460 1598.5 L 452 1598.5  A 1.5 1.5 0 0 1 450.5 1597 L 450.5 1589  Z " stroke-width="1" stroke="#797979" fill="none" />
  <path d="M 452.571428571429 1593  L 455.142857142857 1595.57142857143  " stroke-width="2.57142857142857" stroke="#797979" fill="none" />
  <path d="M 455.142857142857 1595.57142857143  L 459.428571428571 1589.57142857143  " stroke-width="2.57142857142857" stroke="#797979" fill="none" />
</svg>