<?xml version="1.0" encoding="utf-8"?>
<svg version="1.1" xmlns:xlink="http://www.w3.org/1999/xlink" width="12px" height="12px" viewBox="850 1773.5  12 12" xmlns="http://www.w3.org/2000/svg">
  <path d="M 856 1773.5  C 859.36 1773.5  862 1776.14  862 1779.5  C 862 1782.86  859.36 1785.5  856 1785.5  C 852.64 1785.5  850 1782.86  850 1779.5  C 850 1776.14  852.64 1773.5  856 1773.5  Z " fill-rule="nonzero" fill="#f0f0f0" stroke="none" />
  <path d="M 856 1774  C 859.08 1774  861.5 1776.42  861.5 1779.5  C 861.5 1782.58  859.08 1785  856 1785  C 852.92 1785  850.5 1782.58  850.5 1779.5  C 850.5 1776.42  852.92 1774  856 1774  Z " stroke-width="1" stroke="#797979" fill="none" />
  <path d="M 856 1782.5  C 854.32 1782.5  853 1781.18  853 1779.5  C 853 1777.82  854.32 1776.5  856 1776.5  C 857.68 1776.5  859 1777.82  859 1779.5  C 859 1781.18  857.68 1782.5  856 1782.5  " fill-rule="nonzero" fill="#797979" stroke="none" />
</svg>