<?xml version="1.0" encoding="utf-8"?>
<svg version="1.1" xmlns:xlink="http://www.w3.org/1999/xlink" width="12px" height="12px" viewBox="196 1732  12 12" xmlns="http://www.w3.org/2000/svg">
  <path d="M 196.5 1734  A 1.5 1.5 0 0 1 198 1732.5 L 206 1732.5  A 1.5 1.5 0 0 1 207.5 1734 L 207.5 1742  A 1.5 1.5 0 0 1 206 1743.5 L 198 1743.5  A 1.5 1.5 0 0 1 196.5 1742 L 196.5 1734  Z " fill-rule="nonzero" fill="#ffffff" stroke="none" />
  <path d="M 196.5 1734  A 1.5 1.5 0 0 1 198 1732.5 L 206 1732.5  A 1.5 1.5 0 0 1 207.5 1734 L 207.5 1742  A 1.5 1.5 0 0 1 206 1743.5 L 198 1743.5  A 1.5 1.5 0 0 1 196.5 1742 L 196.5 1734  Z " stroke-width="1" stroke="#797979" fill="none" />
  <path d="M 198.571428571429 1738  L 201.142857142857 1740.57142857143  " stroke-width="2.57142857142857" stroke="#797979" fill="none" />
  <path d="M 201.142857142857 1740.57142857143  L 205.428571428571 1734.57142857143  " stroke-width="2.57142857142857" stroke="#797979" fill="none" />
</svg>