<?xml version="1.0" encoding="utf-8"?>
<svg version="1.1" xmlns:xlink="http://www.w3.org/1999/xlink" width="12px" height="12px" viewBox="802 1864.5  12 12" xmlns="http://www.w3.org/2000/svg">
  <path d="M 808 1864.5  C 811.36 1864.5  814 1867.14  814 1870.5  C 814 1873.86  811.36 1876.5  808 1876.5  C 804.64 1876.5  802 1873.86  802 1870.5  C 802 1867.14  804.64 1864.5  808 1864.5  Z " fill-rule="nonzero" fill="#ffffff" stroke="none" />
  <path d="M 808 1865  C 811.08 1865  813.5 1867.42  813.5 1870.5  C 813.5 1873.58  811.08 1876  808 1876  C 804.92 1876  802.5 1873.58  802.5 1870.5  C 802.5 1867.42  804.92 1865  808 1865  Z " stroke-width="1" stroke="#797979" fill="none" />
  <path d="M 808 1873.5  C 806.32 1873.5  805 1872.18  805 1870.5  C 805 1868.82  806.32 1867.5  808 1867.5  C 809.68 1867.5  811 1868.82  811 1870.5  C 811 1872.18  809.68 1873.5  808 1873.5  " fill-rule="nonzero" fill="#797979" stroke="none" />
</svg>