<?xml version="1.0" encoding="utf-8"?>
<svg version="1.1" xmlns:xlink="http://www.w3.org/1999/xlink" width="12px" height="12px" viewBox="802 1955.5  12 12" xmlns="http://www.w3.org/2000/svg">
  <path d="M 808 1955.5  C 811.36 1955.5  814 1958.14  814 1961.5  C 814 1964.86  811.36 1967.5  808 1967.5  C 804.64 1967.5  802 1964.86  802 1961.5  C 802 1958.14  804.64 1955.5  808 1955.5  Z " fill-rule="nonzero" fill="#f0f0f0" stroke="none" />
  <path d="M 808 1956  C 811.08 1956  813.5 1958.42  813.5 1961.5  C 813.5 1964.58  811.08 1967  808 1967  C 804.92 1967  802.5 1964.58  802.5 1961.5  C 802.5 1958.42  804.92 1956  808 1956  Z " stroke-width="1" stroke="#797979" fill="none" />
  <path d="M 808 1964.5  C 806.32 1964.5  805 1963.18  805 1961.5  C 805 1959.82  806.32 1958.5  808 1958.5  C 809.68 1958.5  811 1959.82  811 1961.5  C 811 1963.18  809.68 1964.5  808 1964.5  " fill-rule="nonzero" fill="#797979" stroke="none" />
</svg>