<?xml version="1.0" encoding="utf-8"?>
<svg version="1.1" xmlns:xlink="http://www.w3.org/1999/xlink" width="12px" height="12px" viewBox="848 2412.5  12 12" xmlns="http://www.w3.org/2000/svg">
  <path d="M 854 2412.5  C 857.36 2412.5  860 2415.14  860 2418.5  C 860 2421.86  857.36 2424.5  854 2424.5  C 850.64 2424.5  848 2421.86  848 2418.5  C 848 2415.14  850.64 2412.5  854 2412.5  Z " fill-rule="nonzero" fill="#f0f0f0" stroke="none" />
  <path d="M 854 2413  C 857.08 2413  859.5 2415.42  859.5 2418.5  C 859.5 2421.58  857.08 2424  854 2424  C 850.92 2424  848.5 2421.58  848.5 2418.5  C 848.5 2415.42  850.92 2413  854 2413  Z " stroke-width="1" stroke="#797979" fill="none" />
  <path d="M 854 2421.5  C 852.32 2421.5  851 2420.18  851 2418.5  C 851 2416.82  852.32 2415.5  854 2415.5  C 855.68 2415.5  857 2416.82  857 2418.5  C 857 2420.18  855.68 2421.5  854 2421.5  " fill-rule="nonzero" fill="#797979" stroke="none" />
</svg>