<?xml version="1.0" encoding="utf-8"?>
<svg version="1.1" xmlns:xlink="http://www.w3.org/1999/xlink" width="12px" height="12px" viewBox="449 2044  12 12" xmlns="http://www.w3.org/2000/svg">
  <path d="M 449.5 2046  A 1.5 1.5 0 0 1 451 2044.5 L 459 2044.5  A 1.5 1.5 0 0 1 460.5 2046 L 460.5 2054  A 1.5 1.5 0 0 1 459 2055.5 L 451 2055.5  A 1.5 1.5 0 0 1 449.5 2054 L 449.5 2046  Z " fill-rule="nonzero" fill="#f0f0f0" stroke="none" />
  <path d="M 449.5 2046  A 1.5 1.5 0 0 1 451 2044.5 L 459 2044.5  A 1.5 1.5 0 0 1 460.5 2046 L 460.5 2054  A 1.5 1.5 0 0 1 459 2055.5 L 451 2055.5  A 1.5 1.5 0 0 1 449.5 2054 L 449.5 2046  Z " stroke-width="1" stroke="#797979" fill="none" />
</svg>