<?xml version="1.0" encoding="utf-8"?>
<svg version="1.1" xmlns:xlink="http://www.w3.org/1999/xlink" width="12px" height="12px" viewBox="802 1998.5  12 12" xmlns="http://www.w3.org/2000/svg">
  <path d="M 808 1998.5  C 811.36 1998.5  814 2001.14  814 2004.5  C 814 2007.86  811.36 2010.5  808 2010.5  C 804.64 2010.5  802 2007.86  802 2004.5  C 802 2001.14  804.64 1998.5  808 1998.5  Z " fill-rule="nonzero" fill="#ffffff" stroke="none" />
  <path d="M 808 1999  C 811.08 1999  813.5 2001.42  813.5 2004.5  C 813.5 2007.58  811.08 2010  808 2010  C 804.92 2010  802.5 2007.58  802.5 2004.5  C 802.5 2001.42  804.92 1999  808 1999  Z " stroke-width="1" stroke="#797979" fill="none" />
  <path d="M 808 2007.5  C 806.32 2007.5  805 2006.18  805 2004.5  C 805 2002.82  806.32 2001.5  808 2001.5  C 809.68 2001.5  811 2002.82  811 2004.5  C 811 2006.18  809.68 2007.5  808 2007.5  " fill-rule="nonzero" fill="#797979" stroke="none" />
</svg>