<?xml version="1.0" encoding="utf-8"?>
<svg version="1.1" xmlns:xlink="http://www.w3.org/1999/xlink" width="12px" height="12px" viewBox="849 1998.5  12 12" xmlns="http://www.w3.org/2000/svg">
  <path d="M 855 1998.5  C 858.36 1998.5  861 2001.14  861 2004.5  C 861 2007.86  858.36 2010.5  855 2010.5  C 851.64 2010.5  849 2007.86  849 2004.5  C 849 2001.14  851.64 1998.5  855 1998.5  Z " fill-rule="nonzero" fill="#f0f0f0" stroke="none" />
  <path d="M 855 1999  C 858.08 1999  860.5 2001.42  860.5 2004.5  C 860.5 2007.58  858.08 2010  855 2010  C 851.92 2010  849.5 2007.58  849.5 2004.5  C 849.5 2001.42  851.92 1999  855 1999  Z " stroke-width="1" stroke="#797979" fill="none" />
  <path d="M 855 2007.5  C 853.32 2007.5  852 2006.18  852 2004.5  C 852 2002.82  853.32 2001.5  855 2001.5  C 856.68 2001.5  858 2002.82  858 2004.5  C 858 2006.18  856.68 2007.5  855 2007.5  " fill-rule="nonzero" fill="#797979" stroke="none" />
</svg>