<?xml version="1.0" encoding="utf-8"?>
<svg version="1.1" xmlns:xlink="http://www.w3.org/1999/xlink" width="12px" height="12px" viewBox="801 2089.5  12 12" xmlns="http://www.w3.org/2000/svg">
  <path d="M 807 2089.5  C 810.36 2089.5  813 2092.14  813 2095.5  C 813 2098.86  810.36 2101.5  807 2101.5  C 803.64 2101.5  801 2098.86  801 2095.5  C 801 2092.14  803.64 2089.5  807 2089.5  Z " fill-rule="nonzero" fill="#ffffff" stroke="none" />
  <path d="M 807 2090  C 810.08 2090  812.5 2092.42  812.5 2095.5  C 812.5 2098.58  810.08 2101  807 2101  C 803.92 2101  801.5 2098.58  801.5 2095.5  C 801.5 2092.42  803.92 2090  807 2090  Z " stroke-width="1" stroke="#797979" fill="none" />
  <path d="M 807 2098.5  C 805.32 2098.5  804 2097.18  804 2095.5  C 804 2093.82  805.32 2092.5  807 2092.5  C 808.68 2092.5  810 2093.82  810 2095.5  C 810 2097.18  808.68 2098.5  807 2098.5  " fill-rule="nonzero" fill="#797979" stroke="none" />
</svg>