<?xml version="1.0" encoding="utf-8"?>
<svg version="1.1" xmlns:xlink="http://www.w3.org/1999/xlink" width="12px" height="12px" viewBox="803 2182.5  12 12" xmlns="http://www.w3.org/2000/svg">
  <path d="M 809 2182.5  C 812.36 2182.5  815 2185.14  815 2188.5  C 815 2191.86  812.36 2194.5  809 2194.5  C 805.64 2194.5  803 2191.86  803 2188.5  C 803 2185.14  805.64 2182.5  809 2182.5  Z " fill-rule="nonzero" fill="#ffffff" stroke="none" />
  <path d="M 809 2183  C 812.08 2183  814.5 2185.42  814.5 2188.5  C 814.5 2191.58  812.08 2194  809 2194  C 805.92 2194  803.5 2191.58  803.5 2188.5  C 803.5 2185.42  805.92 2183  809 2183  Z " stroke-width="1" stroke="#797979" fill="none" />
  <path d="M 809 2191.5  C 807.32 2191.5  806 2190.18  806 2188.5  C 806 2186.82  807.32 2185.5  809 2185.5  C 810.68 2185.5  812 2186.82  812 2188.5  C 812 2190.18  810.68 2191.5  809 2191.5  " fill-rule="nonzero" fill="#797979" stroke="none" />
</svg>