<?xml version="1.0" encoding="utf-8"?>
<svg version="1.1" xmlns:xlink="http://www.w3.org/1999/xlink" width="12px" height="12px" viewBox="850 2139.5  12 12" xmlns="http://www.w3.org/2000/svg">
  <path d="M 856 2139.5  C 859.36 2139.5  862 2142.14  862 2145.5  C 862 2148.86  859.36 2151.5  856 2151.5  C 852.64 2151.5  850 2148.86  850 2145.5  C 850 2142.14  852.64 2139.5  856 2139.5  Z " fill-rule="nonzero" fill="#ffffff" stroke="none" />
  <path d="M 856 2140  C 859.08 2140  861.5 2142.42  861.5 2145.5  C 861.5 2148.58  859.08 2151  856 2151  C 852.92 2151  850.5 2148.58  850.5 2145.5  C 850.5 2142.42  852.92 2140  856 2140  Z " stroke-width="1" stroke="#797979" fill="none" />
  <path d="M 856 2148.5  C 854.32 2148.5  853 2147.18  853 2145.5  C 853 2143.82  854.32 2142.5  856 2142.5  C 857.68 2142.5  859 2143.82  859 2145.5  C 859 2147.18  857.68 2148.5  856 2148.5  " fill-rule="nonzero" fill="#797979" stroke="none" />
</svg>