<?xml version="1.0" encoding="utf-8"?>
<svg version="1.1" xmlns:xlink="http://www.w3.org/1999/xlink" width="12px" height="12px" viewBox="849 2273.5  12 12" xmlns="http://www.w3.org/2000/svg">
  <path d="M 855 2273.5  C 858.36 2273.5  861 2276.14  861 2279.5  C 861 2282.86  858.36 2285.5  855 2285.5  C 851.64 2285.5  849 2282.86  849 2279.5  C 849 2276.14  851.64 2273.5  855 2273.5  Z " fill-rule="nonzero" fill="#ffffff" stroke="none" />
  <path d="M 855 2274  C 858.08 2274  860.5 2276.42  860.5 2279.5  C 860.5 2282.58  858.08 2285  855 2285  C 851.92 2285  849.5 2282.58  849.5 2279.5  C 849.5 2276.42  851.92 2274  855 2274  Z " stroke-width="1" stroke="#797979" fill="none" />
  <path d="M 855 2282.5  C 853.32 2282.5  852 2281.18  852 2279.5  C 852 2277.82  853.32 2276.5  855 2276.5  C 856.68 2276.5  858 2277.82  858 2279.5  C 858 2281.18  856.68 2282.5  855 2282.5  " fill-rule="nonzero" fill="#797979" stroke="none" />
</svg>