<?xml version="1.0" encoding="utf-8"?>
<svg version="1.1" xmlns:xlink="http://www.w3.org/1999/xlink" width="12px" height="12px" viewBox="449 2180  12 12" xmlns="http://www.w3.org/2000/svg">
  <path d="M 449.5 2182  A 1.5 1.5 0 0 1 451 2180.5 L 459 2180.5  A 1.5 1.5 0 0 1 460.5 2182 L 460.5 2190  A 1.5 1.5 0 0 1 459 2191.5 L 451 2191.5  A 1.5 1.5 0 0 1 449.5 2190 L 449.5 2182  Z " fill-rule="nonzero" fill="#ffffff" stroke="none" />
  <path d="M 449.5 2182  A 1.5 1.5 0 0 1 451 2180.5 L 459 2180.5  A 1.5 1.5 0 0 1 460.5 2182 L 460.5 2190  A 1.5 1.5 0 0 1 459 2191.5 L 451 2191.5  A 1.5 1.5 0 0 1 449.5 2190 L 449.5 2182  Z " stroke-width="1" stroke="#797979" fill="none" />
  <path d="M 451.571428571429 2186  L 454.142857142857 2188.57142857143  " stroke-width="2.57142857142857" stroke="#797979" fill="none" />
  <path d="M 454.142857142857 2188.57142857143  L 458.428571428571 2182.57142857143  " stroke-width="2.57142857142857" stroke="#797979" fill="none" />
</svg>