<?xml version="1.0" encoding="utf-8"?>
<svg version="1.1" xmlns:xlink="http://www.w3.org/1999/xlink" width="12px" height="12px" viewBox="802 2321.5  12 12" xmlns="http://www.w3.org/2000/svg">
  <path d="M 808 2321.5  C 811.36 2321.5  814 2324.14  814 2327.5  C 814 2330.86  811.36 2333.5  808 2333.5  C 804.64 2333.5  802 2330.86  802 2327.5  C 802 2324.14  804.64 2321.5  808 2321.5  Z " fill-rule="nonzero" fill="#ffffff" stroke="none" />
  <path d="M 808 2322  C 811.08 2322  813.5 2324.42  813.5 2327.5  C 813.5 2330.58  811.08 2333  808 2333  C 804.92 2333  802.5 2330.58  802.5 2327.5  C 802.5 2324.42  804.92 2322  808 2322  Z " stroke-width="1" stroke="#797979" fill="none" />
  <path d="M 808 2330.5  C 806.32 2330.5  805 2329.18  805 2327.5  C 805 2325.82  806.32 2324.5  808 2324.5  C 809.68 2324.5  811 2325.82  811 2327.5  C 811 2329.18  809.68 2330.5  808 2330.5  " fill-rule="nonzero" fill="#797979" stroke="none" />
</svg>