<?xml version="1.0" encoding="utf-8"?>
<svg version="1.1" xmlns:xlink="http://www.w3.org/1999/xlink" width="12px" height="12px" viewBox="192 2099  12 12" xmlns="http://www.w3.org/2000/svg">
  <path d="M 192.5 2101  A 1.5 1.5 0 0 1 194 2099.5 L 202 2099.5  A 1.5 1.5 0 0 1 203.5 2101 L 203.5 2109  A 1.5 1.5 0 0 1 202 2110.5 L 194 2110.5  A 1.5 1.5 0 0 1 192.5 2109 L 192.5 2101  Z " fill-rule="nonzero" fill="#ffffff" stroke="none" />
  <path d="M 192.5 2101  A 1.5 1.5 0 0 1 194 2099.5 L 202 2099.5  A 1.5 1.5 0 0 1 203.5 2101 L 203.5 2109  A 1.5 1.5 0 0 1 202 2110.5 L 194 2110.5  A 1.5 1.5 0 0 1 192.5 2109 L 192.5 2101  Z " stroke-width="1" stroke="#797979" fill="none" />
  <path d="M 194.571428571429 2105  L 197.142857142857 2107.57142857143  " stroke-width="2.57142857142857" stroke="#797979" fill="none" />
  <path d="M 197.142857142857 2107.57142857143  L 201.428571428571 2101.57142857143  " stroke-width="2.57142857142857" stroke="#797979" fill="none" />
</svg>