<?xml version="1.0" encoding="utf-8"?>
<svg version="1.1" xmlns:xlink="http://www.w3.org/1999/xlink" width="12px" height="12px" viewBox="850 2505.5  12 12" xmlns="http://www.w3.org/2000/svg">
  <path d="M 856 2505.5  C 859.36 2505.5  862 2508.14  862 2511.5  C 862 2514.86  859.36 2517.5  856 2517.5  C 852.64 2517.5  850 2514.86  850 2511.5  C 850 2508.14  852.64 2505.5  856 2505.5  Z " fill-rule="nonzero" fill="#ffffff" stroke="none" />
  <path d="M 856 2506  C 859.08 2506  861.5 2508.42  861.5 2511.5  C 861.5 2514.58  859.08 2517  856 2517  C 852.92 2517  850.5 2514.58  850.5 2511.5  C 850.5 2508.42  852.92 2506  856 2506  Z " stroke-width="1" stroke="#797979" fill="none" />
  <path d="M 856 2514.5  C 854.32 2514.5  853 2513.18  853 2511.5  C 853 2509.82  854.32 2508.5  856 2508.5  C 857.68 2508.5  859 2509.82  859 2511.5  C 859 2513.18  857.68 2514.5  856 2514.5  " fill-rule="nonzero" fill="#797979" stroke="none" />
</svg>