<?xml version="1.0" encoding="utf-8"?>
<svg version="1.1" xmlns:xlink="http://www.w3.org/1999/xlink" width="12px" height="12px" viewBox="848 2455.5  12 12" xmlns="http://www.w3.org/2000/svg">
  <path d="M 854 2455.5  C 857.36 2455.5  860 2458.14  860 2461.5  C 860 2464.86  857.36 2467.5  854 2467.5  C 850.64 2467.5  848 2464.86  848 2461.5  C 848 2458.14  850.64 2455.5  854 2455.5  Z " fill-rule="nonzero" fill="#ffffff" stroke="none" />
  <path d="M 854 2456  C 857.08 2456  859.5 2458.42  859.5 2461.5  C 859.5 2464.58  857.08 2467  854 2467  C 850.92 2467  848.5 2464.58  848.5 2461.5  C 848.5 2458.42  850.92 2456  854 2456  Z " stroke-width="1" stroke="#797979" fill="none" />
  <path d="M 854 2464.5  C 852.32 2464.5  851 2463.18  851 2461.5  C 851 2459.82  852.32 2458.5  854 2458.5  C 855.68 2458.5  857 2459.82  857 2461.5  C 857 2463.18  855.68 2464.5  854 2464.5  " fill-rule="nonzero" fill="#797979" stroke="none" />
</svg>