<?xml version="1.0" encoding="utf-8"?>
<svg version="1.1" xmlns:xlink="http://www.w3.org/1999/xlink" width="12px" height="12px" viewBox="849 2639.5  12 12" xmlns="http://www.w3.org/2000/svg">
  <path d="M 855 2639.5  C 858.36 2639.5  861 2642.14  861 2645.5  C 861 2648.86  858.36 2651.5  855 2651.5  C 851.64 2651.5  849 2648.86  849 2645.5  C 849 2642.14  851.64 2639.5  855 2639.5  Z " fill-rule="nonzero" fill="#f0f0f0" stroke="none" />
  <path d="M 855 2640  C 858.08 2640  860.5 2642.42  860.5 2645.5  C 860.5 2648.58  858.08 2651  855 2651  C 851.92 2651  849.5 2648.58  849.5 2645.5  C 849.5 2642.42  851.92 2640  855 2640  Z " stroke-width="1" stroke="#797979" fill="none" />
  <path d="M 855 2648.5  C 853.32 2648.5  852 2647.18  852 2645.5  C 852 2643.82  853.32 2642.5  855 2642.5  C 856.68 2642.5  858 2643.82  858 2645.5  C 858 2647.18  856.68 2648.5  855 2648.5  " fill-rule="nonzero" fill="#797979" stroke="none" />
</svg>