<?xml version="1.0" encoding="utf-8"?>
<svg version="1.1" xmlns:xlink="http://www.w3.org/1999/xlink" width="12px" height="12px" viewBox="801 2777.5  12 12" xmlns="http://www.w3.org/2000/svg">
  <path d="M 807 2777.5  C 810.36 2777.5  813 2780.14  813 2783.5  C 813 2786.86  810.36 2789.5  807 2789.5  C 803.64 2789.5  801 2786.86  801 2783.5  C 801 2780.14  803.64 2777.5  807 2777.5  Z " fill-rule="nonzero" fill="#f0f0f0" stroke="none" />
  <path d="M 807 2778  C 810.08 2778  812.5 2780.42  812.5 2783.5  C 812.5 2786.58  810.08 2789  807 2789  C 803.92 2789  801.5 2786.58  801.5 2783.5  C 801.5 2780.42  803.92 2778  807 2778  Z " stroke-width="1" stroke="#797979" fill="none" />
  <path d="M 807 2786.5  C 805.32 2786.5  804 2785.18  804 2783.5  C 804 2781.82  805.32 2780.5  807 2780.5  C 808.68 2780.5  810 2781.82  810 2783.5  C 810 2785.18  808.68 2786.5  807 2786.5  " fill-rule="nonzero" fill="#797979" stroke="none" />
</svg>