<?xml version="1.0" encoding="utf-8"?>
<svg version="1.1" xmlns:xlink="http://www.w3.org/1999/xlink" width="12px" height="12px" viewBox="849 2729.5  12 12" xmlns="http://www.w3.org/2000/svg">
  <path d="M 855 2729.5  C 858.36 2729.5  861 2732.14  861 2735.5  C 861 2738.86  858.36 2741.5  855 2741.5  C 851.64 2741.5  849 2738.86  849 2735.5  C 849 2732.14  851.64 2729.5  855 2729.5  Z " fill-rule="nonzero" fill="#f0f0f0" stroke="none" />
  <path d="M 855 2730  C 858.08 2730  860.5 2732.42  860.5 2735.5  C 860.5 2738.58  858.08 2741  855 2741  C 851.92 2741  849.5 2738.58  849.5 2735.5  C 849.5 2732.42  851.92 2730  855 2730  Z " stroke-width="1" stroke="#797979" fill="none" />
  <path d="M 855 2738.5  C 853.32 2738.5  852 2737.18  852 2735.5  C 852 2733.82  853.32 2732.5  855 2732.5  C 856.68 2732.5  858 2733.82  858 2735.5  C 858 2737.18  856.68 2738.5  855 2738.5  " fill-rule="nonzero" fill="#797979" stroke="none" />
</svg>