<?xml version="1.0" encoding="utf-8"?>
<svg version="1.1" xmlns:xlink="http://www.w3.org/1999/xlink" width="12px" height="12px" viewBox="449 2775  12 12" xmlns="http://www.w3.org/2000/svg">
  <path d="M 449.5 2777  A 1.5 1.5 0 0 1 451 2775.5 L 459 2775.5  A 1.5 1.5 0 0 1 460.5 2777 L 460.5 2785  A 1.5 1.5 0 0 1 459 2786.5 L 451 2786.5  A 1.5 1.5 0 0 1 449.5 2785 L 449.5 2777  Z " fill-rule="nonzero" fill="#ffffff" stroke="none" />
  <path d="M 449.5 2777  A 1.5 1.5 0 0 1 451 2775.5 L 459 2775.5  A 1.5 1.5 0 0 1 460.5 2777 L 460.5 2785  A 1.5 1.5 0 0 1 459 2786.5 L 451 2786.5  A 1.5 1.5 0 0 1 449.5 2785 L 449.5 2777  Z " stroke-width="1" stroke="#797979" fill="none" />
  <path d="M 451.571428571429 2781  L 454.142857142857 2783.57142857143  " stroke-width="2.57142857142857" stroke="#797979" fill="none" />
  <path d="M 454.142857142857 2783.57142857143  L 458.428571428571 2777.57142857143  " stroke-width="2.57142857142857" stroke="#797979" fill="none" />
</svg>