<?xml version="1.0" encoding="utf-8"?>
<svg version="1.1" xmlns:xlink="http://www.w3.org/1999/xlink" width="12px" height="12px" viewBox="848 2820.5  12 12" xmlns="http://www.w3.org/2000/svg">
  <path d="M 854 2820.5  C 857.36 2820.5  860 2823.14  860 2826.5  C 860 2829.86  857.36 2832.5  854 2832.5  C 850.64 2832.5  848 2829.86  848 2826.5  C 848 2823.14  850.64 2820.5  854 2820.5  Z " fill-rule="nonzero" fill="#ffffff" stroke="none" />
  <path d="M 854 2821  C 857.08 2821  859.5 2823.42  859.5 2826.5  C 859.5 2829.58  857.08 2832  854 2832  C 850.92 2832  848.5 2829.58  848.5 2826.5  C 848.5 2823.42  850.92 2821  854 2821  Z " stroke-width="1" stroke="#797979" fill="none" />
  <path d="M 854 2829.5  C 852.32 2829.5  851 2828.18  851 2826.5  C 851 2824.82  852.32 2823.5  854 2823.5  C 855.68 2823.5  857 2824.82  857 2826.5  C 857 2828.18  855.68 2829.5  854 2829.5  " fill-rule="nonzero" fill="#797979" stroke="none" />
</svg>