<?xml version="1.0" encoding="utf-8"?>
<svg version="1.1" xmlns:xlink="http://www.w3.org/1999/xlink" width="12px" height="12px" viewBox="850 2913.5  12 12" xmlns="http://www.w3.org/2000/svg">
  <path d="M 856 2913.5  C 859.36 2913.5  862 2916.14  862 2919.5  C 862 2922.86  859.36 2925.5  856 2925.5  C 852.64 2925.5  850 2922.86  850 2919.5  C 850 2916.14  852.64 2913.5  856 2913.5  Z " fill-rule="nonzero" fill="#ffffff" stroke="none" />
  <path d="M 856 2914  C 859.08 2914  861.5 2916.42  861.5 2919.5  C 861.5 2922.58  859.08 2925  856 2925  C 852.92 2925  850.5 2922.58  850.5 2919.5  C 850.5 2916.42  852.92 2914  856 2914  Z " stroke-width="1" stroke="#797979" fill="none" />
  <path d="M 856 2922.5  C 854.32 2922.5  853 2921.18  853 2919.5  C 853 2917.82  854.32 2916.5  856 2916.5  C 857.68 2916.5  859 2917.82  859 2919.5  C 859 2921.18  857.68 2922.5  856 2922.5  " fill-rule="nonzero" fill="#797979" stroke="none" />
</svg>