<?xml version="1.0" encoding="utf-8"?>
<svg version="1.1" xmlns:xlink="http://www.w3.org/1999/xlink" width="12px" height="12px" viewBox="850 2870.5  12 12" xmlns="http://www.w3.org/2000/svg">
  <path d="M 856 2870.5  C 859.36 2870.5  862 2873.14  862 2876.5  C 862 2879.86  859.36 2882.5  856 2882.5  C 852.64 2882.5  850 2879.86  850 2876.5  C 850 2873.14  852.64 2870.5  856 2870.5  Z " fill-rule="nonzero" fill="#f0f0f0" stroke="none" />
  <path d="M 856 2871  C 859.08 2871  861.5 2873.42  861.5 2876.5  C 861.5 2879.58  859.08 2882  856 2882  C 852.92 2882  850.5 2879.58  850.5 2876.5  C 850.5 2873.42  852.92 2871  856 2871  Z " stroke-width="1" stroke="#797979" fill="none" />
  <path d="M 856 2879.5  C 854.32 2879.5  853 2878.18  853 2876.5  C 853 2874.82  854.32 2873.5  856 2873.5  C 857.68 2873.5  859 2874.82  859 2876.5  C 859 2878.18  857.68 2879.5  856 2879.5  " fill-rule="nonzero" fill="#797979" stroke="none" />
</svg>