<?xml version="1.0" encoding="utf-8"?>
<svg version="1.1" xmlns:xlink="http://www.w3.org/1999/xlink" width="12px" height="12px" viewBox="448 3002  12 12" xmlns="http://www.w3.org/2000/svg">
  <path d="M 448.5 3004  A 1.5 1.5 0 0 1 450 3002.5 L 458 3002.5  A 1.5 1.5 0 0 1 459.5 3004 L 459.5 3012  A 1.5 1.5 0 0 1 458 3013.5 L 450 3013.5  A 1.5 1.5 0 0 1 448.5 3012 L 448.5 3004  Z " fill-rule="nonzero" fill="#ffffff" stroke="none" />
  <path d="M 448.5 3004  A 1.5 1.5 0 0 1 450 3002.5 L 458 3002.5  A 1.5 1.5 0 0 1 459.5 3004 L 459.5 3012  A 1.5 1.5 0 0 1 458 3013.5 L 450 3013.5  A 1.5 1.5 0 0 1 448.5 3012 L 448.5 3004  Z " stroke-width="1" stroke="#797979" fill="none" />
</svg>