<?xml version="1.0" encoding="utf-8"?>
<svg version="1.1" xmlns:xlink="http://www.w3.org/1999/xlink" width="12px" height="12px" viewBox="849 2961.5  12 12" xmlns="http://www.w3.org/2000/svg">
  <path d="M 855 2961.5  C 858.36 2961.5  861 2964.14  861 2967.5  C 861 2970.86  858.36 2973.5  855 2973.5  C 851.64 2973.5  849 2970.86  849 2967.5  C 849 2964.14  851.64 2961.5  855 2961.5  Z " fill-rule="nonzero" fill="#f0f0f0" stroke="none" />
  <path d="M 855 2962  C 858.08 2962  860.5 2964.42  860.5 2967.5  C 860.5 2970.58  858.08 2973  855 2973  C 851.92 2973  849.5 2970.58  849.5 2967.5  C 849.5 2964.42  851.92 2962  855 2962  Z " stroke-width="1" stroke="#797979" fill="none" />
  <path d="M 855 2970.5  C 853.32 2970.5  852 2969.18  852 2967.5  C 852 2965.82  853.32 2964.5  855 2964.5  C 856.68 2964.5  858 2965.82  858 2967.5  C 858 2969.18  856.68 2970.5  855 2970.5  " fill-rule="nonzero" fill="#797979" stroke="none" />
</svg>