<?xml version="1.0" encoding="utf-8"?>
<svg version="1.1" xmlns:xlink="http://www.w3.org/1999/xlink" width="12px" height="12px" viewBox="803 2870.5  12 12" xmlns="http://www.w3.org/2000/svg">
  <path d="M 809 2870.5  C 812.36 2870.5  815 2873.14  815 2876.5  C 815 2879.86  812.36 2882.5  809 2882.5  C 805.64 2882.5  803 2879.86  803 2876.5  C 803 2873.14  805.64 2870.5  809 2870.5  Z " fill-rule="nonzero" fill="#ffffff" stroke="none" />
  <path d="M 809 2871  C 812.08 2871  814.5 2873.42  814.5 2876.5  C 814.5 2879.58  812.08 2882  809 2882  C 805.92 2882  803.5 2879.58  803.5 2876.5  C 803.5 2873.42  805.92 2871  809 2871  Z " stroke-width="1" stroke="#797979" fill="none" />
  <path d="M 809 2879.5  C 807.32 2879.5  806 2878.18  806 2876.5  C 806 2874.82  807.32 2873.5  809 2873.5  C 810.68 2873.5  812 2874.82  812 2876.5  C 812 2878.18  810.68 2879.5  809 2879.5  " fill-rule="nonzero" fill="#797979" stroke="none" />
</svg>