<?xml version="1.0" encoding="utf-8"?>
<svg version="1.1" xmlns:xlink="http://www.w3.org/1999/xlink" width="12px" height="12px" viewBox="802 3004.5  12 12" xmlns="http://www.w3.org/2000/svg">
  <path d="M 808 3004.5  C 811.36 3004.5  814 3007.14  814 3010.5  C 814 3013.86  811.36 3016.5  808 3016.5  C 804.64 3016.5  802 3013.86  802 3010.5  C 802 3007.14  804.64 3004.5  808 3004.5  Z " fill-rule="nonzero" fill="#ffffff" stroke="none" />
  <path d="M 808 3005  C 811.08 3005  813.5 3007.42  813.5 3010.5  C 813.5 3013.58  811.08 3016  808 3016  C 804.92 3016  802.5 3013.58  802.5 3010.5  C 802.5 3007.42  804.92 3005  808 3005  Z " stroke-width="1" stroke="#797979" fill="none" />
  <path d="M 808 3013.5  C 806.32 3013.5  805 3012.18  805 3010.5  C 805 3008.82  806.32 3007.5  808 3007.5  C 809.68 3007.5  811 3008.82  811 3010.5  C 811 3012.18  809.68 3013.5  808 3013.5  " fill-rule="nonzero" fill="#797979" stroke="none" />
</svg>