<?xml version="1.0" encoding="utf-8"?>
<svg version="1.1" xmlns:xlink="http://www.w3.org/1999/xlink" width="12px" height="12px" viewBox="192 2885  12 12" xmlns="http://www.w3.org/2000/svg">
  <path d="M 192.5 2887  A 1.5 1.5 0 0 1 194 2885.5 L 202 2885.5  A 1.5 1.5 0 0 1 203.5 2887 L 203.5 2895  A 1.5 1.5 0 0 1 202 2896.5 L 194 2896.5  A 1.5 1.5 0 0 1 192.5 2895 L 192.5 2887  Z " fill-rule="nonzero" fill="#ffffff" stroke="none" />
  <path d="M 192.5 2887  A 1.5 1.5 0 0 1 194 2885.5 L 202 2885.5  A 1.5 1.5 0 0 1 203.5 2887 L 203.5 2895  A 1.5 1.5 0 0 1 202 2896.5 L 194 2896.5  A 1.5 1.5 0 0 1 192.5 2895 L 192.5 2887  Z " stroke-width="1" stroke="#797979" fill="none" />
  <path d="M 194.571428571429 2891  L 197.142857142857 2893.57142857143  " stroke-width="2.57142857142857" stroke="#797979" fill="none" />
  <path d="M 197.142857142857 2893.57142857143  L 201.428571428571 2887.57142857143  " stroke-width="2.57142857142857" stroke="#797979" fill="none" />
</svg>