<?xml version="1.0" encoding="utf-8"?>
<svg version="1.1" xmlns:xlink="http://www.w3.org/1999/xlink" width="12px" height="12px" viewBox="449 1496  12 12" xmlns="http://www.w3.org/2000/svg">
  <path d="M 449.5 1498  A 1.5 1.5 0 0 1 451 1496.5 L 459 1496.5  A 1.5 1.5 0 0 1 460.5 1498 L 460.5 1506  A 1.5 1.5 0 0 1 459 1507.5 L 451 1507.5  A 1.5 1.5 0 0 1 449.5 1506 L 449.5 1498  Z " fill-rule="nonzero" fill="#f0f0f0" stroke="none" />
  <path d="M 449.5 1498  A 1.5 1.5 0 0 1 451 1496.5 L 459 1496.5  A 1.5 1.5 0 0 1 460.5 1498 L 460.5 1506  A 1.5 1.5 0 0 1 459 1507.5 L 451 1507.5  A 1.5 1.5 0 0 1 449.5 1506 L 449.5 1498  Z " stroke-width="1" stroke="#797979" fill="none" />
</svg>