<?xml version="1.0" encoding="utf-8"?>
<svg version="1.1" xmlns:xlink="http://www.w3.org/1999/xlink" width="12px" height="12px" viewBox="848 1680.5  12 12" xmlns="http://www.w3.org/2000/svg">
  <path d="M 854 1680.5  C 857.36 1680.5  860 1683.14  860 1686.5  C 860 1689.86  857.36 1692.5  854 1692.5  C 850.64 1692.5  848 1689.86  848 1686.5  C 848 1683.14  850.64 1680.5  854 1680.5  Z " fill-rule="nonzero" fill="#f0f0f0" stroke="none" />
  <path d="M 854 1681  C 857.08 1681  859.5 1683.42  859.5 1686.5  C 859.5 1689.58  857.08 1692  854 1692  C 850.92 1692  848.5 1689.58  848.5 1686.5  C 848.5 1683.42  850.92 1681  854 1681  Z " stroke-width="1" stroke="#797979" fill="none" />
  <path d="M 854 1689.5  C 852.32 1689.5  851 1688.18  851 1686.5  C 851 1684.82  852.32 1683.5  854 1683.5  C 855.68 1683.5  857 1684.82  857 1686.5  C 857 1688.18  855.68 1689.5  854 1689.5  " fill-rule="nonzero" fill="#797979" stroke="none" />
</svg>