<?xml version="1.0" encoding="utf-8"?>
<svg version="1.1" xmlns:xlink="http://www.w3.org/1999/xlink" width="12px" height="12px" viewBox="848 1723.5  12 12" xmlns="http://www.w3.org/2000/svg">
  <path d="M 854 1723.5  C 857.36 1723.5  860 1726.14  860 1729.5  C 860 1732.86  857.36 1735.5  854 1735.5  C 850.64 1735.5  848 1732.86  848 1729.5  C 848 1726.14  850.64 1723.5  854 1723.5  Z " fill-rule="nonzero" fill="#f0f0f0" stroke="none" />
  <path d="M 854 1724  C 857.08 1724  859.5 1726.42  859.5 1729.5  C 859.5 1732.58  857.08 1735  854 1735  C 850.92 1735  848.5 1732.58  848.5 1729.5  C 848.5 1726.42  850.92 1724  854 1724  Z " stroke-width="1" stroke="#797979" fill="none" />
  <path d="M 854 1732.5  C 852.32 1732.5  851 1731.18  851 1729.5  C 851 1727.82  852.32 1726.5  854 1726.5  C 855.68 1726.5  857 1727.82  857 1729.5  C 857 1731.18  855.68 1732.5  854 1732.5  " fill-rule="nonzero" fill="#797979" stroke="none" />
</svg>