<?xml version="1.0" encoding="utf-8"?>
<svg version="1.1" xmlns:xlink="http://www.w3.org/1999/xlink" width="12px" height="12px" viewBox="802 1907.5  12 12" xmlns="http://www.w3.org/2000/svg">
  <path d="M 808 1907.5  C 811.36 1907.5  814 1910.14  814 1913.5  C 814 1916.86  811.36 1919.5  808 1919.5  C 804.64 1919.5  802 1916.86  802 1913.5  C 802 1910.14  804.64 1907.5  808 1907.5  Z " fill-rule="nonzero" fill="#ffffff" stroke="none" />
  <path d="M 808 1908  C 811.08 1908  813.5 1910.42  813.5 1913.5  C 813.5 1916.58  811.08 1919  808 1919  C 804.92 1919  802.5 1916.58  802.5 1913.5  C 802.5 1910.42  804.92 1908  808 1908  Z " stroke-width="1" stroke="#797979" fill="none" />
  <path d="M 808 1916.5  C 806.32 1916.5  805 1915.18  805 1913.5  C 805 1911.82  806.32 1910.5  808 1910.5  C 809.68 1910.5  811 1911.82  811 1913.5  C 811 1915.18  809.68 1916.5  808 1916.5  " fill-rule="nonzero" fill="#797979" stroke="none" />
</svg>