<?xml version="1.0" encoding="utf-8"?>
<svg version="1.1" xmlns:xlink="http://www.w3.org/1999/xlink" width="12px" height="12px" viewBox="801 1680.5  12 12" xmlns="http://www.w3.org/2000/svg">
  <path d="M 807 1680.5  C 810.36 1680.5  813 1683.14  813 1686.5  C 813 1689.86  810.36 1692.5  807 1692.5  C 803.64 1692.5  801 1689.86  801 1686.5  C 801 1683.14  803.64 1680.5  807 1680.5  Z " fill-rule="nonzero" fill="#ffffff" stroke="none" />
  <path d="M 807 1681  C 810.08 1681  812.5 1683.42  812.5 1686.5  C 812.5 1689.58  810.08 1692  807 1692  C 803.92 1692  801.5 1689.58  801.5 1686.5  C 801.5 1683.42  803.92 1681  807 1681  Z " stroke-width="1" stroke="#797979" fill="none" />
  <path d="M 807 1689.5  C 805.32 1689.5  804 1688.18  804 1686.5  C 804 1684.82  805.32 1683.5  807 1683.5  C 808.68 1683.5  810 1684.82  810 1686.5  C 810 1688.18  808.68 1689.5  807 1689.5  " fill-rule="nonzero" fill="#797979" stroke="none" />
</svg>