<?xml version="1.0" encoding="utf-8"?>
<svg version="1.1" xmlns:xlink="http://www.w3.org/1999/xlink" width="12px" height="12px" viewBox="446 1355  12 12" xmlns="http://www.w3.org/2000/svg">
  <path d="M 446.5 1357  A 1.5 1.5 0 0 1 448 1355.5 L 456 1355.5  A 1.5 1.5 0 0 1 457.5 1357 L 457.5 1365  A 1.5 1.5 0 0 1 456 1366.5 L 448 1366.5  A 1.5 1.5 0 0 1 446.5 1365 L 446.5 1357  Z " fill-rule="nonzero" fill="#f0f0f0" stroke="none" />
  <path d="M 446.5 1357  A 1.5 1.5 0 0 1 448 1355.5 L 456 1355.5  A 1.5 1.5 0 0 1 457.5 1357 L 457.5 1365  A 1.5 1.5 0 0 1 456 1366.5 L 448 1366.5  A 1.5 1.5 0 0 1 446.5 1365 L 446.5 1357  Z " stroke-width="1" stroke="#797979" fill="none" />
</svg>