<?xml version="1.0" encoding="utf-8"?>
<svg version="1.1" xmlns:xlink="http://www.w3.org/1999/xlink" width="12px" height="12px" viewBox="849 1907.5  12 12" xmlns="http://www.w3.org/2000/svg">
  <path d="M 855 1907.5  C 858.36 1907.5  861 1910.14  861 1913.5  C 861 1916.86  858.36 1919.5  855 1919.5  C 851.64 1919.5  849 1916.86  849 1913.5  C 849 1910.14  851.64 1907.5  855 1907.5  Z " fill-rule="nonzero" fill="#f0f0f0" stroke="none" />
  <path d="M 855 1908  C 858.08 1908  860.5 1910.42  860.5 1913.5  C 860.5 1916.58  858.08 1919  855 1919  C 851.92 1919  849.5 1916.58  849.5 1913.5  C 849.5 1910.42  851.92 1908  855 1908  Z " stroke-width="1" stroke="#797979" fill="none" />
  <path d="M 855 1916.5  C 853.32 1916.5  852 1915.18  852 1913.5  C 852 1911.82  853.32 1910.5  855 1910.5  C 856.68 1910.5  858 1911.82  858 1913.5  C 858 1915.18  856.68 1916.5  855 1916.5  " fill-rule="nonzero" fill="#797979" stroke="none" />
</svg>