<?xml version="1.0" encoding="utf-8"?>
<svg version="1.1" xmlns:xlink="http://www.w3.org/1999/xlink" width="12px" height="12px" viewBox="849 1864.5  12 12" xmlns="http://www.w3.org/2000/svg">
  <path d="M 855 1864.5  C 858.36 1864.5  861 1867.14  861 1870.5  C 861 1873.86  858.36 1876.5  855 1876.5  C 851.64 1876.5  849 1873.86  849 1870.5  C 849 1867.14  851.64 1864.5  855 1864.5  Z " fill-rule="nonzero" fill="#ffffff" stroke="none" />
  <path d="M 855 1865  C 858.08 1865  860.5 1867.42  860.5 1870.5  C 860.5 1873.58  858.08 1876  855 1876  C 851.92 1876  849.5 1873.58  849.5 1870.5  C 849.5 1867.42  851.92 1865  855 1865  Z " stroke-width="1" stroke="#797979" fill="none" />
  <path d="M 855 1873.5  C 853.32 1873.5  852 1872.18  852 1870.5  C 852 1868.82  853.32 1867.5  855 1867.5  C 856.68 1867.5  858 1868.82  858 1870.5  C 858 1872.18  856.68 1873.5  855 1873.5  " fill-rule="nonzero" fill="#797979" stroke="none" />
</svg>