<?xml version="1.0" encoding="utf-8"?>
<svg version="1.1" xmlns:xlink="http://www.w3.org/1999/xlink" width="12px" height="12px" viewBox="803 1816.5  12 12" xmlns="http://www.w3.org/2000/svg">
  <path d="M 809 1816.5  C 812.36 1816.5  815 1819.14  815 1822.5  C 815 1825.86  812.36 1828.5  809 1828.5  C 805.64 1828.5  803 1825.86  803 1822.5  C 803 1819.14  805.64 1816.5  809 1816.5  Z " fill-rule="nonzero" fill="#ffffff" stroke="none" />
  <path d="M 809 1817  C 812.08 1817  814.5 1819.42  814.5 1822.5  C 814.5 1825.58  812.08 1828  809 1828  C 805.92 1828  803.5 1825.58  803.5 1822.5  C 803.5 1819.42  805.92 1817  809 1817  Z " stroke-width="1" stroke="#797979" fill="none" />
  <path d="M 809 1825.5  C 807.32 1825.5  806 1824.18  806 1822.5  C 806 1820.82  807.32 1819.5  809 1819.5  C 810.68 1819.5  812 1820.82  812 1822.5  C 812 1824.18  810.68 1825.5  809 1825.5  " fill-rule="nonzero" fill="#797979" stroke="none" />
</svg>