<?xml version="1.0" encoding="utf-8"?>
<svg version="1.1" xmlns:xlink="http://www.w3.org/1999/xlink" width="12px" height="12px" viewBox="850 1816.5  12 12" xmlns="http://www.w3.org/2000/svg">
  <path d="M 856 1816.5  C 859.36 1816.5  862 1819.14  862 1822.5  C 862 1825.86  859.36 1828.5  856 1828.5  C 852.64 1828.5  850 1825.86  850 1822.5  C 850 1819.14  852.64 1816.5  856 1816.5  Z " fill-rule="nonzero" fill="#f0f0f0" stroke="none" />
  <path d="M 856 1817  C 859.08 1817  861.5 1819.42  861.5 1822.5  C 861.5 1825.58  859.08 1828  856 1828  C 852.92 1828  850.5 1825.58  850.5 1822.5  C 850.5 1819.42  852.92 1817  856 1817  Z " stroke-width="1" stroke="#797979" fill="none" />
  <path d="M 856 1825.5  C 854.32 1825.5  853 1824.18  853 1822.5  C 853 1820.82  854.32 1819.5  856 1819.5  C 857.68 1819.5  859 1820.82  859 1822.5  C 859 1824.18  857.68 1825.5  856 1825.5  " fill-rule="nonzero" fill="#797979" stroke="none" />
</svg>