<?xml version="1.0" encoding="utf-8"?>
<svg version="1.1" xmlns:xlink="http://www.w3.org/1999/xlink" width="12px" height="12px" viewBox="802 2230.5  12 12" xmlns="http://www.w3.org/2000/svg">
  <path d="M 808 2230.5  C 811.36 2230.5  814 2233.14  814 2236.5  C 814 2239.86  811.36 2242.5  808 2242.5  C 804.64 2242.5  802 2239.86  802 2236.5  C 802 2233.14  804.64 2230.5  808 2230.5  Z " fill-rule="nonzero" fill="#ffffff" stroke="none" />
  <path d="M 808 2231  C 811.08 2231  813.5 2233.42  813.5 2236.5  C 813.5 2239.58  811.08 2242  808 2242  C 804.92 2242  802.5 2239.58  802.5 2236.5  C 802.5 2233.42  804.92 2231  808 2231  Z " stroke-width="1" stroke="#797979" fill="none" />
  <path d="M 808 2239.5  C 806.32 2239.5  805 2238.18  805 2236.5  C 805 2234.82  806.32 2233.5  808 2233.5  C 809.68 2233.5  811 2234.82  811 2236.5  C 811 2238.18  809.68 2239.5  808 2239.5  " fill-rule="nonzero" fill="#797979" stroke="none" />
</svg>