<?xml version="1.0" encoding="utf-8"?>
<svg version="1.1" xmlns:xlink="http://www.w3.org/1999/xlink" width="12px" height="12px" viewBox="850 2548.5  12 12" xmlns="http://www.w3.org/2000/svg">
  <path d="M 856 2548.5  C 859.36 2548.5  862 2551.14  862 2554.5  C 862 2557.86  859.36 2560.5  856 2560.5  C 852.64 2560.5  850 2557.86  850 2554.5  C 850 2551.14  852.64 2548.5  856 2548.5  Z " fill-rule="nonzero" fill="#f0f0f0" stroke="none" />
  <path d="M 856 2549  C 859.08 2549  861.5 2551.42  861.5 2554.5  C 861.5 2557.58  859.08 2560  856 2560  C 852.92 2560  850.5 2557.58  850.5 2554.5  C 850.5 2551.42  852.92 2549  856 2549  Z " stroke-width="1" stroke="#797979" fill="none" />
  <path d="M 856 2557.5  C 854.32 2557.5  853 2556.18  853 2554.5  C 853 2552.82  854.32 2551.5  856 2551.5  C 857.68 2551.5  859 2552.82  859 2554.5  C 859 2556.18  857.68 2557.5  856 2557.5  " fill-rule="nonzero" fill="#797979" stroke="none" />
</svg>