<?xml version="1.0" encoding="utf-8"?>
<svg version="1.1" xmlns:xlink="http://www.w3.org/1999/xlink" width="12px" height="12px" viewBox="448 2637  12 12" xmlns="http://www.w3.org/2000/svg">
  <path d="M 448.5 2639  A 1.5 1.5 0 0 1 450 2637.5 L 458 2637.5  A 1.5 1.5 0 0 1 459.5 2639 L 459.5 2647  A 1.5 1.5 0 0 1 458 2648.5 L 450 2648.5  A 1.5 1.5 0 0 1 448.5 2647 L 448.5 2639  Z " fill-rule="nonzero" fill="#f0f0f0" stroke="none" />
  <path d="M 448.5 2639  A 1.5 1.5 0 0 1 450 2637.5 L 458 2637.5  A 1.5 1.5 0 0 1 459.5 2639 L 459.5 2647  A 1.5 1.5 0 0 1 458 2648.5 L 450 2648.5  A 1.5 1.5 0 0 1 448.5 2647 L 448.5 2639  Z " stroke-width="1" stroke="#797979" fill="none" />
</svg>