<?xml version="1.0" encoding="utf-8"?>
<svg version="1.1" xmlns:xlink="http://www.w3.org/1999/xlink" width="12px" height="12px" viewBox="448 3090  12 12" xmlns="http://www.w3.org/2000/svg">
  <path d="M 448.5 3092  A 1.5 1.5 0 0 1 450 3090.5 L 458 3090.5  A 1.5 1.5 0 0 1 459.5 3092 L 459.5 3100  A 1.5 1.5 0 0 1 458 3101.5 L 450 3101.5  A 1.5 1.5 0 0 1 448.5 3100 L 448.5 3092  Z " fill-rule="nonzero" fill="#f0f0f0" stroke="none" />
  <path d="M 448.5 3092  A 1.5 1.5 0 0 1 450 3090.5 L 458 3090.5  A 1.5 1.5 0 0 1 459.5 3092 L 459.5 3100  A 1.5 1.5 0 0 1 458 3101.5 L 450 3101.5  A 1.5 1.5 0 0 1 448.5 3100 L 448.5 3092  Z " stroke-width="1" stroke="#797979" fill="none" />
  <path d="M 450.571428571429 3096  L 453.142857142857 3098.57142857143  " stroke-width="2.57142857142857" stroke="#797979" fill="none" />
  <path d="M 453.142857142857 3098.57142857143  L 457.428571428571 3092.57142857143  " stroke-width="2.57142857142857" stroke="#797979" fill="none" />
</svg>