<?xml version="1.0" encoding="utf-8"?>
<svg version="1.1" xmlns:xlink="http://www.w3.org/1999/xlink" width="12px" height="12px" viewBox="849 1955.5  12 12" xmlns="http://www.w3.org/2000/svg">
  <path d="M 855 1955.5  C 858.36 1955.5  861 1958.14  861 1961.5  C 861 1964.86  858.36 1967.5  855 1967.5  C 851.64 1967.5  849 1964.86  849 1961.5  C 849 1958.14  851.64 1955.5  855 1955.5  Z " fill-rule="nonzero" fill="#f0f0f0" stroke="none" />
  <path d="M 855 1956  C 858.08 1956  860.5 1958.42  860.5 1961.5  C 860.5 1964.58  858.08 1967  855 1967  C 851.92 1967  849.5 1964.58  849.5 1961.5  C 849.5 1958.42  851.92 1956  855 1956  Z " stroke-width="1" stroke="#797979" fill="none" />
  <path d="M 855 1964.5  C 853.32 1964.5  852 1963.18  852 1961.5  C 852 1959.82  853.32 1958.5  855 1958.5  C 856.68 1958.5  858 1959.82  858 1961.5  C 858 1963.18  856.68 1964.5  855 1964.5  " fill-rule="nonzero" fill="#797979" stroke="none" />
</svg>