<?xml version="1.0" encoding="utf-8"?>
<svg version="1.1" xmlns:xlink="http://www.w3.org/1999/xlink" width="12px" height="12px" viewBox="448 2362  12 12" xmlns="http://www.w3.org/2000/svg">
  <path d="M 448.5 2364  A 1.5 1.5 0 0 1 450 2362.5 L 458 2362.5  A 1.5 1.5 0 0 1 459.5 2364 L 459.5 2372  A 1.5 1.5 0 0 1 458 2373.5 L 450 2373.5  A 1.5 1.5 0 0 1 448.5 2372 L 448.5 2364  Z " fill-rule="nonzero" fill="#ffffff" stroke="none" />
  <path d="M 448.5 2364  A 1.5 1.5 0 0 1 450 2362.5 L 458 2362.5  A 1.5 1.5 0 0 1 459.5 2364 L 459.5 2372  A 1.5 1.5 0 0 1 458 2373.5 L 450 2373.5  A 1.5 1.5 0 0 1 448.5 2372 L 448.5 2364  Z " stroke-width="1" stroke="#797979" fill="none" />
  <path d="M 450.571428571429 2368  L 453.142857142857 2370.57142857143  " stroke-width="2.57142857142857" stroke="#797979" fill="none" />
  <path d="M 453.142857142857 2370.57142857143  L 457.428571428571 2364.57142857143  " stroke-width="2.57142857142857" stroke="#797979" fill="none" />
</svg>