<?xml version="1.0" encoding="utf-8"?>
<svg version="1.1" xmlns:xlink="http://www.w3.org/1999/xlink" width="12px" height="12px" viewBox="849 2230.5  12 12" xmlns="http://www.w3.org/2000/svg">
  <path d="M 855 2230.5  C 858.36 2230.5  861 2233.14  861 2236.5  C 861 2239.86  858.36 2242.5  855 2242.5  C 851.64 2242.5  849 2239.86  849 2236.5  C 849 2233.14  851.64 2230.5  855 2230.5  Z " fill-rule="nonzero" fill="#ffffff" stroke="none" />
  <path d="M 855 2231  C 858.08 2231  860.5 2233.42  860.5 2236.5  C 860.5 2239.58  858.08 2242  855 2242  C 851.92 2242  849.5 2239.58  849.5 2236.5  C 849.5 2233.42  851.92 2231  855 2231  Z " stroke-width="1" stroke="#797979" fill="none" />
  <path d="M 855 2239.5  C 853.32 2239.5  852 2238.18  852 2236.5  C 852 2234.82  853.32 2233.5  855 2233.5  C 856.68 2233.5  858 2234.82  858 2236.5  C 858 2238.18  856.68 2239.5  855 2239.5  " fill-rule="nonzero" fill="#797979" stroke="none" />
</svg>