<?xml version="1.0" encoding="utf-8"?>
<svg version="1.1" xmlns:xlink="http://www.w3.org/1999/xlink" width="12px" height="12px" viewBox="451 2137  12 12" xmlns="http://www.w3.org/2000/svg">
  <path d="M 451.5 2139  A 1.5 1.5 0 0 1 453 2137.5 L 461 2137.5  A 1.5 1.5 0 0 1 462.5 2139 L 462.5 2147  A 1.5 1.5 0 0 1 461 2148.5 L 453 2148.5  A 1.5 1.5 0 0 1 451.5 2147 L 451.5 2139  Z " fill-rule="nonzero" fill="#ffffff" stroke="none" />
  <path d="M 451.5 2139  A 1.5 1.5 0 0 1 453 2137.5 L 461 2137.5  A 1.5 1.5 0 0 1 462.5 2139 L 462.5 2147  A 1.5 1.5 0 0 1 461 2148.5 L 453 2148.5  A 1.5 1.5 0 0 1 451.5 2147 L 451.5 2139  Z " stroke-width="1" stroke="#797979" fill="none" />
</svg>