<?xml version="1.0" encoding="utf-8"?>
<svg version="1.1" xmlns:xlink="http://www.w3.org/1999/xlink" width="12px" height="12px" viewBox="848 2089.5  12 12" xmlns="http://www.w3.org/2000/svg">
  <path d="M 854 2089.5  C 857.36 2089.5  860 2092.14  860 2095.5  C 860 2098.86  857.36 2101.5  854 2101.5  C 850.64 2101.5  848 2098.86  848 2095.5  C 848 2092.14  850.64 2089.5  854 2089.5  Z " fill-rule="nonzero" fill="#f0f0f0" stroke="none" />
  <path d="M 854 2090  C 857.08 2090  859.5 2092.42  859.5 2095.5  C 859.5 2098.58  857.08 2101  854 2101  C 850.92 2101  848.5 2098.58  848.5 2095.5  C 848.5 2092.42  850.92 2090  854 2090  Z " stroke-width="1" stroke="#797979" fill="none" />
  <path d="M 854 2098.5  C 852.32 2098.5  851 2097.18  851 2095.5  C 851 2093.82  852.32 2092.5  854 2092.5  C 855.68 2092.5  857 2093.82  857 2095.5  C 857 2097.18  855.68 2098.5  854 2098.5  " fill-rule="nonzero" fill="#797979" stroke="none" />
</svg>