<?xml version="1.0" encoding="utf-8"?>
<svg version="1.1" xmlns:xlink="http://www.w3.org/1999/xlink" width="12px" height="12px" viewBox="802 2639.5  12 12" xmlns="http://www.w3.org/2000/svg">
  <path d="M 808 2639.5  C 811.36 2639.5  814 2642.14  814 2645.5  C 814 2648.86  811.36 2651.5  808 2651.5  C 804.64 2651.5  802 2648.86  802 2645.5  C 802 2642.14  804.64 2639.5  808 2639.5  Z " fill-rule="nonzero" fill="#f0f0f0" stroke="none" />
  <path d="M 808 2640  C 811.08 2640  813.5 2642.42  813.5 2645.5  C 813.5 2648.58  811.08 2651  808 2651  C 804.92 2651  802.5 2648.58  802.5 2645.5  C 802.5 2642.42  804.92 2640  808 2640  Z " stroke-width="1" stroke="#797979" fill="none" />
  <path d="M 808 2648.5  C 806.32 2648.5  805 2647.18  805 2645.5  C 805 2643.82  806.32 2642.5  808 2642.5  C 809.68 2642.5  811 2643.82  811 2645.5  C 811 2647.18  809.68 2648.5  808 2648.5  " fill-rule="nonzero" fill="#797979" stroke="none" />
</svg>