<?xml version="1.0" encoding="utf-8"?>
<svg version="1.1" xmlns:xlink="http://www.w3.org/1999/xlink" width="12px" height="12px" viewBox="802 2729.5  12 12" xmlns="http://www.w3.org/2000/svg">
  <path d="M 808 2729.5  C 811.36 2729.5  814 2732.14  814 2735.5  C 814 2738.86  811.36 2741.5  808 2741.5  C 804.64 2741.5  802 2738.86  802 2735.5  C 802 2732.14  804.64 2729.5  808 2729.5  Z " fill-rule="nonzero" fill="#ffffff" stroke="none" />
  <path d="M 808 2730  C 811.08 2730  813.5 2732.42  813.5 2735.5  C 813.5 2738.58  811.08 2741  808 2741  C 804.92 2741  802.5 2738.58  802.5 2735.5  C 802.5 2732.42  804.92 2730  808 2730  Z " stroke-width="1" stroke="#797979" fill="none" />
  <path d="M 808 2738.5  C 806.32 2738.5  805 2737.18  805 2735.5  C 805 2733.82  806.32 2732.5  808 2732.5  C 809.68 2732.5  811 2733.82  811 2735.5  C 811 2737.18  809.68 2738.5  808 2738.5  " fill-rule="nonzero" fill="#797979" stroke="none" />
</svg>