<?xml version="1.0" encoding="utf-8"?>
<svg version="1.1" xmlns:xlink="http://www.w3.org/1999/xlink" width="12px" height="12px" viewBox="450 2319  12 12" xmlns="http://www.w3.org/2000/svg">
  <path d="M 450.5 2321  A 1.5 1.5 0 0 1 452 2319.5 L 460 2319.5  A 1.5 1.5 0 0 1 461.5 2321 L 461.5 2329  A 1.5 1.5 0 0 1 460 2330.5 L 452 2330.5  A 1.5 1.5 0 0 1 450.5 2329 L 450.5 2321  Z " fill-rule="nonzero" fill="#ffffff" stroke="none" />
  <path d="M 450.5 2321  A 1.5 1.5 0 0 1 452 2319.5 L 460 2319.5  A 1.5 1.5 0 0 1 461.5 2321 L 461.5 2329  A 1.5 1.5 0 0 1 460 2330.5 L 452 2330.5  A 1.5 1.5 0 0 1 450.5 2329 L 450.5 2321  Z " stroke-width="1" stroke="#797979" fill="none" />
</svg>