<?xml version="1.0" encoding="utf-8"?>
<svg version="1.1" xmlns:xlink="http://www.w3.org/1999/xlink" width="12px" height="12px" viewBox="803 2548.5  12 12" xmlns="http://www.w3.org/2000/svg">
  <path d="M 809 2548.5  C 812.36 2548.5  815 2551.14  815 2554.5  C 815 2557.86  812.36 2560.5  809 2560.5  C 805.64 2560.5  803 2557.86  803 2554.5  C 803 2551.14  805.64 2548.5  809 2548.5  Z " fill-rule="nonzero" fill="#ffffff" stroke="none" />
  <path d="M 809 2549  C 812.08 2549  814.5 2551.42  814.5 2554.5  C 814.5 2557.58  812.08 2560  809 2560  C 805.92 2560  803.5 2557.58  803.5 2554.5  C 803.5 2551.42  805.92 2549  809 2549  Z " stroke-width="1" stroke="#797979" fill="none" />
  <path d="M 809 2557.5  C 807.32 2557.5  806 2556.18  806 2554.5  C 806 2552.82  807.32 2551.5  809 2551.5  C 810.68 2551.5  812 2552.82  812 2554.5  C 812 2556.18  810.68 2557.5  809 2557.5  " fill-rule="nonzero" fill="#797979" stroke="none" />
</svg>