<?xml version="1.0" encoding="utf-8"?>
<svg version="1.1" xmlns:xlink="http://www.w3.org/1999/xlink" width="12px" height="12px" viewBox="802 3092.5  12 12" xmlns="http://www.w3.org/2000/svg">
  <path d="M 808 3092.5  C 811.36 3092.5  814 3095.14  814 3098.5  C 814 3101.86  811.36 3104.5  808 3104.5  C 804.64 3104.5  802 3101.86  802 3098.5  C 802 3095.14  804.64 3092.5  808 3092.5  Z " fill-rule="nonzero" fill="#f0f0f0" stroke="none" />
  <path d="M 808 3093  C 811.08 3093  813.5 3095.42  813.5 3098.5  C 813.5 3101.58  811.08 3104  808 3104  C 804.92 3104  802.5 3101.58  802.5 3098.5  C 802.5 3095.42  804.92 3093  808 3093  Z " stroke-width="1" stroke="#797979" fill="none" />
  <path d="M 808 3101.5  C 806.32 3101.5  805 3100.18  805 3098.5  C 805 3096.82  806.32 3095.5  808 3095.5  C 809.68 3095.5  811 3096.82  811 3098.5  C 811 3100.18  809.68 3101.5  808 3101.5  " fill-rule="nonzero" fill="#797979" stroke="none" />
</svg>