<?xml version="1.0" encoding="utf-8"?>
<svg version="1.1" xmlns:xlink="http://www.w3.org/1999/xlink" width="12px" height="12px" viewBox="849 2321.5  12 12" xmlns="http://www.w3.org/2000/svg">
  <path d="M 855 2321.5  C 858.36 2321.5  861 2324.14  861 2327.5  C 861 2330.86  858.36 2333.5  855 2333.5  C 851.64 2333.5  849 2330.86  849 2327.5  C 849 2324.14  851.64 2321.5  855 2321.5  Z " fill-rule="nonzero" fill="#f0f0f0" stroke="none" />
  <path d="M 855 2322  C 858.08 2322  860.5 2324.42  860.5 2327.5  C 860.5 2330.58  858.08 2333  855 2333  C 851.92 2333  849.5 2330.58  849.5 2327.5  C 849.5 2324.42  851.92 2322  855 2322  Z " stroke-width="1" stroke="#797979" fill="none" />
  <path d="M 855 2330.5  C 853.32 2330.5  852 2329.18  852 2327.5  C 852 2325.82  853.32 2324.5  855 2324.5  C 856.68 2324.5  858 2325.82  858 2327.5  C 858 2329.18  856.68 2330.5  855 2330.5  " fill-rule="nonzero" fill="#797979" stroke="none" />
</svg>