<?xml version="1.0" encoding="utf-8"?>
<svg version="1.1" xmlns:xlink="http://www.w3.org/1999/xlink" width="12px" height="12px" viewBox="849 2686.5  12 12" xmlns="http://www.w3.org/2000/svg">
  <path d="M 855 2686.5  C 858.36 2686.5  861 2689.14  861 2692.5  C 861 2695.86  858.36 2698.5  855 2698.5  C 851.64 2698.5  849 2695.86  849 2692.5  C 849 2689.14  851.64 2686.5  855 2686.5  Z " fill-rule="nonzero" fill="#ffffff" stroke="none" />
  <path d="M 855 2687  C 858.08 2687  860.5 2689.42  860.5 2692.5  C 860.5 2695.58  858.08 2698  855 2698  C 851.92 2698  849.5 2695.58  849.5 2692.5  C 849.5 2689.42  851.92 2687  855 2687  Z " stroke-width="1" stroke="#797979" fill="none" />
  <path d="M 855 2695.5  C 853.32 2695.5  852 2694.18  852 2692.5  C 852 2690.82  853.32 2689.5  855 2689.5  C 856.68 2689.5  858 2690.82  858 2692.5  C 858 2694.18  856.68 2695.5  855 2695.5  " fill-rule="nonzero" fill="#797979" stroke="none" />
</svg>