<?xml version="1.0" encoding="utf-8"?>
<svg version="1.1" xmlns:xlink="http://www.w3.org/1999/xlink" width="12px" height="12px" viewBox="848 2046.5  12 12" xmlns="http://www.w3.org/2000/svg">
  <path d="M 854 2046.5  C 857.36 2046.5  860 2049.14  860 2052.5  C 860 2055.86  857.36 2058.5  854 2058.5  C 850.64 2058.5  848 2055.86  848 2052.5  C 848 2049.14  850.64 2046.5  854 2046.5  Z " fill-rule="nonzero" fill="#f0f0f0" stroke="none" />
  <path d="M 854 2047  C 857.08 2047  859.5 2049.42  859.5 2052.5  C 859.5 2055.58  857.08 2058  854 2058  C 850.92 2058  848.5 2055.58  848.5 2052.5  C 848.5 2049.42  850.92 2047  854 2047  Z " stroke-width="1" stroke="#797979" fill="none" />
  <path d="M 854 2055.5  C 852.32 2055.5  851 2054.18  851 2052.5  C 851 2050.82  852.32 2049.5  854 2049.5  C 855.68 2049.5  857 2050.82  857 2052.5  C 857 2054.18  855.68 2055.5  854 2055.5  " fill-rule="nonzero" fill="#797979" stroke="none" />
</svg>