<?xml version="1.0" encoding="utf-8"?>
<svg version="1.1" xmlns:xlink="http://www.w3.org/1999/xlink" width="12px" height="12px" viewBox="849 3049.5  12 12" xmlns="http://www.w3.org/2000/svg">
  <path d="M 855 3049.5  C 858.36 3049.5  861 3052.14  861 3055.5  C 861 3058.86  858.36 3061.5  855 3061.5  C 851.64 3061.5  849 3058.86  849 3055.5  C 849 3052.14  851.64 3049.5  855 3049.5  Z " fill-rule="nonzero" fill="#f0f0f0" stroke="none" />
  <path d="M 855 3050  C 858.08 3050  860.5 3052.42  860.5 3055.5  C 860.5 3058.58  858.08 3061  855 3061  C 851.92 3061  849.5 3058.58  849.5 3055.5  C 849.5 3052.42  851.92 3050  855 3050  Z " stroke-width="1" stroke="#797979" fill="none" />
  <path d="M 855 3058.5  C 853.32 3058.5  852 3057.18  852 3055.5  C 852 3053.82  853.32 3052.5  855 3052.5  C 856.68 3052.5  858 3053.82  858 3055.5  C 858 3057.18  856.68 3058.5  855 3058.5  " fill-rule="nonzero" fill="#797979" stroke="none" />
</svg>