<?xml version="1.0" encoding="utf-8"?>
<svg version="1.1" xmlns:xlink="http://www.w3.org/1999/xlink" width="12px" height="12px" viewBox="848 2777.5  12 12" xmlns="http://www.w3.org/2000/svg">
  <path d="M 854 2777.5  C 857.36 2777.5  860 2780.14  860 2783.5  C 860 2786.86  857.36 2789.5  854 2789.5  C 850.64 2789.5  848 2786.86  848 2783.5  C 848 2780.14  850.64 2777.5  854 2777.5  Z " fill-rule="nonzero" fill="#f0f0f0" stroke="none" />
  <path d="M 854 2778  C 857.08 2778  859.5 2780.42  859.5 2783.5  C 859.5 2786.58  857.08 2789  854 2789  C 850.92 2789  848.5 2786.58  848.5 2783.5  C 848.5 2780.42  850.92 2778  854 2778  Z " stroke-width="1" stroke="#797979" fill="none" />
  <path d="M 854 2786.5  C 852.32 2786.5  851 2785.18  851 2783.5  C 851 2781.82  852.32 2780.5  854 2780.5  C 855.68 2780.5  857 2781.82  857 2783.5  C 857 2785.18  855.68 2786.5  854 2786.5  " fill-rule="nonzero" fill="#797979" stroke="none" />
</svg>