<?xml version="1.0" encoding="utf-8"?>
<svg version="1.1" xmlns:xlink="http://www.w3.org/1999/xlink" width="12px" height="12px" viewBox="802 2686.5  12 12" xmlns="http://www.w3.org/2000/svg">
  <path d="M 808 2686.5  C 811.36 2686.5  814 2689.14  814 2692.5  C 814 2695.86  811.36 2698.5  808 2698.5  C 804.64 2698.5  802 2695.86  802 2692.5  C 802 2689.14  804.64 2686.5  808 2686.5  Z " fill-rule="nonzero" fill="#ffffff" stroke="none" />
  <path d="M 808 2687  C 811.08 2687  813.5 2689.42  813.5 2692.5  C 813.5 2695.58  811.08 2698  808 2698  C 804.92 2698  802.5 2695.58  802.5 2692.5  C 802.5 2689.42  804.92 2687  808 2687  Z " stroke-width="1" stroke="#797979" fill="none" />
  <path d="M 808 2695.5  C 806.32 2695.5  805 2694.18  805 2692.5  C 805 2690.82  806.32 2689.5  808 2689.5  C 809.68 2689.5  811 2690.82  811 2692.5  C 811 2694.18  809.68 2695.5  808 2695.5  " fill-rule="nonzero" fill="#797979" stroke="none" />
</svg>