<?xml version="1.0" encoding="utf-8"?>
<svg version="1.1" xmlns:xlink="http://www.w3.org/1999/xlink" width="12px" height="12px" viewBox="192 2885  12 12" xmlns="http://www.w3.org/2000/svg">
  <path d="M 192.5 2887  A 1.5 1.5 0 0 1 194 2885.5 L 202 2885.5  A 1.5 1.5 0 0 1 203.5 2887 L 203.5 2895  A 1.5 1.5 0 0 1 202 2896.5 L 194 2896.5  A 1.5 1.5 0 0 1 192.5 2895 L 192.5 2887  Z " fill-rule="nonzero" fill="#f0f0f0" stroke="none" />
  <path d="M 192.5 2887  A 1.5 1.5 0 0 1 194 2885.5 L 202 2885.5  A 1.5 1.5 0 0 1 203.5 2887 L 203.5 2895  A 1.5 1.5 0 0 1 202 2896.5 L 194 2896.5  A 1.5 1.5 0 0 1 192.5 2895 L 192.5 2887  Z " stroke-width="1" stroke="#797979" fill="none" />
</svg>