<?xml version="1.0" encoding="utf-8"?>
<svg version="1.1" xmlns:xlink="http://www.w3.org/1999/xlink" width="22px" height="18px" xmlns="http://www.w3.org/2000/svg">
  <g transform="matrix(1 0 0 1 -143 -250 )">
    <path d="M 21.4470108695652 7.9602053915276  C 21.8156702898551 8.22978177150192  22 8.57637997432606  22 9  C 22 9.41591784338896  21.8156702898551 9.76636713735558  21.4470108695652 10.0513478818999  L 11.7173913043478 17.5725288831836  C 11.3288043478261 17.8575096277279  10.8754528985507 18  10.3573369565217 18  C 9.8491847826087 18  9.4008152173913 17.8575096277279  9.01222826086956 17.5725288831836  L 7.89130434782609 16.7060333761232  C 7.51268115942029 16.413350449294  7.32336956521739 16.0629011553273  7.32336956521739 15.6546854942234  C 7.32336956521739 15.2464698331194  7.51268115942029 14.8960205391528  7.89130434782609 14.6033376123235  L 12.2703804347826 11  L 1.74864130434783 11  C 1.23052536231884 11.2182284980745  0.80955615942029 11.0738125802311  0.485733695652174 10.7849807445443  C 0.161911231884058 10.4961489088575  0 10.1476251604621  0 9.73940949935815  L 0 8.26059050064185  C 0 7.85237483953787  0.161911231884058 7.50385109114249  0.485733695652174 7.21501925545571  C 0.80955615942029 6.92618741976893  1.23052536231884 6.78177150192555  1.74864130434783 7  L 12.2703804347826 7  L 7.89130434782609 3.38510911424904  C 7.51268115942029 3.10783055198973  7.32336956521739 2.7612323491656  7.32336956521739 2.34531450577664  C 7.32336956521739 1.92939666238768  7.51268115942029 1.58279845956354  7.89130434782609 1.30551989730424  L 9.01222826086956 0.439024390243903  C 9.39085144927536 0.146341463414633  9.83922101449275 0  10.3573369565217 0  C 10.8854166666667 0  11.338768115942 0.146341463414633  11.7173913043478 0.439024390243903  L 21.4470108695652 7.9602053915276  Z " fill-rule="nonzero" fill="#7f7f7f" stroke="none" transform="matrix(1 0 0 1 143 250 )" />
  </g>
</svg>