<?xml version="1.0" encoding="utf-8"?>
<svg version="1.1" xmlns:xlink="http://www.w3.org/1999/xlink" width="12px" height="12px" viewBox="848 482.5  12 12" xmlns="http://www.w3.org/2000/svg">
  <path d="M 854 482.5  C 857.36 482.5  860 485.14  860 488.5  C 860 491.86  857.36 494.5  854 494.5  C 850.64 494.5  848 491.86  848 488.5  C 848 485.14  850.64 482.5  854 482.5  Z " fill-rule="nonzero" fill="#f0f0f0" stroke="none" />
  <path d="M 854 483  C 857.08 483  859.5 485.42  859.5 488.5  C 859.5 491.58  857.08 494  854 494  C 850.92 494  848.5 491.58  848.5 488.5  C 848.5 485.42  850.92 483  854 483  Z " stroke-width="1" stroke="#797979" fill="none" />
  <path d="M 854 491.5  C 852.32 491.5  851 490.18  851 488.5  C 851 486.82  852.32 485.5  854 485.5  C 855.68 485.5  857 486.82  857 488.5  C 857 490.18  855.68 491.5  854 491.5  " fill-rule="nonzero" fill="#797979" stroke="none" />
</svg>