<?xml version="1.0" encoding="utf-8"?>
<svg version="1.1" xmlns:xlink="http://www.w3.org/1999/xlink" width="12px" height="12px" viewBox="848 439.5  12 12" xmlns="http://www.w3.org/2000/svg">
  <path d="M 854 439.5  C 857.36 439.5  860 442.14  860 445.5  C 860 448.86  857.36 451.5  854 451.5  C 850.64 451.5  848 448.86  848 445.5  C 848 442.14  850.64 439.5  854 439.5  Z " fill-rule="nonzero" fill="#ffffff" stroke="none" />
  <path d="M 854 440  C 857.08 440  859.5 442.42  859.5 445.5  C 859.5 448.58  857.08 451  854 451  C 850.92 451  848.5 448.58  848.5 445.5  C 848.5 442.42  850.92 440  854 440  Z " stroke-width="1" stroke="#797979" fill="none" />
  <path d="M 854 448.5  C 852.32 448.5  851 447.18  851 445.5  C 851 443.82  852.32 442.5  854 442.5  C 855.68 442.5  857 443.82  857 445.5  C 857 447.18  855.68 448.5  854 448.5  " fill-rule="nonzero" fill="#797979" stroke="none" />
</svg>