<?xml version="1.0" encoding="utf-8"?>
<svg version="1.1" xmlns:xlink="http://www.w3.org/1999/xlink" width="12px" height="12px" viewBox="801 482.5  12 12" xmlns="http://www.w3.org/2000/svg">
  <path d="M 807 482.5  C 810.36 482.5  813 485.14  813 488.5  C 813 491.86  810.36 494.5  807 494.5  C 803.64 494.5  801 491.86  801 488.5  C 801 485.14  803.64 482.5  807 482.5  Z " fill-rule="nonzero" fill="#ffffff" stroke="none" />
  <path d="M 807 483  C 810.08 483  812.5 485.42  812.5 488.5  C 812.5 491.58  810.08 494  807 494  C 803.92 494  801.5 491.58  801.5 488.5  C 801.5 485.42  803.92 483  807 483  Z " stroke-width="1" stroke="#797979" fill="none" />
  <path d="M 807 491.5  C 805.32 491.5  804 490.18  804 488.5  C 804 486.82  805.32 485.5  807 485.5  C 808.68 485.5  810 486.82  810 488.5  C 810 490.18  808.68 491.5  807 491.5  " fill-rule="nonzero" fill="#797979" stroke="none" />
</svg>