<?xml version="1.0" encoding="utf-8"?>
<svg version="1.1" xmlns:xlink="http://www.w3.org/1999/xlink" width="12px" height="12px" viewBox="800 1110.5  12 12" xmlns="http://www.w3.org/2000/svg">
  <path d="M 806 1110.5  C 809.36 1110.5  812 1113.14  812 1116.5  C 812 1119.86  809.36 1122.5  806 1122.5  C 802.64 1122.5  800 1119.86  800 1116.5  C 800 1113.14  802.64 1110.5  806 1110.5  Z " fill-rule="nonzero" fill="#f0f0f0" stroke="none" />
  <path d="M 806 1111  C 809.08 1111  811.5 1113.42  811.5 1116.5  C 811.5 1119.58  809.08 1122  806 1122  C 802.92 1122  800.5 1119.58  800.5 1116.5  C 800.5 1113.42  802.92 1111  806 1111  Z " stroke-width="1" stroke="#797979" fill="none" />
  <path d="M 806 1119.5  C 804.32 1119.5  803 1118.18  803 1116.5  C 803 1114.82  804.32 1113.5  806 1113.5  C 807.68 1113.5  809 1114.82  809 1116.5  C 809 1118.18  807.68 1119.5  806 1119.5  " fill-rule="nonzero" fill="#797979" stroke="none" />
</svg>