<?xml version="1.0" encoding="utf-8"?>
<svg version="1.1" xmlns:xlink="http://www.w3.org/1999/xlink" width="12px" height="12px" viewBox="847 1110.5  12 12" xmlns="http://www.w3.org/2000/svg">
  <path d="M 853 1110.5  C 856.36 1110.5  859 1113.14  859 1116.5  C 859 1119.86  856.36 1122.5  853 1122.5  C 849.64 1122.5  847 1119.86  847 1116.5  C 847 1113.14  849.64 1110.5  853 1110.5  Z " fill-rule="nonzero" fill="#ffffff" stroke="none" />
  <path d="M 853 1111  C 856.08 1111  858.5 1113.42  858.5 1116.5  C 858.5 1119.58  856.08 1122  853 1122  C 849.92 1122  847.5 1119.58  847.5 1116.5  C 847.5 1113.42  849.92 1111  853 1111  Z " stroke-width="1" stroke="#797979" fill="none" />
  <path d="M 853 1119.5  C 851.32 1119.5  850 1118.18  850 1116.5  C 850 1114.82  851.32 1113.5  853 1113.5  C 854.68 1113.5  856 1114.82  856 1116.5  C 856 1118.18  854.68 1119.5  853 1119.5  " fill-rule="nonzero" fill="#797979" stroke="none" />
</svg>