<?xml version="1.0" encoding="utf-8"?>
<svg version="1.1" xmlns:xlink="http://www.w3.org/1999/xlink" width="12px" height="12px" viewBox="847 1156.5  12 12" xmlns="http://www.w3.org/2000/svg">
  <path d="M 853 1156.5  C 856.36 1156.5  859 1159.14  859 1162.5  C 859 1165.86  856.36 1168.5  853 1168.5  C 849.64 1168.5  847 1165.86  847 1162.5  C 847 1159.14  849.64 1156.5  853 1156.5  Z " fill-rule="nonzero" fill="#ffffff" stroke="none" />
  <path d="M 853 1157  C 856.08 1157  858.5 1159.42  858.5 1162.5  C 858.5 1165.58  856.08 1168  853 1168  C 849.92 1168  847.5 1165.58  847.5 1162.5  C 847.5 1159.42  849.92 1157  853 1157  Z " stroke-width="1" stroke="#797979" fill="none" />
  <path d="M 853 1165.5  C 851.32 1165.5  850 1164.18  850 1162.5  C 850 1160.82  851.32 1159.5  853 1159.5  C 854.68 1159.5  856 1160.82  856 1162.5  C 856 1164.18  854.68 1165.5  853 1165.5  " fill-rule="nonzero" fill="#797979" stroke="none" />
</svg>