<?xml version="1.0" encoding="utf-8"?>
<svg version="1.1" xmlns:xlink="http://www.w3.org/1999/xlink" width="12px" height="12px" viewBox="799 1241.5  12 12" xmlns="http://www.w3.org/2000/svg">
  <path d="M 805 1241.5  C 808.36 1241.5  811 1244.14  811 1247.5  C 811 1250.86  808.36 1253.5  805 1253.5  C 801.64 1253.5  799 1250.86  799 1247.5  C 799 1244.14  801.64 1241.5  805 1241.5  Z " fill-rule="nonzero" fill="#f0f0f0" stroke="none" />
  <path d="M 805 1242  C 808.08 1242  810.5 1244.42  810.5 1247.5  C 810.5 1250.58  808.08 1253  805 1253  C 801.92 1253  799.5 1250.58  799.5 1247.5  C 799.5 1244.42  801.92 1242  805 1242  Z " stroke-width="1" stroke="#797979" fill="none" />
  <path d="M 805 1250.5  C 803.32 1250.5  802 1249.18  802 1247.5  C 802 1245.82  803.32 1244.5  805 1244.5  C 806.68 1244.5  808 1245.82  808 1247.5  C 808 1249.18  806.68 1250.5  805 1250.5  " fill-rule="nonzero" fill="#797979" stroke="none" />
</svg>