<?xml version="1.0" encoding="utf-8"?>
<svg version="1.1" xmlns:xlink="http://www.w3.org/1999/xlink" width="12px" height="12px" viewBox="846 1241.5  12 12" xmlns="http://www.w3.org/2000/svg">
  <path d="M 852 1241.5  C 855.36 1241.5  858 1244.14  858 1247.5  C 858 1250.86  855.36 1253.5  852 1253.5  C 848.64 1253.5  846 1250.86  846 1247.5  C 846 1244.14  848.64 1241.5  852 1241.5  Z " fill-rule="nonzero" fill="#ffffff" stroke="none" />
  <path d="M 852 1242  C 855.08 1242  857.5 1244.42  857.5 1247.5  C 857.5 1250.58  855.08 1253  852 1253  C 848.92 1253  846.5 1250.58  846.5 1247.5  C 846.5 1244.42  848.92 1242  852 1242  Z " stroke-width="1" stroke="#797979" fill="none" />
  <path d="M 852 1250.5  C 850.32 1250.5  849 1249.18  849 1247.5  C 849 1245.82  850.32 1244.5  852 1244.5  C 853.68 1244.5  855 1245.82  855 1247.5  C 855 1249.18  853.68 1250.5  852 1250.5  " fill-rule="nonzero" fill="#797979" stroke="none" />
</svg>