<?xml version="1.0" encoding="utf-8"?>
<svg version="1.1" xmlns:xlink="http://www.w3.org/1999/xlink" width="12px" height="12px" viewBox="799 1282.5  12 12" xmlns="http://www.w3.org/2000/svg">
  <path d="M 805 1282.5  C 808.36 1282.5  811 1285.14  811 1288.5  C 811 1291.86  808.36 1294.5  805 1294.5  C 801.64 1294.5  799 1291.86  799 1288.5  C 799 1285.14  801.64 1282.5  805 1282.5  Z " fill-rule="nonzero" fill="#ffffff" stroke="none" />
  <path d="M 805 1283  C 808.08 1283  810.5 1285.42  810.5 1288.5  C 810.5 1291.58  808.08 1294  805 1294  C 801.92 1294  799.5 1291.58  799.5 1288.5  C 799.5 1285.42  801.92 1283  805 1283  Z " stroke-width="1" stroke="#797979" fill="none" />
  <path d="M 805 1291.5  C 803.32 1291.5  802 1290.18  802 1288.5  C 802 1286.82  803.32 1285.5  805 1285.5  C 806.68 1285.5  808 1286.82  808 1288.5  C 808 1290.18  806.68 1291.5  805 1291.5  " fill-rule="nonzero" fill="#797979" stroke="none" />
</svg>