<?xml version="1.0" encoding="utf-8"?>
<svg version="1.1" xmlns:xlink="http://www.w3.org/1999/xlink" width="12px" height="12px" viewBox="801 1329.5  12 12" xmlns="http://www.w3.org/2000/svg">
  <path d="M 807 1329.5  C 810.36 1329.5  813 1332.14  813 1335.5  C 813 1338.86  810.36 1341.5  807 1341.5  C 803.64 1341.5  801 1338.86  801 1335.5  C 801 1332.14  803.64 1329.5  807 1329.5  Z " fill-rule="nonzero" fill="#ffffff" stroke="none" />
  <path d="M 807 1330  C 810.08 1330  812.5 1332.42  812.5 1335.5  C 812.5 1338.58  810.08 1341  807 1341  C 803.92 1341  801.5 1338.58  801.5 1335.5  C 801.5 1332.42  803.92 1330  807 1330  Z " stroke-width="1" stroke="#797979" fill="none" />
  <path d="M 807 1338.5  C 805.32 1338.5  804 1337.18  804 1335.5  C 804 1333.82  805.32 1332.5  807 1332.5  C 808.68 1332.5  810 1333.82  810 1335.5  C 810 1337.18  808.68 1338.5  807 1338.5  " fill-rule="nonzero" fill="#797979" stroke="none" />
</svg>