<?xml version="1.0" encoding="utf-8"?>
<svg version="1.1" xmlns:xlink="http://www.w3.org/1999/xlink" width="12px" height="12px" viewBox="801 1369.5  12 12" xmlns="http://www.w3.org/2000/svg">
  <path d="M 807 1369.5  C 810.36 1369.5  813 1372.14  813 1375.5  C 813 1378.86  810.36 1381.5  807 1381.5  C 803.64 1381.5  801 1378.86  801 1375.5  C 801 1372.14  803.64 1369.5  807 1369.5  Z " fill-rule="nonzero" fill="#ffffff" stroke="none" />
  <path d="M 807 1370  C 810.08 1370  812.5 1372.42  812.5 1375.5  C 812.5 1378.58  810.08 1381  807 1381  C 803.92 1381  801.5 1378.58  801.5 1375.5  C 801.5 1372.42  803.92 1370  807 1370  Z " stroke-width="1" stroke="#797979" fill="none" />
  <path d="M 807 1378.5  C 805.32 1378.5  804 1377.18  804 1375.5  C 804 1373.82  805.32 1372.5  807 1372.5  C 808.68 1372.5  810 1373.82  810 1375.5  C 810 1377.18  808.68 1378.5  807 1378.5  " fill-rule="nonzero" fill="#797979" stroke="none" />
</svg>