<?xml version="1.0" encoding="utf-8"?>
<svg version="1.1" xmlns:xlink="http://www.w3.org/1999/xlink" width="12px" height="12px" viewBox="848 1369.5  12 12" xmlns="http://www.w3.org/2000/svg">
  <path d="M 854 1369.5  C 857.36 1369.5  860 1372.14  860 1375.5  C 860 1378.86  857.36 1381.5  854 1381.5  C 850.64 1381.5  848 1378.86  848 1375.5  C 848 1372.14  850.64 1369.5  854 1369.5  Z " fill-rule="nonzero" fill="#f0f0f0" stroke="none" />
  <path d="M 854 1370  C 857.08 1370  859.5 1372.42  859.5 1375.5  C 859.5 1378.58  857.08 1381  854 1381  C 850.92 1381  848.5 1378.58  848.5 1375.5  C 848.5 1372.42  850.92 1370  854 1370  Z " stroke-width="1" stroke="#797979" fill="none" />
  <path d="M 854 1378.5  C 852.32 1378.5  851 1377.18  851 1375.5  C 851 1373.82  852.32 1372.5  854 1372.5  C 855.68 1372.5  857 1373.82  857 1375.5  C 857 1377.18  855.68 1378.5  854 1378.5  " fill-rule="nonzero" fill="#797979" stroke="none" />
</svg>