<?xml version="1.0" encoding="utf-8"?>
<svg version="1.1" xmlns:xlink="http://www.w3.org/1999/xlink" width="12px" height="12px" viewBox="847 1414.5  12 12" xmlns="http://www.w3.org/2000/svg">
  <path d="M 853 1414.5  C 856.36 1414.5  859 1417.14  859 1420.5  C 859 1423.86  856.36 1426.5  853 1426.5  C 849.64 1426.5  847 1423.86  847 1420.5  C 847 1417.14  849.64 1414.5  853 1414.5  Z " fill-rule="nonzero" fill="#ffffff" stroke="none" />
  <path d="M 853 1415  C 856.08 1415  858.5 1417.42  858.5 1420.5  C 858.5 1423.58  856.08 1426  853 1426  C 849.92 1426  847.5 1423.58  847.5 1420.5  C 847.5 1417.42  849.92 1415  853 1415  Z " stroke-width="1" stroke="#797979" fill="none" />
  <path d="M 853 1423.5  C 851.32 1423.5  850 1422.18  850 1420.5  C 850 1418.82  851.32 1417.5  853 1417.5  C 854.68 1417.5  856 1418.82  856 1420.5  C 856 1422.18  854.68 1423.5  853 1423.5  " fill-rule="nonzero" fill="#797979" stroke="none" />
</svg>