<?xml version="1.0" encoding="utf-8"?>
<svg version="1.1" xmlns:xlink="http://www.w3.org/1999/xlink" width="12px" height="12px" viewBox="800 1455.5  12 12" xmlns="http://www.w3.org/2000/svg">
  <path d="M 806 1455.5  C 809.36 1455.5  812 1458.14  812 1461.5  C 812 1464.86  809.36 1467.5  806 1467.5  C 802.64 1467.5  800 1464.86  800 1461.5  C 800 1458.14  802.64 1455.5  806 1455.5  Z " fill-rule="nonzero" fill="#ffffff" stroke="none" />
  <path d="M 806 1456  C 809.08 1456  811.5 1458.42  811.5 1461.5  C 811.5 1464.58  809.08 1467  806 1467  C 802.92 1467  800.5 1464.58  800.5 1461.5  C 800.5 1458.42  802.92 1456  806 1456  Z " stroke-width="1" stroke="#797979" fill="none" />
  <path d="M 806 1464.5  C 804.32 1464.5  803 1463.18  803 1461.5  C 803 1459.82  804.32 1458.5  806 1458.5  C 807.68 1458.5  809 1459.82  809 1461.5  C 809 1463.18  807.68 1464.5  806 1464.5  " fill-rule="nonzero" fill="#797979" stroke="none" />
</svg>