<?xml version="1.0" encoding="utf-8"?>
<svg version="1.1" xmlns:xlink="http://www.w3.org/1999/xlink" width="12px" height="12px" viewBox="800 1414.5  12 12" xmlns="http://www.w3.org/2000/svg">
  <path d="M 806 1414.5  C 809.36 1414.5  812 1417.14  812 1420.5  C 812 1423.86  809.36 1426.5  806 1426.5  C 802.64 1426.5  800 1423.86  800 1420.5  C 800 1417.14  802.64 1414.5  806 1414.5  Z " fill-rule="nonzero" fill="#f0f0f0" stroke="none" />
  <path d="M 806 1415  C 809.08 1415  811.5 1417.42  811.5 1420.5  C 811.5 1423.58  809.08 1426  806 1426  C 802.92 1426  800.5 1423.58  800.5 1420.5  C 800.5 1417.42  802.92 1415  806 1415  Z " stroke-width="1" stroke="#797979" fill="none" />
  <path d="M 806 1423.5  C 804.32 1423.5  803 1422.18  803 1420.5  C 803 1418.82  804.32 1417.5  806 1417.5  C 807.68 1417.5  809 1418.82  809 1420.5  C 809 1422.18  807.68 1423.5  806 1423.5  " fill-rule="nonzero" fill="#797979" stroke="none" />
</svg>