<?xml version="1.0" encoding="utf-8"?>
<svg version="1.1" xmlns:xlink="http://www.w3.org/1999/xlink" width="12px" height="12px" viewBox="802 1631.5  12 12" xmlns="http://www.w3.org/2000/svg">
  <path d="M 808 1631.5  C 811.36 1631.5  814 1634.14  814 1637.5  C 814 1640.86  811.36 1643.5  808 1643.5  C 804.64 1643.5  802 1640.86  802 1637.5  C 802 1634.14  804.64 1631.5  808 1631.5  Z " fill-rule="nonzero" fill="#f0f0f0" stroke="none" />
  <path d="M 808 1632  C 811.08 1632  813.5 1634.42  813.5 1637.5  C 813.5 1640.58  811.08 1643  808 1643  C 804.92 1643  802.5 1640.58  802.5 1637.5  C 802.5 1634.42  804.92 1632  808 1632  Z " stroke-width="1" stroke="#797979" fill="none" />
  <path d="M 808 1640.5  C 806.32 1640.5  805 1639.18  805 1637.5  C 805 1635.82  806.32 1634.5  808 1634.5  C 809.68 1634.5  811 1635.82  811 1637.5  C 811 1639.18  809.68 1640.5  808 1640.5  " fill-rule="nonzero" fill="#797979" stroke="none" />
</svg>