<?xml version="1.0" encoding="utf-8"?>
<svg version="1.1" xmlns:xlink="http://www.w3.org/1999/xlink" width="12px" height="12px" viewBox="849 1591.5  12 12" xmlns="http://www.w3.org/2000/svg">
  <path d="M 855 1591.5  C 858.36 1591.5  861 1594.14  861 1597.5  C 861 1600.86  858.36 1603.5  855 1603.5  C 851.64 1603.5  849 1600.86  849 1597.5  C 849 1594.14  851.64 1591.5  855 1591.5  Z " fill-rule="nonzero" fill="#f0f0f0" stroke="none" />
  <path d="M 855 1592  C 858.08 1592  860.5 1594.42  860.5 1597.5  C 860.5 1600.58  858.08 1603  855 1603  C 851.92 1603  849.5 1600.58  849.5 1597.5  C 849.5 1594.42  851.92 1592  855 1592  Z " stroke-width="1" stroke="#797979" fill="none" />
  <path d="M 855 1600.5  C 853.32 1600.5  852 1599.18  852 1597.5  C 852 1595.82  853.32 1594.5  855 1594.5  C 856.68 1594.5  858 1595.82  858 1597.5  C 858 1599.18  856.68 1600.5  855 1600.5  " fill-rule="nonzero" fill="#797979" stroke="none" />
</svg>