<?xml version="1.0" encoding="utf-8"?>
<svg version="1.1" xmlns:xlink="http://www.w3.org/1999/xlink" width="12px" height="12px" viewBox="801 1717.5  12 12" xmlns="http://www.w3.org/2000/svg">
  <path d="M 807 1717.5  C 810.36 1717.5  813 1720.14  813 1723.5  C 813 1726.86  810.36 1729.5  807 1729.5  C 803.64 1729.5  801 1726.86  801 1723.5  C 801 1720.14  803.64 1717.5  807 1717.5  Z " fill-rule="nonzero" fill="#f0f0f0" stroke="none" />
  <path d="M 807 1718  C 810.08 1718  812.5 1720.42  812.5 1723.5  C 812.5 1726.58  810.08 1729  807 1729  C 803.92 1729  801.5 1726.58  801.5 1723.5  C 801.5 1720.42  803.92 1718  807 1718  Z " stroke-width="1" stroke="#797979" fill="none" />
  <path d="M 807 1726.5  C 805.32 1726.5  804 1725.18  804 1723.5  C 804 1721.82  805.32 1720.5  807 1720.5  C 808.68 1720.5  810 1721.82  810 1723.5  C 810 1725.18  808.68 1726.5  807 1726.5  " fill-rule="nonzero" fill="#797979" stroke="none" />
</svg>