<?xml version="1.0" encoding="utf-8"?>
<svg version="1.1" xmlns:xlink="http://www.w3.org/1999/xlink" width="12px" height="12px" viewBox="801 1676.5  12 12" xmlns="http://www.w3.org/2000/svg">
  <path d="M 807 1676.5  C 810.36 1676.5  813 1679.14  813 1682.5  C 813 1685.86  810.36 1688.5  807 1688.5  C 803.64 1688.5  801 1685.86  801 1682.5  C 801 1679.14  803.64 1676.5  807 1676.5  Z " fill-rule="nonzero" fill="#ffffff" stroke="none" />
  <path d="M 807 1677  C 810.08 1677  812.5 1679.42  812.5 1682.5  C 812.5 1685.58  810.08 1688  807 1688  C 803.92 1688  801.5 1685.58  801.5 1682.5  C 801.5 1679.42  803.92 1677  807 1677  Z " stroke-width="1" stroke="#797979" fill="none" />
  <path d="M 807 1685.5  C 805.32 1685.5  804 1684.18  804 1682.5  C 804 1680.82  805.32 1679.5  807 1679.5  C 808.68 1679.5  810 1680.82  810 1682.5  C 810 1684.18  808.68 1685.5  807 1685.5  " fill-rule="nonzero" fill="#797979" stroke="none" />
</svg>