<?xml version="1.0" encoding="utf-8"?>
<svg version="1.1" xmlns:xlink="http://www.w3.org/1999/xlink" width="12px" height="12px" viewBox="803 1764.5  12 12" xmlns="http://www.w3.org/2000/svg">
  <path d="M 809 1764.5  C 812.36 1764.5  815 1767.14  815 1770.5  C 815 1773.86  812.36 1776.5  809 1776.5  C 805.64 1776.5  803 1773.86  803 1770.5  C 803 1767.14  805.64 1764.5  809 1764.5  Z " fill-rule="nonzero" fill="#f0f0f0" stroke="none" />
  <path d="M 809 1765  C 812.08 1765  814.5 1767.42  814.5 1770.5  C 814.5 1773.58  812.08 1776  809 1776  C 805.92 1776  803.5 1773.58  803.5 1770.5  C 803.5 1767.42  805.92 1765  809 1765  Z " stroke-width="1" stroke="#797979" fill="none" />
  <path d="M 809 1773.5  C 807.32 1773.5  806 1772.18  806 1770.5  C 806 1768.82  807.32 1767.5  809 1767.5  C 810.68 1767.5  812 1768.82  812 1770.5  C 812 1772.18  810.68 1773.5  809 1773.5  " fill-rule="nonzero" fill="#797979" stroke="none" />
</svg>