<?xml version="1.0" encoding="utf-8"?>
<svg version="1.1" xmlns:xlink="http://www.w3.org/1999/xlink" width="12px" height="12px" viewBox="850 1764.5  12 12" xmlns="http://www.w3.org/2000/svg">
  <path d="M 856 1764.5  C 859.36 1764.5  862 1767.14  862 1770.5  C 862 1773.86  859.36 1776.5  856 1776.5  C 852.64 1776.5  850 1773.86  850 1770.5  C 850 1767.14  852.64 1764.5  856 1764.5  Z " fill-rule="nonzero" fill="#ffffff" stroke="none" />
  <path d="M 856 1765  C 859.08 1765  861.5 1767.42  861.5 1770.5  C 861.5 1773.58  859.08 1776  856 1776  C 852.92 1776  850.5 1773.58  850.5 1770.5  C 850.5 1767.42  852.92 1765  856 1765  Z " stroke-width="1" stroke="#797979" fill="none" />
  <path d="M 856 1773.5  C 854.32 1773.5  853 1772.18  853 1770.5  C 853 1768.82  854.32 1767.5  856 1767.5  C 857.68 1767.5  859 1768.82  859 1770.5  C 859 1772.18  857.68 1773.5  856 1773.5  " fill-rule="nonzero" fill="#797979" stroke="none" />
</svg>