<?xml version="1.0" encoding="utf-8"?>
<svg version="1.1" xmlns:xlink="http://www.w3.org/1999/xlink" width="12px" height="12px" viewBox="803 1804.5  12 12" xmlns="http://www.w3.org/2000/svg">
  <path d="M 809 1804.5  C 812.36 1804.5  815 1807.14  815 1810.5  C 815 1813.86  812.36 1816.5  809 1816.5  C 805.64 1816.5  803 1813.86  803 1810.5  C 803 1807.14  805.64 1804.5  809 1804.5  Z " fill-rule="nonzero" fill="#f0f0f0" stroke="none" />
  <path d="M 809 1805  C 812.08 1805  814.5 1807.42  814.5 1810.5  C 814.5 1813.58  812.08 1816  809 1816  C 805.92 1816  803.5 1813.58  803.5 1810.5  C 803.5 1807.42  805.92 1805  809 1805  Z " stroke-width="1" stroke="#797979" fill="none" />
  <path d="M 809 1813.5  C 807.32 1813.5  806 1812.18  806 1810.5  C 806 1808.82  807.32 1807.5  809 1807.5  C 810.68 1807.5  812 1808.82  812 1810.5  C 812 1812.18  810.68 1813.5  809 1813.5  " fill-rule="nonzero" fill="#797979" stroke="none" />
</svg>