<?xml version="1.0" encoding="utf-8"?>
<svg version="1.1" xmlns:xlink="http://www.w3.org/1999/xlink" width="12px" height="12px" viewBox="801 579.5  12 12" xmlns="http://www.w3.org/2000/svg">
  <path d="M 807 579.5  C 810.36 579.5  813 582.14  813 585.5  C 813 588.86  810.36 591.5  807 591.5  C 803.64 591.5  801 588.86  801 585.5  C 801 582.14  803.64 579.5  807 579.5  Z " fill-rule="nonzero" fill="#f0f0f0" stroke="none" />
  <path d="M 807 580  C 810.08 580  812.5 582.42  812.5 585.5  C 812.5 588.58  810.08 591  807 591  C 803.92 591  801.5 588.58  801.5 585.5  C 801.5 582.42  803.92 580  807 580  Z " stroke-width="1" stroke="#797979" fill="none" />
  <path d="M 807 588.5  C 805.32 588.5  804 587.18  804 585.5  C 804 583.82  805.32 582.5  807 582.5  C 808.68 582.5  810 583.82  810 585.5  C 810 587.18  808.68 588.5  807 588.5  " fill-rule="nonzero" fill="#797979" stroke="none" />
</svg>