<?xml version="1.0" encoding="utf-8"?>
<svg version="1.1" xmlns:xlink="http://www.w3.org/1999/xlink" width="12px" height="12px" viewBox="848 579.5  12 12" xmlns="http://www.w3.org/2000/svg">
  <path d="M 854 579.5  C 857.36 579.5  860 582.14  860 585.5  C 860 588.86  857.36 591.5  854 591.5  C 850.64 591.5  848 588.86  848 585.5  C 848 582.14  850.64 579.5  854 579.5  Z " fill-rule="nonzero" fill="#f0f0f0" stroke="none" />
  <path d="M 854 580  C 857.08 580  859.5 582.42  859.5 585.5  C 859.5 588.58  857.08 591  854 591  C 850.92 591  848.5 588.58  848.5 585.5  C 848.5 582.42  850.92 580  854 580  Z " stroke-width="1" stroke="#797979" fill="none" />
  <path d="M 854 588.5  C 852.32 588.5  851 587.18  851 585.5  C 851 583.82  852.32 582.5  854 582.5  C 855.68 582.5  857 583.82  857 585.5  C 857 587.18  855.68 588.5  854 588.5  " fill-rule="nonzero" fill="#797979" stroke="none" />
</svg>