<?xml version="1.0" encoding="utf-8"?>
<svg version="1.1" xmlns:xlink="http://www.w3.org/1999/xlink" width="12px" height="12px" viewBox="847 667.5  12 12" xmlns="http://www.w3.org/2000/svg">
  <path d="M 853 667.5  C 856.36 667.5  859 670.14  859 673.5  C 859 676.86  856.36 679.5  853 679.5  C 849.64 679.5  847 676.86  847 673.5  C 847 670.14  849.64 667.5  853 667.5  Z " fill-rule="nonzero" fill="#f0f0f0" stroke="none" />
  <path d="M 853 668  C 856.08 668  858.5 670.42  858.5 673.5  C 858.5 676.58  856.08 679  853 679  C 849.92 679  847.5 676.58  847.5 673.5  C 847.5 670.42  849.92 668  853 668  Z " stroke-width="1" stroke="#797979" fill="none" />
  <path d="M 853 676.5  C 851.32 676.5  850 675.18  850 673.5  C 850 671.82  851.32 670.5  853 670.5  C 854.68 670.5  856 671.82  856 673.5  C 856 675.18  854.68 676.5  853 676.5  " fill-rule="nonzero" fill="#797979" stroke="none" />
</svg>