<?xml version="1.0" encoding="utf-8"?>
<svg version="1.1" xmlns:xlink="http://www.w3.org/1999/xlink" width="12px" height="12px" viewBox="846 624.5  12 12" xmlns="http://www.w3.org/2000/svg">
  <path d="M 852 624.5  C 855.36 624.5  858 627.14  858 630.5  C 858 633.86  855.36 636.5  852 636.5  C 848.64 636.5  846 633.86  846 630.5  C 846 627.14  848.64 624.5  852 624.5  Z " fill-rule="nonzero" fill="#f0f0f0" stroke="none" />
  <path d="M 852 625  C 855.08 625  857.5 627.42  857.5 630.5  C 857.5 633.58  855.08 636  852 636  C 848.92 636  846.5 633.58  846.5 630.5  C 846.5 627.42  848.92 625  852 625  Z " stroke-width="1" stroke="#797979" fill="none" />
  <path d="M 852 633.5  C 850.32 633.5  849 632.18  849 630.5  C 849 628.82  850.32 627.5  852 627.5  C 853.68 627.5  855 628.82  855 630.5  C 855 632.18  853.68 633.5  852 633.5  " fill-rule="nonzero" fill="#797979" stroke="none" />
</svg>