<?xml version="1.0" encoding="utf-8"?>
<svg version="1.1" xmlns:xlink="http://www.w3.org/1999/xlink" width="12px" height="12px" viewBox="799 624.5  12 12" xmlns="http://www.w3.org/2000/svg">
  <path d="M 805 624.5  C 808.36 624.5  811 627.14  811 630.5  C 811 633.86  808.36 636.5  805 636.5  C 801.64 636.5  799 633.86  799 630.5  C 799 627.14  801.64 624.5  805 624.5  Z " fill-rule="nonzero" fill="#f0f0f0" stroke="none" />
  <path d="M 805 625  C 808.08 625  810.5 627.42  810.5 630.5  C 810.5 633.58  808.08 636  805 636  C 801.92 636  799.5 633.58  799.5 630.5  C 799.5 627.42  801.92 625  805 625  Z " stroke-width="1" stroke="#797979" fill="none" />
  <path d="M 805 633.5  C 803.32 633.5  802 632.18  802 630.5  C 802 628.82  803.32 627.5  805 627.5  C 806.68 627.5  808 628.82  808 630.5  C 808 632.18  806.68 633.5  805 633.5  " fill-rule="nonzero" fill="#797979" stroke="none" />
</svg>