<?xml version="1.0" encoding="utf-8"?>
<svg version="1.1" xmlns:xlink="http://www.w3.org/1999/xlink" width="12px" height="12px" viewBox="800 785.5  12 12" xmlns="http://www.w3.org/2000/svg">
  <path d="M 806 785.5  C 809.36 785.5  812 788.14  812 791.5  C 812 794.86  809.36 797.5  806 797.5  C 802.64 797.5  800 794.86  800 791.5  C 800 788.14  802.64 785.5  806 785.5  Z " fill-rule="nonzero" fill="#f0f0f0" stroke="none" />
  <path d="M 806 786  C 809.08 786  811.5 788.42  811.5 791.5  C 811.5 794.58  809.08 797  806 797  C 802.92 797  800.5 794.58  800.5 791.5  C 800.5 788.42  802.92 786  806 786  Z " stroke-width="1" stroke="#797979" fill="none" />
  <path d="M 806 794.5  C 804.32 794.5  803 793.18  803 791.5  C 803 789.82  804.32 788.5  806 788.5  C 807.68 788.5  809 789.82  809 791.5  C 809 793.18  807.68 794.5  806 794.5  " fill-rule="nonzero" fill="#797979" stroke="none" />
</svg>