<?xml version="1.0" encoding="utf-8"?>
<svg version="1.1" xmlns:xlink="http://www.w3.org/1999/xlink" width="12px" height="12px" viewBox="847 785.5  12 12" xmlns="http://www.w3.org/2000/svg">
  <path d="M 853 785.5  C 856.36 785.5  859 788.14  859 791.5  C 859 794.86  856.36 797.5  853 797.5  C 849.64 797.5  847 794.86  847 791.5  C 847 788.14  849.64 785.5  853 785.5  Z " fill-rule="nonzero" fill="#f0f0f0" stroke="none" />
  <path d="M 853 786  C 856.08 786  858.5 788.42  858.5 791.5  C 858.5 794.58  856.08 797  853 797  C 849.92 797  847.5 794.58  847.5 791.5  C 847.5 788.42  849.92 786  853 786  Z " stroke-width="1" stroke="#797979" fill="none" />
  <path d="M 853 794.5  C 851.32 794.5  850 793.18  850 791.5  C 850 789.82  851.32 788.5  853 788.5  C 854.68 788.5  856 789.82  856 791.5  C 856 793.18  854.68 794.5  853 794.5  " fill-rule="nonzero" fill="#797979" stroke="none" />
</svg>