<?xml version="1.0" encoding="utf-8"?>
<svg version="1.1" xmlns:xlink="http://www.w3.org/1999/xlink" width="12px" height="12px" viewBox="800 748.5  12 12" xmlns="http://www.w3.org/2000/svg">
  <path d="M 806 748.5  C 809.36 748.5  812 751.14  812 754.5  C 812 757.86  809.36 760.5  806 760.5  C 802.64 760.5  800 757.86  800 754.5  C 800 751.14  802.64 748.5  806 748.5  Z " fill-rule="nonzero" fill="#f0f0f0" stroke="none" />
  <path d="M 806 749  C 809.08 749  811.5 751.42  811.5 754.5  C 811.5 757.58  809.08 760  806 760  C 802.92 760  800.5 757.58  800.5 754.5  C 800.5 751.42  802.92 749  806 749  Z " stroke-width="1" stroke="#797979" fill="none" />
  <path d="M 806 757.5  C 804.32 757.5  803 756.18  803 754.5  C 803 752.82  804.32 751.5  806 751.5  C 807.68 751.5  809 752.82  809 754.5  C 809 756.18  807.68 757.5  806 757.5  " fill-rule="nonzero" fill="#797979" stroke="none" />
</svg>