<?xml version="1.0" encoding="utf-8"?>
<svg version="1.1" xmlns:xlink="http://www.w3.org/1999/xlink" width="12px" height="12px" viewBox="800 864.5  12 12" xmlns="http://www.w3.org/2000/svg">
  <path d="M 806 864.5  C 809.36 864.5  812 867.14  812 870.5  C 812 873.86  809.36 876.5  806 876.5  C 802.64 876.5  800 873.86  800 870.5  C 800 867.14  802.64 864.5  806 864.5  Z " fill-rule="nonzero" fill="#f0f0f0" stroke="none" />
  <path d="M 806 865  C 809.08 865  811.5 867.42  811.5 870.5  C 811.5 873.58  809.08 876  806 876  C 802.92 876  800.5 873.58  800.5 870.5  C 800.5 867.42  802.92 865  806 865  Z " stroke-width="1" stroke="#797979" fill="none" />
  <path d="M 806 873.5  C 804.32 873.5  803 872.18  803 870.5  C 803 868.82  804.32 867.5  806 867.5  C 807.68 867.5  809 868.82  809 870.5  C 809 872.18  807.68 873.5  806 873.5  " fill-rule="nonzero" fill="#797979" stroke="none" />
</svg>