<?xml version="1.0" encoding="utf-8"?>
<svg version="1.1" xmlns:xlink="http://www.w3.org/1999/xlink" width="12px" height="12px" viewBox="848 903.5  12 12" xmlns="http://www.w3.org/2000/svg">
  <path d="M 854 903.5  C 857.36 903.5  860 906.14  860 909.5  C 860 912.86  857.36 915.5  854 915.5  C 850.64 915.5  848 912.86  848 909.5  C 848 906.14  850.64 903.5  854 903.5  Z " fill-rule="nonzero" fill="#dcf3fd" stroke="none" />
  <path d="M 854 904  C 857.08 904  859.5 906.42  859.5 909.5  C 859.5 912.58  857.08 915  854 915  C 850.92 915  848.5 912.58  848.5 909.5  C 848.5 906.42  850.92 904  854 904  Z " stroke-width="1" stroke="#797979" fill="none" />
  <path d="M 854 912.5  C 852.32 912.5  851 911.18  851 909.5  C 851 907.82  852.32 906.5  854 906.5  C 855.68 906.5  857 907.82  857 909.5  C 857 911.18  855.68 912.5  854 912.5  " fill-rule="nonzero" fill="#797979" stroke="none" />
</svg>