<?xml version="1.0" encoding="utf-8"?>
<svg version="1.1" xmlns:xlink="http://www.w3.org/1999/xlink" width="12px" height="12px" viewBox="847 864.5  12 12" xmlns="http://www.w3.org/2000/svg">
  <path d="M 853 864.5  C 856.36 864.5  859 867.14  859 870.5  C 859 873.86  856.36 876.5  853 876.5  C 849.64 876.5  847 873.86  847 870.5  C 847 867.14  849.64 864.5  853 864.5  Z " fill-rule="nonzero" fill="#f0f0f0" stroke="none" />
  <path d="M 853 865  C 856.08 865  858.5 867.42  858.5 870.5  C 858.5 873.58  856.08 876  853 876  C 849.92 876  847.5 873.58  847.5 870.5  C 847.5 867.42  849.92 865  853 865  Z " stroke-width="1" stroke="#797979" fill="none" />
  <path d="M 853 873.5  C 851.32 873.5  850 872.18  850 870.5  C 850 868.82  851.32 867.5  853 867.5  C 854.68 867.5  856 868.82  856 870.5  C 856 872.18  854.68 873.5  853 873.5  " fill-rule="nonzero" fill="#797979" stroke="none" />
</svg>