<?xml version="1.0" encoding="utf-8"?>
<svg version="1.1" xmlns:xlink="http://www.w3.org/1999/xlink" width="12px" height="12px" viewBox="801 903.5  12 12" xmlns="http://www.w3.org/2000/svg">
  <path d="M 807 903.5  C 810.36 903.5  813 906.14  813 909.5  C 813 912.86  810.36 915.5  807 915.5  C 803.64 915.5  801 912.86  801 909.5  C 801 906.14  803.64 903.5  807 903.5  Z " fill-rule="nonzero" fill="#f0f0f0" stroke="none" />
  <path d="M 807 904  C 810.08 904  812.5 906.42  812.5 909.5  C 812.5 912.58  810.08 915  807 915  C 803.92 915  801.5 912.58  801.5 909.5  C 801.5 906.42  803.92 904  807 904  Z " stroke-width="1" stroke="#797979" fill="none" />
  <path d="M 807 912.5  C 805.32 912.5  804 911.18  804 909.5  C 804 907.82  805.32 906.5  807 906.5  C 808.68 906.5  810 907.82  810 909.5  C 810 911.18  808.68 912.5  807 912.5  " fill-rule="nonzero" fill="#797979" stroke="none" />
</svg>