<?xml version="1.0" encoding="utf-8"?>
<svg version="1.1" xmlns:xlink="http://www.w3.org/1999/xlink" width="12px" height="12px" viewBox="800 988.5  12 12" xmlns="http://www.w3.org/2000/svg">
  <path d="M 806 988.5  C 809.36 988.5  812 991.14  812 994.5  C 812 997.86  809.36 1000.5  806 1000.5  C 802.64 1000.5  800 997.86  800 994.5  C 800 991.14  802.64 988.5  806 988.5  Z " fill-rule="nonzero" fill="#f0f0f0" stroke="none" />
  <path d="M 806 989  C 809.08 989  811.5 991.42  811.5 994.5  C 811.5 997.58  809.08 1000  806 1000  C 802.92 1000  800.5 997.58  800.5 994.5  C 800.5 991.42  802.92 989  806 989  Z " stroke-width="1" stroke="#797979" fill="none" />
  <path d="M 806 997.5  C 804.32 997.5  803 996.18  803 994.5  C 803 992.82  804.32 991.5  806 991.5  C 807.68 991.5  809 992.82  809 994.5  C 809 996.18  807.68 997.5  806 997.5  " fill-rule="nonzero" fill="#797979" stroke="none" />
</svg>