<?xml version="1.0" encoding="utf-8"?>
<svg version="1.1" xmlns:xlink="http://www.w3.org/1999/xlink" width="12px" height="12px" viewBox="847 1028.5  12 12" xmlns="http://www.w3.org/2000/svg">
  <path d="M 853 1028.5  C 856.36 1028.5  859 1031.14  859 1034.5  C 859 1037.86  856.36 1040.5  853 1040.5  C 849.64 1040.5  847 1037.86  847 1034.5  C 847 1031.14  849.64 1028.5  853 1028.5  Z " fill-rule="nonzero" fill="#ecf2fe" stroke="none" fill-opacity="0" />
  <path d="M 853 1029  C 856.08 1029  858.5 1031.42  858.5 1034.5  C 858.5 1037.58  856.08 1040  853 1040  C 849.92 1040  847.5 1037.58  847.5 1034.5  C 847.5 1031.42  849.92 1029  853 1029  Z " stroke-width="1" stroke="#797979" fill="none" />
  <path d="M 853 1037.5  C 851.32 1037.5  850 1036.18  850 1034.5  C 850 1032.82  851.32 1031.5  853 1031.5  C 854.68 1031.5  856 1032.82  856 1034.5  C 856 1036.18  854.68 1037.5  853 1037.5  " fill-rule="nonzero" fill="#797979" stroke="none" />
</svg>