<?xml version="1.0" encoding="utf-8"?>
<svg version="1.1" xmlns:xlink="http://www.w3.org/1999/xlink" width="12px" height="12px" viewBox="800 1028.5  12 12" xmlns="http://www.w3.org/2000/svg">
  <path d="M 806 1028.5  C 809.36 1028.5  812 1031.14  812 1034.5  C 812 1037.86  809.36 1040.5  806 1040.5  C 802.64 1040.5  800 1037.86  800 1034.5  C 800 1031.14  802.64 1028.5  806 1028.5  Z " fill-rule="nonzero" fill="#ecf2fe" stroke="none" fill-opacity="0" />
  <path d="M 806 1029  C 809.08 1029  811.5 1031.42  811.5 1034.5  C 811.5 1037.58  809.08 1040  806 1040  C 802.92 1040  800.5 1037.58  800.5 1034.5  C 800.5 1031.42  802.92 1029  806 1029  Z " stroke-width="1" stroke="#797979" fill="none" />
  <path d="M 806 1037.5  C 804.32 1037.5  803 1036.18  803 1034.5  C 803 1032.82  804.32 1031.5  806 1031.5  C 807.68 1031.5  809 1032.82  809 1034.5  C 809 1036.18  807.68 1037.5  806 1037.5  " fill-rule="nonzero" fill="#797979" stroke="none" />
</svg>