<?xml version="1.0" encoding="utf-8"?>
<svg version="1.1" xmlns:xlink="http://www.w3.org/1999/xlink" width="12px" height="12px" viewBox="801 1496.5  12 12" xmlns="http://www.w3.org/2000/svg">
  <path d="M 807 1496.5  C 810.36 1496.5  813 1499.14  813 1502.5  C 813 1505.86  810.36 1508.5  807 1508.5  C 803.64 1508.5  801 1505.86  801 1502.5  C 801 1499.14  803.64 1496.5  807 1496.5  Z " fill-rule="nonzero" fill="#ffffff" stroke="none" />
  <path d="M 807 1497  C 810.08 1497  812.5 1499.42  812.5 1502.5  C 812.5 1505.58  810.08 1508  807 1508  C 803.92 1508  801.5 1505.58  801.5 1502.5  C 801.5 1499.42  803.92 1497  807 1497  Z " stroke-width="1" stroke="#797979" fill="none" />
  <path d="M 807 1505.5  C 805.32 1505.5  804 1504.18  804 1502.5  C 804 1500.82  805.32 1499.5  807 1499.5  C 808.68 1499.5  810 1500.82  810 1502.5  C 810 1504.18  808.68 1505.5  807 1505.5  " fill-rule="nonzero" fill="#797979" stroke="none" />
</svg>