<?xml version="1.0" encoding="utf-8"?>
<svg version="1.1" xmlns:xlink="http://www.w3.org/1999/xlink" width="12px" height="12px" viewBox="288 496  12 12" xmlns="http://www.w3.org/2000/svg">
  <path d="M 288.5 498  A 1.5 1.5 0 0 1 290 496.5 L 298 496.5  A 1.5 1.5 0 0 1 299.5 498 L 299.5 506  A 1.5 1.5 0 0 1 298 507.5 L 290 507.5  A 1.5 1.5 0 0 1 288.5 506 L 288.5 498  Z " fill-rule="nonzero" fill="#ffffff" stroke="none" />
  <path d="M 288.5 498  A 1.5 1.5 0 0 1 290 496.5 L 298 496.5  A 1.5 1.5 0 0 1 299.5 498 L 299.5 506  A 1.5 1.5 0 0 1 298 507.5 L 290 507.5  A 1.5 1.5 0 0 1 288.5 506 L 288.5 498  Z " stroke-width="1" stroke="#797979" fill="none" />
  <path d="M 290.571428571429 502  L 293.142857142857 504.571428571429  " stroke-width="2.57142857142857" stroke="#797979" fill="none" />
  <path d="M 293.142857142857 504.571428571429  L 297.428571428571 498.571428571429  " stroke-width="2.57142857142857" stroke="#797979" fill="none" />
</svg>