<?xml version="1.0" encoding="utf-8"?>
<svg version="1.1" xmlns:xlink="http://www.w3.org/1999/xlink" width="12px" height="12px" viewBox="288 306  12 12" xmlns="http://www.w3.org/2000/svg">
  <path d="M 288.5 308  A 1.5 1.5 0 0 1 290 306.5 L 298 306.5  A 1.5 1.5 0 0 1 299.5 308 L 299.5 316  A 1.5 1.5 0 0 1 298 317.5 L 290 317.5  A 1.5 1.5 0 0 1 288.5 316 L 288.5 308  Z " fill-rule="nonzero" fill="#f0f0f0" stroke="none" />
  <path d="M 288.5 308  A 1.5 1.5 0 0 1 290 306.5 L 298 306.5  A 1.5 1.5 0 0 1 299.5 308 L 299.5 316  A 1.5 1.5 0 0 1 298 317.5 L 290 317.5  A 1.5 1.5 0 0 1 288.5 316 L 288.5 308  Z " stroke-width="1" stroke="#797979" fill="none" />
  <path d="M 290.571428571429 312  L 293.142857142857 314.571428571429  " stroke-width="2.57142857142857" stroke="#797979" fill="none" />
  <path d="M 293.142857142857 314.571428571429  L 297.428571428571 308.571428571429  " stroke-width="2.57142857142857" stroke="#797979" fill="none" />
</svg>