<?xml version="1.0" encoding="utf-8"?>
<svg version="1.1" xmlns:xlink="http://www.w3.org/1999/xlink" width="12px" height="12px" viewBox="288 268  12 12" xmlns="http://www.w3.org/2000/svg">
  <path d="M 288.5 270  A 1.5 1.5 0 0 1 290 268.5 L 298 268.5  A 1.5 1.5 0 0 1 299.5 270 L 299.5 278  A 1.5 1.5 0 0 1 298 279.5 L 290 279.5  A 1.5 1.5 0 0 1 288.5 278 L 288.5 270  Z " fill-rule="nonzero" fill="#f0f0f0" stroke="none" />
  <path d="M 288.5 270  A 1.5 1.5 0 0 1 290 268.5 L 298 268.5  A 1.5 1.5 0 0 1 299.5 270 L 299.5 278  A 1.5 1.5 0 0 1 298 279.5 L 290 279.5  A 1.5 1.5 0 0 1 288.5 278 L 288.5 270  Z " stroke-width="1" stroke="#797979" fill="none" />
</svg>