<?xml version="1.0" encoding="utf-8"?>
<svg version="1.1" xmlns:xlink="http://www.w3.org/1999/xlink" width="12px" height="12px" viewBox="288 232  12 12" xmlns="http://www.w3.org/2000/svg">
  <path d="M 288.5 234  A 1.5 1.5 0 0 1 290 232.5 L 298 232.5  A 1.5 1.5 0 0 1 299.5 234 L 299.5 242  A 1.5 1.5 0 0 1 298 243.5 L 290 243.5  A 1.5 1.5 0 0 1 288.5 242 L 288.5 234  Z " fill-rule="nonzero" fill="#f0f0f0" stroke="none" />
  <path d="M 288.5 234  A 1.5 1.5 0 0 1 290 232.5 L 298 232.5  A 1.5 1.5 0 0 1 299.5 234 L 299.5 242  A 1.5 1.5 0 0 1 298 243.5 L 290 243.5  A 1.5 1.5 0 0 1 288.5 242 L 288.5 234  Z " stroke-width="1" stroke="#797979" fill="none" />
  <path d="M 290.571428571429 238  L 293.142857142857 240.571428571429  " stroke-width="2.57142857142857" stroke="#797979" fill="none" />
  <path d="M 293.142857142857 240.571428571429  L 297.428571428571 234.571428571429  " stroke-width="2.57142857142857" stroke="#797979" fill="none" />
</svg>