<?xml version="1.0" encoding="utf-8"?>
<svg version="1.1" xmlns:xlink="http://www.w3.org/1999/xlink" width="12px" height="12px" viewBox="288 194  12 12" xmlns="http://www.w3.org/2000/svg">
  <path d="M 288.5 196  A 1.5 1.5 0 0 1 290 194.5 L 298 194.5  A 1.5 1.5 0 0 1 299.5 196 L 299.5 204  A 1.5 1.5 0 0 1 298 205.5 L 290 205.5  A 1.5 1.5 0 0 1 288.5 204 L 288.5 196  Z " fill-rule="nonzero" fill="#ffffff" stroke="none" />
  <path d="M 288.5 196  A 1.5 1.5 0 0 1 290 194.5 L 298 194.5  A 1.5 1.5 0 0 1 299.5 196 L 299.5 204  A 1.5 1.5 0 0 1 298 205.5 L 290 205.5  A 1.5 1.5 0 0 1 288.5 204 L 288.5 196  Z " stroke-width="1" stroke="#797979" fill="none" />
  <path d="M 290.571428571429 200  L 293.142857142857 202.571428571429  " stroke-width="2.57142857142857" stroke="#797979" fill="none" />
  <path d="M 293.142857142857 202.571428571429  L 297.428571428571 196.571428571429  " stroke-width="2.57142857142857" stroke="#797979" fill="none" />
</svg>