<?xml version="1.0" encoding="utf-8"?>
<svg version="1.1" xmlns:xlink="http://www.w3.org/1999/xlink" width="12px" height="12px" viewBox="288 534  12 12" xmlns="http://www.w3.org/2000/svg">
  <path d="M 288.5 536  A 1.5 1.5 0 0 1 290 534.5 L 298 534.5  A 1.5 1.5 0 0 1 299.5 536 L 299.5 544  A 1.5 1.5 0 0 1 298 545.5 L 290 545.5  A 1.5 1.5 0 0 1 288.5 544 L 288.5 536  Z " fill-rule="nonzero" fill="#f0f0f0" stroke="none" />
  <path d="M 288.5 536  A 1.5 1.5 0 0 1 290 534.5 L 298 534.5  A 1.5 1.5 0 0 1 299.5 536 L 299.5 544  A 1.5 1.5 0 0 1 298 545.5 L 290 545.5  A 1.5 1.5 0 0 1 288.5 544 L 288.5 536  Z " stroke-width="1" stroke="#797979" fill="none" />
  <path d="M 290.571428571429 540  L 293.142857142857 542.571428571429  " stroke-width="2.57142857142857" stroke="#797979" fill="none" />
  <path d="M 293.142857142857 542.571428571429  L 297.428571428571 536.571428571429  " stroke-width="2.57142857142857" stroke="#797979" fill="none" />
</svg>