<?xml version="1.0" encoding="utf-8"?>
<svg version="1.1" xmlns:xlink="http://www.w3.org/1999/xlink" width="12px" height="12px" viewBox="288 457  12 12" xmlns="http://www.w3.org/2000/svg">
  <path d="M 288.5 459  A 1.5 1.5 0 0 1 290 457.5 L 298 457.5  A 1.5 1.5 0 0 1 299.5 459 L 299.5 467  A 1.5 1.5 0 0 1 298 468.5 L 290 468.5  A 1.5 1.5 0 0 1 288.5 467 L 288.5 459  Z " fill-rule="nonzero" fill="#ffffff" stroke="none" />
  <path d="M 288.5 459  A 1.5 1.5 0 0 1 290 457.5 L 298 457.5  A 1.5 1.5 0 0 1 299.5 459 L 299.5 467  A 1.5 1.5 0 0 1 298 468.5 L 290 468.5  A 1.5 1.5 0 0 1 288.5 467 L 288.5 459  Z " stroke-width="1" stroke="#797979" fill="none" />
</svg>