<?xml version="1.0" encoding="utf-8"?>
<svg version="1.1" xmlns:xlink="http://www.w3.org/1999/xlink" width="12px" height="12px" viewBox="288 419  12 12" xmlns="http://www.w3.org/2000/svg">
  <path d="M 288.5 421  A 1.5 1.5 0 0 1 290 419.5 L 298 419.5  A 1.5 1.5 0 0 1 299.5 421 L 299.5 429  A 1.5 1.5 0 0 1 298 430.5 L 290 430.5  A 1.5 1.5 0 0 1 288.5 429 L 288.5 421  Z " fill-rule="nonzero" fill="#f0f0f0" stroke="none" />
  <path d="M 288.5 421  A 1.5 1.5 0 0 1 290 419.5 L 298 419.5  A 1.5 1.5 0 0 1 299.5 421 L 299.5 429  A 1.5 1.5 0 0 1 298 430.5 L 290 430.5  A 1.5 1.5 0 0 1 288.5 429 L 288.5 421  Z " stroke-width="1" stroke="#797979" fill="none" />
</svg>