<?xml version="1.0" encoding="utf-8"?>
<svg version="1.1" xmlns:xlink="http://www.w3.org/1999/xlink" width="56px" height="20px" xmlns="http://www.w3.org/2000/svg">
  <defs>
    <linearGradient gradientUnits="userSpaceOnUse" x1="5783" y1="96" x2="5783" y2="116" id="LinearGradient485">
      <stop id="Stop486" stop-color="#5a9cf8" offset="0" />
      <stop id="Stop487" stop-color="#84b7fc" offset="1" />
    </linearGradient>
  </defs>
  <g transform="matrix(1 0 0 1 -5755 -96 )">
    <path d="M 5755.5 106  A 9.5 9.5 0 0 1 5765 96.5 L 5801 96.5  A 9.5 9.5 0 0 1 5810.5 106 A 9.5 9.5 0 0 1 5801 115.5 L 5765 115.5  A 9.5 9.5 0 0 1 5755.5 106 Z " fill-rule="nonzero" fill="#ffffff" stroke="none" />
    <path d="M 5755.5 106  A 9.5 9.5 0 0 1 5765 96.5 L 5801 96.5  A 9.5 9.5 0 0 1 5810.5 106 A 9.5 9.5 0 0 1 5801 115.5 L 5765 115.5  A 9.5 9.5 0 0 1 5755.5 106 Z " stroke-width="1" stroke="url(#LinearGradient485)" fill="none" />
  </g>
</svg>