<?xml version="1.0" encoding="utf-8"?>
<svg version="1.1" xmlns:xlink="http://www.w3.org/1999/xlink" width="830px" height="150px" xmlns="http://www.w3.org/2000/svg">
  <defs>
    <filter x="1589px" y="261px" width="830px" height="150px" filterUnits="userSpaceOnUse" id="filter779">
      <feOffset dx="0" dy="0" in="SourceAlpha" result="shadowOffsetInner" />
      <feGaussianBlur stdDeviation="2.5" in="shadowOffsetInner" result="shadowGaussian" />
      <feComposite in2="shadowGaussian" operator="atop" in="SourceAlpha" result="shadowComposite" />
      <feColorMatrix type="matrix" values="0 0 0 0 0  0 0 0 0 0  0 0 0 0 0  0 0 0 0.349019607843137 0  " in="shadowComposite" />
    </filter>
    <g id="widget780">
      <path d="M 1595 271  A 4 4 0 0 1 1599 267 L 2409 267  A 4 4 0 0 1 2413 271 L 2413 401  A 4 4 0 0 1 2409 405 L 1599 405  A 4 4 0 0 1 1595 401 L 1595 271  Z " fill-rule="nonzero" fill="#ffffff" stroke="none" />
      <path d="M 1594.5 271  A 4.5 4.5 0 0 1 1599 266.5 L 2409 266.5  A 4.5 4.5 0 0 1 2413.5 271 L 2413.5 401  A 4.5 4.5 0 0 1 2409 405.5 L 1599 405.5  A 4.5 4.5 0 0 1 1594.5 401 L 1594.5 271  Z " stroke-width="1" stroke-dasharray="9,4" stroke="#5e7dea" fill="none" stroke-dashoffset="0.5" />
    </g>
  </defs>
  <g transform="matrix(1 0 0 1 -1589 -261 )">
    <use xlink:href="#widget780" filter="url(#filter779)" />
    <use xlink:href="#widget780" />
  </g>
</svg>