<?xml version="1.0" encoding="utf-8"?>
<svg version="1.1" xmlns:xlink="http://www.w3.org/1999/xlink" width="14px" height="16px" xmlns="http://www.w3.org/2000/svg">
  <g transform="matrix(1 0 0 1 -201 -1128 )">
    <path d="M 6.15024038461539 1.49553571428571  C 5.94270833333333 1.26041666666667  5.6875 1.14285714285714  5.38461538461539 1.14285714285714  C 5.08733974358974 1.14285714285714  4.83353365384615 1.25446428571429  4.62319711538461 1.47767857142857  C 4.41286057692308 1.70089285714286  4.30769230769231 1.97023809523809  4.30769230769231 2.28571428571429  L 4.30769230769231 6.85714285714286  L 4.30769230769231 10.2857142857143  L 3.03725961538462 8.48214285714286  C 2.80729166666667 8.16071428571428  2.50721153846154 8  2.13701923076923 8  C 1.84535256410256 8  1.59575320512821 8.11309523809524  1.38822115384615 8.33928571428572  C 1.1806891025641 8.56547619047619  1.07692307692308 8.83333333333333  1.07692307692308 9.14285714285714  C 1.07692307692308 9.39880952380952  1.14983974358974 9.62797619047619  1.29567307692308 9.83035714285714  L 4.52644230769231 14.4017857142857  C 4.73958333333333 14.7053571428571  5.02564102564103 14.8571428571429  5.38461538461539 14.8571428571429  L 11.4254807692308 14.8571428571429  C 11.5488782051282 14.8571428571429  11.659655448718 14.8169642857143  11.7578125 14.7366071428571  C 11.8559695512821 14.65625  11.9190705128205 14.5535714285714  11.9471153846154 14.4285714285714  L 12.7211538461538 11.1428571428571  C 12.8557692307692 10.5714285714286  12.9230769230769 9.99404761904762  12.9230769230769 9.41071428571428  L 12.9230769230769 7.47321428571429  C 12.9230769230769 7.22916666666667  12.8445512820513 7.01785714285714  12.6875 6.83928571428571  C 12.5304487179487 6.66071428571429  12.3397435897436 6.57142857142857  12.1153846153846 6.57142857142857  C 11.8910256410256 6.57142857142857  11.7003205128205 6.6547619047619  11.5432692307692 6.82142857142857  C 11.386217948718 6.98809523809524  11.3076923076923 7.19047619047619  11.3076923076923 7.42857142857143  L 11.0384615384615 7.42857142857143  L 11.0384615384615 6.88392857142857  C 11.0384615384615 6.59821428571429  10.948717948718 6.35565476190476  10.7692307692308 6.15625  C 10.5897435897436 5.95684523809524  10.3653846153846 5.85714285714286  10.0961538461538 5.85714285714286  C 9.83814102564103 5.85714285714286  9.61658653846154 5.95535714285714  9.43149038461538 6.15178571428571  C 9.24639423076923 6.34821428571429  9.15384615384615 6.58333333333333  9.15384615384615 6.85714285714286  L 9.15384615384615 7.42857142857143  L 8.88461538461538 7.42857142857143  L 8.88461538461538 6.625  C 8.88461538461538 6.29761904761905  8.78084935897436 6.01636904761905  8.57331730769231 5.78125  C 8.36578525641026 5.54613095238095  8.11057692307692 5.42857142857143  7.80769230769231 5.42857142857143  C 7.51041666666667 5.42857142857143  7.25661057692308 5.54017857142857  7.04627403846154 5.76339285714286  C 6.8359375 5.98660714285714  6.73076923076923 6.25595238095238  6.73076923076923 6.57142857142857  L 6.73076923076923 7.42857142857143  L 6.46153846153846 7.42857142857143  L 6.46153846153846 2.33928571428571  C 6.46153846153846 2.01190476190476  6.35777243589744 1.73065476190476  6.15024038461539 1.49553571428571  Z M 3.86177884615385 0.669642857142858  C 4.28245192307692 0.223214285714286  4.7900641025641 0  5.38461538461539 0  C 5.98477564102564 0  6.49379006410256 0.230654761904763  6.91165865384615 0.691964285714286  C 7.32952724358974 1.15327380952381  7.53846153846154 1.70238095238095  7.53846153846154 2.33928571428571  L 7.53846153846154 4.30357142857143  C 7.66185897435898 4.29166666666667  7.75160256410257 4.28571428571429  7.80769230769231 4.28571428571429  C 8.36298076923077 4.28571428571429  8.84815705128205 4.49107142857143  9.26322115384615 4.90178571428571  C 9.52684294871795 4.77678571428571  9.80448717948718 4.71428571428571  10.0961538461538 4.71428571428571  C 10.729967948718 4.71428571428571  11.2459935897436 4.97321428571429  11.6442307692308 5.49107142857143  C 11.7956730769231 5.44940476190476  11.9527243589744 5.42857142857143  12.1153846153846 5.42857142857143  C 12.6426282051282 5.42857142857143  13.0885416666667 5.62946428571429  13.453125 6.03125  C 13.8177083333333 6.43303571428571  14 6.91369047619048  14 7.47321428571429  L 14 9.41071428571428  C 14 10.1011904761905  13.9214743589744 10.7708333333333  13.7644230769231 11.4196428571429  L 12.9903846153846 14.7053571428571  C 12.900641025641 15.0863095238095  12.7099358974359 15.3973214285714  12.4182692307692 15.6383928571429  C 12.1266025641026 15.8794642857143  11.7956730769231 16  11.4254807692308 16  L 5.38461538461539 16  C 5.04807692307692 16  4.72696314102564 15.9181547619048  4.42127403846154 15.7544642857143  C 4.11558493589744 15.5907738095238  3.86177884615385 15.3690476190476  3.65985576923077 15.0892857142857  L 0.429086538461538 10.5178571428571  C 0.143028846153846 10.1130952380952  0 9.65476190476191  0 9.14285714285714  C 0 8.51785714285714  0.208934294871795 7.98065476190476  0.626802884615385 7.53125  C 1.04467147435897 7.08184523809524  1.54807692307692 6.85714285714286  2.13701923076923 6.85714285714286  C 2.53525641025641 6.85714285714286  2.89983974358974 6.96130952380952  3.23076923076923 7.16964285714286  L 3.23076923076923 2.28571428571429  C 3.23076923076923 1.6547619047619  3.44110576923077 1.11607142857143  3.86177884615385 0.669642857142858  Z M 6.19230769230769 12.5714285714286  L 6.46153846153846 12.5714285714286  L 6.46153846153846 9.14285714285714  L 6.19230769230769 9.14285714285714  L 6.19230769230769 12.5714285714286  Z M 8.34615384615385 12.5714285714286  L 8.61538461538462 12.5714285714286  L 8.61538461538462 9.14285714285714  L 8.34615384615385 9.14285714285714  L 8.34615384615385 12.5714285714286  Z M 10.5 12.5714285714286  L 10.7692307692308 12.5714285714286  L 10.7692307692308 9.14285714285714  L 10.5 9.14285714285714  L 10.5 12.5714285714286  Z " fill-rule="nonzero" fill="#000000" stroke="none" transform="matrix(1 0 0 1 201 1128 )" />
  </g>
</svg>