<?xml version="1.0" encoding="utf-8"?>
<svg version="1.1" xmlns:xlink="http://www.w3.org/1999/xlink" width="12px" height="12px" viewBox="507 2313  12 12" xmlns="http://www.w3.org/2000/svg">
  <path d="M 507.5 2315  A 1.5 1.5 0 0 1 509 2313.5 L 517 2313.5  A 1.5 1.5 0 0 1 518.5 2315 L 518.5 2323  A 1.5 1.5 0 0 1 517 2324.5 L 509 2324.5  A 1.5 1.5 0 0 1 507.5 2323 L 507.5 2315  Z " fill-rule="nonzero" fill="#f0f0f0" stroke="none" />
  <path d="M 507.5 2315  A 1.5 1.5 0 0 1 509 2313.5 L 517 2313.5  A 1.5 1.5 0 0 1 518.5 2315 L 518.5 2323  A 1.5 1.5 0 0 1 517 2324.5 L 509 2324.5  A 1.5 1.5 0 0 1 507.5 2323 L 507.5 2315  Z " stroke-width="1" stroke="#7f7f7f" fill="none" />
</svg>