<?xml version="1.0" encoding="utf-8"?>
<svg version="1.1" xmlns:xlink="http://www.w3.org/1999/xlink" width="12px" height="12px" viewBox="505 2264  12 12" xmlns="http://www.w3.org/2000/svg">
  <path d="M 505.5 2266  A 1.5 1.5 0 0 1 507 2264.5 L 515 2264.5  A 1.5 1.5 0 0 1 516.5 2266 L 516.5 2274  A 1.5 1.5 0 0 1 515 2275.5 L 507 2275.5  A 1.5 1.5 0 0 1 505.5 2274 L 505.5 2266  Z " fill-rule="nonzero" fill="#ffffff" stroke="none" />
  <path d="M 505.5 2266  A 1.5 1.5 0 0 1 507 2264.5 L 515 2264.5  A 1.5 1.5 0 0 1 516.5 2266 L 516.5 2274  A 1.5 1.5 0 0 1 515 2275.5 L 507 2275.5  A 1.5 1.5 0 0 1 505.5 2274 L 505.5 2266  Z " stroke-width="1" stroke="#7f7f7f" fill="none" />
  <path d="M 507.571428571429 2270  L 510.142857142857 2272.57142857143  " stroke-width="2.57142857142857" stroke="#7f7f7f" fill="none" />
  <path d="M 510.142857142857 2272.57142857143  L 514.428571428571 2266.57142857143  " stroke-width="2.57142857142857" stroke="#7f7f7f" fill="none" />
</svg>