<?xml version="1.0" encoding="utf-8"?>
<svg version="1.1" xmlns:xlink="http://www.w3.org/1999/xlink" width="12px" height="12px" viewBox="289 2815  12 12" xmlns="http://www.w3.org/2000/svg">
  <path d="M 289.5 2817  A 1.5 1.5 0 0 1 291 2815.5 L 299 2815.5  A 1.5 1.5 0 0 1 300.5 2817 L 300.5 2825  A 1.5 1.5 0 0 1 299 2826.5 L 291 2826.5  A 1.5 1.5 0 0 1 289.5 2825 L 289.5 2817  Z " fill-rule="nonzero" fill="#ffffff" stroke="none" />
  <path d="M 289.5 2817  A 1.5 1.5 0 0 1 291 2815.5 L 299 2815.5  A 1.5 1.5 0 0 1 300.5 2817 L 300.5 2825  A 1.5 1.5 0 0 1 299 2826.5 L 291 2826.5  A 1.5 1.5 0 0 1 289.5 2825 L 289.5 2817  Z " stroke-width="1" stroke="#7f7f7f" fill="none" />
</svg>