<?xml version="1.0" encoding="utf-8"?>
<svg version="1.1" xmlns:xlink="http://www.w3.org/1999/xlink" width="12px" height="12px" viewBox="587 951  12 12" xmlns="http://www.w3.org/2000/svg">
  <path d="M 587.5 953  A 1.5 1.5 0 0 1 589 951.5 L 597 951.5  A 1.5 1.5 0 0 1 598.5 953 L 598.5 961  A 1.5 1.5 0 0 1 597 962.5 L 589 962.5  A 1.5 1.5 0 0 1 587.5 961 L 587.5 953  Z " fill-rule="nonzero" fill="#ffffff" stroke="none" />
  <path d="M 587.5 953  A 1.5 1.5 0 0 1 589 951.5 L 597 951.5  A 1.5 1.5 0 0 1 598.5 953 L 598.5 961  A 1.5 1.5 0 0 1 597 962.5 L 589 962.5  A 1.5 1.5 0 0 1 587.5 961 L 587.5 953  Z " stroke-width="1" stroke="#7f7f7f" fill="none" />
</svg>