<?xml version="1.0" encoding="utf-8"?>
<svg version="1.1" xmlns:xlink="http://www.w3.org/1999/xlink" width="12px" height="12px" viewBox="1108 405  12 12" xmlns="http://www.w3.org/2000/svg">
  <path d="M 1108.5 407  A 1.5 1.5 0 0 1 1110 405.5 L 1118 405.5  A 1.5 1.5 0 0 1 1119.5 407 L 1119.5 415  A 1.5 1.5 0 0 1 1118 416.5 L 1110 416.5  A 1.5 1.5 0 0 1 1108.5 415 L 1108.5 407  Z " fill-rule="nonzero" fill="#f0f0f0" stroke="none" />
  <path d="M 1108.5 407  A 1.5 1.5 0 0 1 1110 405.5 L 1118 405.5  A 1.5 1.5 0 0 1 1119.5 407 L 1119.5 415  A 1.5 1.5 0 0 1 1118 416.5 L 1110 416.5  A 1.5 1.5 0 0 1 1108.5 415 L 1108.5 407  Z " stroke-width="1" stroke="#7f7f7f" fill="none" />
</svg>