<?xml version="1.0" encoding="utf-8"?>
<svg version="1.1" xmlns:xlink="http://www.w3.org/1999/xlink" width="12px" height="12px" viewBox="827 558  12 12" xmlns="http://www.w3.org/2000/svg">
  <path d="M 827.5 560  A 1.5 1.5 0 0 1 829 558.5 L 837 558.5  A 1.5 1.5 0 0 1 838.5 560 L 838.5 568  A 1.5 1.5 0 0 1 837 569.5 L 829 569.5  A 1.5 1.5 0 0 1 827.5 568 L 827.5 560  Z " fill-rule="nonzero" fill="#ffffff" stroke="none" />
  <path d="M 827.5 560  A 1.5 1.5 0 0 1 829 558.5 L 837 558.5  A 1.5 1.5 0 0 1 838.5 560 L 838.5 568  A 1.5 1.5 0 0 1 837 569.5 L 829 569.5  A 1.5 1.5 0 0 1 827.5 568 L 827.5 560  Z " stroke-width="1" stroke="#7f7f7f" fill="none" />
  <path d="M 829.571428571429 564  L 832.142857142857 566.571428571429  " stroke-width="2.57142857142857" stroke="#7f7f7f" fill="none" />
  <path d="M 832.142857142857 566.571428571429  L 836.428571428571 560.571428571429  " stroke-width="2.57142857142857" stroke="#7f7f7f" fill="none" />
</svg>