<?xml version="1.0" encoding="utf-8"?>
<svg version="1.1" xmlns:xlink="http://www.w3.org/1999/xlink" width="12px" height="12px" viewBox="708 506  12 12" xmlns="http://www.w3.org/2000/svg">
  <path d="M 708.5 508  A 1.5 1.5 0 0 1 710 506.5 L 718 506.5  A 1.5 1.5 0 0 1 719.5 508 L 719.5 516  A 1.5 1.5 0 0 1 718 517.5 L 710 517.5  A 1.5 1.5 0 0 1 708.5 516 L 708.5 508  Z " fill-rule="nonzero" fill="#ffffff" stroke="none" />
  <path d="M 708.5 508  A 1.5 1.5 0 0 1 710 506.5 L 718 506.5  A 1.5 1.5 0 0 1 719.5 508 L 719.5 516  A 1.5 1.5 0 0 1 718 517.5 L 710 517.5  A 1.5 1.5 0 0 1 708.5 516 L 708.5 508  Z " stroke-width="1" stroke="#7f7f7f" fill="none" />
  <path d="M 710.571428571429 512  L 713.142857142857 514.571428571429  " stroke-width="2.57142857142857" stroke="#7f7f7f" fill="none" />
  <path d="M 713.142857142857 514.571428571429  L 717.428571428571 508.571428571429  " stroke-width="2.57142857142857" stroke="#7f7f7f" fill="none" />
</svg>