<?xml version="1.0" encoding="utf-8"?>
<svg version="1.1" xmlns:xlink="http://www.w3.org/1999/xlink" width="12px" height="12px" viewBox="2089 954  12 12" xmlns="http://www.w3.org/2000/svg">
  <path d="M 2089.5 956  A 1.5 1.5 0 0 1 2091 954.5 L 2099 954.5  A 1.5 1.5 0 0 1 2100.5 956 L 2100.5 964  A 1.5 1.5 0 0 1 2099 965.5 L 2091 965.5  A 1.5 1.5 0 0 1 2089.5 964 L 2089.5 956  Z " fill-rule="nonzero" fill="#f0f0f0" stroke="none" />
  <path d="M 2089.5 956  A 1.5 1.5 0 0 1 2091 954.5 L 2099 954.5  A 1.5 1.5 0 0 1 2100.5 956 L 2100.5 964  A 1.5 1.5 0 0 1 2099 965.5 L 2091 965.5  A 1.5 1.5 0 0 1 2089.5 964 L 2089.5 956  Z " stroke-width="1" stroke="#7f7f7f" fill="none" />
</svg>