<?xml version="1.0" encoding="utf-8"?>
<svg version="1.1" xmlns:xlink="http://www.w3.org/1999/xlink" width="12px" height="12px" viewBox="2479 459  12 12" xmlns="http://www.w3.org/2000/svg">
  <path d="M 2479.5 461  A 1.5 1.5 0 0 1 2481 459.5 L 2489 459.5  A 1.5 1.5 0 0 1 2490.5 461 L 2490.5 469  A 1.5 1.5 0 0 1 2489 470.5 L 2481 470.5  A 1.5 1.5 0 0 1 2479.5 469 L 2479.5 461  Z " fill-rule="nonzero" fill="#ffffff" stroke="none" />
  <path d="M 2479.5 461  A 1.5 1.5 0 0 1 2481 459.5 L 2489 459.5  A 1.5 1.5 0 0 1 2490.5 461 L 2490.5 469  A 1.5 1.5 0 0 1 2489 470.5 L 2481 470.5  A 1.5 1.5 0 0 1 2479.5 469 L 2479.5 461  Z " stroke-width="1" stroke="#7f7f7f" fill="none" />
</svg>