<?xml version="1.0" encoding="utf-8"?>
<svg version="1.1" xmlns:xlink="http://www.w3.org/1999/xlink" width="12px" height="12px" viewBox="2210 509  12 12" xmlns="http://www.w3.org/2000/svg">
  <path d="M 2210.5 511  A 1.5 1.5 0 0 1 2212 509.5 L 2220 509.5  A 1.5 1.5 0 0 1 2221.5 511 L 2221.5 519  A 1.5 1.5 0 0 1 2220 520.5 L 2212 520.5  A 1.5 1.5 0 0 1 2210.5 519 L 2210.5 511  Z " fill-rule="nonzero" fill="#ffffff" stroke="none" />
  <path d="M 2210.5 511  A 1.5 1.5 0 0 1 2212 509.5 L 2220 509.5  A 1.5 1.5 0 0 1 2221.5 511 L 2221.5 519  A 1.5 1.5 0 0 1 2220 520.5 L 2212 520.5  A 1.5 1.5 0 0 1 2210.5 519 L 2210.5 511  Z " stroke-width="1" stroke="#7f7f7f" fill="none" />
  <path d="M 2212.57142857143 515  L 2215.14285714286 517.571428571429  " stroke-width="2.57142857142857" stroke="#7f7f7f" fill="none" />
  <path d="M 2215.14285714286 517.571428571429  L 2219.42857142857 511.571428571429  " stroke-width="2.57142857142857" stroke="#7f7f7f" fill="none" />
</svg>