<?xml version="1.0" encoding="utf-8"?>
<svg version="1.1" xmlns:xlink="http://www.w3.org/1999/xlink" width="12px" height="12px" viewBox="2329 664  12 12" xmlns="http://www.w3.org/2000/svg">
  <path d="M 2329.5 666  A 1.5 1.5 0 0 1 2331 664.5 L 2339 664.5  A 1.5 1.5 0 0 1 2340.5 666 L 2340.5 674  A 1.5 1.5 0 0 1 2339 675.5 L 2331 675.5  A 1.5 1.5 0 0 1 2329.5 674 L 2329.5 666  Z " fill-rule="nonzero" fill="#f0f0f0" stroke="none" />
  <path d="M 2329.5 666  A 1.5 1.5 0 0 1 2331 664.5 L 2339 664.5  A 1.5 1.5 0 0 1 2340.5 666 L 2340.5 674  A 1.5 1.5 0 0 1 2339 675.5 L 2331 675.5  A 1.5 1.5 0 0 1 2329.5 674 L 2329.5 666  Z " stroke-width="1" stroke="#7f7f7f" fill="none" />
</svg>