<?xml version="1.0" encoding="utf-8"?>
<svg version="1.1" xmlns:xlink="http://www.w3.org/1999/xlink" width="12px" height="12px" viewBox="289 2364  12 12" xmlns="http://www.w3.org/2000/svg">
  <path d="M 289.5 2366  A 1.5 1.5 0 0 1 291 2364.5 L 299 2364.5  A 1.5 1.5 0 0 1 300.5 2366 L 300.5 2374  A 1.5 1.5 0 0 1 299 2375.5 L 291 2375.5  A 1.5 1.5 0 0 1 289.5 2374 L 289.5 2366  Z " fill-rule="nonzero" fill="#ffffff" stroke="none" />
  <path d="M 289.5 2366  A 1.5 1.5 0 0 1 291 2364.5 L 299 2364.5  A 1.5 1.5 0 0 1 300.5 2366 L 300.5 2374  A 1.5 1.5 0 0 1 299 2375.5 L 291 2375.5  A 1.5 1.5 0 0 1 289.5 2374 L 289.5 2366  Z " stroke-width="1" stroke="#7f7f7f" fill="none" />
</svg>