<?xml version="1.0" encoding="utf-8"?>
<svg version="1.1" xmlns:xlink="http://www.w3.org/1999/xlink" width="12px" height="12px" viewBox="580 2313  12 12" xmlns="http://www.w3.org/2000/svg">
  <path d="M 580.5 2315  A 1.5 1.5 0 0 1 582 2313.5 L 590 2313.5  A 1.5 1.5 0 0 1 591.5 2315 L 591.5 2323  A 1.5 1.5 0 0 1 590 2324.5 L 582 2324.5  A 1.5 1.5 0 0 1 580.5 2323 L 580.5 2315  Z " fill-rule="nonzero" fill="#f0f0f0" stroke="none" />
  <path d="M 580.5 2315  A 1.5 1.5 0 0 1 582 2313.5 L 590 2313.5  A 1.5 1.5 0 0 1 591.5 2315 L 591.5 2323  A 1.5 1.5 0 0 1 590 2324.5 L 582 2324.5  A 1.5 1.5 0 0 1 580.5 2323 L 580.5 2315  Z " stroke-width="1" stroke="#7f7f7f" fill="none" />
  <path d="M 582.571428571429 2319  L 585.142857142857 2321.57142857143  " stroke-width="2.57142857142857" stroke="#7f7f7f" fill="none" />
  <path d="M 585.142857142857 2321.57142857143  L 589.428571428571 2315.57142857143  " stroke-width="2.57142857142857" stroke="#7f7f7f" fill="none" />
</svg>