<?xml version="1.0" encoding="utf-8"?>
<svg version="1.1" xmlns:xlink="http://www.w3.org/1999/xlink" width="12px" height="12px" viewBox="171 2264  12 12" xmlns="http://www.w3.org/2000/svg">
  <path d="M 171.5 2266  A 1.5 1.5 0 0 1 173 2264.5 L 181 2264.5  A 1.5 1.5 0 0 1 182.5 2266 L 182.5 2274  A 1.5 1.5 0 0 1 181 2275.5 L 173 2275.5  A 1.5 1.5 0 0 1 171.5 2274 L 171.5 2266  Z " fill-rule="nonzero" fill="#f0f0f0" stroke="none" />
  <path d="M 171.5 2266  A 1.5 1.5 0 0 1 173 2264.5 L 181 2264.5  A 1.5 1.5 0 0 1 182.5 2266 L 182.5 2274  A 1.5 1.5 0 0 1 181 2275.5 L 173 2275.5  A 1.5 1.5 0 0 1 171.5 2274 L 171.5 2266  Z " stroke-width="1" stroke="#7f7f7f" fill="none" />
</svg>