<?xml version="1.0" encoding="utf-8"?>
<svg version="1.1" xmlns:xlink="http://www.w3.org/1999/xlink" width="12px" height="12px" viewBox="505 2516  12 12" xmlns="http://www.w3.org/2000/svg">
  <path d="M 505.5 2518  A 1.5 1.5 0 0 1 507 2516.5 L 515 2516.5  A 1.5 1.5 0 0 1 516.5 2518 L 516.5 2526  A 1.5 1.5 0 0 1 515 2527.5 L 507 2527.5  A 1.5 1.5 0 0 1 505.5 2526 L 505.5 2518  Z " fill-rule="nonzero" fill="#f0f0f0" stroke="none" />
  <path d="M 505.5 2518  A 1.5 1.5 0 0 1 507 2516.5 L 515 2516.5  A 1.5 1.5 0 0 1 516.5 2518 L 516.5 2526  A 1.5 1.5 0 0 1 515 2527.5 L 507 2527.5  A 1.5 1.5 0 0 1 505.5 2526 L 505.5 2518  Z " stroke-width="1" stroke="#7f7f7f" fill="none" />
</svg>