<?xml version="1.0" encoding="utf-8"?>
<svg version="1.1" xmlns:xlink="http://www.w3.org/1999/xlink" width="12px" height="12px" viewBox="587 507  12 12" xmlns="http://www.w3.org/2000/svg">
  <path d="M 587.5 509  A 1.5 1.5 0 0 1 589 507.5 L 597 507.5  A 1.5 1.5 0 0 1 598.5 509 L 598.5 517  A 1.5 1.5 0 0 1 597 518.5 L 589 518.5  A 1.5 1.5 0 0 1 587.5 517 L 587.5 509  Z " fill-rule="nonzero" fill="#f0f0f0" stroke="none" />
  <path d="M 587.5 509  A 1.5 1.5 0 0 1 589 507.5 L 597 507.5  A 1.5 1.5 0 0 1 598.5 509 L 598.5 517  A 1.5 1.5 0 0 1 597 518.5 L 589 518.5  A 1.5 1.5 0 0 1 587.5 517 L 587.5 509  Z " stroke-width="1" stroke="#7f7f7f" fill="none" />
  <path d="M 589.571428571429 513  L 592.142857142857 515.571428571429  " stroke-width="2.57142857142857" stroke="#7f7f7f" fill="none" />
  <path d="M 592.142857142857 515.571428571429  L 596.428571428571 509.571428571429  " stroke-width="2.57142857142857" stroke="#7f7f7f" fill="none" />
</svg>