<?xml version="1.0" encoding="utf-8"?>
<svg version="1.1" xmlns:xlink="http://www.w3.org/1999/xlink" width="12px" height="12px" viewBox="708 356  12 12" xmlns="http://www.w3.org/2000/svg">
  <path d="M 708.5 358  A 1.5 1.5 0 0 1 710 356.5 L 718 356.5  A 1.5 1.5 0 0 1 719.5 358 L 719.5 366  A 1.5 1.5 0 0 1 718 367.5 L 710 367.5  A 1.5 1.5 0 0 1 708.5 366 L 708.5 358  Z " fill-rule="nonzero" fill="#ffffff" stroke="none" />
  <path d="M 708.5 358  A 1.5 1.5 0 0 1 710 356.5 L 718 356.5  A 1.5 1.5 0 0 1 719.5 358 L 719.5 366  A 1.5 1.5 0 0 1 718 367.5 L 710 367.5  A 1.5 1.5 0 0 1 708.5 366 L 708.5 358  Z " stroke-width="1" stroke="#7f7f7f" fill="none" />
</svg>