<?xml version="1.0" encoding="utf-8"?>
<svg version="1.1" xmlns:xlink="http://www.w3.org/1999/xlink" width="12px" height="12px" viewBox="289 2727  12 12" xmlns="http://www.w3.org/2000/svg">
  <path d="M 289.5 2729  A 1.5 1.5 0 0 1 291 2727.5 L 299 2727.5  A 1.5 1.5 0 0 1 300.5 2729 L 300.5 2737  A 1.5 1.5 0 0 1 299 2738.5 L 291 2738.5  A 1.5 1.5 0 0 1 289.5 2737 L 289.5 2729  Z " fill-rule="nonzero" fill="#ffffff" stroke="none" />
  <path d="M 289.5 2729  A 1.5 1.5 0 0 1 291 2727.5 L 299 2727.5  A 1.5 1.5 0 0 1 300.5 2729 L 300.5 2737  A 1.5 1.5 0 0 1 299 2738.5 L 291 2738.5  A 1.5 1.5 0 0 1 289.5 2737 L 289.5 2729  Z " stroke-width="1" stroke="#7f7f7f" fill="none" />
  <path d="M 291.571428571429 2733  L 294.142857142857 2735.57142857143  " stroke-width="2.57142857142857" stroke="#7f7f7f" fill="none" />
  <path d="M 294.142857142857 2735.57142857143  L 298.428571428571 2729.57142857143  " stroke-width="2.57142857142857" stroke="#7f7f7f" fill="none" />
</svg>