<?xml version="1.0" encoding="utf-8"?>
<svg version="1.1" xmlns:xlink="http://www.w3.org/1999/xlink" width="12px" height="12px" viewBox="469 279  12 12" xmlns="http://www.w3.org/2000/svg">
  <path d="M 469.5 281  A 1.5 1.5 0 0 1 471 279.5 L 479 279.5  A 1.5 1.5 0 0 1 480.5 281 L 480.5 289  A 1.5 1.5 0 0 1 479 290.5 L 471 290.5  A 1.5 1.5 0 0 1 469.5 289 L 469.5 281  Z " fill-rule="nonzero" fill="#ffffff" stroke="none" />
  <path d="M 469.5 281  A 1.5 1.5 0 0 1 471 279.5 L 479 279.5  A 1.5 1.5 0 0 1 480.5 281 L 480.5 289  A 1.5 1.5 0 0 1 479 290.5 L 471 290.5  A 1.5 1.5 0 0 1 469.5 289 L 469.5 281  Z " stroke-width="1" stroke="#7f7f7f" fill="none" />
</svg>