<?xml version="1.0" encoding="utf-8"?>
<svg version="1.1" xmlns:xlink="http://www.w3.org/1999/xlink" width="12px" height="12px" viewBox="469 356  12 12" xmlns="http://www.w3.org/2000/svg">
  <path d="M 469.5 358  A 1.5 1.5 0 0 1 471 356.5 L 479 356.5  A 1.5 1.5 0 0 1 480.5 358 L 480.5 366  A 1.5 1.5 0 0 1 479 367.5 L 471 367.5  A 1.5 1.5 0 0 1 469.5 366 L 469.5 358  Z " fill-rule="nonzero" fill="#ffffff" stroke="none" />
  <path d="M 469.5 358  A 1.5 1.5 0 0 1 471 356.5 L 479 356.5  A 1.5 1.5 0 0 1 480.5 358 L 480.5 366  A 1.5 1.5 0 0 1 479 367.5 L 471 367.5  A 1.5 1.5 0 0 1 469.5 366 L 469.5 358  Z " stroke-width="1" stroke="#7f7f7f" fill="none" />
  <path d="M 471.571428571429 362  L 474.142857142857 364.571428571429  " stroke-width="2.57142857142857" stroke="#7f7f7f" fill="none" />
  <path d="M 474.142857142857 364.571428571429  L 478.428571428571 358.571428571429  " stroke-width="2.57142857142857" stroke="#7f7f7f" fill="none" />
</svg>