<?xml version="1.0" encoding="utf-8"?>
<svg version="1.1" xmlns:xlink="http://www.w3.org/1999/xlink" width="12px" height="12px" viewBox="587 406  12 12" xmlns="http://www.w3.org/2000/svg">
  <path d="M 587.5 408  A 1.5 1.5 0 0 1 589 406.5 L 597 406.5  A 1.5 1.5 0 0 1 598.5 408 L 598.5 416  A 1.5 1.5 0 0 1 597 417.5 L 589 417.5  A 1.5 1.5 0 0 1 587.5 416 L 587.5 408  Z " fill-rule="nonzero" fill="#ffffff" stroke="none" />
  <path d="M 587.5 408  A 1.5 1.5 0 0 1 589 406.5 L 597 406.5  A 1.5 1.5 0 0 1 598.5 408 L 598.5 416  A 1.5 1.5 0 0 1 597 417.5 L 589 417.5  A 1.5 1.5 0 0 1 587.5 416 L 587.5 408  Z " stroke-width="1" stroke="#7f7f7f" fill="none" />
  <path d="M 589.571428571429 412  L 592.142857142857 414.571428571429  " stroke-width="2.57142857142857" stroke="#7f7f7f" fill="none" />
  <path d="M 592.142857142857 414.571428571429  L 596.428571428571 408.571428571429  " stroke-width="2.57142857142857" stroke="#7f7f7f" fill="none" />
</svg>