<?xml version="1.0" encoding="utf-8"?>
<svg version="1.1" xmlns:xlink="http://www.w3.org/1999/xlink" width="12px" height="12px" viewBox="171 2190  12 12" xmlns="http://www.w3.org/2000/svg">
  <path d="M 171.5 2192  A 1.5 1.5 0 0 1 173 2190.5 L 181 2190.5  A 1.5 1.5 0 0 1 182.5 2192 L 182.5 2200  A 1.5 1.5 0 0 1 181 2201.5 L 173 2201.5  A 1.5 1.5 0 0 1 171.5 2200 L 171.5 2192  Z " fill-rule="nonzero" fill="#ffffff" stroke="none" />
  <path d="M 171.5 2192  A 1.5 1.5 0 0 1 173 2190.5 L 181 2190.5  A 1.5 1.5 0 0 1 182.5 2192 L 182.5 2200  A 1.5 1.5 0 0 1 181 2201.5 L 173 2201.5  A 1.5 1.5 0 0 1 171.5 2200 L 171.5 2192  Z " stroke-width="1" stroke="#7f7f7f" fill="none" />
  <path d="M 173.571428571429 2196  L 176.142857142857 2198.57142857143  " stroke-width="2.57142857142857" stroke="#7f7f7f" fill="none" />
  <path d="M 176.142857142857 2198.57142857143  L 180.428571428571 2192.57142857143  " stroke-width="2.57142857142857" stroke="#7f7f7f" fill="none" />
</svg>