<?xml version="1.0" encoding="utf-8"?>
<svg version="1.1" xmlns:xlink="http://www.w3.org/1999/xlink" width="12px" height="12px" viewBox="410 2559  12 12" xmlns="http://www.w3.org/2000/svg">
  <path d="M 410.5 2561  A 1.5 1.5 0 0 1 412 2559.5 L 420 2559.5  A 1.5 1.5 0 0 1 421.5 2561 L 421.5 2569  A 1.5 1.5 0 0 1 420 2570.5 L 412 2570.5  A 1.5 1.5 0 0 1 410.5 2569 L 410.5 2561  Z " fill-rule="nonzero" fill="#f0f0f0" stroke="none" />
  <path d="M 410.5 2561  A 1.5 1.5 0 0 1 412 2559.5 L 420 2559.5  A 1.5 1.5 0 0 1 421.5 2561 L 421.5 2569  A 1.5 1.5 0 0 1 420 2570.5 L 412 2570.5  A 1.5 1.5 0 0 1 410.5 2569 L 410.5 2561  Z " stroke-width="1" stroke="#7f7f7f" fill="none" />
  <path d="M 412.571428571429 2565  L 415.142857142857 2567.57142857143  " stroke-width="2.57142857142857" stroke="#7f7f7f" fill="none" />
  <path d="M 415.142857142857 2567.57142857143  L 419.428571428571 2561.57142857143  " stroke-width="2.57142857142857" stroke="#7f7f7f" fill="none" />
</svg>