<?xml version="1.0" encoding="utf-8"?>
<svg version="1.1" xmlns:xlink="http://www.w3.org/1999/xlink" width="12px" height="12px" viewBox="827 456  12 12" xmlns="http://www.w3.org/2000/svg">
  <path d="M 827.5 458  A 1.5 1.5 0 0 1 829 456.5 L 837 456.5  A 1.5 1.5 0 0 1 838.5 458 L 838.5 466  A 1.5 1.5 0 0 1 837 467.5 L 829 467.5  A 1.5 1.5 0 0 1 827.5 466 L 827.5 458  Z " fill-rule="nonzero" fill="#ffffff" stroke="none" />
  <path d="M 827.5 458  A 1.5 1.5 0 0 1 829 456.5 L 837 456.5  A 1.5 1.5 0 0 1 838.5 458 L 838.5 466  A 1.5 1.5 0 0 1 837 467.5 L 829 467.5  A 1.5 1.5 0 0 1 827.5 466 L 827.5 458  Z " stroke-width="1" stroke="#7f7f7f" fill="none" />
</svg>