<?xml version="1.0" encoding="utf-8"?>
<svg version="1.1" xmlns:xlink="http://www.w3.org/1999/xlink" width="12px" height="12px" viewBox="827 405  12 12" xmlns="http://www.w3.org/2000/svg">
  <path d="M 827.5 407  A 1.5 1.5 0 0 1 829 405.5 L 837 405.5  A 1.5 1.5 0 0 1 838.5 407 L 838.5 415  A 1.5 1.5 0 0 1 837 416.5 L 829 416.5  A 1.5 1.5 0 0 1 827.5 415 L 827.5 407  Z " fill-rule="nonzero" fill="#f0f0f0" stroke="none" />
  <path d="M 827.5 407  A 1.5 1.5 0 0 1 829 405.5 L 837 405.5  A 1.5 1.5 0 0 1 838.5 407 L 838.5 415  A 1.5 1.5 0 0 1 837 416.5 L 829 416.5  A 1.5 1.5 0 0 1 827.5 415 L 827.5 407  Z " stroke-width="1" stroke="#7f7f7f" fill="none" />
  <path d="M 829.571428571429 411  L 832.142857142857 413.571428571429  " stroke-width="2.57142857142857" stroke="#7f7f7f" fill="none" />
  <path d="M 832.142857142857 413.571428571429  L 836.428571428571 407.571428571429  " stroke-width="2.57142857142857" stroke="#7f7f7f" fill="none" />
</svg>