<?xml version="1.0" encoding="utf-8"?>
<svg version="1.1" xmlns:xlink="http://www.w3.org/1999/xlink" width="12px" height="12px" viewBox="410 2313  12 12" xmlns="http://www.w3.org/2000/svg">
  <path d="M 410.5 2315  A 1.5 1.5 0 0 1 412 2313.5 L 420 2313.5  A 1.5 1.5 0 0 1 421.5 2315 L 421.5 2323  A 1.5 1.5 0 0 1 420 2324.5 L 412 2324.5  A 1.5 1.5 0 0 1 410.5 2323 L 410.5 2315  Z " fill-rule="nonzero" fill="#ffffff" stroke="none" />
  <path d="M 410.5 2315  A 1.5 1.5 0 0 1 412 2313.5 L 420 2313.5  A 1.5 1.5 0 0 1 421.5 2315 L 421.5 2323  A 1.5 1.5 0 0 1 420 2324.5 L 412 2324.5  A 1.5 1.5 0 0 1 410.5 2323 L 410.5 2315  Z " stroke-width="1" stroke="#7f7f7f" fill="none" />
</svg>