<?xml version="1.0" encoding="utf-8"?>
<svg version="1.1" xmlns:xlink="http://www.w3.org/1999/xlink" width="12px" height="12px" viewBox="608 2364  12 12" xmlns="http://www.w3.org/2000/svg">
  <path d="M 608.5 2366  A 1.5 1.5 0 0 1 610 2364.5 L 618 2364.5  A 1.5 1.5 0 0 1 619.5 2366 L 619.5 2374  A 1.5 1.5 0 0 1 618 2375.5 L 610 2375.5  A 1.5 1.5 0 0 1 608.5 2374 L 608.5 2366  Z " fill-rule="nonzero" fill="#ffffff" stroke="none" />
  <path d="M 608.5 2366  A 1.5 1.5 0 0 1 610 2364.5 L 618 2364.5  A 1.5 1.5 0 0 1 619.5 2366 L 619.5 2374  A 1.5 1.5 0 0 1 618 2375.5 L 610 2375.5  A 1.5 1.5 0 0 1 608.5 2374 L 608.5 2366  Z " stroke-width="1" stroke="#7f7f7f" fill="none" />
</svg>