<?xml version="1.0" encoding="utf-8"?>
<svg version="1.1" xmlns:xlink="http://www.w3.org/1999/xlink" width="12px" height="12px" viewBox="587 907  12 12" xmlns="http://www.w3.org/2000/svg">
  <path d="M 587.5 909  A 1.5 1.5 0 0 1 589 907.5 L 597 907.5  A 1.5 1.5 0 0 1 598.5 909 L 598.5 917  A 1.5 1.5 0 0 1 597 918.5 L 589 918.5  A 1.5 1.5 0 0 1 587.5 917 L 587.5 909  Z " fill-rule="nonzero" fill="#f0f0f0" stroke="none" />
  <path d="M 587.5 909  A 1.5 1.5 0 0 1 589 907.5 L 597 907.5  A 1.5 1.5 0 0 1 598.5 909 L 598.5 917  A 1.5 1.5 0 0 1 597 918.5 L 589 918.5  A 1.5 1.5 0 0 1 587.5 917 L 587.5 909  Z " stroke-width="1" stroke="#7f7f7f" fill="none" />
</svg>