<?xml version="1.0" encoding="utf-8"?>
<svg version="1.1" xmlns:xlink="http://www.w3.org/1999/xlink" width="12px" height="12px" viewBox="606 2559  12 12" xmlns="http://www.w3.org/2000/svg">
  <path d="M 606.5 2561  A 1.5 1.5 0 0 1 608 2559.5 L 616 2559.5  A 1.5 1.5 0 0 1 617.5 2561 L 617.5 2569  A 1.5 1.5 0 0 1 616 2570.5 L 608 2570.5  A 1.5 1.5 0 0 1 606.5 2569 L 606.5 2561  Z " fill-rule="nonzero" fill="#ffffff" stroke="none" />
  <path d="M 606.5 2561  A 1.5 1.5 0 0 1 608 2559.5 L 616 2559.5  A 1.5 1.5 0 0 1 617.5 2561 L 617.5 2569  A 1.5 1.5 0 0 1 616 2570.5 L 608 2570.5  A 1.5 1.5 0 0 1 606.5 2569 L 606.5 2561  Z " stroke-width="1" stroke="#7f7f7f" fill="none" />
</svg>