<?xml version="1.0" encoding="utf-8"?>
<svg version="1.1" xmlns:xlink="http://www.w3.org/1999/xlink" width="12px" height="12px" viewBox="587 907  12 12" xmlns="http://www.w3.org/2000/svg">
  <path d="M 587.5 909  A 1.5 1.5 0 0 1 589 907.5 L 597 907.5  A 1.5 1.5 0 0 1 598.5 909 L 598.5 917  A 1.5 1.5 0 0 1 597 918.5 L 589 918.5  A 1.5 1.5 0 0 1 587.5 917 L 587.5 909  Z " fill-rule="nonzero" fill="#ffffff" stroke="none" />
  <path d="M 587.5 909  A 1.5 1.5 0 0 1 589 907.5 L 597 907.5  A 1.5 1.5 0 0 1 598.5 909 L 598.5 917  A 1.5 1.5 0 0 1 597 918.5 L 589 918.5  A 1.5 1.5 0 0 1 587.5 917 L 587.5 909  Z " stroke-width="1" stroke="#7f7f7f" fill="none" />
  <path d="M 589.571428571429 913  L 592.142857142857 915.571428571429  " stroke-width="2.57142857142857" stroke="#7f7f7f" fill="none" />
  <path d="M 592.142857142857 915.571428571429  L 596.428571428571 909.571428571429  " stroke-width="2.57142857142857" stroke="#7f7f7f" fill="none" />
</svg>