<?xml version="1.0" encoding="utf-8"?>
<svg version="1.1" xmlns:xlink="http://www.w3.org/1999/xlink" width="12px" height="12px" viewBox="2329 359  12 12" xmlns="http://www.w3.org/2000/svg">
  <path d="M 2329.5 361  A 1.5 1.5 0 0 1 2331 359.5 L 2339 359.5  A 1.5 1.5 0 0 1 2340.5 361 L 2340.5 369  A 1.5 1.5 0 0 1 2339 370.5 L 2331 370.5  A 1.5 1.5 0 0 1 2329.5 369 L 2329.5 361  Z " fill-rule="nonzero" fill="#f0f0f0" stroke="none" />
  <path d="M 2329.5 361  A 1.5 1.5 0 0 1 2331 359.5 L 2339 359.5  A 1.5 1.5 0 0 1 2340.5 361 L 2340.5 369  A 1.5 1.5 0 0 1 2339 370.5 L 2331 370.5  A 1.5 1.5 0 0 1 2329.5 369 L 2329.5 361  Z " stroke-width="1" stroke="#7f7f7f" fill="none" />
  <path d="M 2331.57142857143 365  L 2334.14285714286 367.571428571429  " stroke-width="2.57142857142857" stroke="#7f7f7f" fill="none" />
  <path d="M 2334.14285714286 367.571428571429  L 2338.42857142857 361.571428571429  " stroke-width="2.57142857142857" stroke="#7f7f7f" fill="none" />
</svg>