<?xml version="1.0" encoding="utf-8"?>
<svg version="1.1" xmlns:xlink="http://www.w3.org/1999/xlink" width="12px" height="12px" viewBox="2089 409  12 12" xmlns="http://www.w3.org/2000/svg">
  <path d="M 2089.5 411  A 1.5 1.5 0 0 1 2091 409.5 L 2099 409.5  A 1.5 1.5 0 0 1 2100.5 411 L 2100.5 419  A 1.5 1.5 0 0 1 2099 420.5 L 2091 420.5  A 1.5 1.5 0 0 1 2089.5 419 L 2089.5 411  Z " fill-rule="nonzero" fill="#f0f0f0" stroke="none" />
  <path d="M 2089.5 411  A 1.5 1.5 0 0 1 2091 409.5 L 2099 409.5  A 1.5 1.5 0 0 1 2100.5 411 L 2100.5 419  A 1.5 1.5 0 0 1 2099 420.5 L 2091 420.5  A 1.5 1.5 0 0 1 2089.5 419 L 2089.5 411  Z " stroke-width="1" stroke="#7f7f7f" fill="none" />
  <path d="M 2091.57142857143 415  L 2094.14285714286 417.571428571429  " stroke-width="2.57142857142857" stroke="#7f7f7f" fill="none" />
  <path d="M 2094.14285714286 417.571428571429  L 2098.42857142857 411.571428571429  " stroke-width="2.57142857142857" stroke="#7f7f7f" fill="none" />
</svg>