<?xml version="1.0" encoding="utf-8"?>
<svg version="1.1" xmlns:xlink="http://www.w3.org/1999/xlink" width="12px" height="12px" viewBox="2479 359  12 12" xmlns="http://www.w3.org/2000/svg">
  <path d="M 2479.5 361  A 1.5 1.5 0 0 1 2481 359.5 L 2489 359.5  A 1.5 1.5 0 0 1 2490.5 361 L 2490.5 369  A 1.5 1.5 0 0 1 2489 370.5 L 2481 370.5  A 1.5 1.5 0 0 1 2479.5 369 L 2479.5 361  Z " fill-rule="nonzero" fill="#ffffff" stroke="none" />
  <path d="M 2479.5 361  A 1.5 1.5 0 0 1 2481 359.5 L 2489 359.5  A 1.5 1.5 0 0 1 2490.5 361 L 2490.5 369  A 1.5 1.5 0 0 1 2489 370.5 L 2481 370.5  A 1.5 1.5 0 0 1 2479.5 369 L 2479.5 361  Z " stroke-width="1" stroke="#7f7f7f" fill="none" />
  <path d="M 2481.57142857143 365  L 2484.14285714286 367.571428571429  " stroke-width="2.57142857142857" stroke="#7f7f7f" fill="none" />
  <path d="M 2484.14285714286 367.571428571429  L 2488.42857142857 361.571428571429  " stroke-width="2.57142857142857" stroke="#7f7f7f" fill="none" />
</svg>