<?xml version="1.0" encoding="utf-8"?>
<svg version="1.1" xmlns:xlink="http://www.w3.org/1999/xlink" width="12px" height="12px" viewBox="587 863  12 12" xmlns="http://www.w3.org/2000/svg">
  <path d="M 587.5 865  A 1.5 1.5 0 0 1 589 863.5 L 597 863.5  A 1.5 1.5 0 0 1 598.5 865 L 598.5 873  A 1.5 1.5 0 0 1 597 874.5 L 589 874.5  A 1.5 1.5 0 0 1 587.5 873 L 587.5 865  Z " fill-rule="nonzero" fill="#ffffff" stroke="none" />
  <path d="M 587.5 865  A 1.5 1.5 0 0 1 589 863.5 L 597 863.5  A 1.5 1.5 0 0 1 598.5 865 L 598.5 873  A 1.5 1.5 0 0 1 597 874.5 L 589 874.5  A 1.5 1.5 0 0 1 587.5 873 L 587.5 865  Z " stroke-width="1" stroke="#7f7f7f" fill="none" />
</svg>