<?xml version="1.0" encoding="utf-8"?>
<svg version="1.1" xmlns:xlink="http://www.w3.org/1999/xlink" width="12px" height="12px" viewBox="1971 560  12 12" xmlns="http://www.w3.org/2000/svg">
  <path d="M 1971.5 562  A 1.5 1.5 0 0 1 1973 560.5 L 1981 560.5  A 1.5 1.5 0 0 1 1982.5 562 L 1982.5 570  A 1.5 1.5 0 0 1 1981 571.5 L 1973 571.5  A 1.5 1.5 0 0 1 1971.5 570 L 1971.5 562  Z " fill-rule="nonzero" fill="#f0f0f0" stroke="none" />
  <path d="M 1971.5 562  A 1.5 1.5 0 0 1 1973 560.5 L 1981 560.5  A 1.5 1.5 0 0 1 1982.5 562 L 1982.5 570  A 1.5 1.5 0 0 1 1981 571.5 L 1973 571.5  A 1.5 1.5 0 0 1 1971.5 570 L 1971.5 562  Z " stroke-width="1" stroke="#7f7f7f" fill="none" />
</svg>