<?xml version="1.0" encoding="utf-8"?>
<svg version="1.1" xmlns:xlink="http://www.w3.org/1999/xlink" width="12px" height="12px" viewBox="2210 561  12 12" xmlns="http://www.w3.org/2000/svg">
  <path d="M 2210.5 563  A 1.5 1.5 0 0 1 2212 561.5 L 2220 561.5  A 1.5 1.5 0 0 1 2221.5 563 L 2221.5 571  A 1.5 1.5 0 0 1 2220 572.5 L 2212 572.5  A 1.5 1.5 0 0 1 2210.5 571 L 2210.5 563  Z " fill-rule="nonzero" fill="#f0f0f0" stroke="none" />
  <path d="M 2210.5 563  A 1.5 1.5 0 0 1 2212 561.5 L 2220 561.5  A 1.5 1.5 0 0 1 2221.5 563 L 2221.5 571  A 1.5 1.5 0 0 1 2220 572.5 L 2212 572.5  A 1.5 1.5 0 0 1 2210.5 571 L 2210.5 563  Z " stroke-width="1" stroke="#7f7f7f" fill="none" />
  <path d="M 2212.57142857143 567  L 2215.14285714286 569.571428571429  " stroke-width="2.57142857142857" stroke="#7f7f7f" fill="none" />
  <path d="M 2215.14285714286 569.571428571429  L 2219.42857142857 563.571428571429  " stroke-width="2.57142857142857" stroke="#7f7f7f" fill="none" />
</svg>