<?xml version="1.0" encoding="utf-8"?>
<svg version="1.1" xmlns:xlink="http://www.w3.org/1999/xlink" width="12px" height="12px" viewBox="708 558  12 12" xmlns="http://www.w3.org/2000/svg">
  <path d="M 708.5 560  A 1.5 1.5 0 0 1 710 558.5 L 718 558.5  A 1.5 1.5 0 0 1 719.5 560 L 719.5 568  A 1.5 1.5 0 0 1 718 569.5 L 710 569.5  A 1.5 1.5 0 0 1 708.5 568 L 708.5 560  Z " fill-rule="nonzero" fill="#ffffff" stroke="none" />
  <path d="M 708.5 560  A 1.5 1.5 0 0 1 710 558.5 L 718 558.5  A 1.5 1.5 0 0 1 719.5 560 L 719.5 568  A 1.5 1.5 0 0 1 718 569.5 L 710 569.5  A 1.5 1.5 0 0 1 708.5 568 L 708.5 560  Z " stroke-width="1" stroke="#7f7f7f" fill="none" />
</svg>