<?xml version="1.0" encoding="utf-8"?>
<svg version="1.1" xmlns:xlink="http://www.w3.org/1999/xlink" width="12px" height="12px" viewBox="2091 663  12 12" xmlns="http://www.w3.org/2000/svg">
  <path d="M 2091.5 665  A 1.5 1.5 0 0 1 2093 663.5 L 2101 663.5  A 1.5 1.5 0 0 1 2102.5 665 L 2102.5 673  A 1.5 1.5 0 0 1 2101 674.5 L 2093 674.5  A 1.5 1.5 0 0 1 2091.5 673 L 2091.5 665  Z " fill-rule="nonzero" fill="#ffffff" stroke="none" />
  <path d="M 2091.5 665  A 1.5 1.5 0 0 1 2093 663.5 L 2101 663.5  A 1.5 1.5 0 0 1 2102.5 665 L 2102.5 673  A 1.5 1.5 0 0 1 2101 674.5 L 2093 674.5  A 1.5 1.5 0 0 1 2091.5 673 L 2091.5 665  Z " stroke-width="1" stroke="#7f7f7f" fill="none" />
  <path d="M 2093.57142857143 669  L 2096.14285714286 671.571428571429  " stroke-width="2.57142857142857" stroke="#7f7f7f" fill="none" />
  <path d="M 2096.14285714286 671.571428571429  L 2100.42857142857 665.571428571429  " stroke-width="2.57142857142857" stroke="#7f7f7f" fill="none" />
</svg>