<?xml version="1.0" encoding="utf-8"?>
<svg version="1.1" xmlns:xlink="http://www.w3.org/1999/xlink" width="12px" height="12px" viewBox="2210 664  12 12" xmlns="http://www.w3.org/2000/svg">
  <path d="M 2210.5 666  A 1.5 1.5 0 0 1 2212 664.5 L 2220 664.5  A 1.5 1.5 0 0 1 2221.5 666 L 2221.5 674  A 1.5 1.5 0 0 1 2220 675.5 L 2212 675.5  A 1.5 1.5 0 0 1 2210.5 674 L 2210.5 666  Z " fill-rule="nonzero" fill="#ffffff" stroke="none" />
  <path d="M 2210.5 666  A 1.5 1.5 0 0 1 2212 664.5 L 2220 664.5  A 1.5 1.5 0 0 1 2221.5 666 L 2221.5 674  A 1.5 1.5 0 0 1 2220 675.5 L 2212 675.5  A 1.5 1.5 0 0 1 2210.5 674 L 2210.5 666  Z " stroke-width="1" stroke="#7f7f7f" fill="none" />
</svg>