<?xml version="1.0" encoding="utf-8"?>
<svg version="1.1" xmlns:xlink="http://www.w3.org/1999/xlink" width="12px" height="12px" viewBox="2089 998  12 12" xmlns="http://www.w3.org/2000/svg">
  <path d="M 2089.5 1000  A 1.5 1.5 0 0 1 2091 998.5 L 2099 998.5  A 1.5 1.5 0 0 1 2100.5 1000 L 2100.5 1008  A 1.5 1.5 0 0 1 2099 1009.5 L 2091 1009.5  A 1.5 1.5 0 0 1 2089.5 1008 L 2089.5 1000  Z " fill-rule="nonzero" fill="#f0f0f0" stroke="none" />
  <path d="M 2089.5 1000  A 1.5 1.5 0 0 1 2091 998.5 L 2099 998.5  A 1.5 1.5 0 0 1 2100.5 1000 L 2100.5 1008  A 1.5 1.5 0 0 1 2099 1009.5 L 2091 1009.5  A 1.5 1.5 0 0 1 2089.5 1008 L 2089.5 1000  Z " stroke-width="1" stroke="#7f7f7f" fill="none" />
  <path d="M 2091.57142857143 1004  L 2094.14285714286 1006.57142857143  " stroke-width="2.57142857142857" stroke="#7f7f7f" fill="none" />
  <path d="M 2094.14285714286 1006.57142857143  L 2098.42857142857 1000.57142857143  " stroke-width="2.57142857142857" stroke="#7f7f7f" fill="none" />
</svg>