<?xml version="1.0" encoding="utf-8"?>
<svg version="1.1" xmlns:xlink="http://www.w3.org/1999/xlink" width="12px" height="12px" viewBox="589 559  12 12" xmlns="http://www.w3.org/2000/svg">
  <path d="M 589.5 561  A 1.5 1.5 0 0 1 591 559.5 L 599 559.5  A 1.5 1.5 0 0 1 600.5 561 L 600.5 569  A 1.5 1.5 0 0 1 599 570.5 L 591 570.5  A 1.5 1.5 0 0 1 589.5 569 L 589.5 561  Z " fill-rule="nonzero" fill="#f0f0f0" stroke="none" />
  <path d="M 589.5 561  A 1.5 1.5 0 0 1 591 559.5 L 599 559.5  A 1.5 1.5 0 0 1 600.5 561 L 600.5 569  A 1.5 1.5 0 0 1 599 570.5 L 591 570.5  A 1.5 1.5 0 0 1 589.5 569 L 589.5 561  Z " stroke-width="1" stroke="#7f7f7f" fill="none" />
  <path d="M 591.571428571429 565  L 594.142857142857 567.571428571429  " stroke-width="2.57142857142857" stroke="#7f7f7f" fill="none" />
  <path d="M 594.142857142857 567.571428571429  L 598.428571428571 561.571428571429  " stroke-width="2.57142857142857" stroke="#7f7f7f" fill="none" />
</svg>