<?xml version="1.0" encoding="utf-8"?>
<svg version="1.1" xmlns:xlink="http://www.w3.org/1999/xlink" width="12px" height="12px" viewBox="65 251  12 12" xmlns="http://www.w3.org/2000/svg">
  <path d="M 65.5 253  A 1.5 1.5 0 0 1 67 251.5 L 75 251.5  A 1.5 1.5 0 0 1 76.5 253 L 76.5 261  A 1.5 1.5 0 0 1 75 262.5 L 67 262.5  A 1.5 1.5 0 0 1 65.5 261 L 65.5 253  Z " fill-rule="nonzero" fill="#ffffff" stroke="none" />
  <path d="M 65.5 253  A 1.5 1.5 0 0 1 67 251.5 L 75 251.5  A 1.5 1.5 0 0 1 76.5 253 L 76.5 261  A 1.5 1.5 0 0 1 75 262.5 L 67 262.5  A 1.5 1.5 0 0 1 65.5 261 L 65.5 253  Z " stroke-width="1" stroke="#797979" fill="none" />
</svg>