<?xml version="1.0" encoding="utf-8"?>
<svg version="1.1" xmlns:xlink="http://www.w3.org/1999/xlink" width="12px" height="12px" viewBox="65 466  12 12" xmlns="http://www.w3.org/2000/svg">
  <path d="M 65.5 468  A 1.5 1.5 0 0 1 67 466.5 L 75 466.5  A 1.5 1.5 0 0 1 76.5 468 L 76.5 476  A 1.5 1.5 0 0 1 75 477.5 L 67 477.5  A 1.5 1.5 0 0 1 65.5 476 L 65.5 468  Z " fill-rule="nonzero" fill="#ffffff" stroke="none" />
  <path d="M 65.5 468  A 1.5 1.5 0 0 1 67 466.5 L 75 466.5  A 1.5 1.5 0 0 1 76.5 468 L 76.5 476  A 1.5 1.5 0 0 1 75 477.5 L 67 477.5  A 1.5 1.5 0 0 1 65.5 476 L 65.5 468  Z " stroke-width="1" stroke="#797979" fill="none" />
  <path d="M 67.5714285714286 472  L 70.1428571428571 474.571428571429  " stroke-width="2.57142857142857" stroke="#797979" fill="none" />
  <path d="M 70.1428571428571 474.571428571429  L 74.4285714285714 468.571428571429  " stroke-width="2.57142857142857" stroke="#797979" fill="none" />
</svg>