<?xml version="1.0" encoding="utf-8"?>
<svg version="1.1" xmlns:xlink="http://www.w3.org/1999/xlink" width="5px" height="8px" xmlns="http://www.w3.org/2000/svg">
  <g transform="matrix(1 0 0 1 -134 -178 )">
    <path d="M 4.83506944444444 3.6484375  C 4.94502314814815 3.74739583333333  5 3.86458333333333  5 4  C 5 4.13541666666667  4.94502314814815 4.25260416666667  4.83506944444444 4.3515625  L 0.946180555555556 7.8515625  C 0.836226851851852 7.95052083333333  0.706018518518519 8  0.555555555555556 8  C 0.405092592592593 8  0.274884259259259 7.95052083333333  0.164930555555556 7.8515625  C 0.0549768518518519 7.75260416666667  0 7.63541666666667  0 7.5  L 0 0.5  C 0 0.364583333333332  0.0549768518518519 0.247395833333332  0.164930555555556 0.1484375  C 0.274884259259259 0.0494791666666661  0.405092592592593 0  0.555555555555556 0  C 0.706018518518519 0  0.836226851851852 0.0494791666666661  0.946180555555556 0.1484375  L 4.83506944444444 3.6484375  Z " fill-rule="nonzero" fill="#7f7f7f" stroke="none" transform="matrix(1 0 0 1 134 178 )" />
  </g>
</svg>