<?xml version="1.0" encoding="utf-8"?>
<svg version="1.1" xmlns:xlink="http://www.w3.org/1999/xlink" width="12px" height="12px" viewBox="708 405  12 12" xmlns="http://www.w3.org/2000/svg">
  <path d="M 708.5 407  A 1.5 1.5 0 0 1 710 405.5 L 718 405.5  A 1.5 1.5 0 0 1 719.5 407 L 719.5 415  A 1.5 1.5 0 0 1 718 416.5 L 710 416.5  A 1.5 1.5 0 0 1 708.5 415 L 708.5 407  Z " fill-rule="nonzero" fill="#f0f0f0" stroke="none" />
  <path d="M 708.5 407  A 1.5 1.5 0 0 1 710 405.5 L 718 405.5  A 1.5 1.5 0 0 1 719.5 407 L 719.5 415  A 1.5 1.5 0 0 1 718 416.5 L 710 416.5  A 1.5 1.5 0 0 1 708.5 415 L 708.5 407  Z " stroke-width="1" stroke="#7f7f7f" fill="none" />
</svg>