<?xml version="1.0" encoding="utf-8"?>
<svg version="1.1" xmlns:xlink="http://www.w3.org/1999/xlink" width="12px" height="12px" viewBox="587 995  12 12" xmlns="http://www.w3.org/2000/svg">
  <path d="M 587.5 997  A 1.5 1.5 0 0 1 589 995.5 L 597 995.5  A 1.5 1.5 0 0 1 598.5 997 L 598.5 1005  A 1.5 1.5 0 0 1 597 1006.5 L 589 1006.5  A 1.5 1.5 0 0 1 587.5 1005 L 587.5 997  Z " fill-rule="nonzero" fill="#ffffff" stroke="none" />
  <path d="M 587.5 997  A 1.5 1.5 0 0 1 589 995.5 L 597 995.5  A 1.5 1.5 0 0 1 598.5 997 L 598.5 1005  A 1.5 1.5 0 0 1 597 1006.5 L 589 1006.5  A 1.5 1.5 0 0 1 587.5 1005 L 587.5 997  Z " stroke-width="1" stroke="#7f7f7f" fill="none" />
</svg>