<?xml version="1.0" encoding="utf-8"?>
<svg version="1.1" xmlns:xlink="http://www.w3.org/1999/xlink" width="12px" height="12px" viewBox="2089 778  12 12" xmlns="http://www.w3.org/2000/svg">
  <path d="M 2089.5 780  A 1.5 1.5 0 0 1 2091 778.5 L 2099 778.5  A 1.5 1.5 0 0 1 2100.5 780 L 2100.5 788  A 1.5 1.5 0 0 1 2099 789.5 L 2091 789.5  A 1.5 1.5 0 0 1 2089.5 788 L 2089.5 780  Z " fill-rule="nonzero" fill="#ffffff" stroke="none" />
  <path d="M 2089.5 780  A 1.5 1.5 0 0 1 2091 778.5 L 2099 778.5  A 1.5 1.5 0 0 1 2100.5 780 L 2100.5 788  A 1.5 1.5 0 0 1 2099 789.5 L 2091 789.5  A 1.5 1.5 0 0 1 2089.5 788 L 2089.5 780  Z " stroke-width="1" stroke="#7f7f7f" fill="none" />
  <path d="M 2091.57142857143 784  L 2094.14285714286 786.571428571429  " stroke-width="2.57142857142857" stroke="#7f7f7f" fill="none" />
  <path d="M 2094.14285714286 786.571428571429  L 2098.42857142857 780.571428571429  " stroke-width="2.57142857142857" stroke="#7f7f7f" fill="none" />
</svg>