<?xml version="1.0" encoding="utf-8"?>
<svg version="1.1" xmlns:xlink="http://www.w3.org/1999/xlink" width="12px" height="12px" viewBox="587 819  12 12" xmlns="http://www.w3.org/2000/svg">
  <path d="M 587.5 821  A 1.5 1.5 0 0 1 589 819.5 L 597 819.5  A 1.5 1.5 0 0 1 598.5 821 L 598.5 829  A 1.5 1.5 0 0 1 597 830.5 L 589 830.5  A 1.5 1.5 0 0 1 587.5 829 L 587.5 821  Z " fill-rule="nonzero" fill="#f0f0f0" stroke="none" />
  <path d="M 587.5 821  A 1.5 1.5 0 0 1 589 819.5 L 597 819.5  A 1.5 1.5 0 0 1 598.5 821 L 598.5 829  A 1.5 1.5 0 0 1 597 830.5 L 589 830.5  A 1.5 1.5 0 0 1 587.5 829 L 587.5 821  Z " stroke-width="1" stroke="#7f7f7f" fill="none" />
</svg>