<?xml version="1.0" encoding="utf-8"?>
<svg version="1.1" xmlns:xlink="http://www.w3.org/1999/xlink" width="12px" height="12px" viewBox="587 775  12 12" xmlns="http://www.w3.org/2000/svg">
  <path d="M 587.5 777  A 1.5 1.5 0 0 1 589 775.5 L 597 775.5  A 1.5 1.5 0 0 1 598.5 777 L 598.5 785  A 1.5 1.5 0 0 1 597 786.5 L 589 786.5  A 1.5 1.5 0 0 1 587.5 785 L 587.5 777  Z " fill-rule="nonzero" fill="#ffffff" stroke="none" />
  <path d="M 587.5 777  A 1.5 1.5 0 0 1 589 775.5 L 597 775.5  A 1.5 1.5 0 0 1 598.5 777 L 598.5 785  A 1.5 1.5 0 0 1 597 786.5 L 589 786.5  A 1.5 1.5 0 0 1 587.5 785 L 587.5 777  Z " stroke-width="1" stroke="#7f7f7f" fill="none" />
</svg>