<?xml version="1.0" encoding="utf-8"?>
<svg version="1.1" xmlns:xlink="http://www.w3.org/1999/xlink" width="12px" height="12px" viewBox="469 894  12 12" xmlns="http://www.w3.org/2000/svg">
  <path d="M 469.5 896  A 1.5 1.5 0 0 1 471 894.5 L 479 894.5  A 1.5 1.5 0 0 1 480.5 896 L 480.5 904  A 1.5 1.5 0 0 1 479 905.5 L 471 905.5  A 1.5 1.5 0 0 1 469.5 904 L 469.5 896  Z " fill-rule="nonzero" fill="#f0f0f0" stroke="none" />
  <path d="M 469.5 896  A 1.5 1.5 0 0 1 471 894.5 L 479 894.5  A 1.5 1.5 0 0 1 480.5 896 L 480.5 904  A 1.5 1.5 0 0 1 479 905.5 L 471 905.5  A 1.5 1.5 0 0 1 469.5 904 L 469.5 896  Z " stroke-width="1" stroke="#7f7f7f" fill="none" />
</svg>