<?xml version="1.0" encoding="utf-8"?>
<svg version="1.1" xmlns:xlink="http://www.w3.org/1999/xlink" width="12px" height="12px" viewBox="291 2602  12 12" xmlns="http://www.w3.org/2000/svg">
  <path d="M 291.5 2604  A 1.5 1.5 0 0 1 293 2602.5 L 301 2602.5  A 1.5 1.5 0 0 1 302.5 2604 L 302.5 2612  A 1.5 1.5 0 0 1 301 2613.5 L 293 2613.5  A 1.5 1.5 0 0 1 291.5 2612 L 291.5 2604  Z " fill-rule="nonzero" fill="#f0f0f0" stroke="none" />
  <path d="M 291.5 2604  A 1.5 1.5 0 0 1 293 2602.5 L 301 2602.5  A 1.5 1.5 0 0 1 302.5 2604 L 302.5 2612  A 1.5 1.5 0 0 1 301 2613.5 L 293 2613.5  A 1.5 1.5 0 0 1 291.5 2612 L 291.5 2604  Z " stroke-width="1" stroke="#7f7f7f" fill="none" />
  <path d="M 293.571428571429 2608  L 296.142857142857 2610.57142857143  " stroke-width="2.57142857142857" stroke="#7f7f7f" fill="none" />
  <path d="M 296.142857142857 2610.57142857143  L 300.428571428571 2604.57142857143  " stroke-width="2.57142857142857" stroke="#7f7f7f" fill="none" />
</svg>