<?xml version="1.0" encoding="utf-8"?>
<svg version="1.1" xmlns:xlink="http://www.w3.org/1999/xlink" width="12px" height="12px" viewBox="629 2264  12 12" xmlns="http://www.w3.org/2000/svg">
  <path d="M 629.5 2266  A 1.5 1.5 0 0 1 631 2264.5 L 639 2264.5  A 1.5 1.5 0 0 1 640.5 2266 L 640.5 2274  A 1.5 1.5 0 0 1 639 2275.5 L 631 2275.5  A 1.5 1.5 0 0 1 629.5 2274 L 629.5 2266  Z " fill-rule="nonzero" fill="#f0f0f0" stroke="none" />
  <path d="M 629.5 2266  A 1.5 1.5 0 0 1 631 2264.5 L 639 2264.5  A 1.5 1.5 0 0 1 640.5 2266 L 640.5 2274  A 1.5 1.5 0 0 1 639 2275.5 L 631 2275.5  A 1.5 1.5 0 0 1 629.5 2274 L 629.5 2266  Z " stroke-width="1" stroke="#7f7f7f" fill="none" />
  <path d="M 631.571428571429 2270  L 634.142857142857 2272.57142857143  " stroke-width="2.57142857142857" stroke="#7f7f7f" fill="none" />
  <path d="M 634.142857142857 2272.57142857143  L 638.428571428571 2266.57142857143  " stroke-width="2.57142857142857" stroke="#7f7f7f" fill="none" />
</svg>