<?xml version="1.0" encoding="utf-8"?>
<svg version="1.1" xmlns:xlink="http://www.w3.org/1999/xlink" width="12px" height="12px" viewBox="289 2466  12 12" xmlns="http://www.w3.org/2000/svg">
  <path d="M 289.5 2468  A 1.5 1.5 0 0 1 291 2466.5 L 299 2466.5  A 1.5 1.5 0 0 1 300.5 2468 L 300.5 2476  A 1.5 1.5 0 0 1 299 2477.5 L 291 2477.5  A 1.5 1.5 0 0 1 289.5 2476 L 289.5 2468  Z " fill-rule="nonzero" fill="#f0f0f0" stroke="none" />
  <path d="M 289.5 2468  A 1.5 1.5 0 0 1 291 2466.5 L 299 2466.5  A 1.5 1.5 0 0 1 300.5 2468 L 300.5 2476  A 1.5 1.5 0 0 1 299 2477.5 L 291 2477.5  A 1.5 1.5 0 0 1 289.5 2476 L 289.5 2468  Z " stroke-width="1" stroke="#7f7f7f" fill="none" />
</svg>