<?xml version="1.0" encoding="utf-8"?>
<svg version="1.1" xmlns:xlink="http://www.w3.org/1999/xlink" width="12px" height="12px" viewBox="171 2465  12 12" xmlns="http://www.w3.org/2000/svg">
  <path d="M 171.5 2467  A 1.5 1.5 0 0 1 173 2465.5 L 181 2465.5  A 1.5 1.5 0 0 1 182.5 2467 L 182.5 2475  A 1.5 1.5 0 0 1 181 2476.5 L 173 2476.5  A 1.5 1.5 0 0 1 171.5 2475 L 171.5 2467  Z " fill-rule="nonzero" fill="#ffffff" stroke="none" />
  <path d="M 171.5 2467  A 1.5 1.5 0 0 1 173 2465.5 L 181 2465.5  A 1.5 1.5 0 0 1 182.5 2467 L 182.5 2475  A 1.5 1.5 0 0 1 181 2476.5 L 173 2476.5  A 1.5 1.5 0 0 1 171.5 2475 L 171.5 2467  Z " stroke-width="1" stroke="#7f7f7f" fill="none" />
  <path d="M 173.571428571429 2471  L 176.142857142857 2473.57142857143  " stroke-width="2.57142857142857" stroke="#7f7f7f" fill="none" />
  <path d="M 176.142857142857 2473.57142857143  L 180.428571428571 2467.57142857143  " stroke-width="2.57142857142857" stroke="#7f7f7f" fill="none" />
</svg>