<?xml version="1.0" encoding="utf-8"?>
<svg version="1.1" xmlns:xlink="http://www.w3.org/1999/xlink" width="12px" height="12px" viewBox="1971 282  12 12" xmlns="http://www.w3.org/2000/svg">
  <path d="M 1971.5 284  A 1.5 1.5 0 0 1 1973 282.5 L 1981 282.5  A 1.5 1.5 0 0 1 1982.5 284 L 1982.5 292  A 1.5 1.5 0 0 1 1981 293.5 L 1973 293.5  A 1.5 1.5 0 0 1 1971.5 292 L 1971.5 284  Z " fill-rule="nonzero" fill="#ffffff" stroke="none" />
  <path d="M 1971.5 284  A 1.5 1.5 0 0 1 1973 282.5 L 1981 282.5  A 1.5 1.5 0 0 1 1982.5 284 L 1982.5 292  A 1.5 1.5 0 0 1 1981 293.5 L 1973 293.5  A 1.5 1.5 0 0 1 1971.5 292 L 1971.5 284  Z " stroke-width="1" stroke="#7f7f7f" fill="none" />
  <path d="M 1973.57142857143 288  L 1976.14285714286 290.571428571429  " stroke-width="2.57142857142857" stroke="#7f7f7f" fill="none" />
  <path d="M 1976.14285714286 290.571428571429  L 1980.42857142857 284.571428571429  " stroke-width="2.57142857142857" stroke="#7f7f7f" fill="none" />
</svg>