<?xml version="1.0" encoding="utf-8"?>
<svg version="1.1" xmlns:xlink="http://www.w3.org/1999/xlink" width="299px" height="129px" xmlns="http://www.w3.org/2000/svg">
  <g transform="matrix(1 0 0 1 -529 -599 )">
    <path d="M 530 604  A 4 4 0 0 1 534 600 L 823 600  A 4 4 0 0 1 827 604 L 827 723  A 4 4 0 0 1 823 727 L 534 727  A 4 4 0 0 1 530 723 L 530 604  Z " fill-rule="nonzero" fill="#ffffff" stroke="none" />
    <path d="M 529.5 604  A 4.5 4.5 0 0 1 534 599.5 L 823 599.5  A 4.5 4.5 0 0 1 827.5 604 L 827.5 723  A 4.5 4.5 0 0 1 823 727.5 L 534 727.5  A 4.5 4.5 0 0 1 529.5 723 L 529.5 604  Z " stroke-width="1" stroke-dasharray="3,1" stroke="#797979" fill="none" stroke-dashoffset="0.5" />
  </g>
</svg>