<?xml version="1.0" encoding="utf-8"?>
<svg version="1.1" xmlns:xlink="http://www.w3.org/1999/xlink" width="34px" height="29px" xmlns="http://www.w3.org/2000/svg">
  <g transform="matrix(1 0 0 1 -762 -1431 )">
    <path d="M 25.765625 26.224609375  C 26.0244391025641 25.9854600694444  26.1538461538462 25.7022569444444  26.1538461538462 25.375  C 26.1538461538462 25.0477430555556  26.0244391025641 24.7645399305556  25.765625 24.525390625  C 25.5068108974359 24.2862413194444  25.2003205128205 24.1666666666667  24.8461538461538 24.1666666666667  C 24.4919871794872 24.1666666666667  24.1854967948718 24.2862413194444  23.9266826923077 24.525390625  C 23.6678685897436 24.7645399305556  23.5384615384615 25.0477430555556  23.5384615384615 25.375  C 23.5384615384615 25.7022569444444  23.6678685897436 25.9854600694444  23.9266826923077 26.224609375  C 24.1854967948718 26.4637586805556  24.4919871794872 26.5833333333333  24.8461538461538 26.5833333333333  C 25.2003205128205 26.5833333333333  25.5068108974359 26.4637586805556  25.765625 26.224609375  Z M 30.9963942307692 26.224609375  C 31.2552083333333 25.9854600694444  31.3846153846154 25.7022569444444  31.3846153846154 25.375  C 31.3846153846154 25.0477430555556  31.2552083333333 24.7645399305556  30.9963942307692 24.525390625  C 30.7375801282051 24.2862413194444  30.4310897435897 24.1666666666667  30.0769230769231 24.1666666666667  C 29.7227564102564 24.1666666666667  29.416266025641 24.2862413194444  29.1574519230769 24.525390625  C 28.8986378205128 24.7645399305556  28.7692307692308 25.0477430555556  28.7692307692308 25.375  C 28.7692307692308 25.7022569444444  28.8986378205128 25.9854600694444  29.1574519230769 26.224609375  C 29.416266025641 26.4637586805556  29.7227564102564 26.5833333333333  30.0769230769231 26.5833333333333  C 30.4310897435897 26.5833333333333  30.7375801282051 26.4637586805556  30.9963942307692 26.224609375  Z M 33.4278846153846 19.8619791666667  C 33.8092948717949 20.2144097222222  34 20.6423611111111  34 21.1458333333333  L 34 27.1875  C 34 27.6909722222222  33.8092948717949 28.1189236111111  33.4278846153846 28.4713541666667  C 33.0464743589744 28.8237847222222  32.5833333333333 29  32.0384615384615 29  L 1.96153846153846 29  C 1.41666666666667 29  0.953525641025641 28.8237847222222  0.572115384615385 28.4713541666667  C 0.190705128205128 28.1189236111111  0 27.6909722222222  0 27.1875  L 0 21.1458333333333  C 0 20.6423611111111  0.190705128205128 20.2144097222222  0.572115384615385 19.8619791666667  C 0.953525641025641 19.5095486111111  1.41666666666667 19.3333333333333  1.96153846153846 19.3333333333333  L 11.4627403846154 19.3333333333333  L 14.2211538461538 21.9010416666667  C 15.011217948718 22.6059027777778  15.9375 22.9583333333333  17 22.9583333333333  C 18.0625 22.9583333333333  18.9887820512821 22.6059027777778  19.7788461538462 21.9010416666667  L 22.5576923076923 19.3333333333333  L 32.0384615384615 19.3333333333333  C 32.5833333333333 19.3333333333333  33.0464743589744 19.5095486111111  33.4278846153846 19.8619791666667  Z M 26.1538461538462 9.66666666666667  C 26.7259615384615 9.66666666666667  27.1278044871795 9.912109375  27.359375 10.4029947916667  C 27.5909455128205 10.9190538194444  27.495592948718 11.3595920138889  27.0733173076923 11.724609375  L 17.9194711538462 20.1829427083333  C 17.6742788461538 20.4220920138889  17.3677884615385 20.5416666666667  17 20.5416666666667  C 16.6322115384615 20.5416666666667  16.3257211538462 20.4220920138889  16.0805288461538 20.1829427083333  L 6.92668269230769 11.724609375  C 6.50440705128205 11.3595920138889  6.40905448717949 10.9190538194444  6.640625 10.4029947916667  C 6.87219551282051 9.912109375  7.27403846153846 9.66666666666667  7.84615384615385 9.66666666666667  L 13.0769230769231 9.66666666666667  L 13.0769230769231 1.20833333333333  C 13.0769230769231 0.881076388888885  13.2063301282051 0.597873263888885  13.4651442307692 0.358723958333332  C 13.7239583333333 0.11957465277778  14.0304487179487 0  14.3846153846154 0  L 19.6153846153846 0  C 19.9695512820513 0  20.2760416666667 0.11957465277778  20.5348557692308 0.358723958333332  C 20.7936698717949 0.597873263888885  20.9230769230769 0.881076388888885  20.9230769230769 1.20833333333333  L 20.9230769230769 9.66666666666667  L 26.1538461538462 9.66666666666667  Z " fill-rule="nonzero" fill="#108de9" stroke="none" transform="matrix(1 0 0 1 762 1431 )" />
  </g>
</svg>