<?xml version="1.0" encoding="utf-8"?>
<svg version="1.1" xmlns:xlink="http://www.w3.org/1999/xlink" width="34px" height="32px" xmlns="http://www.w3.org/2000/svg">
  <g transform="matrix(1 0 0 1 -714 -1431 )">
    <path d="M 20.7289663461538 12.4903846153846  C 20.8583733974359 12.6121794871795  20.9230769230769 12.7564102564103  20.9230769230769 12.9230769230769  L 20.9230769230769 14.1538461538462  C 20.9230769230769 14.3205128205128  20.8583733974359 14.4647435897436  20.7289663461538 14.5865384615385  C 20.5995592948718 14.7083333333333  20.4463141025641 14.7692307692308  20.2692307692308 14.7692307692308  L 15.6923076923077 14.7692307692308  L 15.6923076923077 19.0769230769231  C 15.6923076923077 19.2435897435897  15.6276041666667 19.3878205128205  15.4981971153846 19.5096153846154  C 15.3687900641026 19.6314102564103  15.2155448717949 19.6923076923077  15.0384615384615 19.6923076923077  L 13.7307692307692 19.6923076923077  C 13.5536858974359 19.6923076923077  13.4004407051282 19.6314102564103  13.2710336538462 19.5096153846154  C 13.1416266025641 19.3878205128205  13.0769230769231 19.2435897435897  13.0769230769231 19.0769230769231  L 13.0769230769231 14.7692307692308  L 8.5 14.7692307692308  C 8.32291666666667 14.7692307692308  8.16967147435897 14.7083333333333  8.04026442307692 14.5865384615385  C 7.91085737179487 14.4647435897436  7.84615384615385 14.3205128205128  7.84615384615385 14.1538461538462  L 7.84615384615385 12.9230769230769  C 7.84615384615385 12.7564102564103  7.91085737179487 12.6121794871795  8.04026442307692 12.4903846153846  C 8.16967147435897 12.3685897435897  8.32291666666667 12.3076923076923  8.5 12.3076923076923  L 13.0769230769231 12.3076923076923  L 13.0769230769231 8  C 13.0769230769231 7.83333333333333  13.1416266025641 7.68910256410256  13.2710336538462 7.56730769230769  C 13.4004407051282 7.44551282051282  13.5536858974359 7.38461538461538  13.7307692307692 7.38461538461538  L 15.0384615384615 7.38461538461538  C 15.2155448717949 7.38461538461538  15.3687900641026 7.44551282051282  15.4981971153846 7.56730769230769  C 15.6276041666667 7.68910256410256  15.6923076923077 7.83333333333333  15.6923076923077 8  L 15.6923076923077 12.3076923076923  L 20.2692307692308 12.3076923076923  C 20.4463141025641 12.3076923076923  20.5995592948718 12.3685897435897  20.7289663461538 12.4903846153846  Z M 20.8515625 19.625  C 22.642828525641 17.9391025641026  23.5384615384615 15.9102564102564  23.5384615384615 13.5384615384615  C 23.5384615384615 11.1666666666667  22.642828525641 9.13782051282051  20.8515625 7.45192307692308  C 19.060296474359 5.76602564102564  16.9046474358974 4.92307692307692  14.3846153846154 4.92307692307692  C 11.8645833333333 4.92307692307692  9.7089342948718 5.76602564102564  7.91766826923077 7.45192307692308  C 6.12640224358974 9.13782051282051  5.23076923076923 11.1666666666667  5.23076923076923 13.5384615384615  C 5.23076923076923 15.9102564102564  6.12640224358974 17.9391025641026  7.91766826923077 19.625  C 9.7089342948718 21.3108974358974  11.8645833333333 22.1538461538462  14.3846153846154 22.1538461538462  C 16.9046474358974 22.1538461538462  19.060296474359 21.3108974358974  20.8515625 19.625  Z M 33.2439903846154 27.8076923076923  C 33.7479967948718 28.2820512820513  34 28.8589743589744  34 29.5384615384615  C 34 30.2179487179487  33.7445913461538 30.7980769230769  33.2337740384615 31.2788461538462  C 32.7229567307692 31.7596153846154  32.1065705128205 32  31.3846153846154 32  C 30.6490384615385 32  30.0360576923077 31.7564102564103  29.5456730769231 31.2692307692308  L 22.5372596153846 24.6923076923077  C 20.0989583333333 26.2820512820513  17.3814102564103 27.0769230769231  14.3846153846154 27.0769230769231  C 12.4366987179487 27.0769230769231  10.5739182692308 26.7211538461538  8.79627403846154 26.0096153846154  C 7.01862980769231 25.2980769230769  5.48617788461538 24.3365384615385  4.19891826923077 23.125  C 2.91165865384615 21.9134615384615  1.89002403846154 20.4711538461538  1.13401442307692 18.7980769230769  C 0.378004807692308 17.125  0 15.3717948717949  0 13.5384615384615  C 0 11.7051282051282  0.378004807692308 9.95192307692308  1.13401442307692 8.27884615384615  C 1.89002403846154 6.60576923076923  2.91165865384615 5.16346153846154  4.19891826923077 3.95192307692308  C 5.48617788461538 2.74038461538462  7.01862980769231 1.77884615384615  8.79627403846154 1.06730769230769  C 10.5739182692308 0.35576923076923  12.4366987179487 0  14.3846153846154 0  C 16.3325320512821 0  18.1953125 0.35576923076923  19.9729567307692 1.06730769230769  C 21.7506009615385 1.77884615384615  23.2830528846154 2.74038461538462  24.5703125 3.95192307692308  C 25.8575721153846 5.16346153846154  26.8792067307692 6.60576923076923  27.6352163461538 8.27884615384615  C 28.3912259615385 9.95192307692308  28.7692307692308 11.7051282051282  28.7692307692308 13.5384615384615  C 28.7692307692308 16.3589743589744  27.9246794871795 18.9166666666667  26.2355769230769 21.2115384615385  L 33.2439903846154 27.8076923076923  Z " fill-rule="nonzero" fill="#108de9" stroke="none" transform="matrix(1 0 0 1 714 1431 )" />
  </g>
</svg>