<?xml version="1.0" encoding="utf-8"?>
<svg version="1.1" xmlns:xlink="http://www.w3.org/1999/xlink" width="23px" height="29px" xmlns="http://www.w3.org/2000/svg">
  <g transform="matrix(1 0 0 1 -817 -1430 )">
    <path d="M 8.21661931818182 23.9967447916667  C 8.31463068181818 23.8834635416667  8.36363636363636 23.7387152777778  8.36363636363636 23.5625  L 8.36363636363636 10.2708333333333  C 8.36363636363636 10.0946180555556  8.31463068181818 9.94986979166667  8.21661931818182 9.83658854166667  C 8.11860795454546 9.72330729166667  7.99337121212121 9.66666666666667  7.84090909090909 9.66666666666667  L 6.79545454545455 9.66666666666667  C 6.64299242424243 9.66666666666667  6.51775568181818 9.72330729166667  6.41974431818182 9.83658854166667  C 6.32173295454545 9.94986979166667  6.27272727272727 10.0946180555556  6.27272727272727 10.2708333333333  L 6.27272727272727 23.5625  C 6.27272727272727 23.7387152777778  6.32173295454545 23.8834635416667  6.41974431818182 23.9967447916667  C 6.51775568181818 24.1100260416667  6.64299242424243 24.1666666666667  6.79545454545455 24.1666666666667  L 7.84090909090909 24.1666666666667  C 7.99337121212121 24.1666666666667  8.11860795454546 24.1100260416667  8.21661931818182 23.9967447916667  Z M 12.3984375 23.9967447916667  C 12.4964488636364 23.8834635416667  12.5454545454545 23.7387152777778  12.5454545454545 23.5625  L 12.5454545454545 10.2708333333333  C 12.5454545454545 10.0946180555556  12.4964488636364 9.94986979166667  12.3984375 9.83658854166667  C 12.3004261363636 9.72330729166667  12.1751893939394 9.66666666666667  12.0227272727273 9.66666666666667  L 10.9772727272727 9.66666666666667  C 10.8248106060606 9.66666666666667  10.6995738636364 9.72330729166667  10.6015625 9.83658854166667  C 10.5035511363636 9.94986979166667  10.4545454545455 10.0946180555556  10.4545454545455 10.2708333333333  L 10.4545454545455 23.5625  C 10.4545454545455 23.7387152777778  10.5035511363636 23.8834635416667  10.6015625 23.9967447916667  C 10.6995738636364 24.1100260416667  10.8248106060606 24.1666666666667  10.9772727272727 24.1666666666667  L 12.0227272727273 24.1666666666667  C 12.1751893939394 24.1666666666667  12.3004261363636 24.1100260416667  12.3984375 23.9967447916667  Z M 16.5802556818182 23.9967447916667  C 16.6782670454545 23.8834635416667  16.7272727272727 23.7387152777778  16.7272727272727 23.5625  L 16.7272727272727 10.2708333333333  C 16.7272727272727 10.0946180555556  16.6782670454545 9.94986979166667  16.5802556818182 9.83658854166667  C 16.4822443181818 9.72330729166667  16.3570075757576 9.66666666666667  16.2045454545455 9.66666666666667  L 15.1590909090909 9.66666666666667  C 15.0066287878788 9.66666666666667  14.8813920454545 9.72330729166667  14.7833806818182 9.83658854166667  C 14.6853693181818 9.94986979166667  14.6363636363636 10.0946180555556  14.6363636363636 10.2708333333333  L 14.6363636363636 23.5625  C 14.6363636363636 23.7387152777778  14.6853693181818 23.8834635416667  14.7833806818182 23.9967447916667  C 14.8813920454545 24.1100260416667  15.0066287878788 24.1666666666667  15.1590909090909 24.1666666666667  L 16.2045454545455 24.1666666666667  C 16.3570075757576 24.1666666666667  16.4822443181818 24.1100260416667  16.5802556818182 23.9967447916667  Z M 8.64133522727273 2.62434895833333  L 7.84090909090909 4.83333333333333  L 15.1590909090909 4.83333333333333  L 14.375 2.62434895833333  C 14.2987689393939 2.51106770833333  14.2062026515152 2.44184027777778  14.0973011363636 2.41666666666667  L 8.91903409090909 2.41666666666667  C 8.81013257575758 2.44184027777778  8.71756628787879 2.51106770833333  8.64133522727273 2.62434895833333  Z M 22.8529829545455 5.00325520833333  C 22.9509943181818 5.11653645833333  23 5.26128472222222  23 5.4375  L 23 6.64583333333333  C 23 6.82204861111111  22.9509943181818 6.966796875  22.8529829545455 7.080078125  C 22.7549715909091 7.193359375  22.6297348484849 7.25  22.4772727272727 7.25  L 21 7.25  L 21 25.1484375  C 20.9090909090909 26.1931423611111  20.6531723484849 27.0962456597222  20.1413352272727 27.8577473958333  C 19.6294981060606 28.6192491319444  19.0142045454545 29  18.2954545454545 29  L 4.70454545454546 29  C 3.98579545454546 29  3.37050189393939 28.6318359375  2.85866477272727 27.8955078125  C 2.34682765151515 27.1591796875  2.09090909090909 26.2686631944444  2 25.2239583333333  L 2 7.25  L 0.522727272727273 7.25  C 0.370265151515151 7.25  0.245028409090909 7.193359375  0.147017045454545 7.080078125  C 0.0490056818181818 6.966796875  0 6.82204861111111  0 6.64583333333333  L 0 5.4375  C 0 5.26128472222222  0.0490056818181818 5.11653645833333  0.147017045454545 5.00325520833333  C 0.245028409090909 4.88997395833333  0.370265151515151 4.83333333333333  0.522727272727273 4.83333333333333  L 5.5703125 4.83333333333333  L 6.71377840909091 1.68033854166667  C 6.87713068181818 1.21462673611111  7.17116477272727 0.818142361111109  7.59588068181818 0.490885416666668  C 8.02059659090909 0.16362847222222  8.45075757575758 0  8.88636363636364 0  L 14.1136363636364 0  C 14.5492424242424 0  14.9794034090909 0.16362847222222  15.4041193181818 0.490885416666668  C 15.8288352272727 0.818142361111109  16.1228693181818 1.21462673611111  16.2862215909091 1.68033854166667  L 17.4296875 4.83333333333333  L 22.4772727272727 4.83333333333333  C 22.6297348484849 4.83333333333333  22.7549715909091 4.88997395833333  22.8529829545455 5.00325520833333  Z " fill-rule="nonzero" fill="#108de9" stroke="none" transform="matrix(1 0 0 1 817 1430 )" />
  </g>
</svg>