<?xml version="1.0" encoding="utf-8"?>
<svg version="1.1" xmlns:xlink="http://www.w3.org/1999/xlink" width="544px" height="143px" xmlns="http://www.w3.org/2000/svg">
  <g transform="matrix(1 0 0 1 -529 -599 )">
    <path d="M 530 604  A 4 4 0 0 1 534 600 L 1068 600  A 4 4 0 0 1 1072 604 L 1072 737  A 4 4 0 0 1 1068 741 L 534 741  A 4 4 0 0 1 530 737 L 530 604  Z " fill-rule="nonzero" fill="#ffffff" stroke="none" />
    <path d="M 529.5 604  A 4.5 4.5 0 0 1 534 599.5 L 1068 599.5  A 4.5 4.5 0 0 1 1072.5 604 L 1072.5 737  A 4.5 4.5 0 0 1 1068 741.5 L 534 741.5  A 4.5 4.5 0 0 1 529.5 737 L 529.5 604  Z " stroke-width="1" stroke-dasharray="3,1" stroke="#797979" fill="none" stroke-dashoffset="0.5" />
  </g>
</svg>