<?xml version="1.0" encoding="utf-8"?>
<svg version="1.1" xmlns:xlink="http://www.w3.org/1999/xlink" width="12px" height="12px" viewBox="391 619  12 12" xmlns="http://www.w3.org/2000/svg">
  <path d="M 397 619  C 400.36 619  403 621.64  403 625  C 403 628.36  400.36 631  397 631  C 393.64 631  391 628.36  391 625  C 391 621.64  393.64 619  397 619  Z " fill-rule="nonzero" fill="#f0f0f0" stroke="none" />
  <path d="M 397 619.5  C 400.08 619.5  402.5 621.92  402.5 625  C 402.5 628.08  400.08 630.5  397 630.5  C 393.92 630.5  391.5 628.08  391.5 625  C 391.5 621.92  393.92 619.5  397 619.5  Z " stroke-width="1" stroke="#797979" fill="none" />
  <path d="M 397 628  C 395.32 628  394 626.68  394 625  C 394 623.32  395.32 622  397 622  C 398.68 622  400 623.32  400 625  C 400 626.68  398.68 628  397 628  " fill-rule="nonzero" fill="#797979" stroke="none" />
</svg>