<?xml version="1.0" encoding="utf-8"?>
<svg version="1.1" xmlns:xlink="http://www.w3.org/1999/xlink" width="855px" height="129px" xmlns="http://www.w3.org/2000/svg">
  <g transform="matrix(1 0 0 1 -333 -701 )">
    <path d="M 334 706  A 4 4 0 0 1 338 702 L 1183 702  A 4 4 0 0 1 1187 706 L 1187 825  A 4 4 0 0 1 1183 829 L 338 829  A 4 4 0 0 1 334 825 L 334 706  Z " fill-rule="nonzero" fill="#ffffff" stroke="none" />
    <path d="M 333.5 706  A 4.5 4.5 0 0 1 338 701.5 L 1183 701.5  A 4.5 4.5 0 0 1 1187.5 706 L 1187.5 825  A 4.5 4.5 0 0 1 1183 829.5 L 338 829.5  A 4.5 4.5 0 0 1 333.5 825 L 333.5 706  Z " stroke-width="1" stroke-dasharray="3,1" stroke="#797979" fill="none" stroke-dashoffset="0.5" />
  </g>
</svg>