<?xml version="1.0" encoding="utf-8"?>
<svg version="1.1" xmlns:xlink="http://www.w3.org/1999/xlink" width="12px" height="12px" viewBox="334 619  12 12" xmlns="http://www.w3.org/2000/svg">
  <path d="M 340 619  C 343.36 619  346 621.64  346 625  C 346 628.36  343.36 631  340 631  C 336.64 631  334 628.36  334 625  C 334 621.64  336.64 619  340 619  Z " fill-rule="nonzero" fill="#ffffff" stroke="none" />
  <path d="M 340 619.5  C 343.08 619.5  345.5 621.92  345.5 625  C 345.5 628.08  343.08 630.5  340 630.5  C 336.92 630.5  334.5 628.08  334.5 625  C 334.5 621.92  336.92 619.5  340 619.5  Z " stroke-width="1" stroke="#797979" fill="none" />
  <path d="M 340 628  C 338.32 628  337 626.68  337 625  C 337 623.32  338.32 622  340 622  C 341.68 622  343 623.32  343 625  C 343 626.68  341.68 628  340 628  " fill-rule="nonzero" fill="#797979" stroke="none" />
</svg>