<?xml version="1.0" encoding="utf-8"?>
<svg version="1.1" xmlns:xlink="http://www.w3.org/1999/xlink" width="216px" height="116px" xmlns="http://www.w3.org/2000/svg">
  <g transform="matrix(1 0 0 1 -478 -1616 )">
    <path d="M 479 1621  A 4 4 0 0 1 483 1617 L 689 1617  A 4 4 0 0 1 693 1621 L 693 1727  A 4 4 0 0 1 689 1731 L 483 1731  A 4 4 0 0 1 479 1727 L 479 1621  Z " fill-rule="nonzero" fill="#ffffff" stroke="none" />
    <path d="M 478.5 1621  A 4.5 4.5 0 0 1 483 1616.5 L 689 1616.5  A 4.5 4.5 0 0 1 693.5 1621 L 693.5 1727  A 4.5 4.5 0 0 1 689 1731.5 L 483 1731.5  A 4.5 4.5 0 0 1 478.5 1727 L 478.5 1621  Z " stroke-width="1" stroke-dasharray="3,1" stroke="#797979" fill="none" stroke-dashoffset="0.5" />
  </g>
</svg>