<?xml version="1.0" encoding="utf-8"?>
<svg version="1.1" xmlns:xlink="http://www.w3.org/1999/xlink" width="12px" height="12px" viewBox="532 1109  12 12" xmlns="http://www.w3.org/2000/svg">
  <path d="M 538 1109  C 541.36 1109  544 1111.64  544 1115  C 544 1118.36  541.36 1121  538 1121  C 534.64 1121  532 1118.36  532 1115  C 532 1111.64  534.64 1109  538 1109  Z " fill-rule="nonzero" fill="#ffffff" stroke="none" />
  <path d="M 538 1109.5  C 541.08 1109.5  543.5 1111.92  543.5 1115  C 543.5 1118.08  541.08 1120.5  538 1120.5  C 534.92 1120.5  532.5 1118.08  532.5 1115  C 532.5 1111.92  534.92 1109.5  538 1109.5  Z " stroke-width="1" stroke="#797979" fill="none" />
  <path d="M 538 1118  C 536.32 1118  535 1116.68  535 1115  C 535 1113.32  536.32 1112  538 1112  C 539.68 1112  541 1113.32  541 1115  C 541 1116.68  539.68 1118  538 1118  " fill-rule="nonzero" fill="#797979" stroke="none" />
</svg>