<?xml version="1.0" encoding="utf-8"?>
<svg version="1.1" xmlns:xlink="http://www.w3.org/1999/xlink" width="16px" height="20px" xmlns="http://www.w3.org/2000/svg">
  <g transform="matrix(1 0 0 1 -465 -1277 )">
    <path d="M 5.71590909090909 16.5494791666667  C 5.78409090909091 16.4713541666667  5.81818181818182 16.3715277777778  5.81818181818182 16.25  L 5.81818181818182 7.08333333333333  C 5.81818181818182 6.96180555555556  5.78409090909091 6.86197916666667  5.71590909090909 6.78385416666667  C 5.64772727272727 6.70572916666667  5.56060606060606 6.66666666666667  5.45454545454545 6.66666666666667  L 4.72727272727273 6.66666666666667  C 4.62121212121212 6.66666666666667  4.53409090909091 6.70572916666667  4.46590909090909 6.78385416666667  C 4.39772727272727 6.86197916666667  4.36363636363636 6.96180555555556  4.36363636363636 7.08333333333333  L 4.36363636363636 16.25  C 4.36363636363636 16.3715277777778  4.39772727272727 16.4713541666667  4.46590909090909 16.5494791666667  C 4.53409090909091 16.6276041666667  4.62121212121212 16.6666666666667  4.72727272727273 16.6666666666667  L 5.45454545454545 16.6666666666667  C 5.56060606060606 16.6666666666667  5.64772727272727 16.6276041666667  5.71590909090909 16.5494791666667  Z M 8.625 16.5494791666667  C 8.69318181818182 16.4713541666667  8.72727272727273 16.3715277777778  8.72727272727273 16.25  L 8.72727272727273 7.08333333333333  C 8.72727272727273 6.96180555555556  8.69318181818182 6.86197916666667  8.625 6.78385416666667  C 8.55681818181818 6.70572916666667  8.46969696969697 6.66666666666667  8.36363636363636 6.66666666666667  L 7.63636363636364 6.66666666666667  C 7.53030303030303 6.66666666666667  7.44318181818182 6.70572916666667  7.375 6.78385416666667  C 7.30681818181818 6.86197916666667  7.27272727272727 6.96180555555556  7.27272727272727 7.08333333333333  L 7.27272727272727 16.25  C 7.27272727272727 16.3715277777778  7.30681818181818 16.4713541666667  7.375 16.5494791666667  C 7.44318181818182 16.6276041666667  7.53030303030303 16.6666666666667  7.63636363636364 16.6666666666667  L 8.36363636363636 16.6666666666667  C 8.46969696969697 16.6666666666667  8.55681818181818 16.6276041666667  8.625 16.5494791666667  Z M 11.5340909090909 16.5494791666667  C 11.6022727272727 16.4713541666667  11.6363636363636 16.3715277777778  11.6363636363636 16.25  L 11.6363636363636 7.08333333333333  C 11.6363636363636 6.96180555555556  11.6022727272727 6.86197916666667  11.5340909090909 6.78385416666667  C 11.4659090909091 6.70572916666667  11.3787878787879 6.66666666666667  11.2727272727273 6.66666666666667  L 10.5454545454545 6.66666666666667  C 10.4393939393939 6.66666666666667  10.3522727272727 6.70572916666667  10.2840909090909 6.78385416666667  C 10.2159090909091 6.86197916666667  10.1818181818182 6.96180555555556  10.1818181818182 7.08333333333333  L 10.1818181818182 16.25  C 10.1818181818182 16.3715277777778  10.2159090909091 16.4713541666667  10.2840909090909 16.5494791666667  C 10.3522727272727 16.6276041666667  10.4393939393939 16.6666666666667  10.5454545454545 16.6666666666667  L 11.2727272727273 16.6666666666667  C 11.3787878787879 16.6666666666667  11.4659090909091 16.6276041666667  11.5340909090909 16.5494791666667  Z M 6.01136363636364 1.80989583333333  L 5.45454545454545 3.33333333333333  L 10.5454545454545 3.33333333333333  L 10 1.80989583333333  C 9.9469696969697 1.73177083333333  9.88257575757576 1.68402777777778  9.80681818181818 1.66666666666667  L 6.20454545454545 1.66666666666667  C 6.12878787878788 1.68402777777778  6.06439393939394 1.73177083333333  6.01136363636364 1.80989583333333  Z M 15.8977272727273 3.45052083333333  C 15.9659090909091 3.52864583333333  16 3.62847222222222  16 3.75  L 16 4.58333333333333  C 16 4.70486111111111  15.9659090909091 4.8046875  15.8977272727273 4.8828125  C 15.8295454545455 4.9609375  15.7424242424242 5  15.6363636363636 5  L 14.5454545454545 5  L 14.5454545454545 17.34375  C 14.5454545454545 18.0642361111111  14.3674242424242 18.6870659722222  14.0113636363636 19.2122395833333  C 13.655303030303 19.7374131944444  13.2272727272727 20  12.7272727272727 20  L 3.27272727272727 20  C 2.77272727272727 20  2.34469696969697 19.74609375  1.98863636363636 19.23828125  C 1.63257575757576 18.73046875  1.45454545454545 18.1163194444444  1.45454545454545 17.3958333333333  L 1.45454545454545 5  L 0.363636363636364 5  C 0.257575757575758 5  0.170454545454545 4.9609375  0.102272727272727 4.8828125  C 0.0340909090909091 4.8046875  0 4.70486111111111  0 4.58333333333333  L 0 3.75  C 0 3.62847222222222  0.0340909090909091 3.52864583333333  0.102272727272727 3.45052083333333  C 0.170454545454545 3.37239583333333  0.257575757575758 3.33333333333333  0.363636363636364 3.33333333333333  L 3.875 3.33333333333333  L 4.67045454545455 1.15885416666667  C 4.78409090909091 0.837673611111109  4.98863636363636 0.564236111111109  5.28409090909091 0.338541666666667  C 5.57954545454546 0.112847222222221  5.87878787878788 0  6.18181818181818 0  L 9.81818181818182 0  C 10.1212121212121 0  10.4204545454545 0.112847222222221  10.7159090909091 0.338541666666667  C 11.0113636363636 0.564236111111109  11.2159090909091 0.837673611111109  11.3295454545455 1.15885416666667  L 12.125 3.33333333333333  L 15.6363636363636 3.33333333333333  C 15.7424242424242 3.33333333333333  15.8295454545455 3.37239583333333  15.8977272727273 3.45052083333333  Z " fill-rule="nonzero" fill="#108de9" stroke="none" transform="matrix(1 0 0 1 465 1277 )" />
  </g>
</svg>