<?xml version="1.0" encoding="utf-8"?>
<svg version="1.1" xmlns:xlink="http://www.w3.org/1999/xlink" width="12px" height="12px" viewBox="537 1572  12 12" xmlns="http://www.w3.org/2000/svg">
  <path d="M 543 1572  C 546.36 1572  549 1574.64  549 1578  C 549 1581.36  546.36 1584  543 1584  C 539.64 1584  537 1581.36  537 1578  C 537 1574.64  539.64 1572  543 1572  Z " fill-rule="nonzero" fill="#ffffff" stroke="none" />
  <path d="M 543 1572.5  C 546.08 1572.5  548.5 1574.92  548.5 1578  C 548.5 1581.08  546.08 1583.5  543 1583.5  C 539.92 1583.5  537.5 1581.08  537.5 1578  C 537.5 1574.92  539.92 1572.5  543 1572.5  Z " stroke-width="1" stroke="#797979" fill="none" />
  <path d="M 543 1581  C 541.32 1581  540 1579.68  540 1578  C 540 1576.32  541.32 1575  543 1575  C 544.68 1575  546 1576.32  546 1578  C 546 1579.68  544.68 1581  543 1581  " fill-rule="nonzero" fill="#797979" stroke="none" />
</svg>