<?xml version="1.0" encoding="utf-8"?>
<svg version="1.1" xmlns:xlink="http://www.w3.org/1999/xlink" width="12px" height="12px" viewBox="1013 2487  12 12" xmlns="http://www.w3.org/2000/svg">
  <path d="M 1019 2487  C 1022.36 2487  1025 2489.64  1025 2493  C 1025 2496.36  1022.36 2499  1019 2499  C 1015.64 2499  1013 2496.36  1013 2493  C 1013 2489.64  1015.64 2487  1019 2487  Z " fill-rule="nonzero" fill="#ffffff" stroke="none" />
  <path d="M 1019 2487.5  C 1022.08 2487.5  1024.5 2489.92  1024.5 2493  C 1024.5 2496.08  1022.08 2498.5  1019 2498.5  C 1015.92 2498.5  1013.5 2496.08  1013.5 2493  C 1013.5 2489.92  1015.92 2487.5  1019 2487.5  Z " stroke-width="1" stroke="#797979" fill="none" />
  <path d="M 1019 2496  C 1017.32 2496  1016 2494.68  1016 2493  C 1016 2491.32  1017.32 2490  1019 2490  C 1020.68 2490  1022 2491.32  1022 2493  C 1022 2494.68  1020.68 2496  1019 2496  " fill-rule="nonzero" fill="#797979" stroke="none" />
</svg>