<?xml version="1.0" encoding="utf-8"?>
<svg version="1.1" xmlns:xlink="http://www.w3.org/1999/xlink" width="12px" height="12px" viewBox="480 1572  12 12" xmlns="http://www.w3.org/2000/svg">
  <path d="M 486 1572  C 489.36 1572  492 1574.64  492 1578  C 492 1581.36  489.36 1584  486 1584  C 482.64 1584  480 1581.36  480 1578  C 480 1574.64  482.64 1572  486 1572  Z " fill-rule="nonzero" fill="#f0f0f0" stroke="none" />
  <path d="M 486 1572.5  C 489.08 1572.5  491.5 1574.92  491.5 1578  C 491.5 1581.08  489.08 1583.5  486 1583.5  C 482.92 1583.5  480.5 1581.08  480.5 1578  C 480.5 1574.92  482.92 1572.5  486 1572.5  Z " stroke-width="1" stroke="#797979" fill="none" />
  <path d="M 486 1581  C 484.32 1581  483 1579.68  483 1578  C 483 1576.32  484.32 1575  486 1575  C 487.68 1575  489 1576.32  489 1578  C 489 1579.68  487.68 1581  486 1581  " fill-rule="nonzero" fill="#797979" stroke="none" />
</svg>