<?xml version="1.0" encoding="utf-8"?>
<svg version="1.1" xmlns:xlink="http://www.w3.org/1999/xlink" width="815px" height="25px" xmlns="http://www.w3.org/2000/svg">
  <g transform="matrix(1 0 0 1 -457 -2707 )">
    <path d="M 458 2719.5  A 11.5 11.5 0 0 1 469.5 2708 L 1259.5 2708  A 11.5 11.5 0 0 1 1271 2719.5 A 11.5 11.5 0 0 1 1259.5 2731 L 469.5 2731  A 11.5 11.5 0 0 1 458 2719.5 Z " fill-rule="nonzero" fill="#ffffff" stroke="none" />
    <path d="M 457.5 2719.5  A 12 12 0 0 1 469.5 2707.5 L 1259.5 2707.5  A 12 12 0 0 1 1271.5 2719.5 A 12 12 0 0 1 1259.5 2731.5 L 469.5 2731.5  A 12 12 0 0 1 457.5 2719.5 Z " stroke-width="1" stroke-dasharray="9,4" stroke="#1890ff" fill="none" stroke-dashoffset="0.5" />
  </g>
</svg>