<?xml version="1.0" encoding="utf-8"?>
<svg version="1.1" xmlns:xlink="http://www.w3.org/1999/xlink" width="12px" height="12px" viewBox="1057 2105  12 12" xmlns="http://www.w3.org/2000/svg">
  <path d="M 1063 2105  C 1066.36 2105  1069 2107.64  1069 2111  C 1069 2114.36  1066.36 2117  1063 2117  C 1059.64 2117  1057 2114.36  1057 2111  C 1057 2107.64  1059.64 2105  1063 2105  Z " fill-rule="nonzero" fill="#f0f0f0" stroke="none" />
  <path d="M 1063 2105.5  C 1066.08 2105.5  1068.5 2107.92  1068.5 2111  C 1068.5 2114.08  1066.08 2116.5  1063 2116.5  C 1059.92 2116.5  1057.5 2114.08  1057.5 2111  C 1057.5 2107.92  1059.92 2105.5  1063 2105.5  Z " stroke-width="1" stroke="#797979" fill="none" />
  <path d="M 1063 2114  C 1061.32 2114  1060 2112.68  1060 2111  C 1060 2109.32  1061.32 2108  1063 2108  C 1064.68 2108  1066 2109.32  1066 2111  C 1066 2112.68  1064.68 2114  1063 2114  " fill-rule="nonzero" fill="#797979" stroke="none" />
</svg>