<?xml version="1.0" encoding="utf-8"?>
<svg version="1.1" xmlns:xlink="http://www.w3.org/1999/xlink" width="12px" height="12px" viewBox="1063 2487  12 12" xmlns="http://www.w3.org/2000/svg">
  <path d="M 1069 2487  C 1072.36 2487  1075 2489.64  1075 2493  C 1075 2496.36  1072.36 2499  1069 2499  C 1065.64 2499  1063 2496.36  1063 2493  C 1063 2489.64  1065.64 2487  1069 2487  Z " fill-rule="nonzero" fill="#ffffff" stroke="none" />
  <path d="M 1069 2487.5  C 1072.08 2487.5  1074.5 2489.92  1074.5 2493  C 1074.5 2496.08  1072.08 2498.5  1069 2498.5  C 1065.92 2498.5  1063.5 2496.08  1063.5 2493  C 1063.5 2489.92  1065.92 2487.5  1069 2487.5  Z " stroke-width="1" stroke="#797979" fill="none" />
  <path d="M 1069 2496  C 1067.32 2496  1066 2494.68  1066 2493  C 1066 2491.32  1067.32 2490  1069 2490  C 1070.68 2490  1072 2491.32  1072 2493  C 1072 2494.68  1070.68 2496  1069 2496  " fill-rule="nonzero" fill="#797979" stroke="none" />
</svg>