<?xml version="1.0" encoding="utf-8"?>
<svg version="1.1" xmlns:xlink="http://www.w3.org/1999/xlink" width="12px" height="12px" viewBox="475 1109  12 12" xmlns="http://www.w3.org/2000/svg">
  <path d="M 481 1109  C 484.36 1109  487 1111.64  487 1115  C 487 1118.36  484.36 1121  481 1121  C 477.64 1121  475 1118.36  475 1115  C 475 1111.64  477.64 1109  481 1109  Z " fill-rule="nonzero" fill="#f0f0f0" stroke="none" />
  <path d="M 481 1109.5  C 484.08 1109.5  486.5 1111.92  486.5 1115  C 486.5 1118.08  484.08 1120.5  481 1120.5  C 477.92 1120.5  475.5 1118.08  475.5 1115  C 475.5 1111.92  477.92 1109.5  481 1109.5  Z " stroke-width="1" stroke="#797979" fill="none" />
  <path d="M 481 1118  C 479.32 1118  478 1116.68  478 1115  C 478 1113.32  479.32 1112  481 1112  C 482.68 1112  484 1113.32  484 1115  C 484 1116.68  482.68 1118  481 1118  " fill-rule="nonzero" fill="#797979" stroke="none" />
</svg>