<?xml version="1.0" encoding="utf-8"?>
<svg version="1.1" xmlns:xlink="http://www.w3.org/1999/xlink" width="12px" height="12px" viewBox="585 3427  12 12" xmlns="http://www.w3.org/2000/svg">
  <path d="M 591 3427  C 594.36 3427  597 3429.64  597 3433  C 597 3436.36  594.36 3439  591 3439  C 587.64 3439  585 3436.36  585 3433  C 585 3429.64  587.64 3427  591 3427  Z " fill-rule="nonzero" fill="#ffffff" stroke="none" />
  <path d="M 591 3427.5  C 594.08 3427.5  596.5 3429.92  596.5 3433  C 596.5 3436.08  594.08 3438.5  591 3438.5  C 587.92 3438.5  585.5 3436.08  585.5 3433  C 585.5 3429.92  587.92 3427.5  591 3427.5  Z " stroke-width="1" stroke="#ea8d08" fill="none" />
  <path d="M 591 3436  C 589.32 3436  588 3434.68  588 3433  C 588 3431.32  589.32 3430  591 3430  C 592.68 3430  594 3431.32  594 3433  C 594 3434.68  592.68 3436  591 3436  " fill-rule="nonzero" fill="#ea8d08" stroke="none" />
</svg>