<?xml version="1.0" encoding="utf-8"?>
<svg version="1.1" xmlns:xlink="http://www.w3.org/1999/xlink" width="10px" height="10px" xmlns="http://www.w3.org/2000/svg">
  <g transform="matrix(1 0 0 1 -2159 -3825 )">
    <path d="M 2164 3826  C 2166.24 3826  2168 3827.76  2168 3830  C 2168 3832.24  2166.24 3834  2164 3834  C 2161.76 3834  2160 3832.24  2160 3830  C 2160 3827.76  2161.76 3826  2164 3826  Z " fill-rule="nonzero" fill="#ffffff" stroke="none" />
    <path d="M 2164 3826  C 2166.24 3826  2168 3827.76  2168 3830  C 2168 3832.24  2166.24 3834  2164 3834  C 2161.76 3834  2160 3832.24  2160 3830  C 2160 3827.76  2161.76 3826  2164 3826  Z " stroke-width="2" stroke="#1890ff" fill="none" />
  </g>
</svg>