<?xml version="1.0" encoding="utf-8"?>
<svg version="1.1" xmlns:xlink="http://www.w3.org/1999/xlink" width="10px" height="10px" xmlns="http://www.w3.org/2000/svg">
  <g transform="matrix(1 0 0 1 -2159 -4036 )">
    <path d="M 2164 4037  C 2166.24 4037  2168 4038.76  2168 4041  C 2168 4043.24  2166.24 4045  2164 4045  C 2161.76 4045  2160 4043.24  2160 4041  C 2160 4038.76  2161.76 4037  2164 4037  Z " fill-rule="nonzero" fill="#ffffff" stroke="none" />
    <path d="M 2164 4037  C 2166.24 4037  2168 4038.76  2168 4041  C 2168 4043.24  2166.24 4045  2164 4045  C 2161.76 4045  2160 4043.24  2160 4041  C 2160 4038.76  2161.76 4037  2164 4037  Z " stroke-width="2" stroke="#aaaaaa" fill="none" />
  </g>
</svg>