<?xml version="1.0" encoding="utf-8"?>
<svg version="1.1" xmlns:xlink="http://www.w3.org/1999/xlink" width="12px" height="12px" viewBox="496 418  12 12" xmlns="http://www.w3.org/2000/svg">
  <path d="M 502 418  C 505.36 418  508 420.64  508 424  C 508 427.36  505.36 430  502 430  C 498.64 430  496 427.36  496 424  C 496 420.64  498.64 418  502 418  Z " fill-rule="nonzero" fill="#f0f0f0" stroke="none" />
  <path d="M 502 418.5  C 505.08 418.5  507.5 420.92  507.5 424  C 507.5 427.08  505.08 429.5  502 429.5  C 498.92 429.5  496.5 427.08  496.5 424  C 496.5 420.92  498.92 418.5  502 418.5  Z " stroke-width="1" stroke="#797979" fill="none" />
  <path d="M 502 427  C 500.32 427  499 425.68  499 424  C 499 422.32  500.32 421  502 421  C 503.68 421  505 422.32  505 424  C 505 425.68  503.68 427  502 427  " fill-rule="nonzero" fill="#797979" stroke="none" />
</svg>