<?xml version="1.0" encoding="utf-8"?>
<svg version="1.1" xmlns:xlink="http://www.w3.org/1999/xlink" width="12px" height="12px" viewBox="553 418  12 12" xmlns="http://www.w3.org/2000/svg">
  <path d="M 559 418  C 562.36 418  565 420.64  565 424  C 565 427.36  562.36 430  559 430  C 555.64 430  553 427.36  553 424  C 553 420.64  555.64 418  559 418  Z " fill-rule="nonzero" fill="#f0f0f0" stroke="none" />
  <path d="M 559 418.5  C 562.08 418.5  564.5 420.92  564.5 424  C 564.5 427.08  562.08 429.5  559 429.5  C 555.92 429.5  553.5 427.08  553.5 424  C 553.5 420.92  555.92 418.5  559 418.5  Z " stroke-width="1" stroke="#797979" fill="none" />
  <path d="M 559 427  C 557.32 427  556 425.68  556 424  C 556 422.32  557.32 421  559 421  C 560.68 421  562 422.32  562 424  C 562 425.68  560.68 427  559 427  " fill-rule="nonzero" fill="#797979" stroke="none" />
</svg>