<?xml version="1.0" encoding="utf-8"?>
<svg version="1.1" xmlns:xlink="http://www.w3.org/1999/xlink" width="12px" height="12px" viewBox="1013 883  12 12" xmlns="http://www.w3.org/2000/svg">
  <path d="M 1019 883  C 1022.36 883  1025 885.64  1025 889  C 1025 892.36  1022.36 895  1019 895  C 1015.64 895  1013 892.36  1013 889  C 1013 885.64  1015.64 883  1019 883  Z " fill-rule="nonzero" fill="#ffffff" stroke="none" />
  <path d="M 1019 883.5  C 1022.08 883.5  1024.5 885.92  1024.5 889  C 1024.5 892.08  1022.08 894.5  1019 894.5  C 1015.92 894.5  1013.5 892.08  1013.5 889  C 1013.5 885.92  1015.92 883.5  1019 883.5  Z " stroke-width="1" stroke="#797979" fill="none" />
  <path d="M 1019 892  C 1017.32 892  1016 890.68  1016 889  C 1016 887.32  1017.32 886  1019 886  C 1020.68 886  1022 887.32  1022 889  C 1022 890.68  1020.68 892  1019 892  " fill-rule="nonzero" fill="#797979" stroke="none" />
</svg>