<?xml version="1.0" encoding="utf-8"?>
<svg version="1.1" xmlns:xlink="http://www.w3.org/1999/xlink" width="12px" height="12px" viewBox="553 930  12 12" xmlns="http://www.w3.org/2000/svg">
  <path d="M 559 930  C 562.36 930  565 932.64  565 936  C 565 939.36  562.36 942  559 942  C 555.64 942  553 939.36  553 936  C 553 932.64  555.64 930  559 930  Z " fill-rule="nonzero" fill="#ffffff" stroke="none" />
  <path d="M 559 930.5  C 562.08 930.5  564.5 932.92  564.5 936  C 564.5 939.08  562.08 941.5  559 941.5  C 555.92 941.5  553.5 939.08  553.5 936  C 553.5 932.92  555.92 930.5  559 930.5  Z " stroke-width="1" stroke="#797979" fill="none" />
  <path d="M 559 939  C 557.32 939  556 937.68  556 936  C 556 934.32  557.32 933  559 933  C 560.68 933  562 934.32  562 936  C 562 937.68  560.68 939  559 939  " fill-rule="nonzero" fill="#797979" stroke="none" />
</svg>