<?xml version="1.0" encoding="utf-8"?>
<svg version="1.1" xmlns:xlink="http://www.w3.org/1999/xlink" width="12px" height="12px" viewBox="1013 1355  12 12" xmlns="http://www.w3.org/2000/svg">
  <path d="M 1019 1355  C 1022.36 1355  1025 1357.64  1025 1361  C 1025 1364.36  1022.36 1367  1019 1367  C 1015.64 1367  1013 1364.36  1013 1361  C 1013 1357.64  1015.64 1355  1019 1355  Z " fill-rule="nonzero" fill="#f0f0f0" stroke="none" />
  <path d="M 1019 1355.5  C 1022.08 1355.5  1024.5 1357.92  1024.5 1361  C 1024.5 1364.08  1022.08 1366.5  1019 1366.5  C 1015.92 1366.5  1013.5 1364.08  1013.5 1361  C 1013.5 1357.92  1015.92 1355.5  1019 1355.5  Z " stroke-width="1" stroke="#797979" fill="none" />
  <path d="M 1019 1364  C 1017.32 1364  1016 1362.68  1016 1361  C 1016 1359.32  1017.32 1358  1019 1358  C 1020.68 1358  1022 1359.32  1022 1361  C 1022 1362.68  1020.68 1364  1019 1364  " fill-rule="nonzero" fill="#797979" stroke="none" />
</svg>