<?xml version="1.0" encoding="utf-8"?>
<svg version="1.1" xmlns:xlink="http://www.w3.org/1999/xlink" width="12px" height="12px" viewBox="1063 1355  12 12" xmlns="http://www.w3.org/2000/svg">
  <path d="M 1069 1355  C 1072.36 1355  1075 1357.64  1075 1361  C 1075 1364.36  1072.36 1367  1069 1367  C 1065.64 1367  1063 1364.36  1063 1361  C 1063 1357.64  1065.64 1355  1069 1355  Z " fill-rule="nonzero" fill="#ffffff" stroke="none" />
  <path d="M 1069 1355.5  C 1072.08 1355.5  1074.5 1357.92  1074.5 1361  C 1074.5 1364.08  1072.08 1366.5  1069 1366.5  C 1065.92 1366.5  1063.5 1364.08  1063.5 1361  C 1063.5 1357.92  1065.92 1355.5  1069 1355.5  Z " stroke-width="1" stroke="#797979" fill="none" />
  <path d="M 1069 1364  C 1067.32 1364  1066 1362.68  1066 1361  C 1066 1359.32  1067.32 1358  1069 1358  C 1070.68 1358  1072 1359.32  1072 1361  C 1072 1362.68  1070.68 1364  1069 1364  " fill-rule="nonzero" fill="#797979" stroke="none" />
</svg>