<?xml version="1.0" encoding="utf-8"?>
<svg version="1.1" xmlns:xlink="http://www.w3.org/1999/xlink" width="12px" height="12px" viewBox="1013 1783  12 12" xmlns="http://www.w3.org/2000/svg">
  <path d="M 1019 1783  C 1022.36 1783  1025 1785.64  1025 1789  C 1025 1792.36  1022.36 1795  1019 1795  C 1015.64 1795  1013 1792.36  1013 1789  C 1013 1785.64  1015.64 1783  1019 1783  Z " fill-rule="nonzero" fill="#ffffff" stroke="none" />
  <path d="M 1019 1783.5  C 1022.08 1783.5  1024.5 1785.92  1024.5 1789  C 1024.5 1792.08  1022.08 1794.5  1019 1794.5  C 1015.92 1794.5  1013.5 1792.08  1013.5 1789  C 1013.5 1785.92  1015.92 1783.5  1019 1783.5  Z " stroke-width="1" stroke="#797979" fill="none" />
  <path d="M 1019 1792  C 1017.32 1792  1016 1790.68  1016 1789  C 1016 1787.32  1017.32 1786  1019 1786  C 1020.68 1786  1022 1787.32  1022 1789  C 1022 1790.68  1020.68 1792  1019 1792  " fill-rule="nonzero" fill="#797979" stroke="none" />
</svg>