<?xml version="1.0" encoding="utf-8"?>
<svg version="1.1" xmlns:xlink="http://www.w3.org/1999/xlink" width="12px" height="12px" viewBox="1063 1783  12 12" xmlns="http://www.w3.org/2000/svg">
  <path d="M 1069 1783  C 1072.36 1783  1075 1785.64  1075 1789  C 1075 1792.36  1072.36 1795  1069 1795  C 1065.64 1795  1063 1792.36  1063 1789  C 1063 1785.64  1065.64 1783  1069 1783  Z " fill-rule="nonzero" fill="#ffffff" stroke="none" />
  <path d="M 1069 1783.5  C 1072.08 1783.5  1074.5 1785.92  1074.5 1789  C 1074.5 1792.08  1072.08 1794.5  1069 1794.5  C 1065.92 1794.5  1063.5 1792.08  1063.5 1789  C 1063.5 1785.92  1065.92 1783.5  1069 1783.5  Z " stroke-width="1" stroke="#797979" fill="none" />
  <path d="M 1069 1792  C 1067.32 1792  1066 1790.68  1066 1789  C 1066 1787.32  1067.32 1786  1069 1786  C 1070.68 1786  1072 1787.32  1072 1789  C 1072 1790.68  1070.68 1792  1069 1792  " fill-rule="nonzero" fill="#797979" stroke="none" />
</svg>