<?xml version="1.0" encoding="utf-8"?>
<svg version="1.1" xmlns:xlink="http://www.w3.org/1999/xlink" width="300px" height="170px" xmlns="http://www.w3.org/2000/svg">
  <g transform="matrix(1 0 0 1 -397 -528 )">
    <path d="M 398 533  A 4 4 0 0 1 402 529 L 692 529  A 4 4 0 0 1 696 533 L 696 693  A 4 4 0 0 1 692 697 L 402 697  A 4 4 0 0 1 398 693 L 398 533  Z " fill-rule="nonzero" fill="#ffffff" stroke="none" />
    <path d="M 397.5 533  A 4.5 4.5 0 0 1 402 528.5 L 692 528.5  A 4.5 4.5 0 0 1 696.5 533 L 696.5 693  A 4.5 4.5 0 0 1 692 697.5 L 402 697.5  A 4.5 4.5 0 0 1 397.5 693 L 397.5 533  Z " stroke-width="1" stroke-dasharray="3,1" stroke="#797979" fill="none" stroke-dashoffset="0.5" />
  </g>
</svg>