<?xml version="1.0" encoding="utf-8"?>
<svg version="1.1" xmlns:xlink="http://www.w3.org/1999/xlink" width="12px" height="12px" viewBox="601 2680  12 12" xmlns="http://www.w3.org/2000/svg">
  <path d="M 607 2680  C 610.36 2680  613 2682.64  613 2686  C 613 2689.36  610.36 2692  607 2692  C 603.64 2692  601 2689.36  601 2686  C 601 2682.64  603.64 2680  607 2680  Z " fill-rule="nonzero" fill="#ffffff" stroke="none" />
  <path d="M 607 2680.5  C 610.08 2680.5  612.5 2682.92  612.5 2686  C 612.5 2689.08  610.08 2691.5  607 2691.5  C 603.92 2691.5  601.5 2689.08  601.5 2686  C 601.5 2682.92  603.92 2680.5  607 2680.5  Z " stroke-width="1" stroke="#ea8d08" fill="none" />
  <path d="M 607 2689  C 605.32 2689  604 2687.68  604 2686  C 604 2684.32  605.32 2683  607 2683  C 608.68 2683  610 2684.32  610 2686  C 610 2687.68  608.68 2689  607 2689  " fill-rule="nonzero" fill="#ea8d08" stroke="none" />
</svg>