<?xml version="1.0" encoding="utf-8"?>
<svg version="1.1" xmlns:xlink="http://www.w3.org/1999/xlink" width="12px" height="12px" viewBox="1988 431  12 12" xmlns="http://www.w3.org/2000/svg">
  <path d="M 1994 431  C 1997.36 431  2000 433.64  2000 437  C 2000 440.36  1997.36 443  1994 443  C 1990.64 443  1988 440.36  1988 437  C 1988 433.64  1990.64 431  1994 431  Z " fill-rule="nonzero" fill="#f0f0f0" stroke="none" />
  <path d="M 1994 431.5  C 1997.08 431.5  1999.5 433.92  1999.5 437  C 1999.5 440.08  1997.08 442.5  1994 442.5  C 1990.92 442.5  1988.5 440.08  1988.5 437  C 1988.5 433.92  1990.92 431.5  1994 431.5  Z " stroke-width="1" stroke="#797979" fill="none" />
  <path d="M 1994 440  C 1992.32 440  1991 438.68  1991 437  C 1991 435.32  1992.32 434  1994 434  C 1995.68 434  1997 435.32  1997 437  C 1997 438.68  1995.68 440  1994 440  " fill-rule="nonzero" fill="#797979" stroke="none" />
</svg>