<?xml version="1.0" encoding="utf-8"?>
<svg version="1.1" xmlns:xlink="http://www.w3.org/1999/xlink" width="12px" height="12px" viewBox="2045 431  12 12" xmlns="http://www.w3.org/2000/svg">
  <path d="M 2051 431  C 2054.36 431  2057 433.64  2057 437  C 2057 440.36  2054.36 443  2051 443  C 2047.64 443  2045 440.36  2045 437  C 2045 433.64  2047.64 431  2051 431  Z " fill-rule="nonzero" fill="#ffffff" stroke="none" />
  <path d="M 2051 431.5  C 2054.08 431.5  2056.5 433.92  2056.5 437  C 2056.5 440.08  2054.08 442.5  2051 442.5  C 2047.92 442.5  2045.5 440.08  2045.5 437  C 2045.5 433.92  2047.92 431.5  2051 431.5  Z " stroke-width="1" stroke="#797979" fill="none" />
  <path d="M 2051 440  C 2049.32 440  2048 438.68  2048 437  C 2048 435.32  2049.32 434  2051 434  C 2052.68 434  2054 435.32  2054 437  C 2054 438.68  2052.68 440  2051 440  " fill-rule="nonzero" fill="#797979" stroke="none" />
</svg>