<?xml version="1.0" encoding="utf-8"?>
<svg version="1.1" xmlns:xlink="http://www.w3.org/1999/xlink" width="12px" height="12px" viewBox="2505 896  12 12" xmlns="http://www.w3.org/2000/svg">
  <path d="M 2511 896  C 2514.36 896  2517 898.64  2517 902  C 2517 905.36  2514.36 908  2511 908  C 2507.64 908  2505 905.36  2505 902  C 2505 898.64  2507.64 896  2511 896  Z " fill-rule="nonzero" fill="#ffffff" stroke="none" />
  <path d="M 2511 896.5  C 2514.08 896.5  2516.5 898.92  2516.5 902  C 2516.5 905.08  2514.08 907.5  2511 907.5  C 2507.92 907.5  2505.5 905.08  2505.5 902  C 2505.5 898.92  2507.92 896.5  2511 896.5  Z " stroke-width="1" stroke="#797979" fill="none" />
  <path d="M 2511 905  C 2509.32 905  2508 903.68  2508 902  C 2508 900.32  2509.32 899  2511 899  C 2512.68 899  2514 900.32  2514 902  C 2514 903.68  2512.68 905  2511 905  " fill-rule="nonzero" fill="#797979" stroke="none" />
</svg>