<?xml version="1.0" encoding="utf-8"?>
<svg version="1.1" xmlns:xlink="http://www.w3.org/1999/xlink" width="12px" height="12px" viewBox="1988 943  12 12" xmlns="http://www.w3.org/2000/svg">
  <path d="M 1994 943  C 1997.36 943  2000 945.64  2000 949  C 2000 952.36  1997.36 955  1994 955  C 1990.64 955  1988 952.36  1988 949  C 1988 945.64  1990.64 943  1994 943  Z " fill-rule="nonzero" fill="#f0f0f0" stroke="none" />
  <path d="M 1994 943.5  C 1997.08 943.5  1999.5 945.92  1999.5 949  C 1999.5 952.08  1997.08 954.5  1994 954.5  C 1990.92 954.5  1988.5 952.08  1988.5 949  C 1988.5 945.92  1990.92 943.5  1994 943.5  Z " stroke-width="1" stroke="#797979" fill="none" />
  <path d="M 1994 952  C 1992.32 952  1991 950.68  1991 949  C 1991 947.32  1992.32 946  1994 946  C 1995.68 946  1997 947.32  1997 949  C 1997 950.68  1995.68 952  1994 952  " fill-rule="nonzero" fill="#797979" stroke="none" />
</svg>