<?xml version="1.0" encoding="utf-8"?>
<svg version="1.1" xmlns:xlink="http://www.w3.org/1999/xlink" width="12px" height="12px" viewBox="2045 943  12 12" xmlns="http://www.w3.org/2000/svg">
  <path d="M 2051 943  C 2054.36 943  2057 945.64  2057 949  C 2057 952.36  2054.36 955  2051 955  C 2047.64 955  2045 952.36  2045 949  C 2045 945.64  2047.64 943  2051 943  Z " fill-rule="nonzero" fill="#f0f0f0" stroke="none" />
  <path d="M 2051 943.5  C 2054.08 943.5  2056.5 945.92  2056.5 949  C 2056.5 952.08  2054.08 954.5  2051 954.5  C 2047.92 954.5  2045.5 952.08  2045.5 949  C 2045.5 945.92  2047.92 943.5  2051 943.5  Z " stroke-width="1" stroke="#797979" fill="none" />
  <path d="M 2051 952  C 2049.32 952  2048 950.68  2048 949  C 2048 947.32  2049.32 946  2051 946  C 2052.68 946  2054 947.32  2054 949  C 2054 950.68  2052.68 952  2051 952  " fill-rule="nonzero" fill="#797979" stroke="none" />
</svg>