<?xml version="1.0" encoding="utf-8"?>
<svg version="1.1" xmlns:xlink="http://www.w3.org/1999/xlink" width="12px" height="12px" viewBox="2555 1368  12 12" xmlns="http://www.w3.org/2000/svg">
  <path d="M 2561 1368  C 2564.36 1368  2567 1370.64  2567 1374  C 2567 1377.36  2564.36 1380  2561 1380  C 2557.64 1380  2555 1377.36  2555 1374  C 2555 1370.64  2557.64 1368  2561 1368  Z " fill-rule="nonzero" fill="#ffffff" stroke="none" />
  <path d="M 2561 1368.5  C 2564.08 1368.5  2566.5 1370.92  2566.5 1374  C 2566.5 1377.08  2564.08 1379.5  2561 1379.5  C 2557.92 1379.5  2555.5 1377.08  2555.5 1374  C 2555.5 1370.92  2557.92 1368.5  2561 1368.5  Z " stroke-width="1" stroke="#797979" fill="none" />
  <path d="M 2561 1377  C 2559.32 1377  2558 1375.68  2558 1374  C 2558 1372.32  2559.32 1371  2561 1371  C 2562.68 1371  2564 1372.32  2564 1374  C 2564 1375.68  2562.68 1377  2561 1377  " fill-rule="nonzero" fill="#797979" stroke="none" />
</svg>