<?xml version="1.0" encoding="utf-8"?>
<svg version="1.1" xmlns:xlink="http://www.w3.org/1999/xlink" width="12px" height="12px" viewBox="2505 1796  12 12" xmlns="http://www.w3.org/2000/svg">
  <path d="M 2511 1796  C 2514.36 1796  2517 1798.64  2517 1802  C 2517 1805.36  2514.36 1808  2511 1808  C 2507.64 1808  2505 1805.36  2505 1802  C 2505 1798.64  2507.64 1796  2511 1796  Z " fill-rule="nonzero" fill="#ffffff" stroke="none" />
  <path d="M 2511 1796.5  C 2514.08 1796.5  2516.5 1798.92  2516.5 1802  C 2516.5 1805.08  2514.08 1807.5  2511 1807.5  C 2507.92 1807.5  2505.5 1805.08  2505.5 1802  C 2505.5 1798.92  2507.92 1796.5  2511 1796.5  Z " stroke-width="1" stroke="#797979" fill="none" />
  <path d="M 2511 1805  C 2509.32 1805  2508 1803.68  2508 1802  C 2508 1800.32  2509.32 1799  2511 1799  C 2512.68 1799  2514 1800.32  2514 1802  C 2514 1803.68  2512.68 1805  2511 1805  " fill-rule="nonzero" fill="#797979" stroke="none" />
</svg>