<?xml version="1.0" encoding="utf-8"?>
<svg version="1.1" xmlns:xlink="http://www.w3.org/1999/xlink" width="10px" height="10px" xmlns="http://www.w3.org/2000/svg">
  <g transform="matrix(1 0 0 1 -1992 -2732 )">
    <path d="M 1997 2733  C 1999.24 2733  2001 2734.76  2001 2737  C 2001 2739.24  1999.24 2741  1997 2741  C 1994.76 2741  1993 2739.24  1993 2737  C 1993 2734.76  1994.76 2733  1997 2733  Z " fill-rule="nonzero" fill="#ffffff" stroke="none" />
    <path d="M 1997 2733  C 1999.24 2733  2001 2734.76  2001 2737  C 2001 2739.24  1999.24 2741  1997 2741  C 1994.76 2741  1993 2739.24  1993 2737  C 1993 2734.76  1994.76 2733  1997 2733  Z " stroke-width="2" stroke="#1890ff" fill="none" />
  </g>
</svg>