<?xml version="1.0" encoding="utf-8"?>
<svg version="1.1" xmlns:xlink="http://www.w3.org/1999/xlink" width="10px" height="10px" xmlns="http://www.w3.org/2000/svg">
  <g transform="matrix(1 0 0 1 -1992 -2943 )">
    <path d="M 1997 2944  C 1999.24 2944  2001 2945.76  2001 2948  C 2001 2950.24  1999.24 2952  1997 2952  C 1994.76 2952  1993 2950.24  1993 2948  C 1993 2945.76  1994.76 2944  1997 2944  Z " fill-rule="nonzero" fill="#ffffff" stroke="none" />
    <path d="M 1997 2944  C 1999.24 2944  2001 2945.76  2001 2948  C 2001 2950.24  1999.24 2952  1997 2952  C 1994.76 2952  1993 2950.24  1993 2948  C 1993 2945.76  1994.76 2944  1997 2944  Z " stroke-width="2" stroke="#aaaaaa" fill="none" />
  </g>
</svg>