<?xml version="1.0" encoding="utf-8"?>
<svg version="1.1" xmlns:xlink="http://www.w3.org/1999/xlink" width="421px" height="129px" xmlns="http://www.w3.org/2000/svg">
  <g transform="matrix(1 0 0 1 -375 -1224 )">
    <path d="M 376 1229  A 4 4 0 0 1 380 1225 L 791 1225  A 4 4 0 0 1 795 1229 L 795 1348  A 4 4 0 0 1 791 1352 L 380 1352  A 4 4 0 0 1 376 1348 L 376 1229  Z " fill-rule="nonzero" fill="#ffffff" stroke="none" />
    <path d="M 375.5 1229  A 4.5 4.5 0 0 1 380 1224.5 L 791 1224.5  A 4.5 4.5 0 0 1 795.5 1229 L 795.5 1348  A 4.5 4.5 0 0 1 791 1352.5 L 380 1352.5  A 4.5 4.5 0 0 1 375.5 1348 L 375.5 1229  Z " stroke-width="1" stroke-dasharray="3,1" stroke="#797979" fill="none" stroke-dashoffset="0.5" />
  </g>
</svg>