<?xml version="1.0" encoding="utf-8"?>
<svg version="1.1" xmlns:xlink="http://www.w3.org/1999/xlink" width="12px" height="12px" viewBox="363 187  12 12" xmlns="http://www.w3.org/2000/svg">
  <path d="M 363.5 189  A 1.5 1.5 0 0 1 365 187.5 L 373 187.5  A 1.5 1.5 0 0 1 374.5 189 L 374.5 197  A 1.5 1.5 0 0 1 373 198.5 L 365 198.5  A 1.5 1.5 0 0 1 363.5 197 L 363.5 189  Z " fill-rule="nonzero" fill="#f0f0f0" stroke="none" />
  <path d="M 363.5 189  A 1.5 1.5 0 0 1 365 187.5 L 373 187.5  A 1.5 1.5 0 0 1 374.5 189 L 374.5 197  A 1.5 1.5 0 0 1 373 198.5 L 365 198.5  A 1.5 1.5 0 0 1 363.5 197 L 363.5 189  Z " stroke-width="1" stroke="#797979" fill="none" />
</svg>