<?xml version="1.0" encoding="utf-8"?>
<svg version="1.1" xmlns:xlink="http://www.w3.org/1999/xlink" width="12px" height="12px" viewBox="363 249  12 12" xmlns="http://www.w3.org/2000/svg">
  <path d="M 363.5 251  A 1.5 1.5 0 0 1 365 249.5 L 373 249.5  A 1.5 1.5 0 0 1 374.5 251 L 374.5 259  A 1.5 1.5 0 0 1 373 260.5 L 365 260.5  A 1.5 1.5 0 0 1 363.5 259 L 363.5 251  Z " fill-rule="nonzero" fill="#ffffff" stroke="none" />
  <path d="M 363.5 251  A 1.5 1.5 0 0 1 365 249.5 L 373 249.5  A 1.5 1.5 0 0 1 374.5 251 L 374.5 259  A 1.5 1.5 0 0 1 373 260.5 L 365 260.5  A 1.5 1.5 0 0 1 363.5 259 L 363.5 251  Z " stroke-width="1" stroke="#797979" fill="none" />
</svg>