<?xml version="1.0" encoding="utf-8"?>
<svg version="1.1" xmlns:xlink="http://www.w3.org/1999/xlink" width="12px" height="12px" viewBox="2480 405  12 12" xmlns="http://www.w3.org/2000/svg">
  <path d="M 2480.5 407  A 1.5 1.5 0 0 1 2482 405.5 L 2490 405.5  A 1.5 1.5 0 0 1 2491.5 407 L 2491.5 415  A 1.5 1.5 0 0 1 2490 416.5 L 2482 416.5  A 1.5 1.5 0 0 1 2480.5 415 L 2480.5 407  Z " fill-rule="nonzero" fill="#f0f0f0" stroke="none" />
  <path d="M 2480.5 407  A 1.5 1.5 0 0 1 2482 405.5 L 2490 405.5  A 1.5 1.5 0 0 1 2491.5 407 L 2491.5 415  A 1.5 1.5 0 0 1 2490 416.5 L 2482 416.5  A 1.5 1.5 0 0 1 2480.5 415 L 2480.5 407  Z " stroke-width="1" stroke="#7f7f7f" fill="none" />
  <path d="M 2482.57142857143 411  L 2485.14285714286 413.571428571429  " stroke-width="2.57142857142857" stroke="#7f7f7f" fill="none" />
  <path d="M 2485.14285714286 413.571428571429  L 2489.42857142857 407.571428571429  " stroke-width="2.57142857142857" stroke="#7f7f7f" fill="none" />
</svg>