<?xml version="1.0" encoding="utf-8"?>
<svg version="1.1" xmlns:xlink="http://www.w3.org/1999/xlink" width="12px" height="12px" viewBox="589 609  12 12" xmlns="http://www.w3.org/2000/svg">
  <path d="M 589.5 611  A 1.5 1.5 0 0 1 591 609.5 L 599 609.5  A 1.5 1.5 0 0 1 600.5 611 L 600.5 619  A 1.5 1.5 0 0 1 599 620.5 L 591 620.5  A 1.5 1.5 0 0 1 589.5 619 L 589.5 611  Z " fill-rule="nonzero" fill="#f0f0f0" stroke="none" />
  <path d="M 589.5 611  A 1.5 1.5 0 0 1 591 609.5 L 599 609.5  A 1.5 1.5 0 0 1 600.5 611 L 600.5 619  A 1.5 1.5 0 0 1 599 620.5 L 591 620.5  A 1.5 1.5 0 0 1 589.5 619 L 589.5 611  Z " stroke-width="1" stroke="#7f7f7f" fill="none" />
  <path d="M 591.571428571429 615  L 594.142857142857 617.571428571429  " stroke-width="2.57142857142857" stroke="#7f7f7f" fill="none" />
  <path d="M 594.142857142857 617.571428571429  L 598.428571428571 611.571428571429  " stroke-width="2.57142857142857" stroke="#7f7f7f" fill="none" />
</svg>