<?xml version="1.0" encoding="utf-8"?>
<svg version="1.1" xmlns:xlink="http://www.w3.org/1999/xlink" width="12px" height="12px" viewBox="708 692  12 12" xmlns="http://www.w3.org/2000/svg">
  <path d="M 708.5 694  A 1.5 1.5 0 0 1 710 692.5 L 718 692.5  A 1.5 1.5 0 0 1 719.5 694 L 719.5 702  A 1.5 1.5 0 0 1 718 703.5 L 710 703.5  A 1.5 1.5 0 0 1 708.5 702 L 708.5 694  Z " fill-rule="nonzero" fill="#ffffff" stroke="none" />
  <path d="M 708.5 694  A 1.5 1.5 0 0 1 710 692.5 L 718 692.5  A 1.5 1.5 0 0 1 719.5 694 L 719.5 702  A 1.5 1.5 0 0 1 718 703.5 L 710 703.5  A 1.5 1.5 0 0 1 708.5 702 L 708.5 694  Z " stroke-width="1" stroke="#7f7f7f" fill="none" />
</svg>