<?xml version="1.0" encoding="utf-8"?>
<svg version="1.1" xmlns:xlink="http://www.w3.org/1999/xlink" width="12px" height="12px" viewBox="2211 356  12 12" xmlns="http://www.w3.org/2000/svg">
  <path d="M 2211.5 358  A 1.5 1.5 0 0 1 2213 356.5 L 2221 356.5  A 1.5 1.5 0 0 1 2222.5 358 L 2222.5 366  A 1.5 1.5 0 0 1 2221 367.5 L 2213 367.5  A 1.5 1.5 0 0 1 2211.5 366 L 2211.5 358  Z " fill-rule="nonzero" fill="#f0f0f0" stroke="none" />
  <path d="M 2211.5 358  A 1.5 1.5 0 0 1 2213 356.5 L 2221 356.5  A 1.5 1.5 0 0 1 2222.5 358 L 2222.5 366  A 1.5 1.5 0 0 1 2221 367.5 L 2213 367.5  A 1.5 1.5 0 0 1 2211.5 366 L 2211.5 358  Z " stroke-width="1" stroke="#7f7f7f" fill="none" />
</svg>