<?xml version="1.0" encoding="utf-8"?>
<svg version="1.1" xmlns:xlink="http://www.w3.org/1999/xlink" width="12px" height="12px" viewBox="1972 557  12 12" xmlns="http://www.w3.org/2000/svg">
  <path d="M 1972.5 559  A 1.5 1.5 0 0 1 1974 557.5 L 1982 557.5  A 1.5 1.5 0 0 1 1983.5 559 L 1983.5 567  A 1.5 1.5 0 0 1 1982 568.5 L 1974 568.5  A 1.5 1.5 0 0 1 1972.5 567 L 1972.5 559  Z " fill-rule="nonzero" fill="#f0f0f0" stroke="none" />
  <path d="M 1972.5 559  A 1.5 1.5 0 0 1 1974 557.5 L 1982 557.5  A 1.5 1.5 0 0 1 1983.5 559 L 1983.5 567  A 1.5 1.5 0 0 1 1982 568.5 L 1974 568.5  A 1.5 1.5 0 0 1 1972.5 567 L 1972.5 559  Z " stroke-width="1" stroke="#7f7f7f" fill="none" />
  <path d="M 1974.57142857143 563  L 1977.14285714286 565.571428571429  " stroke-width="2.57142857142857" stroke="#7f7f7f" fill="none" />
  <path d="M 1977.14285714286 565.571428571429  L 1981.42857142857 559.571428571429  " stroke-width="2.57142857142857" stroke="#7f7f7f" fill="none" />
</svg>