<?xml version="1.0" encoding="utf-8"?>
<svg version="1.1" xmlns:xlink="http://www.w3.org/1999/xlink" width="12px" height="12px" viewBox="2090 907  12 12" xmlns="http://www.w3.org/2000/svg">
  <path d="M 2090.5 909  A 1.5 1.5 0 0 1 2092 907.5 L 2100 907.5  A 1.5 1.5 0 0 1 2101.5 909 L 2101.5 917  A 1.5 1.5 0 0 1 2100 918.5 L 2092 918.5  A 1.5 1.5 0 0 1 2090.5 917 L 2090.5 909  Z " fill-rule="nonzero" fill="#ffffff" stroke="none" />
  <path d="M 2090.5 909  A 1.5 1.5 0 0 1 2092 907.5 L 2100 907.5  A 1.5 1.5 0 0 1 2101.5 909 L 2101.5 917  A 1.5 1.5 0 0 1 2100 918.5 L 2092 918.5  A 1.5 1.5 0 0 1 2090.5 917 L 2090.5 909  Z " stroke-width="1" stroke="#7f7f7f" fill="none" />
</svg>