<?xml version="1.0" encoding="utf-8"?>
<svg version="1.1" xmlns:xlink="http://www.w3.org/1999/xlink" width="277px" height="55px" xmlns="http://www.w3.org/2000/svg">
  <defs>
    <filter x="819px" y="491px" width="277px" height="55px" filterUnits="userSpaceOnUse" id="filter256">
      <feOffset dx="0" dy="0" in="SourceAlpha" result="shadowOffsetInner" />
      <feGaussianBlur stdDeviation="1.5" in="shadowOffsetInner" result="shadowGaussian" />
      <feComposite in2="shadowGaussian" operator="atop" in="SourceAlpha" result="shadowComposite" />
      <feColorMatrix type="matrix" values="0 0 0 0 0  0 0 0 0 0  0 0 0 0 0  0 0 0 0.349019607843137 0  " in="shadowComposite" />
    </filter>
    <g id="widget257">
      <path d="M 0 42.3729508196721  L 0 10.2618852459016  C 0 6.57322950819665  5.71209580838319 3.675  12.9820359281437 4  L 65.2834174860484 4  L 68.6121105748135 0.227906976744204  L 71.3371727365803 4  L 258.017964071856 4  C 265.287904191617 3.675  271 6.57322950819665  271 10.2618852459016  L 271 42.3729508196721  C 271 46.061606557377  265.287904191617 48.9598360655738  258.017964071856 49  L 107.66142557652 49  L 86.356394129979 49  L 12.9820359281437 49  C 5.71209580838319 48.9598360655738  0 46.061606557377  0 42.3729508196721  Z " fill-rule="nonzero" fill="#ffffff" stroke="none" transform="matrix(1 0 0 1 822 494 )" />
    </g>
  </defs>
  <g transform="matrix(1 0 0 1 -819 -491 )">
    <use xlink:href="#widget257" filter="url(#filter256)" />
    <use xlink:href="#widget257" />
  </g>
</svg>