<?xml version="1.0" encoding="utf-8"?>
<svg version="1.1" xmlns:xlink="http://www.w3.org/1999/xlink" width="12px" height="12px" viewBox="65 387  12 12" xmlns="http://www.w3.org/2000/svg">
  <path d="M 65.5 389  A 1.5 1.5 0 0 1 67 387.5 L 75 387.5  A 1.5 1.5 0 0 1 76.5 389 L 76.5 397  A 1.5 1.5 0 0 1 75 398.5 L 67 398.5  A 1.5 1.5 0 0 1 65.5 397 L 65.5 389  Z " fill-rule="nonzero" fill="#ffffff" stroke="none" />
  <path d="M 65.5 389  A 1.5 1.5 0 0 1 67 387.5 L 75 387.5  A 1.5 1.5 0 0 1 76.5 389 L 76.5 397  A 1.5 1.5 0 0 1 75 398.5 L 67 398.5  A 1.5 1.5 0 0 1 65.5 397 L 65.5 389  Z " stroke-width="1" stroke="#797979" fill="none" />
</svg>