<svg t="1601001308002" class="icon" viewBox="0 0 1024 1024" version="1.1" xmlns="http://www.w3.org/2000/svg" p-id="1844" width="50" height="50"><path d="M179.4 922.9c-5.5 0-11-1.2-16.2-3.7-12.8-6.2-21-19.2-21-33.5V170.6c0-41 33.3-74.3 74.3-74.3h594.4c41 0 74.3 33.3 74.3 74.3v713.3c0 14.3-8.2 27.3-21 33.5-12.8 6.2-28.1 4.5-39.3-4.4l-59.2-47.1-60.4 48.1c-13.5 10.7-32.7 10.7-46.2 0l-60.6-48.1-61.8 49c-13.5 10.7-32.6 10.7-46.1 0l-61.9-49-59 47.1c-13.5 10.8-32.7 10.8-46.3 0l-59.2-47.1-61.8 49c-6.7 5.3-14.8 8-23 8z m250-136.7c10.7 0 21.2 3.2 30.2 9.5l54.1 42.8L566 797c20.3-14.3 45-14.2 63.5-1.4l52.8 41.8 50.9-40.4c20.2-14.2 45-14.2 63.5-1.4L811 807V170.6H216.5V809l15.1-12c20.3-14.3 45-14.2 63.5-1.4l51.4 40.9 49.6-39.5c10.4-7.3 22-10.8 33.3-10.8z" fill="#707070" p-id="1845" data-spm-anchor-id="a313x.7781069.0.i14" class="selected"></path><path d="M625.2 328.5H290.8c-10.3 0-18.6-8.3-18.6-18.6s8.3-18.6 18.6-18.6h334.4c10.3 0 18.6 8.3 18.6 18.6s-8.3 18.6-18.6 18.6z" fill="#FFAF00" p-id="1846"></path><path d="M569.5 449.3H290.8c-10.3 0-18.6-8.3-18.6-18.6s8.3-18.6 18.6-18.6h278.6c10.3 0 18.6 8.3 18.6 18.6 0 10.2-8.3 18.6-18.5 18.6z" fill="#333333" p-id="1847"></path><path d="M680.9 570H290.8c-10.3 0-18.6-8.3-18.6-18.6s8.3-18.6 18.6-18.6h390.1c10.3 0 18.6 8.3 18.6 18.6s-8.3 18.6-18.6 18.6z" fill="#FFAF00" p-id="1848"></path></svg>