<?xml version="1.0" encoding="utf-8"?>
<svg version="1.1" xmlns:xlink="http://www.w3.org/1999/xlink" width="12px" height="12px" viewBox="65 473  12 12" xmlns="http://www.w3.org/2000/svg">
  <path d="M 65.5 475  A 1.5 1.5 0 0 1 67 473.5 L 75 473.5  A 1.5 1.5 0 0 1 76.5 475 L 76.5 483  A 1.5 1.5 0 0 1 75 484.5 L 67 484.5  A 1.5 1.5 0 0 1 65.5 483 L 65.5 475  Z " fill-rule="nonzero" fill="#ffffff" stroke="none" />
  <path d="M 65.5 475  A 1.5 1.5 0 0 1 67 473.5 L 75 473.5  A 1.5 1.5 0 0 1 76.5 475 L 76.5 483  A 1.5 1.5 0 0 1 75 484.5 L 67 484.5  A 1.5 1.5 0 0 1 65.5 483 L 65.5 475  Z " stroke-width="1" stroke="#797979" fill="none" />
  <path d="M 67.5714285714286 479  L 70.1428571428571 481.571428571429  " stroke-width="2.57142857142857" stroke="#797979" fill="none" />
  <path d="M 70.1428571428571 481.571428571429  L 74.4285714285714 475.571428571429  " stroke-width="2.57142857142857" stroke="#797979" fill="none" />
</svg>