<?xml version="1.0" encoding="utf-8"?>
<svg version="1.1" xmlns:xlink="http://www.w3.org/1999/xlink" width="32px" height="32px" xmlns="http://www.w3.org/2000/svg">
  <g transform="matrix(1 0 0 1 -1206 -219 )">
    <path d="M 1222 219  C 1230.96 219  1238 226.04  1238 235  C 1238 243.96  1230.96 251  1222 251  C 1213.04 251  1206 243.96  1206 235  C 1206 226.04  1213.04 219  1222 219  Z " fill-rule="nonzero" fill="#ffffff" stroke="none" />
    <path d="M 1222 219.5  C 1230.68 219.5  1237.5 226.32  1237.5 235  C 1237.5 243.68  1230.68 250.5  1222 250.5  C 1213.32 250.5  1206.5 243.68  1206.5 235  C 1206.5 226.32  1213.32 219.5  1222 219.5  Z " stroke-width="1" stroke="#cccccc" fill="none" />
  </g>
</svg>