<?xml version="1.0" encoding="utf-8"?>
<svg version="1.1" xmlns:xlink="http://www.w3.org/1999/xlink" width="12px" height="12px" viewBox="854 8153.5  12 12" xmlns="http://www.w3.org/2000/svg">
  <path d="M 860 8153.5  C 863.36 8153.5  866 8156.14  866 8159.5  C 866 8162.86  863.36 8165.5  860 8165.5  C 856.64 8165.5  854 8162.86  854 8159.5  C 854 8156.14  856.64 8153.5  860 8153.5  Z " fill-rule="nonzero" fill="#f0f0f0" stroke="none" />
  <path d="M 860 8154  C 863.08 8154  865.5 8156.42  865.5 8159.5  C 865.5 8162.58  863.08 8165  860 8165  C 856.92 8165  854.5 8162.58  854.5 8159.5  C 854.5 8156.42  856.92 8154  860 8154  Z " stroke-width="1" stroke="#797979" fill="none" />
  <path d="M 860 8162.5  C 858.32 8162.5  857 8161.18  857 8159.5  C 857 8157.82  858.32 8156.5  860 8156.5  C 861.68 8156.5  863 8157.82  863 8159.5  C 863 8161.18  861.68 8162.5  860 8162.5  " fill-rule="nonzero" fill="#797979" stroke="none" />
</svg>