<?xml version="1.0" encoding="utf-8"?>
<svg version="1.1" xmlns:xlink="http://www.w3.org/1999/xlink" width="12px" height="12px" viewBox="807 8153.5  12 12" xmlns="http://www.w3.org/2000/svg">
  <path d="M 813 8153.5  C 816.36 8153.5  819 8156.14  819 8159.5  C 819 8162.86  816.36 8165.5  813 8165.5  C 809.64 8165.5  807 8162.86  807 8159.5  C 807 8156.14  809.64 8153.5  813 8153.5  Z " fill-rule="nonzero" fill="#ffffff" stroke="none" />
  <path d="M 813 8154  C 816.08 8154  818.5 8156.42  818.5 8159.5  C 818.5 8162.58  816.08 8165  813 8165  C 809.92 8165  807.5 8162.58  807.5 8159.5  C 807.5 8156.42  809.92 8154  813 8154  Z " stroke-width="1" stroke="#797979" fill="none" />
  <path d="M 813 8162.5  C 811.32 8162.5  810 8161.18  810 8159.5  C 810 8157.82  811.32 8156.5  813 8156.5  C 814.68 8156.5  816 8157.82  816 8159.5  C 816 8161.18  814.68 8162.5  813 8162.5  " fill-rule="nonzero" fill="#797979" stroke="none" />
</svg>