<?xml version="1.0" encoding="utf-8"?>
<svg version="1.1" xmlns:xlink="http://www.w3.org/1999/xlink" width="12px" height="12px" viewBox="455 8111  12 12" xmlns="http://www.w3.org/2000/svg">
  <path d="M 455.5 8113  A 1.5 1.5 0 0 1 457 8111.5 L 465 8111.5  A 1.5 1.5 0 0 1 466.5 8113 L 466.5 8121  A 1.5 1.5 0 0 1 465 8122.5 L 457 8122.5  A 1.5 1.5 0 0 1 455.5 8121 L 455.5 8113  Z " fill-rule="nonzero" fill="#f0f0f0" stroke="none" />
  <path d="M 455.5 8113  A 1.5 1.5 0 0 1 457 8111.5 L 465 8111.5  A 1.5 1.5 0 0 1 466.5 8113 L 466.5 8121  A 1.5 1.5 0 0 1 465 8122.5 L 457 8122.5  A 1.5 1.5 0 0 1 455.5 8121 L 455.5 8113  Z " stroke-width="1" stroke="#797979" fill="none" />
</svg>