<?xml version="1.0" encoding="utf-8"?>
<svg version="1.1" xmlns:xlink="http://www.w3.org/1999/xlink" width="12px" height="12px" viewBox="853 8198.5  12 12" xmlns="http://www.w3.org/2000/svg">
  <path d="M 859 8198.5  C 862.36 8198.5  865 8201.14  865 8204.5  C 865 8207.86  862.36 8210.5  859 8210.5  C 855.64 8210.5  853 8207.86  853 8204.5  C 853 8201.14  855.64 8198.5  859 8198.5  Z " fill-rule="nonzero" fill="#f0f0f0" stroke="none" />
  <path d="M 859 8199  C 862.08 8199  864.5 8201.42  864.5 8204.5  C 864.5 8207.58  862.08 8210  859 8210  C 855.92 8210  853.5 8207.58  853.5 8204.5  C 853.5 8201.42  855.92 8199  859 8199  Z " stroke-width="1" stroke="#797979" fill="none" />
  <path d="M 859 8207.5  C 857.32 8207.5  856 8206.18  856 8204.5  C 856 8202.82  857.32 8201.5  859 8201.5  C 860.68 8201.5  862 8202.82  862 8204.5  C 862 8206.18  860.68 8207.5  859 8207.5  " fill-rule="nonzero" fill="#797979" stroke="none" />
</svg>