<?xml version="1.0" encoding="utf-8"?>
<svg version="1.1" xmlns:xlink="http://www.w3.org/1999/xlink" width="12px" height="12px" viewBox="452 8283  12 12" xmlns="http://www.w3.org/2000/svg">
  <path d="M 452.5 8285  A 1.5 1.5 0 0 1 454 8283.5 L 462 8283.5  A 1.5 1.5 0 0 1 463.5 8285 L 463.5 8293  A 1.5 1.5 0 0 1 462 8294.5 L 454 8294.5  A 1.5 1.5 0 0 1 452.5 8293 L 452.5 8285  Z " fill-rule="nonzero" fill="#ffffff" stroke="none" />
  <path d="M 452.5 8285  A 1.5 1.5 0 0 1 454 8283.5 L 462 8283.5  A 1.5 1.5 0 0 1 463.5 8285 L 463.5 8293  A 1.5 1.5 0 0 1 462 8294.5 L 454 8294.5  A 1.5 1.5 0 0 1 452.5 8293 L 452.5 8285  Z " stroke-width="1" stroke="#797979" fill="none" />
  <path d="M 454.571428571429 8289  L 457.142857142857 8291.57142857143  " stroke-width="2.57142857142857" stroke="#797979" fill="none" />
  <path d="M 457.142857142857 8291.57142857143  L 461.428571428571 8285.57142857143  " stroke-width="2.57142857142857" stroke="#797979" fill="none" />
</svg>