<?xml version="1.0" encoding="utf-8"?>
<svg version="1.1" xmlns:xlink="http://www.w3.org/1999/xlink" width="12px" height="12px" viewBox="806 8285.5  12 12" xmlns="http://www.w3.org/2000/svg">
  <path d="M 812 8285.5  C 815.36 8285.5  818 8288.14  818 8291.5  C 818 8294.86  815.36 8297.5  812 8297.5  C 808.64 8297.5  806 8294.86  806 8291.5  C 806 8288.14  808.64 8285.5  812 8285.5  Z " fill-rule="nonzero" fill="#f0f0f0" stroke="none" />
  <path d="M 812 8286  C 815.08 8286  817.5 8288.42  817.5 8291.5  C 817.5 8294.58  815.08 8297  812 8297  C 808.92 8297  806.5 8294.58  806.5 8291.5  C 806.5 8288.42  808.92 8286  812 8286  Z " stroke-width="1" stroke="#797979" fill="none" />
  <path d="M 812 8294.5  C 810.32 8294.5  809 8293.18  809 8291.5  C 809 8289.82  810.32 8288.5  812 8288.5  C 813.68 8288.5  815 8289.82  815 8291.5  C 815 8293.18  813.68 8294.5  812 8294.5  " fill-rule="nonzero" fill="#797979" stroke="none" />
</svg>