<?xml version="1.0" encoding="utf-8"?>
<svg version="1.1" xmlns:xlink="http://www.w3.org/1999/xlink" width="12px" height="12px" viewBox="456 8330  12 12" xmlns="http://www.w3.org/2000/svg">
  <path d="M 456.5 8332  A 1.5 1.5 0 0 1 458 8330.5 L 466 8330.5  A 1.5 1.5 0 0 1 467.5 8332 L 467.5 8340  A 1.5 1.5 0 0 1 466 8341.5 L 458 8341.5  A 1.5 1.5 0 0 1 456.5 8340 L 456.5 8332  Z " fill-rule="nonzero" fill="#ffffff" stroke="none" />
  <path d="M 456.5 8332  A 1.5 1.5 0 0 1 458 8330.5 L 466 8330.5  A 1.5 1.5 0 0 1 467.5 8332 L 467.5 8340  A 1.5 1.5 0 0 1 466 8341.5 L 458 8341.5  A 1.5 1.5 0 0 1 456.5 8340 L 456.5 8332  Z " stroke-width="1" stroke="#797979" fill="none" />
</svg>