<?xml version="1.0" encoding="utf-8"?>
<svg version="1.1" xmlns:xlink="http://www.w3.org/1999/xlink" width="12px" height="12px" viewBox="808 8332.5  12 12" xmlns="http://www.w3.org/2000/svg">
  <path d="M 814 8332.5  C 817.36 8332.5  820 8335.14  820 8338.5  C 820 8341.86  817.36 8344.5  814 8344.5  C 810.64 8344.5  808 8341.86  808 8338.5  C 808 8335.14  810.64 8332.5  814 8332.5  Z " fill-rule="nonzero" fill="#f0f0f0" stroke="none" />
  <path d="M 814 8333  C 817.08 8333  819.5 8335.42  819.5 8338.5  C 819.5 8341.58  817.08 8344  814 8344  C 810.92 8344  808.5 8341.58  808.5 8338.5  C 808.5 8335.42  810.92 8333  814 8333  Z " stroke-width="1" stroke="#797979" fill="none" />
  <path d="M 814 8341.5  C 812.32 8341.5  811 8340.18  811 8338.5  C 811 8336.82  812.32 8335.5  814 8335.5  C 815.68 8335.5  817 8336.82  817 8338.5  C 817 8340.18  815.68 8341.5  814 8341.5  " fill-rule="nonzero" fill="#797979" stroke="none" />
</svg>