<?xml version="1.0" encoding="utf-8"?>
<svg version="1.1" xmlns:xlink="http://www.w3.org/1999/xlink" width="12px" height="12px" viewBox="454 8370  12 12" xmlns="http://www.w3.org/2000/svg">
  <path d="M 454.5 8372  A 1.5 1.5 0 0 1 456 8370.5 L 464 8370.5  A 1.5 1.5 0 0 1 465.5 8372 L 465.5 8380  A 1.5 1.5 0 0 1 464 8381.5 L 456 8381.5  A 1.5 1.5 0 0 1 454.5 8380 L 454.5 8372  Z " fill-rule="nonzero" fill="#f0f0f0" stroke="none" />
  <path d="M 454.5 8372  A 1.5 1.5 0 0 1 456 8370.5 L 464 8370.5  A 1.5 1.5 0 0 1 465.5 8372 L 465.5 8380  A 1.5 1.5 0 0 1 464 8381.5 L 456 8381.5  A 1.5 1.5 0 0 1 454.5 8380 L 454.5 8372  Z " stroke-width="1" stroke="#797979" fill="none" />
  <path d="M 456.571428571429 8376  L 459.142857142857 8378.57142857143  " stroke-width="2.57142857142857" stroke="#797979" fill="none" />
  <path d="M 459.142857142857 8378.57142857143  L 463.428571428571 8372.57142857143  " stroke-width="2.57142857142857" stroke="#797979" fill="none" />
</svg>