<?xml version="1.0" encoding="utf-8"?>
<svg version="1.1" xmlns:xlink="http://www.w3.org/1999/xlink" width="12px" height="12px" viewBox="855 8372.5  12 12" xmlns="http://www.w3.org/2000/svg">
  <path d="M 861 8372.5  C 864.36 8372.5  867 8375.14  867 8378.5  C 867 8381.86  864.36 8384.5  861 8384.5  C 857.64 8384.5  855 8381.86  855 8378.5  C 855 8375.14  857.64 8372.5  861 8372.5  Z " fill-rule="nonzero" fill="#f0f0f0" stroke="none" />
  <path d="M 861 8373  C 864.08 8373  866.5 8375.42  866.5 8378.5  C 866.5 8381.58  864.08 8384  861 8384  C 857.92 8384  855.5 8381.58  855.5 8378.5  C 855.5 8375.42  857.92 8373  861 8373  Z " stroke-width="1" stroke="#797979" fill="none" />
  <path d="M 861 8381.5  C 859.32 8381.5  858 8380.18  858 8378.5  C 858 8376.82  859.32 8375.5  861 8375.5  C 862.68 8375.5  864 8376.82  864 8378.5  C 864 8380.18  862.68 8381.5  861 8381.5  " fill-rule="nonzero" fill="#797979" stroke="none" />
</svg>