<?xml version="1.0" encoding="utf-8"?>
<svg version="1.1" xmlns:xlink="http://www.w3.org/1999/xlink" width="12px" height="12px" viewBox="224 8579  12 12" xmlns="http://www.w3.org/2000/svg">
  <path d="M 224.5 8581  A 1.5 1.5 0 0 1 226 8579.5 L 234 8579.5  A 1.5 1.5 0 0 1 235.5 8581 L 235.5 8589  A 1.5 1.5 0 0 1 234 8590.5 L 226 8590.5  A 1.5 1.5 0 0 1 224.5 8589 L 224.5 8581  Z " fill-rule="nonzero" fill="#f0f0f0" stroke="none" />
  <path d="M 224.5 8581  A 1.5 1.5 0 0 1 226 8579.5 L 234 8579.5  A 1.5 1.5 0 0 1 235.5 8581 L 235.5 8589  A 1.5 1.5 0 0 1 234 8590.5 L 226 8590.5  A 1.5 1.5 0 0 1 224.5 8589 L 224.5 8581  Z " stroke-width="1" stroke="#797979" fill="none" />
  <path d="M 226.571428571429 8585  L 229.142857142857 8587.57142857143  " stroke-width="2.57142857142857" stroke="#797979" fill="none" />
  <path d="M 229.142857142857 8587.57142857143  L 233.428571428571 8581.57142857143  " stroke-width="2.57142857142857" stroke="#797979" fill="none" />
</svg>