<?xml version="1.0" encoding="utf-8"?>
<svg version="1.1" xmlns:xlink="http://www.w3.org/1999/xlink" width="12px" height="12px" viewBox="854 8460.5  12 12" xmlns="http://www.w3.org/2000/svg">
  <path d="M 860 8460.5  C 863.36 8460.5  866 8463.14  866 8466.5  C 866 8469.86  863.36 8472.5  860 8472.5  C 856.64 8472.5  854 8469.86  854 8466.5  C 854 8463.14  856.64 8460.5  860 8460.5  Z " fill-rule="nonzero" fill="#ffffff" stroke="none" />
  <path d="M 860 8461  C 863.08 8461  865.5 8463.42  865.5 8466.5  C 865.5 8469.58  863.08 8472  860 8472  C 856.92 8472  854.5 8469.58  854.5 8466.5  C 854.5 8463.42  856.92 8461  860 8461  Z " stroke-width="1" stroke="#797979" fill="none" />
  <path d="M 860 8469.5  C 858.32 8469.5  857 8468.18  857 8466.5  C 857 8464.82  858.32 8463.5  860 8463.5  C 861.68 8463.5  863 8464.82  863 8466.5  C 863 8468.18  861.68 8469.5  860 8469.5  " fill-rule="nonzero" fill="#797979" stroke="none" />
</svg>