<?xml version="1.0" encoding="utf-8"?>
<svg version="1.1" xmlns:xlink="http://www.w3.org/1999/xlink" width="12px" height="12px" viewBox="453 8498  12 12" xmlns="http://www.w3.org/2000/svg">
  <path d="M 453.5 8500  A 1.5 1.5 0 0 1 455 8498.5 L 463 8498.5  A 1.5 1.5 0 0 1 464.5 8500 L 464.5 8508  A 1.5 1.5 0 0 1 463 8509.5 L 455 8509.5  A 1.5 1.5 0 0 1 453.5 8508 L 453.5 8500  Z " fill-rule="nonzero" fill="#ffffff" stroke="none" />
  <path d="M 453.5 8500  A 1.5 1.5 0 0 1 455 8498.5 L 463 8498.5  A 1.5 1.5 0 0 1 464.5 8500 L 464.5 8508  A 1.5 1.5 0 0 1 463 8509.5 L 455 8509.5  A 1.5 1.5 0 0 1 453.5 8508 L 453.5 8500  Z " stroke-width="1" stroke="#797979" fill="none" />
</svg>