<?xml version="1.0" encoding="utf-8"?>
<svg version="1.1" xmlns:xlink="http://www.w3.org/1999/xlink" width="12px" height="12px" viewBox="454 8543  12 12" xmlns="http://www.w3.org/2000/svg">
  <path d="M 454.5 8545  A 1.5 1.5 0 0 1 456 8543.5 L 464 8543.5  A 1.5 1.5 0 0 1 465.5 8545 L 465.5 8553  A 1.5 1.5 0 0 1 464 8554.5 L 456 8554.5  A 1.5 1.5 0 0 1 454.5 8553 L 454.5 8545  Z " fill-rule="nonzero" fill="#f0f0f0" stroke="none" />
  <path d="M 454.5 8545  A 1.5 1.5 0 0 1 456 8543.5 L 464 8543.5  A 1.5 1.5 0 0 1 465.5 8545 L 465.5 8553  A 1.5 1.5 0 0 1 464 8554.5 L 456 8554.5  A 1.5 1.5 0 0 1 454.5 8553 L 454.5 8545  Z " stroke-width="1" stroke="#797979" fill="none" />
</svg>