<?xml version="1.0" encoding="utf-8"?>
<svg version="1.1" xmlns:xlink="http://www.w3.org/1999/xlink" width="12px" height="12px" viewBox="853 8545.5  12 12" xmlns="http://www.w3.org/2000/svg">
  <path d="M 859 8545.5  C 862.36 8545.5  865 8548.14  865 8551.5  C 865 8554.86  862.36 8557.5  859 8557.5  C 855.64 8557.5  853 8554.86  853 8551.5  C 853 8548.14  855.64 8545.5  859 8545.5  Z " fill-rule="nonzero" fill="#ffffff" stroke="none" />
  <path d="M 859 8546  C 862.08 8546  864.5 8548.42  864.5 8551.5  C 864.5 8554.58  862.08 8557  859 8557  C 855.92 8557  853.5 8554.58  853.5 8551.5  C 853.5 8548.42  855.92 8546  859 8546  Z " stroke-width="1" stroke="#797979" fill="none" />
  <path d="M 859 8554.5  C 857.32 8554.5  856 8553.18  856 8551.5  C 856 8549.82  857.32 8548.5  859 8548.5  C 860.68 8548.5  862 8549.82  862 8551.5  C 862 8553.18  860.68 8554.5  859 8554.5  " fill-rule="nonzero" fill="#797979" stroke="none" />
</svg>