<?xml version="1.0" encoding="utf-8"?>
<svg version="1.1" xmlns:xlink="http://www.w3.org/1999/xlink" width="12px" height="12px" viewBox="452 8584  12 12" xmlns="http://www.w3.org/2000/svg">
  <path d="M 452.5 8586  A 1.5 1.5 0 0 1 454 8584.5 L 462 8584.5  A 1.5 1.5 0 0 1 463.5 8586 L 463.5 8594  A 1.5 1.5 0 0 1 462 8595.5 L 454 8595.5  A 1.5 1.5 0 0 1 452.5 8594 L 452.5 8586  Z " fill-rule="nonzero" fill="#ffffff" stroke="none" />
  <path d="M 452.5 8586  A 1.5 1.5 0 0 1 454 8584.5 L 462 8584.5  A 1.5 1.5 0 0 1 463.5 8586 L 463.5 8594  A 1.5 1.5 0 0 1 462 8595.5 L 454 8595.5  A 1.5 1.5 0 0 1 452.5 8594 L 452.5 8586  Z " stroke-width="1" stroke="#797979" fill="none" />
</svg>