<?xml version="1.0" encoding="utf-8"?>
<svg version="1.1" xmlns:xlink="http://www.w3.org/1999/xlink" width="12px" height="12px" viewBox="806 8545.5  12 12" xmlns="http://www.w3.org/2000/svg">
  <path d="M 812 8545.5  C 815.36 8545.5  818 8548.14  818 8551.5  C 818 8554.86  815.36 8557.5  812 8557.5  C 808.64 8557.5  806 8554.86  806 8551.5  C 806 8548.14  808.64 8545.5  812 8545.5  Z " fill-rule="nonzero" fill="#ffffff" stroke="none" />
  <path d="M 812 8546  C 815.08 8546  817.5 8548.42  817.5 8551.5  C 817.5 8554.58  815.08 8557  812 8557  C 808.92 8557  806.5 8554.58  806.5 8551.5  C 806.5 8548.42  808.92 8546  812 8546  Z " stroke-width="1" stroke="#797979" fill="none" />
  <path d="M 812 8554.5  C 810.32 8554.5  809 8553.18  809 8551.5  C 809 8549.82  810.32 8548.5  812 8548.5  C 813.68 8548.5  815 8549.82  815 8551.5  C 815 8553.18  813.68 8554.5  812 8554.5  " fill-rule="nonzero" fill="#797979" stroke="none" />
</svg>