<?xml version="1.0" encoding="utf-8"?>
<svg version="1.1" xmlns:xlink="http://www.w3.org/1999/xlink" width="12px" height="12px" viewBox="806 8586.5  12 12" xmlns="http://www.w3.org/2000/svg">
  <path d="M 812 8586.5  C 815.36 8586.5  818 8589.14  818 8592.5  C 818 8595.86  815.36 8598.5  812 8598.5  C 808.64 8598.5  806 8595.86  806 8592.5  C 806 8589.14  808.64 8586.5  812 8586.5  Z " fill-rule="nonzero" fill="#ffffff" stroke="none" />
  <path d="M 812 8587  C 815.08 8587  817.5 8589.42  817.5 8592.5  C 817.5 8595.58  815.08 8598  812 8598  C 808.92 8598  806.5 8595.58  806.5 8592.5  C 806.5 8589.42  808.92 8587  812 8587  Z " stroke-width="1" stroke="#797979" fill="none" />
  <path d="M 812 8595.5  C 810.32 8595.5  809 8594.18  809 8592.5  C 809 8590.82  810.32 8589.5  812 8589.5  C 813.68 8589.5  815 8590.82  815 8592.5  C 815 8594.18  813.68 8595.5  812 8595.5  " fill-rule="nonzero" fill="#797979" stroke="none" />
</svg>