<?xml version="1.0" encoding="utf-8"?>
<svg version="1.1" xmlns:xlink="http://www.w3.org/1999/xlink" width="12px" height="12px" viewBox="853 8586.5  12 12" xmlns="http://www.w3.org/2000/svg">
  <path d="M 859 8586.5  C 862.36 8586.5  865 8589.14  865 8592.5  C 865 8595.86  862.36 8598.5  859 8598.5  C 855.64 8598.5  853 8595.86  853 8592.5  C 853 8589.14  855.64 8586.5  859 8586.5  Z " fill-rule="nonzero" fill="#ffffff" stroke="none" />
  <path d="M 859 8587  C 862.08 8587  864.5 8589.42  864.5 8592.5  C 864.5 8595.58  862.08 8598  859 8598  C 855.92 8598  853.5 8595.58  853.5 8592.5  C 853.5 8589.42  855.92 8587  859 8587  Z " stroke-width="1" stroke="#797979" fill="none" />
  <path d="M 859 8595.5  C 857.32 8595.5  856 8594.18  856 8592.5  C 856 8590.82  857.32 8589.5  859 8589.5  C 860.68 8589.5  862 8590.82  862 8592.5  C 862 8594.18  860.68 8595.5  859 8595.5  " fill-rule="nonzero" fill="#797979" stroke="none" />
</svg>