<?xml version="1.0" encoding="utf-8"?>
<svg version="1.1" xmlns:xlink="http://www.w3.org/1999/xlink" width="12px" height="12px" viewBox="855 8633.5  12 12" xmlns="http://www.w3.org/2000/svg">
  <path d="M 861 8633.5  C 864.36 8633.5  867 8636.14  867 8639.5  C 867 8642.86  864.36 8645.5  861 8645.5  C 857.64 8645.5  855 8642.86  855 8639.5  C 855 8636.14  857.64 8633.5  861 8633.5  Z " fill-rule="nonzero" fill="#f0f0f0" stroke="none" />
  <path d="M 861 8634  C 864.08 8634  866.5 8636.42  866.5 8639.5  C 866.5 8642.58  864.08 8645  861 8645  C 857.92 8645  855.5 8642.58  855.5 8639.5  C 855.5 8636.42  857.92 8634  861 8634  Z " stroke-width="1" stroke="#797979" fill="none" />
  <path d="M 861 8642.5  C 859.32 8642.5  858 8641.18  858 8639.5  C 858 8637.82  859.32 8636.5  861 8636.5  C 862.68 8636.5  864 8637.82  864 8639.5  C 864 8641.18  862.68 8642.5  861 8642.5  " fill-rule="nonzero" fill="#797979" stroke="none" />
</svg>