<?xml version="1.0" encoding="utf-8"?>
<svg version="1.1" xmlns:xlink="http://www.w3.org/1999/xlink" width="12px" height="12px" viewBox="807 8733.5  12 12" xmlns="http://www.w3.org/2000/svg">
  <path d="M 813 8733.5  C 816.36 8733.5  819 8736.14  819 8739.5  C 819 8742.86  816.36 8745.5  813 8745.5  C 809.64 8745.5  807 8742.86  807 8739.5  C 807 8736.14  809.64 8733.5  813 8733.5  Z " fill-rule="nonzero" fill="#f0f0f0" stroke="none" />
  <path d="M 813 8734  C 816.08 8734  818.5 8736.42  818.5 8739.5  C 818.5 8742.58  816.08 8745  813 8745  C 809.92 8745  807.5 8742.58  807.5 8739.5  C 807.5 8736.42  809.92 8734  813 8734  Z " stroke-width="1" stroke="#797979" fill="none" />
  <path d="M 813 8742.5  C 811.32 8742.5  810 8741.18  810 8739.5  C 810 8737.82  811.32 8736.5  813 8736.5  C 814.68 8736.5  816 8737.82  816 8739.5  C 816 8741.18  814.68 8742.5  813 8742.5  " fill-rule="nonzero" fill="#797979" stroke="none" />
</svg>