<?xml version="1.0" encoding="utf-8"?>
<svg version="1.1" xmlns:xlink="http://www.w3.org/1999/xlink" width="12px" height="12px" viewBox="854 8773.5  12 12" xmlns="http://www.w3.org/2000/svg">
  <path d="M 860 8773.5  C 863.36 8773.5  866 8776.14  866 8779.5  C 866 8782.86  863.36 8785.5  860 8785.5  C 856.64 8785.5  854 8782.86  854 8779.5  C 854 8776.14  856.64 8773.5  860 8773.5  Z " fill-rule="nonzero" fill="#ffffff" stroke="none" />
  <path d="M 860 8774  C 863.08 8774  865.5 8776.42  865.5 8779.5  C 865.5 8782.58  863.08 8785  860 8785  C 856.92 8785  854.5 8782.58  854.5 8779.5  C 854.5 8776.42  856.92 8774  860 8774  Z " stroke-width="1" stroke="#797979" fill="none" />
  <path d="M 860 8782.5  C 858.32 8782.5  857 8781.18  857 8779.5  C 857 8777.82  858.32 8776.5  860 8776.5  C 861.68 8776.5  863 8777.82  863 8779.5  C 863 8781.18  861.68 8782.5  860 8782.5  " fill-rule="nonzero" fill="#797979" stroke="none" />
</svg>