<?xml version="1.0" encoding="utf-8"?>
<svg version="1.1" xmlns:xlink="http://www.w3.org/1999/xlink" width="12px" height="12px" viewBox="807 8773.5  12 12" xmlns="http://www.w3.org/2000/svg">
  <path d="M 813 8773.5  C 816.36 8773.5  819 8776.14  819 8779.5  C 819 8782.86  816.36 8785.5  813 8785.5  C 809.64 8785.5  807 8782.86  807 8779.5  C 807 8776.14  809.64 8773.5  813 8773.5  Z " fill-rule="nonzero" fill="#f0f0f0" stroke="none" />
  <path d="M 813 8774  C 816.08 8774  818.5 8776.42  818.5 8779.5  C 818.5 8782.58  816.08 8785  813 8785  C 809.92 8785  807.5 8782.58  807.5 8779.5  C 807.5 8776.42  809.92 8774  813 8774  Z " stroke-width="1" stroke="#797979" fill="none" />
  <path d="M 813 8782.5  C 811.32 8782.5  810 8781.18  810 8779.5  C 810 8777.82  811.32 8776.5  813 8776.5  C 814.68 8776.5  816 8777.82  816 8779.5  C 816 8781.18  814.68 8782.5  813 8782.5  " fill-rule="nonzero" fill="#797979" stroke="none" />
</svg>