<?xml version="1.0" encoding="utf-8"?>
<svg version="1.1" xmlns:xlink="http://www.w3.org/1999/xlink" width="12px" height="12px" viewBox="806 8818.5  12 12" xmlns="http://www.w3.org/2000/svg">
  <path d="M 812 8818.5  C 815.36 8818.5  818 8821.14  818 8824.5  C 818 8827.86  815.36 8830.5  812 8830.5  C 808.64 8830.5  806 8827.86  806 8824.5  C 806 8821.14  808.64 8818.5  812 8818.5  Z " fill-rule="nonzero" fill="#f0f0f0" stroke="none" />
  <path d="M 812 8819  C 815.08 8819  817.5 8821.42  817.5 8824.5  C 817.5 8827.58  815.08 8830  812 8830  C 808.92 8830  806.5 8827.58  806.5 8824.5  C 806.5 8821.42  808.92 8819  812 8819  Z " stroke-width="1" stroke="#797979" fill="none" />
  <path d="M 812 8827.5  C 810.32 8827.5  809 8826.18  809 8824.5  C 809 8822.82  810.32 8821.5  812 8821.5  C 813.68 8821.5  815 8822.82  815 8824.5  C 815 8826.18  813.68 8827.5  812 8827.5  " fill-rule="nonzero" fill="#797979" stroke="none" />
</svg>