<?xml version="1.0" encoding="utf-8"?>
<svg version="1.1" xmlns:xlink="http://www.w3.org/1999/xlink" width="12px" height="12px" viewBox="806 8859.5  12 12" xmlns="http://www.w3.org/2000/svg">
  <path d="M 812 8859.5  C 815.36 8859.5  818 8862.14  818 8865.5  C 818 8868.86  815.36 8871.5  812 8871.5  C 808.64 8871.5  806 8868.86  806 8865.5  C 806 8862.14  808.64 8859.5  812 8859.5  Z " fill-rule="nonzero" fill="#ffffff" stroke="none" />
  <path d="M 812 8860  C 815.08 8860  817.5 8862.42  817.5 8865.5  C 817.5 8868.58  815.08 8871  812 8871  C 808.92 8871  806.5 8868.58  806.5 8865.5  C 806.5 8862.42  808.92 8860  812 8860  Z " stroke-width="1" stroke="#797979" fill="none" />
  <path d="M 812 8868.5  C 810.32 8868.5  809 8867.18  809 8865.5  C 809 8863.82  810.32 8862.5  812 8862.5  C 813.68 8862.5  815 8863.82  815 8865.5  C 815 8867.18  813.68 8868.5  812 8868.5  " fill-rule="nonzero" fill="#797979" stroke="none" />
</svg>