<?xml version="1.0" encoding="utf-8"?>
<svg version="1.1" xmlns:xlink="http://www.w3.org/1999/xlink" width="12px" height="12px" viewBox="452 8857  12 12" xmlns="http://www.w3.org/2000/svg">
  <path d="M 452.5 8859  A 1.5 1.5 0 0 1 454 8857.5 L 462 8857.5  A 1.5 1.5 0 0 1 463.5 8859 L 463.5 8867  A 1.5 1.5 0 0 1 462 8868.5 L 454 8868.5  A 1.5 1.5 0 0 1 452.5 8867 L 452.5 8859  Z " fill-rule="nonzero" fill="#ffffff" stroke="none" />
  <path d="M 452.5 8859  A 1.5 1.5 0 0 1 454 8857.5 L 462 8857.5  A 1.5 1.5 0 0 1 463.5 8859 L 463.5 8867  A 1.5 1.5 0 0 1 462 8868.5 L 454 8868.5  A 1.5 1.5 0 0 1 452.5 8867 L 452.5 8859  Z " stroke-width="1" stroke="#797979" fill="none" />
  <path d="M 454.571428571429 8863  L 457.142857142857 8865.57142857143  " stroke-width="2.57142857142857" stroke="#797979" fill="none" />
  <path d="M 457.142857142857 8865.57142857143  L 461.428571428571 8859.57142857143  " stroke-width="2.57142857142857" stroke="#797979" fill="none" />
</svg>