<?xml version="1.0" encoding="utf-8"?>
<svg version="1.1" xmlns:xlink="http://www.w3.org/1999/xlink" width="12px" height="12px" viewBox="454 8944  12 12" xmlns="http://www.w3.org/2000/svg">
  <path d="M 454.5 8946  A 1.5 1.5 0 0 1 456 8944.5 L 464 8944.5  A 1.5 1.5 0 0 1 465.5 8946 L 465.5 8954  A 1.5 1.5 0 0 1 464 8955.5 L 456 8955.5  A 1.5 1.5 0 0 1 454.5 8954 L 454.5 8946  Z " fill-rule="nonzero" fill="#ffffff" stroke="none" />
  <path d="M 454.5 8946  A 1.5 1.5 0 0 1 456 8944.5 L 464 8944.5  A 1.5 1.5 0 0 1 465.5 8946 L 465.5 8954  A 1.5 1.5 0 0 1 464 8955.5 L 456 8955.5  A 1.5 1.5 0 0 1 454.5 8954 L 454.5 8946  Z " stroke-width="1" stroke="#797979" fill="none" />
  <path d="M 456.571428571429 8950  L 459.142857142857 8952.57142857143  " stroke-width="2.57142857142857" stroke="#797979" fill="none" />
  <path d="M 459.142857142857 8952.57142857143  L 463.428571428571 8946.57142857143  " stroke-width="2.57142857142857" stroke="#797979" fill="none" />
</svg>