<?xml version="1.0" encoding="utf-8"?>
<svg version="1.1" xmlns:xlink="http://www.w3.org/1999/xlink" width="12px" height="12px" viewBox="456 8904  12 12" xmlns="http://www.w3.org/2000/svg">
  <path d="M 456.5 8906  A 1.5 1.5 0 0 1 458 8904.5 L 466 8904.5  A 1.5 1.5 0 0 1 467.5 8906 L 467.5 8914  A 1.5 1.5 0 0 1 466 8915.5 L 458 8915.5  A 1.5 1.5 0 0 1 456.5 8914 L 456.5 8906  Z " fill-rule="nonzero" fill="#f0f0f0" stroke="none" />
  <path d="M 456.5 8906  A 1.5 1.5 0 0 1 458 8904.5 L 466 8904.5  A 1.5 1.5 0 0 1 467.5 8906 L 467.5 8914  A 1.5 1.5 0 0 1 466 8915.5 L 458 8915.5  A 1.5 1.5 0 0 1 456.5 8914 L 456.5 8906  Z " stroke-width="1" stroke="#797979" fill="none" />
</svg>