<?xml version="1.0" encoding="utf-8"?>
<svg version="1.1" xmlns:xlink="http://www.w3.org/1999/xlink" width="12px" height="12px" viewBox="806 8237.5  12 12" xmlns="http://www.w3.org/2000/svg">
  <path d="M 812 8237.5  C 815.36 8237.5  818 8240.14  818 8243.5  C 818 8246.86  815.36 8249.5  812 8249.5  C 808.64 8249.5  806 8246.86  806 8243.5  C 806 8240.14  808.64 8237.5  812 8237.5  Z " fill-rule="nonzero" fill="#ffffff" stroke="none" />
  <path d="M 812 8238  C 815.08 8238  817.5 8240.42  817.5 8243.5  C 817.5 8246.58  815.08 8249  812 8249  C 808.92 8249  806.5 8246.58  806.5 8243.5  C 806.5 8240.42  808.92 8238  812 8238  Z " stroke-width="1" stroke="#797979" fill="none" />
  <path d="M 812 8246.5  C 810.32 8246.5  809 8245.18  809 8243.5  C 809 8241.82  810.32 8240.5  812 8240.5  C 813.68 8240.5  815 8241.82  815 8243.5  C 815 8245.18  813.68 8246.5  812 8246.5  " fill-rule="nonzero" fill="#797979" stroke="none" />
</svg>