<?xml version="1.0" encoding="utf-8"?>
<svg version="1.1" xmlns:xlink="http://www.w3.org/1999/xlink" width="12px" height="12px" viewBox="853 8237.5  12 12" xmlns="http://www.w3.org/2000/svg">
  <path d="M 859 8237.5  C 862.36 8237.5  865 8240.14  865 8243.5  C 865 8246.86  862.36 8249.5  859 8249.5  C 855.64 8249.5  853 8246.86  853 8243.5  C 853 8240.14  855.64 8237.5  859 8237.5  Z " fill-rule="nonzero" fill="#ffffff" stroke="none" />
  <path d="M 859 8238  C 862.08 8238  864.5 8240.42  864.5 8243.5  C 864.5 8246.58  862.08 8249  859 8249  C 855.92 8249  853.5 8246.58  853.5 8243.5  C 853.5 8240.42  855.92 8238  859 8238  Z " stroke-width="1" stroke="#797979" fill="none" />
  <path d="M 859 8246.5  C 857.32 8246.5  856 8245.18  856 8243.5  C 856 8241.82  857.32 8240.5  859 8240.5  C 860.68 8240.5  862 8241.82  862 8243.5  C 862 8245.18  860.68 8246.5  859 8246.5  " fill-rule="nonzero" fill="#797979" stroke="none" />
</svg>