<?xml version="1.0" encoding="utf-8"?>
<svg version="1.1" xmlns:xlink="http://www.w3.org/1999/xlink" width="12px" height="12px" viewBox="439 7653  12 12" xmlns="http://www.w3.org/2000/svg">
  <path d="M 439.5 7655  A 1.5 1.5 0 0 1 441 7653.5 L 449 7653.5  A 1.5 1.5 0 0 1 450.5 7655 L 450.5 7663  A 1.5 1.5 0 0 1 449 7664.5 L 441 7664.5  A 1.5 1.5 0 0 1 439.5 7663 L 439.5 7655  Z " fill-rule="nonzero" fill="#ffffff" stroke="none" />
  <path d="M 439.5 7655  A 1.5 1.5 0 0 1 441 7653.5 L 449 7653.5  A 1.5 1.5 0 0 1 450.5 7655 L 450.5 7663  A 1.5 1.5 0 0 1 449 7664.5 L 441 7664.5  A 1.5 1.5 0 0 1 439.5 7663 L 439.5 7655  Z " stroke-width="1" stroke="#797979" fill="none" />
  <path d="M 441.571428571429 7659  L 444.142857142857 7661.57142857143  " stroke-width="2.57142857142857" stroke="#797979" fill="none" />
  <path d="M 444.142857142857 7661.57142857143  L 448.428571428571 7655.57142857143  " stroke-width="2.57142857142857" stroke="#797979" fill="none" />
</svg>