<?xml version="1.0" encoding="utf-8"?>
<svg version="1.1" xmlns:xlink="http://www.w3.org/1999/xlink" width="12px" height="12px" viewBox="440 7567  12 12" xmlns="http://www.w3.org/2000/svg">
  <path d="M 440.5 7569  A 1.5 1.5 0 0 1 442 7567.5 L 450 7567.5  A 1.5 1.5 0 0 1 451.5 7569 L 451.5 7577  A 1.5 1.5 0 0 1 450 7578.5 L 442 7578.5  A 1.5 1.5 0 0 1 440.5 7577 L 440.5 7569  Z " fill-rule="nonzero" fill="#f0f0f0" stroke="none" />
  <path d="M 440.5 7569  A 1.5 1.5 0 0 1 442 7567.5 L 450 7567.5  A 1.5 1.5 0 0 1 451.5 7569 L 451.5 7577  A 1.5 1.5 0 0 1 450 7578.5 L 442 7578.5  A 1.5 1.5 0 0 1 440.5 7577 L 440.5 7569  Z " stroke-width="1" stroke="#797979" fill="none" />
  <path d="M 442.571428571429 7573  L 445.142857142857 7575.57142857143  " stroke-width="2.57142857142857" stroke="#797979" fill="none" />
  <path d="M 445.142857142857 7575.57142857143  L 449.428571428571 7569.57142857143  " stroke-width="2.57142857142857" stroke="#797979" fill="none" />
</svg>