<?xml version="1.0" encoding="utf-8"?>
<svg version="1.1" xmlns:xlink="http://www.w3.org/1999/xlink" width="12px" height="12px" viewBox="804 7527.5  12 12" xmlns="http://www.w3.org/2000/svg">
  <path d="M 810 7527.5  C 813.36 7527.5  816 7530.14  816 7533.5  C 816 7536.86  813.36 7539.5  810 7539.5  C 806.64 7539.5  804 7536.86  804 7533.5  C 804 7530.14  806.64 7527.5  810 7527.5  Z " fill-rule="nonzero" fill="#ffffff" stroke="none" />
  <path d="M 810 7528  C 813.08 7528  815.5 7530.42  815.5 7533.5  C 815.5 7536.58  813.08 7539  810 7539  C 806.92 7539  804.5 7536.58  804.5 7533.5  C 804.5 7530.42  806.92 7528  810 7528  Z " stroke-width="1" stroke="#797979" fill="none" />
  <path d="M 810 7536.5  C 808.32 7536.5  807 7535.18  807 7533.5  C 807 7531.82  808.32 7530.5  810 7530.5  C 811.68 7530.5  813 7531.82  813 7533.5  C 813 7535.18  811.68 7536.5  810 7536.5  " fill-rule="nonzero" fill="#797979" stroke="none" />
</svg>