<?xml version="1.0" encoding="utf-8"?>
<svg version="1.1" xmlns:xlink="http://www.w3.org/1999/xlink" width="12px" height="12px" viewBox="441 7612  12 12" xmlns="http://www.w3.org/2000/svg">
  <path d="M 441.5 7614  A 1.5 1.5 0 0 1 443 7612.5 L 451 7612.5  A 1.5 1.5 0 0 1 452.5 7614 L 452.5 7622  A 1.5 1.5 0 0 1 451 7623.5 L 443 7623.5  A 1.5 1.5 0 0 1 441.5 7622 L 441.5 7614  Z " fill-rule="nonzero" fill="#ffffff" stroke="none" />
  <path d="M 441.5 7614  A 1.5 1.5 0 0 1 443 7612.5 L 451 7612.5  A 1.5 1.5 0 0 1 452.5 7614 L 452.5 7622  A 1.5 1.5 0 0 1 451 7623.5 L 443 7623.5  A 1.5 1.5 0 0 1 441.5 7622 L 441.5 7614  Z " stroke-width="1" stroke="#797979" fill="none" />
  <path d="M 443.571428571429 7618  L 446.142857142857 7620.57142857143  " stroke-width="2.57142857142857" stroke="#797979" fill="none" />
  <path d="M 446.142857142857 7620.57142857143  L 450.428571428571 7614.57142857143  " stroke-width="2.57142857142857" stroke="#797979" fill="none" />
</svg>