<?xml version="1.0" encoding="utf-8"?>
<svg version="1.1" xmlns:xlink="http://www.w3.org/1999/xlink" width="12px" height="12px" viewBox="442 7527  12 12" xmlns="http://www.w3.org/2000/svg">
  <path d="M 442.5 7529  A 1.5 1.5 0 0 1 444 7527.5 L 452 7527.5  A 1.5 1.5 0 0 1 453.5 7529 L 453.5 7537  A 1.5 1.5 0 0 1 452 7538.5 L 444 7538.5  A 1.5 1.5 0 0 1 442.5 7537 L 442.5 7529  Z " fill-rule="nonzero" fill="#ffffff" stroke="none" />
  <path d="M 442.5 7529  A 1.5 1.5 0 0 1 444 7527.5 L 452 7527.5  A 1.5 1.5 0 0 1 453.5 7529 L 453.5 7537  A 1.5 1.5 0 0 1 452 7538.5 L 444 7538.5  A 1.5 1.5 0 0 1 442.5 7537 L 442.5 7529  Z " stroke-width="1" stroke="#797979" fill="none" />
</svg>