<?xml version="1.0" encoding="utf-8"?>
<svg version="1.1" xmlns:xlink="http://www.w3.org/1999/xlink" width="12px" height="12px" viewBox="851 7527.5  12 12" xmlns="http://www.w3.org/2000/svg">
  <path d="M 857 7527.5  C 860.36 7527.5  863 7530.14  863 7533.5  C 863 7536.86  860.36 7539.5  857 7539.5  C 853.64 7539.5  851 7536.86  851 7533.5  C 851 7530.14  853.64 7527.5  857 7527.5  Z " fill-rule="nonzero" fill="#f0f0f0" stroke="none" />
  <path d="M 857 7528  C 860.08 7528  862.5 7530.42  862.5 7533.5  C 862.5 7536.58  860.08 7539  857 7539  C 853.92 7539  851.5 7536.58  851.5 7533.5  C 851.5 7530.42  853.92 7528  857 7528  Z " stroke-width="1" stroke="#797979" fill="none" />
  <path d="M 857 7536.5  C 855.32 7536.5  854 7535.18  854 7533.5  C 854 7531.82  855.32 7530.5  857 7530.5  C 858.68 7530.5  860 7531.82  860 7533.5  C 860 7535.18  858.68 7536.5  857 7536.5  " fill-rule="nonzero" fill="#797979" stroke="none" />
</svg>