<?xml version="1.0" encoding="utf-8"?>
<svg version="1.1" xmlns:xlink="http://www.w3.org/1999/xlink" width="12px" height="12px" viewBox="851 7566.5  12 12" xmlns="http://www.w3.org/2000/svg">
  <path d="M 857 7566.5  C 860.36 7566.5  863 7569.14  863 7572.5  C 863 7575.86  860.36 7578.5  857 7578.5  C 853.64 7578.5  851 7575.86  851 7572.5  C 851 7569.14  853.64 7566.5  857 7566.5  Z " fill-rule="nonzero" fill="#f0f0f0" stroke="none" />
  <path d="M 857 7567  C 860.08 7567  862.5 7569.42  862.5 7572.5  C 862.5 7575.58  860.08 7578  857 7578  C 853.92 7578  851.5 7575.58  851.5 7572.5  C 851.5 7569.42  853.92 7567  857 7567  Z " stroke-width="1" stroke="#797979" fill="none" />
  <path d="M 857 7575.5  C 855.32 7575.5  854 7574.18  854 7572.5  C 854 7570.82  855.32 7569.5  857 7569.5  C 858.68 7569.5  860 7570.82  860 7572.5  C 860 7574.18  858.68 7575.5  857 7575.5  " fill-rule="nonzero" fill="#797979" stroke="none" />
</svg>