<?xml version="1.0" encoding="utf-8"?>
<svg version="1.1" xmlns:xlink="http://www.w3.org/1999/xlink" width="12px" height="12px" viewBox="804 7611.5  12 12" xmlns="http://www.w3.org/2000/svg">
  <path d="M 810 7611.5  C 813.36 7611.5  816 7614.14  816 7617.5  C 816 7620.86  813.36 7623.5  810 7623.5  C 806.64 7623.5  804 7620.86  804 7617.5  C 804 7614.14  806.64 7611.5  810 7611.5  Z " fill-rule="nonzero" fill="#ffffff" stroke="none" />
  <path d="M 810 7612  C 813.08 7612  815.5 7614.42  815.5 7617.5  C 815.5 7620.58  813.08 7623  810 7623  C 806.92 7623  804.5 7620.58  804.5 7617.5  C 804.5 7614.42  806.92 7612  810 7612  Z " stroke-width="1" stroke="#797979" fill="none" />
  <path d="M 810 7620.5  C 808.32 7620.5  807 7619.18  807 7617.5  C 807 7615.82  808.32 7614.5  810 7614.5  C 811.68 7614.5  813 7615.82  813 7617.5  C 813 7619.18  811.68 7620.5  810 7620.5  " fill-rule="nonzero" fill="#797979" stroke="none" />
</svg>