<?xml version="1.0" encoding="utf-8"?>
<svg version="1.1" xmlns:xlink="http://www.w3.org/1999/xlink" width="12px" height="12px" viewBox="851 7656.5  12 12" xmlns="http://www.w3.org/2000/svg">
  <path d="M 857 7656.5  C 860.36 7656.5  863 7659.14  863 7662.5  C 863 7665.86  860.36 7668.5  857 7668.5  C 853.64 7668.5  851 7665.86  851 7662.5  C 851 7659.14  853.64 7656.5  857 7656.5  Z " fill-rule="nonzero" fill="#f0f0f0" stroke="none" />
  <path d="M 857 7657  C 860.08 7657  862.5 7659.42  862.5 7662.5  C 862.5 7665.58  860.08 7668  857 7668  C 853.92 7668  851.5 7665.58  851.5 7662.5  C 851.5 7659.42  853.92 7657  857 7657  Z " stroke-width="1" stroke="#797979" fill="none" />
  <path d="M 857 7665.5  C 855.32 7665.5  854 7664.18  854 7662.5  C 854 7660.82  855.32 7659.5  857 7659.5  C 858.68 7659.5  860 7660.82  860 7662.5  C 860 7664.18  858.68 7665.5  857 7665.5  " fill-rule="nonzero" fill="#797979" stroke="none" />
</svg>