<?xml version="1.0" encoding="utf-8"?>
<svg version="1.1" xmlns:xlink="http://www.w3.org/1999/xlink" width="12px" height="12px" viewBox="804 7566.5  12 12" xmlns="http://www.w3.org/2000/svg">
  <path d="M 810 7566.5  C 813.36 7566.5  816 7569.14  816 7572.5  C 816 7575.86  813.36 7578.5  810 7578.5  C 806.64 7578.5  804 7575.86  804 7572.5  C 804 7569.14  806.64 7566.5  810 7566.5  Z " fill-rule="nonzero" fill="#f0f0f0" stroke="none" />
  <path d="M 810 7567  C 813.08 7567  815.5 7569.42  815.5 7572.5  C 815.5 7575.58  813.08 7578  810 7578  C 806.92 7578  804.5 7575.58  804.5 7572.5  C 804.5 7569.42  806.92 7567  810 7567  Z " stroke-width="1" stroke="#797979" fill="none" />
  <path d="M 810 7575.5  C 808.32 7575.5  807 7574.18  807 7572.5  C 807 7570.82  808.32 7569.5  810 7569.5  C 811.68 7569.5  813 7570.82  813 7572.5  C 813 7574.18  811.68 7575.5  810 7575.5  " fill-rule="nonzero" fill="#797979" stroke="none" />
</svg>