<?xml version="1.0" encoding="utf-8"?>
<svg version="1.1" xmlns:xlink="http://www.w3.org/1999/xlink" width="12px" height="12px" viewBox="851 7611.5  12 12" xmlns="http://www.w3.org/2000/svg">
  <path d="M 857 7611.5  C 860.36 7611.5  863 7614.14  863 7617.5  C 863 7620.86  860.36 7623.5  857 7623.5  C 853.64 7623.5  851 7620.86  851 7617.5  C 851 7614.14  853.64 7611.5  857 7611.5  Z " fill-rule="nonzero" fill="#f0f0f0" stroke="none" />
  <path d="M 857 7612  C 860.08 7612  862.5 7614.42  862.5 7617.5  C 862.5 7620.58  860.08 7623  857 7623  C 853.92 7623  851.5 7620.58  851.5 7617.5  C 851.5 7614.42  853.92 7612  857 7612  Z " stroke-width="1" stroke="#797979" fill="none" />
  <path d="M 857 7620.5  C 855.32 7620.5  854 7619.18  854 7617.5  C 854 7615.82  855.32 7614.5  857 7614.5  C 858.68 7614.5  860 7615.82  860 7617.5  C 860 7619.18  858.68 7620.5  857 7620.5  " fill-rule="nonzero" fill="#797979" stroke="none" />
</svg>