<?xml version="1.0" encoding="utf-8"?>
<svg version="1.1" xmlns:xlink="http://www.w3.org/1999/xlink" width="12px" height="12px" viewBox="440 7729  12 12" xmlns="http://www.w3.org/2000/svg">
  <path d="M 440.5 7731  A 1.5 1.5 0 0 1 442 7729.5 L 450 7729.5  A 1.5 1.5 0 0 1 451.5 7731 L 451.5 7739  A 1.5 1.5 0 0 1 450 7740.5 L 442 7740.5  A 1.5 1.5 0 0 1 440.5 7739 L 440.5 7731  Z " fill-rule="nonzero" fill="#ffffff" stroke="none" />
  <path d="M 440.5 7731  A 1.5 1.5 0 0 1 442 7729.5 L 450 7729.5  A 1.5 1.5 0 0 1 451.5 7731 L 451.5 7739  A 1.5 1.5 0 0 1 450 7740.5 L 442 7740.5  A 1.5 1.5 0 0 1 440.5 7739 L 440.5 7731  Z " stroke-width="1" stroke="#797979" fill="none" />
</svg>