<?xml version="1.0" encoding="utf-8"?>
<svg version="1.1" xmlns:xlink="http://www.w3.org/1999/xlink" width="12px" height="12px" viewBox="440 7729  12 12" xmlns="http://www.w3.org/2000/svg">
  <path d="M 440.5 7731  A 1.5 1.5 0 0 1 442 7729.5 L 450 7729.5  A 1.5 1.5 0 0 1 451.5 7731 L 451.5 7739  A 1.5 1.5 0 0 1 450 7740.5 L 442 7740.5  A 1.5 1.5 0 0 1 440.5 7739 L 440.5 7731  Z " fill-rule="nonzero" fill="#ffffff" stroke="none" />
  <path d="M 440.5 7731  A 1.5 1.5 0 0 1 442 7729.5 L 450 7729.5  A 1.5 1.5 0 0 1 451.5 7731 L 451.5 7739  A 1.5 1.5 0 0 1 450 7740.5 L 442 7740.5  A 1.5 1.5 0 0 1 440.5 7739 L 440.5 7731  Z " stroke-width="1" stroke="#797979" fill="none" />
  <path d="M 442.571428571429 7735  L 445.142857142857 7737.57142857143  " stroke-width="2.57142857142857" stroke="#797979" fill="none" />
  <path d="M 445.142857142857 7737.57142857143  L 449.428571428571 7731.57142857143  " stroke-width="2.57142857142857" stroke="#797979" fill="none" />
</svg>