<?xml version="1.0" encoding="utf-8"?>
<svg version="1.1" xmlns:xlink="http://www.w3.org/1999/xlink" width="12px" height="12px" viewBox="441 7793  12 12" xmlns="http://www.w3.org/2000/svg">
  <path d="M 441.5 7795  A 1.5 1.5 0 0 1 443 7793.5 L 451 7793.5  A 1.5 1.5 0 0 1 452.5 7795 L 452.5 7803  A 1.5 1.5 0 0 1 451 7804.5 L 443 7804.5  A 1.5 1.5 0 0 1 441.5 7803 L 441.5 7795  Z " fill-rule="nonzero" fill="#f0f0f0" stroke="none" />
  <path d="M 441.5 7795  A 1.5 1.5 0 0 1 443 7793.5 L 451 7793.5  A 1.5 1.5 0 0 1 452.5 7795 L 452.5 7803  A 1.5 1.5 0 0 1 451 7804.5 L 443 7804.5  A 1.5 1.5 0 0 1 441.5 7803 L 441.5 7795  Z " stroke-width="1" stroke="#797979" fill="none" />
  <path d="M 443.571428571429 7799  L 446.142857142857 7801.57142857143  " stroke-width="2.57142857142857" stroke="#797979" fill="none" />
  <path d="M 446.142857142857 7801.57142857143  L 450.428571428571 7795.57142857143  " stroke-width="2.57142857142857" stroke="#797979" fill="none" />
</svg>