<?xml version="1.0" encoding="utf-8"?>
<svg version="1.1" xmlns:xlink="http://www.w3.org/1999/xlink" width="12px" height="12px" viewBox="851 7792.5  12 12" xmlns="http://www.w3.org/2000/svg">
  <path d="M 857 7792.5  C 860.36 7792.5  863 7795.14  863 7798.5  C 863 7801.86  860.36 7804.5  857 7804.5  C 853.64 7804.5  851 7801.86  851 7798.5  C 851 7795.14  853.64 7792.5  857 7792.5  Z " fill-rule="nonzero" fill="#f0f0f0" stroke="none" />
  <path d="M 857 7793  C 860.08 7793  862.5 7795.42  862.5 7798.5  C 862.5 7801.58  860.08 7804  857 7804  C 853.92 7804  851.5 7801.58  851.5 7798.5  C 851.5 7795.42  853.92 7793  857 7793  Z " stroke-width="1" stroke="#797979" fill="none" />
  <path d="M 857 7801.5  C 855.32 7801.5  854 7800.18  854 7798.5  C 854 7796.82  855.32 7795.5  857 7795.5  C 858.68 7795.5  860 7796.82  860 7798.5  C 860 7800.18  858.68 7801.5  857 7801.5  " fill-rule="nonzero" fill="#797979" stroke="none" />
</svg>