<?xml version="1.0" encoding="utf-8"?>
<svg version="1.1" xmlns:xlink="http://www.w3.org/1999/xlink" width="12px" height="12px" viewBox="804 7689.5  12 12" xmlns="http://www.w3.org/2000/svg">
  <path d="M 810 7689.5  C 813.36 7689.5  816 7692.14  816 7695.5  C 816 7698.86  813.36 7701.5  810 7701.5  C 806.64 7701.5  804 7698.86  804 7695.5  C 804 7692.14  806.64 7689.5  810 7689.5  Z " fill-rule="nonzero" fill="#f0f0f0" stroke="none" />
  <path d="M 810 7690  C 813.08 7690  815.5 7692.42  815.5 7695.5  C 815.5 7698.58  813.08 7701  810 7701  C 806.92 7701  804.5 7698.58  804.5 7695.5  C 804.5 7692.42  806.92 7690  810 7690  Z " stroke-width="1" stroke="#797979" fill="none" />
  <path d="M 810 7698.5  C 808.32 7698.5  807 7697.18  807 7695.5  C 807 7693.82  808.32 7692.5  810 7692.5  C 811.68 7692.5  813 7693.82  813 7695.5  C 813 7697.18  811.68 7698.5  810 7698.5  " fill-rule="nonzero" fill="#797979" stroke="none" />
</svg>