<?xml version="1.0" encoding="utf-8"?>
<svg version="1.1" xmlns:xlink="http://www.w3.org/1999/xlink" width="12px" height="12px" viewBox="851 7728.5  12 12" xmlns="http://www.w3.org/2000/svg">
  <path d="M 857 7728.5  C 860.36 7728.5  863 7731.14  863 7734.5  C 863 7737.86  860.36 7740.5  857 7740.5  C 853.64 7740.5  851 7737.86  851 7734.5  C 851 7731.14  853.64 7728.5  857 7728.5  Z " fill-rule="nonzero" fill="#f0f0f0" stroke="none" />
  <path d="M 857 7729  C 860.08 7729  862.5 7731.42  862.5 7734.5  C 862.5 7737.58  860.08 7740  857 7740  C 853.92 7740  851.5 7737.58  851.5 7734.5  C 851.5 7731.42  853.92 7729  857 7729  Z " stroke-width="1" stroke="#797979" fill="none" />
  <path d="M 857 7737.5  C 855.32 7737.5  854 7736.18  854 7734.5  C 854 7732.82  855.32 7731.5  857 7731.5  C 858.68 7731.5  860 7732.82  860 7734.5  C 860 7736.18  858.68 7737.5  857 7737.5  " fill-rule="nonzero" fill="#797979" stroke="none" />
</svg>