<?xml version="1.0" encoding="utf-8"?>
<svg version="1.1" xmlns:xlink="http://www.w3.org/1999/xlink" width="12px" height="12px" viewBox="804 7792.5  12 12" xmlns="http://www.w3.org/2000/svg">
  <path d="M 810 7792.5  C 813.36 7792.5  816 7795.14  816 7798.5  C 816 7801.86  813.36 7804.5  810 7804.5  C 806.64 7804.5  804 7801.86  804 7798.5  C 804 7795.14  806.64 7792.5  810 7792.5  Z " fill-rule="nonzero" fill="#ffffff" stroke="none" />
  <path d="M 810 7793  C 813.08 7793  815.5 7795.42  815.5 7798.5  C 815.5 7801.58  813.08 7804  810 7804  C 806.92 7804  804.5 7801.58  804.5 7798.5  C 804.5 7795.42  806.92 7793  810 7793  Z " stroke-width="1" stroke="#797979" fill="none" />
  <path d="M 810 7801.5  C 808.32 7801.5  807 7800.18  807 7798.5  C 807 7796.82  808.32 7795.5  810 7795.5  C 811.68 7795.5  813 7796.82  813 7798.5  C 813 7800.18  811.68 7801.5  810 7801.5  " fill-rule="nonzero" fill="#797979" stroke="none" />
</svg>