<?xml version="1.0" encoding="utf-8"?>
<svg version="1.1" xmlns:xlink="http://www.w3.org/1999/xlink" width="12px" height="12px" viewBox="854 620.5  12 12" xmlns="http://www.w3.org/2000/svg">
  <path d="M 860 620.5  C 863.36 620.5  866 623.14  866 626.5  C 866 629.86  863.36 632.5  860 632.5  C 856.64 632.5  854 629.86  854 626.5  C 854 623.14  856.64 620.5  860 620.5  Z " fill-rule="nonzero" fill="#d7d7d7" stroke="none" />
  <path d="M 860 621  C 863.08 621  865.5 623.42  865.5 626.5  C 865.5 629.58  863.08 632  860 632  C 856.92 632  854.5 629.58  854.5 626.5  C 854.5 623.42  856.92 621  860 621  Z " stroke-width="1" stroke="#797979" fill="none" />
  <path d="M 860 629.5  C 858.32 629.5  857 628.18  857 626.5  C 857 624.82  858.32 623.5  860 623.5  C 861.68 623.5  863 624.82  863 626.5  C 863 628.18  861.68 629.5  860 629.5  " fill-rule="nonzero" fill="#797979" stroke="none" />
</svg>