<?xml version="1.0" encoding="utf-8"?>
<svg version="1.1" xmlns:xlink="http://www.w3.org/1999/xlink" width="12px" height="12px" viewBox="806 577.5  12 12" xmlns="http://www.w3.org/2000/svg">
  <path d="M 812 577.5  C 815.36 577.5  818 580.14  818 583.5  C 818 586.86  815.36 589.5  812 589.5  C 808.64 589.5  806 586.86  806 583.5  C 806 580.14  808.64 577.5  812 577.5  Z " fill-rule="nonzero" fill="#f0f0f0" stroke="none" />
  <path d="M 812 578  C 815.08 578  817.5 580.42  817.5 583.5  C 817.5 586.58  815.08 589  812 589  C 808.92 589  806.5 586.58  806.5 583.5  C 806.5 580.42  808.92 578  812 578  Z " stroke-width="1" stroke="#797979" fill="none" />
  <path d="M 812 586.5  C 810.32 586.5  809 585.18  809 583.5  C 809 581.82  810.32 580.5  812 580.5  C 813.68 580.5  815 581.82  815 583.5  C 815 585.18  813.68 586.5  812 586.5  " fill-rule="nonzero" fill="#797979" stroke="none" />
</svg>