<?xml version="1.0" encoding="utf-8"?>
<svg version="1.1" xmlns:xlink="http://www.w3.org/1999/xlink" width="12px" height="12px" viewBox="853 577.5  12 12" xmlns="http://www.w3.org/2000/svg">
  <path d="M 859 577.5  C 862.36 577.5  865 580.14  865 583.5  C 865 586.86  862.36 589.5  859 589.5  C 855.64 589.5  853 586.86  853 583.5  C 853 580.14  855.64 577.5  859 577.5  Z " fill-rule="nonzero" fill="#ffffff" stroke="none" fill-opacity="0" />
  <path d="M 859 578  C 862.08 578  864.5 580.42  864.5 583.5  C 864.5 586.58  862.08 589  859 589  C 855.92 589  853.5 586.58  853.5 583.5  C 853.5 580.42  855.92 578  859 578  Z " stroke-width="1" stroke="#797979" fill="none" />
  <path d="M 859 586.5  C 857.32 586.5  856 585.18  856 583.5  C 856 581.82  857.32 580.5  859 580.5  C 860.68 580.5  862 581.82  862 583.5  C 862 585.18  860.68 586.5  859 586.5  " fill-rule="nonzero" fill="#797979" stroke="none" />
</svg>