<?xml version="1.0" encoding="utf-8"?>
<svg version="1.1" xmlns:xlink="http://www.w3.org/1999/xlink" width="12px" height="12px" viewBox="851 387.5  12 12" xmlns="http://www.w3.org/2000/svg">
  <path d="M 857 387.5  C 860.36 387.5  863 390.14  863 393.5  C 863 396.86  860.36 399.5  857 399.5  C 853.64 399.5  851 396.86  851 393.5  C 851 390.14  853.64 387.5  857 387.5  Z " fill-rule="nonzero" fill="#ffffff" stroke="none" />
  <path d="M 857 388  C 860.08 388  862.5 390.42  862.5 393.5  C 862.5 396.58  860.08 399  857 399  C 853.92 399  851.5 396.58  851.5 393.5  C 851.5 390.42  853.92 388  857 388  Z " stroke-width="1" stroke="#797979" fill="none" />
  <path d="M 857 396.5  C 855.32 396.5  854 395.18  854 393.5  C 854 391.82  855.32 390.5  857 390.5  C 858.68 390.5  860 391.82  860 393.5  C 860 395.18  858.68 396.5  857 396.5  " fill-rule="nonzero" fill="#797979" stroke="none" />
</svg>