<?xml version="1.0" encoding="utf-8"?>
<svg version="1.1" xmlns:xlink="http://www.w3.org/1999/xlink" width="12px" height="12px" viewBox="450 339  12 12" xmlns="http://www.w3.org/2000/svg">
  <path d="M 450.5 341  A 1.5 1.5 0 0 1 452 339.5 L 460 339.5  A 1.5 1.5 0 0 1 461.5 341 L 461.5 349  A 1.5 1.5 0 0 1 460 350.5 L 452 350.5  A 1.5 1.5 0 0 1 450.5 349 L 450.5 341  Z " fill-rule="nonzero" fill="#f0f0f0" stroke="none" />
  <path d="M 450.5 341  A 1.5 1.5 0 0 1 452 339.5 L 460 339.5  A 1.5 1.5 0 0 1 461.5 341 L 461.5 349  A 1.5 1.5 0 0 1 460 350.5 L 452 350.5  A 1.5 1.5 0 0 1 450.5 349 L 450.5 341  Z " stroke-width="1" stroke="#797979" fill="none" />
  <path d="M 452.571428571429 345  L 455.142857142857 347.571428571429  " stroke-width="2.57142857142857" stroke="#797979" fill="none" />
  <path d="M 455.142857142857 347.571428571429  L 459.428571428571 341.571428571429  " stroke-width="2.57142857142857" stroke="#797979" fill="none" />
</svg>