<?xml version="1.0" encoding="utf-8"?>
<svg version="1.1" xmlns:xlink="http://www.w3.org/1999/xlink" width="12px" height="12px" viewBox="804 387.5  12 12" xmlns="http://www.w3.org/2000/svg">
  <path d="M 810 387.5  C 813.36 387.5  816 390.14  816 393.5  C 816 396.86  813.36 399.5  810 399.5  C 806.64 399.5  804 396.86  804 393.5  C 804 390.14  806.64 387.5  810 387.5  Z " fill-rule="nonzero" fill="#ffffff" stroke="none" />
  <path d="M 810 388  C 813.08 388  815.5 390.42  815.5 393.5  C 815.5 396.58  813.08 399  810 399  C 806.92 399  804.5 396.58  804.5 393.5  C 804.5 390.42  806.92 388  810 388  Z " stroke-width="1" stroke="#797979" fill="none" />
  <path d="M 810 396.5  C 808.32 396.5  807 395.18  807 393.5  C 807 391.82  808.32 390.5  810 390.5  C 811.68 390.5  813 391.82  813 393.5  C 813 395.18  811.68 396.5  810 396.5  " fill-rule="nonzero" fill="#797979" stroke="none" />
</svg>