<?xml version="1.0" encoding="utf-8"?>
<svg version="1.1" xmlns:xlink="http://www.w3.org/1999/xlink" width="12px" height="12px" viewBox="217 772  12 12" xmlns="http://www.w3.org/2000/svg">
  <path d="M 217.5 774  A 1.5 1.5 0 0 1 219 772.5 L 227 772.5  A 1.5 1.5 0 0 1 228.5 774 L 228.5 782  A 1.5 1.5 0 0 1 227 783.5 L 219 783.5  A 1.5 1.5 0 0 1 217.5 782 L 217.5 774  Z " fill-rule="nonzero" fill="#ffffff" stroke="none" />
  <path d="M 217.5 774  A 1.5 1.5 0 0 1 219 772.5 L 227 772.5  A 1.5 1.5 0 0 1 228.5 774 L 228.5 782  A 1.5 1.5 0 0 1 227 783.5 L 219 783.5  A 1.5 1.5 0 0 1 217.5 782 L 217.5 774  Z " stroke-width="1" stroke="#797979" fill="none" />
  <path d="M 219.571428571429 778  L 222.142857142857 780.571428571429  " stroke-width="2.57142857142857" stroke="#797979" fill="none" />
  <path d="M 222.142857142857 780.571428571429  L 226.428571428571 774.571428571429  " stroke-width="2.57142857142857" stroke="#797979" fill="none" />
</svg>