<?xml version="1.0" encoding="utf-8"?>
<svg version="1.1" xmlns:xlink="http://www.w3.org/1999/xlink" width="12px" height="12px" viewBox="803 437.5  12 12" xmlns="http://www.w3.org/2000/svg">
  <path d="M 809 437.5  C 812.36 437.5  815 440.14  815 443.5  C 815 446.86  812.36 449.5  809 449.5  C 805.64 449.5  803 446.86  803 443.5  C 803 440.14  805.64 437.5  809 437.5  Z " fill-rule="nonzero" fill="#ffffff" stroke="none" />
  <path d="M 809 438  C 812.08 438  814.5 440.42  814.5 443.5  C 814.5 446.58  812.08 449  809 449  C 805.92 449  803.5 446.58  803.5 443.5  C 803.5 440.42  805.92 438  809 438  Z " stroke-width="1" stroke="#797979" fill="none" />
  <path d="M 809 446.5  C 807.32 446.5  806 445.18  806 443.5  C 806 441.82  807.32 440.5  809 440.5  C 810.68 440.5  812 441.82  812 443.5  C 812 445.18  810.68 446.5  809 446.5  " fill-rule="nonzero" fill="#797979" stroke="none" />
</svg>