<?xml version="1.0" encoding="utf-8"?>
<svg version="1.1" xmlns:xlink="http://www.w3.org/1999/xlink" width="12px" height="12px" viewBox="450 700  12 12" xmlns="http://www.w3.org/2000/svg">
  <path d="M 450.5 702  A 1.5 1.5 0 0 1 452 700.5 L 460 700.5  A 1.5 1.5 0 0 1 461.5 702 L 461.5 710  A 1.5 1.5 0 0 1 460 711.5 L 452 711.5  A 1.5 1.5 0 0 1 450.5 710 L 450.5 702  Z " fill-rule="nonzero" fill="#ffffff" stroke="none" />
  <path d="M 450.5 702  A 1.5 1.5 0 0 1 452 700.5 L 460 700.5  A 1.5 1.5 0 0 1 461.5 702 L 461.5 710  A 1.5 1.5 0 0 1 460 711.5 L 452 711.5  A 1.5 1.5 0 0 1 450.5 710 L 450.5 702  Z " stroke-width="1" stroke="#797979" fill="none" />
  <path d="M 452.571428571429 706  L 455.142857142857 708.571428571429  " stroke-width="2.57142857142857" stroke="#797979" fill="none" />
  <path d="M 455.142857142857 708.571428571429  L 459.428571428571 702.571428571429  " stroke-width="2.57142857142857" stroke="#797979" fill="none" />
</svg>