<?xml version="1.0" encoding="utf-8"?>
<svg version="1.1" xmlns:xlink="http://www.w3.org/1999/xlink" width="12px" height="12px" viewBox="804 702.5  12 12" xmlns="http://www.w3.org/2000/svg">
  <path d="M 810 702.5  C 813.36 702.5  816 705.14  816 708.5  C 816 711.86  813.36 714.5  810 714.5  C 806.64 714.5  804 711.86  804 708.5  C 804 705.14  806.64 702.5  810 702.5  Z " fill-rule="nonzero" fill="#f0f0f0" stroke="none" />
  <path d="M 810 703  C 813.08 703  815.5 705.42  815.5 708.5  C 815.5 711.58  813.08 714  810 714  C 806.92 714  804.5 711.58  804.5 708.5  C 804.5 705.42  806.92 703  810 703  Z " stroke-width="1" stroke="#797979" fill="none" />
  <path d="M 810 711.5  C 808.32 711.5  807 710.18  807 708.5  C 807 706.82  808.32 705.5  810 705.5  C 811.68 705.5  813 706.82  813 708.5  C 813 710.18  811.68 711.5  810 711.5  " fill-rule="nonzero" fill="#797979" stroke="none" />
</svg>