<?xml version="1.0" encoding="utf-8"?>
<svg version="1.1" xmlns:xlink="http://www.w3.org/1999/xlink" width="12px" height="12px" viewBox="853 921.5  12 12" xmlns="http://www.w3.org/2000/svg">
  <path d="M 859 921.5  C 862.36 921.5  865 924.14  865 927.5  C 865 930.86  862.36 933.5  859 933.5  C 855.64 933.5  853 930.86  853 927.5  C 853 924.14  855.64 921.5  859 921.5  Z " fill-rule="nonzero" fill="#ffffff" stroke="none" fill-opacity="0" />
  <path d="M 859 922  C 862.08 922  864.5 924.42  864.5 927.5  C 864.5 930.58  862.08 933  859 933  C 855.92 933  853.5 930.58  853.5 927.5  C 853.5 924.42  855.92 922  859 922  Z " stroke-width="1" stroke="#797979" fill="none" />
  <path d="M 859 930.5  C 857.32 930.5  856 929.18  856 927.5  C 856 925.82  857.32 924.5  859 924.5  C 860.68 924.5  862 925.82  862 927.5  C 862 929.18  860.68 930.5  859 930.5  " fill-rule="nonzero" fill="#797979" stroke="none" />
</svg>