<?xml version="1.0" encoding="utf-8"?>
<svg version="1.1" xmlns:xlink="http://www.w3.org/1999/xlink" width="12px" height="12px" viewBox="452 956  12 12" xmlns="http://www.w3.org/2000/svg">
  <path d="M 452.5 958  A 1.5 1.5 0 0 1 454 956.5 L 462 956.5  A 1.5 1.5 0 0 1 463.5 958 L 463.5 966  A 1.5 1.5 0 0 1 462 967.5 L 454 967.5  A 1.5 1.5 0 0 1 452.5 966 L 452.5 958  Z " fill-rule="nonzero" fill="#f0f0f0" stroke="none" />
  <path d="M 452.5 958  A 1.5 1.5 0 0 1 454 956.5 L 462 956.5  A 1.5 1.5 0 0 1 463.5 958 L 463.5 966  A 1.5 1.5 0 0 1 462 967.5 L 454 967.5  A 1.5 1.5 0 0 1 452.5 966 L 452.5 958  Z " stroke-width="1" stroke="#797979" fill="none" />
  <path d="M 454.571428571429 962  L 457.142857142857 964.571428571429  " stroke-width="2.57142857142857" stroke="#797979" fill="none" />
  <path d="M 457.142857142857 964.571428571429  L 461.428571428571 958.571428571429  " stroke-width="2.57142857142857" stroke="#797979" fill="none" />
</svg>