<?xml version="1.0" encoding="utf-8"?>
<svg version="1.1" xmlns:xlink="http://www.w3.org/1999/xlink" width="12px" height="12px" viewBox="806 921.5  12 12" xmlns="http://www.w3.org/2000/svg">
  <path d="M 812 921.5  C 815.36 921.5  818 924.14  818 927.5  C 818 930.86  815.36 933.5  812 933.5  C 808.64 933.5  806 930.86  806 927.5  C 806 924.14  808.64 921.5  812 921.5  Z " fill-rule="nonzero" fill="#ffffff" stroke="none" fill-opacity="0" />
  <path d="M 812 922  C 815.08 922  817.5 924.42  817.5 927.5  C 817.5 930.58  815.08 933  812 933  C 808.92 933  806.5 930.58  806.5 927.5  C 806.5 924.42  808.92 922  812 922  Z " stroke-width="1" stroke="#797979" fill="none" />
  <path d="M 812 930.5  C 810.32 930.5  809 929.18  809 927.5  C 809 925.82  810.32 924.5  812 924.5  C 813.68 924.5  815 925.82  815 927.5  C 815 929.18  813.68 930.5  812 930.5  " fill-rule="nonzero" fill="#797979" stroke="none" />
</svg>