<?xml version="1.0" encoding="utf-8"?>
<svg version="1.1" xmlns:xlink="http://www.w3.org/1999/xlink" width="12px" height="12px" viewBox="807 1203.5  12 12" xmlns="http://www.w3.org/2000/svg">
  <path d="M 813 1203.5  C 816.36 1203.5  819 1206.14  819 1209.5  C 819 1212.86  816.36 1215.5  813 1215.5  C 809.64 1215.5  807 1212.86  807 1209.5  C 807 1206.14  809.64 1203.5  813 1203.5  Z " fill-rule="nonzero" fill="#ffffff" stroke="none" fill-opacity="0" />
  <path d="M 813 1204  C 816.08 1204  818.5 1206.42  818.5 1209.5  C 818.5 1212.58  816.08 1215  813 1215  C 809.92 1215  807.5 1212.58  807.5 1209.5  C 807.5 1206.42  809.92 1204  813 1204  Z " stroke-width="1" stroke="#797979" fill="none" />
  <path d="M 813 1212.5  C 811.32 1212.5  810 1211.18  810 1209.5  C 810 1207.82  811.32 1206.5  813 1206.5  C 814.68 1206.5  816 1207.82  816 1209.5  C 816 1211.18  814.68 1212.5  813 1212.5  " fill-rule="nonzero" fill="#797979" stroke="none" />
</svg>