<?xml version="1.0" encoding="utf-8"?>
<svg version="1.1" xmlns:xlink="http://www.w3.org/1999/xlink" width="12px" height="12px" viewBox="854 1203.5  12 12" xmlns="http://www.w3.org/2000/svg">
  <path d="M 860 1203.5  C 863.36 1203.5  866 1206.14  866 1209.5  C 866 1212.86  863.36 1215.5  860 1215.5  C 856.64 1215.5  854 1212.86  854 1209.5  C 854 1206.14  856.64 1203.5  860 1203.5  Z " fill-rule="nonzero" fill="#f0f0f0" stroke="none" />
  <path d="M 860 1204  C 863.08 1204  865.5 1206.42  865.5 1209.5  C 865.5 1212.58  863.08 1215  860 1215  C 856.92 1215  854.5 1212.58  854.5 1209.5  C 854.5 1206.42  856.92 1204  860 1204  Z " stroke-width="1" stroke="#797979" fill="none" />
  <path d="M 860 1212.5  C 858.32 1212.5  857 1211.18  857 1209.5  C 857 1207.82  858.32 1206.5  860 1206.5  C 861.68 1206.5  863 1207.82  863 1209.5  C 863 1211.18  861.68 1212.5  860 1212.5  " fill-rule="nonzero" fill="#797979" stroke="none" />
</svg>