<?xml version="1.0" encoding="utf-8"?>
<svg version="1.1" xmlns:xlink="http://www.w3.org/1999/xlink" width="12px" height="12px" viewBox="453 1201  12 12" xmlns="http://www.w3.org/2000/svg">
  <path d="M 453.5 1203  A 1.5 1.5 0 0 1 455 1201.5 L 463 1201.5  A 1.5 1.5 0 0 1 464.5 1203 L 464.5 1211  A 1.5 1.5 0 0 1 463 1212.5 L 455 1212.5  A 1.5 1.5 0 0 1 453.5 1211 L 453.5 1203  Z " fill-rule="nonzero" fill="#f0f0f0" stroke="none" />
  <path d="M 453.5 1203  A 1.5 1.5 0 0 1 455 1201.5 L 463 1201.5  A 1.5 1.5 0 0 1 464.5 1203 L 464.5 1211  A 1.5 1.5 0 0 1 463 1212.5 L 455 1212.5  A 1.5 1.5 0 0 1 453.5 1211 L 453.5 1203  Z " stroke-width="1" stroke="#797979" fill="none" />
  <path d="M 455.571428571429 1207  L 458.142857142857 1209.57142857143  " stroke-width="2.57142857142857" stroke="#797979" fill="none" />
  <path d="M 458.142857142857 1209.57142857143  L 462.428571428571 1203.57142857143  " stroke-width="2.57142857142857" stroke="#797979" fill="none" />
</svg>