<?xml version="1.0" encoding="utf-8"?>
<svg version="1.1" xmlns:xlink="http://www.w3.org/1999/xlink" width="12px" height="12px" viewBox="853 1367.5  12 12" xmlns="http://www.w3.org/2000/svg">
  <path d="M 859 1367.5  C 862.36 1367.5  865 1370.14  865 1373.5  C 865 1376.86  862.36 1379.5  859 1379.5  C 855.64 1379.5  853 1376.86  853 1373.5  C 853 1370.14  855.64 1367.5  859 1367.5  Z " fill-rule="nonzero" fill="#f0f0f0" stroke="none" />
  <path d="M 859 1368  C 862.08 1368  864.5 1370.42  864.5 1373.5  C 864.5 1376.58  862.08 1379  859 1379  C 855.92 1379  853.5 1376.58  853.5 1373.5  C 853.5 1370.42  855.92 1368  859 1368  Z " stroke-width="1" stroke="#797979" fill="none" />
  <path d="M 859 1376.5  C 857.32 1376.5  856 1375.18  856 1373.5  C 856 1371.82  857.32 1370.5  859 1370.5  C 860.68 1370.5  862 1371.82  862 1373.5  C 862 1375.18  860.68 1376.5  859 1376.5  " fill-rule="nonzero" fill="#797979" stroke="none" />
</svg>