<?xml version="1.0" encoding="utf-8"?>
<svg version="1.1" xmlns:xlink="http://www.w3.org/1999/xlink" width="12px" height="12px" viewBox="806 1367.5  12 12" xmlns="http://www.w3.org/2000/svg">
  <path d="M 812 1367.5  C 815.36 1367.5  818 1370.14  818 1373.5  C 818 1376.86  815.36 1379.5  812 1379.5  C 808.64 1379.5  806 1376.86  806 1373.5  C 806 1370.14  808.64 1367.5  812 1367.5  Z " fill-rule="nonzero" fill="#ffffff" stroke="none" fill-opacity="0" />
  <path d="M 812 1368  C 815.08 1368  817.5 1370.42  817.5 1373.5  C 817.5 1376.58  815.08 1379  812 1379  C 808.92 1379  806.5 1376.58  806.5 1373.5  C 806.5 1370.42  808.92 1368  812 1368  Z " stroke-width="1" stroke="#797979" fill="none" />
  <path d="M 812 1376.5  C 810.32 1376.5  809 1375.18  809 1373.5  C 809 1371.82  810.32 1370.5  812 1370.5  C 813.68 1370.5  815 1371.82  815 1373.5  C 815 1375.18  813.68 1376.5  812 1376.5  " fill-rule="nonzero" fill="#797979" stroke="none" />
</svg>