<?xml version="1.0" encoding="utf-8"?>
<svg version="1.1" xmlns:xlink="http://www.w3.org/1999/xlink" width="12px" height="12px" viewBox="806 1407.5  12 12" xmlns="http://www.w3.org/2000/svg">
  <path d="M 812 1407.5  C 815.36 1407.5  818 1410.14  818 1413.5  C 818 1416.86  815.36 1419.5  812 1419.5  C 808.64 1419.5  806 1416.86  806 1413.5  C 806 1410.14  808.64 1407.5  812 1407.5  Z " fill-rule="nonzero" fill="#ecf2fe" stroke="none" fill-opacity="0" />
  <path d="M 812 1408  C 815.08 1408  817.5 1410.42  817.5 1413.5  C 817.5 1416.58  815.08 1419  812 1419  C 808.92 1419  806.5 1416.58  806.5 1413.5  C 806.5 1410.42  808.92 1408  812 1408  Z " stroke-width="1" stroke="#797979" fill="none" />
  <path d="M 812 1416.5  C 810.32 1416.5  809 1415.18  809 1413.5  C 809 1411.82  810.32 1410.5  812 1410.5  C 813.68 1410.5  815 1411.82  815 1413.5  C 815 1415.18  813.68 1416.5  812 1416.5  " fill-rule="nonzero" fill="#797979" stroke="none" />
</svg>