<?xml version="1.0" encoding="utf-8"?>
<svg version="1.1" xmlns:xlink="http://www.w3.org/1999/xlink" width="12px" height="12px" viewBox="853 1407.5  12 12" xmlns="http://www.w3.org/2000/svg">
  <path d="M 859 1407.5  C 862.36 1407.5  865 1410.14  865 1413.5  C 865 1416.86  862.36 1419.5  859 1419.5  C 855.64 1419.5  853 1416.86  853 1413.5  C 853 1410.14  855.64 1407.5  859 1407.5  Z " fill-rule="nonzero" fill="#ecf2fe" stroke="none" fill-opacity="0" />
  <path d="M 859 1408  C 862.08 1408  864.5 1410.42  864.5 1413.5  C 864.5 1416.58  862.08 1419  859 1419  C 855.92 1419  853.5 1416.58  853.5 1413.5  C 853.5 1410.42  855.92 1408  859 1408  Z " stroke-width="1" stroke="#797979" fill="none" />
  <path d="M 859 1416.5  C 857.32 1416.5  856 1415.18  856 1413.5  C 856 1411.82  857.32 1410.5  859 1410.5  C 860.68 1410.5  862 1411.82  862 1413.5  C 862 1415.18  860.68 1416.5  859 1416.5  " fill-rule="nonzero" fill="#797979" stroke="none" />
</svg>