<?xml version="1.0" encoding="utf-8"?>
<svg version="1.1" xmlns:xlink="http://www.w3.org/1999/xlink" width="12px" height="12px" viewBox="452 664  12 12" xmlns="http://www.w3.org/2000/svg">
  <path d="M 452.5 666  A 1.5 1.5 0 0 1 454 664.5 L 462 664.5  A 1.5 1.5 0 0 1 463.5 666 L 463.5 674  A 1.5 1.5 0 0 1 462 675.5 L 454 675.5  A 1.5 1.5 0 0 1 452.5 674 L 452.5 666  Z " fill-rule="nonzero" fill="#f0f0f0" stroke="none" />
  <path d="M 452.5 666  A 1.5 1.5 0 0 1 454 664.5 L 462 664.5  A 1.5 1.5 0 0 1 463.5 666 L 463.5 674  A 1.5 1.5 0 0 1 462 675.5 L 454 675.5  A 1.5 1.5 0 0 1 452.5 674 L 452.5 666  Z " stroke-width="1" stroke="#797979" fill="none" />
</svg>