<?xml version="1.0" encoding="utf-8"?>
<svg version="1.1" xmlns:xlink="http://www.w3.org/1999/xlink" width="12px" height="12px" viewBox="851 666.5  12 12" xmlns="http://www.w3.org/2000/svg">
  <path d="M 857 666.5  C 860.36 666.5  863 669.14  863 672.5  C 863 675.86  860.36 678.5  857 678.5  C 853.64 678.5  851 675.86  851 672.5  C 851 669.14  853.64 666.5  857 666.5  Z " fill-rule="nonzero" fill="#ffffff" stroke="none" />
  <path d="M 857 667  C 860.08 667  862.5 669.42  862.5 672.5  C 862.5 675.58  860.08 678  857 678  C 853.92 678  851.5 675.58  851.5 672.5  C 851.5 669.42  853.92 667  857 667  Z " stroke-width="1" stroke="#797979" fill="none" />
  <path d="M 857 675.5  C 855.32 675.5  854 674.18  854 672.5  C 854 670.82  855.32 669.5  857 669.5  C 858.68 669.5  860 670.82  860 672.5  C 860 674.18  858.68 675.5  857 675.5  " fill-rule="nonzero" fill="#797979" stroke="none" />
</svg>