<?xml version="1.0" encoding="utf-8"?>
<svg version="1.1" xmlns:xlink="http://www.w3.org/1999/xlink" width="12px" height="12px" viewBox="806 1244.5  12 12" xmlns="http://www.w3.org/2000/svg">
  <path d="M 812 1244.5  C 815.36 1244.5  818 1247.14  818 1250.5  C 818 1253.86  815.36 1256.5  812 1256.5  C 808.64 1256.5  806 1253.86  806 1250.5  C 806 1247.14  808.64 1244.5  812 1244.5  Z " fill-rule="nonzero" fill="#f0f0f0" stroke="none" />
  <path d="M 812 1245  C 815.08 1245  817.5 1247.42  817.5 1250.5  C 817.5 1253.58  815.08 1256  812 1256  C 808.92 1256  806.5 1253.58  806.5 1250.5  C 806.5 1247.42  808.92 1245  812 1245  Z " stroke-width="1" stroke="#797979" fill="none" />
  <path d="M 812 1253.5  C 810.32 1253.5  809 1252.18  809 1250.5  C 809 1248.82  810.32 1247.5  812 1247.5  C 813.68 1247.5  815 1248.82  815 1250.5  C 815 1252.18  813.68 1253.5  812 1253.5  " fill-rule="nonzero" fill="#797979" stroke="none" />
</svg>