<?xml version="1.0" encoding="utf-8"?>
<svg version="1.1" xmlns:xlink="http://www.w3.org/1999/xlink" width="12px" height="12px" viewBox="452 1242  12 12" xmlns="http://www.w3.org/2000/svg">
  <path d="M 452.5 1244  A 1.5 1.5 0 0 1 454 1242.5 L 462 1242.5  A 1.5 1.5 0 0 1 463.5 1244 L 463.5 1252  A 1.5 1.5 0 0 1 462 1253.5 L 454 1253.5  A 1.5 1.5 0 0 1 452.5 1252 L 452.5 1244  Z " fill-rule="nonzero" fill="#ffffff" stroke="none" />
  <path d="M 452.5 1244  A 1.5 1.5 0 0 1 454 1242.5 L 462 1242.5  A 1.5 1.5 0 0 1 463.5 1244 L 463.5 1252  A 1.5 1.5 0 0 1 462 1253.5 L 454 1253.5  A 1.5 1.5 0 0 1 452.5 1252 L 452.5 1244  Z " stroke-width="1" stroke="#797979" fill="none" />
  <path d="M 454.571428571429 1248  L 457.142857142857 1250.57142857143  " stroke-width="2.57142857142857" stroke="#797979" fill="none" />
  <path d="M 457.142857142857 1250.57142857143  L 461.428571428571 1244.57142857143  " stroke-width="2.57142857142857" stroke="#797979" fill="none" />
</svg>