<?xml version="1.0" encoding="utf-8"?>
<svg version="1.1" xmlns:xlink="http://www.w3.org/1999/xlink" width="12px" height="12px" viewBox="807 1169.5  12 12" xmlns="http://www.w3.org/2000/svg">
  <path d="M 813 1169.5  C 816.36 1169.5  819 1172.14  819 1175.5  C 819 1178.86  816.36 1181.5  813 1181.5  C 809.64 1181.5  807 1178.86  807 1175.5  C 807 1172.14  809.64 1169.5  813 1169.5  Z " fill-rule="nonzero" fill="#f0f0f0" stroke="none" />
  <path d="M 813 1170  C 816.08 1170  818.5 1172.42  818.5 1175.5  C 818.5 1178.58  816.08 1181  813 1181  C 809.92 1181  807.5 1178.58  807.5 1175.5  C 807.5 1172.42  809.92 1170  813 1170  Z " stroke-width="1" stroke="#797979" fill="none" />
  <path d="M 813 1178.5  C 811.32 1178.5  810 1177.18  810 1175.5  C 810 1173.82  811.32 1172.5  813 1172.5  C 814.68 1172.5  816 1173.82  816 1175.5  C 816 1177.18  814.68 1178.5  813 1178.5  " fill-rule="nonzero" fill="#797979" stroke="none" />
</svg>