<?xml version="1.0" encoding="utf-8"?>
<svg version="1.1" xmlns:xlink="http://www.w3.org/1999/xlink" width="12px" height="12px" viewBox="854 965.5  12 12" xmlns="http://www.w3.org/2000/svg">
  <path d="M 860 965.5  C 863.36 965.5  866 968.14  866 971.5  C 866 974.86  863.36 977.5  860 977.5  C 856.64 977.5  854 974.86  854 971.5  C 854 968.14  856.64 965.5  860 965.5  Z " fill-rule="nonzero" fill="#d7d7d7" stroke="none" />
  <path d="M 860 966  C 863.08 966  865.5 968.42  865.5 971.5  C 865.5 974.58  863.08 977  860 977  C 856.92 977  854.5 974.58  854.5 971.5  C 854.5 968.42  856.92 966  860 966  Z " stroke-width="1" stroke="#797979" fill="none" />
  <path d="M 860 974.5  C 858.32 974.5  857 973.18  857 971.5  C 857 969.82  858.32 968.5  860 968.5  C 861.68 968.5  863 969.82  863 971.5  C 863 973.18  861.68 974.5  860 974.5  " fill-rule="nonzero" fill="#797979" stroke="none" />
</svg>