<?xml version="1.0" encoding="utf-8"?>
<svg version="1.1" xmlns:xlink="http://www.w3.org/1999/xlink" width="12px" height="12px" viewBox="807 965.5  12 12" xmlns="http://www.w3.org/2000/svg">
  <path d="M 813 965.5  C 816.36 965.5  819 968.14  819 971.5  C 819 974.86  816.36 977.5  813 977.5  C 809.64 977.5  807 974.86  807 971.5  C 807 968.14  809.64 965.5  813 965.5  Z " fill-rule="nonzero" fill="#f0f0f0" stroke="none" />
  <path d="M 813 966  C 816.08 966  818.5 968.42  818.5 971.5  C 818.5 974.58  816.08 977  813 977  C 809.92 977  807.5 974.58  807.5 971.5  C 807.5 968.42  809.92 966  813 966  Z " stroke-width="1" stroke="#797979" fill="none" />
  <path d="M 813 974.5  C 811.32 974.5  810 973.18  810 971.5  C 810 969.82  811.32 968.5  813 968.5  C 814.68 968.5  816 969.82  816 971.5  C 816 973.18  814.68 974.5  813 974.5  " fill-rule="nonzero" fill="#797979" stroke="none" />
</svg>