<?xml version="1.0" encoding="utf-8"?>
<svg version="1.1" xmlns:xlink="http://www.w3.org/1999/xlink" width="12px" height="12px" viewBox="807 1002.5  12 12" xmlns="http://www.w3.org/2000/svg">
  <path d="M 813 1002.5  C 816.36 1002.5  819 1005.14  819 1008.5  C 819 1011.86  816.36 1014.5  813 1014.5  C 809.64 1014.5  807 1011.86  807 1008.5  C 807 1005.14  809.64 1002.5  813 1002.5  Z " fill-rule="nonzero" fill="#d7d7d7" stroke="none" />
  <path d="M 813 1003  C 816.08 1003  818.5 1005.42  818.5 1008.5  C 818.5 1011.58  816.08 1014  813 1014  C 809.92 1014  807.5 1011.58  807.5 1008.5  C 807.5 1005.42  809.92 1003  813 1003  Z " stroke-width="1" stroke="#797979" fill="none" />
  <path d="M 813 1011.5  C 811.32 1011.5  810 1010.18  810 1008.5  C 810 1006.82  811.32 1005.5  813 1005.5  C 814.68 1005.5  816 1006.82  816 1008.5  C 816 1010.18  814.68 1011.5  813 1011.5  " fill-rule="nonzero" fill="#797979" stroke="none" />
</svg>