<?xml version="1.0" encoding="utf-8"?>
<svg version="1.1" xmlns:xlink="http://www.w3.org/1999/xlink" width="12px" height="12px" viewBox="854 1002.5  12 12" xmlns="http://www.w3.org/2000/svg">
  <path d="M 860 1002.5  C 863.36 1002.5  866 1005.14  866 1008.5  C 866 1011.86  863.36 1014.5  860 1014.5  C 856.64 1014.5  854 1011.86  854 1008.5  C 854 1005.14  856.64 1002.5  860 1002.5  Z " fill-rule="nonzero" fill="#f0f0f0" stroke="none" />
  <path d="M 860 1003  C 863.08 1003  865.5 1005.42  865.5 1008.5  C 865.5 1011.58  863.08 1014  860 1014  C 856.92 1014  854.5 1011.58  854.5 1008.5  C 854.5 1005.42  856.92 1003  860 1003  Z " stroke-width="1" stroke="#797979" fill="none" />
  <path d="M 860 1011.5  C 858.32 1011.5  857 1010.18  857 1008.5  C 857 1006.82  858.32 1005.5  860 1005.5  C 861.68 1005.5  863 1006.82  863 1008.5  C 863 1010.18  861.68 1011.5  860 1011.5  " fill-rule="nonzero" fill="#797979" stroke="none" />
</svg>