<?xml version="1.0" encoding="utf-8"?>
<svg version="1.1" xmlns:xlink="http://www.w3.org/1999/xlink" width="12px" height="12px" viewBox="452 993  12 12" xmlns="http://www.w3.org/2000/svg">
  <path d="M 452.5 995  A 1.5 1.5 0 0 1 454 993.5 L 462 993.5  A 1.5 1.5 0 0 1 463.5 995 L 463.5 1003  A 1.5 1.5 0 0 1 462 1004.5 L 454 1004.5  A 1.5 1.5 0 0 1 452.5 1003 L 452.5 995  Z " fill-rule="nonzero" fill="#ffffff" stroke="none" />
  <path d="M 452.5 995  A 1.5 1.5 0 0 1 454 993.5 L 462 993.5  A 1.5 1.5 0 0 1 463.5 995 L 463.5 1003  A 1.5 1.5 0 0 1 462 1004.5 L 454 1004.5  A 1.5 1.5 0 0 1 452.5 1003 L 452.5 995  Z " stroke-width="1" stroke="#797979" fill="none" />
</svg>