<?xml version="1.0" encoding="utf-8"?>
<svg version="1.1" xmlns:xlink="http://www.w3.org/1999/xlink" width="12px" height="12px" viewBox="807 1081.5  12 12" xmlns="http://www.w3.org/2000/svg">
  <path d="M 813 1081.5  C 816.36 1081.5  819 1084.14  819 1087.5  C 819 1090.86  816.36 1093.5  813 1093.5  C 809.64 1093.5  807 1090.86  807 1087.5  C 807 1084.14  809.64 1081.5  813 1081.5  Z " fill-rule="nonzero" fill="#f0f0f0" stroke="none" />
  <path d="M 813 1082  C 816.08 1082  818.5 1084.42  818.5 1087.5  C 818.5 1090.58  816.08 1093  813 1093  C 809.92 1093  807.5 1090.58  807.5 1087.5  C 807.5 1084.42  809.92 1082  813 1082  Z " stroke-width="1" stroke="#797979" fill="none" />
  <path d="M 813 1090.5  C 811.32 1090.5  810 1089.18  810 1087.5  C 810 1085.82  811.32 1084.5  813 1084.5  C 814.68 1084.5  816 1085.82  816 1087.5  C 816 1089.18  814.68 1090.5  813 1090.5  " fill-rule="nonzero" fill="#797979" stroke="none" />
</svg>