<?xml version="1.0" encoding="utf-8"?>
<svg version="1.1" xmlns:xlink="http://www.w3.org/1999/xlink" width="12px" height="12px" viewBox="854 1040.5  12 12" xmlns="http://www.w3.org/2000/svg">
  <path d="M 860 1040.5  C 863.36 1040.5  866 1043.14  866 1046.5  C 866 1049.86  863.36 1052.5  860 1052.5  C 856.64 1052.5  854 1049.86  854 1046.5  C 854 1043.14  856.64 1040.5  860 1040.5  Z " fill-rule="nonzero" fill="#f0f0f0" stroke="none" />
  <path d="M 860 1041  C 863.08 1041  865.5 1043.42  865.5 1046.5  C 865.5 1049.58  863.08 1052  860 1052  C 856.92 1052  854.5 1049.58  854.5 1046.5  C 854.5 1043.42  856.92 1041  860 1041  Z " stroke-width="1" stroke="#797979" fill="none" />
  <path d="M 860 1049.5  C 858.32 1049.5  857 1048.18  857 1046.5  C 857 1044.82  858.32 1043.5  860 1043.5  C 861.68 1043.5  863 1044.82  863 1046.5  C 863 1048.18  861.68 1049.5  860 1049.5  " fill-rule="nonzero" fill="#797979" stroke="none" />
</svg>