<?xml version="1.0" encoding="utf-8"?>
<svg version="1.1" xmlns:xlink="http://www.w3.org/1999/xlink" width="12px" height="12px" viewBox="452 1031  12 12" xmlns="http://www.w3.org/2000/svg">
  <path d="M 452.5 1033  A 1.5 1.5 0 0 1 454 1031.5 L 462 1031.5  A 1.5 1.5 0 0 1 463.5 1033 L 463.5 1041  A 1.5 1.5 0 0 1 462 1042.5 L 454 1042.5  A 1.5 1.5 0 0 1 452.5 1041 L 452.5 1033  Z " fill-rule="nonzero" fill="#ffffff" stroke="none" />
  <path d="M 452.5 1033  A 1.5 1.5 0 0 1 454 1031.5 L 462 1031.5  A 1.5 1.5 0 0 1 463.5 1033 L 463.5 1041  A 1.5 1.5 0 0 1 462 1042.5 L 454 1042.5  A 1.5 1.5 0 0 1 452.5 1041 L 452.5 1033  Z " stroke-width="1" stroke="#797979" fill="none" />
  <path d="M 454.571428571429 1037  L 457.142857142857 1039.57142857143  " stroke-width="2.57142857142857" stroke="#797979" fill="none" />
  <path d="M 457.142857142857 1039.57142857143  L 461.428571428571 1033.57142857143  " stroke-width="2.57142857142857" stroke="#797979" fill="none" />
</svg>