<?xml version="1.0" encoding="utf-8"?>
<svg version="1.1" xmlns:xlink="http://www.w3.org/1999/xlink" width="12px" height="12px" viewBox="804 343.5  12 12" xmlns="http://www.w3.org/2000/svg">
  <path d="M 810 343.5  C 813.36 343.5  816 346.14  816 349.5  C 816 352.86  813.36 355.5  810 355.5  C 806.64 355.5  804 352.86  804 349.5  C 804 346.14  806.64 343.5  810 343.5  Z " fill-rule="nonzero" fill="#f0f0f0" stroke="none" />
  <path d="M 810 344  C 813.08 344  815.5 346.42  815.5 349.5  C 815.5 352.58  813.08 355  810 355  C 806.92 355  804.5 352.58  804.5 349.5  C 804.5 346.42  806.92 344  810 344  Z " stroke-width="1" stroke="#797979" fill="none" />
  <path d="M 810 352.5  C 808.32 352.5  807 351.18  807 349.5  C 807 347.82  808.32 346.5  810 346.5  C 811.68 346.5  813 347.82  813 349.5  C 813 351.18  811.68 352.5  810 352.5  " fill-rule="nonzero" fill="#797979" stroke="none" />
</svg>