<?xml version="1.0" encoding="utf-8"?>
<svg version="1.1" xmlns:xlink="http://www.w3.org/1999/xlink" width="12px" height="12px" viewBox="804 302.5  12 12" xmlns="http://www.w3.org/2000/svg">
  <path d="M 810 302.5  C 813.36 302.5  816 305.14  816 308.5  C 816 311.86  813.36 314.5  810 314.5  C 806.64 314.5  804 311.86  804 308.5  C 804 305.14  806.64 302.5  810 302.5  Z " fill-rule="nonzero" fill="#ffffff" stroke="none" />
  <path d="M 810 303  C 813.08 303  815.5 305.42  815.5 308.5  C 815.5 311.58  813.08 314  810 314  C 806.92 314  804.5 311.58  804.5 308.5  C 804.5 305.42  806.92 303  810 303  Z " stroke-width="1" stroke="#797979" fill="none" />
  <path d="M 810 311.5  C 808.32 311.5  807 310.18  807 308.5  C 807 306.82  808.32 305.5  810 305.5  C 811.68 305.5  813 306.82  813 308.5  C 813 310.18  811.68 311.5  810 311.5  " fill-rule="nonzero" fill="#797979" stroke="none" />
</svg>