<?xml version="1.0" encoding="utf-8"?>
<svg version="1.1" xmlns:xlink="http://www.w3.org/1999/xlink" width="12px" height="12px" viewBox="804 756.5  12 12" xmlns="http://www.w3.org/2000/svg">
  <path d="M 810 756.5  C 813.36 756.5  816 759.14  816 762.5  C 816 765.86  813.36 768.5  810 768.5  C 806.64 768.5  804 765.86  804 762.5  C 804 759.14  806.64 756.5  810 756.5  Z " fill-rule="nonzero" fill="#f0f0f0" stroke="none" />
  <path d="M 810 757  C 813.08 757  815.5 759.42  815.5 762.5  C 815.5 765.58  813.08 768  810 768  C 806.92 768  804.5 765.58  804.5 762.5  C 804.5 759.42  806.92 757  810 757  Z " stroke-width="1" stroke="#797979" fill="none" />
  <path d="M 810 765.5  C 808.32 765.5  807 764.18  807 762.5  C 807 760.82  808.32 759.5  810 759.5  C 811.68 759.5  813 760.82  813 762.5  C 813 764.18  811.68 765.5  810 765.5  " fill-rule="nonzero" fill="#797979" stroke="none" />
</svg>