<?xml version="1.0" encoding="utf-8"?>
<svg version="1.1" xmlns:xlink="http://www.w3.org/1999/xlink" width="12px" height="12px" viewBox="804 6574.5  12 12" xmlns="http://www.w3.org/2000/svg">
  <path d="M 810 6574.5  C 813.36 6574.5  816 6577.14  816 6580.5  C 816 6583.86  813.36 6586.5  810 6586.5  C 806.64 6586.5  804 6583.86  804 6580.5  C 804 6577.14  806.64 6574.5  810 6574.5  Z " fill-rule="nonzero" fill="#ffffff" stroke="none" />
  <path d="M 810 6575  C 813.08 6575  815.5 6577.42  815.5 6580.5  C 815.5 6583.58  813.08 6586  810 6586  C 806.92 6586  804.5 6583.58  804.5 6580.5  C 804.5 6577.42  806.92 6575  810 6575  Z " stroke-width="1" stroke="#797979" fill="none" />
  <path d="M 810 6583.5  C 808.32 6583.5  807 6582.18  807 6580.5  C 807 6578.82  808.32 6577.5  810 6577.5  C 811.68 6577.5  813 6578.82  813 6580.5  C 813 6582.18  811.68 6583.5  810 6583.5  " fill-rule="nonzero" fill="#797979" stroke="none" />
</svg>