<?xml version="1.0" encoding="utf-8"?>
<svg version="1.1" xmlns:xlink="http://www.w3.org/1999/xlink" width="12px" height="12px" viewBox="851 756.5  12 12" xmlns="http://www.w3.org/2000/svg">
  <path d="M 857 756.5  C 860.36 756.5  863 759.14  863 762.5  C 863 765.86  860.36 768.5  857 768.5  C 853.64 768.5  851 765.86  851 762.5  C 851 759.14  853.64 756.5  857 756.5  Z " fill-rule="nonzero" fill="#f0f0f0" stroke="none" />
  <path d="M 857 757  C 860.08 757  862.5 759.42  862.5 762.5  C 862.5 765.58  860.08 768  857 768  C 853.92 768  851.5 765.58  851.5 762.5  C 851.5 759.42  853.92 757  857 757  Z " stroke-width="1" stroke="#797979" fill="none" />
  <path d="M 857 765.5  C 855.32 765.5  854 764.18  854 762.5  C 854 760.82  855.32 759.5  857 759.5  C 858.68 759.5  860 760.82  860 762.5  C 860 764.18  858.68 765.5  857 765.5  " fill-rule="nonzero" fill="#797979" stroke="none" />
</svg>