<?xml version="1.0" encoding="utf-8"?>
<svg version="1.1" xmlns:xlink="http://www.w3.org/1999/xlink" width="12px" height="12px" viewBox="449 519  12 12" xmlns="http://www.w3.org/2000/svg">
  <path d="M 449.5 521  A 1.5 1.5 0 0 1 451 519.5 L 459 519.5  A 1.5 1.5 0 0 1 460.5 521 L 460.5 529  A 1.5 1.5 0 0 1 459 530.5 L 451 530.5  A 1.5 1.5 0 0 1 449.5 529 L 449.5 521  Z " fill-rule="nonzero" fill="#f0f0f0" stroke="none" />
  <path d="M 449.5 521  A 1.5 1.5 0 0 1 451 519.5 L 459 519.5  A 1.5 1.5 0 0 1 460.5 521 L 460.5 529  A 1.5 1.5 0 0 1 459 530.5 L 451 530.5  A 1.5 1.5 0 0 1 449.5 529 L 449.5 521  Z " stroke-width="1" stroke="#797979" fill="none" />
  <path d="M 451.571428571429 525  L 454.142857142857 527.571428571429  " stroke-width="2.57142857142857" stroke="#797979" fill="none" />
  <path d="M 454.142857142857 527.571428571429  L 458.428571428571 521.571428571429  " stroke-width="2.57142857142857" stroke="#797979" fill="none" />
</svg>