<?xml version="1.0" encoding="utf-8"?>
<svg version="1.1" xmlns:xlink="http://www.w3.org/1999/xlink" width="12px" height="12px" viewBox="452 754  12 12" xmlns="http://www.w3.org/2000/svg">
  <path d="M 452.5 756  A 1.5 1.5 0 0 1 454 754.5 L 462 754.5  A 1.5 1.5 0 0 1 463.5 756 L 463.5 764  A 1.5 1.5 0 0 1 462 765.5 L 454 765.5  A 1.5 1.5 0 0 1 452.5 764 L 452.5 756  Z " fill-rule="nonzero" fill="#ffffff" stroke="none" />
  <path d="M 452.5 756  A 1.5 1.5 0 0 1 454 754.5 L 462 754.5  A 1.5 1.5 0 0 1 463.5 756 L 463.5 764  A 1.5 1.5 0 0 1 462 765.5 L 454 765.5  A 1.5 1.5 0 0 1 452.5 764 L 452.5 756  Z " stroke-width="1" stroke="#797979" fill="none" />
  <path d="M 454.571428571429 760  L 457.142857142857 762.571428571429  " stroke-width="2.57142857142857" stroke="#797979" fill="none" />
  <path d="M 457.142857142857 762.571428571429  L 461.428571428571 756.571428571429  " stroke-width="2.57142857142857" stroke="#797979" fill="none" />
</svg>