<?xml version="1.0" encoding="utf-8"?>
<svg version="1.1" xmlns:xlink="http://www.w3.org/1999/xlink" width="12px" height="12px" viewBox="803 6659.5  12 12" xmlns="http://www.w3.org/2000/svg">
  <path d="M 809 6659.5  C 812.36 6659.5  815 6662.14  815 6665.5  C 815 6668.86  812.36 6671.5  809 6671.5  C 805.64 6671.5  803 6668.86  803 6665.5  C 803 6662.14  805.64 6659.5  809 6659.5  Z " fill-rule="nonzero" fill="#ffffff" stroke="none" />
  <path d="M 809 6660  C 812.08 6660  814.5 6662.42  814.5 6665.5  C 814.5 6668.58  812.08 6671  809 6671  C 805.92 6671  803.5 6668.58  803.5 6665.5  C 803.5 6662.42  805.92 6660  809 6660  Z " stroke-width="1" stroke="#797979" fill="none" />
  <path d="M 809 6668.5  C 807.32 6668.5  806 6667.18  806 6665.5  C 806 6663.82  807.32 6662.5  809 6662.5  C 810.68 6662.5  812 6663.82  812 6665.5  C 812 6667.18  810.68 6668.5  809 6668.5  " fill-rule="nonzero" fill="#797979" stroke="none" />
</svg>