<?xml version="1.0" encoding="utf-8"?>
<svg version="1.1" xmlns:xlink="http://www.w3.org/1999/xlink" width="12px" height="12px" viewBox="851 6614.5  12 12" xmlns="http://www.w3.org/2000/svg">
  <path d="M 857 6614.5  C 860.36 6614.5  863 6617.14  863 6620.5  C 863 6623.86  860.36 6626.5  857 6626.5  C 853.64 6626.5  851 6623.86  851 6620.5  C 851 6617.14  853.64 6614.5  857 6614.5  Z " fill-rule="nonzero" fill="#ffffff" stroke="none" />
  <path d="M 857 6615  C 860.08 6615  862.5 6617.42  862.5 6620.5  C 862.5 6623.58  860.08 6626  857 6626  C 853.92 6626  851.5 6623.58  851.5 6620.5  C 851.5 6617.42  853.92 6615  857 6615  Z " stroke-width="1" stroke="#797979" fill="none" />
  <path d="M 857 6623.5  C 855.32 6623.5  854 6622.18  854 6620.5  C 854 6618.82  855.32 6617.5  857 6617.5  C 858.68 6617.5  860 6618.82  860 6620.5  C 860 6622.18  858.68 6623.5  857 6623.5  " fill-rule="nonzero" fill="#797979" stroke="none" />
</svg>