<?xml version="1.0" encoding="utf-8"?>
<svg version="1.1" xmlns:xlink="http://www.w3.org/1999/xlink" width="12px" height="12px" viewBox="452 6572  12 12" xmlns="http://www.w3.org/2000/svg">
  <path d="M 452.5 6574  A 1.5 1.5 0 0 1 454 6572.5 L 462 6572.5  A 1.5 1.5 0 0 1 463.5 6574 L 463.5 6582  A 1.5 1.5 0 0 1 462 6583.5 L 454 6583.5  A 1.5 1.5 0 0 1 452.5 6582 L 452.5 6574  Z " fill-rule="nonzero" fill="#ffffff" stroke="none" />
  <path d="M 452.5 6574  A 1.5 1.5 0 0 1 454 6572.5 L 462 6572.5  A 1.5 1.5 0 0 1 463.5 6574 L 463.5 6582  A 1.5 1.5 0 0 1 462 6583.5 L 454 6583.5  A 1.5 1.5 0 0 1 452.5 6582 L 452.5 6574  Z " stroke-width="1" stroke="#797979" fill="none" />
  <path d="M 454.571428571429 6578  L 457.142857142857 6580.57142857143  " stroke-width="2.57142857142857" stroke="#797979" fill="none" />
  <path d="M 457.142857142857 6580.57142857143  L 461.428571428571 6574.57142857143  " stroke-width="2.57142857142857" stroke="#797979" fill="none" />
</svg>