<?xml version="1.0" encoding="utf-8"?>
<svg version="1.1" xmlns:xlink="http://www.w3.org/1999/xlink" width="12px" height="12px" viewBox="851 6574.5  12 12" xmlns="http://www.w3.org/2000/svg">
  <path d="M 857 6574.5  C 860.36 6574.5  863 6577.14  863 6580.5  C 863 6583.86  860.36 6586.5  857 6586.5  C 853.64 6586.5  851 6583.86  851 6580.5  C 851 6577.14  853.64 6574.5  857 6574.5  Z " fill-rule="nonzero" fill="#f0f0f0" stroke="none" />
  <path d="M 857 6575  C 860.08 6575  862.5 6577.42  862.5 6580.5  C 862.5 6583.58  860.08 6586  857 6586  C 853.92 6586  851.5 6583.58  851.5 6580.5  C 851.5 6577.42  853.92 6575  857 6575  Z " stroke-width="1" stroke="#797979" fill="none" />
  <path d="M 857 6583.5  C 855.32 6583.5  854 6582.18  854 6580.5  C 854 6578.82  855.32 6577.5  857 6577.5  C 858.68 6577.5  860 6578.82  860 6580.5  C 860 6582.18  858.68 6583.5  857 6583.5  " fill-rule="nonzero" fill="#797979" stroke="none" />
</svg>