<?xml version="1.0" encoding="utf-8"?>
<svg version="1.1" xmlns:xlink="http://www.w3.org/1999/xlink" width="12px" height="12px" viewBox="804 6698.5  12 12" xmlns="http://www.w3.org/2000/svg">
  <path d="M 810 6698.5  C 813.36 6698.5  816 6701.14  816 6704.5  C 816 6707.86  813.36 6710.5  810 6710.5  C 806.64 6710.5  804 6707.86  804 6704.5  C 804 6701.14  806.64 6698.5  810 6698.5  Z " fill-rule="nonzero" fill="#ffffff" stroke="none" />
  <path d="M 810 6699  C 813.08 6699  815.5 6701.42  815.5 6704.5  C 815.5 6707.58  813.08 6710  810 6710  C 806.92 6710  804.5 6707.58  804.5 6704.5  C 804.5 6701.42  806.92 6699  810 6699  Z " stroke-width="1" stroke="#797979" fill="none" />
  <path d="M 810 6707.5  C 808.32 6707.5  807 6706.18  807 6704.5  C 807 6702.82  808.32 6701.5  810 6701.5  C 811.68 6701.5  813 6702.82  813 6704.5  C 813 6706.18  811.68 6707.5  810 6707.5  " fill-rule="nonzero" fill="#797979" stroke="none" />
</svg>