<?xml version="1.0" encoding="utf-8"?>
<svg version="1.1" xmlns:xlink="http://www.w3.org/1999/xlink" width="12px" height="12px" viewBox="216 6687  12 12" xmlns="http://www.w3.org/2000/svg">
  <path d="M 216.5 6689  A 1.5 1.5 0 0 1 218 6687.5 L 226 6687.5  A 1.5 1.5 0 0 1 227.5 6689 L 227.5 6697  A 1.5 1.5 0 0 1 226 6698.5 L 218 6698.5  A 1.5 1.5 0 0 1 216.5 6697 L 216.5 6689  Z " fill-rule="nonzero" fill="#ffffff" stroke="none" />
  <path d="M 216.5 6689  A 1.5 1.5 0 0 1 218 6687.5 L 226 6687.5  A 1.5 1.5 0 0 1 227.5 6689 L 227.5 6697  A 1.5 1.5 0 0 1 226 6698.5 L 218 6698.5  A 1.5 1.5 0 0 1 216.5 6697 L 216.5 6689  Z " stroke-width="1" stroke="#797979" fill="none" />
</svg>