<?xml version="1.0" encoding="utf-8"?>
<svg version="1.1" xmlns:xlink="http://www.w3.org/1999/xlink" width="12px" height="12px" viewBox="803 6866.5  12 12" xmlns="http://www.w3.org/2000/svg">
  <path d="M 809 6866.5  C 812.36 6866.5  815 6869.14  815 6872.5  C 815 6875.86  812.36 6878.5  809 6878.5  C 805.64 6878.5  803 6875.86  803 6872.5  C 803 6869.14  805.64 6866.5  809 6866.5  Z " fill-rule="nonzero" fill="#ffffff" stroke="none" />
  <path d="M 809 6867  C 812.08 6867  814.5 6869.42  814.5 6872.5  C 814.5 6875.58  812.08 6878  809 6878  C 805.92 6878  803.5 6875.58  803.5 6872.5  C 803.5 6869.42  805.92 6867  809 6867  Z " stroke-width="1" stroke="#797979" fill="none" />
  <path d="M 809 6875.5  C 807.32 6875.5  806 6874.18  806 6872.5  C 806 6870.82  807.32 6869.5  809 6869.5  C 810.68 6869.5  812 6870.82  812 6872.5  C 812 6874.18  810.68 6875.5  809 6875.5  " fill-rule="nonzero" fill="#797979" stroke="none" />
</svg>