<?xml version="1.0" encoding="utf-8"?>
<svg version="1.1" xmlns:xlink="http://www.w3.org/1999/xlink" width="12px" height="12px" viewBox="450 6819  12 12" xmlns="http://www.w3.org/2000/svg">
  <path d="M 450.5 6821  A 1.5 1.5 0 0 1 452 6819.5 L 460 6819.5  A 1.5 1.5 0 0 1 461.5 6821 L 461.5 6829  A 1.5 1.5 0 0 1 460 6830.5 L 452 6830.5  A 1.5 1.5 0 0 1 450.5 6829 L 450.5 6821  Z " fill-rule="nonzero" fill="#ffffff" stroke="none" />
  <path d="M 450.5 6821  A 1.5 1.5 0 0 1 452 6819.5 L 460 6819.5  A 1.5 1.5 0 0 1 461.5 6821 L 461.5 6829  A 1.5 1.5 0 0 1 460 6830.5 L 452 6830.5  A 1.5 1.5 0 0 1 450.5 6829 L 450.5 6821  Z " stroke-width="1" stroke="#797979" fill="none" />
  <path d="M 452.571428571429 6825  L 455.142857142857 6827.57142857143  " stroke-width="2.57142857142857" stroke="#797979" fill="none" />
  <path d="M 455.142857142857 6827.57142857143  L 459.428571428571 6821.57142857143  " stroke-width="2.57142857142857" stroke="#797979" fill="none" />
</svg>