<?xml version="1.0" encoding="utf-8"?>
<svg version="1.1" xmlns:xlink="http://www.w3.org/1999/xlink" width="12px" height="12px" viewBox="451 6741  12 12" xmlns="http://www.w3.org/2000/svg">
  <path d="M 451.5 6743  A 1.5 1.5 0 0 1 453 6741.5 L 461 6741.5  A 1.5 1.5 0 0 1 462.5 6743 L 462.5 6751  A 1.5 1.5 0 0 1 461 6752.5 L 453 6752.5  A 1.5 1.5 0 0 1 451.5 6751 L 451.5 6743  Z " fill-rule="nonzero" fill="#ffffff" stroke="none" />
  <path d="M 451.5 6743  A 1.5 1.5 0 0 1 453 6741.5 L 461 6741.5  A 1.5 1.5 0 0 1 462.5 6743 L 462.5 6751  A 1.5 1.5 0 0 1 461 6752.5 L 453 6752.5  A 1.5 1.5 0 0 1 451.5 6751 L 451.5 6743  Z " stroke-width="1" stroke="#797979" fill="none" />
  <path d="M 453.571428571429 6747  L 456.142857142857 6749.57142857143  " stroke-width="2.57142857142857" stroke="#797979" fill="none" />
  <path d="M 456.142857142857 6749.57142857143  L 460.428571428571 6743.57142857143  " stroke-width="2.57142857142857" stroke="#797979" fill="none" />
</svg>