<?xml version="1.0" encoding="utf-8"?>
<svg version="1.1" xmlns:xlink="http://www.w3.org/1999/xlink" width="12px" height="12px" viewBox="804 6821.5  12 12" xmlns="http://www.w3.org/2000/svg">
  <path d="M 810 6821.5  C 813.36 6821.5  816 6824.14  816 6827.5  C 816 6830.86  813.36 6833.5  810 6833.5  C 806.64 6833.5  804 6830.86  804 6827.5  C 804 6824.14  806.64 6821.5  810 6821.5  Z " fill-rule="nonzero" fill="#ffffff" stroke="none" />
  <path d="M 810 6822  C 813.08 6822  815.5 6824.42  815.5 6827.5  C 815.5 6830.58  813.08 6833  810 6833  C 806.92 6833  804.5 6830.58  804.5 6827.5  C 804.5 6824.42  806.92 6822  810 6822  Z " stroke-width="1" stroke="#797979" fill="none" />
  <path d="M 810 6830.5  C 808.32 6830.5  807 6829.18  807 6827.5  C 807 6825.82  808.32 6824.5  810 6824.5  C 811.68 6824.5  813 6825.82  813 6827.5  C 813 6829.18  811.68 6830.5  810 6830.5  " fill-rule="nonzero" fill="#797979" stroke="none" />
</svg>