<?xml version="1.0" encoding="utf-8"?>
<svg version="1.1" xmlns:xlink="http://www.w3.org/1999/xlink" width="12px" height="12px" viewBox="451 6864  12 12" xmlns="http://www.w3.org/2000/svg">
  <path d="M 451.5 6866  A 1.5 1.5 0 0 1 453 6864.5 L 461 6864.5  A 1.5 1.5 0 0 1 462.5 6866 L 462.5 6874  A 1.5 1.5 0 0 1 461 6875.5 L 453 6875.5  A 1.5 1.5 0 0 1 451.5 6874 L 451.5 6866  Z " fill-rule="nonzero" fill="#f0f0f0" stroke="none" />
  <path d="M 451.5 6866  A 1.5 1.5 0 0 1 453 6864.5 L 461 6864.5  A 1.5 1.5 0 0 1 462.5 6866 L 462.5 6874  A 1.5 1.5 0 0 1 461 6875.5 L 453 6875.5  A 1.5 1.5 0 0 1 451.5 6874 L 451.5 6866  Z " stroke-width="1" stroke="#797979" fill="none" />
</svg>