<?xml version="1.0" encoding="utf-8"?>
<svg version="1.1" xmlns:xlink="http://www.w3.org/1999/xlink" width="12px" height="12px" viewBox="802 6787.5  12 12" xmlns="http://www.w3.org/2000/svg">
  <path d="M 808 6787.5  C 811.36 6787.5  814 6790.14  814 6793.5  C 814 6796.86  811.36 6799.5  808 6799.5  C 804.64 6799.5  802 6796.86  802 6793.5  C 802 6790.14  804.64 6787.5  808 6787.5  Z " fill-rule="nonzero" fill="#ffffff" stroke="none" />
  <path d="M 808 6788  C 811.08 6788  813.5 6790.42  813.5 6793.5  C 813.5 6796.58  811.08 6799  808 6799  C 804.92 6799  802.5 6796.58  802.5 6793.5  C 802.5 6790.42  804.92 6788  808 6788  Z " stroke-width="1" stroke="#797979" fill="none" />
  <path d="M 808 6796.5  C 806.32 6796.5  805 6795.18  805 6793.5  C 805 6791.82  806.32 6790.5  808 6790.5  C 809.68 6790.5  811 6791.82  811 6793.5  C 811 6795.18  809.68 6796.5  808 6796.5  " fill-rule="nonzero" fill="#797979" stroke="none" />
</svg>