<?xml version="1.0" encoding="utf-8"?>
<svg version="1.1" xmlns:xlink="http://www.w3.org/1999/xlink" width="12px" height="12px" viewBox="849 6787.5  12 12" xmlns="http://www.w3.org/2000/svg">
  <path d="M 855 6787.5  C 858.36 6787.5  861 6790.14  861 6793.5  C 861 6796.86  858.36 6799.5  855 6799.5  C 851.64 6799.5  849 6796.86  849 6793.5  C 849 6790.14  851.64 6787.5  855 6787.5  Z " fill-rule="nonzero" fill="#ffffff" stroke="none" />
  <path d="M 855 6788  C 858.08 6788  860.5 6790.42  860.5 6793.5  C 860.5 6796.58  858.08 6799  855 6799  C 851.92 6799  849.5 6796.58  849.5 6793.5  C 849.5 6790.42  851.92 6788  855 6788  Z " stroke-width="1" stroke="#797979" fill="none" />
  <path d="M 855 6796.5  C 853.32 6796.5  852 6795.18  852 6793.5  C 852 6791.82  853.32 6790.5  855 6790.5  C 856.68 6790.5  858 6791.82  858 6793.5  C 858 6795.18  856.68 6796.5  855 6796.5  " fill-rule="nonzero" fill="#797979" stroke="none" />
</svg>