<?xml version="1.0" encoding="utf-8"?>
<svg version="1.1" xmlns:xlink="http://www.w3.org/1999/xlink" width="12px" height="12px" viewBox="850 6866.5  12 12" xmlns="http://www.w3.org/2000/svg">
  <path d="M 856 6866.5  C 859.36 6866.5  862 6869.14  862 6872.5  C 862 6875.86  859.36 6878.5  856 6878.5  C 852.64 6878.5  850 6875.86  850 6872.5  C 850 6869.14  852.64 6866.5  856 6866.5  Z " fill-rule="nonzero" fill="#ffffff" stroke="none" />
  <path d="M 856 6867  C 859.08 6867  861.5 6869.42  861.5 6872.5  C 861.5 6875.58  859.08 6878  856 6878  C 852.92 6878  850.5 6875.58  850.5 6872.5  C 850.5 6869.42  852.92 6867  856 6867  Z " stroke-width="1" stroke="#797979" fill="none" />
  <path d="M 856 6875.5  C 854.32 6875.5  853 6874.18  853 6872.5  C 853 6870.82  854.32 6869.5  856 6869.5  C 857.68 6869.5  859 6870.82  859 6872.5  C 859 6874.18  857.68 6875.5  856 6875.5  " fill-rule="nonzero" fill="#797979" stroke="none" />
</svg>