<?xml version="1.0" encoding="utf-8"?>
<svg version="1.1" xmlns:xlink="http://www.w3.org/1999/xlink" width="12px" height="12px" viewBox="804 6913.5  12 12" xmlns="http://www.w3.org/2000/svg">
  <path d="M 810 6913.5  C 813.36 6913.5  816 6916.14  816 6919.5  C 816 6922.86  813.36 6925.5  810 6925.5  C 806.64 6925.5  804 6922.86  804 6919.5  C 804 6916.14  806.64 6913.5  810 6913.5  Z " fill-rule="nonzero" fill="#f0f0f0" stroke="none" />
  <path d="M 810 6914  C 813.08 6914  815.5 6916.42  815.5 6919.5  C 815.5 6922.58  813.08 6925  810 6925  C 806.92 6925  804.5 6922.58  804.5 6919.5  C 804.5 6916.42  806.92 6914  810 6914  Z " stroke-width="1" stroke="#797979" fill="none" />
  <path d="M 810 6922.5  C 808.32 6922.5  807 6921.18  807 6919.5  C 807 6917.82  808.32 6916.5  810 6916.5  C 811.68 6916.5  813 6917.82  813 6919.5  C 813 6921.18  811.68 6922.5  810 6922.5  " fill-rule="nonzero" fill="#797979" stroke="none" />
</svg>