<?xml version="1.0" encoding="utf-8"?>
<svg version="1.1" xmlns:xlink="http://www.w3.org/1999/xlink" width="12px" height="12px" viewBox="804 6953.5  12 12" xmlns="http://www.w3.org/2000/svg">
  <path d="M 810 6953.5  C 813.36 6953.5  816 6956.14  816 6959.5  C 816 6962.86  813.36 6965.5  810 6965.5  C 806.64 6965.5  804 6962.86  804 6959.5  C 804 6956.14  806.64 6953.5  810 6953.5  Z " fill-rule="nonzero" fill="#ffffff" stroke="none" />
  <path d="M 810 6954  C 813.08 6954  815.5 6956.42  815.5 6959.5  C 815.5 6962.58  813.08 6965  810 6965  C 806.92 6965  804.5 6962.58  804.5 6959.5  C 804.5 6956.42  806.92 6954  810 6954  Z " stroke-width="1" stroke="#797979" fill="none" />
  <path d="M 810 6962.5  C 808.32 6962.5  807 6961.18  807 6959.5  C 807 6957.82  808.32 6956.5  810 6956.5  C 811.68 6956.5  813 6957.82  813 6959.5  C 813 6961.18  811.68 6962.5  810 6962.5  " fill-rule="nonzero" fill="#797979" stroke="none" />
</svg>