<?xml version="1.0" encoding="utf-8"?>
<svg version="1.1" xmlns:xlink="http://www.w3.org/1999/xlink" width="12px" height="12px" viewBox="452 6911  12 12" xmlns="http://www.w3.org/2000/svg">
  <path d="M 452.5 6913  A 1.5 1.5 0 0 1 454 6911.5 L 462 6911.5  A 1.5 1.5 0 0 1 463.5 6913 L 463.5 6921  A 1.5 1.5 0 0 1 462 6922.5 L 454 6922.5  A 1.5 1.5 0 0 1 452.5 6921 L 452.5 6913  Z " fill-rule="nonzero" fill="#f0f0f0" stroke="none" />
  <path d="M 452.5 6913  A 1.5 1.5 0 0 1 454 6911.5 L 462 6911.5  A 1.5 1.5 0 0 1 463.5 6913 L 463.5 6921  A 1.5 1.5 0 0 1 462 6922.5 L 454 6922.5  A 1.5 1.5 0 0 1 452.5 6921 L 452.5 6913  Z " stroke-width="1" stroke="#797979" fill="none" />
  <path d="M 454.571428571429 6917  L 457.142857142857 6919.57142857143  " stroke-width="2.57142857142857" stroke="#797979" fill="none" />
  <path d="M 457.142857142857 6919.57142857143  L 461.428571428571 6913.57142857143  " stroke-width="2.57142857142857" stroke="#797979" fill="none" />
</svg>