<?xml version="1.0" encoding="utf-8"?>
<svg version="1.1" xmlns:xlink="http://www.w3.org/1999/xlink" width="12px" height="12px" viewBox="803 6998.5  12 12" xmlns="http://www.w3.org/2000/svg">
  <path d="M 809 6998.5  C 812.36 6998.5  815 7001.14  815 7004.5  C 815 7007.86  812.36 7010.5  809 7010.5  C 805.64 7010.5  803 7007.86  803 7004.5  C 803 7001.14  805.64 6998.5  809 6998.5  Z " fill-rule="nonzero" fill="#ffffff" stroke="none" />
  <path d="M 809 6999  C 812.08 6999  814.5 7001.42  814.5 7004.5  C 814.5 7007.58  812.08 7010  809 7010  C 805.92 7010  803.5 7007.58  803.5 7004.5  C 803.5 7001.42  805.92 6999  809 6999  Z " stroke-width="1" stroke="#797979" fill="none" />
  <path d="M 809 7007.5  C 807.32 7007.5  806 7006.18  806 7004.5  C 806 7002.82  807.32 7001.5  809 7001.5  C 810.68 7001.5  812 7002.82  812 7004.5  C 812 7006.18  810.68 7007.5  809 7007.5  " fill-rule="nonzero" fill="#797979" stroke="none" />
</svg>