<?xml version="1.0" encoding="utf-8"?>
<svg version="1.1" xmlns:xlink="http://www.w3.org/1999/xlink" width="12px" height="12px" viewBox="850 6998.5  12 12" xmlns="http://www.w3.org/2000/svg">
  <path d="M 856 6998.5  C 859.36 6998.5  862 7001.14  862 7004.5  C 862 7007.86  859.36 7010.5  856 7010.5  C 852.64 7010.5  850 7007.86  850 7004.5  C 850 7001.14  852.64 6998.5  856 6998.5  Z " fill-rule="nonzero" fill="#f0f0f0" stroke="none" />
  <path d="M 856 6999  C 859.08 6999  861.5 7001.42  861.5 7004.5  C 861.5 7007.58  859.08 7010  856 7010  C 852.92 7010  850.5 7007.58  850.5 7004.5  C 850.5 7001.42  852.92 6999  856 6999  Z " stroke-width="1" stroke="#797979" fill="none" />
  <path d="M 856 7007.5  C 854.32 7007.5  853 7006.18  853 7004.5  C 853 7002.82  854.32 7001.5  856 7001.5  C 857.68 7001.5  859 7002.82  859 7004.5  C 859 7006.18  857.68 7007.5  856 7007.5  " fill-rule="nonzero" fill="#797979" stroke="none" />
</svg>