<?xml version="1.0" encoding="utf-8"?>
<svg version="1.1" xmlns:xlink="http://www.w3.org/1999/xlink" width="12px" height="12px" viewBox="804 7037.5  12 12" xmlns="http://www.w3.org/2000/svg">
  <path d="M 810 7037.5  C 813.36 7037.5  816 7040.14  816 7043.5  C 816 7046.86  813.36 7049.5  810 7049.5  C 806.64 7049.5  804 7046.86  804 7043.5  C 804 7040.14  806.64 7037.5  810 7037.5  Z " fill-rule="nonzero" fill="#f0f0f0" stroke="none" />
  <path d="M 810 7038  C 813.08 7038  815.5 7040.42  815.5 7043.5  C 815.5 7046.58  813.08 7049  810 7049  C 806.92 7049  804.5 7046.58  804.5 7043.5  C 804.5 7040.42  806.92 7038  810 7038  Z " stroke-width="1" stroke="#797979" fill="none" />
  <path d="M 810 7046.5  C 808.32 7046.5  807 7045.18  807 7043.5  C 807 7041.82  808.32 7040.5  810 7040.5  C 811.68 7040.5  813 7041.82  813 7043.5  C 813 7045.18  811.68 7046.5  810 7046.5  " fill-rule="nonzero" fill="#797979" stroke="none" />
</svg>