<?xml version="1.0" encoding="utf-8"?>
<svg version="1.1" xmlns:xlink="http://www.w3.org/1999/xlink" width="12px" height="12px" viewBox="451 6996  12 12" xmlns="http://www.w3.org/2000/svg">
  <path d="M 451.5 6998  A 1.5 1.5 0 0 1 453 6996.5 L 461 6996.5  A 1.5 1.5 0 0 1 462.5 6998 L 462.5 7006  A 1.5 1.5 0 0 1 461 7007.5 L 453 7007.5  A 1.5 1.5 0 0 1 451.5 7006 L 451.5 6998  Z " fill-rule="nonzero" fill="#ffffff" stroke="none" />
  <path d="M 451.5 6998  A 1.5 1.5 0 0 1 453 6996.5 L 461 6996.5  A 1.5 1.5 0 0 1 462.5 6998 L 462.5 7006  A 1.5 1.5 0 0 1 461 7007.5 L 453 7007.5  A 1.5 1.5 0 0 1 451.5 7006 L 451.5 6998  Z " stroke-width="1" stroke="#797979" fill="none" />
</svg>