<?xml version="1.0" encoding="utf-8"?>
<svg version="1.1" xmlns:xlink="http://www.w3.org/1999/xlink" width="12px" height="12px" viewBox="851 6953.5  12 12" xmlns="http://www.w3.org/2000/svg">
  <path d="M 857 6953.5  C 860.36 6953.5  863 6956.14  863 6959.5  C 863 6962.86  860.36 6965.5  857 6965.5  C 853.64 6965.5  851 6962.86  851 6959.5  C 851 6956.14  853.64 6953.5  857 6953.5  Z " fill-rule="nonzero" fill="#f0f0f0" stroke="none" />
  <path d="M 857 6954  C 860.08 6954  862.5 6956.42  862.5 6959.5  C 862.5 6962.58  860.08 6965  857 6965  C 853.92 6965  851.5 6962.58  851.5 6959.5  C 851.5 6956.42  853.92 6954  857 6954  Z " stroke-width="1" stroke="#797979" fill="none" />
  <path d="M 857 6962.5  C 855.32 6962.5  854 6961.18  854 6959.5  C 854 6957.82  855.32 6956.5  857 6956.5  C 858.68 6956.5  860 6957.82  860 6959.5  C 860 6961.18  858.68 6962.5  857 6962.5  " fill-rule="nonzero" fill="#797979" stroke="none" />
</svg>