<?xml version="1.0" encoding="utf-8"?>
<svg version="1.1" xmlns:xlink="http://www.w3.org/1999/xlink" width="12px" height="12px" viewBox="851 7037.5  12 12" xmlns="http://www.w3.org/2000/svg">
  <path d="M 857 7037.5  C 860.36 7037.5  863 7040.14  863 7043.5  C 863 7046.86  860.36 7049.5  857 7049.5  C 853.64 7049.5  851 7046.86  851 7043.5  C 851 7040.14  853.64 7037.5  857 7037.5  Z " fill-rule="nonzero" fill="#ffffff" stroke="none" />
  <path d="M 857 7038  C 860.08 7038  862.5 7040.42  862.5 7043.5  C 862.5 7046.58  860.08 7049  857 7049  C 853.92 7049  851.5 7046.58  851.5 7043.5  C 851.5 7040.42  853.92 7038  857 7038  Z " stroke-width="1" stroke="#797979" fill="none" />
  <path d="M 857 7046.5  C 855.32 7046.5  854 7045.18  854 7043.5  C 854 7041.82  855.32 7040.5  857 7040.5  C 858.68 7040.5  860 7041.82  860 7043.5  C 860 7045.18  858.68 7046.5  857 7046.5  " fill-rule="nonzero" fill="#797979" stroke="none" />
</svg>