<?xml version="1.0" encoding="utf-8"?>
<svg version="1.1" xmlns:xlink="http://www.w3.org/1999/xlink" width="12px" height="12px" viewBox="451 7080  12 12" xmlns="http://www.w3.org/2000/svg">
  <path d="M 451.5 7082  A 1.5 1.5 0 0 1 453 7080.5 L 461 7080.5  A 1.5 1.5 0 0 1 462.5 7082 L 462.5 7090  A 1.5 1.5 0 0 1 461 7091.5 L 453 7091.5  A 1.5 1.5 0 0 1 451.5 7090 L 451.5 7082  Z " fill-rule="nonzero" fill="#ffffff" stroke="none" />
  <path d="M 451.5 7082  A 1.5 1.5 0 0 1 453 7080.5 L 461 7080.5  A 1.5 1.5 0 0 1 462.5 7082 L 462.5 7090  A 1.5 1.5 0 0 1 461 7091.5 L 453 7091.5  A 1.5 1.5 0 0 1 451.5 7090 L 451.5 7082  Z " stroke-width="1" stroke="#797979" fill="none" />
</svg>