<?xml version="1.0" encoding="utf-8"?>
<svg version="1.1" xmlns:xlink="http://www.w3.org/1999/xlink" width="12px" height="12px" viewBox="803 7082.5  12 12" xmlns="http://www.w3.org/2000/svg">
  <path d="M 809 7082.5  C 812.36 7082.5  815 7085.14  815 7088.5  C 815 7091.86  812.36 7094.5  809 7094.5  C 805.64 7094.5  803 7091.86  803 7088.5  C 803 7085.14  805.64 7082.5  809 7082.5  Z " fill-rule="nonzero" fill="#ffffff" stroke="none" />
  <path d="M 809 7083  C 812.08 7083  814.5 7085.42  814.5 7088.5  C 814.5 7091.58  812.08 7094  809 7094  C 805.92 7094  803.5 7091.58  803.5 7088.5  C 803.5 7085.42  805.92 7083  809 7083  Z " stroke-width="1" stroke="#797979" fill="none" />
  <path d="M 809 7091.5  C 807.32 7091.5  806 7090.18  806 7088.5  C 806 7086.82  807.32 7085.5  809 7085.5  C 810.68 7085.5  812 7086.82  812 7088.5  C 812 7090.18  810.68 7091.5  809 7091.5  " fill-rule="nonzero" fill="#797979" stroke="none" />
</svg>