<?xml version="1.0" encoding="utf-8"?>
<svg version="1.1" xmlns:xlink="http://www.w3.org/1999/xlink" width="12px" height="12px" viewBox="850 7205.5  12 12" xmlns="http://www.w3.org/2000/svg">
  <path d="M 856 7205.5  C 859.36 7205.5  862 7208.14  862 7211.5  C 862 7214.86  859.36 7217.5  856 7217.5  C 852.64 7217.5  850 7214.86  850 7211.5  C 850 7208.14  852.64 7205.5  856 7205.5  Z " fill-rule="nonzero" fill="#f0f0f0" stroke="none" />
  <path d="M 856 7206  C 859.08 7206  861.5 7208.42  861.5 7211.5  C 861.5 7214.58  859.08 7217  856 7217  C 852.92 7217  850.5 7214.58  850.5 7211.5  C 850.5 7208.42  852.92 7206  856 7206  Z " stroke-width="1" stroke="#797979" fill="none" />
  <path d="M 856 7214.5  C 854.32 7214.5  853 7213.18  853 7211.5  C 853 7209.82  854.32 7208.5  856 7208.5  C 857.68 7208.5  859 7209.82  859 7211.5  C 859 7213.18  857.68 7214.5  856 7214.5  " fill-rule="nonzero" fill="#797979" stroke="none" />
</svg>