<?xml version="1.0" encoding="utf-8"?>
<svg version="1.1" xmlns:xlink="http://www.w3.org/1999/xlink" width="12px" height="12px" viewBox="803 7205.5  12 12" xmlns="http://www.w3.org/2000/svg">
  <path d="M 809 7205.5  C 812.36 7205.5  815 7208.14  815 7211.5  C 815 7214.86  812.36 7217.5  809 7217.5  C 805.64 7217.5  803 7214.86  803 7211.5  C 803 7208.14  805.64 7205.5  809 7205.5  Z " fill-rule="nonzero" fill="#f0f0f0" stroke="none" />
  <path d="M 809 7206  C 812.08 7206  814.5 7208.42  814.5 7211.5  C 814.5 7214.58  812.08 7217  809 7217  C 805.92 7217  803.5 7214.58  803.5 7211.5  C 803.5 7208.42  805.92 7206  809 7206  Z " stroke-width="1" stroke="#797979" fill="none" />
  <path d="M 809 7214.5  C 807.32 7214.5  806 7213.18  806 7211.5  C 806 7209.82  807.32 7208.5  809 7208.5  C 810.68 7208.5  812 7209.82  812 7211.5  C 812 7213.18  810.68 7214.5  809 7214.5  " fill-rule="nonzero" fill="#797979" stroke="none" />
</svg>