<?xml version="1.0" encoding="utf-8"?>
<svg version="1.1" xmlns:xlink="http://www.w3.org/1999/xlink" width="12px" height="12px" viewBox="804 7250.5  12 12" xmlns="http://www.w3.org/2000/svg">
  <path d="M 810 7250.5  C 813.36 7250.5  816 7253.14  816 7256.5  C 816 7259.86  813.36 7262.5  810 7262.5  C 806.64 7262.5  804 7259.86  804 7256.5  C 804 7253.14  806.64 7250.5  810 7250.5  Z " fill-rule="nonzero" fill="#ffffff" stroke="none" />
  <path d="M 810 7251  C 813.08 7251  815.5 7253.42  815.5 7256.5  C 815.5 7259.58  813.08 7262  810 7262  C 806.92 7262  804.5 7259.58  804.5 7256.5  C 804.5 7253.42  806.92 7251  810 7251  Z " stroke-width="1" stroke="#797979" fill="none" />
  <path d="M 810 7259.5  C 808.32 7259.5  807 7258.18  807 7256.5  C 807 7254.82  808.32 7253.5  810 7253.5  C 811.68 7253.5  813 7254.82  813 7256.5  C 813 7258.18  811.68 7259.5  810 7259.5  " fill-rule="nonzero" fill="#797979" stroke="none" />
</svg>