<?xml version="1.0" encoding="utf-8"?>
<svg version="1.1" xmlns:xlink="http://www.w3.org/1999/xlink" width="12px" height="12px" viewBox="849 7126.5  12 12" xmlns="http://www.w3.org/2000/svg">
  <path d="M 855 7126.5  C 858.36 7126.5  861 7129.14  861 7132.5  C 861 7135.86  858.36 7138.5  855 7138.5  C 851.64 7138.5  849 7135.86  849 7132.5  C 849 7129.14  851.64 7126.5  855 7126.5  Z " fill-rule="nonzero" fill="#ffffff" stroke="none" />
  <path d="M 855 7127  C 858.08 7127  860.5 7129.42  860.5 7132.5  C 860.5 7135.58  858.08 7138  855 7138  C 851.92 7138  849.5 7135.58  849.5 7132.5  C 849.5 7129.42  851.92 7127  855 7127  Z " stroke-width="1" stroke="#797979" fill="none" />
  <path d="M 855 7135.5  C 853.32 7135.5  852 7134.18  852 7132.5  C 852 7130.82  853.32 7129.5  855 7129.5  C 856.68 7129.5  858 7130.82  858 7132.5  C 858 7134.18  856.68 7135.5  855 7135.5  " fill-rule="nonzero" fill="#797979" stroke="none" />
</svg>