<?xml version="1.0" encoding="utf-8"?>
<svg version="1.1" xmlns:xlink="http://www.w3.org/1999/xlink" width="12px" height="12px" viewBox="802 7126.5  12 12" xmlns="http://www.w3.org/2000/svg">
  <path d="M 808 7126.5  C 811.36 7126.5  814 7129.14  814 7132.5  C 814 7135.86  811.36 7138.5  808 7138.5  C 804.64 7138.5  802 7135.86  802 7132.5  C 802 7129.14  804.64 7126.5  808 7126.5  Z " fill-rule="nonzero" fill="#f0f0f0" stroke="none" />
  <path d="M 808 7127  C 811.08 7127  813.5 7129.42  813.5 7132.5  C 813.5 7135.58  811.08 7138  808 7138  C 804.92 7138  802.5 7135.58  802.5 7132.5  C 802.5 7129.42  804.92 7127  808 7127  Z " stroke-width="1" stroke="#797979" fill="none" />
  <path d="M 808 7135.5  C 806.32 7135.5  805 7134.18  805 7132.5  C 805 7130.82  806.32 7129.5  808 7129.5  C 809.68 7129.5  811 7130.82  811 7132.5  C 811 7134.18  809.68 7135.5  808 7135.5  " fill-rule="nonzero" fill="#797979" stroke="none" />
</svg>