<?xml version="1.0" encoding="utf-8"?>
<svg version="1.1" xmlns:xlink="http://www.w3.org/1999/xlink" width="12px" height="12px" viewBox="448 7124  12 12" xmlns="http://www.w3.org/2000/svg">
  <path d="M 448.5 7126  A 1.5 1.5 0 0 1 450 7124.5 L 458 7124.5  A 1.5 1.5 0 0 1 459.5 7126 L 459.5 7134  A 1.5 1.5 0 0 1 458 7135.5 L 450 7135.5  A 1.5 1.5 0 0 1 448.5 7134 L 448.5 7126  Z " fill-rule="nonzero" fill="#ffffff" stroke="none" />
  <path d="M 448.5 7126  A 1.5 1.5 0 0 1 450 7124.5 L 458 7124.5  A 1.5 1.5 0 0 1 459.5 7126 L 459.5 7134  A 1.5 1.5 0 0 1 458 7135.5 L 450 7135.5  A 1.5 1.5 0 0 1 448.5 7134 L 448.5 7126  Z " stroke-width="1" stroke="#797979" fill="none" />
</svg>