<?xml version="1.0" encoding="utf-8"?>
<svg version="1.1" xmlns:xlink="http://www.w3.org/1999/xlink" width="12px" height="12px" viewBox="850 7335.5  12 12" xmlns="http://www.w3.org/2000/svg">
  <path d="M 856 7335.5  C 859.36 7335.5  862 7338.14  862 7341.5  C 862 7344.86  859.36 7347.5  856 7347.5  C 852.64 7347.5  850 7344.86  850 7341.5  C 850 7338.14  852.64 7335.5  856 7335.5  Z " fill-rule="nonzero" fill="#ffffff" stroke="none" />
  <path d="M 856 7336  C 859.08 7336  861.5 7338.42  861.5 7341.5  C 861.5 7344.58  859.08 7347  856 7347  C 852.92 7347  850.5 7344.58  850.5 7341.5  C 850.5 7338.42  852.92 7336  856 7336  Z " stroke-width="1" stroke="#797979" fill="none" />
  <path d="M 856 7344.5  C 854.32 7344.5  853 7343.18  853 7341.5  C 853 7339.82  854.32 7338.5  856 7338.5  C 857.68 7338.5  859 7339.82  859 7341.5  C 859 7343.18  857.68 7344.5  856 7344.5  " fill-rule="nonzero" fill="#797979" stroke="none" />
</svg>