<?xml version="1.0" encoding="utf-8"?>
<svg version="1.1" xmlns:xlink="http://www.w3.org/1999/xlink" width="12px" height="12px" viewBox="804 7290.5  12 12" xmlns="http://www.w3.org/2000/svg">
  <path d="M 810 7290.5  C 813.36 7290.5  816 7293.14  816 7296.5  C 816 7299.86  813.36 7302.5  810 7302.5  C 806.64 7302.5  804 7299.86  804 7296.5  C 804 7293.14  806.64 7290.5  810 7290.5  Z " fill-rule="nonzero" fill="#f0f0f0" stroke="none" />
  <path d="M 810 7291  C 813.08 7291  815.5 7293.42  815.5 7296.5  C 815.5 7299.58  813.08 7302  810 7302  C 806.92 7302  804.5 7299.58  804.5 7296.5  C 804.5 7293.42  806.92 7291  810 7291  Z " stroke-width="1" stroke="#797979" fill="none" />
  <path d="M 810 7299.5  C 808.32 7299.5  807 7298.18  807 7296.5  C 807 7294.82  808.32 7293.5  810 7293.5  C 811.68 7293.5  813 7294.82  813 7296.5  C 813 7298.18  811.68 7299.5  810 7299.5  " fill-rule="nonzero" fill="#797979" stroke="none" />
</svg>