<?xml version="1.0" encoding="utf-8"?>
<svg version="1.1" xmlns:xlink="http://www.w3.org/1999/xlink" width="12px" height="12px" viewBox="452 7248  12 12" xmlns="http://www.w3.org/2000/svg">
  <path d="M 452.5 7250  A 1.5 1.5 0 0 1 454 7248.5 L 462 7248.5  A 1.5 1.5 0 0 1 463.5 7250 L 463.5 7258  A 1.5 1.5 0 0 1 462 7259.5 L 454 7259.5  A 1.5 1.5 0 0 1 452.5 7258 L 452.5 7250  Z " fill-rule="nonzero" fill="#f0f0f0" stroke="none" />
  <path d="M 452.5 7250  A 1.5 1.5 0 0 1 454 7248.5 L 462 7248.5  A 1.5 1.5 0 0 1 463.5 7250 L 463.5 7258  A 1.5 1.5 0 0 1 462 7259.5 L 454 7259.5  A 1.5 1.5 0 0 1 452.5 7258 L 452.5 7250  Z " stroke-width="1" stroke="#797979" fill="none" />
  <path d="M 454.571428571429 7254  L 457.142857142857 7256.57142857143  " stroke-width="2.57142857142857" stroke="#797979" fill="none" />
  <path d="M 457.142857142857 7256.57142857143  L 461.428571428571 7250.57142857143  " stroke-width="2.57142857142857" stroke="#797979" fill="none" />
</svg>