<?xml version="1.0" encoding="utf-8"?>
<svg version="1.1" xmlns:xlink="http://www.w3.org/1999/xlink" width="12px" height="12px" viewBox="851 7290.5  12 12" xmlns="http://www.w3.org/2000/svg">
  <path d="M 857 7290.5  C 860.36 7290.5  863 7293.14  863 7296.5  C 863 7299.86  860.36 7302.5  857 7302.5  C 853.64 7302.5  851 7299.86  851 7296.5  C 851 7293.14  853.64 7290.5  857 7290.5  Z " fill-rule="nonzero" fill="#f0f0f0" stroke="none" />
  <path d="M 857 7291  C 860.08 7291  862.5 7293.42  862.5 7296.5  C 862.5 7299.58  860.08 7302  857 7302  C 853.92 7302  851.5 7299.58  851.5 7296.5  C 851.5 7293.42  853.92 7291  857 7291  Z " stroke-width="1" stroke="#797979" fill="none" />
  <path d="M 857 7299.5  C 855.32 7299.5  854 7298.18  854 7296.5  C 854 7294.82  855.32 7293.5  857 7293.5  C 858.68 7293.5  860 7294.82  860 7296.5  C 860 7298.18  858.68 7299.5  857 7299.5  " fill-rule="nonzero" fill="#797979" stroke="none" />
</svg>