<?xml version="1.0" encoding="utf-8"?>
<svg version="1.1" xmlns:xlink="http://www.w3.org/1999/xlink" width="12px" height="12px" viewBox="803 7335.5  12 12" xmlns="http://www.w3.org/2000/svg">
  <path d="M 809 7335.5  C 812.36 7335.5  815 7338.14  815 7341.5  C 815 7344.86  812.36 7347.5  809 7347.5  C 805.64 7347.5  803 7344.86  803 7341.5  C 803 7338.14  805.64 7335.5  809 7335.5  Z " fill-rule="nonzero" fill="#ffffff" stroke="none" />
  <path d="M 809 7336  C 812.08 7336  814.5 7338.42  814.5 7341.5  C 814.5 7344.58  812.08 7347  809 7347  C 805.92 7347  803.5 7344.58  803.5 7341.5  C 803.5 7338.42  805.92 7336  809 7336  Z " stroke-width="1" stroke="#797979" fill="none" />
  <path d="M 809 7344.5  C 807.32 7344.5  806 7343.18  806 7341.5  C 806 7339.82  807.32 7338.5  809 7338.5  C 810.68 7338.5  812 7339.82  812 7341.5  C 812 7343.18  810.68 7344.5  809 7344.5  " fill-rule="nonzero" fill="#797979" stroke="none" />
</svg>