<?xml version="1.0" encoding="utf-8"?>
<svg version="1.1" xmlns:xlink="http://www.w3.org/1999/xlink" width="12px" height="12px" viewBox="451 7333  12 12" xmlns="http://www.w3.org/2000/svg">
  <path d="M 451.5 7335  A 1.5 1.5 0 0 1 453 7333.5 L 461 7333.5  A 1.5 1.5 0 0 1 462.5 7335 L 462.5 7343  A 1.5 1.5 0 0 1 461 7344.5 L 453 7344.5  A 1.5 1.5 0 0 1 451.5 7343 L 451.5 7335  Z " fill-rule="nonzero" fill="#ffffff" stroke="none" />
  <path d="M 451.5 7335  A 1.5 1.5 0 0 1 453 7333.5 L 461 7333.5  A 1.5 1.5 0 0 1 462.5 7335 L 462.5 7343  A 1.5 1.5 0 0 1 461 7344.5 L 453 7344.5  A 1.5 1.5 0 0 1 451.5 7343 L 451.5 7335  Z " stroke-width="1" stroke="#797979" fill="none" />
</svg>