<?xml version="1.0" encoding="utf-8"?>
<svg version="1.1" xmlns:xlink="http://www.w3.org/1999/xlink" width="12px" height="12px" viewBox="450 7372  12 12" xmlns="http://www.w3.org/2000/svg">
  <path d="M 450.5 7374  A 1.5 1.5 0 0 1 452 7372.5 L 460 7372.5  A 1.5 1.5 0 0 1 461.5 7374 L 461.5 7382  A 1.5 1.5 0 0 1 460 7383.5 L 452 7383.5  A 1.5 1.5 0 0 1 450.5 7382 L 450.5 7374  Z " fill-rule="nonzero" fill="#f0f0f0" stroke="none" />
  <path d="M 450.5 7374  A 1.5 1.5 0 0 1 452 7372.5 L 460 7372.5  A 1.5 1.5 0 0 1 461.5 7374 L 461.5 7382  A 1.5 1.5 0 0 1 460 7383.5 L 452 7383.5  A 1.5 1.5 0 0 1 450.5 7382 L 450.5 7374  Z " stroke-width="1" stroke="#797979" fill="none" />
</svg>