<?xml version="1.0" encoding="utf-8"?>
<svg version="1.1" xmlns:xlink="http://www.w3.org/1999/xlink" width="12px" height="12px" viewBox="804 7374.5  12 12" xmlns="http://www.w3.org/2000/svg">
  <path d="M 810 7374.5  C 813.36 7374.5  816 7377.14  816 7380.5  C 816 7383.86  813.36 7386.5  810 7386.5  C 806.64 7386.5  804 7383.86  804 7380.5  C 804 7377.14  806.64 7374.5  810 7374.5  Z " fill-rule="nonzero" fill="#ffffff" stroke="none" />
  <path d="M 810 7375  C 813.08 7375  815.5 7377.42  815.5 7380.5  C 815.5 7383.58  813.08 7386  810 7386  C 806.92 7386  804.5 7383.58  804.5 7380.5  C 804.5 7377.42  806.92 7375  810 7375  Z " stroke-width="1" stroke="#797979" fill="none" />
  <path d="M 810 7383.5  C 808.32 7383.5  807 7382.18  807 7380.5  C 807 7378.82  808.32 7377.5  810 7377.5  C 811.68 7377.5  813 7378.82  813 7380.5  C 813 7382.18  811.68 7383.5  810 7383.5  " fill-rule="nonzero" fill="#797979" stroke="none" />
</svg>