<?xml version="1.0" encoding="utf-8"?>
<svg version="1.1" xmlns:xlink="http://www.w3.org/1999/xlink" width="12px" height="12px" viewBox="803 7419.5  12 12" xmlns="http://www.w3.org/2000/svg">
  <path d="M 809 7419.5  C 812.36 7419.5  815 7422.14  815 7425.5  C 815 7428.86  812.36 7431.5  809 7431.5  C 805.64 7431.5  803 7428.86  803 7425.5  C 803 7422.14  805.64 7419.5  809 7419.5  Z " fill-rule="nonzero" fill="#ffffff" stroke="none" />
  <path d="M 809 7420  C 812.08 7420  814.5 7422.42  814.5 7425.5  C 814.5 7428.58  812.08 7431  809 7431  C 805.92 7431  803.5 7428.58  803.5 7425.5  C 803.5 7422.42  805.92 7420  809 7420  Z " stroke-width="1" stroke="#797979" fill="none" />
  <path d="M 809 7428.5  C 807.32 7428.5  806 7427.18  806 7425.5  C 806 7423.82  807.32 7422.5  809 7422.5  C 810.68 7422.5  812 7423.82  812 7425.5  C 812 7427.18  810.68 7428.5  809 7428.5  " fill-rule="nonzero" fill="#797979" stroke="none" />
</svg>