<?xml version="1.0" encoding="utf-8"?>
<svg version="1.1" xmlns:xlink="http://www.w3.org/1999/xlink" width="12px" height="12px" viewBox="850 7419.5  12 12" xmlns="http://www.w3.org/2000/svg">
  <path d="M 856 7419.5  C 859.36 7419.5  862 7422.14  862 7425.5  C 862 7428.86  859.36 7431.5  856 7431.5  C 852.64 7431.5  850 7428.86  850 7425.5  C 850 7422.14  852.64 7419.5  856 7419.5  Z " fill-rule="nonzero" fill="#f0f0f0" stroke="none" />
  <path d="M 856 7420  C 859.08 7420  861.5 7422.42  861.5 7425.5  C 861.5 7428.58  859.08 7431  856 7431  C 852.92 7431  850.5 7428.58  850.5 7425.5  C 850.5 7422.42  852.92 7420  856 7420  Z " stroke-width="1" stroke="#797979" fill="none" />
  <path d="M 856 7428.5  C 854.32 7428.5  853 7427.18  853 7425.5  C 853 7423.82  854.32 7422.5  856 7422.5  C 857.68 7422.5  859 7423.82  859 7425.5  C 859 7427.18  857.68 7428.5  856 7428.5  " fill-rule="nonzero" fill="#797979" stroke="none" />
</svg>