<?xml version="1.0" encoding="utf-8"?>
<svg version="1.1" xmlns:xlink="http://www.w3.org/1999/xlink" width="12px" height="12px" viewBox="804 7497.5  12 12" xmlns="http://www.w3.org/2000/svg">
  <path d="M 810 7497.5  C 813.36 7497.5  816 7500.14  816 7503.5  C 816 7506.86  813.36 7509.5  810 7509.5  C 806.64 7509.5  804 7506.86  804 7503.5  C 804 7500.14  806.64 7497.5  810 7497.5  Z " fill-rule="nonzero" fill="#f0f0f0" stroke="none" />
  <path d="M 810 7498  C 813.08 7498  815.5 7500.42  815.5 7503.5  C 815.5 7506.58  813.08 7509  810 7509  C 806.92 7509  804.5 7506.58  804.5 7503.5  C 804.5 7500.42  806.92 7498  810 7498  Z " stroke-width="1" stroke="#797979" fill="none" />
  <path d="M 810 7506.5  C 808.32 7506.5  807 7505.18  807 7503.5  C 807 7501.82  808.32 7500.5  810 7500.5  C 811.68 7500.5  813 7501.82  813 7503.5  C 813 7505.18  811.68 7506.5  810 7506.5  " fill-rule="nonzero" fill="#797979" stroke="none" />
</svg>