<?xml version="1.0" encoding="utf-8"?>
<svg version="1.1" xmlns:xlink="http://www.w3.org/1999/xlink" width="12px" height="12px" viewBox="849 7463.5  12 12" xmlns="http://www.w3.org/2000/svg">
  <path d="M 855 7463.5  C 858.36 7463.5  861 7466.14  861 7469.5  C 861 7472.86  858.36 7475.5  855 7475.5  C 851.64 7475.5  849 7472.86  849 7469.5  C 849 7466.14  851.64 7463.5  855 7463.5  Z " fill-rule="nonzero" fill="#f0f0f0" stroke="none" />
  <path d="M 855 7464  C 858.08 7464  860.5 7466.42  860.5 7469.5  C 860.5 7472.58  858.08 7475  855 7475  C 851.92 7475  849.5 7472.58  849.5 7469.5  C 849.5 7466.42  851.92 7464  855 7464  Z " stroke-width="1" stroke="#797979" fill="none" />
  <path d="M 855 7472.5  C 853.32 7472.5  852 7471.18  852 7469.5  C 852 7467.82  853.32 7466.5  855 7466.5  C 856.68 7466.5  858 7467.82  858 7469.5  C 858 7471.18  856.68 7472.5  855 7472.5  " fill-rule="nonzero" fill="#797979" stroke="none" />
</svg>