<?xml version="1.0" encoding="utf-8"?>
<svg version="1.1" xmlns:xlink="http://www.w3.org/1999/xlink" width="12px" height="12px" viewBox="851 7497.5  12 12" xmlns="http://www.w3.org/2000/svg">
  <path d="M 857 7497.5  C 860.36 7497.5  863 7500.14  863 7503.5  C 863 7506.86  860.36 7509.5  857 7509.5  C 853.64 7509.5  851 7506.86  851 7503.5  C 851 7500.14  853.64 7497.5  857 7497.5  Z " fill-rule="nonzero" fill="#ffffff" stroke="none" />
  <path d="M 857 7498  C 860.08 7498  862.5 7500.42  862.5 7503.5  C 862.5 7506.58  860.08 7509  857 7509  C 853.92 7509  851.5 7506.58  851.5 7503.5  C 851.5 7500.42  853.92 7498  857 7498  Z " stroke-width="1" stroke="#797979" fill="none" />
  <path d="M 857 7506.5  C 855.32 7506.5  854 7505.18  854 7503.5  C 854 7501.82  855.32 7500.5  857 7500.5  C 858.68 7500.5  860 7501.82  860 7503.5  C 860 7505.18  858.68 7506.5  857 7506.5  " fill-rule="nonzero" fill="#797979" stroke="none" />
</svg>