<?xml version="1.0" encoding="utf-8"?>
<svg version="1.1" xmlns:xlink="http://www.w3.org/1999/xlink" width="12px" height="12px" viewBox="450 1590  12 12" xmlns="http://www.w3.org/2000/svg">
  <path d="M 450.5 1592  A 1.5 1.5 0 0 1 452 1590.5 L 460 1590.5  A 1.5 1.5 0 0 1 461.5 1592 L 461.5 1600  A 1.5 1.5 0 0 1 460 1601.5 L 452 1601.5  A 1.5 1.5 0 0 1 450.5 1600 L 450.5 1592  Z " fill-rule="nonzero" fill="#f0f0f0" stroke="none" />
  <path d="M 450.5 1592  A 1.5 1.5 0 0 1 452 1590.5 L 460 1590.5  A 1.5 1.5 0 0 1 461.5 1592 L 461.5 1600  A 1.5 1.5 0 0 1 460 1601.5 L 452 1601.5  A 1.5 1.5 0 0 1 450.5 1600 L 450.5 1592  Z " stroke-width="1" stroke="#797979" fill="none" />
</svg>