<?xml version="1.0" encoding="utf-8"?>
<svg version="1.1" xmlns:xlink="http://www.w3.org/1999/xlink" width="12px" height="12px" viewBox="849 1594  12 12" xmlns="http://www.w3.org/2000/svg">
  <path d="M 855 1594  C 858.36 1594  861 1596.64  861 1600  C 861 1603.36  858.36 1606  855 1606  C 851.64 1606  849 1603.36  849 1600  C 849 1596.64  851.64 1594  855 1594  Z " fill-rule="nonzero" fill="#ffffff" stroke="none" />
  <path d="M 855 1594.5  C 858.08 1594.5  860.5 1596.92  860.5 1600  C 860.5 1603.08  858.08 1605.5  855 1605.5  C 851.92 1605.5  849.5 1603.08  849.5 1600  C 849.5 1596.92  851.92 1594.5  855 1594.5  Z " stroke-width="1" stroke="#797979" fill="none" />
  <path d="M 855 1603  C 853.32 1603  852 1601.68  852 1600  C 852 1598.32  853.32 1597  855 1597  C 856.68 1597  858 1598.32  858 1600  C 858 1601.68  856.68 1603  855 1603  " fill-rule="nonzero" fill="#797979" stroke="none" />
</svg>