<?xml version="1.0" encoding="utf-8"?>
<svg version="1.1" xmlns:xlink="http://www.w3.org/1999/xlink" width="12px" height="12px" viewBox="452 1716  12 12" xmlns="http://www.w3.org/2000/svg">
  <path d="M 452.5 1718  A 1.5 1.5 0 0 1 454 1716.5 L 462 1716.5  A 1.5 1.5 0 0 1 463.5 1718 L 463.5 1726  A 1.5 1.5 0 0 1 462 1727.5 L 454 1727.5  A 1.5 1.5 0 0 1 452.5 1726 L 452.5 1718  Z " fill-rule="nonzero" fill="#f0f0f0" stroke="none" />
  <path d="M 452.5 1718  A 1.5 1.5 0 0 1 454 1716.5 L 462 1716.5  A 1.5 1.5 0 0 1 463.5 1718 L 463.5 1726  A 1.5 1.5 0 0 1 462 1727.5 L 454 1727.5  A 1.5 1.5 0 0 1 452.5 1726 L 452.5 1718  Z " stroke-width="1" stroke="#797979" fill="none" />
  <path d="M 454.571428571429 1722  L 457.142857142857 1724.57142857143  " stroke-width="2.57142857142857" stroke="#797979" fill="none" />
  <path d="M 457.142857142857 1724.57142857143  L 461.428571428571 1718.57142857143  " stroke-width="2.57142857142857" stroke="#797979" fill="none" />
</svg>