<?xml version="1.0" encoding="utf-8"?>
<svg version="1.1" xmlns:xlink="http://www.w3.org/1999/xlink" width="12px" height="12px" viewBox="853 1718.5  12 12" xmlns="http://www.w3.org/2000/svg">
  <path d="M 859 1718.5  C 862.36 1718.5  865 1721.14  865 1724.5  C 865 1727.86  862.36 1730.5  859 1730.5  C 855.64 1730.5  853 1727.86  853 1724.5  C 853 1721.14  855.64 1718.5  859 1718.5  Z " fill-rule="nonzero" fill="#f0f0f0" stroke="none" />
  <path d="M 859 1719  C 862.08 1719  864.5 1721.42  864.5 1724.5  C 864.5 1727.58  862.08 1730  859 1730  C 855.92 1730  853.5 1727.58  853.5 1724.5  C 853.5 1721.42  855.92 1719  859 1719  Z " stroke-width="1" stroke="#797979" fill="none" />
  <path d="M 859 1727.5  C 857.32 1727.5  856 1726.18  856 1724.5  C 856 1722.82  857.32 1721.5  859 1721.5  C 860.68 1721.5  862 1722.82  862 1724.5  C 862 1726.18  860.68 1727.5  859 1727.5  " fill-rule="nonzero" fill="#797979" stroke="none" />
</svg>