<?xml version="1.0" encoding="utf-8"?>
<svg version="1.1" xmlns:xlink="http://www.w3.org/1999/xlink" width="12px" height="12px" viewBox="852 1763.5  12 12" xmlns="http://www.w3.org/2000/svg">
  <path d="M 858 1763.5  C 861.36 1763.5  864 1766.14  864 1769.5  C 864 1772.86  861.36 1775.5  858 1775.5  C 854.64 1775.5  852 1772.86  852 1769.5  C 852 1766.14  854.64 1763.5  858 1763.5  Z " fill-rule="nonzero" fill="#f0f0f0" stroke="none" />
  <path d="M 858 1764  C 861.08 1764  863.5 1766.42  863.5 1769.5  C 863.5 1772.58  861.08 1775  858 1775  C 854.92 1775  852.5 1772.58  852.5 1769.5  C 852.5 1766.42  854.92 1764  858 1764  Z " stroke-width="1" stroke="#797979" fill="none" />
  <path d="M 858 1772.5  C 856.32 1772.5  855 1771.18  855 1769.5  C 855 1767.82  856.32 1766.5  858 1766.5  C 859.68 1766.5  861 1767.82  861 1769.5  C 861 1771.18  859.68 1772.5  858 1772.5  " fill-rule="nonzero" fill="#797979" stroke="none" />
</svg>