<?xml version="1.0" encoding="utf-8"?>
<svg version="1.1" xmlns:xlink="http://www.w3.org/1999/xlink" width="12px" height="12px" viewBox="805 1805.5  12 12" xmlns="http://www.w3.org/2000/svg">
  <path d="M 811 1805.5  C 814.36 1805.5  817 1808.14  817 1811.5  C 817 1814.86  814.36 1817.5  811 1817.5  C 807.64 1817.5  805 1814.86  805 1811.5  C 805 1808.14  807.64 1805.5  811 1805.5  Z " fill-rule="nonzero" fill="#ffffff" stroke="none" />
  <path d="M 811 1806  C 814.08 1806  816.5 1808.42  816.5 1811.5  C 816.5 1814.58  814.08 1817  811 1817  C 807.92 1817  805.5 1814.58  805.5 1811.5  C 805.5 1808.42  807.92 1806  811 1806  Z " stroke-width="1" stroke="#797979" fill="none" />
  <path d="M 811 1814.5  C 809.32 1814.5  808 1813.18  808 1811.5  C 808 1809.82  809.32 1808.5  811 1808.5  C 812.68 1808.5  814 1809.82  814 1811.5  C 814 1813.18  812.68 1814.5  811 1814.5  " fill-rule="nonzero" fill="#797979" stroke="none" />
</svg>