<?xml version="1.0" encoding="utf-8"?>
<svg version="1.1" xmlns:xlink="http://www.w3.org/1999/xlink" width="12px" height="12px" viewBox="453 1761  12 12" xmlns="http://www.w3.org/2000/svg">
  <path d="M 453.5 1763  A 1.5 1.5 0 0 1 455 1761.5 L 463 1761.5  A 1.5 1.5 0 0 1 464.5 1763 L 464.5 1771  A 1.5 1.5 0 0 1 463 1772.5 L 455 1772.5  A 1.5 1.5 0 0 1 453.5 1771 L 453.5 1763  Z " fill-rule="nonzero" fill="#ffffff" stroke="none" />
  <path d="M 453.5 1763  A 1.5 1.5 0 0 1 455 1761.5 L 463 1761.5  A 1.5 1.5 0 0 1 464.5 1763 L 464.5 1771  A 1.5 1.5 0 0 1 463 1772.5 L 455 1772.5  A 1.5 1.5 0 0 1 453.5 1771 L 453.5 1763  Z " stroke-width="1" stroke="#797979" fill="none" />
</svg>