<?xml version="1.0" encoding="utf-8"?>
<svg version="1.1" xmlns:xlink="http://www.w3.org/1999/xlink" width="12px" height="12px" viewBox="805 1467.5  12 12" xmlns="http://www.w3.org/2000/svg">
  <path d="M 811 1467.5  C 814.36 1467.5  817 1470.14  817 1473.5  C 817 1476.86  814.36 1479.5  811 1479.5  C 807.64 1479.5  805 1476.86  805 1473.5  C 805 1470.14  807.64 1467.5  811 1467.5  Z " fill-rule="nonzero" fill="#ffffff" stroke="none" />
  <path d="M 811 1468  C 814.08 1468  816.5 1470.42  816.5 1473.5  C 816.5 1476.58  814.08 1479  811 1479  C 807.92 1479  805.5 1476.58  805.5 1473.5  C 805.5 1470.42  807.92 1468  811 1468  Z " stroke-width="1" stroke="#797979" fill="none" />
  <path d="M 811 1476.5  C 809.32 1476.5  808 1475.18  808 1473.5  C 808 1471.82  809.32 1470.5  811 1470.5  C 812.68 1470.5  814 1471.82  814 1473.5  C 814 1475.18  812.68 1476.5  811 1476.5  " fill-rule="nonzero" fill="#797979" stroke="none" />
</svg>