<?xml version="1.0" encoding="utf-8"?>
<svg version="1.1" xmlns:xlink="http://www.w3.org/1999/xlink" width="12px" height="12px" viewBox="454 1676  12 12" xmlns="http://www.w3.org/2000/svg">
  <path d="M 454.5 1678  A 1.5 1.5 0 0 1 456 1676.5 L 464 1676.5  A 1.5 1.5 0 0 1 465.5 1678 L 465.5 1686  A 1.5 1.5 0 0 1 464 1687.5 L 456 1687.5  A 1.5 1.5 0 0 1 454.5 1686 L 454.5 1678  Z " fill-rule="nonzero" fill="#ffffff" stroke="none" />
  <path d="M 454.5 1678  A 1.5 1.5 0 0 1 456 1676.5 L 464 1676.5  A 1.5 1.5 0 0 1 465.5 1678 L 465.5 1686  A 1.5 1.5 0 0 1 464 1687.5 L 456 1687.5  A 1.5 1.5 0 0 1 454.5 1686 L 454.5 1678  Z " stroke-width="1" stroke="#797979" fill="none" />
  <path d="M 456.571428571429 1682  L 459.142857142857 1684.57142857143  " stroke-width="2.57142857142857" stroke="#797979" fill="none" />
  <path d="M 459.142857142857 1684.57142857143  L 463.428571428571 1678.57142857143  " stroke-width="2.57142857142857" stroke="#797979" fill="none" />
</svg>