<?xml version="1.0" encoding="utf-8"?>
<svg version="1.1" xmlns:xlink="http://www.w3.org/1999/xlink" width="12px" height="12px" viewBox="852 1467.5  12 12" xmlns="http://www.w3.org/2000/svg">
  <path d="M 858 1467.5  C 861.36 1467.5  864 1470.14  864 1473.5  C 864 1476.86  861.36 1479.5  858 1479.5  C 854.64 1479.5  852 1476.86  852 1473.5  C 852 1470.14  854.64 1467.5  858 1467.5  Z " fill-rule="nonzero" fill="#ffffff" stroke="none" />
  <path d="M 858 1468  C 861.08 1468  863.5 1470.42  863.5 1473.5  C 863.5 1476.58  861.08 1479  858 1479  C 854.92 1479  852.5 1476.58  852.5 1473.5  C 852.5 1470.42  854.92 1468  858 1468  Z " stroke-width="1" stroke="#797979" fill="none" />
  <path d="M 858 1476.5  C 856.32 1476.5  855 1475.18  855 1473.5  C 855 1471.82  856.32 1470.5  858 1470.5  C 859.68 1470.5  861 1471.82  861 1473.5  C 861 1475.18  859.68 1476.5  858 1476.5  " fill-rule="nonzero" fill="#797979" stroke="none" />
</svg>