<?xml version="1.0" encoding="utf-8"?>
<svg version="1.1" xmlns:xlink="http://www.w3.org/1999/xlink" width="12px" height="12px" viewBox="451 1505  12 12" xmlns="http://www.w3.org/2000/svg">
  <path d="M 451.5 1507  A 1.5 1.5 0 0 1 453 1505.5 L 461 1505.5  A 1.5 1.5 0 0 1 462.5 1507 L 462.5 1515  A 1.5 1.5 0 0 1 461 1516.5 L 453 1516.5  A 1.5 1.5 0 0 1 451.5 1515 L 451.5 1507  Z " fill-rule="nonzero" fill="#f0f0f0" stroke="none" />
  <path d="M 451.5 1507  A 1.5 1.5 0 0 1 453 1505.5 L 461 1505.5  A 1.5 1.5 0 0 1 462.5 1507 L 462.5 1515  A 1.5 1.5 0 0 1 461 1516.5 L 453 1516.5  A 1.5 1.5 0 0 1 451.5 1515 L 451.5 1507  Z " stroke-width="1" stroke="#797979" fill="none" />
</svg>