<?xml version="1.0" encoding="utf-8"?>
<svg version="1.1" xmlns:xlink="http://www.w3.org/1999/xlink" width="12px" height="12px" viewBox="210 2135  12 12" xmlns="http://www.w3.org/2000/svg">
  <path d="M 210.5 2137  A 1.5 1.5 0 0 1 212 2135.5 L 220 2135.5  A 1.5 1.5 0 0 1 221.5 2137 L 221.5 2145  A 1.5 1.5 0 0 1 220 2146.5 L 212 2146.5  A 1.5 1.5 0 0 1 210.5 2145 L 210.5 2137  Z " fill-rule="nonzero" fill="#ffffff" stroke="none" />
  <path d="M 210.5 2137  A 1.5 1.5 0 0 1 212 2135.5 L 220 2135.5  A 1.5 1.5 0 0 1 221.5 2137 L 221.5 2145  A 1.5 1.5 0 0 1 220 2146.5 L 212 2146.5  A 1.5 1.5 0 0 1 210.5 2145 L 210.5 2137  Z " stroke-width="1" stroke="#797979" fill="none" />
  <path d="M 212.571428571429 2141  L 215.142857142857 2143.57142857143  " stroke-width="2.57142857142857" stroke="#797979" fill="none" />
  <path d="M 215.142857142857 2143.57142857143  L 219.428571428571 2137.57142857143  " stroke-width="2.57142857142857" stroke="#797979" fill="none" />
</svg>