<?xml version="1.0" encoding="utf-8"?>
<svg version="1.1" xmlns:xlink="http://www.w3.org/1999/xlink" width="12px" height="12px" viewBox="452 1550  12 12" xmlns="http://www.w3.org/2000/svg">
  <path d="M 452.5 1552  A 1.5 1.5 0 0 1 454 1550.5 L 462 1550.5  A 1.5 1.5 0 0 1 463.5 1552 L 463.5 1560  A 1.5 1.5 0 0 1 462 1561.5 L 454 1561.5  A 1.5 1.5 0 0 1 452.5 1560 L 452.5 1552  Z " fill-rule="nonzero" fill="#ffffff" stroke="none" />
  <path d="M 452.5 1552  A 1.5 1.5 0 0 1 454 1550.5 L 462 1550.5  A 1.5 1.5 0 0 1 463.5 1552 L 463.5 1560  A 1.5 1.5 0 0 1 462 1561.5 L 454 1561.5  A 1.5 1.5 0 0 1 452.5 1560 L 452.5 1552  Z " stroke-width="1" stroke="#797979" fill="none" />
</svg>