<?xml version="1.0" encoding="utf-8"?>
<svg version="1.1" xmlns:xlink="http://www.w3.org/1999/xlink" width="12px" height="12px" viewBox="851 1552.5  12 12" xmlns="http://www.w3.org/2000/svg">
  <path d="M 857 1552.5  C 860.36 1552.5  863 1555.14  863 1558.5  C 863 1561.86  860.36 1564.5  857 1564.5  C 853.64 1564.5  851 1561.86  851 1558.5  C 851 1555.14  853.64 1552.5  857 1552.5  Z " fill-rule="nonzero" fill="#ffffff" stroke="none" />
  <path d="M 857 1553  C 860.08 1553  862.5 1555.42  862.5 1558.5  C 862.5 1561.58  860.08 1564  857 1564  C 853.92 1564  851.5 1561.58  851.5 1558.5  C 851.5 1555.42  853.92 1553  857 1553  Z " stroke-width="1" stroke="#797979" fill="none" />
  <path d="M 857 1561.5  C 855.32 1561.5  854 1560.18  854 1558.5  C 854 1556.82  855.32 1555.5  857 1555.5  C 858.68 1555.5  860 1556.82  860 1558.5  C 860 1560.18  858.68 1561.5  857 1561.5  " fill-rule="nonzero" fill="#797979" stroke="none" />
</svg>