<?xml version="1.0" encoding="utf-8"?>
<svg version="1.1" xmlns:xlink="http://www.w3.org/1999/xlink" width="12px" height="12px" viewBox="805 1970.5  12 12" xmlns="http://www.w3.org/2000/svg">
  <path d="M 811 1970.5  C 814.36 1970.5  817 1973.14  817 1976.5  C 817 1979.86  814.36 1982.5  811 1982.5  C 807.64 1982.5  805 1979.86  805 1976.5  C 805 1973.14  807.64 1970.5  811 1970.5  Z " fill-rule="nonzero" fill="#d7d7d7" stroke="none" />
  <path d="M 811 1971  C 814.08 1971  816.5 1973.42  816.5 1976.5  C 816.5 1979.58  814.08 1982  811 1982  C 807.92 1982  805.5 1979.58  805.5 1976.5  C 805.5 1973.42  807.92 1971  811 1971  Z " stroke-width="1" stroke="#797979" fill="none" />
  <path d="M 811 1979.5  C 809.32 1979.5  808 1978.18  808 1976.5  C 808 1974.82  809.32 1973.5  811 1973.5  C 812.68 1973.5  814 1974.82  814 1976.5  C 814 1978.18  812.68 1979.5  811 1979.5  " fill-rule="nonzero" fill="#797979" stroke="none" />
</svg>