<?xml version="1.0" encoding="utf-8"?>
<svg version="1.1" xmlns:xlink="http://www.w3.org/1999/xlink" width="12px" height="12px" viewBox="451 1968  12 12" xmlns="http://www.w3.org/2000/svg">
  <path d="M 451.5 1970  A 1.5 1.5 0 0 1 453 1968.5 L 461 1968.5  A 1.5 1.5 0 0 1 462.5 1970 L 462.5 1978  A 1.5 1.5 0 0 1 461 1979.5 L 453 1979.5  A 1.5 1.5 0 0 1 451.5 1978 L 451.5 1970  Z " fill-rule="nonzero" fill="#f0f0f0" stroke="none" />
  <path d="M 451.5 1970  A 1.5 1.5 0 0 1 453 1968.5 L 461 1968.5  A 1.5 1.5 0 0 1 462.5 1970 L 462.5 1978  A 1.5 1.5 0 0 1 461 1979.5 L 453 1979.5  A 1.5 1.5 0 0 1 451.5 1978 L 451.5 1970  Z " stroke-width="1" stroke="#797979" fill="none" />
  <path d="M 453.571428571429 1974  L 456.142857142857 1976.57142857143  " stroke-width="2.57142857142857" stroke="#797979" fill="none" />
  <path d="M 456.142857142857 1976.57142857143  L 460.428571428571 1970.57142857143  " stroke-width="2.57142857142857" stroke="#797979" fill="none" />
</svg>