<?xml version="1.0" encoding="utf-8"?>
<svg version="1.1" xmlns:xlink="http://www.w3.org/1999/xlink" width="12px" height="12px" viewBox="852 1970.5  12 12" xmlns="http://www.w3.org/2000/svg">
  <path d="M 858 1970.5  C 861.36 1970.5  864 1973.14  864 1976.5  C 864 1979.86  861.36 1982.5  858 1982.5  C 854.64 1982.5  852 1979.86  852 1976.5  C 852 1973.14  854.64 1970.5  858 1970.5  Z " fill-rule="nonzero" fill="#d7d7d7" stroke="none" />
  <path d="M 858 1971  C 861.08 1971  863.5 1973.42  863.5 1976.5  C 863.5 1979.58  861.08 1982  858 1982  C 854.92 1982  852.5 1979.58  852.5 1976.5  C 852.5 1973.42  854.92 1971  858 1971  Z " stroke-width="1" stroke="#797979" fill="none" />
  <path d="M 858 1979.5  C 856.32 1979.5  855 1978.18  855 1976.5  C 855 1974.82  856.32 1973.5  858 1973.5  C 859.68 1973.5  861 1974.82  861 1976.5  C 861 1978.18  859.68 1979.5  858 1979.5  " fill-rule="nonzero" fill="#797979" stroke="none" />
</svg>