<?xml version="1.0" encoding="utf-8"?>
<svg version="1.1" xmlns:xlink="http://www.w3.org/1999/xlink" width="12px" height="12px" viewBox="806 2460.5  12 12" xmlns="http://www.w3.org/2000/svg">
  <path d="M 812 2460.5  C 815.36 2460.5  818 2463.14  818 2466.5  C 818 2469.86  815.36 2472.5  812 2472.5  C 808.64 2472.5  806 2469.86  806 2466.5  C 806 2463.14  808.64 2460.5  812 2460.5  Z " fill-rule="nonzero" fill="#ffffff" stroke="none" fill-opacity="0" />
  <path d="M 812 2461  C 815.08 2461  817.5 2463.42  817.5 2466.5  C 817.5 2469.58  815.08 2472  812 2472  C 808.92 2472  806.5 2469.58  806.5 2466.5  C 806.5 2463.42  808.92 2461  812 2461  Z " stroke-width="1" stroke="#797979" fill="none" />
  <path d="M 812 2469.5  C 810.32 2469.5  809 2468.18  809 2466.5  C 809 2464.82  810.32 2463.5  812 2463.5  C 813.68 2463.5  815 2464.82  815 2466.5  C 815 2468.18  813.68 2469.5  812 2469.5  " fill-rule="nonzero" fill="#797979" stroke="none" />
</svg>