<?xml version="1.0" encoding="utf-8"?>
<svg version="1.1" xmlns:xlink="http://www.w3.org/1999/xlink" width="12px" height="12px" viewBox="852 2501.5  12 12" xmlns="http://www.w3.org/2000/svg">
  <path d="M 858 2501.5  C 861.36 2501.5  864 2504.14  864 2507.5  C 864 2510.86  861.36 2513.5  858 2513.5  C 854.64 2513.5  852 2510.86  852 2507.5  C 852 2504.14  854.64 2501.5  858 2501.5  Z " fill-rule="nonzero" fill="#ffffff" stroke="none" fill-opacity="0" />
  <path d="M 858 2502  C 861.08 2502  863.5 2504.42  863.5 2507.5  C 863.5 2510.58  861.08 2513  858 2513  C 854.92 2513  852.5 2510.58  852.5 2507.5  C 852.5 2504.42  854.92 2502  858 2502  Z " stroke-width="1" stroke="#797979" fill="none" />
  <path d="M 858 2510.5  C 856.32 2510.5  855 2509.18  855 2507.5  C 855 2505.82  856.32 2504.5  858 2504.5  C 859.68 2504.5  861 2505.82  861 2507.5  C 861 2509.18  859.68 2510.5  858 2510.5  " fill-rule="nonzero" fill="#797979" stroke="none" />
</svg>