<?xml version="1.0" encoding="utf-8"?>
<svg version="1.1" xmlns:xlink="http://www.w3.org/1999/xlink" width="12px" height="12px" viewBox="853 2460.5  12 12" xmlns="http://www.w3.org/2000/svg">
  <path d="M 859 2460.5  C 862.36 2460.5  865 2463.14  865 2466.5  C 865 2469.86  862.36 2472.5  859 2472.5  C 855.64 2472.5  853 2469.86  853 2466.5  C 853 2463.14  855.64 2460.5  859 2460.5  Z " fill-rule="nonzero" fill="#ffffff" stroke="none" fill-opacity="0" />
  <path d="M 859 2461  C 862.08 2461  864.5 2463.42  864.5 2466.5  C 864.5 2469.58  862.08 2472  859 2472  C 855.92 2472  853.5 2469.58  853.5 2466.5  C 853.5 2463.42  855.92 2461  859 2461  Z " stroke-width="1" stroke="#797979" fill="none" />
  <path d="M 859 2469.5  C 857.32 2469.5  856 2468.18  856 2466.5  C 856 2464.82  857.32 2463.5  859 2463.5  C 860.68 2463.5  862 2464.82  862 2466.5  C 862 2468.18  860.68 2469.5  859 2469.5  " fill-rule="nonzero" fill="#797979" stroke="none" />
</svg>