<?xml version="1.0" encoding="utf-8"?>
<svg version="1.1" xmlns:xlink="http://www.w3.org/1999/xlink" width="12px" height="12px" viewBox="452 2458  12 12" xmlns="http://www.w3.org/2000/svg">
  <path d="M 452.5 2460  A 1.5 1.5 0 0 1 454 2458.5 L 462 2458.5  A 1.5 1.5 0 0 1 463.5 2460 L 463.5 2468  A 1.5 1.5 0 0 1 462 2469.5 L 454 2469.5  A 1.5 1.5 0 0 1 452.5 2468 L 452.5 2460  Z " fill-rule="nonzero" fill="#f0f0f0" stroke="none" />
  <path d="M 452.5 2460  A 1.5 1.5 0 0 1 454 2458.5 L 462 2458.5  A 1.5 1.5 0 0 1 463.5 2460 L 463.5 2468  A 1.5 1.5 0 0 1 462 2469.5 L 454 2469.5  A 1.5 1.5 0 0 1 452.5 2468 L 452.5 2460  Z " stroke-width="1" stroke="#797979" fill="none" />
  <path d="M 454.571428571429 2464  L 457.142857142857 2466.57142857143  " stroke-width="2.57142857142857" stroke="#797979" fill="none" />
  <path d="M 457.142857142857 2466.57142857143  L 461.428571428571 2460.57142857143  " stroke-width="2.57142857142857" stroke="#797979" fill="none" />
</svg>