<?xml version="1.0" encoding="utf-8"?>
<svg version="1.1" xmlns:xlink="http://www.w3.org/1999/xlink" width="12px" height="12px" viewBox="807 2167.5  12 12" xmlns="http://www.w3.org/2000/svg">
  <path d="M 813 2167.5  C 816.36 2167.5  819 2170.14  819 2173.5  C 819 2176.86  816.36 2179.5  813 2179.5  C 809.64 2179.5  807 2176.86  807 2173.5  C 807 2170.14  809.64 2167.5  813 2167.5  Z " fill-rule="nonzero" fill="#f0f0f0" stroke="none" />
  <path d="M 813 2168  C 816.08 2168  818.5 2170.42  818.5 2173.5  C 818.5 2176.58  816.08 2179  813 2179  C 809.92 2179  807.5 2176.58  807.5 2173.5  C 807.5 2170.42  809.92 2168  813 2168  Z " stroke-width="1" stroke="#797979" fill="none" />
  <path d="M 813 2176.5  C 811.32 2176.5  810 2175.18  810 2173.5  C 810 2171.82  811.32 2170.5  813 2170.5  C 814.68 2170.5  816 2171.82  816 2173.5  C 816 2175.18  814.68 2176.5  813 2176.5  " fill-rule="nonzero" fill="#797979" stroke="none" />
</svg>