<?xml version="1.0" encoding="utf-8"?>
<svg version="1.1" xmlns:xlink="http://www.w3.org/1999/xlink" width="12px" height="12px" viewBox="453 2165  12 12" xmlns="http://www.w3.org/2000/svg">
  <path d="M 453.5 2167  A 1.5 1.5 0 0 1 455 2165.5 L 463 2165.5  A 1.5 1.5 0 0 1 464.5 2167 L 464.5 2175  A 1.5 1.5 0 0 1 463 2176.5 L 455 2176.5  A 1.5 1.5 0 0 1 453.5 2175 L 453.5 2167  Z " fill-rule="nonzero" fill="#ffffff" stroke="none" fill-opacity="0" />
  <path d="M 453.5 2167  A 1.5 1.5 0 0 1 455 2165.5 L 463 2165.5  A 1.5 1.5 0 0 1 464.5 2167 L 464.5 2175  A 1.5 1.5 0 0 1 463 2176.5 L 455 2176.5  A 1.5 1.5 0 0 1 453.5 2175 L 453.5 2167  Z " stroke-width="1" stroke="#797979" fill="none" />
</svg>