<?xml version="1.0" encoding="utf-8"?>
<svg version="1.1" xmlns:xlink="http://www.w3.org/1999/xlink" width="12px" height="12px" viewBox="452 2206  12 12" xmlns="http://www.w3.org/2000/svg">
  <path d="M 452.5 2208  A 1.5 1.5 0 0 1 454 2206.5 L 462 2206.5  A 1.5 1.5 0 0 1 463.5 2208 L 463.5 2216  A 1.5 1.5 0 0 1 462 2217.5 L 454 2217.5  A 1.5 1.5 0 0 1 452.5 2216 L 452.5 2208  Z " fill-rule="nonzero" fill="#ffffff" stroke="none" />
  <path d="M 452.5 2208  A 1.5 1.5 0 0 1 454 2206.5 L 462 2206.5  A 1.5 1.5 0 0 1 463.5 2208 L 463.5 2216  A 1.5 1.5 0 0 1 462 2217.5 L 454 2217.5  A 1.5 1.5 0 0 1 452.5 2216 L 452.5 2208  Z " stroke-width="1" stroke="#797979" fill="none" />
  <path d="M 454.571428571429 2212  L 457.142857142857 2214.57142857143  " stroke-width="2.57142857142857" stroke="#797979" fill="none" />
  <path d="M 457.142857142857 2214.57142857143  L 461.428571428571 2208.57142857143  " stroke-width="2.57142857142857" stroke="#797979" fill="none" />
</svg>