<?xml version="1.0" encoding="utf-8"?>
<svg version="1.1" xmlns:xlink="http://www.w3.org/1999/xlink" width="12px" height="12px" viewBox="806 2315.5  12 12" xmlns="http://www.w3.org/2000/svg">
  <path d="M 812 2315.5  C 815.36 2315.5  818 2318.14  818 2321.5  C 818 2324.86  815.36 2327.5  812 2327.5  C 808.64 2327.5  806 2324.86  806 2321.5  C 806 2318.14  808.64 2315.5  812 2315.5  Z " fill-rule="nonzero" fill="#ffffff" stroke="none" fill-opacity="0" />
  <path d="M 812 2316  C 815.08 2316  817.5 2318.42  817.5 2321.5  C 817.5 2324.58  815.08 2327  812 2327  C 808.92 2327  806.5 2324.58  806.5 2321.5  C 806.5 2318.42  808.92 2316  812 2316  Z " stroke-width="1" stroke="#797979" fill="none" />
  <path d="M 812 2324.5  C 810.32 2324.5  809 2323.18  809 2321.5  C 809 2319.82  810.32 2318.5  812 2318.5  C 813.68 2318.5  815 2319.82  815 2321.5  C 815 2323.18  813.68 2324.5  812 2324.5  " fill-rule="nonzero" fill="#797979" stroke="none" />
</svg>