<?xml version="1.0" encoding="utf-8"?>
<svg version="1.1" xmlns:xlink="http://www.w3.org/1999/xlink" width="12px" height="12px" viewBox="806 2208.5  12 12" xmlns="http://www.w3.org/2000/svg">
  <path d="M 812 2208.5  C 815.36 2208.5  818 2211.14  818 2214.5  C 818 2217.86  815.36 2220.5  812 2220.5  C 808.64 2220.5  806 2217.86  806 2214.5  C 806 2211.14  808.64 2208.5  812 2208.5  Z " fill-rule="nonzero" fill="#f0f0f0" stroke="none" />
  <path d="M 812 2209  C 815.08 2209  817.5 2211.42  817.5 2214.5  C 817.5 2217.58  815.08 2220  812 2220  C 808.92 2220  806.5 2217.58  806.5 2214.5  C 806.5 2211.42  808.92 2209  812 2209  Z " stroke-width="1" stroke="#797979" fill="none" />
  <path d="M 812 2217.5  C 810.32 2217.5  809 2216.18  809 2214.5  C 809 2212.82  810.32 2211.5  812 2211.5  C 813.68 2211.5  815 2212.82  815 2214.5  C 815 2216.18  813.68 2217.5  812 2217.5  " fill-rule="nonzero" fill="#797979" stroke="none" />
</svg>