<?xml version="1.0" encoding="utf-8"?>
<svg version="1.1" xmlns:xlink="http://www.w3.org/1999/xlink" width="12px" height="12px" viewBox="853 2208.5  12 12" xmlns="http://www.w3.org/2000/svg">
  <path d="M 859 2208.5  C 862.36 2208.5  865 2211.14  865 2214.5  C 865 2217.86  862.36 2220.5  859 2220.5  C 855.64 2220.5  853 2217.86  853 2214.5  C 853 2211.14  855.64 2208.5  859 2208.5  Z " fill-rule="nonzero" fill="#f0f0f0" stroke="none" />
  <path d="M 859 2209  C 862.08 2209  864.5 2211.42  864.5 2214.5  C 864.5 2217.58  862.08 2220  859 2220  C 855.92 2220  853.5 2217.58  853.5 2214.5  C 853.5 2211.42  855.92 2209  859 2209  Z " stroke-width="1" stroke="#797979" fill="none" />
  <path d="M 859 2217.5  C 857.32 2217.5  856 2216.18  856 2214.5  C 856 2212.82  857.32 2211.5  859 2211.5  C 860.68 2211.5  862 2212.82  862 2214.5  C 862 2216.18  860.68 2217.5  859 2217.5  " fill-rule="nonzero" fill="#797979" stroke="none" />
</svg>