<?xml version="1.0" encoding="utf-8"?>
<svg version="1.1" xmlns:xlink="http://www.w3.org/1999/xlink" width="12px" height="12px" viewBox="805 2356.5  12 12" xmlns="http://www.w3.org/2000/svg">
  <path d="M 811 2356.5  C 814.36 2356.5  817 2359.14  817 2362.5  C 817 2365.86  814.36 2368.5  811 2368.5  C 807.64 2368.5  805 2365.86  805 2362.5  C 805 2359.14  807.64 2356.5  811 2356.5  Z " fill-rule="nonzero" fill="#ffffff" stroke="none" fill-opacity="0" />
  <path d="M 811 2357  C 814.08 2357  816.5 2359.42  816.5 2362.5  C 816.5 2365.58  814.08 2368  811 2368  C 807.92 2368  805.5 2365.58  805.5 2362.5  C 805.5 2359.42  807.92 2357  811 2357  Z " stroke-width="1" stroke="#797979" fill="none" />
  <path d="M 811 2365.5  C 809.32 2365.5  808 2364.18  808 2362.5  C 808 2360.82  809.32 2359.5  811 2359.5  C 812.68 2359.5  814 2360.82  814 2362.5  C 814 2364.18  812.68 2365.5  811 2365.5  " fill-rule="nonzero" fill="#797979" stroke="none" />
</svg>