<?xml version="1.0" encoding="utf-8"?>
<svg version="1.1" xmlns:xlink="http://www.w3.org/1999/xlink" width="12px" height="12px" viewBox="852 2356.5  12 12" xmlns="http://www.w3.org/2000/svg">
  <path d="M 858 2356.5  C 861.36 2356.5  864 2359.14  864 2362.5  C 864 2365.86  861.36 2368.5  858 2368.5  C 854.64 2368.5  852 2365.86  852 2362.5  C 852 2359.14  854.64 2356.5  858 2356.5  Z " fill-rule="nonzero" fill="#ffffff" stroke="none" fill-opacity="0" />
  <path d="M 858 2357  C 861.08 2357  863.5 2359.42  863.5 2362.5  C 863.5 2365.58  861.08 2368  858 2368  C 854.92 2368  852.5 2365.58  852.5 2362.5  C 852.5 2359.42  854.92 2357  858 2357  Z " stroke-width="1" stroke="#797979" fill="none" />
  <path d="M 858 2365.5  C 856.32 2365.5  855 2364.18  855 2362.5  C 855 2360.82  856.32 2359.5  858 2359.5  C 859.68 2359.5  861 2360.82  861 2362.5  C 861 2364.18  859.68 2365.5  858 2365.5  " fill-rule="nonzero" fill="#797979" stroke="none" />
</svg>