<?xml version="1.0" encoding="utf-8"?>
<svg version="1.1" xmlns:xlink="http://www.w3.org/1999/xlink" width="12px" height="12px" viewBox="863 2598.5  12 12" xmlns="http://www.w3.org/2000/svg">
  <path d="M 869 2598.5  C 872.36 2598.5  875 2601.14  875 2604.5  C 875 2607.86  872.36 2610.5  869 2610.5  C 865.64 2610.5  863 2607.86  863 2604.5  C 863 2601.14  865.64 2598.5  869 2598.5  Z " fill-rule="nonzero" fill="#ffffff" stroke="none" fill-opacity="0" />
  <path d="M 869 2599  C 872.08 2599  874.5 2601.42  874.5 2604.5  C 874.5 2607.58  872.08 2610  869 2610  C 865.92 2610  863.5 2607.58  863.5 2604.5  C 863.5 2601.42  865.92 2599  869 2599  Z " stroke-width="1" stroke="#797979" fill="none" />
  <path d="M 869 2607.5  C 867.32 2607.5  866 2606.18  866 2604.5  C 866 2602.82  867.32 2601.5  869 2601.5  C 870.68 2601.5  872 2602.82  872 2604.5  C 872 2606.18  870.68 2607.5  869 2607.5  " fill-rule="nonzero" fill="#797979" stroke="none" />
</svg>