<?xml version="1.0" encoding="utf-8"?>
<svg version="1.1" xmlns:xlink="http://www.w3.org/1999/xlink" width="12px" height="12px" viewBox="816 2598.5  12 12" xmlns="http://www.w3.org/2000/svg">
  <path d="M 822 2598.5  C 825.36 2598.5  828 2601.14  828 2604.5  C 828 2607.86  825.36 2610.5  822 2610.5  C 818.64 2610.5  816 2607.86  816 2604.5  C 816 2601.14  818.64 2598.5  822 2598.5  Z " fill-rule="nonzero" fill="#ffffff" stroke="none" fill-opacity="0" />
  <path d="M 822 2599  C 825.08 2599  827.5 2601.42  827.5 2604.5  C 827.5 2607.58  825.08 2610  822 2610  C 818.92 2610  816.5 2607.58  816.5 2604.5  C 816.5 2601.42  818.92 2599  822 2599  Z " stroke-width="1" stroke="#797979" fill="none" />
  <path d="M 822 2607.5  C 820.32 2607.5  819 2606.18  819 2604.5  C 819 2602.82  820.32 2601.5  822 2601.5  C 823.68 2601.5  825 2602.82  825 2604.5  C 825 2606.18  823.68 2607.5  822 2607.5  " fill-rule="nonzero" fill="#797979" stroke="none" />
</svg>