<?xml version="1.0" encoding="utf-8"?>
<svg version="1.1" xmlns:xlink="http://www.w3.org/1999/xlink" width="12px" height="12px" viewBox="863 2740.5  12 12" xmlns="http://www.w3.org/2000/svg">
  <path d="M 869 2740.5  C 872.36 2740.5  875 2743.14  875 2746.5  C 875 2749.86  872.36 2752.5  869 2752.5  C 865.64 2752.5  863 2749.86  863 2746.5  C 863 2743.14  865.64 2740.5  869 2740.5  Z " fill-rule="nonzero" fill="#ffffff" stroke="none" fill-opacity="0" />
  <path d="M 869 2741  C 872.08 2741  874.5 2743.42  874.5 2746.5  C 874.5 2749.58  872.08 2752  869 2752  C 865.92 2752  863.5 2749.58  863.5 2746.5  C 863.5 2743.42  865.92 2741  869 2741  Z " stroke-width="1" stroke="#797979" fill="none" />
  <path d="M 869 2749.5  C 867.32 2749.5  866 2748.18  866 2746.5  C 866 2744.82  867.32 2743.5  869 2743.5  C 870.68 2743.5  872 2744.82  872 2746.5  C 872 2748.18  870.68 2749.5  869 2749.5  " fill-rule="nonzero" fill="#797979" stroke="none" />
</svg>