<?xml version="1.0" encoding="utf-8"?>
<svg version="1.1" xmlns:xlink="http://www.w3.org/1999/xlink" width="12px" height="12px" viewBox="461 2637  12 12" xmlns="http://www.w3.org/2000/svg">
  <path d="M 461.5 2639  A 1.5 1.5 0 0 1 463 2637.5 L 471 2637.5  A 1.5 1.5 0 0 1 472.5 2639 L 472.5 2647  A 1.5 1.5 0 0 1 471 2648.5 L 463 2648.5  A 1.5 1.5 0 0 1 461.5 2647 L 461.5 2639  Z " fill-rule="nonzero" fill="#ffffff" stroke="none" />
  <path d="M 461.5 2639  A 1.5 1.5 0 0 1 463 2637.5 L 471 2637.5  A 1.5 1.5 0 0 1 472.5 2639 L 472.5 2647  A 1.5 1.5 0 0 1 471 2648.5 L 463 2648.5  A 1.5 1.5 0 0 1 461.5 2647 L 461.5 2639  Z " stroke-width="1" stroke="#797979" fill="none" />
</svg>