<?xml version="1.0" encoding="utf-8"?>
<svg version="1.1" xmlns:xlink="http://www.w3.org/1999/xlink" width="12px" height="12px" viewBox="816 2740.5  12 12" xmlns="http://www.w3.org/2000/svg">
  <path d="M 822 2740.5  C 825.36 2740.5  828 2743.14  828 2746.5  C 828 2749.86  825.36 2752.5  822 2752.5  C 818.64 2752.5  816 2749.86  816 2746.5  C 816 2743.14  818.64 2740.5  822 2740.5  Z " fill-rule="nonzero" fill="#ffffff" stroke="none" fill-opacity="0" />
  <path d="M 822 2741  C 825.08 2741  827.5 2743.42  827.5 2746.5  C 827.5 2749.58  825.08 2752  822 2752  C 818.92 2752  816.5 2749.58  816.5 2746.5  C 816.5 2743.42  818.92 2741  822 2741  Z " stroke-width="1" stroke="#797979" fill="none" />
  <path d="M 822 2749.5  C 820.32 2749.5  819 2748.18  819 2746.5  C 819 2744.82  820.32 2743.5  822 2743.5  C 823.68 2743.5  825 2744.82  825 2746.5  C 825 2748.18  823.68 2749.5  822 2749.5  " fill-rule="nonzero" fill="#797979" stroke="none" />
</svg>