<?xml version="1.0" encoding="utf-8"?>
<svg version="1.1" xmlns:xlink="http://www.w3.org/1999/xlink" width="12px" height="12px" viewBox="862 2781.5  12 12" xmlns="http://www.w3.org/2000/svg">
  <path d="M 868 2781.5  C 871.36 2781.5  874 2784.14  874 2787.5  C 874 2790.86  871.36 2793.5  868 2793.5  C 864.64 2793.5  862 2790.86  862 2787.5  C 862 2784.14  864.64 2781.5  868 2781.5  Z " fill-rule="nonzero" fill="#f0f0f0" stroke="none" />
  <path d="M 868 2782  C 871.08 2782  873.5 2784.42  873.5 2787.5  C 873.5 2790.58  871.08 2793  868 2793  C 864.92 2793  862.5 2790.58  862.5 2787.5  C 862.5 2784.42  864.92 2782  868 2782  Z " stroke-width="1" stroke="#797979" fill="none" />
  <path d="M 868 2790.5  C 866.32 2790.5  865 2789.18  865 2787.5  C 865 2785.82  866.32 2784.5  868 2784.5  C 869.68 2784.5  871 2785.82  871 2787.5  C 871 2789.18  869.68 2790.5  868 2790.5  " fill-rule="nonzero" fill="#797979" stroke="none" />
</svg>