<?xml version="1.0" encoding="utf-8"?>
<svg version="1.1" xmlns:xlink="http://www.w3.org/1999/xlink" width="12px" height="12px" viewBox="815 2781.5  12 12" xmlns="http://www.w3.org/2000/svg">
  <path d="M 821 2781.5  C 824.36 2781.5  827 2784.14  827 2787.5  C 827 2790.86  824.36 2793.5  821 2793.5  C 817.64 2793.5  815 2790.86  815 2787.5  C 815 2784.14  817.64 2781.5  821 2781.5  Z " fill-rule="nonzero" fill="#ffffff" stroke="none" fill-opacity="0" />
  <path d="M 821 2782  C 824.08 2782  826.5 2784.42  826.5 2787.5  C 826.5 2790.58  824.08 2793  821 2793  C 817.92 2793  815.5 2790.58  815.5 2787.5  C 815.5 2784.42  817.92 2782  821 2782  Z " stroke-width="1" stroke="#797979" fill="none" />
  <path d="M 821 2790.5  C 819.32 2790.5  818 2789.18  818 2787.5  C 818 2785.82  819.32 2784.5  821 2784.5  C 822.68 2784.5  824 2785.82  824 2787.5  C 824 2789.18  822.68 2790.5  821 2790.5  " fill-rule="nonzero" fill="#797979" stroke="none" />
</svg>