<?xml version="1.0" encoding="utf-8"?>
<svg version="1.1" xmlns:xlink="http://www.w3.org/1999/xlink" width="12px" height="12px" viewBox="461 2779  12 12" xmlns="http://www.w3.org/2000/svg">
  <path d="M 461.5 2781  A 1.5 1.5 0 0 1 463 2779.5 L 471 2779.5  A 1.5 1.5 0 0 1 472.5 2781 L 472.5 2789  A 1.5 1.5 0 0 1 471 2790.5 L 463 2790.5  A 1.5 1.5 0 0 1 461.5 2789 L 461.5 2781  Z " fill-rule="nonzero" fill="#ffffff" stroke="none" />
  <path d="M 461.5 2781  A 1.5 1.5 0 0 1 463 2779.5 L 471 2779.5  A 1.5 1.5 0 0 1 472.5 2781 L 472.5 2789  A 1.5 1.5 0 0 1 471 2790.5 L 463 2790.5  A 1.5 1.5 0 0 1 461.5 2789 L 461.5 2781  Z " stroke-width="1" stroke="#797979" fill="none" />
  <path d="M 463.571428571429 2785  L 466.142857142857 2787.57142857143  " stroke-width="2.57142857142857" stroke="#797979" fill="none" />
  <path d="M 466.142857142857 2787.57142857143  L 470.428571428571 2781.57142857143  " stroke-width="2.57142857142857" stroke="#797979" fill="none" />
</svg>