<?xml version="1.0" encoding="utf-8"?>
<svg version="1.1" xmlns:xlink="http://www.w3.org/1999/xlink" width="12px" height="12px" viewBox="815 2913.5  12 12" xmlns="http://www.w3.org/2000/svg">
  <path d="M 821 2913.5  C 824.36 2913.5  827 2916.14  827 2919.5  C 827 2922.86  824.36 2925.5  821 2925.5  C 817.64 2925.5  815 2922.86  815 2919.5  C 815 2916.14  817.64 2913.5  821 2913.5  Z " fill-rule="nonzero" fill="#ffffff" stroke="none" fill-opacity="0" />
  <path d="M 821 2914  C 824.08 2914  826.5 2916.42  826.5 2919.5  C 826.5 2922.58  824.08 2925  821 2925  C 817.92 2925  815.5 2922.58  815.5 2919.5  C 815.5 2916.42  817.92 2914  821 2914  Z " stroke-width="1" stroke="#797979" fill="none" />
  <path d="M 821 2922.5  C 819.32 2922.5  818 2921.18  818 2919.5  C 818 2917.82  819.32 2916.5  821 2916.5  C 822.68 2916.5  824 2917.82  824 2919.5  C 824 2921.18  822.68 2922.5  821 2922.5  " fill-rule="nonzero" fill="#797979" stroke="none" />
</svg>