<?xml version="1.0" encoding="utf-8"?>
<svg version="1.1" xmlns:xlink="http://www.w3.org/1999/xlink" width="12px" height="12px" viewBox="462 2870  12 12" xmlns="http://www.w3.org/2000/svg">
  <path d="M 462.5 2872  A 1.5 1.5 0 0 1 464 2870.5 L 472 2870.5  A 1.5 1.5 0 0 1 473.5 2872 L 473.5 2880  A 1.5 1.5 0 0 1 472 2881.5 L 464 2881.5  A 1.5 1.5 0 0 1 462.5 2880 L 462.5 2872  Z " fill-rule="nonzero" fill="#ffffff" stroke="none" fill-opacity="0" />
  <path d="M 462.5 2872  A 1.5 1.5 0 0 1 464 2870.5 L 472 2870.5  A 1.5 1.5 0 0 1 473.5 2872 L 473.5 2880  A 1.5 1.5 0 0 1 472 2881.5 L 464 2881.5  A 1.5 1.5 0 0 1 462.5 2880 L 462.5 2872  Z " stroke-width="1" stroke="#797979" fill="none" />
  <path d="M 464.571428571429 2876  L 467.142857142857 2878.57142857143  " stroke-width="2.57142857142857" stroke="#797979" fill="none" />
  <path d="M 467.142857142857 2878.57142857143  L 471.428571428571 2872.57142857143  " stroke-width="2.57142857142857" stroke="#797979" fill="none" />
</svg>