<?xml version="1.0" encoding="utf-8"?>
<svg version="1.1" xmlns:xlink="http://www.w3.org/1999/xlink" width="12px" height="12px" viewBox="805 2072.5  12 12" xmlns="http://www.w3.org/2000/svg">
  <path d="M 811 2072.5  C 814.36 2072.5  817 2075.14  817 2078.5  C 817 2081.86  814.36 2084.5  811 2084.5  C 807.64 2084.5  805 2081.86  805 2078.5  C 805 2075.14  807.64 2072.5  811 2072.5  Z " fill-rule="nonzero" fill="#f0f0f0" stroke="none" />
  <path d="M 811 2073  C 814.08 2073  816.5 2075.42  816.5 2078.5  C 816.5 2081.58  814.08 2084  811 2084  C 807.92 2084  805.5 2081.58  805.5 2078.5  C 805.5 2075.42  807.92 2073  811 2073  Z " stroke-width="1" stroke="#797979" fill="none" />
  <path d="M 811 2081.5  C 809.32 2081.5  808 2080.18  808 2078.5  C 808 2076.82  809.32 2075.5  811 2075.5  C 812.68 2075.5  814 2076.82  814 2078.5  C 814 2080.18  812.68 2081.5  811 2081.5  " fill-rule="nonzero" fill="#797979" stroke="none" />
</svg>