<?xml version="1.0" encoding="utf-8"?>
<svg version="1.1" xmlns:xlink="http://www.w3.org/1999/xlink" width="12px" height="12px" viewBox="852 2072.5  12 12" xmlns="http://www.w3.org/2000/svg">
  <path d="M 858 2072.5  C 861.36 2072.5  864 2075.14  864 2078.5  C 864 2081.86  861.36 2084.5  858 2084.5  C 854.64 2084.5  852 2081.86  852 2078.5  C 852 2075.14  854.64 2072.5  858 2072.5  Z " fill-rule="nonzero" fill="#f2f2f2" stroke="none" />
  <path d="M 858 2073  C 861.08 2073  863.5 2075.42  863.5 2078.5  C 863.5 2081.58  861.08 2084  858 2084  C 854.92 2084  852.5 2081.58  852.5 2078.5  C 852.5 2075.42  854.92 2073  858 2073  Z " stroke-width="1" stroke="#797979" fill="none" />
  <path d="M 858 2081.5  C 856.32 2081.5  855 2080.18  855 2078.5  C 855 2076.82  856.32 2075.5  858 2075.5  C 859.68 2075.5  861 2076.82  861 2078.5  C 861 2080.18  859.68 2081.5  858 2081.5  " fill-rule="nonzero" fill="#797979" stroke="none" />
</svg>