<?xml version="1.0" encoding="utf-8"?>
<svg version="1.1" xmlns:xlink="http://www.w3.org/1999/xlink" width="12px" height="12px" viewBox="852 2042.5  12 12" xmlns="http://www.w3.org/2000/svg">
  <path d="M 858 2042.5  C 861.36 2042.5  864 2045.14  864 2048.5  C 864 2051.86  861.36 2054.5  858 2054.5  C 854.64 2054.5  852 2051.86  852 2048.5  C 852 2045.14  854.64 2042.5  858 2042.5  Z " fill-rule="nonzero" fill="#f2f2f2" stroke="none" />
  <path d="M 858 2043  C 861.08 2043  863.5 2045.42  863.5 2048.5  C 863.5 2051.58  861.08 2054  858 2054  C 854.92 2054  852.5 2051.58  852.5 2048.5  C 852.5 2045.42  854.92 2043  858 2043  Z " stroke-width="1" stroke="#797979" fill="none" />
  <path d="M 858 2051.5  C 856.32 2051.5  855 2050.18  855 2048.5  C 855 2046.82  856.32 2045.5  858 2045.5  C 859.68 2045.5  861 2046.82  861 2048.5  C 861 2050.18  859.68 2051.5  858 2051.5  " fill-rule="nonzero" fill="#797979" stroke="none" />
</svg>