<?xml version="1.0" encoding="utf-8"?>
<svg version="1.1" xmlns:xlink="http://www.w3.org/1999/xlink" width="12px" height="12px" viewBox="451 2070  12 12" xmlns="http://www.w3.org/2000/svg">
  <path d="M 451.5 2072  A 1.5 1.5 0 0 1 453 2070.5 L 461 2070.5  A 1.5 1.5 0 0 1 462.5 2072 L 462.5 2080  A 1.5 1.5 0 0 1 461 2081.5 L 453 2081.5  A 1.5 1.5 0 0 1 451.5 2080 L 451.5 2072  Z " fill-rule="nonzero" fill="#ffffff" stroke="none" />
  <path d="M 451.5 2072  A 1.5 1.5 0 0 1 453 2070.5 L 461 2070.5  A 1.5 1.5 0 0 1 462.5 2072 L 462.5 2080  A 1.5 1.5 0 0 1 461 2081.5 L 453 2081.5  A 1.5 1.5 0 0 1 451.5 2080 L 451.5 2072  Z " stroke-width="1" stroke="#797979" fill="none" />
</svg>