<?xml version="1.0" encoding="utf-8"?>
<svg version="1.1" xmlns:xlink="http://www.w3.org/1999/xlink" width="12px" height="12px" viewBox="805 3178.5  12 12" xmlns="http://www.w3.org/2000/svg">
  <path d="M 811 3178.5  C 814.36 3178.5  817 3181.14  817 3184.5  C 817 3187.86  814.36 3190.5  811 3190.5  C 807.64 3190.5  805 3187.86  805 3184.5  C 805 3181.14  807.64 3178.5  811 3178.5  Z " fill-rule="nonzero" fill="#f0f0f0" stroke="none" />
  <path d="M 811 3179  C 814.08 3179  816.5 3181.42  816.5 3184.5  C 816.5 3187.58  814.08 3190  811 3190  C 807.92 3190  805.5 3187.58  805.5 3184.5  C 805.5 3181.42  807.92 3179  811 3179  Z " stroke-width="1" stroke="#797979" fill="none" />
  <path d="M 811 3187.5  C 809.32 3187.5  808 3186.18  808 3184.5  C 808 3182.82  809.32 3181.5  811 3181.5  C 812.68 3181.5  814 3182.82  814 3184.5  C 814 3186.18  812.68 3187.5  811 3187.5  " fill-rule="nonzero" fill="#797979" stroke="none" />
</svg>