<?xml version="1.0" encoding="utf-8"?>
<svg version="1.1" xmlns:xlink="http://www.w3.org/1999/xlink" width="12px" height="12px" viewBox="851 3263.5  12 12" xmlns="http://www.w3.org/2000/svg">
  <path d="M 857 3263.5  C 860.36 3263.5  863 3266.14  863 3269.5  C 863 3272.86  860.36 3275.5  857 3275.5  C 853.64 3275.5  851 3272.86  851 3269.5  C 851 3266.14  853.64 3263.5  857 3263.5  Z " fill-rule="nonzero" fill="#f0f0f0" stroke="none" />
  <path d="M 857 3264  C 860.08 3264  862.5 3266.42  862.5 3269.5  C 862.5 3272.58  860.08 3275  857 3275  C 853.92 3275  851.5 3272.58  851.5 3269.5  C 851.5 3266.42  853.92 3264  857 3264  Z " stroke-width="1" stroke="#797979" fill="none" />
  <path d="M 857 3272.5  C 855.32 3272.5  854 3271.18  854 3269.5  C 854 3267.82  855.32 3266.5  857 3266.5  C 858.68 3266.5  860 3267.82  860 3269.5  C 860 3271.18  858.68 3272.5  857 3272.5  " fill-rule="nonzero" fill="#797979" stroke="none" />
</svg>