<?xml version="1.0" encoding="utf-8"?>
<svg version="1.1" xmlns:xlink="http://www.w3.org/1999/xlink" width="12px" height="12px" viewBox="804 3263.5  12 12" xmlns="http://www.w3.org/2000/svg">
  <path d="M 810 3263.5  C 813.36 3263.5  816 3266.14  816 3269.5  C 816 3272.86  813.36 3275.5  810 3275.5  C 806.64 3275.5  804 3272.86  804 3269.5  C 804 3266.14  806.64 3263.5  810 3263.5  Z " fill-rule="nonzero" fill="#ffffff" stroke="none" />
  <path d="M 810 3264  C 813.08 3264  815.5 3266.42  815.5 3269.5  C 815.5 3272.58  813.08 3275  810 3275  C 806.92 3275  804.5 3272.58  804.5 3269.5  C 804.5 3266.42  806.92 3264  810 3264  Z " stroke-width="1" stroke="#797979" fill="none" />
  <path d="M 810 3272.5  C 808.32 3272.5  807 3271.18  807 3269.5  C 807 3267.82  808.32 3266.5  810 3266.5  C 811.68 3266.5  813 3267.82  813 3269.5  C 813 3271.18  811.68 3272.5  810 3272.5  " fill-rule="nonzero" fill="#797979" stroke="none" />
</svg>