<?xml version="1.0" encoding="utf-8"?>
<svg version="1.1" xmlns:xlink="http://www.w3.org/1999/xlink" width="12px" height="12px" viewBox="452 3261  12 12" xmlns="http://www.w3.org/2000/svg">
  <path d="M 452.5 3263  A 1.5 1.5 0 0 1 454 3261.5 L 462 3261.5  A 1.5 1.5 0 0 1 463.5 3263 L 463.5 3271  A 1.5 1.5 0 0 1 462 3272.5 L 454 3272.5  A 1.5 1.5 0 0 1 452.5 3271 L 452.5 3263  Z " fill-rule="nonzero" fill="#ffffff" stroke="none" />
  <path d="M 452.5 3263  A 1.5 1.5 0 0 1 454 3261.5 L 462 3261.5  A 1.5 1.5 0 0 1 463.5 3263 L 463.5 3271  A 1.5 1.5 0 0 1 462 3272.5 L 454 3272.5  A 1.5 1.5 0 0 1 452.5 3271 L 452.5 3263  Z " stroke-width="1" stroke="#797979" fill="none" />
</svg>