<?xml version="1.0" encoding="utf-8"?>
<svg version="1.1" xmlns:xlink="http://www.w3.org/1999/xlink" width="12px" height="12px" viewBox="805 3218.5  12 12" xmlns="http://www.w3.org/2000/svg">
  <path d="M 811 3218.5  C 814.36 3218.5  817 3221.14  817 3224.5  C 817 3227.86  814.36 3230.5  811 3230.5  C 807.64 3230.5  805 3227.86  805 3224.5  C 805 3221.14  807.64 3218.5  811 3218.5  Z " fill-rule="nonzero" fill="#f0f0f0" stroke="none" />
  <path d="M 811 3219  C 814.08 3219  816.5 3221.42  816.5 3224.5  C 816.5 3227.58  814.08 3230  811 3230  C 807.92 3230  805.5 3227.58  805.5 3224.5  C 805.5 3221.42  807.92 3219  811 3219  Z " stroke-width="1" stroke="#797979" fill="none" />
  <path d="M 811 3227.5  C 809.32 3227.5  808 3226.18  808 3224.5  C 808 3222.82  809.32 3221.5  811 3221.5  C 812.68 3221.5  814 3222.82  814 3224.5  C 814 3226.18  812.68 3227.5  811 3227.5  " fill-rule="nonzero" fill="#797979" stroke="none" />
</svg>