<?xml version="1.0" encoding="utf-8"?>
<svg version="1.1" xmlns:xlink="http://www.w3.org/1999/xlink" width="12px" height="12px" viewBox="851 2980.5  12 12" xmlns="http://www.w3.org/2000/svg">
  <path d="M 857 2980.5  C 860.36 2980.5  863 2983.14  863 2986.5  C 863 2989.86  860.36 2992.5  857 2992.5  C 853.64 2992.5  851 2989.86  851 2986.5  C 851 2983.14  853.64 2980.5  857 2980.5  Z " fill-rule="nonzero" fill="#f0f0f0" stroke="none" />
  <path d="M 857 2981  C 860.08 2981  862.5 2983.42  862.5 2986.5  C 862.5 2989.58  860.08 2992  857 2992  C 853.92 2992  851.5 2989.58  851.5 2986.5  C 851.5 2983.42  853.92 2981  857 2981  Z " stroke-width="1" stroke="#797979" fill="none" />
  <path d="M 857 2989.5  C 855.32 2989.5  854 2988.18  854 2986.5  C 854 2984.82  855.32 2983.5  857 2983.5  C 858.68 2983.5  860 2984.82  860 2986.5  C 860 2988.18  858.68 2989.5  857 2989.5  " fill-rule="nonzero" fill="#797979" stroke="none" />
</svg>