<?xml version="1.0" encoding="utf-8"?>
<svg version="1.1" xmlns:xlink="http://www.w3.org/1999/xlink" width="12px" height="12px" viewBox="804 2980.5  12 12" xmlns="http://www.w3.org/2000/svg">
  <path d="M 810 2980.5  C 813.36 2980.5  816 2983.14  816 2986.5  C 816 2989.86  813.36 2992.5  810 2992.5  C 806.64 2992.5  804 2989.86  804 2986.5  C 804 2983.14  806.64 2980.5  810 2980.5  Z " fill-rule="nonzero" fill="#ffffff" stroke="none" />
  <path d="M 810 2981  C 813.08 2981  815.5 2983.42  815.5 2986.5  C 815.5 2989.58  813.08 2992  810 2992  C 806.92 2992  804.5 2989.58  804.5 2986.5  C 804.5 2983.42  806.92 2981  810 2981  Z " stroke-width="1" stroke="#797979" fill="none" />
  <path d="M 810 2989.5  C 808.32 2989.5  807 2988.18  807 2986.5  C 807 2984.82  808.32 2983.5  810 2983.5  C 811.68 2983.5  813 2984.82  813 2986.5  C 813 2988.18  811.68 2989.5  810 2989.5  " fill-rule="nonzero" fill="#797979" stroke="none" />
</svg>