<?xml version="1.0" encoding="utf-8"?>
<svg version="1.1" xmlns:xlink="http://www.w3.org/1999/xlink" width="12px" height="12px" viewBox="804 3020.5  12 12" xmlns="http://www.w3.org/2000/svg">
  <path d="M 810 3020.5  C 813.36 3020.5  816 3023.14  816 3026.5  C 816 3029.86  813.36 3032.5  810 3032.5  C 806.64 3032.5  804 3029.86  804 3026.5  C 804 3023.14  806.64 3020.5  810 3020.5  Z " fill-rule="nonzero" fill="#ffffff" stroke="none" />
  <path d="M 810 3021  C 813.08 3021  815.5 3023.42  815.5 3026.5  C 815.5 3029.58  813.08 3032  810 3032  C 806.92 3032  804.5 3029.58  804.5 3026.5  C 804.5 3023.42  806.92 3021  810 3021  Z " stroke-width="1" stroke="#797979" fill="none" />
  <path d="M 810 3029.5  C 808.32 3029.5  807 3028.18  807 3026.5  C 807 3024.82  808.32 3023.5  810 3023.5  C 811.68 3023.5  813 3024.82  813 3026.5  C 813 3028.18  811.68 3029.5  810 3029.5  " fill-rule="nonzero" fill="#797979" stroke="none" />
</svg>