<?xml version="1.0" encoding="utf-8"?>
<svg version="1.1" xmlns:xlink="http://www.w3.org/1999/xlink" width="12px" height="12px" viewBox="850 3065.5  12 12" xmlns="http://www.w3.org/2000/svg">
  <path d="M 856 3065.5  C 859.36 3065.5  862 3068.14  862 3071.5  C 862 3074.86  859.36 3077.5  856 3077.5  C 852.64 3077.5  850 3074.86  850 3071.5  C 850 3068.14  852.64 3065.5  856 3065.5  Z " fill-rule="nonzero" fill="#f0f0f0" stroke="none" />
  <path d="M 856 3066  C 859.08 3066  861.5 3068.42  861.5 3071.5  C 861.5 3074.58  859.08 3077  856 3077  C 852.92 3077  850.5 3074.58  850.5 3071.5  C 850.5 3068.42  852.92 3066  856 3066  Z " stroke-width="1" stroke="#797979" fill="none" />
  <path d="M 856 3074.5  C 854.32 3074.5  853 3073.18  853 3071.5  C 853 3069.82  854.32 3068.5  856 3068.5  C 857.68 3068.5  859 3069.82  859 3071.5  C 859 3073.18  857.68 3074.5  856 3074.5  " fill-rule="nonzero" fill="#797979" stroke="none" />
</svg>