<?xml version="1.0" encoding="utf-8"?>
<svg version="1.1" xmlns:xlink="http://www.w3.org/1999/xlink" width="12px" height="12px" viewBox="803 3065.5  12 12" xmlns="http://www.w3.org/2000/svg">
  <path d="M 809 3065.5  C 812.36 3065.5  815 3068.14  815 3071.5  C 815 3074.86  812.36 3077.5  809 3077.5  C 805.64 3077.5  803 3074.86  803 3071.5  C 803 3068.14  805.64 3065.5  809 3065.5  Z " fill-rule="nonzero" fill="#ffffff" stroke="none" />
  <path d="M 809 3066  C 812.08 3066  814.5 3068.42  814.5 3071.5  C 814.5 3074.58  812.08 3077  809 3077  C 805.92 3077  803.5 3074.58  803.5 3071.5  C 803.5 3068.42  805.92 3066  809 3066  Z " stroke-width="1" stroke="#797979" fill="none" />
  <path d="M 809 3074.5  C 807.32 3074.5  806 3073.18  806 3071.5  C 806 3069.82  807.32 3068.5  809 3068.5  C 810.68 3068.5  812 3069.82  812 3071.5  C 812 3073.18  810.68 3074.5  809 3074.5  " fill-rule="nonzero" fill="#797979" stroke="none" />
</svg>