<?xml version="1.0" encoding="utf-8"?>
<svg version="1.1" xmlns:xlink="http://www.w3.org/1999/xlink" width="12px" height="12px" viewBox="213 3691  12 12" xmlns="http://www.w3.org/2000/svg">
  <path d="M 213.5 3693  A 1.5 1.5 0 0 1 215 3691.5 L 223 3691.5  A 1.5 1.5 0 0 1 224.5 3693 L 224.5 3701  A 1.5 1.5 0 0 1 223 3702.5 L 215 3702.5  A 1.5 1.5 0 0 1 213.5 3701 L 213.5 3693  Z " fill-rule="nonzero" fill="#f0f0f0" stroke="none" />
  <path d="M 213.5 3693  A 1.5 1.5 0 0 1 215 3691.5 L 223 3691.5  A 1.5 1.5 0 0 1 224.5 3693 L 224.5 3701  A 1.5 1.5 0 0 1 223 3702.5 L 215 3702.5  A 1.5 1.5 0 0 1 213.5 3701 L 213.5 3693  Z " stroke-width="1" stroke="#797979" fill="none" />
</svg>