<?xml version="1.0" encoding="utf-8"?>
<svg version="1.1" xmlns:xlink="http://www.w3.org/1999/xlink" width="12px" height="12px" viewBox="805 3391.5  12 12" xmlns="http://www.w3.org/2000/svg">
  <path d="M 811 3391.5  C 814.36 3391.5  817 3394.14  817 3397.5  C 817 3400.86  814.36 3403.5  811 3403.5  C 807.64 3403.5  805 3400.86  805 3397.5  C 805 3394.14  807.64 3391.5  811 3391.5  Z " fill-rule="nonzero" fill="#f0f0f0" stroke="none" />
  <path d="M 811 3392  C 814.08 3392  816.5 3394.42  816.5 3397.5  C 816.5 3400.58  814.08 3403  811 3403  C 807.92 3403  805.5 3400.58  805.5 3397.5  C 805.5 3394.42  807.92 3392  811 3392  Z " stroke-width="1" stroke="#797979" fill="none" />
  <path d="M 811 3400.5  C 809.32 3400.5  808 3399.18  808 3397.5  C 808 3395.82  809.32 3394.5  811 3394.5  C 812.68 3394.5  814 3395.82  814 3397.5  C 814 3399.18  812.68 3400.5  811 3400.5  " fill-rule="nonzero" fill="#797979" stroke="none" />
</svg>