<?xml version="1.0" encoding="utf-8"?>
<svg version="1.1" xmlns:xlink="http://www.w3.org/1999/xlink" width="12px" height="12px" viewBox="852 3428.5  12 12" xmlns="http://www.w3.org/2000/svg">
  <path d="M 858 3428.5  C 861.36 3428.5  864 3431.14  864 3434.5  C 864 3437.86  861.36 3440.5  858 3440.5  C 854.64 3440.5  852 3437.86  852 3434.5  C 852 3431.14  854.64 3428.5  858 3428.5  Z " fill-rule="nonzero" fill="#d7d7d7" stroke="none" />
  <path d="M 858 3429  C 861.08 3429  863.5 3431.42  863.5 3434.5  C 863.5 3437.58  861.08 3440  858 3440  C 854.92 3440  852.5 3437.58  852.5 3434.5  C 852.5 3431.42  854.92 3429  858 3429  Z " stroke-width="1" stroke="#797979" fill="none" />
  <path d="M 858 3437.5  C 856.32 3437.5  855 3436.18  855 3434.5  C 855 3432.82  856.32 3431.5  858 3431.5  C 859.68 3431.5  861 3432.82  861 3434.5  C 861 3436.18  859.68 3437.5  858 3437.5  " fill-rule="nonzero" fill="#797979" stroke="none" />
</svg>