<?xml version="1.0" encoding="utf-8"?>
<svg version="1.1" xmlns:xlink="http://www.w3.org/1999/xlink" width="12px" height="12px" viewBox="806 3918.5  12 12" xmlns="http://www.w3.org/2000/svg">
  <path d="M 812 3918.5  C 815.36 3918.5  818 3921.14  818 3924.5  C 818 3927.86  815.36 3930.5  812 3930.5  C 808.64 3930.5  806 3927.86  806 3924.5  C 806 3921.14  808.64 3918.5  812 3918.5  Z " fill-rule="nonzero" fill="#ffffff" stroke="none" fill-opacity="0" />
  <path d="M 812 3919  C 815.08 3919  817.5 3921.42  817.5 3924.5  C 817.5 3927.58  815.08 3930  812 3930  C 808.92 3930  806.5 3927.58  806.5 3924.5  C 806.5 3921.42  808.92 3919  812 3919  Z " stroke-width="1" stroke="#797979" fill="none" />
  <path d="M 812 3927.5  C 810.32 3927.5  809 3926.18  809 3924.5  C 809 3922.82  810.32 3921.5  812 3921.5  C 813.68 3921.5  815 3922.82  815 3924.5  C 815 3926.18  813.68 3927.5  812 3927.5  " fill-rule="nonzero" fill="#797979" stroke="none" />
</svg>