<?xml version="1.0" encoding="utf-8"?>
<svg version="1.1" xmlns:xlink="http://www.w3.org/1999/xlink" width="12px" height="12px" viewBox="805 3959.5  12 12" xmlns="http://www.w3.org/2000/svg">
  <path d="M 811 3959.5  C 814.36 3959.5  817 3962.14  817 3965.5  C 817 3968.86  814.36 3971.5  811 3971.5  C 807.64 3971.5  805 3968.86  805 3965.5  C 805 3962.14  807.64 3959.5  811 3959.5  Z " fill-rule="nonzero" fill="#ffffff" stroke="none" fill-opacity="0" />
  <path d="M 811 3960  C 814.08 3960  816.5 3962.42  816.5 3965.5  C 816.5 3968.58  814.08 3971  811 3971  C 807.92 3971  805.5 3968.58  805.5 3965.5  C 805.5 3962.42  807.92 3960  811 3960  Z " stroke-width="1" stroke="#797979" fill="none" />
  <path d="M 811 3968.5  C 809.32 3968.5  808 3967.18  808 3965.5  C 808 3963.82  809.32 3962.5  811 3962.5  C 812.68 3962.5  814 3963.82  814 3965.5  C 814 3967.18  812.68 3968.5  811 3968.5  " fill-rule="nonzero" fill="#797979" stroke="none" />
</svg>