<?xml version="1.0" encoding="utf-8"?>
<svg version="1.1" xmlns:xlink="http://www.w3.org/1999/xlink" width="12px" height="12px" viewBox="853 3918.5  12 12" xmlns="http://www.w3.org/2000/svg">
  <path d="M 859 3918.5  C 862.36 3918.5  865 3921.14  865 3924.5  C 865 3927.86  862.36 3930.5  859 3930.5  C 855.64 3930.5  853 3927.86  853 3924.5  C 853 3921.14  855.64 3918.5  859 3918.5  Z " fill-rule="nonzero" fill="#f0f0f0" stroke="none" />
  <path d="M 859 3919  C 862.08 3919  864.5 3921.42  864.5 3924.5  C 864.5 3927.58  862.08 3930  859 3930  C 855.92 3930  853.5 3927.58  853.5 3924.5  C 853.5 3921.42  855.92 3919  859 3919  Z " stroke-width="1" stroke="#797979" fill="none" />
  <path d="M 859 3927.5  C 857.32 3927.5  856 3926.18  856 3924.5  C 856 3922.82  857.32 3921.5  859 3921.5  C 860.68 3921.5  862 3922.82  862 3924.5  C 862 3926.18  860.68 3927.5  859 3927.5  " fill-rule="nonzero" fill="#797979" stroke="none" />
</svg>