<?xml version="1.0" encoding="utf-8"?>
<svg version="1.1" xmlns:xlink="http://www.w3.org/1999/xlink" width="12px" height="12px" viewBox="453 3623  12 12" xmlns="http://www.w3.org/2000/svg">
  <path d="M 453.5 3625  A 1.5 1.5 0 0 1 455 3623.5 L 463 3623.5  A 1.5 1.5 0 0 1 464.5 3625 L 464.5 3633  A 1.5 1.5 0 0 1 463 3634.5 L 455 3634.5  A 1.5 1.5 0 0 1 453.5 3633 L 453.5 3625  Z " fill-rule="nonzero" fill="#ffffff" stroke="none" fill-opacity="0" />
  <path d="M 453.5 3625  A 1.5 1.5 0 0 1 455 3623.5 L 463 3623.5  A 1.5 1.5 0 0 1 464.5 3625 L 464.5 3633  A 1.5 1.5 0 0 1 463 3634.5 L 455 3634.5  A 1.5 1.5 0 0 1 453.5 3633 L 453.5 3625  Z " stroke-width="1" stroke="#797979" fill="none" />
</svg>