<?xml version="1.0" encoding="utf-8"?>
<svg version="1.1" xmlns:xlink="http://www.w3.org/1999/xlink" width="12px" height="12px" viewBox="853 3666.5  12 12" xmlns="http://www.w3.org/2000/svg">
  <path d="M 859 3666.5  C 862.36 3666.5  865 3669.14  865 3672.5  C 865 3675.86  862.36 3678.5  859 3678.5  C 855.64 3678.5  853 3675.86  853 3672.5  C 853 3669.14  855.64 3666.5  859 3666.5  Z " fill-rule="nonzero" fill="#ffffff" stroke="none" fill-opacity="0" />
  <path d="M 859 3667  C 862.08 3667  864.5 3669.42  864.5 3672.5  C 864.5 3675.58  862.08 3678  859 3678  C 855.92 3678  853.5 3675.58  853.5 3672.5  C 853.5 3669.42  855.92 3667  859 3667  Z " stroke-width="1" stroke="#797979" fill="none" />
  <path d="M 859 3675.5  C 857.32 3675.5  856 3674.18  856 3672.5  C 856 3670.82  857.32 3669.5  859 3669.5  C 860.68 3669.5  862 3670.82  862 3672.5  C 862 3674.18  860.68 3675.5  859 3675.5  " fill-rule="nonzero" fill="#797979" stroke="none" />
</svg>