<?xml version="1.0" encoding="utf-8"?>
<svg version="1.1" xmlns:xlink="http://www.w3.org/1999/xlink" width="12px" height="12px" viewBox="852 3814.5  12 12" xmlns="http://www.w3.org/2000/svg">
  <path d="M 858 3814.5  C 861.36 3814.5  864 3817.14  864 3820.5  C 864 3823.86  861.36 3826.5  858 3826.5  C 854.64 3826.5  852 3823.86  852 3820.5  C 852 3817.14  854.64 3814.5  858 3814.5  Z " fill-rule="nonzero" fill="#f0f0f0" stroke="none" />
  <path d="M 858 3815  C 861.08 3815  863.5 3817.42  863.5 3820.5  C 863.5 3823.58  861.08 3826  858 3826  C 854.92 3826  852.5 3823.58  852.5 3820.5  C 852.5 3817.42  854.92 3815  858 3815  Z " stroke-width="1" stroke="#797979" fill="none" />
  <path d="M 858 3823.5  C 856.32 3823.5  855 3822.18  855 3820.5  C 855 3818.82  856.32 3817.5  858 3817.5  C 859.68 3817.5  861 3818.82  861 3820.5  C 861 3822.18  859.68 3823.5  858 3823.5  " fill-rule="nonzero" fill="#797979" stroke="none" />
</svg>