<?xml version="1.0" encoding="utf-8"?>
<svg version="1.1" xmlns:xlink="http://www.w3.org/1999/xlink" width="12px" height="12px" viewBox="815 4097.5  12 12" xmlns="http://www.w3.org/2000/svg">
  <path d="M 821 4097.5  C 824.36 4097.5  827 4100.14  827 4103.5  C 827 4106.86  824.36 4109.5  821 4109.5  C 817.64 4109.5  815 4106.86  815 4103.5  C 815 4100.14  817.64 4097.5  821 4097.5  Z " fill-rule="nonzero" fill="#ffffff" stroke="none" fill-opacity="0" />
  <path d="M 821 4098  C 824.08 4098  826.5 4100.42  826.5 4103.5  C 826.5 4106.58  824.08 4109  821 4109  C 817.92 4109  815.5 4106.58  815.5 4103.5  C 815.5 4100.42  817.92 4098  821 4098  Z " stroke-width="1" stroke="#797979" fill="none" />
  <path d="M 821 4106.5  C 819.32 4106.5  818 4105.18  818 4103.5  C 818 4101.82  819.32 4100.5  821 4100.5  C 822.68 4100.5  824 4101.82  824 4103.5  C 824 4105.18  822.68 4106.5  821 4106.5  " fill-rule="nonzero" fill="#797979" stroke="none" />
</svg>