<?xml version="1.0" encoding="utf-8"?>
<svg version="1.1" xmlns:xlink="http://www.w3.org/1999/xlink" width="12px" height="12px" viewBox="862 4097.5  12 12" xmlns="http://www.w3.org/2000/svg">
  <path d="M 868 4097.5  C 871.36 4097.5  874 4100.14  874 4103.5  C 874 4106.86  871.36 4109.5  868 4109.5  C 864.64 4109.5  862 4106.86  862 4103.5  C 862 4100.14  864.64 4097.5  868 4097.5  Z " fill-rule="nonzero" fill="#ffffff" stroke="none" fill-opacity="0" />
  <path d="M 868 4098  C 871.08 4098  873.5 4100.42  873.5 4103.5  C 873.5 4106.58  871.08 4109  868 4109  C 864.92 4109  862.5 4106.58  862.5 4103.5  C 862.5 4100.42  864.92 4098  868 4098  Z " stroke-width="1" stroke="#797979" fill="none" />
  <path d="M 868 4106.5  C 866.32 4106.5  865 4105.18  865 4103.5  C 865 4101.82  866.32 4100.5  868 4100.5  C 869.68 4100.5  871 4101.82  871 4103.5  C 871 4105.18  869.68 4106.5  868 4106.5  " fill-rule="nonzero" fill="#797979" stroke="none" />
</svg>