<?xml version="1.0" encoding="utf-8"?>
<svg version="1.1" xmlns:xlink="http://www.w3.org/1999/xlink" width="12px" height="12px" viewBox="863 4056.5  12 12" xmlns="http://www.w3.org/2000/svg">
  <path d="M 869 4056.5  C 872.36 4056.5  875 4059.14  875 4062.5  C 875 4065.86  872.36 4068.5  869 4068.5  C 865.64 4068.5  863 4065.86  863 4062.5  C 863 4059.14  865.64 4056.5  869 4056.5  Z " fill-rule="nonzero" fill="#f0f0f0" stroke="none" />
  <path d="M 869 4057  C 872.08 4057  874.5 4059.42  874.5 4062.5  C 874.5 4065.58  872.08 4068  869 4068  C 865.92 4068  863.5 4065.58  863.5 4062.5  C 863.5 4059.42  865.92 4057  869 4057  Z " stroke-width="1" stroke="#797979" fill="none" />
  <path d="M 869 4065.5  C 867.32 4065.5  866 4064.18  866 4062.5  C 866 4060.82  867.32 4059.5  869 4059.5  C 870.68 4059.5  872 4060.82  872 4062.5  C 872 4064.18  870.68 4065.5  869 4065.5  " fill-rule="nonzero" fill="#797979" stroke="none" />
</svg>