<?xml version="1.0" encoding="utf-8"?>
<svg version="1.1" xmlns:xlink="http://www.w3.org/1999/xlink" width="12px" height="12px" viewBox="462 4054  12 12" xmlns="http://www.w3.org/2000/svg">
  <path d="M 462.5 4056  A 1.5 1.5 0 0 1 464 4054.5 L 472 4054.5  A 1.5 1.5 0 0 1 473.5 4056 L 473.5 4064  A 1.5 1.5 0 0 1 472 4065.5 L 464 4065.5  A 1.5 1.5 0 0 1 462.5 4064 L 462.5 4056  Z " fill-rule="nonzero" fill="#f0f0f0" stroke="none" />
  <path d="M 462.5 4056  A 1.5 1.5 0 0 1 464 4054.5 L 472 4054.5  A 1.5 1.5 0 0 1 473.5 4056 L 473.5 4064  A 1.5 1.5 0 0 1 472 4065.5 L 464 4065.5  A 1.5 1.5 0 0 1 462.5 4064 L 462.5 4056  Z " stroke-width="1" stroke="#797979" fill="none" />
</svg>