<?xml version="1.0" encoding="utf-8"?>
<svg version="1.1" xmlns:xlink="http://www.w3.org/1999/xlink" width="12px" height="12px" viewBox="816 4198.5  12 12" xmlns="http://www.w3.org/2000/svg">
  <path d="M 822 4198.5  C 825.36 4198.5  828 4201.14  828 4204.5  C 828 4207.86  825.36 4210.5  822 4210.5  C 818.64 4210.5  816 4207.86  816 4204.5  C 816 4201.14  818.64 4198.5  822 4198.5  Z " fill-rule="nonzero" fill="#ffffff" stroke="none" fill-opacity="0" />
  <path d="M 822 4199  C 825.08 4199  827.5 4201.42  827.5 4204.5  C 827.5 4207.58  825.08 4210  822 4210  C 818.92 4210  816.5 4207.58  816.5 4204.5  C 816.5 4201.42  818.92 4199  822 4199  Z " stroke-width="1" stroke="#797979" fill="none" />
  <path d="M 822 4207.5  C 820.32 4207.5  819 4206.18  819 4204.5  C 819 4202.82  820.32 4201.5  822 4201.5  C 823.68 4201.5  825 4202.82  825 4204.5  C 825 4206.18  823.68 4207.5  822 4207.5  " fill-rule="nonzero" fill="#797979" stroke="none" />
</svg>