<?xml version="1.0" encoding="utf-8"?>
<svg version="1.1" xmlns:xlink="http://www.w3.org/1999/xlink" width="12px" height="12px" viewBox="462 4196  12 12" xmlns="http://www.w3.org/2000/svg">
  <path d="M 462.5 4198  A 1.5 1.5 0 0 1 464 4196.5 L 472 4196.5  A 1.5 1.5 0 0 1 473.5 4198 L 473.5 4206  A 1.5 1.5 0 0 1 472 4207.5 L 464 4207.5  A 1.5 1.5 0 0 1 462.5 4206 L 462.5 4198  Z " fill-rule="nonzero" fill="#f0f0f0" stroke="none" />
  <path d="M 462.5 4198  A 1.5 1.5 0 0 1 464 4196.5 L 472 4196.5  A 1.5 1.5 0 0 1 473.5 4198 L 473.5 4206  A 1.5 1.5 0 0 1 472 4207.5 L 464 4207.5  A 1.5 1.5 0 0 1 462.5 4206 L 462.5 4198  Z " stroke-width="1" stroke="#797979" fill="none" />
</svg>