<?xml version="1.0" encoding="utf-8"?>
<svg version="1.1" xmlns:xlink="http://www.w3.org/1999/xlink" width="12px" height="12px" viewBox="863 4198.5  12 12" xmlns="http://www.w3.org/2000/svg">
  <path d="M 869 4198.5  C 872.36 4198.5  875 4201.14  875 4204.5  C 875 4207.86  872.36 4210.5  869 4210.5  C 865.64 4210.5  863 4207.86  863 4204.5  C 863 4201.14  865.64 4198.5  869 4198.5  Z " fill-rule="nonzero" fill="#ffffff" stroke="none" fill-opacity="0" />
  <path d="M 869 4199  C 872.08 4199  874.5 4201.42  874.5 4204.5  C 874.5 4207.58  872.08 4210  869 4210  C 865.92 4210  863.5 4207.58  863.5 4204.5  C 863.5 4201.42  865.92 4199  869 4199  Z " stroke-width="1" stroke="#797979" fill="none" />
  <path d="M 869 4207.5  C 867.32 4207.5  866 4206.18  866 4204.5  C 866 4202.82  867.32 4201.5  869 4201.5  C 870.68 4201.5  872 4202.82  872 4204.5  C 872 4206.18  870.68 4207.5  869 4207.5  " fill-rule="nonzero" fill="#797979" stroke="none" />
</svg>