<?xml version="1.0" encoding="utf-8"?>
<svg version="1.1" xmlns:xlink="http://www.w3.org/1999/xlink" width="12px" height="12px" viewBox="461 4095  12 12" xmlns="http://www.w3.org/2000/svg">
  <path d="M 461.5 4097  A 1.5 1.5 0 0 1 463 4095.5 L 471 4095.5  A 1.5 1.5 0 0 1 472.5 4097 L 472.5 4105  A 1.5 1.5 0 0 1 471 4106.5 L 463 4106.5  A 1.5 1.5 0 0 1 461.5 4105 L 461.5 4097  Z " fill-rule="nonzero" fill="#ffffff" stroke="none" />
  <path d="M 461.5 4097  A 1.5 1.5 0 0 1 463 4095.5 L 471 4095.5  A 1.5 1.5 0 0 1 472.5 4097 L 472.5 4105  A 1.5 1.5 0 0 1 471 4106.5 L 463 4106.5  A 1.5 1.5 0 0 1 461.5 4105 L 461.5 4097  Z " stroke-width="1" stroke="#797979" fill="none" />
</svg>