<?xml version="1.0" encoding="utf-8"?>
<svg version="1.1" xmlns:xlink="http://www.w3.org/1999/xlink" width="12px" height="12px" viewBox="862 4239.5  12 12" xmlns="http://www.w3.org/2000/svg">
  <path d="M 868 4239.5  C 871.36 4239.5  874 4242.14  874 4245.5  C 874 4248.86  871.36 4251.5  868 4251.5  C 864.64 4251.5  862 4248.86  862 4245.5  C 862 4242.14  864.64 4239.5  868 4239.5  Z " fill-rule="nonzero" fill="#ffffff" stroke="none" fill-opacity="0" />
  <path d="M 868 4240  C 871.08 4240  873.5 4242.42  873.5 4245.5  C 873.5 4248.58  871.08 4251  868 4251  C 864.92 4251  862.5 4248.58  862.5 4245.5  C 862.5 4242.42  864.92 4240  868 4240  Z " stroke-width="1" stroke="#797979" fill="none" />
  <path d="M 868 4248.5  C 866.32 4248.5  865 4247.18  865 4245.5  C 865 4243.82  866.32 4242.5  868 4242.5  C 869.68 4242.5  871 4243.82  871 4245.5  C 871 4247.18  869.68 4248.5  868 4248.5  " fill-rule="nonzero" fill="#797979" stroke="none" />
</svg>