<?xml version="1.0" encoding="utf-8"?>
<svg version="1.1" xmlns:xlink="http://www.w3.org/1999/xlink" width="12px" height="12px" viewBox="815 4239.5  12 12" xmlns="http://www.w3.org/2000/svg">
  <path d="M 821 4239.5  C 824.36 4239.5  827 4242.14  827 4245.5  C 827 4248.86  824.36 4251.5  821 4251.5  C 817.64 4251.5  815 4248.86  815 4245.5  C 815 4242.14  817.64 4239.5  821 4239.5  Z " fill-rule="nonzero" fill="#ffffff" stroke="none" fill-opacity="0" />
  <path d="M 821 4240  C 824.08 4240  826.5 4242.42  826.5 4245.5  C 826.5 4248.58  824.08 4251  821 4251  C 817.92 4251  815.5 4248.58  815.5 4245.5  C 815.5 4242.42  817.92 4240  821 4240  Z " stroke-width="1" stroke="#797979" fill="none" />
  <path d="M 821 4248.5  C 819.32 4248.5  818 4247.18  818 4245.5  C 818 4243.82  819.32 4242.5  821 4242.5  C 822.68 4242.5  824 4243.82  824 4245.5  C 824 4247.18  822.68 4248.5  821 4248.5  " fill-rule="nonzero" fill="#797979" stroke="none" />
</svg>