<?xml version="1.0" encoding="utf-8"?>
<svg version="1.1" xmlns:xlink="http://www.w3.org/1999/xlink" width="12px" height="12px" viewBox="461 4237  12 12" xmlns="http://www.w3.org/2000/svg">
  <path d="M 461.5 4239  A 1.5 1.5 0 0 1 463 4237.5 L 471 4237.5  A 1.5 1.5 0 0 1 472.5 4239 L 472.5 4247  A 1.5 1.5 0 0 1 471 4248.5 L 463 4248.5  A 1.5 1.5 0 0 1 461.5 4247 L 461.5 4239  Z " fill-rule="nonzero" fill="#ffffff" stroke="none" />
  <path d="M 461.5 4239  A 1.5 1.5 0 0 1 463 4237.5 L 471 4237.5  A 1.5 1.5 0 0 1 472.5 4239 L 472.5 4247  A 1.5 1.5 0 0 1 471 4248.5 L 463 4248.5  A 1.5 1.5 0 0 1 461.5 4247 L 461.5 4239  Z " stroke-width="1" stroke="#797979" fill="none" />
  <path d="M 463.571428571429 4243  L 466.142857142857 4245.57142857143  " stroke-width="2.57142857142857" stroke="#797979" fill="none" />
  <path d="M 466.142857142857 4245.57142857143  L 470.428571428571 4239.57142857143  " stroke-width="2.57142857142857" stroke="#797979" fill="none" />
</svg>