<?xml version="1.0" encoding="utf-8"?>
<svg version="1.1" xmlns:xlink="http://www.w3.org/1999/xlink" width="12px" height="12px" viewBox="462 4328  12 12" xmlns="http://www.w3.org/2000/svg">
  <path d="M 462.5 4330  A 1.5 1.5 0 0 1 464 4328.5 L 472 4328.5  A 1.5 1.5 0 0 1 473.5 4330 L 473.5 4338  A 1.5 1.5 0 0 1 472 4339.5 L 464 4339.5  A 1.5 1.5 0 0 1 462.5 4338 L 462.5 4330  Z " fill-rule="nonzero" fill="#f0f0f0" stroke="none" />
  <path d="M 462.5 4330  A 1.5 1.5 0 0 1 464 4328.5 L 472 4328.5  A 1.5 1.5 0 0 1 473.5 4330 L 473.5 4338  A 1.5 1.5 0 0 1 472 4339.5 L 464 4339.5  A 1.5 1.5 0 0 1 462.5 4338 L 462.5 4330  Z " stroke-width="1" stroke="#797979" fill="none" />
  <path d="M 464.571428571429 4334  L 467.142857142857 4336.57142857143  " stroke-width="2.57142857142857" stroke="#797979" fill="none" />
  <path d="M 467.142857142857 4336.57142857143  L 471.428571428571 4330.57142857143  " stroke-width="2.57142857142857" stroke="#797979" fill="none" />
</svg>