<?xml version="1.0" encoding="utf-8"?>
<svg version="1.1" xmlns:xlink="http://www.w3.org/1999/xlink" width="12px" height="12px" viewBox="862 4371.5  12 12" xmlns="http://www.w3.org/2000/svg">
  <path d="M 868 4371.5  C 871.36 4371.5  874 4374.14  874 4377.5  C 874 4380.86  871.36 4383.5  868 4383.5  C 864.64 4383.5  862 4380.86  862 4377.5  C 862 4374.14  864.64 4371.5  868 4371.5  Z " fill-rule="nonzero" fill="#f0f0f0" stroke="none" />
  <path d="M 868 4372  C 871.08 4372  873.5 4374.42  873.5 4377.5  C 873.5 4380.58  871.08 4383  868 4383  C 864.92 4383  862.5 4380.58  862.5 4377.5  C 862.5 4374.42  864.92 4372  868 4372  Z " stroke-width="1" stroke="#797979" fill="none" />
  <path d="M 868 4380.5  C 866.32 4380.5  865 4379.18  865 4377.5  C 865 4375.82  866.32 4374.5  868 4374.5  C 869.68 4374.5  871 4375.82  871 4377.5  C 871 4379.18  869.68 4380.5  868 4380.5  " fill-rule="nonzero" fill="#797979" stroke="none" />
</svg>