<?xml version="1.0" encoding="utf-8"?>
<svg version="1.1" xmlns:xlink="http://www.w3.org/1999/xlink" width="12px" height="12px" viewBox="852 3505.5  12 12" xmlns="http://www.w3.org/2000/svg">
  <path d="M 858 3505.5  C 861.36 3505.5  864 3508.14  864 3511.5  C 864 3514.86  861.36 3517.5  858 3517.5  C 854.64 3517.5  852 3514.86  852 3511.5  C 852 3508.14  854.64 3505.5  858 3505.5  Z " fill-rule="nonzero" fill="#f2f2f2" stroke="none" />
  <path d="M 858 3506  C 861.08 3506  863.5 3508.42  863.5 3511.5  C 863.5 3514.58  861.08 3517  858 3517  C 854.92 3517  852.5 3514.58  852.5 3511.5  C 852.5 3508.42  854.92 3506  858 3506  Z " stroke-width="1" stroke="#797979" fill="none" />
  <path d="M 858 3514.5  C 856.32 3514.5  855 3513.18  855 3511.5  C 855 3509.82  856.32 3508.5  858 3508.5  C 859.68 3508.5  861 3509.82  861 3511.5  C 861 3513.18  859.68 3514.5  858 3514.5  " fill-rule="nonzero" fill="#797979" stroke="none" />
</svg>