<?xml version="1.0" encoding="utf-8"?>
<svg version="1.1" xmlns:xlink="http://www.w3.org/1999/xlink" width="12px" height="12px" viewBox="451 3533  12 12" xmlns="http://www.w3.org/2000/svg">
  <path d="M 451.5 3535  A 1.5 1.5 0 0 1 453 3533.5 L 461 3533.5  A 1.5 1.5 0 0 1 462.5 3535 L 462.5 3543  A 1.5 1.5 0 0 1 461 3544.5 L 453 3544.5  A 1.5 1.5 0 0 1 451.5 3543 L 451.5 3535  Z " fill-rule="nonzero" fill="#f0f0f0" stroke="none" />
  <path d="M 451.5 3535  A 1.5 1.5 0 0 1 453 3533.5 L 461 3533.5  A 1.5 1.5 0 0 1 462.5 3535 L 462.5 3543  A 1.5 1.5 0 0 1 461 3544.5 L 453 3544.5  A 1.5 1.5 0 0 1 451.5 3543 L 451.5 3535  Z " stroke-width="1" stroke="#797979" fill="none" />
  <path d="M 453.571428571429 3539  L 456.142857142857 3541.57142857143  " stroke-width="2.57142857142857" stroke="#797979" fill="none" />
  <path d="M 456.142857142857 3541.57142857143  L 460.428571428571 3535.57142857143  " stroke-width="2.57142857142857" stroke="#797979" fill="none" />
</svg>