<?xml version="1.0" encoding="utf-8"?>
<svg version="1.1" xmlns:xlink="http://www.w3.org/1999/xlink" width="12px" height="12px" viewBox="852 3535.5  12 12" xmlns="http://www.w3.org/2000/svg">
  <path d="M 858 3535.5  C 861.36 3535.5  864 3538.14  864 3541.5  C 864 3544.86  861.36 3547.5  858 3547.5  C 854.64 3547.5  852 3544.86  852 3541.5  C 852 3538.14  854.64 3535.5  858 3535.5  Z " fill-rule="nonzero" fill="#f0f0f0" stroke="none" />
  <path d="M 858 3536  C 861.08 3536  863.5 3538.42  863.5 3541.5  C 863.5 3544.58  861.08 3547  858 3547  C 854.92 3547  852.5 3544.58  852.5 3541.5  C 852.5 3538.42  854.92 3536  858 3536  Z " stroke-width="1" stroke="#797979" fill="none" />
  <path d="M 858 3544.5  C 856.32 3544.5  855 3543.18  855 3541.5  C 855 3539.82  856.32 3538.5  858 3538.5  C 859.68 3538.5  861 3539.82  861 3541.5  C 861 3543.18  859.68 3544.5  858 3544.5  " fill-rule="nonzero" fill="#797979" stroke="none" />
</svg>