<?xml version="1.0" encoding="utf-8"?>
<svg version="1.1" xmlns:xlink="http://www.w3.org/1999/xlink" width="12px" height="12px" viewBox="852 5997.5  12 12" xmlns="http://www.w3.org/2000/svg">
  <path d="M 858 5997.5  C 861.36 5997.5  864 6000.14  864 6003.5  C 864 6006.86  861.36 6009.5  858 6009.5  C 854.64 6009.5  852 6006.86  852 6003.5  C 852 6000.14  854.64 5997.5  858 5997.5  Z " fill-rule="nonzero" fill="#ffffff" stroke="none" />
  <path d="M 858 5998  C 861.08 5998  863.5 6000.42  863.5 6003.5  C 863.5 6006.58  861.08 6009  858 6009  C 854.92 6009  852.5 6006.58  852.5 6003.5  C 852.5 6000.42  854.92 5998  858 5998  Z " stroke-width="1" stroke="#797979" fill="none" />
  <path d="M 858 6006.5  C 856.32 6006.5  855 6005.18  855 6003.5  C 855 6001.82  856.32 6000.5  858 6000.5  C 859.68 6000.5  861 6001.82  861 6003.5  C 861 6005.18  859.68 6006.5  858 6006.5  " fill-rule="nonzero" fill="#797979" stroke="none" />
</svg>