<?xml version="1.0" encoding="utf-8"?>
<svg version="1.1" xmlns:xlink="http://www.w3.org/1999/xlink" width="12px" height="12px" viewBox="453 5995  12 12" xmlns="http://www.w3.org/2000/svg">
  <path d="M 453.5 5997  A 1.5 1.5 0 0 1 455 5995.5 L 463 5995.5  A 1.5 1.5 0 0 1 464.5 5997 L 464.5 6005  A 1.5 1.5 0 0 1 463 6006.5 L 455 6006.5  A 1.5 1.5 0 0 1 453.5 6005 L 453.5 5997  Z " fill-rule="nonzero" fill="#f0f0f0" stroke="none" />
  <path d="M 453.5 5997  A 1.5 1.5 0 0 1 455 5995.5 L 463 5995.5  A 1.5 1.5 0 0 1 464.5 5997 L 464.5 6005  A 1.5 1.5 0 0 1 463 6006.5 L 455 6006.5  A 1.5 1.5 0 0 1 453.5 6005 L 453.5 5997  Z " stroke-width="1" stroke="#797979" fill="none" />
</svg>