<?xml version="1.0" encoding="utf-8"?>
<svg version="1.1" xmlns:xlink="http://www.w3.org/1999/xlink" width="12px" height="12px" viewBox="805 5997.5  12 12" xmlns="http://www.w3.org/2000/svg">
  <path d="M 811 5997.5  C 814.36 5997.5  817 6000.14  817 6003.5  C 817 6006.86  814.36 6009.5  811 6009.5  C 807.64 6009.5  805 6006.86  805 6003.5  C 805 6000.14  807.64 5997.5  811 5997.5  Z " fill-rule="nonzero" fill="#f0f0f0" stroke="none" />
  <path d="M 811 5998  C 814.08 5998  816.5 6000.42  816.5 6003.5  C 816.5 6006.58  814.08 6009  811 6009  C 807.92 6009  805.5 6006.58  805.5 6003.5  C 805.5 6000.42  807.92 5998  811 5998  Z " stroke-width="1" stroke="#797979" fill="none" />
  <path d="M 811 6006.5  C 809.32 6006.5  808 6005.18  808 6003.5  C 808 6001.82  809.32 6000.5  811 6000.5  C 812.68 6000.5  814 6001.82  814 6003.5  C 814 6005.18  812.68 6006.5  811 6006.5  " fill-rule="nonzero" fill="#797979" stroke="none" />
</svg>