<?xml version="1.0" encoding="utf-8"?>
<svg version="1.1" xmlns:xlink="http://www.w3.org/1999/xlink" width="12px" height="12px" viewBox="804 6082.5  12 12" xmlns="http://www.w3.org/2000/svg">
  <path d="M 810 6082.5  C 813.36 6082.5  816 6085.14  816 6088.5  C 816 6091.86  813.36 6094.5  810 6094.5  C 806.64 6094.5  804 6091.86  804 6088.5  C 804 6085.14  806.64 6082.5  810 6082.5  Z " fill-rule="nonzero" fill="#f0f0f0" stroke="none" />
  <path d="M 810 6083  C 813.08 6083  815.5 6085.42  815.5 6088.5  C 815.5 6091.58  813.08 6094  810 6094  C 806.92 6094  804.5 6091.58  804.5 6088.5  C 804.5 6085.42  806.92 6083  810 6083  Z " stroke-width="1" stroke="#797979" fill="none" />
  <path d="M 810 6091.5  C 808.32 6091.5  807 6090.18  807 6088.5  C 807 6086.82  808.32 6085.5  810 6085.5  C 811.68 6085.5  813 6086.82  813 6088.5  C 813 6090.18  811.68 6091.5  810 6091.5  " fill-rule="nonzero" fill="#797979" stroke="none" />
</svg>