<?xml version="1.0" encoding="utf-8"?>
<svg version="1.1" xmlns:xlink="http://www.w3.org/1999/xlink" width="12px" height="12px" viewBox="851 6082.5  12 12" xmlns="http://www.w3.org/2000/svg">
  <path d="M 857 6082.5  C 860.36 6082.5  863 6085.14  863 6088.5  C 863 6091.86  860.36 6094.5  857 6094.5  C 853.64 6094.5  851 6091.86  851 6088.5  C 851 6085.14  853.64 6082.5  857 6082.5  Z " fill-rule="nonzero" fill="#f0f0f0" stroke="none" />
  <path d="M 857 6083  C 860.08 6083  862.5 6085.42  862.5 6088.5  C 862.5 6091.58  860.08 6094  857 6094  C 853.92 6094  851.5 6091.58  851.5 6088.5  C 851.5 6085.42  853.92 6083  857 6083  Z " stroke-width="1" stroke="#797979" fill="none" />
  <path d="M 857 6091.5  C 855.32 6091.5  854 6090.18  854 6088.5  C 854 6086.82  855.32 6085.5  857 6085.5  C 858.68 6085.5  860 6086.82  860 6088.5  C 860 6090.18  858.68 6091.5  857 6091.5  " fill-rule="nonzero" fill="#797979" stroke="none" />
</svg>