<?xml version="1.0" encoding="utf-8"?>
<svg version="1.1" xmlns:xlink="http://www.w3.org/1999/xlink" width="12px" height="12px" viewBox="851 6123.5  12 12" xmlns="http://www.w3.org/2000/svg">
  <path d="M 857 6123.5  C 860.36 6123.5  863 6126.14  863 6129.5  C 863 6132.86  860.36 6135.5  857 6135.5  C 853.64 6135.5  851 6132.86  851 6129.5  C 851 6126.14  853.64 6123.5  857 6123.5  Z " fill-rule="nonzero" fill="#ffffff" stroke="none" />
  <path d="M 857 6124  C 860.08 6124  862.5 6126.42  862.5 6129.5  C 862.5 6132.58  860.08 6135  857 6135  C 853.92 6135  851.5 6132.58  851.5 6129.5  C 851.5 6126.42  853.92 6124  857 6124  Z " stroke-width="1" stroke="#797979" fill="none" />
  <path d="M 857 6132.5  C 855.32 6132.5  854 6131.18  854 6129.5  C 854 6127.82  855.32 6126.5  857 6126.5  C 858.68 6126.5  860 6127.82  860 6129.5  C 860 6131.18  858.68 6132.5  857 6132.5  " fill-rule="nonzero" fill="#797979" stroke="none" />
</svg>