<?xml version="1.0" encoding="utf-8"?>
<svg version="1.1" xmlns:xlink="http://www.w3.org/1999/xlink" width="12px" height="12px" viewBox="806 6170.5  12 12" xmlns="http://www.w3.org/2000/svg">
  <path d="M 812 6170.5  C 815.36 6170.5  818 6173.14  818 6176.5  C 818 6179.86  815.36 6182.5  812 6182.5  C 808.64 6182.5  806 6179.86  806 6176.5  C 806 6173.14  808.64 6170.5  812 6170.5  Z " fill-rule="nonzero" fill="#ffffff" stroke="none" />
  <path d="M 812 6171  C 815.08 6171  817.5 6173.42  817.5 6176.5  C 817.5 6179.58  815.08 6182  812 6182  C 808.92 6182  806.5 6179.58  806.5 6176.5  C 806.5 6173.42  808.92 6171  812 6171  Z " stroke-width="1" stroke="#797979" fill="none" />
  <path d="M 812 6179.5  C 810.32 6179.5  809 6178.18  809 6176.5  C 809 6174.82  810.32 6173.5  812 6173.5  C 813.68 6173.5  815 6174.82  815 6176.5  C 815 6178.18  813.68 6179.5  812 6179.5  " fill-rule="nonzero" fill="#797979" stroke="none" />
</svg>