<?xml version="1.0" encoding="utf-8"?>
<svg version="1.1" xmlns:xlink="http://www.w3.org/1999/xlink" width="12px" height="12px" viewBox="853 6210.5  12 12" xmlns="http://www.w3.org/2000/svg">
  <path d="M 859 6210.5  C 862.36 6210.5  865 6213.14  865 6216.5  C 865 6219.86  862.36 6222.5  859 6222.5  C 855.64 6222.5  853 6219.86  853 6216.5  C 853 6213.14  855.64 6210.5  859 6210.5  Z " fill-rule="nonzero" fill="#ffffff" stroke="none" />
  <path d="M 859 6211  C 862.08 6211  864.5 6213.42  864.5 6216.5  C 864.5 6219.58  862.08 6222  859 6222  C 855.92 6222  853.5 6219.58  853.5 6216.5  C 853.5 6213.42  855.92 6211  859 6211  Z " stroke-width="1" stroke="#797979" fill="none" />
  <path d="M 859 6219.5  C 857.32 6219.5  856 6218.18  856 6216.5  C 856 6214.82  857.32 6213.5  859 6213.5  C 860.68 6213.5  862 6214.82  862 6216.5  C 862 6218.18  860.68 6219.5  859 6219.5  " fill-rule="nonzero" fill="#797979" stroke="none" />
</svg>