<?xml version="1.0" encoding="utf-8"?>
<svg version="1.1" xmlns:xlink="http://www.w3.org/1999/xlink" width="12px" height="12px" viewBox="454 6168  12 12" xmlns="http://www.w3.org/2000/svg">
  <path d="M 454.5 6170  A 1.5 1.5 0 0 1 456 6168.5 L 464 6168.5  A 1.5 1.5 0 0 1 465.5 6170 L 465.5 6178  A 1.5 1.5 0 0 1 464 6179.5 L 456 6179.5  A 1.5 1.5 0 0 1 454.5 6178 L 454.5 6170  Z " fill-rule="nonzero" fill="#ffffff" stroke="none" />
  <path d="M 454.5 6170  A 1.5 1.5 0 0 1 456 6168.5 L 464 6168.5  A 1.5 1.5 0 0 1 465.5 6170 L 465.5 6178  A 1.5 1.5 0 0 1 464 6179.5 L 456 6179.5  A 1.5 1.5 0 0 1 454.5 6178 L 454.5 6170  Z " stroke-width="1" stroke="#797979" fill="none" />
  <path d="M 456.571428571429 6174  L 459.142857142857 6176.57142857143  " stroke-width="2.57142857142857" stroke="#797979" fill="none" />
  <path d="M 459.142857142857 6176.57142857143  L 463.428571428571 6170.57142857143  " stroke-width="2.57142857142857" stroke="#797979" fill="none" />
</svg>