<?xml version="1.0" encoding="utf-8"?>
<svg version="1.1" xmlns:xlink="http://www.w3.org/1999/xlink" width="12px" height="12px" viewBox="805 6346.5  12 12" xmlns="http://www.w3.org/2000/svg">
  <path d="M 811 6346.5  C 814.36 6346.5  817 6349.14  817 6352.5  C 817 6355.86  814.36 6358.5  811 6358.5  C 807.64 6358.5  805 6355.86  805 6352.5  C 805 6349.14  807.64 6346.5  811 6346.5  Z " fill-rule="nonzero" fill="#f0f0f0" stroke="none" />
  <path d="M 811 6347  C 814.08 6347  816.5 6349.42  816.5 6352.5  C 816.5 6355.58  814.08 6358  811 6358  C 807.92 6358  805.5 6355.58  805.5 6352.5  C 805.5 6349.42  807.92 6347  811 6347  Z " stroke-width="1" stroke="#797979" fill="none" />
  <path d="M 811 6355.5  C 809.32 6355.5  808 6354.18  808 6352.5  C 808 6350.82  809.32 6349.5  811 6349.5  C 812.68 6349.5  814 6350.82  814 6352.5  C 814 6354.18  812.68 6355.5  811 6355.5  " fill-rule="nonzero" fill="#797979" stroke="none" />
</svg>