<?xml version="1.0" encoding="utf-8"?>
<svg version="1.1" xmlns:xlink="http://www.w3.org/1999/xlink" width="12px" height="12px" viewBox="451 6419  12 12" xmlns="http://www.w3.org/2000/svg">
  <path d="M 451.5 6421  A 1.5 1.5 0 0 1 453 6419.5 L 461 6419.5  A 1.5 1.5 0 0 1 462.5 6421 L 462.5 6429  A 1.5 1.5 0 0 1 461 6430.5 L 453 6430.5  A 1.5 1.5 0 0 1 451.5 6429 L 451.5 6421  Z " fill-rule="nonzero" fill="#f0f0f0" stroke="none" />
  <path d="M 451.5 6421  A 1.5 1.5 0 0 1 453 6419.5 L 461 6419.5  A 1.5 1.5 0 0 1 462.5 6421 L 462.5 6429  A 1.5 1.5 0 0 1 461 6430.5 L 453 6430.5  A 1.5 1.5 0 0 1 451.5 6429 L 451.5 6421  Z " stroke-width="1" stroke="#797979" fill="none" />
</svg>