<?xml version="1.0" encoding="utf-8"?>
<svg version="1.1" xmlns:xlink="http://www.w3.org/1999/xlink" width="12px" height="12px" viewBox="852 6346.5  12 12" xmlns="http://www.w3.org/2000/svg">
  <path d="M 858 6346.5  C 861.36 6346.5  864 6349.14  864 6352.5  C 864 6355.86  861.36 6358.5  858 6358.5  C 854.64 6358.5  852 6355.86  852 6352.5  C 852 6349.14  854.64 6346.5  858 6346.5  Z " fill-rule="nonzero" fill="#ffffff" stroke="none" />
  <path d="M 858 6347  C 861.08 6347  863.5 6349.42  863.5 6352.5  C 863.5 6355.58  861.08 6358  858 6358  C 854.92 6358  852.5 6355.58  852.5 6352.5  C 852.5 6349.42  854.92 6347  858 6347  Z " stroke-width="1" stroke="#797979" fill="none" />
  <path d="M 858 6355.5  C 856.32 6355.5  855 6354.18  855 6352.5  C 855 6350.82  856.32 6349.5  858 6349.5  C 859.68 6349.5  861 6350.82  861 6352.5  C 861 6354.18  859.68 6355.5  858 6355.5  " fill-rule="nonzero" fill="#797979" stroke="none" />
</svg>