<?xml version="1.0" encoding="utf-8"?>
<svg version="1.1" xmlns:xlink="http://www.w3.org/1999/xlink" width="12px" height="12px" viewBox="453 6344  12 12" xmlns="http://www.w3.org/2000/svg">
  <path d="M 453.5 6346  A 1.5 1.5 0 0 1 455 6344.5 L 463 6344.5  A 1.5 1.5 0 0 1 464.5 6346 L 464.5 6354  A 1.5 1.5 0 0 1 463 6355.5 L 455 6355.5  A 1.5 1.5 0 0 1 453.5 6354 L 453.5 6346  Z " fill-rule="nonzero" fill="#f0f0f0" stroke="none" />
  <path d="M 453.5 6346  A 1.5 1.5 0 0 1 455 6344.5 L 463 6344.5  A 1.5 1.5 0 0 1 464.5 6346 L 464.5 6354  A 1.5 1.5 0 0 1 463 6355.5 L 455 6355.5  A 1.5 1.5 0 0 1 453.5 6354 L 453.5 6346  Z " stroke-width="1" stroke="#797979" fill="none" />
  <path d="M 455.571428571429 6350  L 458.142857142857 6352.57142857143  " stroke-width="2.57142857142857" stroke="#797979" fill="none" />
  <path d="M 458.142857142857 6352.57142857143  L 462.428571428571 6346.57142857143  " stroke-width="2.57142857142857" stroke="#797979" fill="none" />
</svg>