<?xml version="1.0" encoding="utf-8"?>
<svg version="1.1" xmlns:xlink="http://www.w3.org/1999/xlink" width="12px" height="12px" viewBox="852 6421.5  12 12" xmlns="http://www.w3.org/2000/svg">
  <path d="M 858 6421.5  C 861.36 6421.5  864 6424.14  864 6427.5  C 864 6430.86  861.36 6433.5  858 6433.5  C 854.64 6433.5  852 6430.86  852 6427.5  C 852 6424.14  854.64 6421.5  858 6421.5  Z " fill-rule="nonzero" fill="#f0f0f0" stroke="none" />
  <path d="M 858 6422  C 861.08 6422  863.5 6424.42  863.5 6427.5  C 863.5 6430.58  861.08 6433  858 6433  C 854.92 6433  852.5 6430.58  852.5 6427.5  C 852.5 6424.42  854.92 6422  858 6422  Z " stroke-width="1" stroke="#797979" fill="none" />
  <path d="M 858 6430.5  C 856.32 6430.5  855 6429.18  855 6427.5  C 855 6425.82  856.32 6424.5  858 6424.5  C 859.68 6424.5  861 6425.82  861 6427.5  C 861 6429.18  859.68 6430.5  858 6430.5  " fill-rule="nonzero" fill="#797979" stroke="none" />
</svg>