<?xml version="1.0" encoding="utf-8"?>
<svg version="1.1" xmlns:xlink="http://www.w3.org/1999/xlink" width="12px" height="12px" viewBox="805 6503.5  12 12" xmlns="http://www.w3.org/2000/svg">
  <path d="M 811 6503.5  C 814.36 6503.5  817 6506.14  817 6509.5  C 817 6512.86  814.36 6515.5  811 6515.5  C 807.64 6515.5  805 6512.86  805 6509.5  C 805 6506.14  807.64 6503.5  811 6503.5  Z " fill-rule="nonzero" fill="#f0f0f0" stroke="none" />
  <path d="M 811 6504  C 814.08 6504  816.5 6506.42  816.5 6509.5  C 816.5 6512.58  814.08 6515  811 6515  C 807.92 6515  805.5 6512.58  805.5 6509.5  C 805.5 6506.42  807.92 6504  811 6504  Z " stroke-width="1" stroke="#797979" fill="none" />
  <path d="M 811 6512.5  C 809.32 6512.5  808 6511.18  808 6509.5  C 808 6507.82  809.32 6506.5  811 6506.5  C 812.68 6506.5  814 6507.82  814 6509.5  C 814 6511.18  812.68 6512.5  811 6512.5  " fill-rule="nonzero" fill="#797979" stroke="none" />
</svg>