<?xml version="1.0" encoding="utf-8"?>
<svg version="1.1" xmlns:xlink="http://www.w3.org/1999/xlink" width="12px" height="12px" viewBox="453 6461  12 12" xmlns="http://www.w3.org/2000/svg">
  <path d="M 453.5 6463  A 1.5 1.5 0 0 1 455 6461.5 L 463 6461.5  A 1.5 1.5 0 0 1 464.5 6463 L 464.5 6471  A 1.5 1.5 0 0 1 463 6472.5 L 455 6472.5  A 1.5 1.5 0 0 1 453.5 6471 L 453.5 6463  Z " fill-rule="nonzero" fill="#f0f0f0" stroke="none" />
  <path d="M 453.5 6463  A 1.5 1.5 0 0 1 455 6461.5 L 463 6461.5  A 1.5 1.5 0 0 1 464.5 6463 L 464.5 6471  A 1.5 1.5 0 0 1 463 6472.5 L 455 6472.5  A 1.5 1.5 0 0 1 453.5 6471 L 453.5 6463  Z " stroke-width="1" stroke="#797979" fill="none" />
</svg>