<?xml version="1.0" encoding="utf-8"?>
<svg version="1.1" xmlns:xlink="http://www.w3.org/1999/xlink" width="12px" height="12px" viewBox="805 4475.5  12 12" xmlns="http://www.w3.org/2000/svg">
  <path d="M 811 4475.5  C 814.36 4475.5  817 4478.14  817 4481.5  C 817 4484.86  814.36 4487.5  811 4487.5  C 807.64 4487.5  805 4484.86  805 4481.5  C 805 4478.14  807.64 4475.5  811 4475.5  Z " fill-rule="nonzero" fill="#f0f0f0" stroke="none" />
  <path d="M 811 4476  C 814.08 4476  816.5 4478.42  816.5 4481.5  C 816.5 4484.58  814.08 4487  811 4487  C 807.92 4487  805.5 4484.58  805.5 4481.5  C 805.5 4478.42  807.92 4476  811 4476  Z " stroke-width="1" stroke="#797979" fill="none" />
  <path d="M 811 4484.5  C 809.32 4484.5  808 4483.18  808 4481.5  C 808 4479.82  809.32 4478.5  811 4478.5  C 812.68 4478.5  814 4479.82  814 4481.5  C 814 4483.18  812.68 4484.5  811 4484.5  " fill-rule="nonzero" fill="#797979" stroke="none" />
</svg>