<?xml version="1.0" encoding="utf-8"?>
<svg version="1.1" xmlns:xlink="http://www.w3.org/1999/xlink" width="12px" height="12px" viewBox="851 4520.5  12 12" xmlns="http://www.w3.org/2000/svg">
  <path d="M 857 4520.5  C 860.36 4520.5  863 4523.14  863 4526.5  C 863 4529.86  860.36 4532.5  857 4532.5  C 853.64 4532.5  851 4529.86  851 4526.5  C 851 4523.14  853.64 4520.5  857 4520.5  Z " fill-rule="nonzero" fill="#ffffff" stroke="none" />
  <path d="M 857 4521  C 860.08 4521  862.5 4523.42  862.5 4526.5  C 862.5 4529.58  860.08 4532  857 4532  C 853.92 4532  851.5 4529.58  851.5 4526.5  C 851.5 4523.42  853.92 4521  857 4521  Z " stroke-width="1" stroke="#797979" fill="none" />
  <path d="M 857 4529.5  C 855.32 4529.5  854 4528.18  854 4526.5  C 854 4524.82  855.32 4523.5  857 4523.5  C 858.68 4523.5  860 4524.82  860 4526.5  C 860 4528.18  858.68 4529.5  857 4529.5  " fill-rule="nonzero" fill="#797979" stroke="none" />
</svg>