<?xml version="1.0" encoding="utf-8"?>
<svg version="1.1" xmlns:xlink="http://www.w3.org/1999/xlink" width="12px" height="12px" viewBox="804 4520.5  12 12" xmlns="http://www.w3.org/2000/svg">
  <path d="M 810 4520.5  C 813.36 4520.5  816 4523.14  816 4526.5  C 816 4529.86  813.36 4532.5  810 4532.5  C 806.64 4532.5  804 4529.86  804 4526.5  C 804 4523.14  806.64 4520.5  810 4520.5  Z " fill-rule="nonzero" fill="#ffffff" stroke="none" />
  <path d="M 810 4521  C 813.08 4521  815.5 4523.42  815.5 4526.5  C 815.5 4529.58  813.08 4532  810 4532  C 806.92 4532  804.5 4529.58  804.5 4526.5  C 804.5 4523.42  806.92 4521  810 4521  Z " stroke-width="1" stroke="#797979" fill="none" />
  <path d="M 810 4529.5  C 808.32 4529.5  807 4528.18  807 4526.5  C 807 4524.82  808.32 4523.5  810 4523.5  C 811.68 4523.5  813 4524.82  813 4526.5  C 813 4528.18  811.68 4529.5  810 4529.5  " fill-rule="nonzero" fill="#797979" stroke="none" />
</svg>