<?xml version="1.0" encoding="utf-8"?>
<svg version="1.1" xmlns:xlink="http://www.w3.org/1999/xlink" width="12px" height="12px" viewBox="450 4559  12 12" xmlns="http://www.w3.org/2000/svg">
  <path d="M 450.5 4561  A 1.5 1.5 0 0 1 452 4559.5 L 460 4559.5  A 1.5 1.5 0 0 1 461.5 4561 L 461.5 4569  A 1.5 1.5 0 0 1 460 4570.5 L 452 4570.5  A 1.5 1.5 0 0 1 450.5 4569 L 450.5 4561  Z " fill-rule="nonzero" fill="#ffffff" stroke="none" />
  <path d="M 450.5 4561  A 1.5 1.5 0 0 1 452 4559.5 L 460 4559.5  A 1.5 1.5 0 0 1 461.5 4561 L 461.5 4569  A 1.5 1.5 0 0 1 460 4570.5 L 452 4570.5  A 1.5 1.5 0 0 1 450.5 4569 L 450.5 4561  Z " stroke-width="1" stroke="#797979" fill="none" />
</svg>