<?xml version="1.0" encoding="utf-8"?>
<svg version="1.1" xmlns:xlink="http://www.w3.org/1999/xlink" width="12px" height="12px" viewBox="851 4560.5  12 12" xmlns="http://www.w3.org/2000/svg">
  <path d="M 857 4560.5  C 860.36 4560.5  863 4563.14  863 4566.5  C 863 4569.86  860.36 4572.5  857 4572.5  C 853.64 4572.5  851 4569.86  851 4566.5  C 851 4563.14  853.64 4560.5  857 4560.5  Z " fill-rule="nonzero" fill="#f0f0f0" stroke="none" />
  <path d="M 857 4561  C 860.08 4561  862.5 4563.42  862.5 4566.5  C 862.5 4569.58  860.08 4572  857 4572  C 853.92 4572  851.5 4569.58  851.5 4566.5  C 851.5 4563.42  853.92 4561  857 4561  Z " stroke-width="1" stroke="#797979" fill="none" />
  <path d="M 857 4569.5  C 855.32 4569.5  854 4568.18  854 4566.5  C 854 4564.82  855.32 4563.5  857 4563.5  C 858.68 4563.5  860 4564.82  860 4566.5  C 860 4568.18  858.68 4569.5  857 4569.5  " fill-rule="nonzero" fill="#797979" stroke="none" />
</svg>