<?xml version="1.0" encoding="utf-8"?>
<svg version="1.1" xmlns:xlink="http://www.w3.org/1999/xlink" width="12px" height="12px" viewBox="851 4762.5  12 12" xmlns="http://www.w3.org/2000/svg">
  <path d="M 857 4762.5  C 860.36 4762.5  863 4765.14  863 4768.5  C 863 4771.86  860.36 4774.5  857 4774.5  C 853.64 4774.5  851 4771.86  851 4768.5  C 851 4765.14  853.64 4762.5  857 4762.5  Z " fill-rule="nonzero" fill="#f0f0f0" stroke="none" />
  <path d="M 857 4763  C 860.08 4763  862.5 4765.42  862.5 4768.5  C 862.5 4771.58  860.08 4774  857 4774  C 853.92 4774  851.5 4771.58  851.5 4768.5  C 851.5 4765.42  853.92 4763  857 4763  Z " stroke-width="1" stroke="#797979" fill="none" />
  <path d="M 857 4771.5  C 855.32 4771.5  854 4770.18  854 4768.5  C 854 4766.82  855.32 4765.5  857 4765.5  C 858.68 4765.5  860 4766.82  860 4768.5  C 860 4770.18  858.68 4771.5  857 4771.5  " fill-rule="nonzero" fill="#797979" stroke="none" />
</svg>