<?xml version="1.0" encoding="utf-8"?>
<svg version="1.1" xmlns:xlink="http://www.w3.org/1999/xlink" width="12px" height="12px" viewBox="451 4805  12 12" xmlns="http://www.w3.org/2000/svg">
  <path d="M 451.5 4807  A 1.5 1.5 0 0 1 453 4805.5 L 461 4805.5  A 1.5 1.5 0 0 1 462.5 4807 L 462.5 4815  A 1.5 1.5 0 0 1 461 4816.5 L 453 4816.5  A 1.5 1.5 0 0 1 451.5 4815 L 451.5 4807  Z " fill-rule="nonzero" fill="#f0f0f0" stroke="none" />
  <path d="M 451.5 4807  A 1.5 1.5 0 0 1 453 4805.5 L 461 4805.5  A 1.5 1.5 0 0 1 462.5 4807 L 462.5 4815  A 1.5 1.5 0 0 1 461 4816.5 L 453 4816.5  A 1.5 1.5 0 0 1 451.5 4815 L 451.5 4807  Z " stroke-width="1" stroke="#797979" fill="none" />
  <path d="M 453.571428571429 4811  L 456.142857142857 4813.57142857143  " stroke-width="2.57142857142857" stroke="#797979" fill="none" />
  <path d="M 456.142857142857 4813.57142857143  L 460.428571428571 4807.57142857143  " stroke-width="2.57142857142857" stroke="#797979" fill="none" />
</svg>