<?xml version="1.0" encoding="utf-8"?>
<svg version="1.1" xmlns:xlink="http://www.w3.org/1999/xlink" width="12px" height="12px" viewBox="804 4762.5  12 12" xmlns="http://www.w3.org/2000/svg">
  <path d="M 810 4762.5  C 813.36 4762.5  816 4765.14  816 4768.5  C 816 4771.86  813.36 4774.5  810 4774.5  C 806.64 4774.5  804 4771.86  804 4768.5  C 804 4765.14  806.64 4762.5  810 4762.5  Z " fill-rule="nonzero" fill="#f0f0f0" stroke="none" />
  <path d="M 810 4763  C 813.08 4763  815.5 4765.42  815.5 4768.5  C 815.5 4771.58  813.08 4774  810 4774  C 806.92 4774  804.5 4771.58  804.5 4768.5  C 804.5 4765.42  806.92 4763  810 4763  Z " stroke-width="1" stroke="#797979" fill="none" />
  <path d="M 810 4771.5  C 808.32 4771.5  807 4770.18  807 4768.5  C 807 4766.82  808.32 4765.5  810 4765.5  C 811.68 4765.5  813 4766.82  813 4768.5  C 813 4770.18  811.68 4771.5  810 4771.5  " fill-rule="nonzero" fill="#797979" stroke="none" />
</svg>