<?xml version="1.0" encoding="utf-8"?>
<svg version="1.1" xmlns:xlink="http://www.w3.org/1999/xlink" width="12px" height="12px" viewBox="850 4807.5  12 12" xmlns="http://www.w3.org/2000/svg">
  <path d="M 856 4807.5  C 859.36 4807.5  862 4810.14  862 4813.5  C 862 4816.86  859.36 4819.5  856 4819.5  C 852.64 4819.5  850 4816.86  850 4813.5  C 850 4810.14  852.64 4807.5  856 4807.5  Z " fill-rule="nonzero" fill="#ffffff" stroke="none" />
  <path d="M 856 4808  C 859.08 4808  861.5 4810.42  861.5 4813.5  C 861.5 4816.58  859.08 4819  856 4819  C 852.92 4819  850.5 4816.58  850.5 4813.5  C 850.5 4810.42  852.92 4808  856 4808  Z " stroke-width="1" stroke="#797979" fill="none" />
  <path d="M 856 4816.5  C 854.32 4816.5  853 4815.18  853 4813.5  C 853 4811.82  854.32 4810.5  856 4810.5  C 857.68 4810.5  859 4811.82  859 4813.5  C 859 4815.18  857.68 4816.5  856 4816.5  " fill-rule="nonzero" fill="#797979" stroke="none" />
</svg>