<?xml version="1.0" encoding="utf-8"?>
<svg version="1.1" xmlns:xlink="http://www.w3.org/1999/xlink" width="12px" height="12px" viewBox="452 4720  12 12" xmlns="http://www.w3.org/2000/svg">
  <path d="M 452.5 4722  A 1.5 1.5 0 0 1 454 4720.5 L 462 4720.5  A 1.5 1.5 0 0 1 463.5 4722 L 463.5 4730  A 1.5 1.5 0 0 1 462 4731.5 L 454 4731.5  A 1.5 1.5 0 0 1 452.5 4730 L 452.5 4722  Z " fill-rule="nonzero" fill="#ffffff" stroke="none" />
  <path d="M 452.5 4722  A 1.5 1.5 0 0 1 454 4720.5 L 462 4720.5  A 1.5 1.5 0 0 1 463.5 4722 L 463.5 4730  A 1.5 1.5 0 0 1 462 4731.5 L 454 4731.5  A 1.5 1.5 0 0 1 452.5 4730 L 452.5 4722  Z " stroke-width="1" stroke="#797979" fill="none" />
  <path d="M 454.571428571429 4726  L 457.142857142857 4728.57142857143  " stroke-width="2.57142857142857" stroke="#797979" fill="none" />
  <path d="M 457.142857142857 4728.57142857143  L 461.428571428571 4722.57142857143  " stroke-width="2.57142857142857" stroke="#797979" fill="none" />
</svg>