<?xml version="1.0" encoding="utf-8"?>
<svg version="1.1" xmlns:xlink="http://www.w3.org/1999/xlink" width="12px" height="12px" viewBox="803 4807.5  12 12" xmlns="http://www.w3.org/2000/svg">
  <path d="M 809 4807.5  C 812.36 4807.5  815 4810.14  815 4813.5  C 815 4816.86  812.36 4819.5  809 4819.5  C 805.64 4819.5  803 4816.86  803 4813.5  C 803 4810.14  805.64 4807.5  809 4807.5  Z " fill-rule="nonzero" fill="#f0f0f0" stroke="none" />
  <path d="M 809 4808  C 812.08 4808  814.5 4810.42  814.5 4813.5  C 814.5 4816.58  812.08 4819  809 4819  C 805.92 4819  803.5 4816.58  803.5 4813.5  C 803.5 4810.42  805.92 4808  809 4808  Z " stroke-width="1" stroke="#797979" fill="none" />
  <path d="M 809 4816.5  C 807.32 4816.5  806 4815.18  806 4813.5  C 806 4811.82  807.32 4810.5  809 4810.5  C 810.68 4810.5  812 4811.82  812 4813.5  C 812 4815.18  810.68 4816.5  809 4816.5  " fill-rule="nonzero" fill="#797979" stroke="none" />
</svg>