<?xml version="1.0" encoding="utf-8"?>
<svg version="1.1" xmlns:xlink="http://www.w3.org/1999/xlink" width="12px" height="12px" viewBox="226 5174  12 12" xmlns="http://www.w3.org/2000/svg">
  <path d="M 226.5 5176  A 1.5 1.5 0 0 1 228 5174.5 L 236 5174.5  A 1.5 1.5 0 0 1 237.5 5176 L 237.5 5184  A 1.5 1.5 0 0 1 236 5185.5 L 228 5185.5  A 1.5 1.5 0 0 1 226.5 5184 L 226.5 5176  Z " fill-rule="nonzero" fill="#ffffff" stroke="none" />
  <path d="M 226.5 5176  A 1.5 1.5 0 0 1 228 5174.5 L 236 5174.5  A 1.5 1.5 0 0 1 237.5 5176 L 237.5 5184  A 1.5 1.5 0 0 1 236 5185.5 L 228 5185.5  A 1.5 1.5 0 0 1 226.5 5184 L 226.5 5176  Z " stroke-width="1" stroke="#797979" fill="none" />
</svg>