<?xml version="1.0" encoding="utf-8"?>
<svg version="1.1" xmlns:xlink="http://www.w3.org/1999/xlink" width="12px" height="12px" viewBox="848 4620  12 12" xmlns="http://www.w3.org/2000/svg">
  <path d="M 854 4620  C 857.36 4620  860 4622.64  860 4626  C 860 4629.36  857.36 4632  854 4632  C 850.64 4632  848 4629.36  848 4626  C 848 4622.64  850.64 4620  854 4620  Z " fill-rule="nonzero" fill="#f0f0f0" stroke="none" />
  <path d="M 854 4620.5  C 857.08 4620.5  859.5 4622.92  859.5 4626  C 859.5 4629.08  857.08 4631.5  854 4631.5  C 850.92 4631.5  848.5 4629.08  848.5 4626  C 848.5 4622.92  850.92 4620.5  854 4620.5  Z " stroke-width="1" stroke="#797979" fill="none" />
  <path d="M 854 4629  C 852.32 4629  851 4627.68  851 4626  C 851 4624.32  852.32 4623  854 4623  C 855.68 4623  857 4624.32  857 4626  C 857 4627.68  855.68 4629  854 4629  " fill-rule="nonzero" fill="#797979" stroke="none" />
</svg>