<?xml version="1.0" encoding="utf-8"?>
<svg version="1.1" xmlns:xlink="http://www.w3.org/1999/xlink" width="12px" height="12px" viewBox="805 5479.5  12 12" xmlns="http://www.w3.org/2000/svg">
  <path d="M 811 5479.5  C 814.36 5479.5  817 5482.14  817 5485.5  C 817 5488.86  814.36 5491.5  811 5491.5  C 807.64 5491.5  805 5488.86  805 5485.5  C 805 5482.14  807.64 5479.5  811 5479.5  Z " fill-rule="nonzero" fill="#ffffff" stroke="none" fill-opacity="0" />
  <path d="M 811 5480  C 814.08 5480  816.5 5482.42  816.5 5485.5  C 816.5 5488.58  814.08 5491  811 5491  C 807.92 5491  805.5 5488.58  805.5 5485.5  C 805.5 5482.42  807.92 5480  811 5480  Z " stroke-width="1" stroke="#797979" fill="none" />
  <path d="M 811 5488.5  C 809.32 5488.5  808 5487.18  808 5485.5  C 808 5483.82  809.32 5482.5  811 5482.5  C 812.68 5482.5  814 5483.82  814 5485.5  C 814 5487.18  812.68 5488.5  811 5488.5  " fill-rule="nonzero" fill="#797979" stroke="none" />
</svg>