<?xml version="1.0" encoding="utf-8"?>
<svg version="1.1" xmlns:xlink="http://www.w3.org/1999/xlink" width="12px" height="12px" viewBox="451 5477  12 12" xmlns="http://www.w3.org/2000/svg">
  <path d="M 451.5 5479  A 1.5 1.5 0 0 1 453 5477.5 L 461 5477.5  A 1.5 1.5 0 0 1 462.5 5479 L 462.5 5487  A 1.5 1.5 0 0 1 461 5488.5 L 453 5488.5  A 1.5 1.5 0 0 1 451.5 5487 L 451.5 5479  Z " fill-rule="nonzero" fill="#ffffff" stroke="none" fill-opacity="0" />
  <path d="M 451.5 5479  A 1.5 1.5 0 0 1 453 5477.5 L 461 5477.5  A 1.5 1.5 0 0 1 462.5 5479 L 462.5 5487  A 1.5 1.5 0 0 1 461 5488.5 L 453 5488.5  A 1.5 1.5 0 0 1 451.5 5487 L 451.5 5479  Z " stroke-width="1" stroke="#797979" fill="none" />
  <path d="M 453.571428571429 5483  L 456.142857142857 5485.57142857143  " stroke-width="2.57142857142857" stroke="#797979" fill="none" />
  <path d="M 456.142857142857 5485.57142857143  L 460.428571428571 5479.57142857143  " stroke-width="2.57142857142857" stroke="#797979" fill="none" />
</svg>