<?xml version="1.0" encoding="utf-8"?>
<svg version="1.1" xmlns:xlink="http://www.w3.org/1999/xlink" width="12px" height="12px" viewBox="451 5477  12 12" xmlns="http://www.w3.org/2000/svg">
  <path d="M 451.5 5479  A 1.5 1.5 0 0 1 453 5477.5 L 461 5477.5  A 1.5 1.5 0 0 1 462.5 5479 L 462.5 5487  A 1.5 1.5 0 0 1 461 5488.5 L 453 5488.5  A 1.5 1.5 0 0 1 451.5 5487 L 451.5 5479  Z " fill-rule="nonzero" fill="#f0f0f0" stroke="none" />
  <path d="M 451.5 5479  A 1.5 1.5 0 0 1 453 5477.5 L 461 5477.5  A 1.5 1.5 0 0 1 462.5 5479 L 462.5 5487  A 1.5 1.5 0 0 1 461 5488.5 L 453 5488.5  A 1.5 1.5 0 0 1 451.5 5487 L 451.5 5479  Z " stroke-width="1" stroke="#797979" fill="none" />
</svg>