<?xml version="1.0" encoding="utf-8"?>
<svg version="1.1" xmlns:xlink="http://www.w3.org/1999/xlink" width="12px" height="12px" viewBox="804 5520.5  12 12" xmlns="http://www.w3.org/2000/svg">
  <path d="M 810 5520.5  C 813.36 5520.5  816 5523.14  816 5526.5  C 816 5529.86  813.36 5532.5  810 5532.5  C 806.64 5532.5  804 5529.86  804 5526.5  C 804 5523.14  806.64 5520.5  810 5520.5  Z " fill-rule="nonzero" fill="#f0f0f0" stroke="none" />
  <path d="M 810 5521  C 813.08 5521  815.5 5523.42  815.5 5526.5  C 815.5 5529.58  813.08 5532  810 5532  C 806.92 5532  804.5 5529.58  804.5 5526.5  C 804.5 5523.42  806.92 5521  810 5521  Z " stroke-width="1" stroke="#797979" fill="none" />
  <path d="M 810 5529.5  C 808.32 5529.5  807 5528.18  807 5526.5  C 807 5524.82  808.32 5523.5  810 5523.5  C 811.68 5523.5  813 5524.82  813 5526.5  C 813 5528.18  811.68 5529.5  810 5529.5  " fill-rule="nonzero" fill="#797979" stroke="none" />
</svg>