<?xml version="1.0" encoding="utf-8"?>
<svg version="1.1" xmlns:xlink="http://www.w3.org/1999/xlink" width="12px" height="12px" viewBox="853 5186.5  12 12" xmlns="http://www.w3.org/2000/svg">
  <path d="M 859 5186.5  C 862.36 5186.5  865 5189.14  865 5192.5  C 865 5195.86  862.36 5198.5  859 5198.5  C 855.64 5198.5  853 5195.86  853 5192.5  C 853 5189.14  855.64 5186.5  859 5186.5  Z " fill-rule="nonzero" fill="#f0f0f0" stroke="none" />
  <path d="M 859 5187  C 862.08 5187  864.5 5189.42  864.5 5192.5  C 864.5 5195.58  862.08 5198  859 5198  C 855.92 5198  853.5 5195.58  853.5 5192.5  C 853.5 5189.42  855.92 5187  859 5187  Z " stroke-width="1" stroke="#797979" fill="none" />
  <path d="M 859 5195.5  C 857.32 5195.5  856 5194.18  856 5192.5  C 856 5190.82  857.32 5189.5  859 5189.5  C 860.68 5189.5  862 5190.82  862 5192.5  C 862 5194.18  860.68 5195.5  859 5195.5  " fill-rule="nonzero" fill="#797979" stroke="none" />
</svg>