<?xml version="1.0" encoding="utf-8"?>
<svg version="1.1" xmlns:xlink="http://www.w3.org/1999/xlink" width="12px" height="12px" viewBox="805 5227.5  12 12" xmlns="http://www.w3.org/2000/svg">
  <path d="M 811 5227.5  C 814.36 5227.5  817 5230.14  817 5233.5  C 817 5236.86  814.36 5239.5  811 5239.5  C 807.64 5239.5  805 5236.86  805 5233.5  C 805 5230.14  807.64 5227.5  811 5227.5  Z " fill-rule="nonzero" fill="#f0f0f0" stroke="none" />
  <path d="M 811 5228  C 814.08 5228  816.5 5230.42  816.5 5233.5  C 816.5 5236.58  814.08 5239  811 5239  C 807.92 5239  805.5 5236.58  805.5 5233.5  C 805.5 5230.42  807.92 5228  811 5228  Z " stroke-width="1" stroke="#797979" fill="none" />
  <path d="M 811 5236.5  C 809.32 5236.5  808 5235.18  808 5233.5  C 808 5231.82  809.32 5230.5  811 5230.5  C 812.68 5230.5  814 5231.82  814 5233.5  C 814 5235.18  812.68 5236.5  811 5236.5  " fill-rule="nonzero" fill="#797979" stroke="none" />
</svg>