<?xml version="1.0" encoding="utf-8"?>
<svg version="1.1" xmlns:xlink="http://www.w3.org/1999/xlink" width="12px" height="12px" viewBox="452 5184  12 12" xmlns="http://www.w3.org/2000/svg">
  <path d="M 452.5 5186  A 1.5 1.5 0 0 1 454 5184.5 L 462 5184.5  A 1.5 1.5 0 0 1 463.5 5186 L 463.5 5194  A 1.5 1.5 0 0 1 462 5195.5 L 454 5195.5  A 1.5 1.5 0 0 1 452.5 5194 L 452.5 5186  Z " fill-rule="nonzero" fill="#ffffff" stroke="none" fill-opacity="0" />
  <path d="M 452.5 5186  A 1.5 1.5 0 0 1 454 5184.5 L 462 5184.5  A 1.5 1.5 0 0 1 463.5 5186 L 463.5 5194  A 1.5 1.5 0 0 1 462 5195.5 L 454 5195.5  A 1.5 1.5 0 0 1 452.5 5194 L 452.5 5186  Z " stroke-width="1" stroke="#797979" fill="none" />
  <path d="M 454.571428571429 5190  L 457.142857142857 5192.57142857143  " stroke-width="2.57142857142857" stroke="#797979" fill="none" />
  <path d="M 457.142857142857 5192.57142857143  L 461.428571428571 5186.57142857143  " stroke-width="2.57142857142857" stroke="#797979" fill="none" />
</svg>