<?xml version="1.0" encoding="utf-8"?>
<svg version="1.1" xmlns:xlink="http://www.w3.org/1999/xlink" width="12px" height="12px" viewBox="852 5334.5  12 12" xmlns="http://www.w3.org/2000/svg">
  <path d="M 858 5334.5  C 861.36 5334.5  864 5337.14  864 5340.5  C 864 5343.86  861.36 5346.5  858 5346.5  C 854.64 5346.5  852 5343.86  852 5340.5  C 852 5337.14  854.64 5334.5  858 5334.5  Z " fill-rule="nonzero" fill="#ffffff" stroke="none" fill-opacity="0" />
  <path d="M 858 5335  C 861.08 5335  863.5 5337.42  863.5 5340.5  C 863.5 5343.58  861.08 5346  858 5346  C 854.92 5346  852.5 5343.58  852.5 5340.5  C 852.5 5337.42  854.92 5335  858 5335  Z " stroke-width="1" stroke="#797979" fill="none" />
  <path d="M 858 5343.5  C 856.32 5343.5  855 5342.18  855 5340.5  C 855 5338.82  856.32 5337.5  858 5337.5  C 859.68 5337.5  861 5338.82  861 5340.5  C 861 5342.18  859.68 5343.5  858 5343.5  " fill-rule="nonzero" fill="#797979" stroke="none" />
</svg>