<?xml version="1.0" encoding="utf-8"?>
<svg version="1.1" xmlns:xlink="http://www.w3.org/1999/xlink" width="12px" height="12px" viewBox="851 5375.5  12 12" xmlns="http://www.w3.org/2000/svg">
  <path d="M 857 5375.5  C 860.36 5375.5  863 5378.14  863 5381.5  C 863 5384.86  860.36 5387.5  857 5387.5  C 853.64 5387.5  851 5384.86  851 5381.5  C 851 5378.14  853.64 5375.5  857 5375.5  Z " fill-rule="nonzero" fill="#f0f0f0" stroke="none" />
  <path d="M 857 5376  C 860.08 5376  862.5 5378.42  862.5 5381.5  C 862.5 5384.58  860.08 5387  857 5387  C 853.92 5387  851.5 5384.58  851.5 5381.5  C 851.5 5378.42  853.92 5376  857 5376  Z " stroke-width="1" stroke="#797979" fill="none" />
  <path d="M 857 5384.5  C 855.32 5384.5  854 5383.18  854 5381.5  C 854 5379.82  855.32 5378.5  857 5378.5  C 858.68 5378.5  860 5379.82  860 5381.5  C 860 5383.18  858.68 5384.5  857 5384.5  " fill-rule="nonzero" fill="#797979" stroke="none" />
</svg>