<?xml version="1.0" encoding="utf-8"?>
<svg version="1.1" xmlns:xlink="http://www.w3.org/1999/xlink" width="12px" height="12px" viewBox="804 5375.5  12 12" xmlns="http://www.w3.org/2000/svg">
  <path d="M 810 5375.5  C 813.36 5375.5  816 5378.14  816 5381.5  C 816 5384.86  813.36 5387.5  810 5387.5  C 806.64 5387.5  804 5384.86  804 5381.5  C 804 5378.14  806.64 5375.5  810 5375.5  Z " fill-rule="nonzero" fill="#f0f0f0" stroke="none" />
  <path d="M 810 5376  C 813.08 5376  815.5 5378.42  815.5 5381.5  C 815.5 5384.58  813.08 5387  810 5387  C 806.92 5387  804.5 5384.58  804.5 5381.5  C 804.5 5378.42  806.92 5376  810 5376  Z " stroke-width="1" stroke="#797979" fill="none" />
  <path d="M 810 5384.5  C 808.32 5384.5  807 5383.18  807 5381.5  C 807 5379.82  808.32 5378.5  810 5378.5  C 811.68 5378.5  813 5379.82  813 5381.5  C 813 5383.18  811.68 5384.5  810 5384.5  " fill-rule="nonzero" fill="#797979" stroke="none" />
</svg>