<?xml version="1.0" encoding="utf-8"?>
<svg version="1.1" xmlns:xlink="http://www.w3.org/1999/xlink" width="12px" height="12px" viewBox="461 5615  12 12" xmlns="http://www.w3.org/2000/svg">
  <path d="M 461.5 5617  A 1.5 1.5 0 0 1 463 5615.5 L 471 5615.5  A 1.5 1.5 0 0 1 472.5 5617 L 472.5 5625  A 1.5 1.5 0 0 1 471 5626.5 L 463 5626.5  A 1.5 1.5 0 0 1 461.5 5625 L 461.5 5617  Z " fill-rule="nonzero" fill="#f0f0f0" stroke="none" />
  <path d="M 461.5 5617  A 1.5 1.5 0 0 1 463 5615.5 L 471 5615.5  A 1.5 1.5 0 0 1 472.5 5617 L 472.5 5625  A 1.5 1.5 0 0 1 471 5626.5 L 463 5626.5  A 1.5 1.5 0 0 1 461.5 5625 L 461.5 5617  Z " stroke-width="1" stroke="#797979" fill="none" />
  <path d="M 463.571428571429 5621  L 466.142857142857 5623.57142857143  " stroke-width="2.57142857142857" stroke="#797979" fill="none" />
  <path d="M 466.142857142857 5623.57142857143  L 470.428571428571 5617.57142857143  " stroke-width="2.57142857142857" stroke="#797979" fill="none" />
</svg>