<?xml version="1.0" encoding="utf-8"?>
<svg version="1.1" xmlns:xlink="http://www.w3.org/1999/xlink" width="12px" height="12px" viewBox="815 5617.5  12 12" xmlns="http://www.w3.org/2000/svg">
  <path d="M 821 5617.5  C 824.36 5617.5  827 5620.14  827 5623.5  C 827 5626.86  824.36 5629.5  821 5629.5  C 817.64 5629.5  815 5626.86  815 5623.5  C 815 5620.14  817.64 5617.5  821 5617.5  Z " fill-rule="nonzero" fill="#f0f0f0" stroke="none" />
  <path d="M 821 5618  C 824.08 5618  826.5 5620.42  826.5 5623.5  C 826.5 5626.58  824.08 5629  821 5629  C 817.92 5629  815.5 5626.58  815.5 5623.5  C 815.5 5620.42  817.92 5618  821 5618  Z " stroke-width="1" stroke="#797979" fill="none" />
  <path d="M 821 5626.5  C 819.32 5626.5  818 5625.18  818 5623.5  C 818 5621.82  819.32 5620.5  821 5620.5  C 822.68 5620.5  824 5621.82  824 5623.5  C 824 5625.18  822.68 5626.5  821 5626.5  " fill-rule="nonzero" fill="#797979" stroke="none" />
</svg>