<?xml version="1.0" encoding="utf-8"?>
<svg version="1.1" xmlns:xlink="http://www.w3.org/1999/xlink" width="12px" height="12px" viewBox="814 5658.5  12 12" xmlns="http://www.w3.org/2000/svg">
  <path d="M 820 5658.5  C 823.36 5658.5  826 5661.14  826 5664.5  C 826 5667.86  823.36 5670.5  820 5670.5  C 816.64 5670.5  814 5667.86  814 5664.5  C 814 5661.14  816.64 5658.5  820 5658.5  Z " fill-rule="nonzero" fill="#ffffff" stroke="none" fill-opacity="0" />
  <path d="M 820 5659  C 823.08 5659  825.5 5661.42  825.5 5664.5  C 825.5 5667.58  823.08 5670  820 5670  C 816.92 5670  814.5 5667.58  814.5 5664.5  C 814.5 5661.42  816.92 5659  820 5659  Z " stroke-width="1" stroke="#797979" fill="none" />
  <path d="M 820 5667.5  C 818.32 5667.5  817 5666.18  817 5664.5  C 817 5662.82  818.32 5661.5  820 5661.5  C 821.68 5661.5  823 5662.82  823 5664.5  C 823 5666.18  821.68 5667.5  820 5667.5  " fill-rule="nonzero" fill="#797979" stroke="none" />
</svg>