<?xml version="1.0" encoding="utf-8"?>
<svg version="1.1" xmlns:xlink="http://www.w3.org/1999/xlink" width="12px" height="12px" viewBox="862 5617.5  12 12" xmlns="http://www.w3.org/2000/svg">
  <path d="M 868 5617.5  C 871.36 5617.5  874 5620.14  874 5623.5  C 874 5626.86  871.36 5629.5  868 5629.5  C 864.64 5629.5  862 5626.86  862 5623.5  C 862 5620.14  864.64 5617.5  868 5617.5  Z " fill-rule="nonzero" fill="#ffffff" stroke="none" fill-opacity="0" />
  <path d="M 868 5618  C 871.08 5618  873.5 5620.42  873.5 5623.5  C 873.5 5626.58  871.08 5629  868 5629  C 864.92 5629  862.5 5626.58  862.5 5623.5  C 862.5 5620.42  864.92 5618  868 5618  Z " stroke-width="1" stroke="#797979" fill="none" />
  <path d="M 868 5626.5  C 866.32 5626.5  865 5625.18  865 5623.5  C 865 5621.82  866.32 5620.5  868 5620.5  C 869.68 5620.5  871 5621.82  871 5623.5  C 871 5625.18  869.68 5626.5  868 5626.5  " fill-rule="nonzero" fill="#797979" stroke="none" />
</svg>