<?xml version="1.0" encoding="utf-8"?>
<svg version="1.1" xmlns:xlink="http://www.w3.org/1999/xlink" width="12px" height="12px" viewBox="862 5759.5  12 12" xmlns="http://www.w3.org/2000/svg">
  <path d="M 868 5759.5  C 871.36 5759.5  874 5762.14  874 5765.5  C 874 5768.86  871.36 5771.5  868 5771.5  C 864.64 5771.5  862 5768.86  862 5765.5  C 862 5762.14  864.64 5759.5  868 5759.5  Z " fill-rule="nonzero" fill="#ffffff" stroke="none" fill-opacity="0" />
  <path d="M 868 5760  C 871.08 5760  873.5 5762.42  873.5 5765.5  C 873.5 5768.58  871.08 5771  868 5771  C 864.92 5771  862.5 5768.58  862.5 5765.5  C 862.5 5762.42  864.92 5760  868 5760  Z " stroke-width="1" stroke="#797979" fill="none" />
  <path d="M 868 5768.5  C 866.32 5768.5  865 5767.18  865 5765.5  C 865 5763.82  866.32 5762.5  868 5762.5  C 869.68 5762.5  871 5763.82  871 5765.5  C 871 5767.18  869.68 5768.5  868 5768.5  " fill-rule="nonzero" fill="#797979" stroke="none" />
</svg>