<?xml version="1.0" encoding="utf-8"?>
<svg version="1.1" xmlns:xlink="http://www.w3.org/1999/xlink" width="12px" height="12px" viewBox="814 5800.5  12 12" xmlns="http://www.w3.org/2000/svg">
  <path d="M 820 5800.5  C 823.36 5800.5  826 5803.14  826 5806.5  C 826 5809.86  823.36 5812.5  820 5812.5  C 816.64 5812.5  814 5809.86  814 5806.5  C 814 5803.14  816.64 5800.5  820 5800.5  Z " fill-rule="nonzero" fill="#ffffff" stroke="none" fill-opacity="0" />
  <path d="M 820 5801  C 823.08 5801  825.5 5803.42  825.5 5806.5  C 825.5 5809.58  823.08 5812  820 5812  C 816.92 5812  814.5 5809.58  814.5 5806.5  C 814.5 5803.42  816.92 5801  820 5801  Z " stroke-width="1" stroke="#797979" fill="none" />
  <path d="M 820 5809.5  C 818.32 5809.5  817 5808.18  817 5806.5  C 817 5804.82  818.32 5803.5  820 5803.5  C 821.68 5803.5  823 5804.82  823 5806.5  C 823 5808.18  821.68 5809.5  820 5809.5  " fill-rule="nonzero" fill="#797979" stroke="none" />
</svg>