<?xml version="1.0" encoding="utf-8"?>
<svg version="1.1" xmlns:xlink="http://www.w3.org/1999/xlink" width="12px" height="12px" viewBox="815 5891.5  12 12" xmlns="http://www.w3.org/2000/svg">
  <path d="M 821 5891.5  C 824.36 5891.5  827 5894.14  827 5897.5  C 827 5900.86  824.36 5903.5  821 5903.5  C 817.64 5903.5  815 5900.86  815 5897.5  C 815 5894.14  817.64 5891.5  821 5891.5  Z " fill-rule="nonzero" fill="#ffffff" stroke="none" fill-opacity="0" />
  <path d="M 821 5892  C 824.08 5892  826.5 5894.42  826.5 5897.5  C 826.5 5900.58  824.08 5903  821 5903  C 817.92 5903  815.5 5900.58  815.5 5897.5  C 815.5 5894.42  817.92 5892  821 5892  Z " stroke-width="1" stroke="#797979" fill="none" />
  <path d="M 821 5900.5  C 819.32 5900.5  818 5899.18  818 5897.5  C 818 5895.82  819.32 5894.5  821 5894.5  C 822.68 5894.5  824 5895.82  824 5897.5  C 824 5899.18  822.68 5900.5  821 5900.5  " fill-rule="nonzero" fill="#797979" stroke="none" />
</svg>