<?xml version="1.0" encoding="utf-8"?>
<svg version="1.1" xmlns:xlink="http://www.w3.org/1999/xlink" width="12px" height="12px" viewBox="460 5930  12 12" xmlns="http://www.w3.org/2000/svg">
  <path d="M 460.5 5932  A 1.5 1.5 0 0 1 462 5930.5 L 470 5930.5  A 1.5 1.5 0 0 1 471.5 5932 L 471.5 5940  A 1.5 1.5 0 0 1 470 5941.5 L 462 5941.5  A 1.5 1.5 0 0 1 460.5 5940 L 460.5 5932  Z " fill-rule="nonzero" fill="#ffffff" stroke="none" />
  <path d="M 460.5 5932  A 1.5 1.5 0 0 1 462 5930.5 L 470 5930.5  A 1.5 1.5 0 0 1 471.5 5932 L 471.5 5940  A 1.5 1.5 0 0 1 470 5941.5 L 462 5941.5  A 1.5 1.5 0 0 1 460.5 5940 L 460.5 5932  Z " stroke-width="1" stroke="#797979" fill="none" />
  <path d="M 462.571428571429 5936  L 465.142857142857 5938.57142857143  " stroke-width="2.57142857142857" stroke="#797979" fill="none" />
  <path d="M 465.142857142857 5938.57142857143  L 469.428571428571 5932.57142857143  " stroke-width="2.57142857142857" stroke="#797979" fill="none" />
</svg>