<?xml version="1.0" encoding="utf-8"?>
<svg version="1.1" xmlns:xlink="http://www.w3.org/1999/xlink" width="12px" height="12px" viewBox="861 5932.5  12 12" xmlns="http://www.w3.org/2000/svg">
  <path d="M 867 5932.5  C 870.36 5932.5  873 5935.14  873 5938.5  C 873 5941.86  870.36 5944.5  867 5944.5  C 863.64 5944.5  861 5941.86  861 5938.5  C 861 5935.14  863.64 5932.5  867 5932.5  Z " fill-rule="nonzero" fill="#f0f0f0" stroke="none" />
  <path d="M 867 5933  C 870.08 5933  872.5 5935.42  872.5 5938.5  C 872.5 5941.58  870.08 5944  867 5944  C 863.92 5944  861.5 5941.58  861.5 5938.5  C 861.5 5935.42  863.92 5933  867 5933  Z " stroke-width="1" stroke="#797979" fill="none" />
  <path d="M 867 5941.5  C 865.32 5941.5  864 5940.18  864 5938.5  C 864 5936.82  865.32 5935.5  867 5935.5  C 868.68 5935.5  870 5936.82  870 5938.5  C 870 5940.18  868.68 5941.5  867 5941.5  " fill-rule="nonzero" fill="#797979" stroke="none" />
</svg>