<?xml version="1.0" encoding="utf-8"?>
<svg version="1.1" xmlns:xlink="http://www.w3.org/1999/xlink" width="12px" height="12px" viewBox="814 5932.5  12 12" xmlns="http://www.w3.org/2000/svg">
  <path d="M 820 5932.5  C 823.36 5932.5  826 5935.14  826 5938.5  C 826 5941.86  823.36 5944.5  820 5944.5  C 816.64 5944.5  814 5941.86  814 5938.5  C 814 5935.14  816.64 5932.5  820 5932.5  Z " fill-rule="nonzero" fill="#ffffff" stroke="none" fill-opacity="0" />
  <path d="M 820 5933  C 823.08 5933  825.5 5935.42  825.5 5938.5  C 825.5 5941.58  823.08 5944  820 5944  C 816.92 5944  814.5 5941.58  814.5 5938.5  C 814.5 5935.42  816.92 5933  820 5933  Z " stroke-width="1" stroke="#797979" fill="none" />
  <path d="M 820 5941.5  C 818.32 5941.5  817 5940.18  817 5938.5  C 817 5936.82  818.32 5935.5  820 5935.5  C 821.68 5935.5  823 5936.82  823 5938.5  C 823 5940.18  821.68 5941.5  820 5941.5  " fill-rule="nonzero" fill="#797979" stroke="none" />
</svg>