<?xml version="1.0" encoding="utf-8"?>
<svg version="1.1" xmlns:xlink="http://www.w3.org/1999/xlink" width="12px" height="12px" viewBox="461 5889  12 12" xmlns="http://www.w3.org/2000/svg">
  <path d="M 461.5 5891  A 1.5 1.5 0 0 1 463 5889.5 L 471 5889.5  A 1.5 1.5 0 0 1 472.5 5891 L 472.5 5899  A 1.5 1.5 0 0 1 471 5900.5 L 463 5900.5  A 1.5 1.5 0 0 1 461.5 5899 L 461.5 5891  Z " fill-rule="nonzero" fill="#ffffff" stroke="none" fill-opacity="0" />
  <path d="M 461.5 5891  A 1.5 1.5 0 0 1 463 5889.5 L 471 5889.5  A 1.5 1.5 0 0 1 472.5 5891 L 472.5 5899  A 1.5 1.5 0 0 1 471 5900.5 L 463 5900.5  A 1.5 1.5 0 0 1 461.5 5899 L 461.5 5891  Z " stroke-width="1" stroke="#797979" fill="none" />
</svg>