<?xml version="1.0" encoding="utf-8"?>
<svg version="1.1" xmlns:xlink="http://www.w3.org/1999/xlink" width="12px" height="12px" viewBox="851 5062.5  12 12" xmlns="http://www.w3.org/2000/svg">
  <path d="M 857 5062.5  C 860.36 5062.5  863 5065.14  863 5068.5  C 863 5071.86  860.36 5074.5  857 5074.5  C 853.64 5074.5  851 5071.86  851 5068.5  C 851 5065.14  853.64 5062.5  857 5062.5  Z " fill-rule="nonzero" fill="#f2f2f2" stroke="none" />
  <path d="M 857 5063  C 860.08 5063  862.5 5065.42  862.5 5068.5  C 862.5 5071.58  860.08 5074  857 5074  C 853.92 5074  851.5 5071.58  851.5 5068.5  C 851.5 5065.42  853.92 5063  857 5063  Z " stroke-width="1" stroke="#797979" fill="none" />
  <path d="M 857 5071.5  C 855.32 5071.5  854 5070.18  854 5068.5  C 854 5066.82  855.32 5065.5  857 5065.5  C 858.68 5065.5  860 5066.82  860 5068.5  C 860 5070.18  858.68 5071.5  857 5071.5  " fill-rule="nonzero" fill="#797979" stroke="none" />
</svg>