<?xml version="1.0" encoding="utf-8"?>
<svg version="1.1" xmlns:xlink="http://www.w3.org/1999/xlink" width="12px" height="12px" viewBox="851 5092.5  12 12" xmlns="http://www.w3.org/2000/svg">
  <path d="M 857 5092.5  C 860.36 5092.5  863 5095.14  863 5098.5  C 863 5101.86  860.36 5104.5  857 5104.5  C 853.64 5104.5  851 5101.86  851 5098.5  C 851 5095.14  853.64 5092.5  857 5092.5  Z " fill-rule="nonzero" fill="#f0f0f0" stroke="none" />
  <path d="M 857 5093  C 860.08 5093  862.5 5095.42  862.5 5098.5  C 862.5 5101.58  860.08 5104  857 5104  C 853.92 5104  851.5 5101.58  851.5 5098.5  C 851.5 5095.42  853.92 5093  857 5093  Z " stroke-width="1" stroke="#797979" fill="none" />
  <path d="M 857 5101.5  C 855.32 5101.5  854 5100.18  854 5098.5  C 854 5096.82  855.32 5095.5  857 5095.5  C 858.68 5095.5  860 5096.82  860 5098.5  C 860 5100.18  858.68 5101.5  857 5101.5  " fill-rule="nonzero" fill="#797979" stroke="none" />
</svg>