<?xml version="1.0" encoding="utf-8"?>
<svg version="1.1" xmlns:xlink="http://www.w3.org/1999/xlink" width="12px" height="12px" viewBox="851 4429.5  12 12" xmlns="http://www.w3.org/2000/svg">
  <path d="M 857 4429.5  C 860.36 4429.5  863 4432.14  863 4435.5  C 863 4438.86  860.36 4441.5  857 4441.5  C 853.64 4441.5  851 4438.86  851 4435.5  C 851 4432.14  853.64 4429.5  857 4429.5  Z " fill-rule="nonzero" fill="#ffffff" stroke="none" />
  <path d="M 857 4430  C 860.08 4430  862.5 4432.42  862.5 4435.5  C 862.5 4438.58  860.08 4441  857 4441  C 853.92 4441  851.5 4438.58  851.5 4435.5  C 851.5 4432.42  853.92 4430  857 4430  Z " stroke-width="1" stroke="#797979" fill="none" />
  <path d="M 857 4438.5  C 855.32 4438.5  854 4437.18  854 4435.5  C 854 4433.82  855.32 4432.5  857 4432.5  C 858.68 4432.5  860 4433.82  860 4435.5  C 860 4437.18  858.68 4438.5  857 4438.5  " fill-rule="nonzero" fill="#797979" stroke="none" />
</svg>