<?xml version="1.0" encoding="utf-8"?>
<svg version="1.1" xmlns:xlink="http://www.w3.org/1999/xlink" width="12px" height="12px" viewBox="186 6184  12 12" xmlns="http://www.w3.org/2000/svg">
  <path d="M 186.5 6186  A 1.5 1.5 0 0 1 188 6184.5 L 196 6184.5  A 1.5 1.5 0 0 1 197.5 6186 L 197.5 6194  A 1.5 1.5 0 0 1 196 6195.5 L 188 6195.5  A 1.5 1.5 0 0 1 186.5 6194 L 186.5 6186  Z " fill-rule="nonzero" fill="#ffffff" stroke="none" />
  <path d="M 186.5 6186  A 1.5 1.5 0 0 1 188 6184.5 L 196 6184.5  A 1.5 1.5 0 0 1 197.5 6186 L 197.5 6194  A 1.5 1.5 0 0 1 196 6195.5 L 188 6195.5  A 1.5 1.5 0 0 1 186.5 6194 L 186.5 6186  Z " stroke-width="1" stroke="#797979" fill="none" />
  <path d="M 188.571428571429 6190  L 191.142857142857 6192.57142857143  " stroke-width="2.57142857142857" stroke="#797979" fill="none" />
  <path d="M 191.142857142857 6192.57142857143  L 195.428571428571 6186.57142857143  " stroke-width="2.57142857142857" stroke="#797979" fill="none" />
</svg>