<?xml version="1.0" encoding="utf-8"?>
<svg version="1.1" xmlns:xlink="http://www.w3.org/1999/xlink" width="12px" height="12px" viewBox="199 247  12 12" xmlns="http://www.w3.org/2000/svg">
  <path d="M 199.5 249  A 1.5 1.5 0 0 1 201 247.5 L 209 247.5  A 1.5 1.5 0 0 1 210.5 249 L 210.5 257  A 1.5 1.5 0 0 1 209 258.5 L 201 258.5  A 1.5 1.5 0 0 1 199.5 257 L 199.5 249  Z " fill-rule="nonzero" fill="#ffffff" stroke="none" />
  <path d="M 199.5 249  A 1.5 1.5 0 0 1 201 247.5 L 209 247.5  A 1.5 1.5 0 0 1 210.5 249 L 210.5 257  A 1.5 1.5 0 0 1 209 258.5 L 201 258.5  A 1.5 1.5 0 0 1 199.5 257 L 199.5 249  Z " stroke-width="1" stroke="#797979" fill="none" />
</svg>