<?xml version="1.0" encoding="utf-8"?>
<svg version="1.1" xmlns:xlink="http://www.w3.org/1999/xlink" width="12px" height="12px" viewBox="453 7931  12 12" xmlns="http://www.w3.org/2000/svg">
  <path d="M 453.5 7933  A 1.5 1.5 0 0 1 455 7931.5 L 463 7931.5  A 1.5 1.5 0 0 1 464.5 7933 L 464.5 7941  A 1.5 1.5 0 0 1 463 7942.5 L 455 7942.5  A 1.5 1.5 0 0 1 453.5 7941 L 453.5 7933  Z " fill-rule="nonzero" fill="#f0f0f0" stroke="none" />
  <path d="M 453.5 7933  A 1.5 1.5 0 0 1 455 7931.5 L 463 7931.5  A 1.5 1.5 0 0 1 464.5 7933 L 464.5 7941  A 1.5 1.5 0 0 1 463 7942.5 L 455 7942.5  A 1.5 1.5 0 0 1 453.5 7941 L 453.5 7933  Z " stroke-width="1" stroke="#797979" fill="none" />
</svg>