<?xml version="1.0" encoding="utf-8"?>
<svg version="1.1" xmlns:xlink="http://www.w3.org/1999/xlink" width="12px" height="12px" viewBox="806 7888.5  12 12" xmlns="http://www.w3.org/2000/svg">
  <path d="M 812 7888.5  C 815.36 7888.5  818 7891.14  818 7894.5  C 818 7897.86  815.36 7900.5  812 7900.5  C 808.64 7900.5  806 7897.86  806 7894.5  C 806 7891.14  808.64 7888.5  812 7888.5  Z " fill-rule="nonzero" fill="#f0f0f0" stroke="none" />
  <path d="M 812 7889  C 815.08 7889  817.5 7891.42  817.5 7894.5  C 817.5 7897.58  815.08 7900  812 7900  C 808.92 7900  806.5 7897.58  806.5 7894.5  C 806.5 7891.42  808.92 7889  812 7889  Z " stroke-width="1" stroke="#797979" fill="none" />
  <path d="M 812 7897.5  C 810.32 7897.5  809 7896.18  809 7894.5  C 809 7892.82  810.32 7891.5  812 7891.5  C 813.68 7891.5  815 7892.82  815 7894.5  C 815 7896.18  813.68 7897.5  812 7897.5  " fill-rule="nonzero" fill="#797979" stroke="none" />
</svg>