<?xml version="1.0" encoding="utf-8"?>
<svg version="1.1" xmlns:xlink="http://www.w3.org/1999/xlink" width="12px" height="12px" viewBox="853 7888.5  12 12" xmlns="http://www.w3.org/2000/svg">
  <path d="M 859 7888.5  C 862.36 7888.5  865 7891.14  865 7894.5  C 865 7897.86  862.36 7900.5  859 7900.5  C 855.64 7900.5  853 7897.86  853 7894.5  C 853 7891.14  855.64 7888.5  859 7888.5  Z " fill-rule="nonzero" fill="#ffffff" stroke="none" />
  <path d="M 859 7889  C 862.08 7889  864.5 7891.42  864.5 7894.5  C 864.5 7897.58  862.08 7900  859 7900  C 855.92 7900  853.5 7897.58  853.5 7894.5  C 853.5 7891.42  855.92 7889  859 7889  Z " stroke-width="1" stroke="#797979" fill="none" />
  <path d="M 859 7897.5  C 857.32 7897.5  856 7896.18  856 7894.5  C 856 7892.82  857.32 7891.5  859 7891.5  C 860.68 7891.5  862 7892.82  862 7894.5  C 862 7896.18  860.68 7897.5  859 7897.5  " fill-rule="nonzero" fill="#797979" stroke="none" />
</svg>