<?xml version="1.0" encoding="utf-8"?>
<svg version="1.1" xmlns:xlink="http://www.w3.org/1999/xlink" width="12px" height="12px" viewBox="852 7933.5  12 12" xmlns="http://www.w3.org/2000/svg">
  <path d="M 858 7933.5  C 861.36 7933.5  864 7936.14  864 7939.5  C 864 7942.86  861.36 7945.5  858 7945.5  C 854.64 7945.5  852 7942.86  852 7939.5  C 852 7936.14  854.64 7933.5  858 7933.5  Z " fill-rule="nonzero" fill="#ffffff" stroke="none" />
  <path d="M 858 7934  C 861.08 7934  863.5 7936.42  863.5 7939.5  C 863.5 7942.58  861.08 7945  858 7945  C 854.92 7945  852.5 7942.58  852.5 7939.5  C 852.5 7936.42  854.92 7934  858 7934  Z " stroke-width="1" stroke="#797979" fill="none" />
  <path d="M 858 7942.5  C 856.32 7942.5  855 7941.18  855 7939.5  C 855 7937.82  856.32 7936.5  858 7936.5  C 859.68 7936.5  861 7937.82  861 7939.5  C 861 7941.18  859.68 7942.5  858 7942.5  " fill-rule="nonzero" fill="#797979" stroke="none" />
</svg>