<?xml version="1.0" encoding="utf-8"?>
<svg version="1.1" xmlns:xlink="http://www.w3.org/1999/xlink" width="12px" height="12px" viewBox="805 7933.5  12 12" xmlns="http://www.w3.org/2000/svg">
  <path d="M 811 7933.5  C 814.36 7933.5  817 7936.14  817 7939.5  C 817 7942.86  814.36 7945.5  811 7945.5  C 807.64 7945.5  805 7942.86  805 7939.5  C 805 7936.14  807.64 7933.5  811 7933.5  Z " fill-rule="nonzero" fill="#f0f0f0" stroke="none" />
  <path d="M 811 7934  C 814.08 7934  816.5 7936.42  816.5 7939.5  C 816.5 7942.58  814.08 7945  811 7945  C 807.92 7945  805.5 7942.58  805.5 7939.5  C 805.5 7936.42  807.92 7934  811 7934  Z " stroke-width="1" stroke="#797979" fill="none" />
  <path d="M 811 7942.5  C 809.32 7942.5  808 7941.18  808 7939.5  C 808 7937.82  809.32 7936.5  811 7936.5  C 812.68 7936.5  814 7937.82  814 7939.5  C 814 7941.18  812.68 7942.5  811 7942.5  " fill-rule="nonzero" fill="#797979" stroke="none" />
</svg>