<?xml version="1.0" encoding="utf-8"?>
<svg version="1.1" xmlns:xlink="http://www.w3.org/1999/xlink" width="12px" height="12px" viewBox="211 7924  12 12" xmlns="http://www.w3.org/2000/svg">
  <path d="M 211.5 7926  A 1.5 1.5 0 0 1 213 7924.5 L 221 7924.5  A 1.5 1.5 0 0 1 222.5 7926 L 222.5 7934  A 1.5 1.5 0 0 1 221 7935.5 L 213 7935.5  A 1.5 1.5 0 0 1 211.5 7934 L 211.5 7926  Z " fill-rule="nonzero" fill="#f0f0f0" stroke="none" />
  <path d="M 211.5 7926  A 1.5 1.5 0 0 1 213 7924.5 L 221 7924.5  A 1.5 1.5 0 0 1 222.5 7926 L 222.5 7934  A 1.5 1.5 0 0 1 221 7935.5 L 213 7935.5  A 1.5 1.5 0 0 1 211.5 7934 L 211.5 7926  Z " stroke-width="1" stroke="#797979" fill="none" />
  <path d="M 213.571428571429 7930  L 216.142857142857 7932.57142857143  " stroke-width="2.57142857142857" stroke="#797979" fill="none" />
  <path d="M 216.142857142857 7932.57142857143  L 220.428571428571 7926.57142857143  " stroke-width="2.57142857142857" stroke="#797979" fill="none" />
</svg>