<?xml version="1.0" encoding="utf-8"?>
<svg version="1.1" xmlns:xlink="http://www.w3.org/1999/xlink" width="12px" height="12px" viewBox="452 7970  12 12" xmlns="http://www.w3.org/2000/svg">
  <path d="M 452.5 7972  A 1.5 1.5 0 0 1 454 7970.5 L 462 7970.5  A 1.5 1.5 0 0 1 463.5 7972 L 463.5 7980  A 1.5 1.5 0 0 1 462 7981.5 L 454 7981.5  A 1.5 1.5 0 0 1 452.5 7980 L 452.5 7972  Z " fill-rule="nonzero" fill="#ffffff" stroke="none" />
  <path d="M 452.5 7972  A 1.5 1.5 0 0 1 454 7970.5 L 462 7970.5  A 1.5 1.5 0 0 1 463.5 7972 L 463.5 7980  A 1.5 1.5 0 0 1 462 7981.5 L 454 7981.5  A 1.5 1.5 0 0 1 452.5 7980 L 452.5 7972  Z " stroke-width="1" stroke="#797979" fill="none" />
  <path d="M 454.571428571429 7976  L 457.142857142857 7978.57142857143  " stroke-width="2.57142857142857" stroke="#797979" fill="none" />
  <path d="M 457.142857142857 7978.57142857143  L 461.428571428571 7972.57142857143  " stroke-width="2.57142857142857" stroke="#797979" fill="none" />
</svg>