<?xml version="1.0" encoding="utf-8"?>
<svg version="1.1" xmlns:xlink="http://www.w3.org/1999/xlink" width="12px" height="12px" viewBox="453 8015  12 12" xmlns="http://www.w3.org/2000/svg">
  <path d="M 453.5 8017  A 1.5 1.5 0 0 1 455 8015.5 L 463 8015.5  A 1.5 1.5 0 0 1 464.5 8017 L 464.5 8025  A 1.5 1.5 0 0 1 463 8026.5 L 455 8026.5  A 1.5 1.5 0 0 1 453.5 8025 L 453.5 8017  Z " fill-rule="nonzero" fill="#f0f0f0" stroke="none" />
  <path d="M 453.5 8017  A 1.5 1.5 0 0 1 455 8015.5 L 463 8015.5  A 1.5 1.5 0 0 1 464.5 8017 L 464.5 8025  A 1.5 1.5 0 0 1 463 8026.5 L 455 8026.5  A 1.5 1.5 0 0 1 453.5 8025 L 453.5 8017  Z " stroke-width="1" stroke="#797979" fill="none" />
  <path d="M 455.571428571429 8021  L 458.142857142857 8023.57142857143  " stroke-width="2.57142857142857" stroke="#797979" fill="none" />
  <path d="M 458.142857142857 8023.57142857143  L 462.428571428571 8017.57142857143  " stroke-width="2.57142857142857" stroke="#797979" fill="none" />
</svg>