<?xml version="1.0" encoding="utf-8"?>
<svg version="1.1" xmlns:xlink="http://www.w3.org/1999/xlink" width="12px" height="12px" viewBox="852 8017.5  12 12" xmlns="http://www.w3.org/2000/svg">
  <path d="M 858 8017.5  C 861.36 8017.5  864 8020.14  864 8023.5  C 864 8026.86  861.36 8029.5  858 8029.5  C 854.64 8029.5  852 8026.86  852 8023.5  C 852 8020.14  854.64 8017.5  858 8017.5  Z " fill-rule="nonzero" fill="#ffffff" stroke="none" />
  <path d="M 858 8018  C 861.08 8018  863.5 8020.42  863.5 8023.5  C 863.5 8026.58  861.08 8029  858 8029  C 854.92 8029  852.5 8026.58  852.5 8023.5  C 852.5 8020.42  854.92 8018  858 8018  Z " stroke-width="1" stroke="#797979" fill="none" />
  <path d="M 858 8026.5  C 856.32 8026.5  855 8025.18  855 8023.5  C 855 8021.82  856.32 8020.5  858 8020.5  C 859.68 8020.5  861 8021.82  861 8023.5  C 861 8025.18  859.68 8026.5  858 8026.5  " fill-rule="nonzero" fill="#797979" stroke="none" />
</svg>