<?xml version="1.0" encoding="utf-8"?>
<svg version="1.1" xmlns:xlink="http://www.w3.org/1999/xlink" width="12px" height="12px" viewBox="854 8992.5  12 12" xmlns="http://www.w3.org/2000/svg">
  <path d="M 860 8992.5  C 863.36 8992.5  866 8995.14  866 8998.5  C 866 9001.86  863.36 9004.5  860 9004.5  C 856.64 9004.5  854 9001.86  854 8998.5  C 854 8995.14  856.64 8992.5  860 8992.5  Z " fill-rule="nonzero" fill="#f0f0f0" stroke="none" />
  <path d="M 860 8993  C 863.08 8993  865.5 8995.42  865.5 8998.5  C 865.5 9001.58  863.08 9004  860 9004  C 856.92 9004  854.5 9001.58  854.5 8998.5  C 854.5 8995.42  856.92 8993  860 8993  Z " stroke-width="1" stroke="#797979" fill="none" />
  <path d="M 860 9001.5  C 858.32 9001.5  857 9000.18  857 8998.5  C 857 8996.82  858.32 8995.5  860 8995.5  C 861.68 8995.5  863 8996.82  863 8998.5  C 863 9000.18  861.68 9001.5  860 9001.5  " fill-rule="nonzero" fill="#797979" stroke="none" />
</svg>