<?xml version="1.0" encoding="utf-8"?>
<svg version="1.1" xmlns:xlink="http://www.w3.org/1999/xlink" width="12px" height="12px" viewBox="807 8992.5  12 12" xmlns="http://www.w3.org/2000/svg">
  <path d="M 813 8992.5  C 816.36 8992.5  819 8995.14  819 8998.5  C 819 9001.86  816.36 9004.5  813 9004.5  C 809.64 9004.5  807 9001.86  807 8998.5  C 807 8995.14  809.64 8992.5  813 8992.5  Z " fill-rule="nonzero" fill="#ffffff" stroke="none" />
  <path d="M 813 8993  C 816.08 8993  818.5 8995.42  818.5 8998.5  C 818.5 9001.58  816.08 9004  813 9004  C 809.92 9004  807.5 9001.58  807.5 8998.5  C 807.5 8995.42  809.92 8993  813 8993  Z " stroke-width="1" stroke="#797979" fill="none" />
  <path d="M 813 9001.5  C 811.32 9001.5  810 9000.18  810 8998.5  C 810 8996.82  811.32 8995.5  813 8995.5  C 814.68 8995.5  816 8996.82  816 8998.5  C 816 9000.18  814.68 9001.5  813 9001.5  " fill-rule="nonzero" fill="#797979" stroke="none" />
</svg>