<?xml version="1.0" encoding="utf-8"?>
<svg version="1.1" xmlns:xlink="http://www.w3.org/1999/xlink" width="12px" height="12px" viewBox="805 8017.5  12 12" xmlns="http://www.w3.org/2000/svg">
  <path d="M 811 8017.5  C 814.36 8017.5  817 8020.14  817 8023.5  C 817 8026.86  814.36 8029.5  811 8029.5  C 807.64 8029.5  805 8026.86  805 8023.5  C 805 8020.14  807.64 8017.5  811 8017.5  Z " fill-rule="nonzero" fill="#f0f0f0" stroke="none" />
  <path d="M 811 8018  C 814.08 8018  816.5 8020.42  816.5 8023.5  C 816.5 8026.58  814.08 8029  811 8029  C 807.92 8029  805.5 8026.58  805.5 8023.5  C 805.5 8020.42  807.92 8018  811 8018  Z " stroke-width="1" stroke="#797979" fill="none" />
  <path d="M 811 8026.5  C 809.32 8026.5  808 8025.18  808 8023.5  C 808 8021.82  809.32 8020.5  811 8020.5  C 812.68 8020.5  814 8021.82  814 8023.5  C 814 8025.18  812.68 8026.5  811 8026.5  " fill-rule="nonzero" fill="#797979" stroke="none" />
</svg>