<?xml version="1.0" encoding="utf-8"?>
<svg version="1.1" xmlns:xlink="http://www.w3.org/1999/xlink" width="12px" height="12px" viewBox="806 9077.5  12 12" xmlns="http://www.w3.org/2000/svg">
  <path d="M 812 9077.5  C 815.36 9077.5  818 9080.14  818 9083.5  C 818 9086.86  815.36 9089.5  812 9089.5  C 808.64 9089.5  806 9086.86  806 9083.5  C 806 9080.14  808.64 9077.5  812 9077.5  Z " fill-rule="nonzero" fill="#ffffff" stroke="none" />
  <path d="M 812 9078  C 815.08 9078  817.5 9080.42  817.5 9083.5  C 817.5 9086.58  815.08 9089  812 9089  C 808.92 9089  806.5 9086.58  806.5 9083.5  C 806.5 9080.42  808.92 9078  812 9078  Z " stroke-width="1" stroke="#797979" fill="none" />
  <path d="M 812 9086.5  C 810.32 9086.5  809 9085.18  809 9083.5  C 809 9081.82  810.32 9080.5  812 9080.5  C 813.68 9080.5  815 9081.82  815 9083.5  C 815 9085.18  813.68 9086.5  812 9086.5  " fill-rule="nonzero" fill="#797979" stroke="none" />
</svg>