<?xml version="1.0" encoding="utf-8"?>
<svg version="1.1" xmlns:xlink="http://www.w3.org/1999/xlink" width="12px" height="12px" viewBox="853 9077.5  12 12" xmlns="http://www.w3.org/2000/svg">
  <path d="M 859 9077.5  C 862.36 9077.5  865 9080.14  865 9083.5  C 865 9086.86  862.36 9089.5  859 9089.5  C 855.64 9089.5  853 9086.86  853 9083.5  C 853 9080.14  855.64 9077.5  859 9077.5  Z " fill-rule="nonzero" fill="#ffffff" stroke="none" />
  <path d="M 859 9078  C 862.08 9078  864.5 9080.42  864.5 9083.5  C 864.5 9086.58  862.08 9089  859 9089  C 855.92 9089  853.5 9086.58  853.5 9083.5  C 853.5 9080.42  855.92 9078  859 9078  Z " stroke-width="1" stroke="#797979" fill="none" />
  <path d="M 859 9086.5  C 857.32 9086.5  856 9085.18  856 9083.5  C 856 9081.82  857.32 9080.5  859 9080.5  C 860.68 9080.5  862 9081.82  862 9083.5  C 862 9085.18  860.68 9086.5  859 9086.5  " fill-rule="nonzero" fill="#797979" stroke="none" />
</svg>