<?xml version="1.0" encoding="utf-8"?>
<svg version="1.1" xmlns:xlink="http://www.w3.org/1999/xlink" width="12px" height="12px" viewBox="454 9075  12 12" xmlns="http://www.w3.org/2000/svg">
  <path d="M 454.5 9077  A 1.5 1.5 0 0 1 456 9075.5 L 464 9075.5  A 1.5 1.5 0 0 1 465.5 9077 L 465.5 9085  A 1.5 1.5 0 0 1 464 9086.5 L 456 9086.5  A 1.5 1.5 0 0 1 454.5 9085 L 454.5 9077  Z " fill-rule="nonzero" fill="#ffffff" stroke="none" />
  <path d="M 454.5 9077  A 1.5 1.5 0 0 1 456 9075.5 L 464 9075.5  A 1.5 1.5 0 0 1 465.5 9077 L 465.5 9085  A 1.5 1.5 0 0 1 464 9086.5 L 456 9086.5  A 1.5 1.5 0 0 1 454.5 9085 L 454.5 9077  Z " stroke-width="1" stroke="#797979" fill="none" />
  <path d="M 456.571428571429 9081  L 459.142857142857 9083.57142857143  " stroke-width="2.57142857142857" stroke="#797979" fill="none" />
  <path d="M 459.142857142857 9083.57142857143  L 463.428571428571 9077.57142857143  " stroke-width="2.57142857142857" stroke="#797979" fill="none" />
</svg>