<?xml version="1.0" encoding="utf-8"?>
<svg version="1.1" xmlns:xlink="http://www.w3.org/1999/xlink" width="12px" height="12px" viewBox="807 9032.5  12 12" xmlns="http://www.w3.org/2000/svg">
  <path d="M 813 9032.5  C 816.36 9032.5  819 9035.14  819 9038.5  C 819 9041.86  816.36 9044.5  813 9044.5  C 809.64 9044.5  807 9041.86  807 9038.5  C 807 9035.14  809.64 9032.5  813 9032.5  Z " fill-rule="nonzero" fill="#ffffff" stroke="none" />
  <path d="M 813 9033  C 816.08 9033  818.5 9035.42  818.5 9038.5  C 818.5 9041.58  816.08 9044  813 9044  C 809.92 9044  807.5 9041.58  807.5 9038.5  C 807.5 9035.42  809.92 9033  813 9033  Z " stroke-width="1" stroke="#797979" fill="none" />
  <path d="M 813 9041.5  C 811.32 9041.5  810 9040.18  810 9038.5  C 810 9036.82  811.32 9035.5  813 9035.5  C 814.68 9035.5  816 9036.82  816 9038.5  C 816 9040.18  814.68 9041.5  813 9041.5  " fill-rule="nonzero" fill="#797979" stroke="none" />
</svg>