<?xml version="1.0" encoding="utf-8"?>
<svg version="1.1" xmlns:xlink="http://www.w3.org/1999/xlink" width="12px" height="12px" viewBox="455 8990  12 12" xmlns="http://www.w3.org/2000/svg">
  <path d="M 455.5 8992  A 1.5 1.5 0 0 1 457 8990.5 L 465 8990.5  A 1.5 1.5 0 0 1 466.5 8992 L 466.5 9000  A 1.5 1.5 0 0 1 465 9001.5 L 457 9001.5  A 1.5 1.5 0 0 1 455.5 9000 L 455.5 8992  Z " fill-rule="nonzero" fill="#ffffff" stroke="none" />
  <path d="M 455.5 8992  A 1.5 1.5 0 0 1 457 8990.5 L 465 8990.5  A 1.5 1.5 0 0 1 466.5 8992 L 466.5 9000  A 1.5 1.5 0 0 1 465 9001.5 L 457 9001.5  A 1.5 1.5 0 0 1 455.5 9000 L 455.5 8992  Z " stroke-width="1" stroke="#797979" fill="none" />
  <path d="M 457.571428571429 8996  L 460.142857142857 8998.57142857143  " stroke-width="2.57142857142857" stroke="#797979" fill="none" />
  <path d="M 460.142857142857 8998.57142857143  L 464.428571428571 8992.57142857143  " stroke-width="2.57142857142857" stroke="#797979" fill="none" />
</svg>