<?xml version="1.0" encoding="utf-8"?>
<svg version="1.1" xmlns:xlink="http://www.w3.org/1999/xlink" width="12px" height="12px" viewBox="453 9030  12 12" xmlns="http://www.w3.org/2000/svg">
  <path d="M 453.5 9032  A 1.5 1.5 0 0 1 455 9030.5 L 463 9030.5  A 1.5 1.5 0 0 1 464.5 9032 L 464.5 9040  A 1.5 1.5 0 0 1 463 9041.5 L 455 9041.5  A 1.5 1.5 0 0 1 453.5 9040 L 453.5 9032  Z " fill-rule="nonzero" fill="#f0f0f0" stroke="none" />
  <path d="M 453.5 9032  A 1.5 1.5 0 0 1 455 9030.5 L 463 9030.5  A 1.5 1.5 0 0 1 464.5 9032 L 464.5 9040  A 1.5 1.5 0 0 1 463 9041.5 L 455 9041.5  A 1.5 1.5 0 0 1 453.5 9040 L 453.5 9032  Z " stroke-width="1" stroke="#797979" fill="none" />
  <path d="M 455.571428571429 9036  L 458.142857142857 9038.57142857143  " stroke-width="2.57142857142857" stroke="#797979" fill="none" />
  <path d="M 458.142857142857 9038.57142857143  L 462.428571428571 9032.57142857143  " stroke-width="2.57142857142857" stroke="#797979" fill="none" />
</svg>