<?xml version="1.0" encoding="utf-8"?>
<svg version="1.1" xmlns:xlink="http://www.w3.org/1999/xlink" width="12px" height="12px" viewBox="854 9032.5  12 12" xmlns="http://www.w3.org/2000/svg">
  <path d="M 860 9032.5  C 863.36 9032.5  866 9035.14  866 9038.5  C 866 9041.86  863.36 9044.5  860 9044.5  C 856.64 9044.5  854 9041.86  854 9038.5  C 854 9035.14  856.64 9032.5  860 9032.5  Z " fill-rule="nonzero" fill="#ffffff" stroke="none" />
  <path d="M 860 9033  C 863.08 9033  865.5 9035.42  865.5 9038.5  C 865.5 9041.58  863.08 9044  860 9044  C 856.92 9044  854.5 9041.58  854.5 9038.5  C 854.5 9035.42  856.92 9033  860 9033  Z " stroke-width="1" stroke="#797979" fill="none" />
  <path d="M 860 9041.5  C 858.32 9041.5  857 9040.18  857 9038.5  C 857 9036.82  858.32 9035.5  860 9035.5  C 861.68 9035.5  863 9036.82  863 9038.5  C 863 9040.18  861.68 9041.5  860 9041.5  " fill-rule="nonzero" fill="#797979" stroke="none" />
</svg>