<?xml version="1.0" encoding="utf-8"?>
<svg version="1.1" xmlns:xlink="http://www.w3.org/1999/xlink" width="12px" height="12px" viewBox="212 9068  12 12" xmlns="http://www.w3.org/2000/svg">
  <path d="M 212.5 9070  A 1.5 1.5 0 0 1 214 9068.5 L 222 9068.5  A 1.5 1.5 0 0 1 223.5 9070 L 223.5 9078  A 1.5 1.5 0 0 1 222 9079.5 L 214 9079.5  A 1.5 1.5 0 0 1 212.5 9078 L 212.5 9070  Z " fill-rule="nonzero" fill="#f0f0f0" stroke="none" />
  <path d="M 212.5 9070  A 1.5 1.5 0 0 1 214 9068.5 L 222 9068.5  A 1.5 1.5 0 0 1 223.5 9070 L 223.5 9078  A 1.5 1.5 0 0 1 222 9079.5 L 214 9079.5  A 1.5 1.5 0 0 1 212.5 9078 L 212.5 9070  Z " stroke-width="1" stroke="#797979" fill="none" />
  <path d="M 214.571428571429 9074  L 217.142857142857 9076.57142857143  " stroke-width="2.57142857142857" stroke="#797979" fill="none" />
  <path d="M 217.142857142857 9076.57142857143  L 221.428571428571 9070.57142857143  " stroke-width="2.57142857142857" stroke="#797979" fill="none" />
</svg>