<?xml version="1.0" encoding="utf-8"?>
<svg version="1.1" xmlns:xlink="http://www.w3.org/1999/xlink" width="12px" height="12px" viewBox="453 9114  12 12" xmlns="http://www.w3.org/2000/svg">
  <path d="M 453.5 9116  A 1.5 1.5 0 0 1 455 9114.5 L 463 9114.5  A 1.5 1.5 0 0 1 464.5 9116 L 464.5 9124  A 1.5 1.5 0 0 1 463 9125.5 L 455 9125.5  A 1.5 1.5 0 0 1 453.5 9124 L 453.5 9116  Z " fill-rule="nonzero" fill="#ffffff" stroke="none" />
  <path d="M 453.5 9116  A 1.5 1.5 0 0 1 455 9114.5 L 463 9114.5  A 1.5 1.5 0 0 1 464.5 9116 L 464.5 9124  A 1.5 1.5 0 0 1 463 9125.5 L 455 9125.5  A 1.5 1.5 0 0 1 453.5 9124 L 453.5 9116  Z " stroke-width="1" stroke="#797979" fill="none" />
</svg>