<?xml version="1.0" encoding="utf-8"?>
<svg version="1.1" xmlns:xlink="http://www.w3.org/1999/xlink" width="12px" height="12px" viewBox="807 9212.5  12 12" xmlns="http://www.w3.org/2000/svg">
  <path d="M 813 9212.5  C 816.36 9212.5  819 9215.14  819 9218.5  C 819 9221.86  816.36 9224.5  813 9224.5  C 809.64 9224.5  807 9221.86  807 9218.5  C 807 9215.14  809.64 9212.5  813 9212.5  Z " fill-rule="nonzero" fill="#f0f0f0" stroke="none" />
  <path d="M 813 9213  C 816.08 9213  818.5 9215.42  818.5 9218.5  C 818.5 9221.58  816.08 9224  813 9224  C 809.92 9224  807.5 9221.58  807.5 9218.5  C 807.5 9215.42  809.92 9213  813 9213  Z " stroke-width="1" stroke="#797979" fill="none" />
  <path d="M 813 9221.5  C 811.32 9221.5  810 9220.18  810 9218.5  C 810 9216.82  811.32 9215.5  813 9215.5  C 814.68 9215.5  816 9216.82  816 9218.5  C 816 9220.18  814.68 9221.5  813 9221.5  " fill-rule="nonzero" fill="#797979" stroke="none" />
</svg>