<?xml version="1.0" encoding="utf-8"?>
<svg version="1.1" xmlns:xlink="http://www.w3.org/1999/xlink" width="12px" height="12px" viewBox="454 9159  12 12" xmlns="http://www.w3.org/2000/svg">
  <path d="M 454.5 9161  A 1.5 1.5 0 0 1 456 9159.5 L 464 9159.5  A 1.5 1.5 0 0 1 465.5 9161 L 465.5 9169  A 1.5 1.5 0 0 1 464 9170.5 L 456 9170.5  A 1.5 1.5 0 0 1 454.5 9169 L 454.5 9161  Z " fill-rule="nonzero" fill="#f0f0f0" stroke="none" />
  <path d="M 454.5 9161  A 1.5 1.5 0 0 1 456 9159.5 L 464 9159.5  A 1.5 1.5 0 0 1 465.5 9161 L 465.5 9169  A 1.5 1.5 0 0 1 464 9170.5 L 456 9170.5  A 1.5 1.5 0 0 1 454.5 9169 L 454.5 9161  Z " stroke-width="1" stroke="#797979" fill="none" />
</svg>