<?xml version="1.0" encoding="utf-8"?>
<svg version="1.1" xmlns:xlink="http://www.w3.org/1999/xlink" width="12px" height="12px" viewBox="853 9161.5  12 12" xmlns="http://www.w3.org/2000/svg">
  <path d="M 859 9161.5  C 862.36 9161.5  865 9164.14  865 9167.5  C 865 9170.86  862.36 9173.5  859 9173.5  C 855.64 9173.5  853 9170.86  853 9167.5  C 853 9164.14  855.64 9161.5  859 9161.5  Z " fill-rule="nonzero" fill="#ffffff" stroke="none" />
  <path d="M 859 9162  C 862.08 9162  864.5 9164.42  864.5 9167.5  C 864.5 9170.58  862.08 9173  859 9173  C 855.92 9173  853.5 9170.58  853.5 9167.5  C 853.5 9164.42  855.92 9162  859 9162  Z " stroke-width="1" stroke="#797979" fill="none" />
  <path d="M 859 9170.5  C 857.32 9170.5  856 9169.18  856 9167.5  C 856 9165.82  857.32 9164.5  859 9164.5  C 860.68 9164.5  862 9165.82  862 9167.5  C 862 9169.18  860.68 9170.5  859 9170.5  " fill-rule="nonzero" fill="#797979" stroke="none" />
</svg>