<?xml version="1.0" encoding="utf-8"?>
<svg version="1.1" xmlns:xlink="http://www.w3.org/1999/xlink" width="12px" height="12px" viewBox="853 9297.5  12 12" xmlns="http://www.w3.org/2000/svg">
  <path d="M 859 9297.5  C 862.36 9297.5  865 9300.14  865 9303.5  C 865 9306.86  862.36 9309.5  859 9309.5  C 855.64 9309.5  853 9306.86  853 9303.5  C 853 9300.14  855.64 9297.5  859 9297.5  Z " fill-rule="nonzero" fill="#f0f0f0" stroke="none" />
  <path d="M 859 9298  C 862.08 9298  864.5 9300.42  864.5 9303.5  C 864.5 9306.58  862.08 9309  859 9309  C 855.92 9309  853.5 9306.58  853.5 9303.5  C 853.5 9300.42  855.92 9298  859 9298  Z " stroke-width="1" stroke="#797979" fill="none" />
  <path d="M 859 9306.5  C 857.32 9306.5  856 9305.18  856 9303.5  C 856 9301.82  857.32 9300.5  859 9300.5  C 860.68 9300.5  862 9301.82  862 9303.5  C 862 9305.18  860.68 9306.5  859 9306.5  " fill-rule="nonzero" fill="#797979" stroke="none" />
</svg>