<?xml version="1.0" encoding="utf-8"?>
<svg version="1.1" xmlns:xlink="http://www.w3.org/1999/xlink" width="12px" height="12px" viewBox="854 9252.5  12 12" xmlns="http://www.w3.org/2000/svg">
  <path d="M 860 9252.5  C 863.36 9252.5  866 9255.14  866 9258.5  C 866 9261.86  863.36 9264.5  860 9264.5  C 856.64 9264.5  854 9261.86  854 9258.5  C 854 9255.14  856.64 9252.5  860 9252.5  Z " fill-rule="nonzero" fill="#f0f0f0" stroke="none" />
  <path d="M 860 9253  C 863.08 9253  865.5 9255.42  865.5 9258.5  C 865.5 9261.58  863.08 9264  860 9264  C 856.92 9264  854.5 9261.58  854.5 9258.5  C 854.5 9255.42  856.92 9253  860 9253  Z " stroke-width="1" stroke="#797979" fill="none" />
  <path d="M 860 9261.5  C 858.32 9261.5  857 9260.18  857 9258.5  C 857 9256.82  858.32 9255.5  860 9255.5  C 861.68 9255.5  863 9256.82  863 9258.5  C 863 9260.18  861.68 9261.5  860 9261.5  " fill-rule="nonzero" fill="#797979" stroke="none" />
</svg>