<?xml version="1.0" encoding="utf-8"?>
<svg version="1.1" xmlns:xlink="http://www.w3.org/1999/xlink" width="12px" height="12px" viewBox="807 9252.5  12 12" xmlns="http://www.w3.org/2000/svg">
  <path d="M 813 9252.5  C 816.36 9252.5  819 9255.14  819 9258.5  C 819 9261.86  816.36 9264.5  813 9264.5  C 809.64 9264.5  807 9261.86  807 9258.5  C 807 9255.14  809.64 9252.5  813 9252.5  Z " fill-rule="nonzero" fill="#ffffff" stroke="none" />
  <path d="M 813 9253  C 816.08 9253  818.5 9255.42  818.5 9258.5  C 818.5 9261.58  816.08 9264  813 9264  C 809.92 9264  807.5 9261.58  807.5 9258.5  C 807.5 9255.42  809.92 9253  813 9253  Z " stroke-width="1" stroke="#797979" fill="none" />
  <path d="M 813 9261.5  C 811.32 9261.5  810 9260.18  810 9258.5  C 810 9256.82  811.32 9255.5  813 9255.5  C 814.68 9255.5  816 9256.82  816 9258.5  C 816 9260.18  814.68 9261.5  813 9261.5  " fill-rule="nonzero" fill="#797979" stroke="none" />
</svg>