<?xml version="1.0" encoding="utf-8"?>
<svg version="1.1" xmlns:xlink="http://www.w3.org/1999/xlink" width="12px" height="12px" viewBox="854 9212.5  12 12" xmlns="http://www.w3.org/2000/svg">
  <path d="M 860 9212.5  C 863.36 9212.5  866 9215.14  866 9218.5  C 866 9221.86  863.36 9224.5  860 9224.5  C 856.64 9224.5  854 9221.86  854 9218.5  C 854 9215.14  856.64 9212.5  860 9212.5  Z " fill-rule="nonzero" fill="#f0f0f0" stroke="none" />
  <path d="M 860 9213  C 863.08 9213  865.5 9215.42  865.5 9218.5  C 865.5 9221.58  863.08 9224  860 9224  C 856.92 9224  854.5 9221.58  854.5 9218.5  C 854.5 9215.42  856.92 9213  860 9213  Z " stroke-width="1" stroke="#797979" fill="none" />
  <path d="M 860 9221.5  C 858.32 9221.5  857 9220.18  857 9218.5  C 857 9216.82  858.32 9215.5  860 9215.5  C 861.68 9215.5  863 9216.82  863 9218.5  C 863 9220.18  861.68 9221.5  860 9221.5  " fill-rule="nonzero" fill="#797979" stroke="none" />
</svg>