<?xml version="1.0" encoding="utf-8"?>
<svg version="1.1" xmlns:xlink="http://www.w3.org/1999/xlink" width="12px" height="12px" viewBox="455 9210  12 12" xmlns="http://www.w3.org/2000/svg">
  <path d="M 455.5 9212  A 1.5 1.5 0 0 1 457 9210.5 L 465 9210.5  A 1.5 1.5 0 0 1 466.5 9212 L 466.5 9220  A 1.5 1.5 0 0 1 465 9221.5 L 457 9221.5  A 1.5 1.5 0 0 1 455.5 9220 L 455.5 9212  Z " fill-rule="nonzero" fill="#ffffff" stroke="none" />
  <path d="M 455.5 9212  A 1.5 1.5 0 0 1 457 9210.5 L 465 9210.5  A 1.5 1.5 0 0 1 466.5 9212 L 466.5 9220  A 1.5 1.5 0 0 1 465 9221.5 L 457 9221.5  A 1.5 1.5 0 0 1 455.5 9220 L 455.5 9212  Z " stroke-width="1" stroke="#797979" fill="none" />
</svg>