<?xml version="1.0" encoding="utf-8"?>
<svg version="1.1" xmlns:xlink="http://www.w3.org/1999/xlink" width="12px" height="12px" viewBox="854 9336.5  12 12" xmlns="http://www.w3.org/2000/svg">
  <path d="M 860 9336.5  C 863.36 9336.5  866 9339.14  866 9342.5  C 866 9345.86  863.36 9348.5  860 9348.5  C 856.64 9348.5  854 9345.86  854 9342.5  C 854 9339.14  856.64 9336.5  860 9336.5  Z " fill-rule="nonzero" fill="#ffffff" stroke="none" />
  <path d="M 860 9337  C 863.08 9337  865.5 9339.42  865.5 9342.5  C 865.5 9345.58  863.08 9348  860 9348  C 856.92 9348  854.5 9345.58  854.5 9342.5  C 854.5 9339.42  856.92 9337  860 9337  Z " stroke-width="1" stroke="#797979" fill="none" />
  <path d="M 860 9345.5  C 858.32 9345.5  857 9344.18  857 9342.5  C 857 9340.82  858.32 9339.5  860 9339.5  C 861.68 9339.5  863 9340.82  863 9342.5  C 863 9344.18  861.68 9345.5  860 9345.5  " fill-rule="nonzero" fill="#797979" stroke="none" />
</svg>