<?xml version="1.0" encoding="utf-8"?>
<svg version="1.1" xmlns:xlink="http://www.w3.org/1999/xlink" width="12px" height="12px" viewBox="207 9263  12 12" xmlns="http://www.w3.org/2000/svg">
  <path d="M 207.5 9265  A 1.5 1.5 0 0 1 209 9263.5 L 217 9263.5  A 1.5 1.5 0 0 1 218.5 9265 L 218.5 9273  A 1.5 1.5 0 0 1 217 9274.5 L 209 9274.5  A 1.5 1.5 0 0 1 207.5 9273 L 207.5 9265  Z " fill-rule="nonzero" fill="#ffffff" stroke="none" />
  <path d="M 207.5 9265  A 1.5 1.5 0 0 1 209 9263.5 L 217 9263.5  A 1.5 1.5 0 0 1 218.5 9265 L 218.5 9273  A 1.5 1.5 0 0 1 217 9274.5 L 209 9274.5  A 1.5 1.5 0 0 1 207.5 9273 L 207.5 9265  Z " stroke-width="1" stroke="#797979" fill="none" />
</svg>