<?xml version="1.0" encoding="utf-8"?>
<svg version="1.1" xmlns:xlink="http://www.w3.org/1999/xlink" width="12px" height="12px" viewBox="453 9334  12 12" xmlns="http://www.w3.org/2000/svg">
  <path d="M 453.5 9336  A 1.5 1.5 0 0 1 455 9334.5 L 463 9334.5  A 1.5 1.5 0 0 1 464.5 9336 L 464.5 9344  A 1.5 1.5 0 0 1 463 9345.5 L 455 9345.5  A 1.5 1.5 0 0 1 453.5 9344 L 453.5 9336  Z " fill-rule="nonzero" fill="#ffffff" stroke="none" />
  <path d="M 453.5 9336  A 1.5 1.5 0 0 1 455 9334.5 L 463 9334.5  A 1.5 1.5 0 0 1 464.5 9336 L 464.5 9344  A 1.5 1.5 0 0 1 463 9345.5 L 455 9345.5  A 1.5 1.5 0 0 1 453.5 9344 L 453.5 9336  Z " stroke-width="1" stroke="#797979" fill="none" />
</svg>