<?xml version="1.0" encoding="utf-8"?>
<svg version="1.1" xmlns:xlink="http://www.w3.org/1999/xlink" width="45px" height="45px" xmlns="http://www.w3.org/2000/svg">
  <g transform="matrix(1 0 0 1 -698 -252 )">
    <path d="M 720.5 252  C 733.1 252  743 261.9  743 274.5  C 743 287.1  733.1 297  720.5 297  C 707.9 297  698 287.1  698 274.5  C 698 261.9  707.9 252  720.5 252  Z " fill-rule="nonzero" fill="#f5222d" stroke="none" fill-opacity="0.0941176470588235" />
    <path d="M 720.5 252.5  C 732.82 252.5  742.5 262.18  742.5 274.5  C 742.5 286.82  732.82 296.5  720.5 296.5  C 708.18 296.5  698.5 286.82  698.5 274.5  C 698.5 262.18  708.18 252.5  720.5 252.5  Z " stroke-width="1" stroke="#797979" fill="none" />
  </g>
</svg>