<?xml version="1.0" encoding="utf-8"?>
<svg version="1.1" xmlns:xlink="http://www.w3.org/1999/xlink" width="13px" height="14px" xmlns="http://www.w3.org/2000/svg">
  <g transform="matrix(1 0 0 1 -980 -470 )">
    <path d="M 3.61111111111111 4.45454545454546  L 3.61111111111111 6.36363636363636  L 9.38888888888889 6.36363636363636  L 9.38888888888889 4.45454545454546  C 9.38888888888889 3.75189393939394  9.10677083333333 3.15198863636364  8.54253472222222 2.65482954545454  C 7.97829861111111 2.15767045454546  7.29745370370371 1.90909090909091  6.5 1.90909090909091  C 5.7025462962963 1.90909090909091  5.02170138888889 2.15767045454546  4.45746527777778 2.65482954545454  C 3.89322916666667 3.15198863636364  3.61111111111111 3.75189393939394  3.61111111111111 4.45454545454546  Z M 12.6840277777778 6.64204545454546  C 12.8946759259259 6.82765151515151  13 7.0530303030303  13 7.31818181818182  L 13 13.0454545454545  C 13 13.3106060606061  12.8946759259259 13.5359848484848  12.6840277777778 13.7215909090909  C 12.4733796296296 13.907196969697  12.2175925925926 14  11.9166666666667 14  L 1.08333333333333 14  C 0.782407407407408 14  0.52662037037037 13.907196969697  0.315972222222222 13.7215909090909  C 0.105324074074074 13.5359848484848  0 13.3106060606061  0 13.0454545454545  L 0 7.31818181818182  C 0 7.0530303030303  0.105324074074074 6.82765151515151  0.315972222222222 6.64204545454546  C 0.52662037037037 6.45643939393939  0.782407407407408 6.36363636363636  1.08333333333333 6.36363636363636  L 1.44444444444444 6.36363636363636  L 1.44444444444444 4.45454545454546  C 1.44444444444444 3.23484848484848  1.94097222222222 2.1875  2.93402777777778 1.3125  C 3.92708333333333 0.4375  5.11574074074074 0  6.5 0  C 7.88425925925926 0  9.07291666666667 0.4375  10.0659722222222 1.3125  C 11.0590277777778 2.1875  11.5555555555556 3.23484848484848  11.5555555555556 4.45454545454546  L 11.5555555555556 6.36363636363636  L 11.9166666666667 6.36363636363636  C 12.2175925925926 6.36363636363636  12.4733796296296 6.45643939393939  12.6840277777778 6.64204545454546  Z " fill-rule="nonzero" fill="#aaaaaa" stroke="none" transform="matrix(1 0 0 1 980 470 )" />
  </g>
</svg>