<?xml version="1.0" encoding="utf-8"?>
<svg version="1.1" xmlns:xlink="http://www.w3.org/1999/xlink" width="6px" height="10px" xmlns="http://www.w3.org/2000/svg">
  <g transform="matrix(1 0 0 1 -127 -161 )">
    <path d="M 3.6796875 6.1328125  C 3.99579326923077 5.60596955128205  4.15384615384615 4.97195512820513  4.15384615384615 4.23076923076923  C 4.15384615384615 3.48958333333333  3.99579326923077 2.85556891025641  3.6796875 2.32872596153846  C 3.36358173076923 1.80188301282051  2.98317307692308 1.53846153846154  2.53846153846154 1.53846153846154  C 2.09375 1.53846153846154  1.71334134615385 1.80188301282051  1.39723557692308 2.32872596153846  C 1.08112980769231 2.85556891025641  0.923076923076923 3.48958333333333  0.923076923076923 4.23076923076923  C 0.923076923076923 4.97195512820513  1.08112980769231 5.60596955128205  1.39723557692308 6.1328125  C 1.71334134615385 6.65965544871795  2.09375 6.92307692307692  2.53846153846154 6.92307692307692  C 2.98317307692308 6.92307692307692  3.36358173076923 6.65965544871795  3.6796875 6.1328125  Z M 5.86658653846154 8.68990384615385  C 5.95552884615385 8.83814102564103  6 9.01842948717949  6 9.23076923076923  C 6 9.43910256410257  5.95432692307692 9.61939102564103  5.86298076923077 9.77163461538461  C 5.77163461538462 9.9238782051282  5.66346153846154 10  5.53846153846154 10  C 5.40865384615385 10  5.30048076923077 9.9238782051282  5.21394230769231 9.77163461538461  L 3.97716346153846 7.71634615384615  C 3.546875 8.21314102564103  3.06730769230769 8.46153846153846  2.53846153846154 8.46153846153846  C 2.19471153846154 8.46153846153846  1.86598557692308 8.35036057692308  1.55228365384615 8.12800480769231  C 1.23858173076923 7.90564903846154  0.968149038461538 7.60516826923077  0.740985576923077 7.2265625  C 0.513822115384615 6.84795673076923  0.333533653846154 6.39723557692308  0.200120192307692 5.87439903846154  C 0.0667067307692308 5.3515625  0 4.8036858974359  0 4.23076923076923  C 0 3.65785256410256  0.0667067307692308 3.10997596153846  0.200120192307692 2.58713942307692  C 0.333533653846154 2.06430288461538  0.513822115384615 1.61358173076923  0.740985576923077 1.23497596153846  C 0.968149038461538 0.856370192307693  1.23858173076923 0.555889423076923  1.55228365384615 0.333533653846154  C 1.86598557692308 0.111177884615384  2.19471153846154 0  2.53846153846154 0  C 2.88221153846154 0  3.2109375 0.111177884615384  3.52463942307692 0.333533653846154  C 3.83834134615385 0.555889423076923  4.10877403846154 0.856370192307693  4.3359375 1.23497596153846  C 4.56310096153846 1.61358173076923  4.74338942307692 2.06430288461538  4.87680288461538 2.58713942307692  C 5.01021634615385 3.10997596153846  5.07692307692308 3.65785256410256  5.07692307692308 4.23076923076923  C 5.07692307692308 5.11217948717949  4.92788461538462 5.91145833333333  4.62980769230769 6.62860576923077  L 5.86658653846154 8.68990384615385  Z " fill-rule="nonzero" fill="#aaaaaa" stroke="none" transform="matrix(1 0 0 1 127 161 )" />
  </g>
</svg>