<?xml version="1.0" encoding="utf-8"?>
<svg version="1.1" xmlns:xlink="http://www.w3.org/1999/xlink" width="12px" height="12px" viewBox="363 373  12 12" xmlns="http://www.w3.org/2000/svg">
  <path d="M 363.5 375  A 1.5 1.5 0 0 1 365 373.5 L 373 373.5  A 1.5 1.5 0 0 1 374.5 375 L 374.5 383  A 1.5 1.5 0 0 1 373 384.5 L 365 384.5  A 1.5 1.5 0 0 1 363.5 383 L 363.5 375  Z " fill-rule="nonzero" fill="#f0f0f0" stroke="none" />
  <path d="M 363.5 375  A 1.5 1.5 0 0 1 365 373.5 L 373 373.5  A 1.5 1.5 0 0 1 374.5 375 L 374.5 383  A 1.5 1.5 0 0 1 373 384.5 L 365 384.5  A 1.5 1.5 0 0 1 363.5 383 L 363.5 375  Z " stroke-width="1" stroke="#797979" fill="none" />
  <path d="M 365.571428571429 379  L 368.142857142857 381.571428571429  " stroke-width="2.57142857142857" stroke="#797979" fill="none" />
  <path d="M 368.142857142857 381.571428571429  L 372.428571428571 375.571428571429  " stroke-width="2.57142857142857" stroke="#797979" fill="none" />
</svg>