<?xml version="1.0" encoding="utf-8"?>
<svg version="1.1" xmlns:xlink="http://www.w3.org/1999/xlink" width="12px" height="12px" viewBox="1851 249  12 12" xmlns="http://www.w3.org/2000/svg">
  <path d="M 1851.5 251  A 1.5 1.5 0 0 1 1853 249.5 L 1861 249.5  A 1.5 1.5 0 0 1 1862.5 251 L 1862.5 259  A 1.5 1.5 0 0 1 1861 260.5 L 1853 260.5  A 1.5 1.5 0 0 1 1851.5 259 L 1851.5 251  Z " fill-rule="nonzero" fill="#f0f0f0" stroke="none" />
  <path d="M 1851.5 251  A 1.5 1.5 0 0 1 1853 249.5 L 1861 249.5  A 1.5 1.5 0 0 1 1862.5 251 L 1862.5 259  A 1.5 1.5 0 0 1 1861 260.5 L 1853 260.5  A 1.5 1.5 0 0 1 1851.5 259 L 1851.5 251  Z " stroke-width="1" stroke="#797979" fill="none" />
  <path d="M 1853.57142857143 255  L 1856.14285714286 257.571428571429  " stroke-width="2.57142857142857" stroke="#797979" fill="none" />
  <path d="M 1856.14285714286 257.571428571429  L 1860.42857142857 251.571428571429  " stroke-width="2.57142857142857" stroke="#797979" fill="none" />
</svg>