<?xml version="1.0" encoding="utf-8"?>
<svg version="1.1" xmlns:xlink="http://www.w3.org/1999/xlink" width="12px" height="12px" viewBox="898 2462  12 12" xmlns="http://www.w3.org/2000/svg">
  <path d="M 904 2462  C 907.36 2462  910 2464.64  910 2468  C 910 2471.36  907.36 2474  904 2474  C 900.64 2474  898 2471.36  898 2468  C 898 2464.64  900.64 2462  904 2462  Z " fill-rule="nonzero" fill="#f0f0f0" stroke="none" />
  <path d="M 904 2462.5  C 907.08 2462.5  909.5 2464.92  909.5 2468  C 909.5 2471.08  907.08 2473.5  904 2473.5  C 900.92 2473.5  898.5 2471.08  898.5 2468  C 898.5 2464.92  900.92 2462.5  904 2462.5  Z " stroke-width="1" stroke="#797979" fill="none" />
  <path d="M 904 2471  C 902.32 2471  901 2469.68  901 2468  C 901 2466.32  902.32 2465  904 2465  C 905.68 2465  907 2466.32  907 2468  C 907 2469.68  905.68 2471  904 2471  " fill-rule="nonzero" fill="#797979" stroke="none" />
</svg>