<?xml version="1.0" encoding="utf-8"?>
<svg version="1.1" xmlns:xlink="http://www.w3.org/1999/xlink" width="12px" height="12px" viewBox="360 1084  12 12" xmlns="http://www.w3.org/2000/svg">
  <path d="M 366 1084  C 369.36 1084  372 1086.64  372 1090  C 372 1093.36  369.36 1096  366 1096  C 362.64 1096  360 1093.36  360 1090  C 360 1086.64  362.64 1084  366 1084  Z " fill-rule="nonzero" fill="#ffffff" stroke="none" />
  <path d="M 366 1084.5  C 369.08 1084.5  371.5 1086.92  371.5 1090  C 371.5 1093.08  369.08 1095.5  366 1095.5  C 362.92 1095.5  360.5 1093.08  360.5 1090  C 360.5 1086.92  362.92 1084.5  366 1084.5  Z " stroke-width="1" stroke="#797979" fill="none" />
  <path d="M 366 1093  C 364.32 1093  363 1091.68  363 1090  C 363 1088.32  364.32 1087  366 1087  C 367.68 1087  369 1088.32  369 1090  C 369 1091.68  367.68 1093  366 1093  " fill-rule="nonzero" fill="#797979" stroke="none" />
</svg>