<?xml version="1.0" encoding="utf-8"?>
<svg version="1.1" xmlns:xlink="http://www.w3.org/1999/xlink" width="12px" height="12px" viewBox="365 1547  12 12" xmlns="http://www.w3.org/2000/svg">
  <path d="M 371 1547  C 374.36 1547  377 1549.64  377 1553  C 377 1556.36  374.36 1559  371 1559  C 367.64 1559  365 1556.36  365 1553  C 365 1549.64  367.64 1547  371 1547  Z " fill-rule="nonzero" fill="#f0f0f0" stroke="none" />
  <path d="M 371 1547.5  C 374.08 1547.5  376.5 1549.92  376.5 1553  C 376.5 1556.08  374.08 1558.5  371 1558.5  C 367.92 1558.5  365.5 1556.08  365.5 1553  C 365.5 1549.92  367.92 1547.5  371 1547.5  Z " stroke-width="1" stroke="#797979" fill="none" />
  <path d="M 371 1556  C 369.32 1556  368 1554.68  368 1553  C 368 1551.32  369.32 1550  371 1550  C 372.68 1550  374 1551.32  374 1553  C 374 1554.68  372.68 1556  371 1556  " fill-rule="nonzero" fill="#797979" stroke="none" />
</svg>