<?xml version="1.0" encoding="utf-8"?>
<svg version="1.1" xmlns:xlink="http://www.w3.org/1999/xlink" width="12px" height="12px" viewBox="932 1500  12 12" xmlns="http://www.w3.org/2000/svg">
  <path d="M 938 1500  C 941.36 1500  944 1502.64  944 1506  C 944 1509.36  941.36 1512  938 1512  C 934.64 1512  932 1509.36  932 1506  C 932 1502.64  934.64 1500  938 1500  Z " fill-rule="nonzero" fill="#f0f0f0" stroke="none" />
  <path d="M 938 1500.5  C 941.08 1500.5  943.5 1502.92  943.5 1506  C 943.5 1509.08  941.08 1511.5  938 1511.5  C 934.92 1511.5  932.5 1509.08  932.5 1506  C 932.5 1502.92  934.92 1500.5  938 1500.5  Z " stroke-width="1" stroke="#797979" fill="none" />
  <path d="M 938 1509  C 936.32 1509  935 1507.68  935 1506  C 935 1504.32  936.32 1503  938 1503  C 939.68 1503  941 1504.32  941 1506  C 941 1507.68  939.68 1509  938 1509  " fill-rule="nonzero" fill="#797979" stroke="none" />
</svg>