<?xml version="1.0" encoding="utf-8"?>
<svg version="1.1" xmlns:xlink="http://www.w3.org/1999/xlink" width="12px" height="12px" viewBox="882 1500  12 12" xmlns="http://www.w3.org/2000/svg">
  <path d="M 888 1500  C 891.36 1500  894 1502.64  894 1506  C 894 1509.36  891.36 1512  888 1512  C 884.64 1512  882 1509.36  882 1506  C 882 1502.64  884.64 1500  888 1500  Z " fill-rule="nonzero" fill="#f0f0f0" stroke="none" />
  <path d="M 888 1500.5  C 891.08 1500.5  893.5 1502.92  893.5 1506  C 893.5 1509.08  891.08 1511.5  888 1511.5  C 884.92 1511.5  882.5 1509.08  882.5 1506  C 882.5 1502.92  884.92 1500.5  888 1500.5  Z " stroke-width="1" stroke="#797979" fill="none" />
  <path d="M 888 1509  C 886.32 1509  885 1507.68  885 1506  C 885 1504.32  886.32 1503  888 1503  C 889.68 1503  891 1504.32  891 1506  C 891 1507.68  889.68 1509  888 1509  " fill-rule="nonzero" fill="#797979" stroke="none" />
</svg>