<?xml version="1.0" encoding="utf-8"?>
<svg version="1.1" xmlns:xlink="http://www.w3.org/1999/xlink" width="12px" height="12px" viewBox="892 2080  12 12" xmlns="http://www.w3.org/2000/svg">
  <path d="M 898 2080  C 901.36 2080  904 2082.64  904 2086  C 904 2089.36  901.36 2092  898 2092  C 894.64 2092  892 2089.36  892 2086  C 892 2082.64  894.64 2080  898 2080  Z " fill-rule="nonzero" fill="#f0f0f0" stroke="none" />
  <path d="M 898 2080.5  C 901.08 2080.5  903.5 2082.92  903.5 2086  C 903.5 2089.08  901.08 2091.5  898 2091.5  C 894.92 2091.5  892.5 2089.08  892.5 2086  C 892.5 2082.92  894.92 2080.5  898 2080.5  Z " stroke-width="1" stroke="#797979" fill="none" />
  <path d="M 898 2089  C 896.32 2089  895 2087.68  895 2086  C 895 2084.32  896.32 2083  898 2083  C 899.68 2083  901 2084.32  901 2086  C 901 2087.68  899.68 2089  898 2089  " fill-rule="nonzero" fill="#797979" stroke="none" />
</svg>