<?xml version="1.0" encoding="utf-8"?>
<svg version="1.1" xmlns:xlink="http://www.w3.org/1999/xlink" width="12px" height="12px" viewBox="948 2462  12 12" xmlns="http://www.w3.org/2000/svg">
  <path d="M 954 2462  C 957.36 2462  960 2464.64  960 2468  C 960 2471.36  957.36 2474  954 2474  C 950.64 2474  948 2471.36  948 2468  C 948 2464.64  950.64 2462  954 2462  Z " fill-rule="nonzero" fill="#f0f0f0" stroke="none" />
  <path d="M 954 2462.5  C 957.08 2462.5  959.5 2464.92  959.5 2468  C 959.5 2471.08  957.08 2473.5  954 2473.5  C 950.92 2473.5  948.5 2471.08  948.5 2468  C 948.5 2464.92  950.92 2462.5  954 2462.5  Z " stroke-width="1" stroke="#797979" fill="none" />
  <path d="M 954 2471  C 952.32 2471  951 2469.68  951 2468  C 951 2466.32  952.32 2465  954 2465  C 955.68 2465  957 2466.32  957 2468  C 957 2469.68  955.68 2471  954 2471  " fill-rule="nonzero" fill="#797979" stroke="none" />
</svg>