<?xml version="1.0" encoding="utf-8"?>
<svg version="1.1" xmlns:xlink="http://www.w3.org/1999/xlink" width="12px" height="12px" viewBox="284 252  12 12" xmlns="http://www.w3.org/2000/svg">
  <path d="M 284.5 254  A 1.5 1.5 0 0 1 286 252.5 L 294 252.5  A 1.5 1.5 0 0 1 295.5 254 L 295.5 262  A 1.5 1.5 0 0 1 294 263.5 L 286 263.5  A 1.5 1.5 0 0 1 284.5 262 L 284.5 254  Z " fill-rule="nonzero" fill="#ffffff" stroke="none" />
  <path d="M 284.5 254  A 1.5 1.5 0 0 1 286 252.5 L 294 252.5  A 1.5 1.5 0 0 1 295.5 254 L 295.5 262  A 1.5 1.5 0 0 1 294 263.5 L 286 263.5  A 1.5 1.5 0 0 1 284.5 262 L 284.5 254  Z " stroke-width="1" stroke="#797979" fill="none" />
</svg>