<?xml version="1.0" encoding="utf-8"?>
<svg version="1.1" xmlns:xlink="http://www.w3.org/1999/xlink" width="12px" height="12px" viewBox="284 280  12 12" xmlns="http://www.w3.org/2000/svg">
  <path d="M 284.5 282  A 1.5 1.5 0 0 1 286 280.5 L 294 280.5  A 1.5 1.5 0 0 1 295.5 282 L 295.5 290  A 1.5 1.5 0 0 1 294 291.5 L 286 291.5  A 1.5 1.5 0 0 1 284.5 290 L 284.5 282  Z " fill-rule="nonzero" fill="#f0f0f0" stroke="none" />
  <path d="M 284.5 282  A 1.5 1.5 0 0 1 286 280.5 L 294 280.5  A 1.5 1.5 0 0 1 295.5 282 L 295.5 290  A 1.5 1.5 0 0 1 294 291.5 L 286 291.5  A 1.5 1.5 0 0 1 284.5 290 L 284.5 282  Z " stroke-width="1" stroke="#797979" fill="none" />
</svg>