<?xml version="1.0" encoding="utf-8"?>
<svg version="1.1" xmlns:xlink="http://www.w3.org/1999/xlink" width="12px" height="12px" viewBox="161 1319  12 12" xmlns="http://www.w3.org/2000/svg">
  <path d="M 161.5 1321  A 1.5 1.5 0 0 1 163 1319.5 L 171 1319.5  A 1.5 1.5 0 0 1 172.5 1321 L 172.5 1329  A 1.5 1.5 0 0 1 171 1330.5 L 163 1330.5  A 1.5 1.5 0 0 1 161.5 1329 L 161.5 1321  Z " fill-rule="nonzero" fill="#ffffff" stroke="none" />
  <path d="M 161.5 1321  A 1.5 1.5 0 0 1 163 1319.5 L 171 1319.5  A 1.5 1.5 0 0 1 172.5 1321 L 172.5 1329  A 1.5 1.5 0 0 1 171 1330.5 L 163 1330.5  A 1.5 1.5 0 0 1 161.5 1329 L 161.5 1321  Z " stroke-width="1" stroke="#7f7f7f" fill="none" />
  <path d="M 163.571428571429 1325  L 166.142857142857 1327.57142857143  " stroke-width="2.57142857142857" stroke="#7f7f7f" fill="none" />
  <path d="M 166.142857142857 1327.57142857143  L 170.428571428571 1321.57142857143  " stroke-width="2.57142857142857" stroke="#7f7f7f" fill="none" />
</svg>