<?xml version="1.0" encoding="utf-8"?>
<svg version="1.1" xmlns:xlink="http://www.w3.org/1999/xlink" width="12px" height="12px" viewBox="495 1469  12 12" xmlns="http://www.w3.org/2000/svg">
  <path d="M 495.5 1471  A 1.5 1.5 0 0 1 497 1469.5 L 505 1469.5  A 1.5 1.5 0 0 1 506.5 1471 L 506.5 1479  A 1.5 1.5 0 0 1 505 1480.5 L 497 1480.5  A 1.5 1.5 0 0 1 495.5 1479 L 495.5 1471  Z " fill-rule="nonzero" fill="#ffffff" stroke="none" />
  <path d="M 495.5 1471  A 1.5 1.5 0 0 1 497 1469.5 L 505 1469.5  A 1.5 1.5 0 0 1 506.5 1471 L 506.5 1479  A 1.5 1.5 0 0 1 505 1480.5 L 497 1480.5  A 1.5 1.5 0 0 1 495.5 1479 L 495.5 1471  Z " stroke-width="1" stroke="#7f7f7f" fill="none" />
  <path d="M 497.571428571429 1475  L 500.142857142857 1477.57142857143  " stroke-width="2.57142857142857" stroke="#7f7f7f" fill="none" />
  <path d="M 500.142857142857 1477.57142857143  L 504.428571428571 1471.57142857143  " stroke-width="2.57142857142857" stroke="#7f7f7f" fill="none" />
</svg>