<?xml version="1.0" encoding="utf-8"?>
<svg version="1.1" xmlns:xlink="http://www.w3.org/1999/xlink" width="12px" height="12px" viewBox="400 1614  12 12" xmlns="http://www.w3.org/2000/svg">
  <path d="M 400.5 1616  A 1.5 1.5 0 0 1 402 1614.5 L 410 1614.5  A 1.5 1.5 0 0 1 411.5 1616 L 411.5 1624  A 1.5 1.5 0 0 1 410 1625.5 L 402 1625.5  A 1.5 1.5 0 0 1 400.5 1624 L 400.5 1616  Z " fill-rule="nonzero" fill="#ffffff" stroke="none" />
  <path d="M 400.5 1616  A 1.5 1.5 0 0 1 402 1614.5 L 410 1614.5  A 1.5 1.5 0 0 1 411.5 1616 L 411.5 1624  A 1.5 1.5 0 0 1 410 1625.5 L 402 1625.5  A 1.5 1.5 0 0 1 400.5 1624 L 400.5 1616  Z " stroke-width="1" stroke="#7f7f7f" fill="none" />
</svg>