<?xml version="1.0" encoding="utf-8"?>
<svg version="1.1" xmlns:xlink="http://www.w3.org/1999/xlink" width="12px" height="12px" viewBox="284 308  12 12" xmlns="http://www.w3.org/2000/svg">
  <path d="M 284.5 310  A 1.5 1.5 0 0 1 286 308.5 L 294 308.5  A 1.5 1.5 0 0 1 295.5 310 L 295.5 318  A 1.5 1.5 0 0 1 294 319.5 L 286 319.5  A 1.5 1.5 0 0 1 284.5 318 L 284.5 310  Z " fill-rule="nonzero" fill="#ffffff" stroke="none" />
  <path d="M 284.5 310  A 1.5 1.5 0 0 1 286 308.5 L 294 308.5  A 1.5 1.5 0 0 1 295.5 310 L 295.5 318  A 1.5 1.5 0 0 1 294 319.5 L 286 319.5  A 1.5 1.5 0 0 1 284.5 318 L 284.5 310  Z " stroke-width="1" stroke="#797979" fill="none" />
</svg>