<?xml version="1.0" encoding="utf-8"?>
<svg version="1.1" xmlns:xlink="http://www.w3.org/1999/xlink" width="12px" height="12px" viewBox="570 1368  12 12" xmlns="http://www.w3.org/2000/svg">
  <path d="M 570.5 1370  A 1.5 1.5 0 0 1 572 1368.5 L 580 1368.5  A 1.5 1.5 0 0 1 581.5 1370 L 581.5 1378  A 1.5 1.5 0 0 1 580 1379.5 L 572 1379.5  A 1.5 1.5 0 0 1 570.5 1378 L 570.5 1370  Z " fill-rule="nonzero" fill="#ffffff" stroke="none" />
  <path d="M 570.5 1370  A 1.5 1.5 0 0 1 572 1368.5 L 580 1368.5  A 1.5 1.5 0 0 1 581.5 1370 L 581.5 1378  A 1.5 1.5 0 0 1 580 1379.5 L 572 1379.5  A 1.5 1.5 0 0 1 570.5 1378 L 570.5 1370  Z " stroke-width="1" stroke="#7f7f7f" fill="none" />
  <path d="M 572.571428571429 1374  L 575.142857142857 1376.57142857143  " stroke-width="2.57142857142857" stroke="#7f7f7f" fill="none" />
  <path d="M 575.142857142857 1376.57142857143  L 579.428571428571 1370.57142857143  " stroke-width="2.57142857142857" stroke="#7f7f7f" fill="none" />
</svg>