<?xml version="1.0" encoding="utf-8"?>
<svg version="1.1" xmlns:xlink="http://www.w3.org/1999/xlink" width="12px" height="12px" viewBox="400 1419  12 12" xmlns="http://www.w3.org/2000/svg">
  <path d="M 400.5 1421  A 1.5 1.5 0 0 1 402 1419.5 L 410 1419.5  A 1.5 1.5 0 0 1 411.5 1421 L 411.5 1429  A 1.5 1.5 0 0 1 410 1430.5 L 402 1430.5  A 1.5 1.5 0 0 1 400.5 1429 L 400.5 1421  Z " fill-rule="nonzero" fill="#f0f0f0" stroke="none" />
  <path d="M 400.5 1421  A 1.5 1.5 0 0 1 402 1419.5 L 410 1419.5  A 1.5 1.5 0 0 1 411.5 1421 L 411.5 1429  A 1.5 1.5 0 0 1 410 1430.5 L 402 1430.5  A 1.5 1.5 0 0 1 400.5 1429 L 400.5 1421  Z " stroke-width="1" stroke="#7f7f7f" fill="none" />
</svg>