<?xml version="1.0" encoding="utf-8"?>
<svg version="1.1" xmlns:xlink="http://www.w3.org/1999/xlink" width="12px" height="12px" viewBox="279 1319  12 12" xmlns="http://www.w3.org/2000/svg">
  <path d="M 279.5 1321  A 1.5 1.5 0 0 1 281 1319.5 L 289 1319.5  A 1.5 1.5 0 0 1 290.5 1321 L 290.5 1329  A 1.5 1.5 0 0 1 289 1330.5 L 281 1330.5  A 1.5 1.5 0 0 1 279.5 1329 L 279.5 1321  Z " fill-rule="nonzero" fill="#f0f0f0" stroke="none" />
  <path d="M 279.5 1321  A 1.5 1.5 0 0 1 281 1319.5 L 289 1319.5  A 1.5 1.5 0 0 1 290.5 1321 L 290.5 1329  A 1.5 1.5 0 0 1 289 1330.5 L 281 1330.5  A 1.5 1.5 0 0 1 279.5 1329 L 279.5 1321  Z " stroke-width="1" stroke="#7f7f7f" fill="none" />
  <path d="M 281.571428571429 1325  L 284.142857142857 1327.57142857143  " stroke-width="2.57142857142857" stroke="#7f7f7f" fill="none" />
  <path d="M 284.142857142857 1327.57142857143  L 288.428571428571 1321.57142857143  " stroke-width="2.57142857142857" stroke="#7f7f7f" fill="none" />
</svg>