<?xml version="1.0" encoding="utf-8"?>
<svg version="1.1" xmlns:xlink="http://www.w3.org/1999/xlink" width="12px" height="12px" viewBox="281 1657  12 12" xmlns="http://www.w3.org/2000/svg">
  <path d="M 281.5 1659  A 1.5 1.5 0 0 1 283 1657.5 L 291 1657.5  A 1.5 1.5 0 0 1 292.5 1659 L 292.5 1667  A 1.5 1.5 0 0 1 291 1668.5 L 283 1668.5  A 1.5 1.5 0 0 1 281.5 1667 L 281.5 1659  Z " fill-rule="nonzero" fill="#ffffff" stroke="none" />
  <path d="M 281.5 1659  A 1.5 1.5 0 0 1 283 1657.5 L 291 1657.5  A 1.5 1.5 0 0 1 292.5 1659 L 292.5 1667  A 1.5 1.5 0 0 1 291 1668.5 L 283 1668.5  A 1.5 1.5 0 0 1 281.5 1667 L 281.5 1659  Z " stroke-width="1" stroke="#7f7f7f" fill="none" />
  <path d="M 283.571428571429 1663  L 286.142857142857 1665.57142857143  " stroke-width="2.57142857142857" stroke="#7f7f7f" fill="none" />
  <path d="M 286.142857142857 1665.57142857143  L 290.428571428571 1659.57142857143  " stroke-width="2.57142857142857" stroke="#7f7f7f" fill="none" />
</svg>