<?xml version="1.0" encoding="utf-8"?>
<svg version="1.1" xmlns:xlink="http://www.w3.org/1999/xlink" width="12px" height="12px" viewBox="281 1572  12 12" xmlns="http://www.w3.org/2000/svg">
  <path d="M 281.5 1574  A 1.5 1.5 0 0 1 283 1572.5 L 291 1572.5  A 1.5 1.5 0 0 1 292.5 1574 L 292.5 1582  A 1.5 1.5 0 0 1 291 1583.5 L 283 1583.5  A 1.5 1.5 0 0 1 281.5 1582 L 281.5 1574  Z " fill-rule="nonzero" fill="#ffffff" stroke="none" />
  <path d="M 281.5 1574  A 1.5 1.5 0 0 1 283 1572.5 L 291 1572.5  A 1.5 1.5 0 0 1 292.5 1574 L 292.5 1582  A 1.5 1.5 0 0 1 291 1583.5 L 283 1583.5  A 1.5 1.5 0 0 1 281.5 1582 L 281.5 1574  Z " stroke-width="1" stroke="#7f7f7f" fill="none" />
</svg>