<?xml version="1.0" encoding="utf-8"?>
<svg version="1.1" xmlns:xlink="http://www.w3.org/1999/xlink" width="12px" height="12px" viewBox="161 1520  12 12" xmlns="http://www.w3.org/2000/svg">
  <path d="M 161.5 1522  A 1.5 1.5 0 0 1 163 1520.5 L 171 1520.5  A 1.5 1.5 0 0 1 172.5 1522 L 172.5 1530  A 1.5 1.5 0 0 1 171 1531.5 L 163 1531.5  A 1.5 1.5 0 0 1 161.5 1530 L 161.5 1522  Z " fill-rule="nonzero" fill="#f0f0f0" stroke="none" />
  <path d="M 161.5 1522  A 1.5 1.5 0 0 1 163 1520.5 L 171 1520.5  A 1.5 1.5 0 0 1 172.5 1522 L 172.5 1530  A 1.5 1.5 0 0 1 171 1531.5 L 163 1531.5  A 1.5 1.5 0 0 1 161.5 1530 L 161.5 1522  Z " stroke-width="1" stroke="#7f7f7f" fill="none" />
</svg>