<?xml version="1.0" encoding="utf-8"?>
<svg version="1.1" xmlns:xlink="http://www.w3.org/1999/xlink" width="12px" height="12px" viewBox="279 1419  12 12" xmlns="http://www.w3.org/2000/svg">
  <path d="M 279.5 1421  A 1.5 1.5 0 0 1 281 1419.5 L 289 1419.5  A 1.5 1.5 0 0 1 290.5 1421 L 290.5 1429  A 1.5 1.5 0 0 1 289 1430.5 L 281 1430.5  A 1.5 1.5 0 0 1 279.5 1429 L 279.5 1421  Z " fill-rule="nonzero" fill="#f0f0f0" stroke="none" />
  <path d="M 279.5 1421  A 1.5 1.5 0 0 1 281 1419.5 L 289 1419.5  A 1.5 1.5 0 0 1 290.5 1421 L 290.5 1429  A 1.5 1.5 0 0 1 289 1430.5 L 281 1430.5  A 1.5 1.5 0 0 1 279.5 1429 L 279.5 1421  Z " stroke-width="1" stroke="#7f7f7f" fill="none" />
</svg>