<?xml version="1.0" encoding="utf-8"?>
<svg version="1.1" xmlns:xlink="http://www.w3.org/1999/xlink" width="12px" height="12px" viewBox="279 1958  12 12" xmlns="http://www.w3.org/2000/svg">
  <path d="M 279.5 1960  A 1.5 1.5 0 0 1 281 1958.5 L 289 1958.5  A 1.5 1.5 0 0 1 290.5 1960 L 290.5 1968  A 1.5 1.5 0 0 1 289 1969.5 L 281 1969.5  A 1.5 1.5 0 0 1 279.5 1968 L 279.5 1960  Z " fill-rule="nonzero" fill="#f0f0f0" stroke="none" />
  <path d="M 279.5 1960  A 1.5 1.5 0 0 1 281 1958.5 L 289 1958.5  A 1.5 1.5 0 0 1 290.5 1960 L 290.5 1968  A 1.5 1.5 0 0 1 289 1969.5 L 281 1969.5  A 1.5 1.5 0 0 1 279.5 1968 L 279.5 1960  Z " stroke-width="1" stroke="#7f7f7f" fill="none" />
  <path d="M 281.571428571429 1964  L 284.142857142857 1966.57142857143  " stroke-width="2.57142857142857" stroke="#7f7f7f" fill="none" />
  <path d="M 284.142857142857 1966.57142857143  L 288.428571428571 1960.57142857143  " stroke-width="2.57142857142857" stroke="#7f7f7f" fill="none" />
</svg>