<?xml version="1.0" encoding="utf-8"?>
<svg version="1.1" xmlns:xlink="http://www.w3.org/1999/xlink" width="12px" height="12px" viewBox="400 1639  12 12" xmlns="http://www.w3.org/2000/svg">
  <path d="M 400.5 1641  A 1.5 1.5 0 0 1 402 1639.5 L 410 1639.5  A 1.5 1.5 0 0 1 411.5 1641 L 411.5 1649  A 1.5 1.5 0 0 1 410 1650.5 L 402 1650.5  A 1.5 1.5 0 0 1 400.5 1649 L 400.5 1641  Z " fill-rule="nonzero" fill="#ffffff" stroke="none" />
  <path d="M 400.5 1641  A 1.5 1.5 0 0 1 402 1639.5 L 410 1639.5  A 1.5 1.5 0 0 1 411.5 1641 L 411.5 1649  A 1.5 1.5 0 0 1 410 1650.5 L 402 1650.5  A 1.5 1.5 0 0 1 400.5 1649 L 400.5 1641  Z " stroke-width="1" stroke="#7f7f7f" fill="none" />
  <path d="M 402.571428571429 1645  L 405.142857142857 1647.57142857143  " stroke-width="2.57142857142857" stroke="#7f7f7f" fill="none" />
  <path d="M 405.142857142857 1647.57142857143  L 409.428571428571 1641.57142857143  " stroke-width="2.57142857142857" stroke="#7f7f7f" fill="none" />
</svg>