<?xml version="1.0" encoding="utf-8"?>
<svg version="1.1" xmlns:xlink="http://www.w3.org/1999/xlink" width="12px" height="12px" viewBox="279 1782  12 12" xmlns="http://www.w3.org/2000/svg">
  <path d="M 279.5 1784  A 1.5 1.5 0 0 1 281 1782.5 L 289 1782.5  A 1.5 1.5 0 0 1 290.5 1784 L 290.5 1792  A 1.5 1.5 0 0 1 289 1793.5 L 281 1793.5  A 1.5 1.5 0 0 1 279.5 1792 L 279.5 1784  Z " fill-rule="nonzero" fill="#ffffff" stroke="none" />
  <path d="M 279.5 1784  A 1.5 1.5 0 0 1 281 1782.5 L 289 1782.5  A 1.5 1.5 0 0 1 290.5 1784 L 290.5 1792  A 1.5 1.5 0 0 1 289 1793.5 L 281 1793.5  A 1.5 1.5 0 0 1 279.5 1792 L 279.5 1784  Z " stroke-width="1" stroke="#7f7f7f" fill="none" />
</svg>