<?xml version="1.0" encoding="utf-8"?>
<svg version="1.1" xmlns:xlink="http://www.w3.org/1999/xlink" width="12px" height="12px" viewBox="400 1665  12 12" xmlns="http://www.w3.org/2000/svg">
  <path d="M 400.5 1667  A 1.5 1.5 0 0 1 402 1665.5 L 410 1665.5  A 1.5 1.5 0 0 1 411.5 1667 L 411.5 1675  A 1.5 1.5 0 0 1 410 1676.5 L 402 1676.5  A 1.5 1.5 0 0 1 400.5 1675 L 400.5 1667  Z " fill-rule="nonzero" fill="#f0f0f0" stroke="none" />
  <path d="M 400.5 1667  A 1.5 1.5 0 0 1 402 1665.5 L 410 1665.5  A 1.5 1.5 0 0 1 411.5 1667 L 411.5 1675  A 1.5 1.5 0 0 1 410 1676.5 L 402 1676.5  A 1.5 1.5 0 0 1 400.5 1675 L 400.5 1667  Z " stroke-width="1" stroke="#7f7f7f" fill="none" />
  <path d="M 402.571428571429 1671  L 405.142857142857 1673.57142857143  " stroke-width="2.57142857142857" stroke="#7f7f7f" fill="none" />
  <path d="M 405.142857142857 1673.57142857143  L 409.428571428571 1667.57142857143  " stroke-width="2.57142857142857" stroke="#7f7f7f" fill="none" />
</svg>