<?xml version="1.0" encoding="utf-8"?>
<svg version="1.1" xmlns:xlink="http://www.w3.org/1999/xlink" width="12px" height="12px" viewBox="596 1614  12 12" xmlns="http://www.w3.org/2000/svg">
  <path d="M 596.5 1616  A 1.5 1.5 0 0 1 598 1614.5 L 606 1614.5  A 1.5 1.5 0 0 1 607.5 1616 L 607.5 1624  A 1.5 1.5 0 0 1 606 1625.5 L 598 1625.5  A 1.5 1.5 0 0 1 596.5 1624 L 596.5 1616  Z " fill-rule="nonzero" fill="#f0f0f0" stroke="none" />
  <path d="M 596.5 1616  A 1.5 1.5 0 0 1 598 1614.5 L 606 1614.5  A 1.5 1.5 0 0 1 607.5 1616 L 607.5 1624  A 1.5 1.5 0 0 1 606 1625.5 L 598 1625.5  A 1.5 1.5 0 0 1 596.5 1624 L 596.5 1616  Z " stroke-width="1" stroke="#7f7f7f" fill="none" />
</svg>