<?xml version="1.0" encoding="utf-8"?>
<svg version="1.1" xmlns:xlink="http://www.w3.org/1999/xlink" width="12px" height="12px" viewBox="284 189  12 12" xmlns="http://www.w3.org/2000/svg">
  <path d="M 284.5 191  A 1.5 1.5 0 0 1 286 189.5 L 294 189.5  A 1.5 1.5 0 0 1 295.5 191 L 295.5 199  A 1.5 1.5 0 0 1 294 200.5 L 286 200.5  A 1.5 1.5 0 0 1 284.5 199 L 284.5 191  Z " fill-rule="nonzero" fill="#f0f0f0" stroke="none" />
  <path d="M 284.5 191  A 1.5 1.5 0 0 1 286 189.5 L 294 189.5  A 1.5 1.5 0 0 1 295.5 191 L 295.5 199  A 1.5 1.5 0 0 1 294 200.5 L 286 200.5  A 1.5 1.5 0 0 1 284.5 199 L 284.5 191  Z " stroke-width="1" stroke="#797979" fill="none" />
  <path d="M 286.571428571429 195  L 289.142857142857 197.571428571429  " stroke-width="2.57142857142857" stroke="#797979" fill="none" />
  <path d="M 289.142857142857 197.571428571429  L 293.428571428571 191.571428571429  " stroke-width="2.57142857142857" stroke="#797979" fill="none" />
</svg>