<?xml version="1.0" encoding="utf-8"?>
<svg version="1.1" xmlns:xlink="http://www.w3.org/1999/xlink" width="12px" height="12px" viewBox="279 1521  12 12" xmlns="http://www.w3.org/2000/svg">
  <path d="M 279.5 1523  A 1.5 1.5 0 0 1 281 1521.5 L 289 1521.5  A 1.5 1.5 0 0 1 290.5 1523 L 290.5 1531  A 1.5 1.5 0 0 1 289 1532.5 L 281 1532.5  A 1.5 1.5 0 0 1 279.5 1531 L 279.5 1523  Z " fill-rule="nonzero" fill="#f0f0f0" stroke="none" />
  <path d="M 279.5 1523  A 1.5 1.5 0 0 1 281 1521.5 L 289 1521.5  A 1.5 1.5 0 0 1 290.5 1523 L 290.5 1531  A 1.5 1.5 0 0 1 289 1532.5 L 281 1532.5  A 1.5 1.5 0 0 1 279.5 1531 L 279.5 1523  Z " stroke-width="1" stroke="#7f7f7f" fill="none" />
  <path d="M 281.571428571429 1527  L 284.142857142857 1529.57142857143  " stroke-width="2.57142857142857" stroke="#7f7f7f" fill="none" />
  <path d="M 284.142857142857 1529.57142857143  L 288.428571428571 1523.57142857143  " stroke-width="2.57142857142857" stroke="#7f7f7f" fill="none" />
</svg>