<?xml version="1.0" encoding="utf-8"?>
<svg version="1.1" xmlns:xlink="http://www.w3.org/1999/xlink" width="12px" height="12px" viewBox="65 423  12 12" xmlns="http://www.w3.org/2000/svg">
  <path d="M 65.5 425  A 1.5 1.5 0 0 1 67 423.5 L 75 423.5  A 1.5 1.5 0 0 1 76.5 425 L 76.5 433  A 1.5 1.5 0 0 1 75 434.5 L 67 434.5  A 1.5 1.5 0 0 1 65.5 433 L 65.5 425  Z " fill-rule="nonzero" fill="#f0f0f0" stroke="none" />
  <path d="M 65.5 425  A 1.5 1.5 0 0 1 67 423.5 L 75 423.5  A 1.5 1.5 0 0 1 76.5 425 L 76.5 433  A 1.5 1.5 0 0 1 75 434.5 L 67 434.5  A 1.5 1.5 0 0 1 65.5 433 L 65.5 425  Z " stroke-width="1" stroke="#797979" fill="none" />
  <path d="M 67.5714285714286 429  L 70.1428571428571 431.571428571429  " stroke-width="2.57142857142857" stroke="#797979" fill="none" />
  <path d="M 70.1428571428571 431.571428571429  L 74.4285714285714 425.571428571429  " stroke-width="2.57142857142857" stroke="#797979" fill="none" />
</svg>