<?xml version="1.0" encoding="utf-8"?>
<svg version="1.1" xmlns:xlink="http://www.w3.org/1999/xlink" width="12px" height="12px" viewBox="43 1442  12 12" xmlns="http://www.w3.org/2000/svg">
  <path d="M 43.5 1444  A 1.5 1.5 0 0 1 45 1442.5 L 53 1442.5  A 1.5 1.5 0 0 1 54.5 1444 L 54.5 1452  A 1.5 1.5 0 0 1 53 1453.5 L 45 1453.5  A 1.5 1.5 0 0 1 43.5 1452 L 43.5 1444  Z " fill-rule="nonzero" fill="#f0f0f0" stroke="none" />
  <path d="M 43.5 1444  A 1.5 1.5 0 0 1 45 1442.5 L 53 1442.5  A 1.5 1.5 0 0 1 54.5 1444 L 54.5 1452  A 1.5 1.5 0 0 1 53 1453.5 L 45 1453.5  A 1.5 1.5 0 0 1 43.5 1452 L 43.5 1444  Z " stroke-width="1" stroke="#797979" fill="none" />
  <path d="M 45.5714285714286 1448  L 48.1428571428571 1450.57142857143  " stroke-width="2.57142857142857" stroke="#797979" fill="none" />
  <path d="M 48.1428571428571 1450.57142857143  L 52.4285714285714 1444.57142857143  " stroke-width="2.57142857142857" stroke="#797979" fill="none" />
</svg>