<?xml version="1.0" encoding="utf-8"?>
<svg version="1.1" xmlns:xlink="http://www.w3.org/1999/xlink" width="12px" height="12px" viewBox="65 380  12 12" xmlns="http://www.w3.org/2000/svg">
  <path d="M 65.5 382  A 1.5 1.5 0 0 1 67 380.5 L 75 380.5  A 1.5 1.5 0 0 1 76.5 382 L 76.5 390  A 1.5 1.5 0 0 1 75 391.5 L 67 391.5  A 1.5 1.5 0 0 1 65.5 390 L 65.5 382  Z " fill-rule="nonzero" fill="#ffffff" stroke="none" />
  <path d="M 65.5 382  A 1.5 1.5 0 0 1 67 380.5 L 75 380.5  A 1.5 1.5 0 0 1 76.5 382 L 76.5 390  A 1.5 1.5 0 0 1 75 391.5 L 67 391.5  A 1.5 1.5 0 0 1 65.5 390 L 65.5 382  Z " stroke-width="1" stroke="#797979" fill="none" />
</svg>