<?xml version="1.0" encoding="utf-8"?>
<svg version="1.1" xmlns:xlink="http://www.w3.org/1999/xlink" width="13px" height="13px" xmlns="http://www.w3.org/2000/svg">
  <g transform="matrix(1 0 0 1 -69 -281 )">
    <path d="M 10.0716145833333 5.41666666666667  C 10.0716145833333 5.56336805555556  10.0180121527778 5.69032118055556  9.91080729166667 5.79752604166667  L 6.33919270833333 9.369140625  C 6.23198784722222 9.47634548611111  6.10503472222222 9.52994791666667  5.95833333333333 9.52994791666667  C 5.81163194444444 9.52994791666667  5.68467881944444 9.47634548611111  5.57747395833333 9.369140625  L 3.08919270833333 6.880859375  C 2.98198784722222 6.77365451388889  2.92838541666667 6.64670138888889  2.92838541666667 6.5  C 2.92838541666667 6.35329861111111  2.98198784722222 6.22634548611111  3.08919270833333 6.119140625  L 3.95247395833333 5.255859375  C 4.05967881944444 5.14865451388889  4.18663194444444 5.09505208333333  4.33333333333333 5.09505208333333  C 4.48003472222222 5.09505208333333  4.60698784722222 5.14865451388889  4.71419270833333 5.255859375  L 5.95833333333333 6.5  L 8.28580729166667 4.17252604166667  C 8.39301215277778 4.06532118055556  8.51996527777778 4.01171875  8.66666666666667 4.01171875  C 8.81336805555556 4.01171875  8.94032118055556 4.06532118055556  9.04752604166667 4.17252604166667  L 9.91080729166667 5.03580729166667  C 10.0180121527778 5.14301215277778  10.0716145833333 5.26996527777778  10.0716145833333 5.41666666666667  Z M 10.486328125 8.810546875  C 10.8982204861111 8.10525173611111  11.1041666666667 7.33506944444444  11.1041666666667 6.5  C 11.1041666666667 5.66493055555556  10.8982204861111 4.89474826388889  10.486328125 4.189453125  C 10.0744357638889 3.48415798611111  9.51584201388889 2.92556423611111  8.810546875 2.513671875  C 8.10525173611111 2.10177951388889  7.33506944444444 1.89583333333333  6.5 1.89583333333333  C 5.66493055555556 1.89583333333333  4.89474826388889 2.10177951388889  4.189453125 2.513671875  C 3.48415798611111 2.92556423611111  2.92556423611111 3.48415798611111  2.513671875 4.189453125  C 2.10177951388889 4.89474826388889  1.89583333333333 5.66493055555556  1.89583333333333 6.5  C 1.89583333333333 7.33506944444444  2.10177951388889 8.10525173611111  2.513671875 8.810546875  C 2.92556423611111 9.51584201388889  3.48415798611111 10.0744357638889  4.189453125 10.486328125  C 4.89474826388889 10.8982204861111  5.66493055555556 11.1041666666667  6.5 11.1041666666667  C 7.33506944444444 11.1041666666667  8.10525173611111 10.8982204861111  8.810546875 10.486328125  C 9.51584201388889 10.0744357638889  10.0744357638889 9.51584201388889  10.486328125 8.810546875  Z M 12.1282552083333 3.2373046875  C 12.7094184027778 4.23318142361111  13 5.32074652777778  13 6.5  C 13 7.67925347222222  12.7094184027778 8.76681857638889  12.1282552083333 9.7626953125  C 11.5470920138889 10.7585720486111  10.7585720486111 11.5470920138889  9.7626953125 12.1282552083333  C 8.76681857638889 12.7094184027778  7.67925347222222 13  6.5 13  C 5.32074652777778 13  4.23318142361111 12.7094184027778  3.2373046875 12.1282552083333  C 2.24142795138889 11.5470920138889  1.45290798611111 10.7585720486111  0.871744791666667 9.7626953125  C 0.290581597222222 8.76681857638889  0 7.67925347222222  0 6.5  C 0 5.32074652777778  0.290581597222222 4.23318142361111  0.871744791666667 3.2373046875  C 1.45290798611111 2.24142795138889  2.24142795138889 1.45290798611111  3.2373046875 0.871744791666666  C 4.23318142361111 0.290581597222221  5.32074652777778 0  6.5 0  C 7.67925347222222 0  8.76681857638889 0.290581597222221  9.7626953125 0.871744791666666  C 10.7585720486111 1.45290798611111  11.5470920138889 2.24142795138889  12.1282552083333 3.2373046875  Z " fill-rule="nonzero" fill="#7f7f7f" stroke="none" transform="matrix(1 0 0 1 69 281 )" />
  </g>
</svg>