<?xml version="1.0" encoding="utf-8"?>
<svg version="1.1" xmlns:xlink="http://www.w3.org/1999/xlink" width="12px" height="12px" viewBox="844 493  12 12" xmlns="http://www.w3.org/2000/svg">
  <path d="M 844.5 495  A 1.5 1.5 0 0 1 846 493.5 L 854 493.5  A 1.5 1.5 0 0 1 855.5 495 L 855.5 503  A 1.5 1.5 0 0 1 854 504.5 L 846 504.5  A 1.5 1.5 0 0 1 844.5 503 L 844.5 495  Z " fill-rule="nonzero" fill="#f0f0f0" stroke="none" />
  <path d="M 844.5 495  A 1.5 1.5 0 0 1 846 493.5 L 854 493.5  A 1.5 1.5 0 0 1 855.5 495 L 855.5 503  A 1.5 1.5 0 0 1 854 504.5 L 846 504.5  A 1.5 1.5 0 0 1 844.5 503 L 844.5 495  Z " stroke-width="1" stroke="#7f7f7f" fill="none" />
  <path d="M 846.571428571429 499  L 849.142857142857 501.571428571429  " stroke-width="2.57142857142857" stroke="#7f7f7f" fill="none" />
  <path d="M 849.142857142857 501.571428571429  L 853.428571428571 495.571428571429  " stroke-width="2.57142857142857" stroke="#7f7f7f" fill="none" />
</svg>