<?xml version="1.0" encoding="utf-8"?>
<svg version="1.1" xmlns:xlink="http://www.w3.org/1999/xlink" width="12px" height="12px" viewBox="2074 564  12 12" xmlns="http://www.w3.org/2000/svg">
  <path d="M 2074.5 566  A 1.5 1.5 0 0 1 2076 564.5 L 2084 564.5  A 1.5 1.5 0 0 1 2085.5 566 L 2085.5 574  A 1.5 1.5 0 0 1 2084 575.5 L 2076 575.5  A 1.5 1.5 0 0 1 2074.5 574 L 2074.5 566  Z " fill-rule="nonzero" fill="#ffffff" stroke="none" />
  <path d="M 2074.5 566  A 1.5 1.5 0 0 1 2076 564.5 L 2084 564.5  A 1.5 1.5 0 0 1 2085.5 566 L 2085.5 574  A 1.5 1.5 0 0 1 2084 575.5 L 2076 575.5  A 1.5 1.5 0 0 1 2074.5 574 L 2074.5 566  Z " stroke-width="1" stroke="#7f7f7f" fill="none" />
</svg>