<?xml version="1.0" encoding="utf-8"?>
<svg version="1.1" xmlns:xlink="http://www.w3.org/1999/xlink" width="12px" height="12px" viewBox="2318 1534  12 12" xmlns="http://www.w3.org/2000/svg">
  <path d="M 2318.5 1536  A 1.5 1.5 0 0 1 2320 1534.5 L 2328 1534.5  A 1.5 1.5 0 0 1 2329.5 1536 L 2329.5 1544  A 1.5 1.5 0 0 1 2328 1545.5 L 2320 1545.5  A 1.5 1.5 0 0 1 2318.5 1544 L 2318.5 1536  Z " fill-rule="nonzero" fill="#ffffff" stroke="none" />
  <path d="M 2318.5 1536  A 1.5 1.5 0 0 1 2320 1534.5 L 2328 1534.5  A 1.5 1.5 0 0 1 2329.5 1536 L 2329.5 1544  A 1.5 1.5 0 0 1 2328 1545.5 L 2320 1545.5  A 1.5 1.5 0 0 1 2318.5 1544 L 2318.5 1536  Z " stroke-width="1" stroke="#7f7f7f" fill="none" />
</svg>