<?xml version="1.0" encoding="utf-8"?>
<svg version="1.1" xmlns:xlink="http://www.w3.org/1999/xlink" width="12px" height="12px" viewBox="2511 1534  12 12" xmlns="http://www.w3.org/2000/svg">
  <path d="M 2511.5 1536  A 1.5 1.5 0 0 1 2513 1534.5 L 2521 1534.5  A 1.5 1.5 0 0 1 2522.5 1536 L 2522.5 1544  A 1.5 1.5 0 0 1 2521 1545.5 L 2513 1545.5  A 1.5 1.5 0 0 1 2511.5 1544 L 2511.5 1536  Z " fill-rule="nonzero" fill="#f0f0f0" stroke="none" />
  <path d="M 2511.5 1536  A 1.5 1.5 0 0 1 2513 1534.5 L 2521 1534.5  A 1.5 1.5 0 0 1 2522.5 1536 L 2522.5 1544  A 1.5 1.5 0 0 1 2521 1545.5 L 2513 1545.5  A 1.5 1.5 0 0 1 2511.5 1544 L 2511.5 1536  Z " stroke-width="1" stroke="#7f7f7f" fill="none" />
</svg>