<?xml version="1.0" encoding="utf-8"?>
<svg version="1.1" xmlns:xlink="http://www.w3.org/1999/xlink" width="12px" height="12px" viewBox="604 443  12 12" xmlns="http://www.w3.org/2000/svg">
  <path d="M 604.5 445  A 1.5 1.5 0 0 1 606 443.5 L 614 443.5  A 1.5 1.5 0 0 1 615.5 445 L 615.5 453  A 1.5 1.5 0 0 1 614 454.5 L 606 454.5  A 1.5 1.5 0 0 1 604.5 453 L 604.5 445  Z " fill-rule="nonzero" fill="#f0f0f0" stroke="none" />
  <path d="M 604.5 445  A 1.5 1.5 0 0 1 606 443.5 L 614 443.5  A 1.5 1.5 0 0 1 615.5 445 L 615.5 453  A 1.5 1.5 0 0 1 614 454.5 L 606 454.5  A 1.5 1.5 0 0 1 604.5 453 L 604.5 445  Z " stroke-width="1" stroke="#7f7f7f" fill="none" />
  <path d="M 606.571428571429 449  L 609.142857142857 451.571428571429  " stroke-width="2.57142857142857" stroke="#7f7f7f" fill="none" />
  <path d="M 609.142857142857 451.571428571429  L 613.428571428571 445.571428571429  " stroke-width="2.57142857142857" stroke="#7f7f7f" fill="none" />
</svg>