<?xml version="1.0" encoding="utf-8"?>
<svg version="1.1" xmlns:xlink="http://www.w3.org/1999/xlink" width="12px" height="12px" viewBox="486 316  12 12" xmlns="http://www.w3.org/2000/svg">
  <path d="M 486.5 318  A 1.5 1.5 0 0 1 488 316.5 L 496 316.5  A 1.5 1.5 0 0 1 497.5 318 L 497.5 326  A 1.5 1.5 0 0 1 496 327.5 L 488 327.5  A 1.5 1.5 0 0 1 486.5 326 L 486.5 318  Z " fill-rule="nonzero" fill="#ffffff" stroke="none" />
  <path d="M 486.5 318  A 1.5 1.5 0 0 1 488 316.5 L 496 316.5  A 1.5 1.5 0 0 1 497.5 318 L 497.5 326  A 1.5 1.5 0 0 1 496 327.5 L 488 327.5  A 1.5 1.5 0 0 1 486.5 326 L 486.5 318  Z " stroke-width="1" stroke="#7f7f7f" fill="none" />
</svg>