<?xml version="1.0" encoding="utf-8"?>
<svg version="1.1" xmlns:xlink="http://www.w3.org/1999/xlink" width="12px" height="12px" viewBox="486 931  12 12" xmlns="http://www.w3.org/2000/svg">
  <path d="M 486.5 933  A 1.5 1.5 0 0 1 488 931.5 L 496 931.5  A 1.5 1.5 0 0 1 497.5 933 L 497.5 941  A 1.5 1.5 0 0 1 496 942.5 L 488 942.5  A 1.5 1.5 0 0 1 486.5 941 L 486.5 933  Z " fill-rule="nonzero" fill="#ffffff" stroke="none" />
  <path d="M 486.5 933  A 1.5 1.5 0 0 1 488 931.5 L 496 931.5  A 1.5 1.5 0 0 1 497.5 933 L 497.5 941  A 1.5 1.5 0 0 1 496 942.5 L 488 942.5  A 1.5 1.5 0 0 1 486.5 941 L 486.5 933  Z " stroke-width="1" stroke="#7f7f7f" fill="none" />
</svg>