<?xml version="1.0" encoding="utf-8"?>
<svg version="1.1" xmlns:xlink="http://www.w3.org/1999/xlink" width="12px" height="12px" viewBox="1125 442  12 12" xmlns="http://www.w3.org/2000/svg">
  <path d="M 1125.5 444  A 1.5 1.5 0 0 1 1127 442.5 L 1135 442.5  A 1.5 1.5 0 0 1 1136.5 444 L 1136.5 452  A 1.5 1.5 0 0 1 1135 453.5 L 1127 453.5  A 1.5 1.5 0 0 1 1125.5 452 L 1125.5 444  Z " fill-rule="nonzero" fill="#ffffff" stroke="none" />
  <path d="M 1125.5 444  A 1.5 1.5 0 0 1 1127 442.5 L 1135 442.5  A 1.5 1.5 0 0 1 1136.5 444 L 1136.5 452  A 1.5 1.5 0 0 1 1135 453.5 L 1127 453.5  A 1.5 1.5 0 0 1 1125.5 452 L 1125.5 444  Z " stroke-width="1" stroke="#7f7f7f" fill="none" />
  <path d="M 1127.57142857143 448  L 1130.14285714286 450.571428571429  " stroke-width="2.57142857142857" stroke="#7f7f7f" fill="none" />
  <path d="M 1130.14285714286 450.571428571429  L 1134.42857142857 444.571428571429  " stroke-width="2.57142857142857" stroke="#7f7f7f" fill="none" />
</svg>