<?xml version="1.0" encoding="utf-8"?>
<svg version="1.1" xmlns:xlink="http://www.w3.org/1999/xlink" width="12px" height="12px" viewBox="486 393  12 12" xmlns="http://www.w3.org/2000/svg">
  <path d="M 486.5 395  A 1.5 1.5 0 0 1 488 393.5 L 496 393.5  A 1.5 1.5 0 0 1 497.5 395 L 497.5 403  A 1.5 1.5 0 0 1 496 404.5 L 488 404.5  A 1.5 1.5 0 0 1 486.5 403 L 486.5 395  Z " fill-rule="nonzero" fill="#ffffff" stroke="none" />
  <path d="M 486.5 395  A 1.5 1.5 0 0 1 488 393.5 L 496 393.5  A 1.5 1.5 0 0 1 497.5 395 L 497.5 403  A 1.5 1.5 0 0 1 496 404.5 L 488 404.5  A 1.5 1.5 0 0 1 486.5 403 L 486.5 395  Z " stroke-width="1" stroke="#7f7f7f" fill="none" />
</svg>