<?xml version="1.0" encoding="utf-8"?>
<svg version="1.1" xmlns:xlink="http://www.w3.org/1999/xlink" width="12px" height="12px" viewBox="606 646  12 12" xmlns="http://www.w3.org/2000/svg">
  <path d="M 606.5 648  A 1.5 1.5 0 0 1 608 646.5 L 616 646.5  A 1.5 1.5 0 0 1 617.5 648 L 617.5 656  A 1.5 1.5 0 0 1 616 657.5 L 608 657.5  A 1.5 1.5 0 0 1 606.5 656 L 606.5 648  Z " fill-rule="nonzero" fill="#f0f0f0" stroke="none" />
  <path d="M 606.5 648  A 1.5 1.5 0 0 1 608 646.5 L 616 646.5  A 1.5 1.5 0 0 1 617.5 648 L 617.5 656  A 1.5 1.5 0 0 1 616 657.5 L 608 657.5  A 1.5 1.5 0 0 1 606.5 656 L 606.5 648  Z " stroke-width="1" stroke="#7f7f7f" fill="none" />
  <path d="M 608.571428571429 652  L 611.142857142857 654.571428571429  " stroke-width="2.57142857142857" stroke="#7f7f7f" fill="none" />
  <path d="M 611.142857142857 654.571428571429  L 615.428571428571 648.571428571429  " stroke-width="2.57142857142857" stroke="#7f7f7f" fill="none" />
</svg>