<?xml version="1.0" encoding="utf-8"?>
<svg version="1.1" xmlns:xlink="http://www.w3.org/1999/xlink" width="12px" height="12px" viewBox="604 443  12 12" xmlns="http://www.w3.org/2000/svg">
  <path d="M 604.5 445  A 1.5 1.5 0 0 1 606 443.5 L 614 443.5  A 1.5 1.5 0 0 1 615.5 445 L 615.5 453  A 1.5 1.5 0 0 1 614 454.5 L 606 454.5  A 1.5 1.5 0 0 1 604.5 453 L 604.5 445  Z " fill-rule="nonzero" fill="#ffffff" stroke="none" />
  <path d="M 604.5 445  A 1.5 1.5 0 0 1 606 443.5 L 614 443.5  A 1.5 1.5 0 0 1 615.5 445 L 615.5 453  A 1.5 1.5 0 0 1 614 454.5 L 606 454.5  A 1.5 1.5 0 0 1 604.5 453 L 604.5 445  Z " stroke-width="1" stroke="#7f7f7f" fill="none" />
</svg>