<?xml version="1.0" encoding="utf-8"?>
<svg version="1.1" xmlns:xlink="http://www.w3.org/1999/xlink" width="12px" height="12px" viewBox="725 729  12 12" xmlns="http://www.w3.org/2000/svg">
  <path d="M 725.5 731  A 1.5 1.5 0 0 1 727 729.5 L 735 729.5  A 1.5 1.5 0 0 1 736.5 731 L 736.5 739  A 1.5 1.5 0 0 1 735 740.5 L 727 740.5  A 1.5 1.5 0 0 1 725.5 739 L 725.5 731  Z " fill-rule="nonzero" fill="#ffffff" stroke="none" />
  <path d="M 725.5 731  A 1.5 1.5 0 0 1 727 729.5 L 735 729.5  A 1.5 1.5 0 0 1 736.5 731 L 736.5 739  A 1.5 1.5 0 0 1 735 740.5 L 727 740.5  A 1.5 1.5 0 0 1 725.5 739 L 725.5 731  Z " stroke-width="1" stroke="#7f7f7f" fill="none" />
</svg>