<?xml version="1.0" encoding="utf-8"?>
<svg version="1.1" xmlns:xlink="http://www.w3.org/1999/xlink" width="12px" height="12px" viewBox="606 731  12 12" xmlns="http://www.w3.org/2000/svg">
  <path d="M 606.5 733  A 1.5 1.5 0 0 1 608 731.5 L 616 731.5  A 1.5 1.5 0 0 1 617.5 733 L 617.5 741  A 1.5 1.5 0 0 1 616 742.5 L 608 742.5  A 1.5 1.5 0 0 1 606.5 741 L 606.5 733  Z " fill-rule="nonzero" fill="#f0f0f0" stroke="none" />
  <path d="M 606.5 733  A 1.5 1.5 0 0 1 608 731.5 L 616 731.5  A 1.5 1.5 0 0 1 617.5 733 L 617.5 741  A 1.5 1.5 0 0 1 616 742.5 L 608 742.5  A 1.5 1.5 0 0 1 606.5 741 L 606.5 733  Z " stroke-width="1" stroke="#7f7f7f" fill="none" />
  <path d="M 608.571428571429 737  L 611.142857142857 739.571428571429  " stroke-width="2.57142857142857" stroke="#7f7f7f" fill="none" />
  <path d="M 611.142857142857 739.571428571429  L 615.428571428571 733.571428571429  " stroke-width="2.57142857142857" stroke="#7f7f7f" fill="none" />
</svg>