<?xml version="1.0" encoding="utf-8"?>
<svg version="1.1" xmlns:xlink="http://www.w3.org/1999/xlink" width="12px" height="12px" viewBox="994 696  12 12" xmlns="http://www.w3.org/2000/svg">
  <path d="M 994.5 698  A 1.5 1.5 0 0 1 996 696.5 L 1004 696.5  A 1.5 1.5 0 0 1 1005.5 698 L 1005.5 706  A 1.5 1.5 0 0 1 1004 707.5 L 996 707.5  A 1.5 1.5 0 0 1 994.5 706 L 994.5 698  Z " fill-rule="nonzero" fill="#ffffff" stroke="none" />
  <path d="M 994.5 698  A 1.5 1.5 0 0 1 996 696.5 L 1004 696.5  A 1.5 1.5 0 0 1 1005.5 698 L 1005.5 706  A 1.5 1.5 0 0 1 1004 707.5 L 996 707.5  A 1.5 1.5 0 0 1 994.5 706 L 994.5 698  Z " stroke-width="1" stroke="#7f7f7f" fill="none" />
  <path d="M 996.571428571429 702  L 999.142857142857 704.571428571429  " stroke-width="2.57142857142857" stroke="#7f7f7f" fill="none" />
  <path d="M 999.142857142857 704.571428571429  L 1003.42857142857 698.571428571429  " stroke-width="2.57142857142857" stroke="#7f7f7f" fill="none" />
</svg>