<?xml version="1.0" encoding="utf-8"?>
<svg version="1.1" xmlns:xlink="http://www.w3.org/1999/xlink" width="12px" height="12px" viewBox="994 729  12 12" xmlns="http://www.w3.org/2000/svg">
  <path d="M 994.5 731  A 1.5 1.5 0 0 1 996 729.5 L 1004 729.5  A 1.5 1.5 0 0 1 1005.5 731 L 1005.5 739  A 1.5 1.5 0 0 1 1004 740.5 L 996 740.5  A 1.5 1.5 0 0 1 994.5 739 L 994.5 731  Z " fill-rule="nonzero" fill="#f0f0f0" stroke="none" />
  <path d="M 994.5 731  A 1.5 1.5 0 0 1 996 729.5 L 1004 729.5  A 1.5 1.5 0 0 1 1005.5 731 L 1005.5 739  A 1.5 1.5 0 0 1 1004 740.5 L 996 740.5  A 1.5 1.5 0 0 1 994.5 739 L 994.5 731  Z " stroke-width="1" stroke="#7f7f7f" fill="none" />
  <path d="M 996.571428571429 735  L 999.142857142857 737.571428571429  " stroke-width="2.57142857142857" stroke="#7f7f7f" fill="none" />
  <path d="M 999.142857142857 737.571428571429  L 1003.42857142857 731.571428571429  " stroke-width="2.57142857142857" stroke="#7f7f7f" fill="none" />
</svg>