<?xml version="1.0" encoding="utf-8"?>
<svg version="1.1" xmlns:xlink="http://www.w3.org/1999/xlink" width="12px" height="12px" viewBox="486 1180  12 12" xmlns="http://www.w3.org/2000/svg">
  <path d="M 486.5 1182  A 1.5 1.5 0 0 1 488 1180.5 L 496 1180.5  A 1.5 1.5 0 0 1 497.5 1182 L 497.5 1190  A 1.5 1.5 0 0 1 496 1191.5 L 488 1191.5  A 1.5 1.5 0 0 1 486.5 1190 L 486.5 1182  Z " fill-rule="nonzero" fill="#f0f0f0" stroke="none" />
  <path d="M 486.5 1182  A 1.5 1.5 0 0 1 488 1180.5 L 496 1180.5  A 1.5 1.5 0 0 1 497.5 1182 L 497.5 1190  A 1.5 1.5 0 0 1 496 1191.5 L 488 1191.5  A 1.5 1.5 0 0 1 486.5 1190 L 486.5 1182  Z " stroke-width="1" stroke="#7f7f7f" fill="none" />
  <path d="M 488.571428571429 1186  L 491.142857142857 1188.57142857143  " stroke-width="2.57142857142857" stroke="#7f7f7f" fill="none" />
  <path d="M 491.142857142857 1188.57142857143  L 495.428571428571 1182.57142857143  " stroke-width="2.57142857142857" stroke="#7f7f7f" fill="none" />
</svg>