<?xml version="1.0" encoding="utf-8"?>
<svg version="1.1" xmlns:xlink="http://www.w3.org/1999/xlink" width="12px" height="12px" viewBox="486 1381  12 12" xmlns="http://www.w3.org/2000/svg">
  <path d="M 486.5 1383  A 1.5 1.5 0 0 1 488 1381.5 L 496 1381.5  A 1.5 1.5 0 0 1 497.5 1383 L 497.5 1391  A 1.5 1.5 0 0 1 496 1392.5 L 488 1392.5  A 1.5 1.5 0 0 1 486.5 1391 L 486.5 1383  Z " fill-rule="nonzero" fill="#f0f0f0" stroke="none" />
  <path d="M 486.5 1383  A 1.5 1.5 0 0 1 488 1381.5 L 496 1381.5  A 1.5 1.5 0 0 1 497.5 1383 L 497.5 1391  A 1.5 1.5 0 0 1 496 1392.5 L 488 1392.5  A 1.5 1.5 0 0 1 486.5 1391 L 486.5 1383  Z " stroke-width="1" stroke="#7f7f7f" fill="none" />
  <path d="M 488.571428571429 1387  L 491.142857142857 1389.57142857143  " stroke-width="2.57142857142857" stroke="#7f7f7f" fill="none" />
  <path d="M 491.142857142857 1389.57142857143  L 495.428571428571 1383.57142857143  " stroke-width="2.57142857142857" stroke="#7f7f7f" fill="none" />
</svg>