<?xml version="1.0" encoding="utf-8"?>
<svg version="1.1" xmlns:xlink="http://www.w3.org/1999/xlink" width="12px" height="12px" viewBox="994 1280  12 12" xmlns="http://www.w3.org/2000/svg">
  <path d="M 994.5 1282  A 1.5 1.5 0 0 1 996 1280.5 L 1004 1280.5  A 1.5 1.5 0 0 1 1005.5 1282 L 1005.5 1290  A 1.5 1.5 0 0 1 1004 1291.5 L 996 1291.5  A 1.5 1.5 0 0 1 994.5 1290 L 994.5 1282  Z " fill-rule="nonzero" fill="#f0f0f0" stroke="none" />
  <path d="M 994.5 1282  A 1.5 1.5 0 0 1 996 1280.5 L 1004 1280.5  A 1.5 1.5 0 0 1 1005.5 1282 L 1005.5 1290  A 1.5 1.5 0 0 1 1004 1291.5 L 996 1291.5  A 1.5 1.5 0 0 1 994.5 1290 L 994.5 1282  Z " stroke-width="1" stroke="#7f7f7f" fill="none" />
</svg>