<?xml version="1.0" encoding="utf-8"?>
<svg version="1.1" xmlns:xlink="http://www.w3.org/1999/xlink" width="12px" height="12px" viewBox="1125 1229  12 12" xmlns="http://www.w3.org/2000/svg">
  <path d="M 1125.5 1231  A 1.5 1.5 0 0 1 1127 1229.5 L 1135 1229.5  A 1.5 1.5 0 0 1 1136.5 1231 L 1136.5 1239  A 1.5 1.5 0 0 1 1135 1240.5 L 1127 1240.5  A 1.5 1.5 0 0 1 1125.5 1239 L 1125.5 1231  Z " fill-rule="nonzero" fill="#f0f0f0" stroke="none" />
  <path d="M 1125.5 1231  A 1.5 1.5 0 0 1 1127 1229.5 L 1135 1229.5  A 1.5 1.5 0 0 1 1136.5 1231 L 1136.5 1239  A 1.5 1.5 0 0 1 1135 1240.5 L 1127 1240.5  A 1.5 1.5 0 0 1 1125.5 1239 L 1125.5 1231  Z " stroke-width="1" stroke="#7f7f7f" fill="none" />
</svg>