<?xml version="1.0" encoding="utf-8"?>
<svg version="1.1" xmlns:xlink="http://www.w3.org/1999/xlink" width="12px" height="12px" viewBox="604 1331  12 12" xmlns="http://www.w3.org/2000/svg">
  <path d="M 604.5 1333  A 1.5 1.5 0 0 1 606 1331.5 L 614 1331.5  A 1.5 1.5 0 0 1 615.5 1333 L 615.5 1341  A 1.5 1.5 0 0 1 614 1342.5 L 606 1342.5  A 1.5 1.5 0 0 1 604.5 1341 L 604.5 1333  Z " fill-rule="nonzero" fill="#ffffff" stroke="none" />
  <path d="M 604.5 1333  A 1.5 1.5 0 0 1 606 1331.5 L 614 1331.5  A 1.5 1.5 0 0 1 615.5 1333 L 615.5 1341  A 1.5 1.5 0 0 1 614 1342.5 L 606 1342.5  A 1.5 1.5 0 0 1 604.5 1341 L 604.5 1333  Z " stroke-width="1" stroke="#7f7f7f" fill="none" />
  <path d="M 606.571428571429 1337  L 609.142857142857 1339.57142857143  " stroke-width="2.57142857142857" stroke="#7f7f7f" fill="none" />
  <path d="M 609.142857142857 1339.57142857143  L 613.428571428571 1333.57142857143  " stroke-width="2.57142857142857" stroke="#7f7f7f" fill="none" />
</svg>