<?xml version="1.0" encoding="utf-8"?>
<svg version="1.1" xmlns:xlink="http://www.w3.org/1999/xlink" width="12px" height="12px" viewBox="725 1552  12 12" xmlns="http://www.w3.org/2000/svg">
  <path d="M 725.5 1554  A 1.5 1.5 0 0 1 727 1552.5 L 735 1552.5  A 1.5 1.5 0 0 1 736.5 1554 L 736.5 1562  A 1.5 1.5 0 0 1 735 1563.5 L 727 1563.5  A 1.5 1.5 0 0 1 725.5 1562 L 725.5 1554  Z " fill-rule="nonzero" fill="#f0f0f0" stroke="none" />
  <path d="M 725.5 1554  A 1.5 1.5 0 0 1 727 1552.5 L 735 1552.5  A 1.5 1.5 0 0 1 736.5 1554 L 736.5 1562  A 1.5 1.5 0 0 1 735 1563.5 L 727 1563.5  A 1.5 1.5 0 0 1 725.5 1562 L 725.5 1554  Z " stroke-width="1" stroke="#7f7f7f" fill="none" />
  <path d="M 727.571428571429 1558  L 730.142857142857 1560.57142857143  " stroke-width="2.57142857142857" stroke="#7f7f7f" fill="none" />
  <path d="M 730.142857142857 1560.57142857143  L 734.428571428571 1554.57142857143  " stroke-width="2.57142857142857" stroke="#7f7f7f" fill="none" />
</svg>