<?xml version="1.0" encoding="utf-8"?>
<svg version="1.1" xmlns:xlink="http://www.w3.org/1999/xlink" width="12px" height="12px" viewBox="994 1483  12 12" xmlns="http://www.w3.org/2000/svg">
  <path d="M 994.5 1485  A 1.5 1.5 0 0 1 996 1483.5 L 1004 1483.5  A 1.5 1.5 0 0 1 1005.5 1485 L 1005.5 1493  A 1.5 1.5 0 0 1 1004 1494.5 L 996 1494.5  A 1.5 1.5 0 0 1 994.5 1493 L 994.5 1485  Z " fill-rule="nonzero" fill="#f0f0f0" stroke="none" />
  <path d="M 994.5 1485  A 1.5 1.5 0 0 1 996 1483.5 L 1004 1483.5  A 1.5 1.5 0 0 1 1005.5 1485 L 1005.5 1493  A 1.5 1.5 0 0 1 1004 1494.5 L 996 1494.5  A 1.5 1.5 0 0 1 994.5 1493 L 994.5 1485  Z " stroke-width="1" stroke="#7f7f7f" fill="none" />
  <path d="M 996.571428571429 1489  L 999.142857142857 1491.57142857143  " stroke-width="2.57142857142857" stroke="#7f7f7f" fill="none" />
  <path d="M 999.142857142857 1491.57142857143  L 1003.42857142857 1485.57142857143  " stroke-width="2.57142857142857" stroke="#7f7f7f" fill="none" />
</svg>