<?xml version="1.0" encoding="utf-8"?>
<svg version="1.1" xmlns:xlink="http://www.w3.org/1999/xlink" width="12px" height="12px" viewBox="486 1718  12 12" xmlns="http://www.w3.org/2000/svg">
  <path d="M 486.5 1720  A 1.5 1.5 0 0 1 488 1718.5 L 496 1718.5  A 1.5 1.5 0 0 1 497.5 1720 L 497.5 1728  A 1.5 1.5 0 0 1 496 1729.5 L 488 1729.5  A 1.5 1.5 0 0 1 486.5 1728 L 486.5 1720  Z " fill-rule="nonzero" fill="#ffffff" stroke="none" />
  <path d="M 486.5 1720  A 1.5 1.5 0 0 1 488 1718.5 L 496 1718.5  A 1.5 1.5 0 0 1 497.5 1720 L 497.5 1728  A 1.5 1.5 0 0 1 496 1729.5 L 488 1729.5  A 1.5 1.5 0 0 1 486.5 1728 L 486.5 1720  Z " stroke-width="1" stroke="#7f7f7f" fill="none" />
  <path d="M 488.571428571429 1724  L 491.142857142857 1726.57142857143  " stroke-width="2.57142857142857" stroke="#7f7f7f" fill="none" />
  <path d="M 491.142857142857 1726.57142857143  L 495.428571428571 1720.57142857143  " stroke-width="2.57142857142857" stroke="#7f7f7f" fill="none" />
</svg>