<?xml version="1.0" encoding="utf-8"?>
<svg version="1.1" xmlns:xlink="http://www.w3.org/1999/xlink" width="12px" height="12px" viewBox="2595 361  12 12" xmlns="http://www.w3.org/2000/svg">
  <path d="M 2595.5 363  A 1.5 1.5 0 0 1 2597 361.5 L 2605 361.5  A 1.5 1.5 0 0 1 2606.5 363 L 2606.5 371  A 1.5 1.5 0 0 1 2605 372.5 L 2597 372.5  A 1.5 1.5 0 0 1 2595.5 371 L 2595.5 363  Z " fill-rule="nonzero" fill="#ffffff" stroke="none" />
  <path d="M 2595.5 363  A 1.5 1.5 0 0 1 2597 361.5 L 2605 361.5  A 1.5 1.5 0 0 1 2606.5 363 L 2606.5 371  A 1.5 1.5 0 0 1 2605 372.5 L 2597 372.5  A 1.5 1.5 0 0 1 2595.5 371 L 2595.5 363  Z " stroke-width="1" stroke="#7f7f7f" fill="none" />
  <path d="M 2597.57142857143 367  L 2600.14285714286 369.571428571429  " stroke-width="2.57142857142857" stroke="#7f7f7f" fill="none" />
  <path d="M 2600.14285714286 369.571428571429  L 2604.42857142857 363.571428571429  " stroke-width="2.57142857142857" stroke="#7f7f7f" fill="none" />
</svg>