<?xml version="1.0" encoding="utf-8"?>
<svg version="1.1" xmlns:xlink="http://www.w3.org/1999/xlink" width="12px" height="12px" viewBox="2195 771  12 12" xmlns="http://www.w3.org/2000/svg">
  <path d="M 2195.5 773  A 1.5 1.5 0 0 1 2197 771.5 L 2205 771.5  A 1.5 1.5 0 0 1 2206.5 773 L 2206.5 781  A 1.5 1.5 0 0 1 2205 782.5 L 2197 782.5  A 1.5 1.5 0 0 1 2195.5 781 L 2195.5 773  Z " fill-rule="nonzero" fill="#ffffff" stroke="none" />
  <path d="M 2195.5 773  A 1.5 1.5 0 0 1 2197 771.5 L 2205 771.5  A 1.5 1.5 0 0 1 2206.5 773 L 2206.5 781  A 1.5 1.5 0 0 1 2205 782.5 L 2197 782.5  A 1.5 1.5 0 0 1 2195.5 781 L 2195.5 773  Z " stroke-width="1" stroke="#7f7f7f" fill="none" />
</svg>