<?xml version="1.0" encoding="utf-8"?>
<svg version="1.1" xmlns:xlink="http://www.w3.org/1999/xlink" width="12px" height="12px" viewBox="2376 361  12 12" xmlns="http://www.w3.org/2000/svg">
  <path d="M 2376.5 363  A 1.5 1.5 0 0 1 2378 361.5 L 2386 361.5  A 1.5 1.5 0 0 1 2387.5 363 L 2387.5 371  A 1.5 1.5 0 0 1 2386 372.5 L 2378 372.5  A 1.5 1.5 0 0 1 2376.5 371 L 2376.5 363  Z " fill-rule="nonzero" fill="#ffffff" stroke="none" />
  <path d="M 2376.5 363  A 1.5 1.5 0 0 1 2378 361.5 L 2386 361.5  A 1.5 1.5 0 0 1 2387.5 363 L 2387.5 371  A 1.5 1.5 0 0 1 2386 372.5 L 2378 372.5  A 1.5 1.5 0 0 1 2376.5 371 L 2376.5 363  Z " stroke-width="1" stroke="#7f7f7f" fill="none" />
</svg>