<?xml version="1.0" encoding="utf-8"?>
<svg version="1.1" xmlns:xlink="http://www.w3.org/1999/xlink" width="12px" height="12px" viewBox="1956 670  12 12" xmlns="http://www.w3.org/2000/svg">
  <path d="M 1956.5 672  A 1.5 1.5 0 0 1 1958 670.5 L 1966 670.5  A 1.5 1.5 0 0 1 1967.5 672 L 1967.5 680  A 1.5 1.5 0 0 1 1966 681.5 L 1958 681.5  A 1.5 1.5 0 0 1 1956.5 680 L 1956.5 672  Z " fill-rule="nonzero" fill="#ffffff" stroke="none" />
  <path d="M 1956.5 672  A 1.5 1.5 0 0 1 1958 670.5 L 1966 670.5  A 1.5 1.5 0 0 1 1967.5 672 L 1967.5 680  A 1.5 1.5 0 0 1 1966 681.5 L 1958 681.5  A 1.5 1.5 0 0 1 1956.5 680 L 1956.5 672  Z " stroke-width="1" stroke="#7f7f7f" fill="none" />
  <path d="M 1958.57142857143 676  L 1961.14285714286 678.571428571429  " stroke-width="2.57142857142857" stroke="#7f7f7f" fill="none" />
  <path d="M 1961.14285714286 678.571428571429  L 1965.42857142857 672.571428571429  " stroke-width="2.57142857142857" stroke="#7f7f7f" fill="none" />
</svg>