<?xml version="1.0" encoding="utf-8"?>
<svg version="1.1" xmlns:xlink="http://www.w3.org/1999/xlink" width="12px" height="12px" viewBox="2314 666  12 12" xmlns="http://www.w3.org/2000/svg">
  <path d="M 2314.5 668  A 1.5 1.5 0 0 1 2316 666.5 L 2324 666.5  A 1.5 1.5 0 0 1 2325.5 668 L 2325.5 676  A 1.5 1.5 0 0 1 2324 677.5 L 2316 677.5  A 1.5 1.5 0 0 1 2314.5 676 L 2314.5 668  Z " fill-rule="nonzero" fill="#ffffff" stroke="none" />
  <path d="M 2314.5 668  A 1.5 1.5 0 0 1 2316 666.5 L 2324 666.5  A 1.5 1.5 0 0 1 2325.5 668 L 2325.5 676  A 1.5 1.5 0 0 1 2324 677.5 L 2316 677.5  A 1.5 1.5 0 0 1 2314.5 676 L 2314.5 668  Z " stroke-width="1" stroke="#7f7f7f" fill="none" />
  <path d="M 2316.57142857143 672  L 2319.14285714286 674.571428571429  " stroke-width="2.57142857142857" stroke="#7f7f7f" fill="none" />
  <path d="M 2319.14285714286 674.571428571429  L 2323.42857142857 668.571428571429  " stroke-width="2.57142857142857" stroke="#7f7f7f" fill="none" />
</svg>