<?xml version="1.0" encoding="utf-8"?>
<svg version="1.1" xmlns:xlink="http://www.w3.org/1999/xlink" width="12px" height="12px" viewBox="2687 718  12 12" xmlns="http://www.w3.org/2000/svg">
  <path d="M 2687.5 720  A 1.5 1.5 0 0 1 2689 718.5 L 2697 718.5  A 1.5 1.5 0 0 1 2698.5 720 L 2698.5 728  A 1.5 1.5 0 0 1 2697 729.5 L 2689 729.5  A 1.5 1.5 0 0 1 2687.5 728 L 2687.5 720  Z " fill-rule="nonzero" fill="#f0f0f0" stroke="none" />
  <path d="M 2687.5 720  A 1.5 1.5 0 0 1 2689 718.5 L 2697 718.5  A 1.5 1.5 0 0 1 2698.5 720 L 2698.5 728  A 1.5 1.5 0 0 1 2697 729.5 L 2689 729.5  A 1.5 1.5 0 0 1 2687.5 728 L 2687.5 720  Z " stroke-width="1" stroke="#7f7f7f" fill="none" />
</svg>