<?xml version="1.0" encoding="utf-8"?>
<svg version="1.1" xmlns:xlink="http://www.w3.org/1999/xlink" width="12px" height="12px" viewBox="2314 614  12 12" xmlns="http://www.w3.org/2000/svg">
  <path d="M 2314.5 616  A 1.5 1.5 0 0 1 2316 614.5 L 2324 614.5  A 1.5 1.5 0 0 1 2325.5 616 L 2325.5 624  A 1.5 1.5 0 0 1 2324 625.5 L 2316 625.5  A 1.5 1.5 0 0 1 2314.5 624 L 2314.5 616  Z " fill-rule="nonzero" fill="#f0f0f0" stroke="none" />
  <path d="M 2314.5 616  A 1.5 1.5 0 0 1 2316 614.5 L 2324 614.5  A 1.5 1.5 0 0 1 2325.5 616 L 2325.5 624  A 1.5 1.5 0 0 1 2324 625.5 L 2316 625.5  A 1.5 1.5 0 0 1 2314.5 624 L 2314.5 616  Z " stroke-width="1" stroke="#7f7f7f" fill="none" />
</svg>