<?xml version="1.0" encoding="utf-8"?>
<svg version="1.1" xmlns:xlink="http://www.w3.org/1999/xlink" width="12px" height="12px" viewBox="2184 1378  12 12" xmlns="http://www.w3.org/2000/svg">
  <path d="M 2184.5 1380  A 1.5 1.5 0 0 1 2186 1378.5 L 2194 1378.5  A 1.5 1.5 0 0 1 2195.5 1380 L 2195.5 1388  A 1.5 1.5 0 0 1 2194 1389.5 L 2186 1389.5  A 1.5 1.5 0 0 1 2184.5 1388 L 2184.5 1380  Z " fill-rule="nonzero" fill="#ffffff" stroke="none" />
  <path d="M 2184.5 1380  A 1.5 1.5 0 0 1 2186 1378.5 L 2194 1378.5  A 1.5 1.5 0 0 1 2195.5 1380 L 2195.5 1388  A 1.5 1.5 0 0 1 2194 1389.5 L 2186 1389.5  A 1.5 1.5 0 0 1 2184.5 1388 L 2184.5 1380  Z " stroke-width="1" stroke="#7f7f7f" fill="none" />
</svg>