<?xml version="1.0" encoding="utf-8"?>
<svg version="1.1" xmlns:xlink="http://www.w3.org/1999/xlink" width="12px" height="12px" viewBox="2314 1031  12 12" xmlns="http://www.w3.org/2000/svg">
  <path d="M 2314.5 1033  A 1.5 1.5 0 0 1 2316 1031.5 L 2324 1031.5  A 1.5 1.5 0 0 1 2325.5 1033 L 2325.5 1041  A 1.5 1.5 0 0 1 2324 1042.5 L 2316 1042.5  A 1.5 1.5 0 0 1 2314.5 1041 L 2314.5 1033  Z " fill-rule="nonzero" fill="#f0f0f0" stroke="none" />
  <path d="M 2314.5 1033  A 1.5 1.5 0 0 1 2316 1031.5 L 2324 1031.5  A 1.5 1.5 0 0 1 2325.5 1033 L 2325.5 1041  A 1.5 1.5 0 0 1 2324 1042.5 L 2316 1042.5  A 1.5 1.5 0 0 1 2314.5 1041 L 2314.5 1033  Z " stroke-width="1" stroke="#7f7f7f" fill="none" />
  <path d="M 2316.57142857143 1037  L 2319.14285714286 1039.57142857143  " stroke-width="2.57142857142857" stroke="#7f7f7f" fill="none" />
  <path d="M 2319.14285714286 1039.57142857143  L 2323.42857142857 1033.57142857143  " stroke-width="2.57142857142857" stroke="#7f7f7f" fill="none" />
</svg>