<?xml version="1.0" encoding="utf-8"?>
<svg version="1.1" xmlns:xlink="http://www.w3.org/1999/xlink" width="12px" height="12px" viewBox="2184 1326  12 12" xmlns="http://www.w3.org/2000/svg">
  <path d="M 2184.5 1328  A 1.5 1.5 0 0 1 2186 1326.5 L 2194 1326.5  A 1.5 1.5 0 0 1 2195.5 1328 L 2195.5 1336  A 1.5 1.5 0 0 1 2194 1337.5 L 2186 1337.5  A 1.5 1.5 0 0 1 2184.5 1336 L 2184.5 1328  Z " fill-rule="nonzero" fill="#f0f0f0" stroke="none" />
  <path d="M 2184.5 1328  A 1.5 1.5 0 0 1 2186 1326.5 L 2194 1326.5  A 1.5 1.5 0 0 1 2195.5 1328 L 2195.5 1336  A 1.5 1.5 0 0 1 2194 1337.5 L 2186 1337.5  A 1.5 1.5 0 0 1 2184.5 1336 L 2184.5 1328  Z " stroke-width="1" stroke="#7f7f7f" fill="none" />
  <path d="M 2186.57142857143 1332  L 2189.14285714286 1334.57142857143  " stroke-width="2.57142857142857" stroke="#7f7f7f" fill="none" />
  <path d="M 2189.14285714286 1334.57142857143  L 2193.42857142857 1328.57142857143  " stroke-width="2.57142857142857" stroke="#7f7f7f" fill="none" />
</svg>