<?xml version="1.0" encoding="utf-8"?>
<svg version="1.1" xmlns:xlink="http://www.w3.org/1999/xlink" width="12px" height="12px" viewBox="2476 1031  12 12" xmlns="http://www.w3.org/2000/svg">
  <path d="M 2476.5 1033  A 1.5 1.5 0 0 1 2478 1031.5 L 2486 1031.5  A 1.5 1.5 0 0 1 2487.5 1033 L 2487.5 1041  A 1.5 1.5 0 0 1 2486 1042.5 L 2478 1042.5  A 1.5 1.5 0 0 1 2476.5 1041 L 2476.5 1033  Z " fill-rule="nonzero" fill="#f0f0f0" stroke="none" />
  <path d="M 2476.5 1033  A 1.5 1.5 0 0 1 2478 1031.5 L 2486 1031.5  A 1.5 1.5 0 0 1 2487.5 1033 L 2487.5 1041  A 1.5 1.5 0 0 1 2486 1042.5 L 2478 1042.5  A 1.5 1.5 0 0 1 2476.5 1041 L 2476.5 1033  Z " stroke-width="1" stroke="#7f7f7f" fill="none" />
</svg>