<?xml version="1.0" encoding="utf-8"?>
<svg version="1.1" xmlns:xlink="http://www.w3.org/1999/xlink" width="12px" height="12px" viewBox="2318 1430  12 12" xmlns="http://www.w3.org/2000/svg">
  <path d="M 2318.5 1432  A 1.5 1.5 0 0 1 2320 1430.5 L 2328 1430.5  A 1.5 1.5 0 0 1 2329.5 1432 L 2329.5 1440  A 1.5 1.5 0 0 1 2328 1441.5 L 2320 1441.5  A 1.5 1.5 0 0 1 2318.5 1440 L 2318.5 1432  Z " fill-rule="nonzero" fill="#f0f0f0" stroke="none" />
  <path d="M 2318.5 1432  A 1.5 1.5 0 0 1 2320 1430.5 L 2328 1430.5  A 1.5 1.5 0 0 1 2329.5 1432 L 2329.5 1440  A 1.5 1.5 0 0 1 2328 1441.5 L 2320 1441.5  A 1.5 1.5 0 0 1 2318.5 1440 L 2318.5 1432  Z " stroke-width="1" stroke="#7f7f7f" fill="none" />
  <path d="M 2320.57142857143 1436  L 2323.14285714286 1438.57142857143  " stroke-width="2.57142857142857" stroke="#7f7f7f" fill="none" />
  <path d="M 2323.14285714286 1438.57142857143  L 2327.42857142857 1432.57142857143  " stroke-width="2.57142857142857" stroke="#7f7f7f" fill="none" />
</svg>