<?xml version="1.0" encoding="utf-8"?>
<svg version="1.1" xmlns:xlink="http://www.w3.org/1999/xlink" width="12px" height="12px" viewBox="2074 1507  12 12" xmlns="http://www.w3.org/2000/svg">
  <path d="M 2074.5 1509  A 1.5 1.5 0 0 1 2076 1507.5 L 2084 1507.5  A 1.5 1.5 0 0 1 2085.5 1509 L 2085.5 1517  A 1.5 1.5 0 0 1 2084 1518.5 L 2076 1518.5  A 1.5 1.5 0 0 1 2074.5 1517 L 2074.5 1509  Z " fill-rule="nonzero" fill="#ffffff" stroke="none" />
  <path d="M 2074.5 1509  A 1.5 1.5 0 0 1 2076 1507.5 L 2084 1507.5  A 1.5 1.5 0 0 1 2085.5 1509 L 2085.5 1517  A 1.5 1.5 0 0 1 2084 1518.5 L 2076 1518.5  A 1.5 1.5 0 0 1 2074.5 1517 L 2074.5 1509  Z " stroke-width="1" stroke="#7f7f7f" fill="none" />
  <path d="M 2076.57142857143 1513  L 2079.14285714286 1515.57142857143  " stroke-width="2.57142857142857" stroke="#7f7f7f" fill="none" />
  <path d="M 2079.14285714286 1515.57142857143  L 2083.42857142857 1509.57142857143  " stroke-width="2.57142857142857" stroke="#7f7f7f" fill="none" />
</svg>