<?xml version="1.0" encoding="utf-8"?>
<svg version="1.1" xmlns:xlink="http://www.w3.org/1999/xlink" width="12px" height="12px" viewBox="604 393  12 12" xmlns="http://www.w3.org/2000/svg">
  <path d="M 604.5 395  A 1.5 1.5 0 0 1 606 393.5 L 614 393.5  A 1.5 1.5 0 0 1 615.5 395 L 615.5 403  A 1.5 1.5 0 0 1 614 404.5 L 606 404.5  A 1.5 1.5 0 0 1 604.5 403 L 604.5 395  Z " fill-rule="nonzero" fill="#ffffff" stroke="none" />
  <path d="M 604.5 395  A 1.5 1.5 0 0 1 606 393.5 L 614 393.5  A 1.5 1.5 0 0 1 615.5 395 L 615.5 403  A 1.5 1.5 0 0 1 614 404.5 L 606 404.5  A 1.5 1.5 0 0 1 604.5 403 L 604.5 395  Z " stroke-width="1" stroke="#7f7f7f" fill="none" />
  <path d="M 606.571428571429 399  L 609.142857142857 401.571428571429  " stroke-width="2.57142857142857" stroke="#7f7f7f" fill="none" />
  <path d="M 609.142857142857 401.571428571429  L 613.428571428571 395.571428571429  " stroke-width="2.57142857142857" stroke="#7f7f7f" fill="none" />
</svg>