<?xml version="1.0" encoding="utf-8"?>
<svg version="1.1" xmlns:xlink="http://www.w3.org/1999/xlink" width="12px" height="12px" viewBox="994 393  12 12" xmlns="http://www.w3.org/2000/svg">
  <path d="M 994.5 395  A 1.5 1.5 0 0 1 996 393.5 L 1004 393.5  A 1.5 1.5 0 0 1 1005.5 395 L 1005.5 403  A 1.5 1.5 0 0 1 1004 404.5 L 996 404.5  A 1.5 1.5 0 0 1 994.5 403 L 994.5 395  Z " fill-rule="nonzero" fill="#f0f0f0" stroke="none" />
  <path d="M 994.5 395  A 1.5 1.5 0 0 1 996 393.5 L 1004 393.5  A 1.5 1.5 0 0 1 1005.5 395 L 1005.5 403  A 1.5 1.5 0 0 1 1004 404.5 L 996 404.5  A 1.5 1.5 0 0 1 994.5 403 L 994.5 395  Z " stroke-width="1" stroke="#7f7f7f" fill="none" />
  <path d="M 996.571428571429 399  L 999.142857142857 401.571428571429  " stroke-width="2.57142857142857" stroke="#7f7f7f" fill="none" />
  <path d="M 999.142857142857 401.571428571429  L 1003.42857142857 395.571428571429  " stroke-width="2.57142857142857" stroke="#7f7f7f" fill="none" />
</svg>