<?xml version="1.0" encoding="utf-8"?>
<svg version="1.1" xmlns:xlink="http://www.w3.org/1999/xlink" width="12px" height="12px" viewBox="725 645  12 12" xmlns="http://www.w3.org/2000/svg">
  <path d="M 725.5 647  A 1.5 1.5 0 0 1 727 645.5 L 735 645.5  A 1.5 1.5 0 0 1 736.5 647 L 736.5 655  A 1.5 1.5 0 0 1 735 656.5 L 727 656.5  A 1.5 1.5 0 0 1 725.5 655 L 725.5 647  Z " fill-rule="nonzero" fill="#f0f0f0" stroke="none" />
  <path d="M 725.5 647  A 1.5 1.5 0 0 1 727 645.5 L 735 645.5  A 1.5 1.5 0 0 1 736.5 647 L 736.5 655  A 1.5 1.5 0 0 1 735 656.5 L 727 656.5  A 1.5 1.5 0 0 1 725.5 655 L 725.5 647  Z " stroke-width="1" stroke="#7f7f7f" fill="none" />
  <path d="M 727.571428571429 651  L 730.142857142857 653.571428571429  " stroke-width="2.57142857142857" stroke="#7f7f7f" fill="none" />
  <path d="M 730.142857142857 653.571428571429  L 734.428571428571 647.571428571429  " stroke-width="2.57142857142857" stroke="#7f7f7f" fill="none" />
</svg>