<?xml version="1.0" encoding="utf-8"?>
<svg version="1.1" xmlns:xlink="http://www.w3.org/1999/xlink" width="12px" height="12px" viewBox="725 543  12 12" xmlns="http://www.w3.org/2000/svg">
  <path d="M 725.5 545  A 1.5 1.5 0 0 1 727 543.5 L 735 543.5  A 1.5 1.5 0 0 1 736.5 545 L 736.5 553  A 1.5 1.5 0 0 1 735 554.5 L 727 554.5  A 1.5 1.5 0 0 1 725.5 553 L 725.5 545  Z " fill-rule="nonzero" fill="#ffffff" stroke="none" />
  <path d="M 725.5 545  A 1.5 1.5 0 0 1 727 543.5 L 735 543.5  A 1.5 1.5 0 0 1 736.5 545 L 736.5 553  A 1.5 1.5 0 0 1 735 554.5 L 727 554.5  A 1.5 1.5 0 0 1 725.5 553 L 725.5 545  Z " stroke-width="1" stroke="#7f7f7f" fill="none" />
</svg>