<?xml version="1.0" encoding="utf-8"?>
<svg version="1.1" xmlns:xlink="http://www.w3.org/1999/xlink" width="12px" height="12px" viewBox="604 988  12 12" xmlns="http://www.w3.org/2000/svg">
  <path d="M 604.5 990  A 1.5 1.5 0 0 1 606 988.5 L 614 988.5  A 1.5 1.5 0 0 1 615.5 990 L 615.5 998  A 1.5 1.5 0 0 1 614 999.5 L 606 999.5  A 1.5 1.5 0 0 1 604.5 998 L 604.5 990  Z " fill-rule="nonzero" fill="#f0f0f0" stroke="none" />
  <path d="M 604.5 990  A 1.5 1.5 0 0 1 606 988.5 L 614 988.5  A 1.5 1.5 0 0 1 615.5 990 L 615.5 998  A 1.5 1.5 0 0 1 614 999.5 L 606 999.5  A 1.5 1.5 0 0 1 604.5 998 L 604.5 990  Z " stroke-width="1" stroke="#7f7f7f" fill="none" />
</svg>