<?xml version="1.0" encoding="utf-8"?>
<svg version="1.1" xmlns:xlink="http://www.w3.org/1999/xlink" width="12px" height="12px" viewBox="844 1330  12 12" xmlns="http://www.w3.org/2000/svg">
  <path d="M 844.5 1332  A 1.5 1.5 0 0 1 846 1330.5 L 854 1330.5  A 1.5 1.5 0 0 1 855.5 1332 L 855.5 1340  A 1.5 1.5 0 0 1 854 1341.5 L 846 1341.5  A 1.5 1.5 0 0 1 844.5 1340 L 844.5 1332  Z " fill-rule="nonzero" fill="#ffffff" stroke="none" />
  <path d="M 844.5 1332  A 1.5 1.5 0 0 1 846 1330.5 L 854 1330.5  A 1.5 1.5 0 0 1 855.5 1332 L 855.5 1340  A 1.5 1.5 0 0 1 854 1341.5 L 846 1341.5  A 1.5 1.5 0 0 1 844.5 1340 L 844.5 1332  Z " stroke-width="1" stroke="#7f7f7f" fill="none" />
  <path d="M 846.571428571429 1336  L 849.142857142857 1338.57142857143  " stroke-width="2.57142857142857" stroke="#7f7f7f" fill="none" />
  <path d="M 849.142857142857 1338.57142857143  L 853.428571428571 1332.57142857143  " stroke-width="2.57142857142857" stroke="#7f7f7f" fill="none" />
</svg>