<?xml version="1.0" encoding="utf-8"?>
<svg version="1.1" xmlns:xlink="http://www.w3.org/1999/xlink" width="12px" height="12px" viewBox="604 1731  12 12" xmlns="http://www.w3.org/2000/svg">
  <path d="M 604.5 1733  A 1.5 1.5 0 0 1 606 1731.5 L 614 1731.5  A 1.5 1.5 0 0 1 615.5 1733 L 615.5 1741  A 1.5 1.5 0 0 1 614 1742.5 L 606 1742.5  A 1.5 1.5 0 0 1 604.5 1741 L 604.5 1733  Z " fill-rule="nonzero" fill="#ffffff" stroke="none" />
  <path d="M 604.5 1733  A 1.5 1.5 0 0 1 606 1731.5 L 614 1731.5  A 1.5 1.5 0 0 1 615.5 1733 L 615.5 1741  A 1.5 1.5 0 0 1 614 1742.5 L 606 1742.5  A 1.5 1.5 0 0 1 604.5 1741 L 604.5 1733  Z " stroke-width="1" stroke="#7f7f7f" fill="none" />
  <path d="M 606.571428571429 1737  L 609.142857142857 1739.57142857143  " stroke-width="2.57142857142857" stroke="#7f7f7f" fill="none" />
  <path d="M 609.142857142857 1739.57142857143  L 613.428571428571 1733.57142857143  " stroke-width="2.57142857142857" stroke="#7f7f7f" fill="none" />
</svg>