<?xml version="1.0" encoding="utf-8"?>
<svg version="1.1" xmlns:xlink="http://www.w3.org/1999/xlink" width="12px" height="12px" viewBox="604 1643  12 12" xmlns="http://www.w3.org/2000/svg">
  <path d="M 604.5 1645  A 1.5 1.5 0 0 1 606 1643.5 L 614 1643.5  A 1.5 1.5 0 0 1 615.5 1645 L 615.5 1653  A 1.5 1.5 0 0 1 614 1654.5 L 606 1654.5  A 1.5 1.5 0 0 1 604.5 1653 L 604.5 1645  Z " fill-rule="nonzero" fill="#f0f0f0" stroke="none" />
  <path d="M 604.5 1645  A 1.5 1.5 0 0 1 606 1643.5 L 614 1643.5  A 1.5 1.5 0 0 1 615.5 1645 L 615.5 1653  A 1.5 1.5 0 0 1 614 1654.5 L 606 1654.5  A 1.5 1.5 0 0 1 604.5 1653 L 604.5 1645  Z " stroke-width="1" stroke="#7f7f7f" fill="none" />
</svg>