<?xml version="1.0" encoding="utf-8"?>
<svg version="1.1" xmlns:xlink="http://www.w3.org/1999/xlink" width="12px" height="12px" viewBox="606 1433  12 12" xmlns="http://www.w3.org/2000/svg">
  <path d="M 606.5 1435  A 1.5 1.5 0 0 1 608 1433.5 L 616 1433.5  A 1.5 1.5 0 0 1 617.5 1435 L 617.5 1443  A 1.5 1.5 0 0 1 616 1444.5 L 608 1444.5  A 1.5 1.5 0 0 1 606.5 1443 L 606.5 1435  Z " fill-rule="nonzero" fill="#ffffff" stroke="none" />
  <path d="M 606.5 1435  A 1.5 1.5 0 0 1 608 1433.5 L 616 1433.5  A 1.5 1.5 0 0 1 617.5 1435 L 617.5 1443  A 1.5 1.5 0 0 1 616 1444.5 L 608 1444.5  A 1.5 1.5 0 0 1 606.5 1443 L 606.5 1435  Z " stroke-width="1" stroke="#7f7f7f" fill="none" />
  <path d="M 608.571428571429 1439  L 611.142857142857 1441.57142857143  " stroke-width="2.57142857142857" stroke="#7f7f7f" fill="none" />
  <path d="M 611.142857142857 1441.57142857143  L 615.428571428571 1435.57142857143  " stroke-width="2.57142857142857" stroke="#7f7f7f" fill="none" />
</svg>