<?xml version="1.0" encoding="utf-8"?>
<svg version="1.1" xmlns:xlink="http://www.w3.org/1999/xlink" width="12px" height="12px" viewBox="725 1516  12 12" xmlns="http://www.w3.org/2000/svg">
  <path d="M 725.5 1518  A 1.5 1.5 0 0 1 727 1516.5 L 735 1516.5  A 1.5 1.5 0 0 1 736.5 1518 L 736.5 1526  A 1.5 1.5 0 0 1 735 1527.5 L 727 1527.5  A 1.5 1.5 0 0 1 725.5 1526 L 725.5 1518  Z " fill-rule="nonzero" fill="#ffffff" stroke="none" />
  <path d="M 725.5 1518  A 1.5 1.5 0 0 1 727 1516.5 L 735 1516.5  A 1.5 1.5 0 0 1 736.5 1518 L 736.5 1526  A 1.5 1.5 0 0 1 735 1527.5 L 727 1527.5  A 1.5 1.5 0 0 1 725.5 1526 L 725.5 1518  Z " stroke-width="1" stroke="#7f7f7f" fill="none" />
</svg>