<?xml version="1.0" encoding="utf-8"?>
<svg version="1.1" xmlns:xlink="http://www.w3.org/1999/xlink" width="12px" height="12px" viewBox="1196 392  12 12" xmlns="http://www.w3.org/2000/svg">
  <path d="M 1196.5 394  A 1.5 1.5 0 0 1 1198 392.5 L 1206 392.5  A 1.5 1.5 0 0 1 1207.5 394 L 1207.5 402  A 1.5 1.5 0 0 1 1206 403.5 L 1198 403.5  A 1.5 1.5 0 0 1 1196.5 402 L 1196.5 394  Z " fill-rule="nonzero" fill="#f0f0f0" stroke="none" />
  <path d="M 1196.5 394  A 1.5 1.5 0 0 1 1198 392.5 L 1206 392.5  A 1.5 1.5 0 0 1 1207.5 394 L 1207.5 402  A 1.5 1.5 0 0 1 1206 403.5 L 1198 403.5  A 1.5 1.5 0 0 1 1196.5 402 L 1196.5 394  Z " stroke-width="1" stroke="#7f7f7f" fill="none" />
</svg>