<?xml version="1.0" encoding="utf-8"?>
<svg version="1.1" xmlns:xlink="http://www.w3.org/1999/xlink" width="12px" height="12px" viewBox="927 644  12 12" xmlns="http://www.w3.org/2000/svg">
  <path d="M 927.5 646  A 1.5 1.5 0 0 1 929 644.5 L 937 644.5  A 1.5 1.5 0 0 1 938.5 646 L 938.5 654  A 1.5 1.5 0 0 1 937 655.5 L 929 655.5  A 1.5 1.5 0 0 1 927.5 654 L 927.5 646  Z " fill-rule="nonzero" fill="#ffffff" stroke="none" />
  <path d="M 927.5 646  A 1.5 1.5 0 0 1 929 644.5 L 937 644.5  A 1.5 1.5 0 0 1 938.5 646 L 938.5 654  A 1.5 1.5 0 0 1 937 655.5 L 929 655.5  A 1.5 1.5 0 0 1 927.5 654 L 927.5 646  Z " stroke-width="1" stroke="#7f7f7f" fill="none" />
</svg>