<?xml version="1.0" encoding="utf-8"?>
<svg version="1.1" xmlns:xlink="http://www.w3.org/1999/xlink" width="12px" height="12px" viewBox="808 730  12 12" xmlns="http://www.w3.org/2000/svg">
  <path d="M 808.5 732  A 1.5 1.5 0 0 1 810 730.5 L 818 730.5  A 1.5 1.5 0 0 1 819.5 732 L 819.5 740  A 1.5 1.5 0 0 1 818 741.5 L 810 741.5  A 1.5 1.5 0 0 1 808.5 740 L 808.5 732  Z " fill-rule="nonzero" fill="#ffffff" stroke="none" />
  <path d="M 808.5 732  A 1.5 1.5 0 0 1 810 730.5 L 818 730.5  A 1.5 1.5 0 0 1 819.5 732 L 819.5 740  A 1.5 1.5 0 0 1 818 741.5 L 810 741.5  A 1.5 1.5 0 0 1 808.5 740 L 808.5 732  Z " stroke-width="1" stroke="#7f7f7f" fill="none" />
</svg>