<?xml version="1.0" encoding="utf-8"?>
<svg version="1.1" xmlns:xlink="http://www.w3.org/1999/xlink" width="12px" height="12px" viewBox="806 855  12 12" xmlns="http://www.w3.org/2000/svg">
  <path d="M 806.5 857  A 1.5 1.5 0 0 1 808 855.5 L 816 855.5  A 1.5 1.5 0 0 1 817.5 857 L 817.5 865  A 1.5 1.5 0 0 1 816 866.5 L 808 866.5  A 1.5 1.5 0 0 1 806.5 865 L 806.5 857  Z " fill-rule="nonzero" fill="#ffffff" stroke="none" />
  <path d="M 806.5 857  A 1.5 1.5 0 0 1 808 855.5 L 816 855.5  A 1.5 1.5 0 0 1 817.5 857 L 817.5 865  A 1.5 1.5 0 0 1 816 866.5 L 808 866.5  A 1.5 1.5 0 0 1 806.5 865 L 806.5 857  Z " stroke-width="1" stroke="#7f7f7f" fill="none" />
  <path d="M 808.571428571429 861  L 811.142857142857 863.571428571429  " stroke-width="2.57142857142857" stroke="#7f7f7f" fill="none" />
  <path d="M 811.142857142857 863.571428571429  L 815.428571428571 857.571428571429  " stroke-width="2.57142857142857" stroke="#7f7f7f" fill="none" />
</svg>