<?xml version="1.0" encoding="utf-8"?>
<svg version="1.1" xmlns:xlink="http://www.w3.org/1999/xlink" width="12px" height="12px" viewBox="688 1380  12 12" xmlns="http://www.w3.org/2000/svg">
  <path d="M 688.5 1382  A 1.5 1.5 0 0 1 690 1380.5 L 698 1380.5  A 1.5 1.5 0 0 1 699.5 1382 L 699.5 1390  A 1.5 1.5 0 0 1 698 1391.5 L 690 1391.5  A 1.5 1.5 0 0 1 688.5 1390 L 688.5 1382  Z " fill-rule="nonzero" fill="#f0f0f0" stroke="none" />
  <path d="M 688.5 1382  A 1.5 1.5 0 0 1 690 1380.5 L 698 1380.5  A 1.5 1.5 0 0 1 699.5 1382 L 699.5 1390  A 1.5 1.5 0 0 1 698 1391.5 L 690 1391.5  A 1.5 1.5 0 0 1 688.5 1390 L 688.5 1382  Z " stroke-width="1" stroke="#7f7f7f" fill="none" />
  <path d="M 690.571428571429 1386  L 693.142857142857 1388.57142857143  " stroke-width="2.57142857142857" stroke="#7f7f7f" fill="none" />
  <path d="M 693.142857142857 1388.57142857143  L 697.428571428571 1382.57142857143  " stroke-width="2.57142857142857" stroke="#7f7f7f" fill="none" />
</svg>