<?xml version="1.0" encoding="utf-8"?>
<svg version="1.1" xmlns:xlink="http://www.w3.org/1999/xlink" width="12px" height="12px" viewBox="688 1102  12 12" xmlns="http://www.w3.org/2000/svg">
  <path d="M 688.5 1104  A 1.5 1.5 0 0 1 690 1102.5 L 698 1102.5  A 1.5 1.5 0 0 1 699.5 1104 L 699.5 1112  A 1.5 1.5 0 0 1 698 1113.5 L 690 1113.5  A 1.5 1.5 0 0 1 688.5 1112 L 688.5 1104  Z " fill-rule="nonzero" fill="#f0f0f0" stroke="none" />
  <path d="M 688.5 1104  A 1.5 1.5 0 0 1 690 1102.5 L 698 1102.5  A 1.5 1.5 0 0 1 699.5 1104 L 699.5 1112  A 1.5 1.5 0 0 1 698 1113.5 L 690 1113.5  A 1.5 1.5 0 0 1 688.5 1112 L 688.5 1104  Z " stroke-width="1" stroke="#7f7f7f" fill="none" />
</svg>