<?xml version="1.0" encoding="utf-8"?>
<svg version="1.1" xmlns:xlink="http://www.w3.org/1999/xlink" width="12px" height="12px" viewBox="1046 1279  12 12" xmlns="http://www.w3.org/2000/svg">
  <path d="M 1046.5 1281  A 1.5 1.5 0 0 1 1048 1279.5 L 1056 1279.5  A 1.5 1.5 0 0 1 1057.5 1281 L 1057.5 1289  A 1.5 1.5 0 0 1 1056 1290.5 L 1048 1290.5  A 1.5 1.5 0 0 1 1046.5 1289 L 1046.5 1281  Z " fill-rule="nonzero" fill="#ffffff" stroke="none" />
  <path d="M 1046.5 1281  A 1.5 1.5 0 0 1 1048 1279.5 L 1056 1279.5  A 1.5 1.5 0 0 1 1057.5 1281 L 1057.5 1289  A 1.5 1.5 0 0 1 1056 1290.5 L 1048 1290.5  A 1.5 1.5 0 0 1 1046.5 1289 L 1046.5 1281  Z " stroke-width="1" stroke="#7f7f7f" fill="none" />
  <path d="M 1048.57142857143 1285  L 1051.14285714286 1287.57142857143  " stroke-width="2.57142857142857" stroke="#7f7f7f" fill="none" />
  <path d="M 1051.14285714286 1287.57142857143  L 1055.42857142857 1281.57142857143  " stroke-width="2.57142857142857" stroke="#7f7f7f" fill="none" />
</svg>