<?xml version="1.0" encoding="utf-8"?>
<svg version="1.1" xmlns:xlink="http://www.w3.org/1999/xlink" width="12px" height="12px" viewBox="2074 411  12 12" xmlns="http://www.w3.org/2000/svg">
  <path d="M 2074.5 413  A 1.5 1.5 0 0 1 2076 411.5 L 2084 411.5  A 1.5 1.5 0 0 1 2085.5 413 L 2085.5 421  A 1.5 1.5 0 0 1 2084 422.5 L 2076 422.5  A 1.5 1.5 0 0 1 2074.5 421 L 2074.5 413  Z " fill-rule="nonzero" fill="#ffffff" stroke="none" />
  <path d="M 2074.5 413  A 1.5 1.5 0 0 1 2076 411.5 L 2084 411.5  A 1.5 1.5 0 0 1 2085.5 413 L 2085.5 421  A 1.5 1.5 0 0 1 2084 422.5 L 2076 422.5  A 1.5 1.5 0 0 1 2074.5 421 L 2074.5 413  Z " stroke-width="1" stroke="#7f7f7f" fill="none" />
  <path d="M 2076.57142857143 417  L 2079.14285714286 419.571428571429  " stroke-width="2.57142857142857" stroke="#7f7f7f" fill="none" />
  <path d="M 2079.14285714286 419.571428571429  L 2083.42857142857 413.571428571429  " stroke-width="2.57142857142857" stroke="#7f7f7f" fill="none" />
</svg>