<?xml version="1.0" encoding="utf-8"?>
<svg version="1.1" xmlns:xlink="http://www.w3.org/1999/xlink" width="12px" height="12px" viewBox="1956 1166  12 12" xmlns="http://www.w3.org/2000/svg">
  <path d="M 1956.5 1168  A 1.5 1.5 0 0 1 1958 1166.5 L 1966 1166.5  A 1.5 1.5 0 0 1 1967.5 1168 L 1967.5 1176  A 1.5 1.5 0 0 1 1966 1177.5 L 1958 1177.5  A 1.5 1.5 0 0 1 1956.5 1176 L 1956.5 1168  Z " fill-rule="nonzero" fill="#ffffff" stroke="none" />
  <path d="M 1956.5 1168  A 1.5 1.5 0 0 1 1958 1166.5 L 1966 1166.5  A 1.5 1.5 0 0 1 1967.5 1168 L 1967.5 1176  A 1.5 1.5 0 0 1 1966 1177.5 L 1958 1177.5  A 1.5 1.5 0 0 1 1956.5 1176 L 1956.5 1168  Z " stroke-width="1" stroke="#7f7f7f" fill="none" />
</svg>