<?xml version="1.0" encoding="utf-8"?>
<svg version="1.1" xmlns:xlink="http://www.w3.org/1999/xlink" width="12px" height="12px" viewBox="2195 562  12 12" xmlns="http://www.w3.org/2000/svg">
  <path d="M 2195.5 564  A 1.5 1.5 0 0 1 2197 562.5 L 2205 562.5  A 1.5 1.5 0 0 1 2206.5 564 L 2206.5 572  A 1.5 1.5 0 0 1 2205 573.5 L 2197 573.5  A 1.5 1.5 0 0 1 2195.5 572 L 2195.5 564  Z " fill-rule="nonzero" fill="#f0f0f0" stroke="none" />
  <path d="M 2195.5 564  A 1.5 1.5 0 0 1 2197 562.5 L 2205 562.5  A 1.5 1.5 0 0 1 2206.5 564 L 2206.5 572  A 1.5 1.5 0 0 1 2205 573.5 L 2197 573.5  A 1.5 1.5 0 0 1 2195.5 572 L 2195.5 564  Z " stroke-width="1" stroke="#7f7f7f" fill="none" />
  <path d="M 2197.57142857143 568  L 2200.14285714286 570.571428571429  " stroke-width="2.57142857142857" stroke="#7f7f7f" fill="none" />
  <path d="M 2200.14285714286 570.571428571429  L 2204.42857142857 564.571428571429  " stroke-width="2.57142857142857" stroke="#7f7f7f" fill="none" />
</svg>