<?xml version="1.0" encoding="utf-8"?>
<svg version="1.1" xmlns:xlink="http://www.w3.org/1999/xlink" width="12px" height="12px" viewBox="2074 875  12 12" xmlns="http://www.w3.org/2000/svg">
  <path d="M 2074.5 877  A 1.5 1.5 0 0 1 2076 875.5 L 2084 875.5  A 1.5 1.5 0 0 1 2085.5 877 L 2085.5 885  A 1.5 1.5 0 0 1 2084 886.5 L 2076 886.5  A 1.5 1.5 0 0 1 2074.5 885 L 2074.5 877  Z " fill-rule="nonzero" fill="#ffffff" stroke="none" />
  <path d="M 2074.5 877  A 1.5 1.5 0 0 1 2076 875.5 L 2084 875.5  A 1.5 1.5 0 0 1 2085.5 877 L 2085.5 885  A 1.5 1.5 0 0 1 2084 886.5 L 2076 886.5  A 1.5 1.5 0 0 1 2074.5 885 L 2074.5 877  Z " stroke-width="1" stroke="#7f7f7f" fill="none" />
</svg>