<?xml version="1.0" encoding="utf-8"?>
<svg version="1.1" xmlns:xlink="http://www.w3.org/1999/xlink" width="12px" height="12px" viewBox="2074 1169  12 12" xmlns="http://www.w3.org/2000/svg">
  <path d="M 2074.5 1171  A 1.5 1.5 0 0 1 2076 1169.5 L 2084 1169.5  A 1.5 1.5 0 0 1 2085.5 1171 L 2085.5 1179  A 1.5 1.5 0 0 1 2084 1180.5 L 2076 1180.5  A 1.5 1.5 0 0 1 2074.5 1179 L 2074.5 1171  Z " fill-rule="nonzero" fill="#f0f0f0" stroke="none" />
  <path d="M 2074.5 1171  A 1.5 1.5 0 0 1 2076 1169.5 L 2084 1169.5  A 1.5 1.5 0 0 1 2085.5 1171 L 2085.5 1179  A 1.5 1.5 0 0 1 2084 1180.5 L 2076 1180.5  A 1.5 1.5 0 0 1 2074.5 1179 L 2074.5 1171  Z " stroke-width="1" stroke="#7f7f7f" fill="none" />
  <path d="M 2076.57142857143 1175  L 2079.14285714286 1177.57142857143  " stroke-width="2.57142857142857" stroke="#7f7f7f" fill="none" />
  <path d="M 2079.14285714286 1177.57142857143  L 2083.42857142857 1171.57142857143  " stroke-width="2.57142857142857" stroke="#7f7f7f" fill="none" />
</svg>