<?xml version="1.0" encoding="utf-8"?>
<svg version="1.1" xmlns:xlink="http://www.w3.org/1999/xlink" width="12px" height="12px" viewBox="2478 1066  12 12" xmlns="http://www.w3.org/2000/svg">
  <path d="M 2478.5 1068  A 1.5 1.5 0 0 1 2480 1066.5 L 2488 1066.5  A 1.5 1.5 0 0 1 2489.5 1068 L 2489.5 1076  A 1.5 1.5 0 0 1 2488 1077.5 L 2480 1077.5  A 1.5 1.5 0 0 1 2478.5 1076 L 2478.5 1068  Z " fill-rule="nonzero" fill="#ffffff" stroke="none" />
  <path d="M 2478.5 1068  A 1.5 1.5 0 0 1 2480 1066.5 L 2488 1066.5  A 1.5 1.5 0 0 1 2489.5 1068 L 2489.5 1076  A 1.5 1.5 0 0 1 2488 1077.5 L 2480 1077.5  A 1.5 1.5 0 0 1 2478.5 1076 L 2478.5 1068  Z " stroke-width="1" stroke="#7f7f7f" fill="none" />
  <path d="M 2480.57142857143 1072  L 2483.14285714286 1074.57142857143  " stroke-width="2.57142857142857" stroke="#7f7f7f" fill="none" />
  <path d="M 2483.14285714286 1074.57142857143  L 2487.42857142857 1068.57142857143  " stroke-width="2.57142857142857" stroke="#7f7f7f" fill="none" />
</svg>