<?xml version="1.0" encoding="utf-8"?>
<svg version="1.1" xmlns:xlink="http://www.w3.org/1999/xlink" width="12px" height="12px" viewBox="2184 1482  12 12" xmlns="http://www.w3.org/2000/svg">
  <path d="M 2184.5 1484  A 1.5 1.5 0 0 1 2186 1482.5 L 2194 1482.5  A 1.5 1.5 0 0 1 2195.5 1484 L 2195.5 1492  A 1.5 1.5 0 0 1 2194 1493.5 L 2186 1493.5  A 1.5 1.5 0 0 1 2184.5 1492 L 2184.5 1484  Z " fill-rule="nonzero" fill="#ffffff" stroke="none" />
  <path d="M 2184.5 1484  A 1.5 1.5 0 0 1 2186 1482.5 L 2194 1482.5  A 1.5 1.5 0 0 1 2195.5 1484 L 2195.5 1492  A 1.5 1.5 0 0 1 2194 1493.5 L 2186 1493.5  A 1.5 1.5 0 0 1 2184.5 1492 L 2184.5 1484  Z " stroke-width="1" stroke="#7f7f7f" fill="none" />
  <path d="M 2186.57142857143 1488  L 2189.14285714286 1490.57142857143  " stroke-width="2.57142857142857" stroke="#7f7f7f" fill="none" />
  <path d="M 2189.14285714286 1490.57142857143  L 2193.42857142857 1484.57142857143  " stroke-width="2.57142857142857" stroke="#7f7f7f" fill="none" />
</svg>