<?xml version="1.0" encoding="utf-8"?>
<svg version="1.1" xmlns:xlink="http://www.w3.org/1999/xlink" width="12px" height="12px" viewBox="2195 1222  12 12" xmlns="http://www.w3.org/2000/svg">
  <path d="M 2195.5 1224  A 1.5 1.5 0 0 1 2197 1222.5 L 2205 1222.5  A 1.5 1.5 0 0 1 2206.5 1224 L 2206.5 1232  A 1.5 1.5 0 0 1 2205 1233.5 L 2197 1233.5  A 1.5 1.5 0 0 1 2195.5 1232 L 2195.5 1224  Z " fill-rule="nonzero" fill="#f0f0f0" stroke="none" />
  <path d="M 2195.5 1224  A 1.5 1.5 0 0 1 2197 1222.5 L 2205 1222.5  A 1.5 1.5 0 0 1 2206.5 1224 L 2206.5 1232  A 1.5 1.5 0 0 1 2205 1233.5 L 2197 1233.5  A 1.5 1.5 0 0 1 2195.5 1232 L 2195.5 1224  Z " stroke-width="1" stroke="#7f7f7f" fill="none" />
  <path d="M 2197.57142857143 1228  L 2200.14285714286 1230.57142857143  " stroke-width="2.57142857142857" stroke="#7f7f7f" fill="none" />
  <path d="M 2200.14285714286 1230.57142857143  L 2204.42857142857 1224.57142857143  " stroke-width="2.57142857142857" stroke="#7f7f7f" fill="none" />
</svg>