<?xml version="1.0" encoding="utf-8"?>
<svg version="1.1" xmlns:xlink="http://www.w3.org/1999/xlink" width="12px" height="12px" viewBox="3197 718  12 12" xmlns="http://www.w3.org/2000/svg">
  <path d="M 3197.5 720  A 1.5 1.5 0 0 1 3199 718.5 L 3207 718.5  A 1.5 1.5 0 0 1 3208.5 720 L 3208.5 728  A 1.5 1.5 0 0 1 3207 729.5 L 3199 729.5  A 1.5 1.5 0 0 1 3197.5 728 L 3197.5 720  Z " fill-rule="nonzero" fill="#f0f0f0" stroke="none" />
  <path d="M 3197.5 720  A 1.5 1.5 0 0 1 3199 718.5 L 3207 718.5  A 1.5 1.5 0 0 1 3208.5 720 L 3208.5 728  A 1.5 1.5 0 0 1 3207 729.5 L 3199 729.5  A 1.5 1.5 0 0 1 3197.5 728 L 3197.5 720  Z " stroke-width="1" stroke="#7f7f7f" fill="none" />
</svg>