<?xml version="1.0" encoding="utf-8"?>
<svg version="1.1" xmlns:xlink="http://www.w3.org/1999/xlink" width="12px" height="12px" viewBox="2716 666  12 12" xmlns="http://www.w3.org/2000/svg">
  <path d="M 2716.5 668  A 1.5 1.5 0 0 1 2718 666.5 L 2726 666.5  A 1.5 1.5 0 0 1 2727.5 668 L 2727.5 676  A 1.5 1.5 0 0 1 2726 677.5 L 2718 677.5  A 1.5 1.5 0 0 1 2716.5 676 L 2716.5 668  Z " fill-rule="nonzero" fill="#f0f0f0" stroke="none" />
  <path d="M 2716.5 668  A 1.5 1.5 0 0 1 2718 666.5 L 2726 666.5  A 1.5 1.5 0 0 1 2727.5 668 L 2727.5 676  A 1.5 1.5 0 0 1 2726 677.5 L 2718 677.5  A 1.5 1.5 0 0 1 2716.5 676 L 2716.5 668  Z " stroke-width="1" stroke="#7f7f7f" fill="none" />
</svg>