<?xml version="1.0" encoding="utf-8"?>
<svg version="1.1" xmlns:xlink="http://www.w3.org/1999/xlink" width="12px" height="12px" viewBox="2981 718  12 12" xmlns="http://www.w3.org/2000/svg">
  <path d="M 2981.5 720  A 1.5 1.5 0 0 1 2983 718.5 L 2991 718.5  A 1.5 1.5 0 0 1 2992.5 720 L 2992.5 728  A 1.5 1.5 0 0 1 2991 729.5 L 2983 729.5  A 1.5 1.5 0 0 1 2981.5 728 L 2981.5 720  Z " fill-rule="nonzero" fill="#f0f0f0" stroke="none" />
  <path d="M 2981.5 720  A 1.5 1.5 0 0 1 2983 718.5 L 2991 718.5  A 1.5 1.5 0 0 1 2992.5 720 L 2992.5 728  A 1.5 1.5 0 0 1 2991 729.5 L 2983 729.5  A 1.5 1.5 0 0 1 2981.5 728 L 2981.5 720  Z " stroke-width="1" stroke="#7f7f7f" fill="none" />
  <path d="M 2983.57142857143 724  L 2986.14285714286 726.571428571429  " stroke-width="2.57142857142857" stroke="#7f7f7f" fill="none" />
  <path d="M 2986.14285714286 726.571428571429  L 2990.42857142857 720.571428571429  " stroke-width="2.57142857142857" stroke="#7f7f7f" fill="none" />
</svg>