<?xml version="1.0" encoding="utf-8"?>
<svg version="1.1" xmlns:xlink="http://www.w3.org/1999/xlink" width="12px" height="12px" viewBox="2597 875  12 12" xmlns="http://www.w3.org/2000/svg">
  <path d="M 2597.5 877  A 1.5 1.5 0 0 1 2599 875.5 L 2607 875.5  A 1.5 1.5 0 0 1 2608.5 877 L 2608.5 885  A 1.5 1.5 0 0 1 2607 886.5 L 2599 886.5  A 1.5 1.5 0 0 1 2597.5 885 L 2597.5 877  Z " fill-rule="nonzero" fill="#ffffff" stroke="none" />
  <path d="M 2597.5 877  A 1.5 1.5 0 0 1 2599 875.5 L 2607 875.5  A 1.5 1.5 0 0 1 2608.5 877 L 2608.5 885  A 1.5 1.5 0 0 1 2607 886.5 L 2599 886.5  A 1.5 1.5 0 0 1 2597.5 885 L 2597.5 877  Z " stroke-width="1" stroke="#7f7f7f" fill="none" />
</svg>