<?xml version="1.0" encoding="utf-8"?>
<svg version="1.1" xmlns:xlink="http://www.w3.org/1999/xlink" width="12px" height="12px" viewBox="2597 823  12 12" xmlns="http://www.w3.org/2000/svg">
  <path d="M 2597.5 825  A 1.5 1.5 0 0 1 2599 823.5 L 2607 823.5  A 1.5 1.5 0 0 1 2608.5 825 L 2608.5 833  A 1.5 1.5 0 0 1 2607 834.5 L 2599 834.5  A 1.5 1.5 0 0 1 2597.5 833 L 2597.5 825  Z " fill-rule="nonzero" fill="#f0f0f0" stroke="none" />
  <path d="M 2597.5 825  A 1.5 1.5 0 0 1 2599 823.5 L 2607 823.5  A 1.5 1.5 0 0 1 2608.5 825 L 2608.5 833  A 1.5 1.5 0 0 1 2607 834.5 L 2599 834.5  A 1.5 1.5 0 0 1 2597.5 833 L 2597.5 825  Z " stroke-width="1" stroke="#7f7f7f" fill="none" />
</svg>