<?xml version="1.0" encoding="utf-8"?>
<svg version="1.1" xmlns:xlink="http://www.w3.org/1999/xlink" width="12px" height="12px" viewBox="2716 927  12 12" xmlns="http://www.w3.org/2000/svg">
  <path d="M 2716.5 929  A 1.5 1.5 0 0 1 2718 927.5 L 2726 927.5  A 1.5 1.5 0 0 1 2727.5 929 L 2727.5 937  A 1.5 1.5 0 0 1 2726 938.5 L 2718 938.5  A 1.5 1.5 0 0 1 2716.5 937 L 2716.5 929  Z " fill-rule="nonzero" fill="#ffffff" stroke="none" />
  <path d="M 2716.5 929  A 1.5 1.5 0 0 1 2718 927.5 L 2726 927.5  A 1.5 1.5 0 0 1 2727.5 929 L 2727.5 937  A 1.5 1.5 0 0 1 2726 938.5 L 2718 938.5  A 1.5 1.5 0 0 1 2716.5 937 L 2716.5 929  Z " stroke-width="1" stroke="#7f7f7f" fill="none" />
  <path d="M 2718.57142857143 933  L 2721.14285714286 935.571428571429  " stroke-width="2.57142857142857" stroke="#7f7f7f" fill="none" />
  <path d="M 2721.14285714286 935.571428571429  L 2725.42857142857 929.571428571429  " stroke-width="2.57142857142857" stroke="#7f7f7f" fill="none" />
</svg>