<?xml version="1.0" encoding="utf-8"?>
<svg version="1.1" xmlns:xlink="http://www.w3.org/1999/xlink" width="12px" height="12px" viewBox="2856 927  12 12" xmlns="http://www.w3.org/2000/svg">
  <path d="M 2856.5 929  A 1.5 1.5 0 0 1 2858 927.5 L 2866 927.5  A 1.5 1.5 0 0 1 2867.5 929 L 2867.5 937  A 1.5 1.5 0 0 1 2866 938.5 L 2858 938.5  A 1.5 1.5 0 0 1 2856.5 937 L 2856.5 929  Z " fill-rule="nonzero" fill="#f0f0f0" stroke="none" />
  <path d="M 2856.5 929  A 1.5 1.5 0 0 1 2858 927.5 L 2866 927.5  A 1.5 1.5 0 0 1 2867.5 929 L 2867.5 937  A 1.5 1.5 0 0 1 2866 938.5 L 2858 938.5  A 1.5 1.5 0 0 1 2856.5 937 L 2856.5 929  Z " stroke-width="1" stroke="#7f7f7f" fill="none" />
  <path d="M 2858.57142857143 933  L 2861.14285714286 935.571428571429  " stroke-width="2.57142857142857" stroke="#7f7f7f" fill="none" />
  <path d="M 2861.14285714286 935.571428571429  L 2865.42857142857 929.571428571429  " stroke-width="2.57142857142857" stroke="#7f7f7f" fill="none" />
</svg>