<?xml version="1.0" encoding="utf-8"?>
<svg version="1.1" xmlns:xlink="http://www.w3.org/1999/xlink" width="12px" height="12px" viewBox="2597 1170  12 12" xmlns="http://www.w3.org/2000/svg">
  <path d="M 2597.5 1172  A 1.5 1.5 0 0 1 2599 1170.5 L 2607 1170.5  A 1.5 1.5 0 0 1 2608.5 1172 L 2608.5 1180  A 1.5 1.5 0 0 1 2607 1181.5 L 2599 1181.5  A 1.5 1.5 0 0 1 2597.5 1180 L 2597.5 1172  Z " fill-rule="nonzero" fill="#f0f0f0" stroke="none" />
  <path d="M 2597.5 1172  A 1.5 1.5 0 0 1 2599 1170.5 L 2607 1170.5  A 1.5 1.5 0 0 1 2608.5 1172 L 2608.5 1180  A 1.5 1.5 0 0 1 2607 1181.5 L 2599 1181.5  A 1.5 1.5 0 0 1 2597.5 1180 L 2597.5 1172  Z " stroke-width="1" stroke="#7f7f7f" fill="none" />
  <path d="M 2599.57142857143 1176  L 2602.14285714286 1178.57142857143  " stroke-width="2.57142857142857" stroke="#7f7f7f" fill="none" />
  <path d="M 2602.14285714286 1178.57142857143  L 2606.42857142857 1172.57142857143  " stroke-width="2.57142857142857" stroke="#7f7f7f" fill="none" />
</svg>