<?xml version="1.0" encoding="utf-8"?>
<svg version="1.1" xmlns:xlink="http://www.w3.org/1999/xlink" width="12px" height="12px" viewBox="2597 1049  12 12" xmlns="http://www.w3.org/2000/svg">
  <path d="M 2597.5 1051  A 1.5 1.5 0 0 1 2599 1049.5 L 2607 1049.5  A 1.5 1.5 0 0 1 2608.5 1051 L 2608.5 1059  A 1.5 1.5 0 0 1 2607 1060.5 L 2599 1060.5  A 1.5 1.5 0 0 1 2597.5 1059 L 2597.5 1051  Z " fill-rule="nonzero" fill="#ffffff" stroke="none" />
  <path d="M 2597.5 1051  A 1.5 1.5 0 0 1 2599 1049.5 L 2607 1049.5  A 1.5 1.5 0 0 1 2608.5 1051 L 2608.5 1059  A 1.5 1.5 0 0 1 2607 1060.5 L 2599 1060.5  A 1.5 1.5 0 0 1 2597.5 1059 L 2597.5 1051  Z " stroke-width="1" stroke="#7f7f7f" fill="none" />
  <path d="M 2599.57142857143 1055  L 2602.14285714286 1057.57142857143  " stroke-width="2.57142857142857" stroke="#7f7f7f" fill="none" />
  <path d="M 2602.14285714286 1057.57142857143  L 2606.42857142857 1051.57142857143  " stroke-width="2.57142857142857" stroke="#7f7f7f" fill="none" />
</svg>