<?xml version="1.0" encoding="utf-8"?>
<svg version="1.1" xmlns:xlink="http://www.w3.org/1999/xlink" width="12px" height="12px" viewBox="2597 1222  12 12" xmlns="http://www.w3.org/2000/svg">
  <path d="M 2597.5 1224  A 1.5 1.5 0 0 1 2599 1222.5 L 2607 1222.5  A 1.5 1.5 0 0 1 2608.5 1224 L 2608.5 1232  A 1.5 1.5 0 0 1 2607 1233.5 L 2599 1233.5  A 1.5 1.5 0 0 1 2597.5 1232 L 2597.5 1224  Z " fill-rule="nonzero" fill="#ffffff" stroke="none" />
  <path d="M 2597.5 1224  A 1.5 1.5 0 0 1 2599 1222.5 L 2607 1222.5  A 1.5 1.5 0 0 1 2608.5 1224 L 2608.5 1232  A 1.5 1.5 0 0 1 2607 1233.5 L 2599 1233.5  A 1.5 1.5 0 0 1 2597.5 1232 L 2597.5 1224  Z " stroke-width="1" stroke="#7f7f7f" fill="none" />
</svg>