<?xml version="1.0" encoding="utf-8"?>
<svg version="1.1" xmlns:xlink="http://www.w3.org/1999/xlink" width="12px" height="12px" viewBox="2880 1066  12 12" xmlns="http://www.w3.org/2000/svg">
  <path d="M 2880.5 1068  A 1.5 1.5 0 0 1 2882 1066.5 L 2890 1066.5  A 1.5 1.5 0 0 1 2891.5 1068 L 2891.5 1076  A 1.5 1.5 0 0 1 2890 1077.5 L 2882 1077.5  A 1.5 1.5 0 0 1 2880.5 1076 L 2880.5 1068  Z " fill-rule="nonzero" fill="#f0f0f0" stroke="none" />
  <path d="M 2880.5 1068  A 1.5 1.5 0 0 1 2882 1066.5 L 2890 1066.5  A 1.5 1.5 0 0 1 2891.5 1068 L 2891.5 1076  A 1.5 1.5 0 0 1 2890 1077.5 L 2882 1077.5  A 1.5 1.5 0 0 1 2880.5 1076 L 2880.5 1068  Z " stroke-width="1" stroke="#7f7f7f" fill="none" />
</svg>