<?xml version="1.0" encoding="utf-8"?>
<svg version="1.1" xmlns:xlink="http://www.w3.org/1999/xlink" width="12px" height="12px" viewBox="2716 1066  12 12" xmlns="http://www.w3.org/2000/svg">
  <path d="M 2716.5 1068  A 1.5 1.5 0 0 1 2718 1066.5 L 2726 1066.5  A 1.5 1.5 0 0 1 2727.5 1068 L 2727.5 1076  A 1.5 1.5 0 0 1 2726 1077.5 L 2718 1077.5  A 1.5 1.5 0 0 1 2716.5 1076 L 2716.5 1068  Z " fill-rule="nonzero" fill="#ffffff" stroke="none" />
  <path d="M 2716.5 1068  A 1.5 1.5 0 0 1 2718 1066.5 L 2726 1066.5  A 1.5 1.5 0 0 1 2727.5 1068 L 2727.5 1076  A 1.5 1.5 0 0 1 2726 1077.5 L 2718 1077.5  A 1.5 1.5 0 0 1 2716.5 1076 L 2716.5 1068  Z " stroke-width="1" stroke="#7f7f7f" fill="none" />
  <path d="M 2718.57142857143 1072  L 2721.14285714286 1074.57142857143  " stroke-width="2.57142857142857" stroke="#7f7f7f" fill="none" />
  <path d="M 2721.14285714286 1074.57142857143  L 2725.42857142857 1068.57142857143  " stroke-width="2.57142857142857" stroke="#7f7f7f" fill="none" />
</svg>