<?xml version="1.0" encoding="utf-8"?>
<svg version="1.1" xmlns:xlink="http://www.w3.org/1999/xlink" width="12px" height="12px" viewBox="2720 1534  12 12" xmlns="http://www.w3.org/2000/svg">
  <path d="M 2720.5 1536  A 1.5 1.5 0 0 1 2722 1534.5 L 2730 1534.5  A 1.5 1.5 0 0 1 2731.5 1536 L 2731.5 1544  A 1.5 1.5 0 0 1 2730 1545.5 L 2722 1545.5  A 1.5 1.5 0 0 1 2720.5 1544 L 2720.5 1536  Z " fill-rule="nonzero" fill="#ffffff" stroke="none" />
  <path d="M 2720.5 1536  A 1.5 1.5 0 0 1 2722 1534.5 L 2730 1534.5  A 1.5 1.5 0 0 1 2731.5 1536 L 2731.5 1544  A 1.5 1.5 0 0 1 2730 1545.5 L 2722 1545.5  A 1.5 1.5 0 0 1 2720.5 1544 L 2720.5 1536  Z " stroke-width="1" stroke="#7f7f7f" fill="none" />
  <path d="M 2722.57142857143 1540  L 2725.14285714286 1542.57142857143  " stroke-width="2.57142857142857" stroke="#7f7f7f" fill="none" />
  <path d="M 2725.14285714286 1542.57142857143  L 2729.42857142857 1536.57142857143  " stroke-width="2.57142857142857" stroke="#7f7f7f" fill="none" />
</svg>