<?xml version="1.0" encoding="utf-8"?>
<svg version="1.1" xmlns:xlink="http://www.w3.org/1999/xlink" width="12px" height="12px" viewBox="2913 1534  12 12" xmlns="http://www.w3.org/2000/svg">
  <path d="M 2913.5 1536  A 1.5 1.5 0 0 1 2915 1534.5 L 2923 1534.5  A 1.5 1.5 0 0 1 2924.5 1536 L 2924.5 1544  A 1.5 1.5 0 0 1 2923 1545.5 L 2915 1545.5  A 1.5 1.5 0 0 1 2913.5 1544 L 2913.5 1536  Z " fill-rule="nonzero" fill="#f0f0f0" stroke="none" />
  <path d="M 2913.5 1536  A 1.5 1.5 0 0 1 2915 1534.5 L 2923 1534.5  A 1.5 1.5 0 0 1 2924.5 1536 L 2924.5 1544  A 1.5 1.5 0 0 1 2923 1545.5 L 2915 1545.5  A 1.5 1.5 0 0 1 2913.5 1544 L 2913.5 1536  Z " stroke-width="1" stroke="#7f7f7f" fill="none" />
</svg>