<?xml version="1.0" encoding="utf-8"?>
<svg version="1.1" xmlns:xlink="http://www.w3.org/1999/xlink" width="12px" height="12px" viewBox="345 386  12 12" xmlns="http://www.w3.org/2000/svg">
  <path d="M 345.5 388  A 1.5 1.5 0 0 1 347 386.5 L 355 386.5  A 1.5 1.5 0 0 1 356.5 388 L 356.5 396  A 1.5 1.5 0 0 1 355 397.5 L 347 397.5  A 1.5 1.5 0 0 1 345.5 396 L 345.5 388  Z " fill-rule="nonzero" fill="#ffffff" stroke="none" />
  <path d="M 345.5 388  A 1.5 1.5 0 0 1 347 386.5 L 355 386.5  A 1.5 1.5 0 0 1 356.5 388 L 356.5 396  A 1.5 1.5 0 0 1 355 397.5 L 347 397.5  A 1.5 1.5 0 0 1 345.5 396 L 345.5 388  Z " stroke-width="1" stroke="#797979" fill="none" />
</svg>