<?xml version="1.0" encoding="utf-8"?>
<svg version="1.1" xmlns:xlink="http://www.w3.org/1999/xlink" width="12px" height="12px" viewBox="346 568  12 12" xmlns="http://www.w3.org/2000/svg">
  <path d="M 346.5 570  A 1.5 1.5 0 0 1 348 568.5 L 356 568.5  A 1.5 1.5 0 0 1 357.5 570 L 357.5 578  A 1.5 1.5 0 0 1 356 579.5 L 348 579.5  A 1.5 1.5 0 0 1 346.5 578 L 346.5 570  Z " fill-rule="nonzero" fill="#f0f0f0" stroke="none" />
  <path d="M 346.5 570  A 1.5 1.5 0 0 1 348 568.5 L 356 568.5  A 1.5 1.5 0 0 1 357.5 570 L 357.5 578  A 1.5 1.5 0 0 1 356 579.5 L 348 579.5  A 1.5 1.5 0 0 1 346.5 578 L 346.5 570  Z " stroke-width="1" stroke="#797979" fill="none" />
</svg>