<?xml version="1.0" encoding="utf-8"?>
<svg version="1.1" xmlns:xlink="http://www.w3.org/1999/xlink" width="12px" height="12px" viewBox="190 401  12 12" xmlns="http://www.w3.org/2000/svg">
  <path d="M 190.5 403  A 1.5 1.5 0 0 1 192 401.5 L 200 401.5  A 1.5 1.5 0 0 1 201.5 403 L 201.5 411  A 1.5 1.5 0 0 1 200 412.5 L 192 412.5  A 1.5 1.5 0 0 1 190.5 411 L 190.5 403  Z " fill-rule="nonzero" fill="#f0f0f0" stroke="none" />
  <path d="M 190.5 403  A 1.5 1.5 0 0 1 192 401.5 L 200 401.5  A 1.5 1.5 0 0 1 201.5 403 L 201.5 411  A 1.5 1.5 0 0 1 200 412.5 L 192 412.5  A 1.5 1.5 0 0 1 190.5 411 L 190.5 403  Z " stroke-width="1" stroke="#797979" fill="none" />
  <path d="M 192.571428571429 407  L 195.142857142857 409.571428571429  " stroke-width="2.57142857142857" stroke="#797979" fill="none" />
  <path d="M 195.142857142857 409.571428571429  L 199.428571428571 403.571428571429  " stroke-width="2.57142857142857" stroke="#797979" fill="none" />
</svg>