<?xml version="1.0" encoding="utf-8"?>
<svg version="1.1" xmlns:xlink="http://www.w3.org/1999/xlink" width="12px" height="12px" viewBox="181 756  12 12" xmlns="http://www.w3.org/2000/svg">
  <path d="M 181.5 758  A 1.5 1.5 0 0 1 183 756.5 L 191 756.5  A 1.5 1.5 0 0 1 192.5 758 L 192.5 766  A 1.5 1.5 0 0 1 191 767.5 L 183 767.5  A 1.5 1.5 0 0 1 181.5 766 L 181.5 758  Z " fill-rule="nonzero" fill="#ffffff" stroke="none" />
  <path d="M 181.5 758  A 1.5 1.5 0 0 1 183 756.5 L 191 756.5  A 1.5 1.5 0 0 1 192.5 758 L 192.5 766  A 1.5 1.5 0 0 1 191 767.5 L 183 767.5  A 1.5 1.5 0 0 1 181.5 766 L 181.5 758  Z " stroke-width="1" stroke="#797979" fill="none" />
</svg>