<?xml version="1.0" encoding="utf-8"?>
<svg version="1.1" xmlns:xlink="http://www.w3.org/1999/xlink" width="12px" height="12px" viewBox="346 751  12 12" xmlns="http://www.w3.org/2000/svg">
  <path d="M 346.5 753  A 1.5 1.5 0 0 1 348 751.5 L 356 751.5  A 1.5 1.5 0 0 1 357.5 753 L 357.5 761  A 1.5 1.5 0 0 1 356 762.5 L 348 762.5  A 1.5 1.5 0 0 1 346.5 761 L 346.5 753  Z " fill-rule="nonzero" fill="#f0f0f0" stroke="none" />
  <path d="M 346.5 753  A 1.5 1.5 0 0 1 348 751.5 L 356 751.5  A 1.5 1.5 0 0 1 357.5 753 L 357.5 761  A 1.5 1.5 0 0 1 356 762.5 L 348 762.5  A 1.5 1.5 0 0 1 346.5 761 L 346.5 753  Z " stroke-width="1" stroke="#797979" fill="none" />
</svg>