<?xml version="1.0" encoding="utf-8"?>
<svg version="1.1" xmlns:xlink="http://www.w3.org/1999/xlink" width="12px" height="12px" viewBox="688 315  12 12" xmlns="http://www.w3.org/2000/svg">
  <path d="M 688.5 317  A 1.5 1.5 0 0 1 690 315.5 L 698 315.5  A 1.5 1.5 0 0 1 699.5 317 L 699.5 325  A 1.5 1.5 0 0 1 698 326.5 L 690 326.5  A 1.5 1.5 0 0 1 688.5 325 L 688.5 317  Z " fill-rule="nonzero" fill="#ffffff" stroke="none" />
  <path d="M 688.5 317  A 1.5 1.5 0 0 1 690 315.5 L 698 315.5  A 1.5 1.5 0 0 1 699.5 317 L 699.5 325  A 1.5 1.5 0 0 1 698 326.5 L 690 326.5  A 1.5 1.5 0 0 1 688.5 325 L 688.5 317  Z " stroke-width="1" stroke="#7f7f7f" fill="none" />
  <path d="M 690.571428571429 321  L 693.142857142857 323.571428571429  " stroke-width="2.57142857142857" stroke="#7f7f7f" fill="none" />
  <path d="M 693.142857142857 323.571428571429  L 697.428571428571 317.571428571429  " stroke-width="2.57142857142857" stroke="#7f7f7f" fill="none" />
</svg>