<?xml version="1.0" encoding="utf-8"?>
<svg version="1.1" xmlns:xlink="http://www.w3.org/1999/xlink" width="12px" height="12px" viewBox="1046 441  12 12" xmlns="http://www.w3.org/2000/svg">
  <path d="M 1046.5 443  A 1.5 1.5 0 0 1 1048 441.5 L 1056 441.5  A 1.5 1.5 0 0 1 1057.5 443 L 1057.5 451  A 1.5 1.5 0 0 1 1056 452.5 L 1048 452.5  A 1.5 1.5 0 0 1 1046.5 451 L 1046.5 443  Z " fill-rule="nonzero" fill="#f0f0f0" stroke="none" />
  <path d="M 1046.5 443  A 1.5 1.5 0 0 1 1048 441.5 L 1056 441.5  A 1.5 1.5 0 0 1 1057.5 443 L 1057.5 451  A 1.5 1.5 0 0 1 1056 452.5 L 1048 452.5  A 1.5 1.5 0 0 1 1046.5 451 L 1046.5 443  Z " stroke-width="1" stroke="#7f7f7f" fill="none" />
  <path d="M 1048.57142857143 447  L 1051.14285714286 449.571428571429  " stroke-width="2.57142857142857" stroke="#7f7f7f" fill="none" />
  <path d="M 1051.14285714286 449.571428571429  L 1055.42857142857 443.571428571429  " stroke-width="2.57142857142857" stroke="#7f7f7f" fill="none" />
</svg>