<?xml version="1.0" encoding="utf-8"?>
<svg version="1.1" xmlns:xlink="http://www.w3.org/1999/xlink" width="12px" height="12px" viewBox="806 543  12 12" xmlns="http://www.w3.org/2000/svg">
  <path d="M 806.5 545  A 1.5 1.5 0 0 1 808 543.5 L 816 543.5  A 1.5 1.5 0 0 1 817.5 545 L 817.5 553  A 1.5 1.5 0 0 1 816 554.5 L 808 554.5  A 1.5 1.5 0 0 1 806.5 553 L 806.5 545  Z " fill-rule="nonzero" fill="#ffffff" stroke="none" />
  <path d="M 806.5 545  A 1.5 1.5 0 0 1 808 543.5 L 816 543.5  A 1.5 1.5 0 0 1 817.5 545 L 817.5 553  A 1.5 1.5 0 0 1 816 554.5 L 808 554.5  A 1.5 1.5 0 0 1 806.5 553 L 806.5 545  Z " stroke-width="1" stroke="#7f7f7f" fill="none" />
</svg>