<?xml version="1.0" encoding="utf-8"?>
<svg version="1.1" xmlns:xlink="http://www.w3.org/1999/xlink" width="12px" height="12px" viewBox="927 695  12 12" xmlns="http://www.w3.org/2000/svg">
  <path d="M 927.5 697  A 1.5 1.5 0 0 1 929 695.5 L 937 695.5  A 1.5 1.5 0 0 1 938.5 697 L 938.5 705  A 1.5 1.5 0 0 1 937 706.5 L 929 706.5  A 1.5 1.5 0 0 1 927.5 705 L 927.5 697  Z " fill-rule="nonzero" fill="#ffffff" stroke="none" />
  <path d="M 927.5 697  A 1.5 1.5 0 0 1 929 695.5 L 937 695.5  A 1.5 1.5 0 0 1 938.5 697 L 938.5 705  A 1.5 1.5 0 0 1 937 706.5 L 929 706.5  A 1.5 1.5 0 0 1 927.5 705 L 927.5 697  Z " stroke-width="1" stroke="#7f7f7f" fill="none" />
  <path d="M 929.571428571429 701  L 932.142857142857 703.571428571429  " stroke-width="2.57142857142857" stroke="#7f7f7f" fill="none" />
  <path d="M 932.142857142857 703.571428571429  L 936.428571428571 697.571428571429  " stroke-width="2.57142857142857" stroke="#7f7f7f" fill="none" />
</svg>