<?xml version="1.0" encoding="utf-8"?>
<svg version="1.1" xmlns:xlink="http://www.w3.org/1999/xlink" width="12px" height="12px" viewBox="1196 695  12 12" xmlns="http://www.w3.org/2000/svg">
  <path d="M 1196.5 697  A 1.5 1.5 0 0 1 1198 695.5 L 1206 695.5  A 1.5 1.5 0 0 1 1207.5 697 L 1207.5 705  A 1.5 1.5 0 0 1 1206 706.5 L 1198 706.5  A 1.5 1.5 0 0 1 1196.5 705 L 1196.5 697  Z " fill-rule="nonzero" fill="#ffffff" stroke="none" />
  <path d="M 1196.5 697  A 1.5 1.5 0 0 1 1198 695.5 L 1206 695.5  A 1.5 1.5 0 0 1 1207.5 697 L 1207.5 705  A 1.5 1.5 0 0 1 1206 706.5 L 1198 706.5  A 1.5 1.5 0 0 1 1196.5 705 L 1196.5 697  Z " stroke-width="1" stroke="#7f7f7f" fill="none" />
</svg>