<?xml version="1.0" encoding="utf-8"?>
<svg version="1.1" xmlns:xlink="http://www.w3.org/1999/xlink" width="12px" height="12px" viewBox="927 764  12 12" xmlns="http://www.w3.org/2000/svg">
  <path d="M 927.5 766  A 1.5 1.5 0 0 1 929 764.5 L 937 764.5  A 1.5 1.5 0 0 1 938.5 766 L 938.5 774  A 1.5 1.5 0 0 1 937 775.5 L 929 775.5  A 1.5 1.5 0 0 1 927.5 774 L 927.5 766  Z " fill-rule="nonzero" fill="#ffffff" stroke="none" />
  <path d="M 927.5 766  A 1.5 1.5 0 0 1 929 764.5 L 937 764.5  A 1.5 1.5 0 0 1 938.5 766 L 938.5 774  A 1.5 1.5 0 0 1 937 775.5 L 929 775.5  A 1.5 1.5 0 0 1 927.5 774 L 927.5 766  Z " stroke-width="1" stroke="#7f7f7f" fill="none" />
</svg>