<?xml version="1.0" encoding="utf-8"?>
<svg version="1.1" xmlns:xlink="http://www.w3.org/1999/xlink" width="12px" height="12px" viewBox="806 899  12 12" xmlns="http://www.w3.org/2000/svg">
  <path d="M 806.5 901  A 1.5 1.5 0 0 1 808 899.5 L 816 899.5  A 1.5 1.5 0 0 1 817.5 901 L 817.5 909  A 1.5 1.5 0 0 1 816 910.5 L 808 910.5  A 1.5 1.5 0 0 1 806.5 909 L 806.5 901  Z " fill-rule="nonzero" fill="#ffffff" stroke="none" />
  <path d="M 806.5 901  A 1.5 1.5 0 0 1 808 899.5 L 816 899.5  A 1.5 1.5 0 0 1 817.5 901 L 817.5 909  A 1.5 1.5 0 0 1 816 910.5 L 808 910.5  A 1.5 1.5 0 0 1 806.5 909 L 806.5 901  Z " stroke-width="1" stroke="#7f7f7f" fill="none" />
</svg>