<?xml version="1.0" encoding="utf-8"?>
<svg version="1.1" xmlns:xlink="http://www.w3.org/1999/xlink" width="12px" height="12px" viewBox="927 1179  12 12" xmlns="http://www.w3.org/2000/svg">
  <path d="M 927.5 1181  A 1.5 1.5 0 0 1 929 1179.5 L 937 1179.5  A 1.5 1.5 0 0 1 938.5 1181 L 938.5 1189  A 1.5 1.5 0 0 1 937 1190.5 L 929 1190.5  A 1.5 1.5 0 0 1 927.5 1189 L 927.5 1181  Z " fill-rule="nonzero" fill="#ffffff" stroke="none" />
  <path d="M 927.5 1181  A 1.5 1.5 0 0 1 929 1179.5 L 937 1179.5  A 1.5 1.5 0 0 1 938.5 1181 L 938.5 1189  A 1.5 1.5 0 0 1 937 1190.5 L 929 1190.5  A 1.5 1.5 0 0 1 927.5 1189 L 927.5 1181  Z " stroke-width="1" stroke="#7f7f7f" fill="none" />
  <path d="M 929.571428571429 1185  L 932.142857142857 1187.57142857143  " stroke-width="2.57142857142857" stroke="#7f7f7f" fill="none" />
  <path d="M 932.142857142857 1187.57142857143  L 936.428571428571 1181.57142857143  " stroke-width="2.57142857142857" stroke="#7f7f7f" fill="none" />
</svg>