<?xml version="1.0" encoding="utf-8"?>
<svg version="1.1" xmlns:xlink="http://www.w3.org/1999/xlink" width="12px" height="12px" viewBox="1046 1179  12 12" xmlns="http://www.w3.org/2000/svg">
  <path d="M 1046.5 1181  A 1.5 1.5 0 0 1 1048 1179.5 L 1056 1179.5  A 1.5 1.5 0 0 1 1057.5 1181 L 1057.5 1189  A 1.5 1.5 0 0 1 1056 1190.5 L 1048 1190.5  A 1.5 1.5 0 0 1 1046.5 1189 L 1046.5 1181  Z " fill-rule="nonzero" fill="#ffffff" stroke="none" />
  <path d="M 1046.5 1181  A 1.5 1.5 0 0 1 1048 1179.5 L 1056 1179.5  A 1.5 1.5 0 0 1 1057.5 1181 L 1057.5 1189  A 1.5 1.5 0 0 1 1056 1190.5 L 1048 1190.5  A 1.5 1.5 0 0 1 1046.5 1189 L 1046.5 1181  Z " stroke-width="1" stroke="#7f7f7f" fill="none" />
</svg>