<?xml version="1.0" encoding="utf-8"?>
<svg version="1.1" xmlns:xlink="http://www.w3.org/1999/xlink" width="12px" height="12px" viewBox="1196 1279  12 12" xmlns="http://www.w3.org/2000/svg">
  <path d="M 1196.5 1281  A 1.5 1.5 0 0 1 1198 1279.5 L 1206 1279.5  A 1.5 1.5 0 0 1 1207.5 1281 L 1207.5 1289  A 1.5 1.5 0 0 1 1206 1290.5 L 1198 1290.5  A 1.5 1.5 0 0 1 1196.5 1289 L 1196.5 1281  Z " fill-rule="nonzero" fill="#f0f0f0" stroke="none" />
  <path d="M 1196.5 1281  A 1.5 1.5 0 0 1 1198 1279.5 L 1206 1279.5  A 1.5 1.5 0 0 1 1207.5 1281 L 1207.5 1289  A 1.5 1.5 0 0 1 1206 1290.5 L 1198 1290.5  A 1.5 1.5 0 0 1 1196.5 1289 L 1196.5 1281  Z " stroke-width="1" stroke="#7f7f7f" fill="none" />
</svg>