<?xml version="1.0" encoding="utf-8"?>
<svg version="1.1" xmlns:xlink="http://www.w3.org/1999/xlink" width="12px" height="12px" viewBox="927 1279  12 12" xmlns="http://www.w3.org/2000/svg">
  <path d="M 927.5 1281  A 1.5 1.5 0 0 1 929 1279.5 L 937 1279.5  A 1.5 1.5 0 0 1 938.5 1281 L 938.5 1289  A 1.5 1.5 0 0 1 937 1290.5 L 929 1290.5  A 1.5 1.5 0 0 1 927.5 1289 L 927.5 1281  Z " fill-rule="nonzero" fill="#f0f0f0" stroke="none" />
  <path d="M 927.5 1281  A 1.5 1.5 0 0 1 929 1279.5 L 937 1279.5  A 1.5 1.5 0 0 1 938.5 1281 L 938.5 1289  A 1.5 1.5 0 0 1 937 1290.5 L 929 1290.5  A 1.5 1.5 0 0 1 927.5 1289 L 927.5 1281  Z " stroke-width="1" stroke="#7f7f7f" fill="none" />
  <path d="M 929.571428571429 1285  L 932.142857142857 1287.57142857143  " stroke-width="2.57142857142857" stroke="#7f7f7f" fill="none" />
  <path d="M 932.142857142857 1287.57142857143  L 936.428571428571 1281.57142857143  " stroke-width="2.57142857142857" stroke="#7f7f7f" fill="none" />
</svg>