<?xml version="1.0" encoding="utf-8"?>
<svg version="1.1" xmlns:xlink="http://www.w3.org/1999/xlink" width="12px" height="12px" viewBox="806 1330  12 12" xmlns="http://www.w3.org/2000/svg">
  <path d="M 806.5 1332  A 1.5 1.5 0 0 1 808 1330.5 L 816 1330.5  A 1.5 1.5 0 0 1 817.5 1332 L 817.5 1340  A 1.5 1.5 0 0 1 816 1341.5 L 808 1341.5  A 1.5 1.5 0 0 1 806.5 1340 L 806.5 1332  Z " fill-rule="nonzero" fill="#f0f0f0" stroke="none" />
  <path d="M 806.5 1332  A 1.5 1.5 0 0 1 808 1330.5 L 816 1330.5  A 1.5 1.5 0 0 1 817.5 1332 L 817.5 1340  A 1.5 1.5 0 0 1 816 1341.5 L 808 1341.5  A 1.5 1.5 0 0 1 806.5 1340 L 806.5 1332  Z " stroke-width="1" stroke="#7f7f7f" fill="none" />
  <path d="M 808.571428571429 1336  L 811.142857142857 1338.57142857143  " stroke-width="2.57142857142857" stroke="#7f7f7f" fill="none" />
  <path d="M 811.142857142857 1338.57142857143  L 815.428571428571 1332.57142857143  " stroke-width="2.57142857142857" stroke="#7f7f7f" fill="none" />
</svg>