<?xml version="1.0" encoding="utf-8"?>
<svg version="1.1" xmlns:xlink="http://www.w3.org/1999/xlink" width="12px" height="12px" viewBox="808 1517  12 12" xmlns="http://www.w3.org/2000/svg">
  <path d="M 808.5 1519  A 1.5 1.5 0 0 1 810 1517.5 L 818 1517.5  A 1.5 1.5 0 0 1 819.5 1519 L 819.5 1527  A 1.5 1.5 0 0 1 818 1528.5 L 810 1528.5  A 1.5 1.5 0 0 1 808.5 1527 L 808.5 1519  Z " fill-rule="nonzero" fill="#ffffff" stroke="none" />
  <path d="M 808.5 1519  A 1.5 1.5 0 0 1 810 1517.5 L 818 1517.5  A 1.5 1.5 0 0 1 819.5 1519 L 819.5 1527  A 1.5 1.5 0 0 1 818 1528.5 L 810 1528.5  A 1.5 1.5 0 0 1 808.5 1527 L 808.5 1519  Z " stroke-width="1" stroke="#7f7f7f" fill="none" />
</svg>