<?xml version="1.0" encoding="utf-8"?>
<svg version="1.1" xmlns:xlink="http://www.w3.org/1999/xlink" width="12px" height="12px" viewBox="1046 1482  12 12" xmlns="http://www.w3.org/2000/svg">
  <path d="M 1046.5 1484  A 1.5 1.5 0 0 1 1048 1482.5 L 1056 1482.5  A 1.5 1.5 0 0 1 1057.5 1484 L 1057.5 1492  A 1.5 1.5 0 0 1 1056 1493.5 L 1048 1493.5  A 1.5 1.5 0 0 1 1046.5 1492 L 1046.5 1484  Z " fill-rule="nonzero" fill="#ffffff" stroke="none" />
  <path d="M 1046.5 1484  A 1.5 1.5 0 0 1 1048 1482.5 L 1056 1482.5  A 1.5 1.5 0 0 1 1057.5 1484 L 1057.5 1492  A 1.5 1.5 0 0 1 1056 1493.5 L 1048 1493.5  A 1.5 1.5 0 0 1 1046.5 1492 L 1046.5 1484  Z " stroke-width="1" stroke="#7f7f7f" fill="none" />
</svg>