<?xml version="1.0" encoding="utf-8"?>
<svg version="1.1" xmlns:xlink="http://www.w3.org/1999/xlink" width="12px" height="12px" viewBox="927 1431  12 12" xmlns="http://www.w3.org/2000/svg">
  <path d="M 927.5 1433  A 1.5 1.5 0 0 1 929 1431.5 L 937 1431.5  A 1.5 1.5 0 0 1 938.5 1433 L 938.5 1441  A 1.5 1.5 0 0 1 937 1442.5 L 929 1442.5  A 1.5 1.5 0 0 1 927.5 1441 L 927.5 1433  Z " fill-rule="nonzero" fill="#ffffff" stroke="none" />
  <path d="M 927.5 1433  A 1.5 1.5 0 0 1 929 1431.5 L 937 1431.5  A 1.5 1.5 0 0 1 938.5 1433 L 938.5 1441  A 1.5 1.5 0 0 1 937 1442.5 L 929 1442.5  A 1.5 1.5 0 0 1 927.5 1441 L 927.5 1433  Z " stroke-width="1" stroke="#7f7f7f" fill="none" />
</svg>