<?xml version="1.0" encoding="utf-8"?>
<svg version="1.1" xmlns:xlink="http://www.w3.org/1999/xlink" width="12px" height="12px" viewBox="688 1717  12 12" xmlns="http://www.w3.org/2000/svg">
  <path d="M 688.5 1719  A 1.5 1.5 0 0 1 690 1717.5 L 698 1717.5  A 1.5 1.5 0 0 1 699.5 1719 L 699.5 1727  A 1.5 1.5 0 0 1 698 1728.5 L 690 1728.5  A 1.5 1.5 0 0 1 688.5 1727 L 688.5 1719  Z " fill-rule="nonzero" fill="#ffffff" stroke="none" />
  <path d="M 688.5 1719  A 1.5 1.5 0 0 1 690 1717.5 L 698 1717.5  A 1.5 1.5 0 0 1 699.5 1719 L 699.5 1727  A 1.5 1.5 0 0 1 698 1728.5 L 690 1728.5  A 1.5 1.5 0 0 1 688.5 1727 L 688.5 1719  Z " stroke-width="1" stroke="#7f7f7f" fill="none" />
  <path d="M 690.571428571429 1723  L 693.142857142857 1725.57142857143  " stroke-width="2.57142857142857" stroke="#7f7f7f" fill="none" />
  <path d="M 693.142857142857 1725.57142857143  L 697.428571428571 1719.57142857143  " stroke-width="2.57142857142857" stroke="#7f7f7f" fill="none" />
</svg>