<?xml version="1.0" encoding="utf-8"?>
<svg version="1.1" xmlns:xlink="http://www.w3.org/1999/xlink" width="12px" height="12px" viewBox="927 1515  12 12" xmlns="http://www.w3.org/2000/svg">
  <path d="M 927.5 1517  A 1.5 1.5 0 0 1 929 1515.5 L 937 1515.5  A 1.5 1.5 0 0 1 938.5 1517 L 938.5 1525  A 1.5 1.5 0 0 1 937 1526.5 L 929 1526.5  A 1.5 1.5 0 0 1 927.5 1525 L 927.5 1517  Z " fill-rule="nonzero" fill="#ffffff" stroke="none" />
  <path d="M 927.5 1517  A 1.5 1.5 0 0 1 929 1515.5 L 937 1515.5  A 1.5 1.5 0 0 1 938.5 1517 L 938.5 1525  A 1.5 1.5 0 0 1 937 1526.5 L 929 1526.5  A 1.5 1.5 0 0 1 927.5 1525 L 927.5 1517  Z " stroke-width="1" stroke="#7f7f7f" fill="none" />
  <path d="M 929.571428571429 1521  L 932.142857142857 1523.57142857143  " stroke-width="2.57142857142857" stroke="#7f7f7f" fill="none" />
  <path d="M 932.142857142857 1523.57142857143  L 936.428571428571 1517.57142857143  " stroke-width="2.57142857142857" stroke="#7f7f7f" fill="none" />
</svg>