<?xml version="1.0" encoding="utf-8"?>
<svg version="1.1" xmlns:xlink="http://www.w3.org/1999/xlink" width="12px" height="12px" viewBox="1196 1515  12 12" xmlns="http://www.w3.org/2000/svg">
  <path d="M 1196.5 1517  A 1.5 1.5 0 0 1 1198 1515.5 L 1206 1515.5  A 1.5 1.5 0 0 1 1207.5 1517 L 1207.5 1525  A 1.5 1.5 0 0 1 1206 1526.5 L 1198 1526.5  A 1.5 1.5 0 0 1 1196.5 1525 L 1196.5 1517  Z " fill-rule="nonzero" fill="#ffffff" stroke="none" />
  <path d="M 1196.5 1517  A 1.5 1.5 0 0 1 1198 1515.5 L 1206 1515.5  A 1.5 1.5 0 0 1 1207.5 1517 L 1207.5 1525  A 1.5 1.5 0 0 1 1206 1526.5 L 1198 1526.5  A 1.5 1.5 0 0 1 1196.5 1525 L 1196.5 1517  Z " stroke-width="1" stroke="#7f7f7f" fill="none" />
  <path d="M 1198.57142857143 1521  L 1201.14285714286 1523.57142857143  " stroke-width="2.57142857142857" stroke="#7f7f7f" fill="none" />
  <path d="M 1201.14285714286 1523.57142857143  L 1205.42857142857 1517.57142857143  " stroke-width="2.57142857142857" stroke="#7f7f7f" fill="none" />
</svg>