<?xml version="1.0" encoding="utf-8"?>
<svg version="1.1" xmlns:xlink="http://www.w3.org/1999/xlink" width="12px" height="12px" viewBox="2365 301  12 12" xmlns="http://www.w3.org/2000/svg">
  <path d="M 2365.5 303  A 1.5 1.5 0 0 1 2367 301.5 L 2375 301.5  A 1.5 1.5 0 0 1 2376.5 303 L 2376.5 311  A 1.5 1.5 0 0 1 2375 312.5 L 2367 312.5  A 1.5 1.5 0 0 1 2365.5 311 L 2365.5 303  Z " fill-rule="nonzero" fill="#f0f0f0" stroke="none" />
  <path d="M 2365.5 303  A 1.5 1.5 0 0 1 2367 301.5 L 2375 301.5  A 1.5 1.5 0 0 1 2376.5 303 L 2376.5 311  A 1.5 1.5 0 0 1 2375 312.5 L 2367 312.5  A 1.5 1.5 0 0 1 2365.5 311 L 2365.5 303  Z " stroke-width="1" stroke="#7f7f7f" fill="none" />
</svg>