<?xml version="1.0" encoding="utf-8"?>
<svg version="1.1" xmlns:xlink="http://www.w3.org/1999/xlink" width="12px" height="12px" viewBox="2358 466  12 12" xmlns="http://www.w3.org/2000/svg">
  <path d="M 2358.5 468  A 1.5 1.5 0 0 1 2360 466.5 L 2368 466.5  A 1.5 1.5 0 0 1 2369.5 468 L 2369.5 476  A 1.5 1.5 0 0 1 2368 477.5 L 2360 477.5  A 1.5 1.5 0 0 1 2358.5 476 L 2358.5 468  Z " fill-rule="nonzero" fill="#ffffff" stroke="none" />
  <path d="M 2358.5 468  A 1.5 1.5 0 0 1 2360 466.5 L 2368 466.5  A 1.5 1.5 0 0 1 2369.5 468 L 2369.5 476  A 1.5 1.5 0 0 1 2368 477.5 L 2360 477.5  A 1.5 1.5 0 0 1 2358.5 476 L 2358.5 468  Z " stroke-width="1" stroke="#7f7f7f" fill="none" />
</svg>