<?xml version="1.0" encoding="utf-8"?>
<svg version="1.1" xmlns:xlink="http://www.w3.org/1999/xlink" width="12px" height="12px" viewBox="2358 670  12 12" xmlns="http://www.w3.org/2000/svg">
  <path d="M 2358.5 672  A 1.5 1.5 0 0 1 2360 670.5 L 2368 670.5  A 1.5 1.5 0 0 1 2369.5 672 L 2369.5 680  A 1.5 1.5 0 0 1 2368 681.5 L 2360 681.5  A 1.5 1.5 0 0 1 2358.5 680 L 2358.5 672  Z " fill-rule="nonzero" fill="#f0f0f0" stroke="none" />
  <path d="M 2358.5 672  A 1.5 1.5 0 0 1 2360 670.5 L 2368 670.5  A 1.5 1.5 0 0 1 2369.5 672 L 2369.5 680  A 1.5 1.5 0 0 1 2368 681.5 L 2360 681.5  A 1.5 1.5 0 0 1 2358.5 680 L 2358.5 672  Z " stroke-width="1" stroke="#7f7f7f" fill="none" />
  <path d="M 2360.57142857143 676  L 2363.14285714286 678.571428571429  " stroke-width="2.57142857142857" stroke="#7f7f7f" fill="none" />
  <path d="M 2363.14285714286 678.571428571429  L 2367.42857142857 672.571428571429  " stroke-width="2.57142857142857" stroke="#7f7f7f" fill="none" />
</svg>