<?xml version="1.0" encoding="utf-8"?>
<svg version="1.1" xmlns:xlink="http://www.w3.org/1999/xlink" width="12px" height="12px" viewBox="2716 562  12 12" xmlns="http://www.w3.org/2000/svg">
  <path d="M 2716.5 564  A 1.5 1.5 0 0 1 2718 562.5 L 2726 562.5  A 1.5 1.5 0 0 1 2727.5 564 L 2727.5 572  A 1.5 1.5 0 0 1 2726 573.5 L 2718 573.5  A 1.5 1.5 0 0 1 2716.5 572 L 2716.5 564  Z " fill-rule="nonzero" fill="#f0f0f0" stroke="none" />
  <path d="M 2716.5 564  A 1.5 1.5 0 0 1 2718 562.5 L 2726 562.5  A 1.5 1.5 0 0 1 2727.5 564 L 2727.5 572  A 1.5 1.5 0 0 1 2726 573.5 L 2718 573.5  A 1.5 1.5 0 0 1 2716.5 572 L 2716.5 564  Z " stroke-width="1" stroke="#7f7f7f" fill="none" />
  <path d="M 2718.57142857143 568  L 2721.14285714286 570.571428571429  " stroke-width="2.57142857142857" stroke="#7f7f7f" fill="none" />
  <path d="M 2721.14285714286 570.571428571429  L 2725.42857142857 564.571428571429  " stroke-width="2.57142857142857" stroke="#7f7f7f" fill="none" />
</svg>