<?xml version="1.0" encoding="utf-8"?>
<svg version="1.1" xmlns:xlink="http://www.w3.org/1999/xlink" width="12px" height="12px" viewBox="2476 668  12 12" xmlns="http://www.w3.org/2000/svg">
  <path d="M 2476.5 670  A 1.5 1.5 0 0 1 2478 668.5 L 2486 668.5  A 1.5 1.5 0 0 1 2487.5 670 L 2487.5 678  A 1.5 1.5 0 0 1 2486 679.5 L 2478 679.5  A 1.5 1.5 0 0 1 2476.5 678 L 2476.5 670  Z " fill-rule="nonzero" fill="#ffffff" stroke="none" />
  <path d="M 2476.5 670  A 1.5 1.5 0 0 1 2478 668.5 L 2486 668.5  A 1.5 1.5 0 0 1 2487.5 670 L 2487.5 678  A 1.5 1.5 0 0 1 2486 679.5 L 2478 679.5  A 1.5 1.5 0 0 1 2476.5 678 L 2476.5 670  Z " stroke-width="1" stroke="#7f7f7f" fill="none" />
</svg>