<?xml version="1.0" encoding="utf-8"?>
<svg version="1.1" xmlns:xlink="http://www.w3.org/1999/xlink" width="12px" height="12px" viewBox="2476 720  12 12" xmlns="http://www.w3.org/2000/svg">
  <path d="M 2476.5 722  A 1.5 1.5 0 0 1 2478 720.5 L 2486 720.5  A 1.5 1.5 0 0 1 2487.5 722 L 2487.5 730  A 1.5 1.5 0 0 1 2486 731.5 L 2478 731.5  A 1.5 1.5 0 0 1 2476.5 730 L 2476.5 722  Z " fill-rule="nonzero" fill="#ffffff" stroke="none" />
  <path d="M 2476.5 722  A 1.5 1.5 0 0 1 2478 720.5 L 2486 720.5  A 1.5 1.5 0 0 1 2487.5 722 L 2487.5 730  A 1.5 1.5 0 0 1 2486 731.5 L 2478 731.5  A 1.5 1.5 0 0 1 2476.5 730 L 2476.5 722  Z " stroke-width="1" stroke="#7f7f7f" fill="none" />
</svg>