<?xml version="1.0" encoding="utf-8"?>
<svg version="1.1" xmlns:xlink="http://www.w3.org/1999/xlink" width="12px" height="12px" viewBox="2597 718  12 12" xmlns="http://www.w3.org/2000/svg">
  <path d="M 2597.5 720  A 1.5 1.5 0 0 1 2599 718.5 L 2607 718.5  A 1.5 1.5 0 0 1 2608.5 720 L 2608.5 728  A 1.5 1.5 0 0 1 2607 729.5 L 2599 729.5  A 1.5 1.5 0 0 1 2597.5 728 L 2597.5 720  Z " fill-rule="nonzero" fill="#ffffff" stroke="none" />
  <path d="M 2597.5 720  A 1.5 1.5 0 0 1 2599 718.5 L 2607 718.5  A 1.5 1.5 0 0 1 2608.5 720 L 2608.5 728  A 1.5 1.5 0 0 1 2607 729.5 L 2599 729.5  A 1.5 1.5 0 0 1 2597.5 728 L 2597.5 720  Z " stroke-width="1" stroke="#7f7f7f" fill="none" />
  <path d="M 2599.57142857143 724  L 2602.14285714286 726.571428571429  " stroke-width="2.57142857142857" stroke="#7f7f7f" fill="none" />
  <path d="M 2602.14285714286 726.571428571429  L 2606.42857142857 720.571428571429  " stroke-width="2.57142857142857" stroke="#7f7f7f" fill="none" />
</svg>