<?xml version="1.0" encoding="utf-8"?>
<svg version="1.1" xmlns:xlink="http://www.w3.org/1999/xlink" width="12px" height="12px" viewBox="3089 718  12 12" xmlns="http://www.w3.org/2000/svg">
  <path d="M 3089.5 720  A 1.5 1.5 0 0 1 3091 718.5 L 3099 718.5  A 1.5 1.5 0 0 1 3100.5 720 L 3100.5 728  A 1.5 1.5 0 0 1 3099 729.5 L 3091 729.5  A 1.5 1.5 0 0 1 3089.5 728 L 3089.5 720  Z " fill-rule="nonzero" fill="#ffffff" stroke="none" />
  <path d="M 3089.5 720  A 1.5 1.5 0 0 1 3091 718.5 L 3099 718.5  A 1.5 1.5 0 0 1 3100.5 720 L 3100.5 728  A 1.5 1.5 0 0 1 3099 729.5 L 3091 729.5  A 1.5 1.5 0 0 1 3089.5 728 L 3089.5 720  Z " stroke-width="1" stroke="#7f7f7f" fill="none" />
  <path d="M 3091.57142857143 724  L 3094.14285714286 726.571428571429  " stroke-width="2.57142857142857" stroke="#7f7f7f" fill="none" />
  <path d="M 3094.14285714286 726.571428571429  L 3098.42857142857 720.571428571429  " stroke-width="2.57142857142857" stroke="#7f7f7f" fill="none" />
</svg>