<?xml version="1.0" encoding="utf-8"?>
<svg version="1.1" xmlns:xlink="http://www.w3.org/1999/xlink" width="12px" height="12px" viewBox="2586 1430  12 12" xmlns="http://www.w3.org/2000/svg">
  <path d="M 2586.5 1432  A 1.5 1.5 0 0 1 2588 1430.5 L 2596 1430.5  A 1.5 1.5 0 0 1 2597.5 1432 L 2597.5 1440  A 1.5 1.5 0 0 1 2596 1441.5 L 2588 1441.5  A 1.5 1.5 0 0 1 2586.5 1440 L 2586.5 1432  Z " fill-rule="nonzero" fill="#ffffff" stroke="none" />
  <path d="M 2586.5 1432  A 1.5 1.5 0 0 1 2588 1430.5 L 2596 1430.5  A 1.5 1.5 0 0 1 2597.5 1432 L 2597.5 1440  A 1.5 1.5 0 0 1 2596 1441.5 L 2588 1441.5  A 1.5 1.5 0 0 1 2586.5 1440 L 2586.5 1432  Z " stroke-width="1" stroke="#7f7f7f" fill="none" />
</svg>