<?xml version="1.0" encoding="utf-8"?>
<svg version="1.1" xmlns:xlink="http://www.w3.org/1999/xlink" width="12px" height="12px" viewBox="2586 1378  12 12" xmlns="http://www.w3.org/2000/svg">
  <path d="M 2586.5 1380  A 1.5 1.5 0 0 1 2588 1378.5 L 2596 1378.5  A 1.5 1.5 0 0 1 2597.5 1380 L 2597.5 1388  A 1.5 1.5 0 0 1 2596 1389.5 L 2588 1389.5  A 1.5 1.5 0 0 1 2586.5 1388 L 2586.5 1380  Z " fill-rule="nonzero" fill="#f0f0f0" stroke="none" />
  <path d="M 2586.5 1380  A 1.5 1.5 0 0 1 2588 1378.5 L 2596 1378.5  A 1.5 1.5 0 0 1 2597.5 1380 L 2597.5 1388  A 1.5 1.5 0 0 1 2596 1389.5 L 2588 1389.5  A 1.5 1.5 0 0 1 2586.5 1388 L 2586.5 1380  Z " stroke-width="1" stroke="#7f7f7f" fill="none" />
  <path d="M 2588.57142857143 1384  L 2591.14285714286 1386.57142857143  " stroke-width="2.57142857142857" stroke="#7f7f7f" fill="none" />
  <path d="M 2591.14285714286 1386.57142857143  L 2595.42857142857 1380.57142857143  " stroke-width="2.57142857142857" stroke="#7f7f7f" fill="none" />
</svg>