<?xml version="1.0" encoding="utf-8"?>
<svg version="1.1" xmlns:xlink="http://www.w3.org/1999/xlink" width="12px" height="12px" viewBox="345 358  12 12" xmlns="http://www.w3.org/2000/svg">
  <path d="M 345.5 360  A 1.5 1.5 0 0 1 347 358.5 L 355 358.5  A 1.5 1.5 0 0 1 356.5 360 L 356.5 368  A 1.5 1.5 0 0 1 355 369.5 L 347 369.5  A 1.5 1.5 0 0 1 345.5 368 L 345.5 360  Z " fill-rule="nonzero" fill="#ffffff" stroke="none" />
  <path d="M 345.5 360  A 1.5 1.5 0 0 1 347 358.5 L 355 358.5  A 1.5 1.5 0 0 1 356.5 360 L 356.5 368  A 1.5 1.5 0 0 1 355 369.5 L 347 369.5  A 1.5 1.5 0 0 1 345.5 368 L 345.5 360  Z " stroke-width="1" stroke="#797979" fill="none" />
</svg>