<?xml version="1.0" encoding="utf-8"?>
<svg version="1.1" xmlns:xlink="http://www.w3.org/1999/xlink" width="12px" height="12px" viewBox="345 414  12 12" xmlns="http://www.w3.org/2000/svg">
  <path d="M 345.5 416  A 1.5 1.5 0 0 1 347 414.5 L 355 414.5  A 1.5 1.5 0 0 1 356.5 416 L 356.5 424  A 1.5 1.5 0 0 1 355 425.5 L 347 425.5  A 1.5 1.5 0 0 1 345.5 424 L 345.5 416  Z " fill-rule="nonzero" fill="#ffffff" stroke="none" />
  <path d="M 345.5 416  A 1.5 1.5 0 0 1 347 414.5 L 355 414.5  A 1.5 1.5 0 0 1 356.5 416 L 356.5 424  A 1.5 1.5 0 0 1 355 425.5 L 347 425.5  A 1.5 1.5 0 0 1 345.5 424 L 345.5 416  Z " stroke-width="1" stroke="#797979" fill="none" />
  <path d="M 347.571428571429 420  L 350.142857142857 422.571428571429  " stroke-width="2.57142857142857" stroke="#797979" fill="none" />
  <path d="M 350.142857142857 422.571428571429  L 354.428571428571 416.571428571429  " stroke-width="2.57142857142857" stroke="#797979" fill="none" />
</svg>