<?xml version="1.0" encoding="utf-8"?>
<svg version="1.1" xmlns:xlink="http://www.w3.org/1999/xlink" width="12px" height="12px" viewBox="345 470  12 12" xmlns="http://www.w3.org/2000/svg">
  <path d="M 345.5 472  A 1.5 1.5 0 0 1 347 470.5 L 355 470.5  A 1.5 1.5 0 0 1 356.5 472 L 356.5 480  A 1.5 1.5 0 0 1 355 481.5 L 347 481.5  A 1.5 1.5 0 0 1 345.5 480 L 345.5 472  Z " fill-rule="nonzero" fill="#ffffff" stroke="none" />
  <path d="M 345.5 472  A 1.5 1.5 0 0 1 347 470.5 L 355 470.5  A 1.5 1.5 0 0 1 356.5 472 L 356.5 480  A 1.5 1.5 0 0 1 355 481.5 L 347 481.5  A 1.5 1.5 0 0 1 345.5 480 L 345.5 472  Z " stroke-width="1" stroke="#797979" fill="none" />
  <path d="M 347.571428571429 476  L 350.142857142857 478.571428571429  " stroke-width="2.57142857142857" stroke="#797979" fill="none" />
  <path d="M 350.142857142857 478.571428571429  L 354.428571428571 472.571428571429  " stroke-width="2.57142857142857" stroke="#797979" fill="none" />
</svg>