<?xml version="1.0" encoding="utf-8"?>
<svg version="1.1" xmlns:xlink="http://www.w3.org/1999/xlink" width="12px" height="12px" viewBox="345 441  12 12" xmlns="http://www.w3.org/2000/svg">
  <path d="M 345.5 443  A 1.5 1.5 0 0 1 347 441.5 L 355 441.5  A 1.5 1.5 0 0 1 356.5 443 L 356.5 451  A 1.5 1.5 0 0 1 355 452.5 L 347 452.5  A 1.5 1.5 0 0 1 345.5 451 L 345.5 443  Z " fill-rule="nonzero" fill="#ffffff" stroke="none" />
  <path d="M 345.5 443  A 1.5 1.5 0 0 1 347 441.5 L 355 441.5  A 1.5 1.5 0 0 1 356.5 443 L 356.5 451  A 1.5 1.5 0 0 1 355 452.5 L 347 452.5  A 1.5 1.5 0 0 1 345.5 451 L 345.5 443  Z " stroke-width="1" stroke="#797979" fill="none" />
  <path d="M 347.571428571429 447  L 350.142857142857 449.571428571429  " stroke-width="2.57142857142857" stroke="#797979" fill="none" />
  <path d="M 350.142857142857 449.571428571429  L 354.428571428571 443.571428571429  " stroke-width="2.57142857142857" stroke="#797979" fill="none" />
</svg>