<?xml version="1.0" encoding="utf-8"?>
<svg version="1.1" xmlns:xlink="http://www.w3.org/1999/xlink" width="12px" height="12px" viewBox="181 573  12 12" xmlns="http://www.w3.org/2000/svg">
  <path d="M 181.5 575  A 1.5 1.5 0 0 1 183 573.5 L 191 573.5  A 1.5 1.5 0 0 1 192.5 575 L 192.5 583  A 1.5 1.5 0 0 1 191 584.5 L 183 584.5  A 1.5 1.5 0 0 1 181.5 583 L 181.5 575  Z " fill-rule="nonzero" fill="#f0f0f0" stroke="none" />
  <path d="M 181.5 575  A 1.5 1.5 0 0 1 183 573.5 L 191 573.5  A 1.5 1.5 0 0 1 192.5 575 L 192.5 583  A 1.5 1.5 0 0 1 191 584.5 L 183 584.5  A 1.5 1.5 0 0 1 181.5 583 L 181.5 575  Z " stroke-width="1" stroke="#797979" fill="none" />
  <path d="M 183.571428571429 579  L 186.142857142857 581.571428571429  " stroke-width="2.57142857142857" stroke="#797979" fill="none" />
  <path d="M 186.142857142857 581.571428571429  L 190.428571428571 575.571428571429  " stroke-width="2.57142857142857" stroke="#797979" fill="none" />
</svg>