<?xml version="1.0" encoding="utf-8"?>
<svg version="1.1" xmlns:xlink="http://www.w3.org/1999/xlink" width="12px" height="12px" viewBox="346 652  12 12" xmlns="http://www.w3.org/2000/svg">
  <path d="M 346.5 654  A 1.5 1.5 0 0 1 348 652.5 L 356 652.5  A 1.5 1.5 0 0 1 357.5 654 L 357.5 662  A 1.5 1.5 0 0 1 356 663.5 L 348 663.5  A 1.5 1.5 0 0 1 346.5 662 L 346.5 654  Z " fill-rule="nonzero" fill="#ffffff" stroke="none" />
  <path d="M 346.5 654  A 1.5 1.5 0 0 1 348 652.5 L 356 652.5  A 1.5 1.5 0 0 1 357.5 654 L 357.5 662  A 1.5 1.5 0 0 1 356 663.5 L 348 663.5  A 1.5 1.5 0 0 1 346.5 662 L 346.5 654  Z " stroke-width="1" stroke="#797979" fill="none" />
  <path d="M 348.571428571429 658  L 351.142857142857 660.571428571429  " stroke-width="2.57142857142857" stroke="#797979" fill="none" />
  <path d="M 351.142857142857 660.571428571429  L 355.428571428571 654.571428571429  " stroke-width="2.57142857142857" stroke="#797979" fill="none" />
</svg>