<?xml version="1.0" encoding="utf-8"?>
<svg version="1.1" xmlns:xlink="http://www.w3.org/1999/xlink" width="12px" height="12px" viewBox="346 896  12 12" xmlns="http://www.w3.org/2000/svg">
  <path d="M 346.5 898  A 1.5 1.5 0 0 1 348 896.5 L 356 896.5  A 1.5 1.5 0 0 1 357.5 898 L 357.5 906  A 1.5 1.5 0 0 1 356 907.5 L 348 907.5  A 1.5 1.5 0 0 1 346.5 906 L 346.5 898  Z " fill-rule="nonzero" fill="#ffffff" stroke="none" />
  <path d="M 346.5 898  A 1.5 1.5 0 0 1 348 896.5 L 356 896.5  A 1.5 1.5 0 0 1 357.5 898 L 357.5 906  A 1.5 1.5 0 0 1 356 907.5 L 348 907.5  A 1.5 1.5 0 0 1 346.5 906 L 346.5 898  Z " stroke-width="1" stroke="#797979" fill="none" />
</svg>