<?xml version="1.0" encoding="utf-8"?>
<svg version="1.1" xmlns:xlink="http://www.w3.org/1999/xlink" width="12px" height="12px" viewBox="2000 3258  12 12" xmlns="http://www.w3.org/2000/svg">
  <path d="M 2000.5 3260  A 1.5 1.5 0 0 1 2002 3258.5 L 2010 3258.5  A 1.5 1.5 0 0 1 2011.5 3260 L 2011.5 3268  A 1.5 1.5 0 0 1 2010 3269.5 L 2002 3269.5  A 1.5 1.5 0 0 1 2000.5 3268 L 2000.5 3260  Z " fill-rule="nonzero" fill="#f0f0f0" stroke="none" />
  <path d="M 2000.5 3260  A 1.5 1.5 0 0 1 2002 3258.5 L 2010 3258.5  A 1.5 1.5 0 0 1 2011.5 3260 L 2011.5 3268  A 1.5 1.5 0 0 1 2010 3269.5 L 2002 3269.5  A 1.5 1.5 0 0 1 2000.5 3268 L 2000.5 3260  Z " stroke-width="1" stroke="#797979" fill="none" />
  <path d="M 2002.57142857143 3264  L 2005.14285714286 3266.57142857143  " stroke-width="2.57142857142857" stroke="#797979" fill="none" />
  <path d="M 2005.14285714286 3266.57142857143  L 2009.42857142857 3260.57142857143  " stroke-width="2.57142857142857" stroke="#797979" fill="none" />
</svg>