<?xml version="1.0" encoding="utf-8"?>
<svg version="1.1" xmlns:xlink="http://www.w3.org/1999/xlink" width="12px" height="12px" viewBox="2353 3303.5  12 12" xmlns="http://www.w3.org/2000/svg">
  <path d="M 2359 3303.5  C 2362.36 3303.5  2365 3306.14  2365 3309.5  C 2365 3312.86  2362.36 3315.5  2359 3315.5  C 2355.64 3315.5  2353 3312.86  2353 3309.5  C 2353 3306.14  2355.64 3303.5  2359 3303.5  Z " fill-rule="nonzero" fill="#d7d7d7" stroke="none" />
  <path d="M 2359 3304  C 2362.08 3304  2364.5 3306.42  2364.5 3309.5  C 2364.5 3312.58  2362.08 3315  2359 3315  C 2355.92 3315  2353.5 3312.58  2353.5 3309.5  C 2353.5 3306.42  2355.92 3304  2359 3304  Z " stroke-width="1" stroke="#797979" fill="none" />
  <path d="M 2359 3312.5  C 2357.32 3312.5  2356 3311.18  2356 3309.5  C 2356 3307.82  2357.32 3306.5  2359 3306.5  C 2360.68 3306.5  2362 3307.82  2362 3309.5  C 2362 3311.18  2360.68 3312.5  2359 3312.5  " fill-rule="nonzero" fill="#797979" stroke="none" />
</svg>