<?xml version="1.0" encoding="utf-8"?>
<svg version="1.1" xmlns:xlink="http://www.w3.org/1999/xlink" width="12px" height="12px" viewBox="1998 2722  12 12" xmlns="http://www.w3.org/2000/svg">
  <path d="M 1998.5 2724  A 1.5 1.5 0 0 1 2000 2722.5 L 2008 2722.5  A 1.5 1.5 0 0 1 2009.5 2724 L 2009.5 2732  A 1.5 1.5 0 0 1 2008 2733.5 L 2000 2733.5  A 1.5 1.5 0 0 1 1998.5 2732 L 1998.5 2724  Z " fill-rule="nonzero" fill="#f0f0f0" stroke="none" />
  <path d="M 1998.5 2724  A 1.5 1.5 0 0 1 2000 2722.5 L 2008 2722.5  A 1.5 1.5 0 0 1 2009.5 2724 L 2009.5 2732  A 1.5 1.5 0 0 1 2008 2733.5 L 2000 2733.5  A 1.5 1.5 0 0 1 1998.5 2732 L 1998.5 2724  Z " stroke-width="1" stroke="#797979" fill="none" />
  <path d="M 2000.57142857143 2728  L 2003.14285714286 2730.57142857143  " stroke-width="2.57142857142857" stroke="#797979" fill="none" />
  <path d="M 2003.14285714286 2730.57142857143  L 2007.42857142857 2724.57142857143  " stroke-width="2.57142857142857" stroke="#797979" fill="none" />
</svg>