<?xml version="1.0" encoding="utf-8"?>
<svg version="1.1" xmlns:xlink="http://www.w3.org/1999/xlink" width="12px" height="12px" viewBox="2351 2674.5  12 12" xmlns="http://www.w3.org/2000/svg">
  <path d="M 2357 2674.5  C 2360.36 2674.5  2363 2677.14  2363 2680.5  C 2363 2683.86  2360.36 2686.5  2357 2686.5  C 2353.64 2686.5  2351 2683.86  2351 2680.5  C 2351 2677.14  2353.64 2674.5  2357 2674.5  Z " fill-rule="nonzero" fill="#ffffff" stroke="none" />
  <path d="M 2357 2675  C 2360.08 2675  2362.5 2677.42  2362.5 2680.5  C 2362.5 2683.58  2360.08 2686  2357 2686  C 2353.92 2686  2351.5 2683.58  2351.5 2680.5  C 2351.5 2677.42  2353.92 2675  2357 2675  Z " stroke-width="1" stroke="#797979" fill="none" />
  <path d="M 2357 2683.5  C 2355.32 2683.5  2354 2682.18  2354 2680.5  C 2354 2678.82  2355.32 2677.5  2357 2677.5  C 2358.68 2677.5  2360 2678.82  2360 2680.5  C 2360 2682.18  2358.68 2683.5  2357 2683.5  " fill-rule="nonzero" fill="#797979" stroke="none" />
</svg>