<?xml version="1.0" encoding="utf-8"?>
<svg version="1.1" xmlns:xlink="http://www.w3.org/1999/xlink" width="12px" height="12px" viewBox="2397 3385.5  12 12" xmlns="http://www.w3.org/2000/svg">
  <path d="M 2403 3385.5  C 2406.36 3385.5  2409 3388.14  2409 3391.5  C 2409 3394.86  2406.36 3397.5  2403 3397.5  C 2399.64 3397.5  2397 3394.86  2397 3391.5  C 2397 3388.14  2399.64 3385.5  2403 3385.5  Z " fill-rule="nonzero" fill="#f0f0f0" stroke="none" />
  <path d="M 2403 3386  C 2406.08 3386  2408.5 3388.42  2408.5 3391.5  C 2408.5 3394.58  2406.08 3397  2403 3397  C 2399.92 3397  2397.5 3394.58  2397.5 3391.5  C 2397.5 3388.42  2399.92 3386  2403 3386  Z " stroke-width="1" stroke="#797979" fill="none" />
  <path d="M 2403 3394.5  C 2401.32 3394.5  2400 3393.18  2400 3391.5  C 2400 3389.82  2401.32 3388.5  2403 3388.5  C 2404.68 3388.5  2406 3389.82  2406 3391.5  C 2406 3393.18  2404.68 3394.5  2403 3394.5  " fill-rule="nonzero" fill="#797979" stroke="none" />
</svg>