<?xml version="1.0" encoding="utf-8"?>
<svg version="1.1" xmlns:xlink="http://www.w3.org/1999/xlink" width="12px" height="12px" viewBox="1746 2580  12 12" xmlns="http://www.w3.org/2000/svg">
  <path d="M 1746.5 2582  A 1.5 1.5 0 0 1 1748 2580.5 L 1756 2580.5  A 1.5 1.5 0 0 1 1757.5 2582 L 1757.5 2590  A 1.5 1.5 0 0 1 1756 2591.5 L 1748 2591.5  A 1.5 1.5 0 0 1 1746.5 2590 L 1746.5 2582  Z " fill-rule="nonzero" fill="#ffffff" stroke="none" />
  <path d="M 1746.5 2582  A 1.5 1.5 0 0 1 1748 2580.5 L 1756 2580.5  A 1.5 1.5 0 0 1 1757.5 2582 L 1757.5 2590  A 1.5 1.5 0 0 1 1756 2591.5 L 1748 2591.5  A 1.5 1.5 0 0 1 1746.5 2590 L 1746.5 2582  Z " stroke-width="1" stroke="#797979" fill="none" />
</svg>