<?xml version="1.0" encoding="utf-8"?>
<svg version="1.1" xmlns:xlink="http://www.w3.org/1999/xlink" width="12px" height="12px" viewBox="2397 4343.5  12 12" xmlns="http://www.w3.org/2000/svg">
  <path d="M 2403 4343.5  C 2406.36 4343.5  2409 4346.14  2409 4349.5  C 2409 4352.86  2406.36 4355.5  2403 4355.5  C 2399.64 4355.5  2397 4352.86  2397 4349.5  C 2397 4346.14  2399.64 4343.5  2403 4343.5  Z " fill-rule="nonzero" fill="#ffffff" stroke="none" />
  <path d="M 2403 4344  C 2406.08 4344  2408.5 4346.42  2408.5 4349.5  C 2408.5 4352.58  2406.08 4355  2403 4355  C 2399.92 4355  2397.5 4352.58  2397.5 4349.5  C 2397.5 4346.42  2399.92 4344  2403 4344  Z " stroke-width="1" stroke="#797979" fill="none" />
  <path d="M 2403 4352.5  C 2401.32 4352.5  2400 4351.18  2400 4349.5  C 2400 4347.82  2401.32 4346.5  2403 4346.5  C 2404.68 4346.5  2406 4347.82  2406 4349.5  C 2406 4351.18  2404.68 4352.5  2403 4352.5  " fill-rule="nonzero" fill="#797979" stroke="none" />
</svg>