<?xml version="1.0" encoding="utf-8"?>
<svg version="1.1" xmlns:xlink="http://www.w3.org/1999/xlink" width="12px" height="12px" viewBox="2350 4343.5  12 12" xmlns="http://www.w3.org/2000/svg">
  <path d="M 2356 4343.5  C 2359.36 4343.5  2362 4346.14  2362 4349.5  C 2362 4352.86  2359.36 4355.5  2356 4355.5  C 2352.64 4355.5  2350 4352.86  2350 4349.5  C 2350 4346.14  2352.64 4343.5  2356 4343.5  Z " fill-rule="nonzero" fill="#f0f0f0" stroke="none" />
  <path d="M 2356 4344  C 2359.08 4344  2361.5 4346.42  2361.5 4349.5  C 2361.5 4352.58  2359.08 4355  2356 4355  C 2352.92 4355  2350.5 4352.58  2350.5 4349.5  C 2350.5 4346.42  2352.92 4344  2356 4344  Z " stroke-width="1" stroke="#797979" fill="none" />
  <path d="M 2356 4352.5  C 2354.32 4352.5  2353 4351.18  2353 4349.5  C 2353 4347.82  2354.32 4346.5  2356 4346.5  C 2357.68 4346.5  2359 4347.82  2359 4349.5  C 2359 4351.18  2357.68 4352.5  2356 4352.5  " fill-rule="nonzero" fill="#797979" stroke="none" />
</svg>