<?xml version="1.0" encoding="utf-8"?>
<svg version="1.1" xmlns:xlink="http://www.w3.org/1999/xlink" width="12px" height="12px" viewBox="1995 5221  12 12" xmlns="http://www.w3.org/2000/svg">
  <path d="M 1995.5 5223  A 1.5 1.5 0 0 1 1997 5221.5 L 2005 5221.5  A 1.5 1.5 0 0 1 2006.5 5223 L 2006.5 5231  A 1.5 1.5 0 0 1 2005 5232.5 L 1997 5232.5  A 1.5 1.5 0 0 1 1995.5 5231 L 1995.5 5223  Z " fill-rule="nonzero" fill="#ffffff" stroke="none" />
  <path d="M 1995.5 5223  A 1.5 1.5 0 0 1 1997 5221.5 L 2005 5221.5  A 1.5 1.5 0 0 1 2006.5 5223 L 2006.5 5231  A 1.5 1.5 0 0 1 2005 5232.5 L 1997 5232.5  A 1.5 1.5 0 0 1 1995.5 5231 L 1995.5 5223  Z " stroke-width="1" stroke="#797979" fill="none" />
</svg>