<?xml version="1.0" encoding="utf-8"?>
<svg version="1.1" xmlns:xlink="http://www.w3.org/1999/xlink" width="12px" height="12px" viewBox="1998 3429  12 12" xmlns="http://www.w3.org/2000/svg">
  <path d="M 1998.5 3431  A 1.5 1.5 0 0 1 2000 3429.5 L 2008 3429.5  A 1.5 1.5 0 0 1 2009.5 3431 L 2009.5 3439  A 1.5 1.5 0 0 1 2008 3440.5 L 2000 3440.5  A 1.5 1.5 0 0 1 1998.5 3439 L 1998.5 3431  Z " fill-rule="nonzero" fill="#ffffff" stroke="none" />
  <path d="M 1998.5 3431  A 1.5 1.5 0 0 1 2000 3429.5 L 2008 3429.5  A 1.5 1.5 0 0 1 2009.5 3431 L 2009.5 3439  A 1.5 1.5 0 0 1 2008 3440.5 L 2000 3440.5  A 1.5 1.5 0 0 1 1998.5 3439 L 1998.5 3431  Z " stroke-width="1" stroke="#797979" fill="none" />
  <path d="M 2000.57142857143 3435  L 2003.14285714286 3437.57142857143  " stroke-width="2.57142857142857" stroke="#797979" fill="none" />
  <path d="M 2003.14285714286 3437.57142857143  L 2007.42857142857 3431.57142857143  " stroke-width="2.57142857142857" stroke="#797979" fill="none" />
</svg>