<?xml version="1.0" encoding="utf-8"?>
<svg version="1.1" xmlns:xlink="http://www.w3.org/1999/xlink" width="12px" height="12px" viewBox="2001 4299  12 12" xmlns="http://www.w3.org/2000/svg">
  <path d="M 2001.5 4301  A 1.5 1.5 0 0 1 2003 4299.5 L 2011 4299.5  A 1.5 1.5 0 0 1 2012.5 4301 L 2012.5 4309  A 1.5 1.5 0 0 1 2011 4310.5 L 2003 4310.5  A 1.5 1.5 0 0 1 2001.5 4309 L 2001.5 4301  Z " fill-rule="nonzero" fill="#ffffff" stroke="none" />
  <path d="M 2001.5 4301  A 1.5 1.5 0 0 1 2003 4299.5 L 2011 4299.5  A 1.5 1.5 0 0 1 2012.5 4301 L 2012.5 4309  A 1.5 1.5 0 0 1 2011 4310.5 L 2003 4310.5  A 1.5 1.5 0 0 1 2001.5 4309 L 2001.5 4301  Z " stroke-width="1" stroke="#797979" fill="none" />
  <path d="M 2003.57142857143 4305  L 2006.14285714286 4307.57142857143  " stroke-width="2.57142857142857" stroke="#797979" fill="none" />
  <path d="M 2006.14285714286 4307.57142857143  L 2010.42857142857 4301.57142857143  " stroke-width="2.57142857142857" stroke="#797979" fill="none" />
</svg>