<?xml version="1.0" encoding="utf-8"?>
<svg version="1.1" xmlns:xlink="http://www.w3.org/1999/xlink" width="12px" height="12px" viewBox="1999 4083  12 12" xmlns="http://www.w3.org/2000/svg">
  <path d="M 1999.5 4085  A 1.5 1.5 0 0 1 2001 4083.5 L 2009 4083.5  A 1.5 1.5 0 0 1 2010.5 4085 L 2010.5 4093  A 1.5 1.5 0 0 1 2009 4094.5 L 2001 4094.5  A 1.5 1.5 0 0 1 1999.5 4093 L 1999.5 4085  Z " fill-rule="nonzero" fill="#f0f0f0" stroke="none" />
  <path d="M 1999.5 4085  A 1.5 1.5 0 0 1 2001 4083.5 L 2009 4083.5  A 1.5 1.5 0 0 1 2010.5 4085 L 2010.5 4093  A 1.5 1.5 0 0 1 2009 4094.5 L 2001 4094.5  A 1.5 1.5 0 0 1 1999.5 4093 L 1999.5 4085  Z " stroke-width="1" stroke="#797979" fill="none" />
  <path d="M 2001.57142857143 4089  L 2004.14285714286 4091.57142857143  " stroke-width="2.57142857142857" stroke="#797979" fill="none" />
  <path d="M 2004.14285714286 4091.57142857143  L 2008.42857142857 4085.57142857143  " stroke-width="2.57142857142857" stroke="#797979" fill="none" />
</svg>