<?xml version="1.0" encoding="utf-8"?>
<svg version="1.1" xmlns:xlink="http://www.w3.org/1999/xlink" width="12px" height="12px" viewBox="2349 5131.5  12 12" xmlns="http://www.w3.org/2000/svg">
  <path d="M 2355 5131.5  C 2358.36 5131.5  2361 5134.14  2361 5137.5  C 2361 5140.86  2358.36 5143.5  2355 5143.5  C 2351.64 5143.5  2349 5140.86  2349 5137.5  C 2349 5134.14  2351.64 5131.5  2355 5131.5  Z " fill-rule="nonzero" fill="#ffffff" stroke="none" />
  <path d="M 2355 5132  C 2358.08 5132  2360.5 5134.42  2360.5 5137.5  C 2360.5 5140.58  2358.08 5143  2355 5143  C 2351.92 5143  2349.5 5140.58  2349.5 5137.5  C 2349.5 5134.42  2351.92 5132  2355 5132  Z " stroke-width="1" stroke="#797979" fill="none" />
  <path d="M 2355 5140.5  C 2353.32 5140.5  2352 5139.18  2352 5137.5  C 2352 5135.82  2353.32 5134.5  2355 5134.5  C 2356.68 5134.5  2358 5135.82  2358 5137.5  C 2358 5139.18  2356.68 5140.5  2355 5140.5  " fill-rule="nonzero" fill="#797979" stroke="none" />
</svg>