<?xml version="1.0" encoding="utf-8"?>
<svg version="1.1" xmlns:xlink="http://www.w3.org/1999/xlink" width="12px" height="12px" viewBox="2397 4383.5  12 12" xmlns="http://www.w3.org/2000/svg">
  <path d="M 2403 4383.5  C 2406.36 4383.5  2409 4386.14  2409 4389.5  C 2409 4392.86  2406.36 4395.5  2403 4395.5  C 2399.64 4395.5  2397 4392.86  2397 4389.5  C 2397 4386.14  2399.64 4383.5  2403 4383.5  Z " fill-rule="nonzero" fill="#f0f0f0" stroke="none" />
  <path d="M 2403 4384  C 2406.08 4384  2408.5 4386.42  2408.5 4389.5  C 2408.5 4392.58  2406.08 4395  2403 4395  C 2399.92 4395  2397.5 4392.58  2397.5 4389.5  C 2397.5 4386.42  2399.92 4384  2403 4384  Z " stroke-width="1" stroke="#797979" fill="none" />
  <path d="M 2403 4392.5  C 2401.32 4392.5  2400 4391.18  2400 4389.5  C 2400 4387.82  2401.32 4386.5  2403 4386.5  C 2404.68 4386.5  2406 4387.82  2406 4389.5  C 2406 4391.18  2404.68 4392.5  2403 4392.5  " fill-rule="nonzero" fill="#797979" stroke="none" />
</svg>