<?xml version="1.0" encoding="utf-8"?>
<svg version="1.1" xmlns:xlink="http://www.w3.org/1999/xlink" width="12px" height="12px" viewBox="1740 4478  12 12" xmlns="http://www.w3.org/2000/svg">
  <path d="M 1740.5 4480  A 1.5 1.5 0 0 1 1742 4478.5 L 1750 4478.5  A 1.5 1.5 0 0 1 1751.5 4480 L 1751.5 4488  A 1.5 1.5 0 0 1 1750 4489.5 L 1742 4489.5  A 1.5 1.5 0 0 1 1740.5 4488 L 1740.5 4480  Z " fill-rule="nonzero" fill="#ffffff" stroke="none" />
  <path d="M 1740.5 4480  A 1.5 1.5 0 0 1 1742 4478.5 L 1750 4478.5  A 1.5 1.5 0 0 1 1751.5 4480 L 1751.5 4488  A 1.5 1.5 0 0 1 1750 4489.5 L 1742 4489.5  A 1.5 1.5 0 0 1 1740.5 4488 L 1740.5 4480  Z " stroke-width="1" stroke="#797979" fill="none" />
</svg>