<?xml version="1.0" encoding="utf-8"?>
<svg version="1.1" xmlns:xlink="http://www.w3.org/1999/xlink" width="12px" height="12px" viewBox="2350 4211.5  12 12" xmlns="http://www.w3.org/2000/svg">
  <path d="M 2356 4211.5  C 2359.36 4211.5  2362 4214.14  2362 4217.5  C 2362 4220.86  2359.36 4223.5  2356 4223.5  C 2352.64 4223.5  2350 4220.86  2350 4217.5  C 2350 4214.14  2352.64 4211.5  2356 4211.5  Z " fill-rule="nonzero" fill="#ffffff" stroke="none" />
  <path d="M 2356 4212  C 2359.08 4212  2361.5 4214.42  2361.5 4217.5  C 2361.5 4220.58  2359.08 4223  2356 4223  C 2352.92 4223  2350.5 4220.58  2350.5 4217.5  C 2350.5 4214.42  2352.92 4212  2356 4212  Z " stroke-width="1" stroke="#797979" fill="none" />
  <path d="M 2356 4220.5  C 2354.32 4220.5  2353 4219.18  2353 4217.5  C 2353 4215.82  2354.32 4214.5  2356 4214.5  C 2357.68 4214.5  2359 4215.82  2359 4217.5  C 2359 4219.18  2357.68 4220.5  2356 4220.5  " fill-rule="nonzero" fill="#797979" stroke="none" />
</svg>