<?xml version="1.0" encoding="utf-8"?>
<svg version="1.1" xmlns:xlink="http://www.w3.org/1999/xlink" width="12px" height="12px" viewBox="1764 3637  12 12" xmlns="http://www.w3.org/2000/svg">
  <path d="M 1764.5 3639  A 1.5 1.5 0 0 1 1766 3637.5 L 1774 3637.5  A 1.5 1.5 0 0 1 1775.5 3639 L 1775.5 3647  A 1.5 1.5 0 0 1 1774 3648.5 L 1766 3648.5  A 1.5 1.5 0 0 1 1764.5 3647 L 1764.5 3639  Z " fill-rule="nonzero" fill="#f0f0f0" stroke="none" />
  <path d="M 1764.5 3639  A 1.5 1.5 0 0 1 1766 3637.5 L 1774 3637.5  A 1.5 1.5 0 0 1 1775.5 3639 L 1775.5 3647  A 1.5 1.5 0 0 1 1774 3648.5 L 1766 3648.5  A 1.5 1.5 0 0 1 1764.5 3647 L 1764.5 3639  Z " stroke-width="1" stroke="#797979" fill="none" />
  <path d="M 1766.57142857143 3643  L 1769.14285714286 3645.57142857143  " stroke-width="2.57142857142857" stroke="#797979" fill="none" />
  <path d="M 1769.14285714286 3645.57142857143  L 1773.42857142857 3639.57142857143  " stroke-width="2.57142857142857" stroke="#797979" fill="none" />
</svg>