<?xml version="1.0" encoding="utf-8"?>
<svg version="1.1" xmlns:xlink="http://www.w3.org/1999/xlink" width="12px" height="12px" viewBox="2397 3471.5  12 12" xmlns="http://www.w3.org/2000/svg">
  <path d="M 2403 3471.5  C 2406.36 3471.5  2409 3474.14  2409 3477.5  C 2409 3480.86  2406.36 3483.5  2403 3483.5  C 2399.64 3483.5  2397 3480.86  2397 3477.5  C 2397 3474.14  2399.64 3471.5  2403 3471.5  Z " fill-rule="nonzero" fill="#f0f0f0" stroke="none" />
  <path d="M 2403 3472  C 2406.08 3472  2408.5 3474.42  2408.5 3477.5  C 2408.5 3480.58  2406.08 3483  2403 3483  C 2399.92 3483  2397.5 3480.58  2397.5 3477.5  C 2397.5 3474.42  2399.92 3472  2403 3472  Z " stroke-width="1" stroke="#797979" fill="none" />
  <path d="M 2403 3480.5  C 2401.32 3480.5  2400 3479.18  2400 3477.5  C 2400 3475.82  2401.32 3474.5  2403 3474.5  C 2404.68 3474.5  2406 3475.82  2406 3477.5  C 2406 3479.18  2404.68 3480.5  2403 3480.5  " fill-rule="nonzero" fill="#797979" stroke="none" />
</svg>