<?xml version="1.0" encoding="utf-8"?>
<svg version="1.1" xmlns:xlink="http://www.w3.org/1999/xlink" width="12px" height="12px" viewBox="2347 5178.5  12 12" xmlns="http://www.w3.org/2000/svg">
  <path d="M 2353 5178.5  C 2356.36 5178.5  2359 5181.14  2359 5184.5  C 2359 5187.86  2356.36 5190.5  2353 5190.5  C 2349.64 5190.5  2347 5187.86  2347 5184.5  C 2347 5181.14  2349.64 5178.5  2353 5178.5  Z " fill-rule="nonzero" fill="#f0f0f0" stroke="none" />
  <path d="M 2353 5179  C 2356.08 5179  2358.5 5181.42  2358.5 5184.5  C 2358.5 5187.58  2356.08 5190  2353 5190  C 2349.92 5190  2347.5 5187.58  2347.5 5184.5  C 2347.5 5181.42  2349.92 5179  2353 5179  Z " stroke-width="1" stroke="#797979" fill="none" />
  <path d="M 2353 5187.5  C 2351.32 5187.5  2350 5186.18  2350 5184.5  C 2350 5182.82  2351.32 5181.5  2353 5181.5  C 2354.68 5181.5  2356 5182.82  2356 5184.5  C 2356 5186.18  2354.68 5187.5  2353 5187.5  " fill-rule="nonzero" fill="#797979" stroke="none" />
</svg>