<?xml version="1.0" encoding="utf-8"?>
<svg version="1.1" xmlns:xlink="http://www.w3.org/1999/xlink" width="12px" height="12px" viewBox="2398 4252.5  12 12" xmlns="http://www.w3.org/2000/svg">
  <path d="M 2404 4252.5  C 2407.36 4252.5  2410 4255.14  2410 4258.5  C 2410 4261.86  2407.36 4264.5  2404 4264.5  C 2400.64 4264.5  2398 4261.86  2398 4258.5  C 2398 4255.14  2400.64 4252.5  2404 4252.5  Z " fill-rule="nonzero" fill="#f0f0f0" stroke="none" />
  <path d="M 2404 4253  C 2407.08 4253  2409.5 4255.42  2409.5 4258.5  C 2409.5 4261.58  2407.08 4264  2404 4264  C 2400.92 4264  2398.5 4261.58  2398.5 4258.5  C 2398.5 4255.42  2400.92 4253  2404 4253  Z " stroke-width="1" stroke="#797979" fill="none" />
  <path d="M 2404 4261.5  C 2402.32 4261.5  2401 4260.18  2401 4258.5  C 2401 4256.82  2402.32 4255.5  2404 4255.5  C 2405.68 4255.5  2407 4256.82  2407 4258.5  C 2407 4260.18  2405.68 4261.5  2404 4261.5  " fill-rule="nonzero" fill="#797979" stroke="none" />
</svg>