<?xml version="1.0" encoding="utf-8"?>
<svg version="1.1" xmlns:xlink="http://www.w3.org/1999/xlink" width="12px" height="12px" viewBox="2394 5178.5  12 12" xmlns="http://www.w3.org/2000/svg">
  <path d="M 2400 5178.5  C 2403.36 5178.5  2406 5181.14  2406 5184.5  C 2406 5187.86  2403.36 5190.5  2400 5190.5  C 2396.64 5190.5  2394 5187.86  2394 5184.5  C 2394 5181.14  2396.64 5178.5  2400 5178.5  Z " fill-rule="nonzero" fill="#ffffff" stroke="none" />
  <path d="M 2400 5179  C 2403.08 5179  2405.5 5181.42  2405.5 5184.5  C 2405.5 5187.58  2403.08 5190  2400 5190  C 2396.92 5190  2394.5 5187.58  2394.5 5184.5  C 2394.5 5181.42  2396.92 5179  2400 5179  Z " stroke-width="1" stroke="#797979" fill="none" />
  <path d="M 2400 5187.5  C 2398.32 5187.5  2397 5186.18  2397 5184.5  C 2397 5182.82  2398.32 5181.5  2400 5181.5  C 2401.68 5181.5  2403 5182.82  2403 5184.5  C 2403 5186.18  2401.68 5187.5  2400 5187.5  " fill-rule="nonzero" fill="#797979" stroke="none" />
</svg>