<?xml version="1.0" encoding="utf-8"?>
<svg version="1.1" xmlns:xlink="http://www.w3.org/1999/xlink" width="12px" height="12px" viewBox="2395 6321.5  12 12" xmlns="http://www.w3.org/2000/svg">
  <path d="M 2401 6321.5  C 2404.36 6321.5  2407 6324.14  2407 6327.5  C 2407 6330.86  2404.36 6333.5  2401 6333.5  C 2397.64 6333.5  2395 6330.86  2395 6327.5  C 2395 6324.14  2397.64 6321.5  2401 6321.5  Z " fill-rule="nonzero" fill="#ffffff" stroke="none" />
  <path d="M 2401 6322  C 2404.08 6322  2406.5 6324.42  2406.5 6327.5  C 2406.5 6330.58  2404.08 6333  2401 6333  C 2397.92 6333  2395.5 6330.58  2395.5 6327.5  C 2395.5 6324.42  2397.92 6322  2401 6322  Z " stroke-width="1" stroke="#797979" fill="none" />
  <path d="M 2401 6330.5  C 2399.32 6330.5  2398 6329.18  2398 6327.5  C 2398 6325.82  2399.32 6324.5  2401 6324.5  C 2402.68 6324.5  2404 6325.82  2404 6327.5  C 2404 6329.18  2402.68 6330.5  2401 6330.5  " fill-rule="nonzero" fill="#797979" stroke="none" />
</svg>