<?xml version="1.0" encoding="utf-8"?>
<svg version="1.1" xmlns:xlink="http://www.w3.org/1999/xlink" width="12px" height="12px" viewBox="2349 4677.5  12 12" xmlns="http://www.w3.org/2000/svg">
  <path d="M 2355 4677.5  C 2358.36 4677.5  2361 4680.14  2361 4683.5  C 2361 4686.86  2358.36 4689.5  2355 4689.5  C 2351.64 4689.5  2349 4686.86  2349 4683.5  C 2349 4680.14  2351.64 4677.5  2355 4677.5  Z " fill-rule="nonzero" fill="#f0f0f0" stroke="none" />
  <path d="M 2355 4678  C 2358.08 4678  2360.5 4680.42  2360.5 4683.5  C 2360.5 4686.58  2358.08 4689  2355 4689  C 2351.92 4689  2349.5 4686.58  2349.5 4683.5  C 2349.5 4680.42  2351.92 4678  2355 4678  Z " stroke-width="1" stroke="#797979" fill="none" />
  <path d="M 2355 4686.5  C 2353.32 4686.5  2352 4685.18  2352 4683.5  C 2352 4681.82  2353.32 4680.5  2355 4680.5  C 2356.68 4680.5  2358 4681.82  2358 4683.5  C 2358 4685.18  2356.68 4686.5  2355 4686.5  " fill-rule="nonzero" fill="#797979" stroke="none" />
</svg>