<?xml version="1.0" encoding="utf-8"?>
<svg version="1.1" xmlns:xlink="http://www.w3.org/1999/xlink" width="12px" height="12px" viewBox="2397 4718.5  12 12" xmlns="http://www.w3.org/2000/svg">
  <path d="M 2403 4718.5  C 2406.36 4718.5  2409 4721.14  2409 4724.5  C 2409 4727.86  2406.36 4730.5  2403 4730.5  C 2399.64 4730.5  2397 4727.86  2397 4724.5  C 2397 4721.14  2399.64 4718.5  2403 4718.5  Z " fill-rule="nonzero" fill="#ffffff" stroke="none" fill-opacity="0" />
  <path d="M 2403 4719  C 2406.08 4719  2408.5 4721.42  2408.5 4724.5  C 2408.5 4727.58  2406.08 4730  2403 4730  C 2399.92 4730  2397.5 4727.58  2397.5 4724.5  C 2397.5 4721.42  2399.92 4719  2403 4719  Z " stroke-width="1" stroke="#797979" fill="none" />
  <path d="M 2403 4727.5  C 2401.32 4727.5  2400 4726.18  2400 4724.5  C 2400 4722.82  2401.32 4721.5  2403 4721.5  C 2404.68 4721.5  2406 4722.82  2406 4724.5  C 2406 4726.18  2404.68 4727.5  2403 4727.5  " fill-rule="nonzero" fill="#797979" stroke="none" />
</svg>