<?xml version="1.0" encoding="utf-8"?>
<svg version="1.1" xmlns:xlink="http://www.w3.org/1999/xlink" width="12px" height="12px" viewBox="2349 4598.5  12 12" xmlns="http://www.w3.org/2000/svg">
  <path d="M 2355 4598.5  C 2358.36 4598.5  2361 4601.14  2361 4604.5  C 2361 4607.86  2358.36 4610.5  2355 4610.5  C 2351.64 4610.5  2349 4607.86  2349 4604.5  C 2349 4601.14  2351.64 4598.5  2355 4598.5  Z " fill-rule="nonzero" fill="#f0f0f0" stroke="none" />
  <path d="M 2355 4599  C 2358.08 4599  2360.5 4601.42  2360.5 4604.5  C 2360.5 4607.58  2358.08 4610  2355 4610  C 2351.92 4610  2349.5 4607.58  2349.5 4604.5  C 2349.5 4601.42  2351.92 4599  2355 4599  Z " stroke-width="1" stroke="#797979" fill="none" />
  <path d="M 2355 4607.5  C 2353.32 4607.5  2352 4606.18  2352 4604.5  C 2352 4602.82  2353.32 4601.5  2355 4601.5  C 2356.68 4601.5  2358 4602.82  2358 4604.5  C 2358 4606.18  2356.68 4607.5  2355 4607.5  " fill-rule="nonzero" fill="#797979" stroke="none" />
</svg>