<?xml version="1.0" encoding="utf-8"?>
<svg version="1.1" xmlns:xlink="http://www.w3.org/1999/xlink" width="12px" height="12px" viewBox="2396 4561.5  12 12" xmlns="http://www.w3.org/2000/svg">
  <path d="M 2402 4561.5  C 2405.36 4561.5  2408 4564.14  2408 4567.5  C 2408 4570.86  2405.36 4573.5  2402 4573.5  C 2398.64 4573.5  2396 4570.86  2396 4567.5  C 2396 4564.14  2398.64 4561.5  2402 4561.5  Z " fill-rule="nonzero" fill="#ffffff" stroke="none" fill-opacity="0" />
  <path d="M 2402 4562  C 2405.08 4562  2407.5 4564.42  2407.5 4567.5  C 2407.5 4570.58  2405.08 4573  2402 4573  C 2398.92 4573  2396.5 4570.58  2396.5 4567.5  C 2396.5 4564.42  2398.92 4562  2402 4562  Z " stroke-width="1" stroke="#797979" fill="none" />
  <path d="M 2402 4570.5  C 2400.32 4570.5  2399 4569.18  2399 4567.5  C 2399 4565.82  2400.32 4564.5  2402 4564.5  C 2403.68 4564.5  2405 4565.82  2405 4567.5  C 2405 4569.18  2403.68 4570.5  2402 4570.5  " fill-rule="nonzero" fill="#797979" stroke="none" />
</svg>