<?xml version="1.0" encoding="utf-8"?>
<svg version="1.1" xmlns:xlink="http://www.w3.org/1999/xlink" width="12px" height="12px" viewBox="1996 4883  12 12" xmlns="http://www.w3.org/2000/svg">
  <path d="M 1996.5 4885  A 1.5 1.5 0 0 1 1998 4883.5 L 2006 4883.5  A 1.5 1.5 0 0 1 2007.5 4885 L 2007.5 4893  A 1.5 1.5 0 0 1 2006 4894.5 L 1998 4894.5  A 1.5 1.5 0 0 1 1996.5 4893 L 1996.5 4885  Z " fill-rule="nonzero" fill="#f0f0f0" stroke="none" />
  <path d="M 1996.5 4885  A 1.5 1.5 0 0 1 1998 4883.5 L 2006 4883.5  A 1.5 1.5 0 0 1 2007.5 4885 L 2007.5 4893  A 1.5 1.5 0 0 1 2006 4894.5 L 1998 4894.5  A 1.5 1.5 0 0 1 1996.5 4893 L 1996.5 4885  Z " stroke-width="1" stroke="#797979" fill="none" />
</svg>