<?xml version="1.0" encoding="utf-8"?>
<svg version="1.1" xmlns:xlink="http://www.w3.org/1999/xlink" width="12px" height="12px" viewBox="2396 4926.5  12 12" xmlns="http://www.w3.org/2000/svg">
  <path d="M 2402 4926.5  C 2405.36 4926.5  2408 4929.14  2408 4932.5  C 2408 4935.86  2405.36 4938.5  2402 4938.5  C 2398.64 4938.5  2396 4935.86  2396 4932.5  C 2396 4929.14  2398.64 4926.5  2402 4926.5  Z " fill-rule="nonzero" fill="#f0f0f0" stroke="none" />
  <path d="M 2402 4927  C 2405.08 4927  2407.5 4929.42  2407.5 4932.5  C 2407.5 4935.58  2405.08 4938  2402 4938  C 2398.92 4938  2396.5 4935.58  2396.5 4932.5  C 2396.5 4929.42  2398.92 4927  2402 4927  Z " stroke-width="1" stroke="#797979" fill="none" />
  <path d="M 2402 4935.5  C 2400.32 4935.5  2399 4934.18  2399 4932.5  C 2399 4930.82  2400.32 4929.5  2402 4929.5  C 2403.68 4929.5  2405 4930.82  2405 4932.5  C 2405 4934.18  2403.68 4935.5  2402 4935.5  " fill-rule="nonzero" fill="#797979" stroke="none" />
</svg>