<?xml version="1.0" encoding="utf-8"?>
<svg version="1.1" xmlns:xlink="http://www.w3.org/1999/xlink" width="12px" height="12px" viewBox="1997 6234  12 12" xmlns="http://www.w3.org/2000/svg">
  <path d="M 1997.5 6236  A 1.5 1.5 0 0 1 1999 6234.5 L 2007 6234.5  A 1.5 1.5 0 0 1 2008.5 6236 L 2008.5 6244  A 1.5 1.5 0 0 1 2007 6245.5 L 1999 6245.5  A 1.5 1.5 0 0 1 1997.5 6244 L 1997.5 6236  Z " fill-rule="nonzero" fill="#ffffff" stroke="none" />
  <path d="M 1997.5 6236  A 1.5 1.5 0 0 1 1999 6234.5 L 2007 6234.5  A 1.5 1.5 0 0 1 2008.5 6236 L 2008.5 6244  A 1.5 1.5 0 0 1 2007 6245.5 L 1999 6245.5  A 1.5 1.5 0 0 1 1997.5 6244 L 1997.5 6236  Z " stroke-width="1" stroke="#797979" fill="none" />
  <path d="M 1999.57142857143 6240  L 2002.14285714286 6242.57142857143  " stroke-width="2.57142857142857" stroke="#797979" fill="none" />
  <path d="M 2002.14285714286 6242.57142857143  L 2006.42857142857 6236.57142857143  " stroke-width="2.57142857142857" stroke="#797979" fill="none" />
</svg>