<?xml version="1.0" encoding="utf-8"?>
<svg version="1.1" xmlns:xlink="http://www.w3.org/1999/xlink" width="12px" height="12px" viewBox="1994 6360  12 12" xmlns="http://www.w3.org/2000/svg">
  <path d="M 1994.5 6362  A 1.5 1.5 0 0 1 1996 6360.5 L 2004 6360.5  A 1.5 1.5 0 0 1 2005.5 6362 L 2005.5 6370  A 1.5 1.5 0 0 1 2004 6371.5 L 1996 6371.5  A 1.5 1.5 0 0 1 1994.5 6370 L 1994.5 6362  Z " fill-rule="nonzero" fill="#f0f0f0" stroke="none" />
  <path d="M 1994.5 6362  A 1.5 1.5 0 0 1 1996 6360.5 L 2004 6360.5  A 1.5 1.5 0 0 1 2005.5 6362 L 2005.5 6370  A 1.5 1.5 0 0 1 2004 6371.5 L 1996 6371.5  A 1.5 1.5 0 0 1 1994.5 6370 L 1994.5 6362  Z " stroke-width="1" stroke="#797979" fill="none" />
</svg>