<?xml version="1.0" encoding="utf-8"?>
<svg version="1.1" xmlns:xlink="http://www.w3.org/1999/xlink" width="12px" height="12px" viewBox="2349 6535.5  12 12" xmlns="http://www.w3.org/2000/svg">
  <path d="M 2355 6535.5  C 2358.36 6535.5  2361 6538.14  2361 6541.5  C 2361 6544.86  2358.36 6547.5  2355 6547.5  C 2351.64 6547.5  2349 6544.86  2349 6541.5  C 2349 6538.14  2351.64 6535.5  2355 6535.5  Z " fill-rule="nonzero" fill="#f0f0f0" stroke="none" />
  <path d="M 2355 6536  C 2358.08 6536  2360.5 6538.42  2360.5 6541.5  C 2360.5 6544.58  2358.08 6547  2355 6547  C 2351.92 6547  2349.5 6544.58  2349.5 6541.5  C 2349.5 6538.42  2351.92 6536  2355 6536  Z " stroke-width="1" stroke="#797979" fill="none" />
  <path d="M 2355 6544.5  C 2353.32 6544.5  2352 6543.18  2352 6541.5  C 2352 6539.82  2353.32 6538.5  2355 6538.5  C 2356.68 6538.5  2358 6539.82  2358 6541.5  C 2358 6543.18  2356.68 6544.5  2355 6544.5  " fill-rule="nonzero" fill="#797979" stroke="none" />
</svg>