<?xml version="1.0" encoding="utf-8"?>
<svg version="1.1" xmlns:xlink="http://www.w3.org/1999/xlink" width="12px" height="12px" viewBox="2396 6276.5  12 12" xmlns="http://www.w3.org/2000/svg">
  <path d="M 2402 6276.5  C 2405.36 6276.5  2408 6279.14  2408 6282.5  C 2408 6285.86  2405.36 6288.5  2402 6288.5  C 2398.64 6288.5  2396 6285.86  2396 6282.5  C 2396 6279.14  2398.64 6276.5  2402 6276.5  Z " fill-rule="nonzero" fill="#f0f0f0" stroke="none" />
  <path d="M 2402 6277  C 2405.08 6277  2407.5 6279.42  2407.5 6282.5  C 2407.5 6285.58  2405.08 6288  2402 6288  C 2398.92 6288  2396.5 6285.58  2396.5 6282.5  C 2396.5 6279.42  2398.92 6277  2402 6277  Z " stroke-width="1" stroke="#797979" fill="none" />
  <path d="M 2402 6285.5  C 2400.32 6285.5  2399 6284.18  2399 6282.5  C 2399 6280.82  2400.32 6279.5  2402 6279.5  C 2403.68 6279.5  2405 6280.82  2405 6282.5  C 2405 6284.18  2403.68 6285.5  2402 6285.5  " fill-rule="nonzero" fill="#797979" stroke="none" />
</svg>