<?xml version="1.0" encoding="utf-8"?>
<svg version="1.1" xmlns:xlink="http://www.w3.org/1999/xlink" width="12px" height="12px" viewBox="2396 4759.5  12 12" xmlns="http://www.w3.org/2000/svg">
  <path d="M 2402 4759.5  C 2405.36 4759.5  2408 4762.14  2408 4765.5  C 2408 4768.86  2405.36 4771.5  2402 4771.5  C 2398.64 4771.5  2396 4768.86  2396 4765.5  C 2396 4762.14  2398.64 4759.5  2402 4759.5  Z " fill-rule="nonzero" fill="#f0f0f0" stroke="none" />
  <path d="M 2402 4760  C 2405.08 4760  2407.5 4762.42  2407.5 4765.5  C 2407.5 4768.58  2405.08 4771  2402 4771  C 2398.92 4771  2396.5 4768.58  2396.5 4765.5  C 2396.5 4762.42  2398.92 4760  2402 4760  Z " stroke-width="1" stroke="#797979" fill="none" />
  <path d="M 2402 4768.5  C 2400.32 4768.5  2399 4767.18  2399 4765.5  C 2399 4763.82  2400.32 4762.5  2402 4762.5  C 2403.68 4762.5  2405 4763.82  2405 4765.5  C 2405 4767.18  2403.68 4768.5  2402 4768.5  " fill-rule="nonzero" fill="#797979" stroke="none" />
</svg>