<?xml version="1.0" encoding="utf-8"?>
<svg version="1.1" xmlns:xlink="http://www.w3.org/1999/xlink" width="12px" height="12px" viewBox="2349 6494.5  12 12" xmlns="http://www.w3.org/2000/svg">
  <path d="M 2355 6494.5  C 2358.36 6494.5  2361 6497.14  2361 6500.5  C 2361 6503.86  2358.36 6506.5  2355 6506.5  C 2351.64 6506.5  2349 6503.86  2349 6500.5  C 2349 6497.14  2351.64 6494.5  2355 6494.5  Z " fill-rule="nonzero" fill="#ffffff" stroke="none" />
  <path d="M 2355 6495  C 2358.08 6495  2360.5 6497.42  2360.5 6500.5  C 2360.5 6503.58  2358.08 6506  2355 6506  C 2351.92 6506  2349.5 6503.58  2349.5 6500.5  C 2349.5 6497.42  2351.92 6495  2355 6495  Z " stroke-width="1" stroke="#797979" fill="none" />
  <path d="M 2355 6503.5  C 2353.32 6503.5  2352 6502.18  2352 6500.5  C 2352 6498.82  2353.32 6497.5  2355 6497.5  C 2356.68 6497.5  2358 6498.82  2358 6500.5  C 2358 6502.18  2356.68 6503.5  2355 6503.5  " fill-rule="nonzero" fill="#797979" stroke="none" />
</svg>