<?xml version="1.0" encoding="utf-8"?>
<svg version="1.1" xmlns:xlink="http://www.w3.org/1999/xlink" width="12px" height="12px" viewBox="1996 2854  12 12" xmlns="http://www.w3.org/2000/svg">
  <path d="M 1996.5 2856  A 1.5 1.5 0 0 1 1998 2854.5 L 2006 2854.5  A 1.5 1.5 0 0 1 2007.5 2856 L 2007.5 2864  A 1.5 1.5 0 0 1 2006 2865.5 L 1998 2865.5  A 1.5 1.5 0 0 1 1996.5 2864 L 1996.5 2856  Z " fill-rule="nonzero" fill="#f0f0f0" stroke="none" />
  <path d="M 1996.5 2856  A 1.5 1.5 0 0 1 1998 2854.5 L 2006 2854.5  A 1.5 1.5 0 0 1 2007.5 2856 L 2007.5 2864  A 1.5 1.5 0 0 1 2006 2865.5 L 1998 2865.5  A 1.5 1.5 0 0 1 1996.5 2864 L 1996.5 2856  Z " stroke-width="1" stroke="#797979" fill="none" />
</svg>