<?xml version="1.0" encoding="utf-8"?>
<svg version="1.1" xmlns:xlink="http://www.w3.org/1999/xlink" width="12px" height="12px" viewBox="1997 3011  12 12" xmlns="http://www.w3.org/2000/svg">
  <path d="M 1997.5 3013  A 1.5 1.5 0 0 1 1999 3011.5 L 2007 3011.5  A 1.5 1.5 0 0 1 2008.5 3013 L 2008.5 3021  A 1.5 1.5 0 0 1 2007 3022.5 L 1999 3022.5  A 1.5 1.5 0 0 1 1997.5 3021 L 1997.5 3013  Z " fill-rule="nonzero" fill="#f0f0f0" stroke="none" />
  <path d="M 1997.5 3013  A 1.5 1.5 0 0 1 1999 3011.5 L 2007 3011.5  A 1.5 1.5 0 0 1 2008.5 3013 L 2008.5 3021  A 1.5 1.5 0 0 1 2007 3022.5 L 1999 3022.5  A 1.5 1.5 0 0 1 1997.5 3021 L 1997.5 3013  Z " stroke-width="1" stroke="#797979" fill="none" />
  <path d="M 1999.57142857143 3017  L 2002.14285714286 3019.57142857143  " stroke-width="2.57142857142857" stroke="#797979" fill="none" />
  <path d="M 2002.14285714286 3019.57142857143  L 2006.42857142857 3013.57142857143  " stroke-width="2.57142857142857" stroke="#797979" fill="none" />
</svg>