<?xml version="1.0" encoding="utf-8"?>
<svg version="1.1" xmlns:xlink="http://www.w3.org/1999/xlink" width="12px" height="12px" viewBox="2397 3349.5  12 12" xmlns="http://www.w3.org/2000/svg">
  <path d="M 2403 3349.5  C 2406.36 3349.5  2409 3352.14  2409 3355.5  C 2409 3358.86  2406.36 3361.5  2403 3361.5  C 2399.64 3361.5  2397 3358.86  2397 3355.5  C 2397 3352.14  2399.64 3349.5  2403 3349.5  Z " fill-rule="nonzero" fill="#ffffff" stroke="none" />
  <path d="M 2403 3350  C 2406.08 3350  2408.5 3352.42  2408.5 3355.5  C 2408.5 3358.58  2406.08 3361  2403 3361  C 2399.92 3361  2397.5 3358.58  2397.5 3355.5  C 2397.5 3352.42  2399.92 3350  2403 3350  Z " stroke-width="1" stroke="#797979" fill="none" />
  <path d="M 2403 3358.5  C 2401.32 3358.5  2400 3357.18  2400 3355.5  C 2400 3353.82  2401.32 3352.5  2403 3352.5  C 2404.68 3352.5  2406 3353.82  2406 3355.5  C 2406 3357.18  2404.68 3358.5  2403 3358.5  " fill-rule="nonzero" fill="#797979" stroke="none" />
</svg>