<?xml version="1.0" encoding="utf-8"?>
<svg version="1.1" xmlns:xlink="http://www.w3.org/1999/xlink" width="12px" height="12px" viewBox="1998 5968  12 12" xmlns="http://www.w3.org/2000/svg">
  <path d="M 1998.5 5970  A 1.5 1.5 0 0 1 2000 5968.5 L 2008 5968.5  A 1.5 1.5 0 0 1 2009.5 5970 L 2009.5 5978  A 1.5 1.5 0 0 1 2008 5979.5 L 2000 5979.5  A 1.5 1.5 0 0 1 1998.5 5978 L 1998.5 5970  Z " fill-rule="nonzero" fill="#ffffff" stroke="none" />
  <path d="M 1998.5 5970  A 1.5 1.5 0 0 1 2000 5968.5 L 2008 5968.5  A 1.5 1.5 0 0 1 2009.5 5970 L 2009.5 5978  A 1.5 1.5 0 0 1 2008 5979.5 L 2000 5979.5  A 1.5 1.5 0 0 1 1998.5 5978 L 1998.5 5970  Z " stroke-width="1" stroke="#797979" fill="none" />
</svg>