<?xml version="1.0" encoding="utf-8"?>
<svg version="1.1" xmlns:xlink="http://www.w3.org/1999/xlink" width="12px" height="12px" viewBox="2350 3217.5  12 12" xmlns="http://www.w3.org/2000/svg">
  <path d="M 2356 3217.5  C 2359.36 3217.5  2362 3220.14  2362 3223.5  C 2362 3226.86  2359.36 3229.5  2356 3229.5  C 2352.64 3229.5  2350 3226.86  2350 3223.5  C 2350 3220.14  2352.64 3217.5  2356 3217.5  Z " fill-rule="nonzero" fill="#f0f0f0" stroke="none" />
  <path d="M 2356 3218  C 2359.08 3218  2361.5 3220.42  2361.5 3223.5  C 2361.5 3226.58  2359.08 3229  2356 3229  C 2352.92 3229  2350.5 3226.58  2350.5 3223.5  C 2350.5 3220.42  2352.92 3218  2356 3218  Z " stroke-width="1" stroke="#797979" fill="none" />
  <path d="M 2356 3226.5  C 2354.32 3226.5  2353 3225.18  2353 3223.5  C 2353 3221.82  2354.32 3220.5  2356 3220.5  C 2357.68 3220.5  2359 3221.82  2359 3223.5  C 2359 3225.18  2357.68 3226.5  2356 3226.5  " fill-rule="nonzero" fill="#797979" stroke="none" />
</svg>