<?xml version="1.0" encoding="utf-8"?>
<svg version="1.1" xmlns:xlink="http://www.w3.org/1999/xlink" width="12px" height="12px" viewBox="1996 2970  12 12" xmlns="http://www.w3.org/2000/svg">
  <path d="M 1996.5 2972  A 1.5 1.5 0 0 1 1998 2970.5 L 2006 2970.5  A 1.5 1.5 0 0 1 2007.5 2972 L 2007.5 2980  A 1.5 1.5 0 0 1 2006 2981.5 L 1998 2981.5  A 1.5 1.5 0 0 1 1996.5 2980 L 1996.5 2972  Z " fill-rule="nonzero" fill="#ffffff" stroke="none" />
  <path d="M 1996.5 2972  A 1.5 1.5 0 0 1 1998 2970.5 L 2006 2970.5  A 1.5 1.5 0 0 1 2007.5 2972 L 2007.5 2980  A 1.5 1.5 0 0 1 2006 2981.5 L 1998 2981.5  A 1.5 1.5 0 0 1 1996.5 2980 L 1996.5 2972  Z " stroke-width="1" stroke="#797979" fill="none" />
  <path d="M 1998.57142857143 2976  L 2001.14285714286 2978.57142857143  " stroke-width="2.57142857142857" stroke="#797979" fill="none" />
  <path d="M 2001.14285714286 2978.57142857143  L 2005.42857142857 2972.57142857143  " stroke-width="2.57142857142857" stroke="#797979" fill="none" />
</svg>