<?xml version="1.0" encoding="utf-8"?>
<svg version="1.1" xmlns:xlink="http://www.w3.org/1999/xlink" width="12px" height="12px" viewBox="2350 2893.5  12 12" xmlns="http://www.w3.org/2000/svg">
  <path d="M 2356 2893.5  C 2359.36 2893.5  2362 2896.14  2362 2899.5  C 2362 2902.86  2359.36 2905.5  2356 2905.5  C 2352.64 2905.5  2350 2902.86  2350 2899.5  C 2350 2896.14  2352.64 2893.5  2356 2893.5  Z " fill-rule="nonzero" fill="#d7d7d7" stroke="none" />
  <path d="M 2356 2894  C 2359.08 2894  2361.5 2896.42  2361.5 2899.5  C 2361.5 2902.58  2359.08 2905  2356 2905  C 2352.92 2905  2350.5 2902.58  2350.5 2899.5  C 2350.5 2896.42  2352.92 2894  2356 2894  Z " stroke-width="1" stroke="#797979" fill="none" />
  <path d="M 2356 2902.5  C 2354.32 2902.5  2353 2901.18  2353 2899.5  C 2353 2897.82  2354.32 2896.5  2356 2896.5  C 2357.68 2896.5  2359 2897.82  2359 2899.5  C 2359 2901.18  2357.68 2902.5  2356 2902.5  " fill-rule="nonzero" fill="#797979" stroke="none" />
</svg>