<?xml version="1.0" encoding="utf-8"?>
<svg version="1.1" xmlns:xlink="http://www.w3.org/1999/xlink" width="12px" height="12px" viewBox="2349 5348.5  12 12" xmlns="http://www.w3.org/2000/svg">
  <path d="M 2355 5348.5  C 2358.36 5348.5  2361 5351.14  2361 5354.5  C 2361 5357.86  2358.36 5360.5  2355 5360.5  C 2351.64 5360.5  2349 5357.86  2349 5354.5  C 2349 5351.14  2351.64 5348.5  2355 5348.5  Z " fill-rule="nonzero" fill="#ffffff" stroke="none" />
  <path d="M 2355 5349  C 2358.08 5349  2360.5 5351.42  2360.5 5354.5  C 2360.5 5357.58  2358.08 5360  2355 5360  C 2351.92 5360  2349.5 5357.58  2349.5 5354.5  C 2349.5 5351.42  2351.92 5349  2355 5349  Z " stroke-width="1" stroke="#797979" fill="none" />
  <path d="M 2355 5357.5  C 2353.32 5357.5  2352 5356.18  2352 5354.5  C 2352 5352.82  2353.32 5351.5  2355 5351.5  C 2356.68 5351.5  2358 5352.82  2358 5354.5  C 2358 5356.18  2356.68 5357.5  2355 5357.5  " fill-rule="nonzero" fill="#797979" stroke="none" />
</svg>