<?xml version="1.0" encoding="utf-8"?>
<svg version="1.1" xmlns:xlink="http://www.w3.org/1999/xlink" width="12px" height="12px" viewBox="1998 5260  12 12" xmlns="http://www.w3.org/2000/svg">
  <path d="M 1998.5 5262  A 1.5 1.5 0 0 1 2000 5260.5 L 2008 5260.5  A 1.5 1.5 0 0 1 2009.5 5262 L 2009.5 5270  A 1.5 1.5 0 0 1 2008 5271.5 L 2000 5271.5  A 1.5 1.5 0 0 1 1998.5 5270 L 1998.5 5262  Z " fill-rule="nonzero" fill="#ffffff" stroke="none" />
  <path d="M 1998.5 5262  A 1.5 1.5 0 0 1 2000 5260.5 L 2008 5260.5  A 1.5 1.5 0 0 1 2009.5 5262 L 2009.5 5270  A 1.5 1.5 0 0 1 2008 5271.5 L 2000 5271.5  A 1.5 1.5 0 0 1 1998.5 5270 L 1998.5 5262  Z " stroke-width="1" stroke="#797979" fill="none" />
</svg>