<?xml version="1.0" encoding="utf-8"?>
<svg version="1.1" xmlns:xlink="http://www.w3.org/1999/xlink" width="12px" height="12px" viewBox="1996 3175  12 12" xmlns="http://www.w3.org/2000/svg">
  <path d="M 1996.5 3177  A 1.5 1.5 0 0 1 1998 3175.5 L 2006 3175.5  A 1.5 1.5 0 0 1 2007.5 3177 L 2007.5 3185  A 1.5 1.5 0 0 1 2006 3186.5 L 1998 3186.5  A 1.5 1.5 0 0 1 1996.5 3185 L 1996.5 3177  Z " fill-rule="nonzero" fill="#f0f0f0" stroke="none" />
  <path d="M 1996.5 3177  A 1.5 1.5 0 0 1 1998 3175.5 L 2006 3175.5  A 1.5 1.5 0 0 1 2007.5 3177 L 2007.5 3185  A 1.5 1.5 0 0 1 2006 3186.5 L 1998 3186.5  A 1.5 1.5 0 0 1 1996.5 3185 L 1996.5 3177  Z " stroke-width="1" stroke="#797979" fill="none" />
</svg>