<?xml version="1.0" encoding="utf-8"?>
<svg version="1.1" xmlns:xlink="http://www.w3.org/1999/xlink" width="12px" height="12px" viewBox="1998 3347  12 12" xmlns="http://www.w3.org/2000/svg">
  <path d="M 1998.5 3349  A 1.5 1.5 0 0 1 2000 3347.5 L 2008 3347.5  A 1.5 1.5 0 0 1 2009.5 3349 L 2009.5 3357  A 1.5 1.5 0 0 1 2008 3358.5 L 2000 3358.5  A 1.5 1.5 0 0 1 1998.5 3357 L 1998.5 3349  Z " fill-rule="nonzero" fill="#ffffff" stroke="none" />
  <path d="M 1998.5 3349  A 1.5 1.5 0 0 1 2000 3347.5 L 2008 3347.5  A 1.5 1.5 0 0 1 2009.5 3349 L 2009.5 3357  A 1.5 1.5 0 0 1 2008 3358.5 L 2000 3358.5  A 1.5 1.5 0 0 1 1998.5 3357 L 1998.5 3349  Z " stroke-width="1" stroke="#797979" fill="none" />
  <path d="M 2000.57142857143 3353  L 2003.14285714286 3355.57142857143  " stroke-width="2.57142857142857" stroke="#797979" fill="none" />
  <path d="M 2003.14285714286 3355.57142857143  L 2007.42857142857 3349.57142857143  " stroke-width="2.57142857142857" stroke="#797979" fill="none" />
</svg>