<?xml version="1.0" encoding="utf-8"?>
<svg version="1.1" xmlns:xlink="http://www.w3.org/1999/xlink" width="12px" height="12px" viewBox="2349 5388.5  12 12" xmlns="http://www.w3.org/2000/svg">
  <path d="M 2355 5388.5  C 2358.36 5388.5  2361 5391.14  2361 5394.5  C 2361 5397.86  2358.36 5400.5  2355 5400.5  C 2351.64 5400.5  2349 5397.86  2349 5394.5  C 2349 5391.14  2351.64 5388.5  2355 5388.5  Z " fill-rule="nonzero" fill="#ffffff" stroke="none" />
  <path d="M 2355 5389  C 2358.08 5389  2360.5 5391.42  2360.5 5394.5  C 2360.5 5397.58  2358.08 5400  2355 5400  C 2351.92 5400  2349.5 5397.58  2349.5 5394.5  C 2349.5 5391.42  2351.92 5389  2355 5389  Z " stroke-width="1" stroke="#797979" fill="none" />
  <path d="M 2355 5397.5  C 2353.32 5397.5  2352 5396.18  2352 5394.5  C 2352 5392.82  2353.32 5391.5  2355 5391.5  C 2356.68 5391.5  2358 5392.82  2358 5394.5  C 2358 5396.18  2356.68 5397.5  2355 5397.5  " fill-rule="nonzero" fill="#797979" stroke="none" />
</svg>