<?xml version="1.0" encoding="utf-8"?>
<svg version="1.1" xmlns:xlink="http://www.w3.org/1999/xlink" width="12px" height="12px" viewBox="1996 5850  12 12" xmlns="http://www.w3.org/2000/svg">
  <path d="M 1996.5 5852  A 1.5 1.5 0 0 1 1998 5850.5 L 2006 5850.5  A 1.5 1.5 0 0 1 2007.5 5852 L 2007.5 5860  A 1.5 1.5 0 0 1 2006 5861.5 L 1998 5861.5  A 1.5 1.5 0 0 1 1996.5 5860 L 1996.5 5852  Z " fill-rule="nonzero" fill="#ffffff" stroke="none" fill-opacity="0" />
  <path d="M 1996.5 5852  A 1.5 1.5 0 0 1 1998 5850.5 L 2006 5850.5  A 1.5 1.5 0 0 1 2007.5 5852 L 2007.5 5860  A 1.5 1.5 0 0 1 2006 5861.5 L 1998 5861.5  A 1.5 1.5 0 0 1 1996.5 5860 L 1996.5 5852  Z " stroke-width="1" stroke="#797979" fill="none" />
  <path d="M 1998.57142857143 5856  L 2001.14285714286 5858.57142857143  " stroke-width="2.57142857142857" stroke="#797979" fill="none" />
  <path d="M 2001.14285714286 5858.57142857143  L 2005.42857142857 5852.57142857143  " stroke-width="2.57142857142857" stroke="#797979" fill="none" />
</svg>