<?xml version="1.0" encoding="utf-8"?>
<svg version="1.1" xmlns:xlink="http://www.w3.org/1999/xlink" width="12px" height="12px" viewBox="2349 5893.5  12 12" xmlns="http://www.w3.org/2000/svg">
  <path d="M 2355 5893.5  C 2358.36 5893.5  2361 5896.14  2361 5899.5  C 2361 5902.86  2358.36 5905.5  2355 5905.5  C 2351.64 5905.5  2349 5902.86  2349 5899.5  C 2349 5896.14  2351.64 5893.5  2355 5893.5  Z " fill-rule="nonzero" fill="#ffffff" stroke="none" fill-opacity="0" />
  <path d="M 2355 5894  C 2358.08 5894  2360.5 5896.42  2360.5 5899.5  C 2360.5 5902.58  2358.08 5905  2355 5905  C 2351.92 5905  2349.5 5902.58  2349.5 5899.5  C 2349.5 5896.42  2351.92 5894  2355 5894  Z " stroke-width="1" stroke="#797979" fill="none" />
  <path d="M 2355 5902.5  C 2353.32 5902.5  2352 5901.18  2352 5899.5  C 2352 5897.82  2353.32 5896.5  2355 5896.5  C 2356.68 5896.5  2358 5897.82  2358 5899.5  C 2358 5901.18  2356.68 5902.5  2355 5902.5  " fill-rule="nonzero" fill="#797979" stroke="none" />
</svg>