<?xml version="1.0" encoding="utf-8"?>
<svg version="1.1" xmlns:xlink="http://www.w3.org/1999/xlink" width="12px" height="12px" viewBox="2397 6010.5  12 12" xmlns="http://www.w3.org/2000/svg">
  <path d="M 2403 6010.5  C 2406.36 6010.5  2409 6013.14  2409 6016.5  C 2409 6019.86  2406.36 6022.5  2403 6022.5  C 2399.64 6022.5  2397 6019.86  2397 6016.5  C 2397 6013.14  2399.64 6010.5  2403 6010.5  Z " fill-rule="nonzero" fill="#f0f0f0" stroke="none" />
  <path d="M 2403 6011  C 2406.08 6011  2408.5 6013.42  2408.5 6016.5  C 2408.5 6019.58  2406.08 6022  2403 6022  C 2399.92 6022  2397.5 6019.58  2397.5 6016.5  C 2397.5 6013.42  2399.92 6011  2403 6011  Z " stroke-width="1" stroke="#797979" fill="none" />
  <path d="M 2403 6019.5  C 2401.32 6019.5  2400 6018.18  2400 6016.5  C 2400 6014.82  2401.32 6013.5  2403 6013.5  C 2404.68 6013.5  2406 6014.82  2406 6016.5  C 2406 6018.18  2404.68 6019.5  2403 6019.5  " fill-rule="nonzero" fill="#797979" stroke="none" />
</svg>