<?xml version="1.0" encoding="utf-8"?>
<svg version="1.1" xmlns:xlink="http://www.w3.org/1999/xlink" width="12px" height="12px" viewBox="2397 5685.5  12 12" xmlns="http://www.w3.org/2000/svg">
  <path d="M 2403 5685.5  C 2406.36 5685.5  2409 5688.14  2409 5691.5  C 2409 5694.86  2406.36 5697.5  2403 5697.5  C 2399.64 5697.5  2397 5694.86  2397 5691.5  C 2397 5688.14  2399.64 5685.5  2403 5685.5  Z " fill-rule="nonzero" fill="#f0f0f0" stroke="none" />
  <path d="M 2403 5686  C 2406.08 5686  2408.5 5688.42  2408.5 5691.5  C 2408.5 5694.58  2406.08 5697  2403 5697  C 2399.92 5697  2397.5 5694.58  2397.5 5691.5  C 2397.5 5688.42  2399.92 5686  2403 5686  Z " stroke-width="1" stroke="#797979" fill="none" />
  <path d="M 2403 5694.5  C 2401.32 5694.5  2400 5693.18  2400 5691.5  C 2400 5689.82  2401.32 5688.5  2403 5688.5  C 2404.68 5688.5  2406 5689.82  2406 5691.5  C 2406 5693.18  2404.68 5694.5  2403 5694.5  " fill-rule="nonzero" fill="#797979" stroke="none" />
</svg>