<?xml version="1.0" encoding="utf-8"?>
<svg version="1.1" xmlns:xlink="http://www.w3.org/1999/xlink" width="12px" height="12px" viewBox="2394 6191.5  12 12" xmlns="http://www.w3.org/2000/svg">
  <path d="M 2400 6191.5  C 2403.36 6191.5  2406 6194.14  2406 6197.5  C 2406 6200.86  2403.36 6203.5  2400 6203.5  C 2396.64 6203.5  2394 6200.86  2394 6197.5  C 2394 6194.14  2396.64 6191.5  2400 6191.5  Z " fill-rule="nonzero" fill="#ffffff" stroke="none" />
  <path d="M 2400 6192  C 2403.08 6192  2405.5 6194.42  2405.5 6197.5  C 2405.5 6200.58  2403.08 6203  2400 6203  C 2396.92 6203  2394.5 6200.58  2394.5 6197.5  C 2394.5 6194.42  2396.92 6192  2400 6192  Z " stroke-width="1" stroke="#797979" fill="none" />
  <path d="M 2400 6200.5  C 2398.32 6200.5  2397 6199.18  2397 6197.5  C 2397 6195.82  2398.32 6194.5  2400 6194.5  C 2401.68 6194.5  2403 6195.82  2403 6197.5  C 2403 6199.18  2401.68 6200.5  2400 6200.5  " fill-rule="nonzero" fill="#797979" stroke="none" />
</svg>