<?xml version="1.0" encoding="utf-8"?>
<svg version="1.1" xmlns:xlink="http://www.w3.org/1999/xlink" width="12px" height="12px" viewBox="2349 5565.5  12 12" xmlns="http://www.w3.org/2000/svg">
  <path d="M 2355 5565.5  C 2358.36 5565.5  2361 5568.14  2361 5571.5  C 2361 5574.86  2358.36 5577.5  2355 5577.5  C 2351.64 5577.5  2349 5574.86  2349 5571.5  C 2349 5568.14  2351.64 5565.5  2355 5565.5  Z " fill-rule="nonzero" fill="#d7d7d7" stroke="none" />
  <path d="M 2355 5566  C 2358.08 5566  2360.5 5568.42  2360.5 5571.5  C 2360.5 5574.58  2358.08 5577  2355 5577  C 2351.92 5577  2349.5 5574.58  2349.5 5571.5  C 2349.5 5568.42  2351.92 5566  2355 5566  Z " stroke-width="1" stroke="#797979" fill="none" />
  <path d="M 2355 5574.5  C 2353.32 5574.5  2352 5573.18  2352 5571.5  C 2352 5569.82  2353.32 5568.5  2355 5568.5  C 2356.68 5568.5  2358 5569.82  2358 5571.5  C 2358 5573.18  2356.68 5574.5  2355 5574.5  " fill-rule="nonzero" fill="#797979" stroke="none" />
</svg>