<?xml version="1.0" encoding="utf-8"?>
<svg version="1.1" xmlns:xlink="http://www.w3.org/1999/xlink" width="12px" height="12px" viewBox="1740 5398  12 12" xmlns="http://www.w3.org/2000/svg">
  <path d="M 1740.5 5400  A 1.5 1.5 0 0 1 1742 5398.5 L 1750 5398.5  A 1.5 1.5 0 0 1 1751.5 5400 L 1751.5 5408  A 1.5 1.5 0 0 1 1750 5409.5 L 1742 5409.5  A 1.5 1.5 0 0 1 1740.5 5408 L 1740.5 5400  Z " fill-rule="nonzero" fill="#ffffff" stroke="none" />
  <path d="M 1740.5 5400  A 1.5 1.5 0 0 1 1742 5398.5 L 1750 5398.5  A 1.5 1.5 0 0 1 1751.5 5400 L 1751.5 5408  A 1.5 1.5 0 0 1 1750 5409.5 L 1742 5409.5  A 1.5 1.5 0 0 1 1740.5 5408 L 1740.5 5400  Z " stroke-width="1" stroke="#797979" fill="none" />
</svg>