<?xml version="1.0" encoding="utf-8"?>
<svg version="1.1" xmlns:xlink="http://www.w3.org/1999/xlink" width="12px" height="12px" viewBox="2349 6096.5  12 12" xmlns="http://www.w3.org/2000/svg">
  <path d="M 2355 6096.5  C 2358.36 6096.5  2361 6099.14  2361 6102.5  C 2361 6105.86  2358.36 6108.5  2355 6108.5  C 2351.64 6108.5  2349 6105.86  2349 6102.5  C 2349 6099.14  2351.64 6096.5  2355 6096.5  Z " fill-rule="nonzero" fill="#ffffff" stroke="none" />
  <path d="M 2355 6097  C 2358.08 6097  2360.5 6099.42  2360.5 6102.5  C 2360.5 6105.58  2358.08 6108  2355 6108  C 2351.92 6108  2349.5 6105.58  2349.5 6102.5  C 2349.5 6099.42  2351.92 6097  2355 6097  Z " stroke-width="1" stroke="#797979" fill="none" />
  <path d="M 2355 6105.5  C 2353.32 6105.5  2352 6104.18  2352 6102.5  C 2352 6100.82  2353.32 6099.5  2355 6099.5  C 2356.68 6099.5  2358 6100.82  2358 6102.5  C 2358 6104.18  2356.68 6105.5  2355 6105.5  " fill-rule="nonzero" fill="#797979" stroke="none" />
</svg>