<?xml version="1.0" encoding="utf-8"?>
<svg version="1.1" xmlns:xlink="http://www.w3.org/1999/xlink" width="12px" height="12px" viewBox="2349 5726.5  12 12" xmlns="http://www.w3.org/2000/svg">
  <path d="M 2355 5726.5  C 2358.36 5726.5  2361 5729.14  2361 5732.5  C 2361 5735.86  2358.36 5738.5  2355 5738.5  C 2351.64 5738.5  2349 5735.86  2349 5732.5  C 2349 5729.14  2351.64 5726.5  2355 5726.5  Z " fill-rule="nonzero" fill="#f0f0f0" stroke="none" />
  <path d="M 2355 5727  C 2358.08 5727  2360.5 5729.42  2360.5 5732.5  C 2360.5 5735.58  2358.08 5738  2355 5738  C 2351.92 5738  2349.5 5735.58  2349.5 5732.5  C 2349.5 5729.42  2351.92 5727  2355 5727  Z " stroke-width="1" stroke="#797979" fill="none" />
  <path d="M 2355 5735.5  C 2353.32 5735.5  2352 5734.18  2352 5732.5  C 2352 5730.82  2353.32 5729.5  2355 5729.5  C 2356.68 5729.5  2358 5730.82  2358 5732.5  C 2358 5734.18  2356.68 5735.5  2355 5735.5  " fill-rule="nonzero" fill="#797979" stroke="none" />
</svg>