<?xml version="1.0" encoding="utf-8"?>
<svg version="1.1" xmlns:xlink="http://www.w3.org/1999/xlink" width="12px" height="12px" viewBox="1995 5891  12 12" xmlns="http://www.w3.org/2000/svg">
  <path d="M 1995.5 5893  A 1.5 1.5 0 0 1 1997 5891.5 L 2005 5891.5  A 1.5 1.5 0 0 1 2006.5 5893 L 2006.5 5901  A 1.5 1.5 0 0 1 2005 5902.5 L 1997 5902.5  A 1.5 1.5 0 0 1 1995.5 5901 L 1995.5 5893  Z " fill-rule="nonzero" fill="#f0f0f0" stroke="none" />
  <path d="M 1995.5 5893  A 1.5 1.5 0 0 1 1997 5891.5 L 2005 5891.5  A 1.5 1.5 0 0 1 2006.5 5893 L 2006.5 5901  A 1.5 1.5 0 0 1 2005 5902.5 L 1997 5902.5  A 1.5 1.5 0 0 1 1995.5 5901 L 1995.5 5893  Z " stroke-width="1" stroke="#797979" fill="none" />
  <path d="M 1997.57142857143 5897  L 2000.14285714286 5899.57142857143  " stroke-width="2.57142857142857" stroke="#797979" fill="none" />
  <path d="M 2000.14285714286 5899.57142857143  L 2004.42857142857 5893.57142857143  " stroke-width="2.57142857142857" stroke="#797979" fill="none" />
</svg>