<?xml version="1.0" encoding="utf-8"?>
<svg version="1.1" xmlns:xlink="http://www.w3.org/1999/xlink" width="12px" height="12px" viewBox="2347 6191.5  12 12" xmlns="http://www.w3.org/2000/svg">
  <path d="M 2353 6191.5  C 2356.36 6191.5  2359 6194.14  2359 6197.5  C 2359 6200.86  2356.36 6203.5  2353 6203.5  C 2349.64 6203.5  2347 6200.86  2347 6197.5  C 2347 6194.14  2349.64 6191.5  2353 6191.5  Z " fill-rule="nonzero" fill="#f0f0f0" stroke="none" />
  <path d="M 2353 6192  C 2356.08 6192  2358.5 6194.42  2358.5 6197.5  C 2358.5 6200.58  2356.08 6203  2353 6203  C 2349.92 6203  2347.5 6200.58  2347.5 6197.5  C 2347.5 6194.42  2349.92 6192  2353 6192  Z " stroke-width="1" stroke="#797979" fill="none" />
  <path d="M 2353 6200.5  C 2351.32 6200.5  2350 6199.18  2350 6197.5  C 2350 6195.82  2351.32 6194.5  2353 6194.5  C 2354.68 6194.5  2356 6195.82  2356 6197.5  C 2356 6199.18  2354.68 6200.5  2353 6200.5  " fill-rule="nonzero" fill="#797979" stroke="none" />
</svg>