<?xml version="1.0" encoding="utf-8"?>
<svg version="1.1" xmlns:xlink="http://www.w3.org/1999/xlink" width="12px" height="12px" viewBox="2397 5852.5  12 12" xmlns="http://www.w3.org/2000/svg">
  <path d="M 2403 5852.5  C 2406.36 5852.5  2409 5855.14  2409 5858.5  C 2409 5861.86  2406.36 5864.5  2403 5864.5  C 2399.64 5864.5  2397 5861.86  2397 5858.5  C 2397 5855.14  2399.64 5852.5  2403 5852.5  Z " fill-rule="nonzero" fill="#f0f0f0" stroke="none" />
  <path d="M 2403 5853  C 2406.08 5853  2408.5 5855.42  2408.5 5858.5  C 2408.5 5861.58  2406.08 5864  2403 5864  C 2399.92 5864  2397.5 5861.58  2397.5 5858.5  C 2397.5 5855.42  2399.92 5853  2403 5853  Z " stroke-width="1" stroke="#797979" fill="none" />
  <path d="M 2403 5861.5  C 2401.32 5861.5  2400 5860.18  2400 5858.5  C 2400 5856.82  2401.32 5855.5  2403 5855.5  C 2404.68 5855.5  2406 5856.82  2406 5858.5  C 2406 5860.18  2404.68 5861.5  2403 5861.5  " fill-rule="nonzero" fill="#797979" stroke="none" />
</svg>