<?xml version="1.0" encoding="utf-8"?>
<svg version="1.1" xmlns:xlink="http://www.w3.org/1999/xlink" width="12px" height="12px" viewBox="2350 3680.5  12 12" xmlns="http://www.w3.org/2000/svg">
  <path d="M 2356 3680.5  C 2359.36 3680.5  2362 3683.14  2362 3686.5  C 2362 3689.86  2359.36 3692.5  2356 3692.5  C 2352.64 3692.5  2350 3689.86  2350 3686.5  C 2350 3683.14  2352.64 3680.5  2356 3680.5  Z " fill-rule="nonzero" fill="#d7d7d7" stroke="none" />
  <path d="M 2356 3681  C 2359.08 3681  2361.5 3683.42  2361.5 3686.5  C 2361.5 3689.58  2359.08 3692  2356 3692  C 2352.92 3692  2350.5 3689.58  2350.5 3686.5  C 2350.5 3683.42  2352.92 3681  2356 3681  Z " stroke-width="1" stroke="#797979" fill="none" />
  <path d="M 2356 3689.5  C 2354.32 3689.5  2353 3688.18  2353 3686.5  C 2353 3684.82  2354.32 3683.5  2356 3683.5  C 2357.68 3683.5  2359 3684.82  2359 3686.5  C 2359 3688.18  2357.68 3689.5  2356 3689.5  " fill-rule="nonzero" fill="#797979" stroke="none" />
</svg>