<?xml version="1.0" encoding="utf-8"?>
<svg version="1.1" xmlns:xlink="http://www.w3.org/1999/xlink" width="12px" height="12px" viewBox="2350 3759.5  12 12" xmlns="http://www.w3.org/2000/svg">
  <path d="M 2356 3759.5  C 2359.36 3759.5  2362 3762.14  2362 3765.5  C 2362 3768.86  2359.36 3771.5  2356 3771.5  C 2352.64 3771.5  2350 3768.86  2350 3765.5  C 2350 3762.14  2352.64 3759.5  2356 3759.5  Z " fill-rule="nonzero" fill="#f0f0f0" stroke="none" />
  <path d="M 2356 3760  C 2359.08 3760  2361.5 3762.42  2361.5 3765.5  C 2361.5 3768.58  2359.08 3771  2356 3771  C 2352.92 3771  2350.5 3768.58  2350.5 3765.5  C 2350.5 3762.42  2352.92 3760  2356 3760  Z " stroke-width="1" stroke="#797979" fill="none" />
  <path d="M 2356 3768.5  C 2354.32 3768.5  2353 3767.18  2353 3765.5  C 2353 3763.82  2354.32 3762.5  2356 3762.5  C 2357.68 3762.5  2359 3763.82  2359 3765.5  C 2359 3767.18  2357.68 3768.5  2356 3768.5  " fill-rule="nonzero" fill="#797979" stroke="none" />
</svg>