<?xml version="1.0" encoding="utf-8"?>
<svg version="1.1" xmlns:xlink="http://www.w3.org/1999/xlink" width="12px" height="12px" viewBox="2350 3841.5  12 12" xmlns="http://www.w3.org/2000/svg">
  <path d="M 2356 3841.5  C 2359.36 3841.5  2362 3844.14  2362 3847.5  C 2362 3850.86  2359.36 3853.5  2356 3853.5  C 2352.64 3853.5  2350 3850.86  2350 3847.5  C 2350 3844.14  2352.64 3841.5  2356 3841.5  Z " fill-rule="nonzero" fill="#f0f0f0" stroke="none" />
  <path d="M 2356 3842  C 2359.08 3842  2361.5 3844.42  2361.5 3847.5  C 2361.5 3850.58  2359.08 3853  2356 3853  C 2352.92 3853  2350.5 3850.58  2350.5 3847.5  C 2350.5 3844.42  2352.92 3842  2356 3842  Z " stroke-width="1" stroke="#797979" fill="none" />
  <path d="M 2356 3850.5  C 2354.32 3850.5  2353 3849.18  2353 3847.5  C 2353 3845.82  2354.32 3844.5  2356 3844.5  C 2357.68 3844.5  2359 3845.82  2359 3847.5  C 2359 3849.18  2357.68 3850.5  2356 3850.5  " fill-rule="nonzero" fill="#797979" stroke="none" />
</svg>