<?xml version="1.0" encoding="utf-8"?>
<svg version="1.1" xmlns:xlink="http://www.w3.org/1999/xlink" width="12px" height="12px" viewBox="1997 3965  12 12" xmlns="http://www.w3.org/2000/svg">
  <path d="M 1997.5 3967  A 1.5 1.5 0 0 1 1999 3965.5 L 2007 3965.5  A 1.5 1.5 0 0 1 2008.5 3967 L 2008.5 3975  A 1.5 1.5 0 0 1 2007 3976.5 L 1999 3976.5  A 1.5 1.5 0 0 1 1997.5 3975 L 1997.5 3967  Z " fill-rule="nonzero" fill="#f0f0f0" stroke="none" />
  <path d="M 1997.5 3967  A 1.5 1.5 0 0 1 1999 3965.5 L 2007 3965.5  A 1.5 1.5 0 0 1 2008.5 3967 L 2008.5 3975  A 1.5 1.5 0 0 1 2007 3976.5 L 1999 3976.5  A 1.5 1.5 0 0 1 1997.5 3975 L 1997.5 3967  Z " stroke-width="1" stroke="#797979" fill="none" />
</svg>