<?xml version="1.0" encoding="utf-8"?>
<svg version="1.1" xmlns:xlink="http://www.w3.org/1999/xlink" width="12px" height="12px" viewBox="2351 3800.5  12 12" xmlns="http://www.w3.org/2000/svg">
  <path d="M 2357 3800.5  C 2360.36 3800.5  2363 3803.14  2363 3806.5  C 2363 3809.86  2360.36 3812.5  2357 3812.5  C 2353.64 3812.5  2351 3809.86  2351 3806.5  C 2351 3803.14  2353.64 3800.5  2357 3800.5  Z " fill-rule="nonzero" fill="#f0f0f0" stroke="none" />
  <path d="M 2357 3801  C 2360.08 3801  2362.5 3803.42  2362.5 3806.5  C 2362.5 3809.58  2360.08 3812  2357 3812  C 2353.92 3812  2351.5 3809.58  2351.5 3806.5  C 2351.5 3803.42  2353.92 3801  2357 3801  Z " stroke-width="1" stroke="#797979" fill="none" />
  <path d="M 2357 3809.5  C 2355.32 3809.5  2354 3808.18  2354 3806.5  C 2354 3804.82  2355.32 3803.5  2357 3803.5  C 2358.68 3803.5  2360 3804.82  2360 3806.5  C 2360 3808.18  2358.68 3809.5  2357 3809.5  " fill-rule="nonzero" fill="#797979" stroke="none" />
</svg>