<?xml version="1.0" encoding="utf-8"?>
<svg version="1.1" xmlns:xlink="http://www.w3.org/1999/xlink" width="12px" height="12px" viewBox="1996 3641  12 12" xmlns="http://www.w3.org/2000/svg">
  <path d="M 1996.5 3643  A 1.5 1.5 0 0 1 1998 3641.5 L 2006 3641.5  A 1.5 1.5 0 0 1 2007.5 3643 L 2007.5 3651  A 1.5 1.5 0 0 1 2006 3652.5 L 1998 3652.5  A 1.5 1.5 0 0 1 1996.5 3651 L 1996.5 3643  Z " fill-rule="nonzero" fill="#f0f0f0" stroke="none" />
  <path d="M 1996.5 3643  A 1.5 1.5 0 0 1 1998 3641.5 L 2006 3641.5  A 1.5 1.5 0 0 1 2007.5 3643 L 2007.5 3651  A 1.5 1.5 0 0 1 2006 3652.5 L 1998 3652.5  A 1.5 1.5 0 0 1 1996.5 3651 L 1996.5 3643  Z " stroke-width="1" stroke="#797979" fill="none" />
  <path d="M 1998.57142857143 3647  L 2001.14285714286 3649.57142857143  " stroke-width="2.57142857142857" stroke="#797979" fill="none" />
  <path d="M 2001.14285714286 3649.57142857143  L 2005.42857142857 3643.57142857143  " stroke-width="2.57142857142857" stroke="#797979" fill="none" />
</svg>