<?xml version="1.0" encoding="utf-8"?>
<svg version="1.1" xmlns:xlink="http://www.w3.org/1999/xlink" width="12px" height="12px" viewBox="2397 3926.5  12 12" xmlns="http://www.w3.org/2000/svg">
  <path d="M 2403 3926.5  C 2406.36 3926.5  2409 3929.14  2409 3932.5  C 2409 3935.86  2406.36 3938.5  2403 3938.5  C 2399.64 3938.5  2397 3935.86  2397 3932.5  C 2397 3929.14  2399.64 3926.5  2403 3926.5  Z " fill-rule="nonzero" fill="#f2f2f2" stroke="none" />
  <path d="M 2403 3927  C 2406.08 3927  2408.5 3929.42  2408.5 3932.5  C 2408.5 3935.58  2406.08 3938  2403 3938  C 2399.92 3938  2397.5 3935.58  2397.5 3932.5  C 2397.5 3929.42  2399.92 3927  2403 3927  Z " stroke-width="1" stroke="#797979" fill="none" />
  <path d="M 2403 3935.5  C 2401.32 3935.5  2400 3934.18  2400 3932.5  C 2400 3930.82  2401.32 3929.5  2403 3929.5  C 2404.68 3929.5  2406 3930.82  2406 3932.5  C 2406 3934.18  2404.68 3935.5  2403 3935.5  " fill-rule="nonzero" fill="#797979" stroke="none" />
</svg>