<?xml version="1.0" encoding="utf-8"?>
<svg version="1.1" xmlns:xlink="http://www.w3.org/1999/xlink" width="12px" height="12px" viewBox="3268 508  12 12" xmlns="http://www.w3.org/2000/svg">
  <path d="M 3274 508  C 3277.36 508  3280 510.64  3280 514  C 3280 517.36  3277.36 520  3274 520  C 3270.64 520  3268 517.36  3268 514  C 3268 510.64  3270.64 508  3274 508  Z " fill-rule="nonzero" fill="#ffffff" stroke="none" />
  <path d="M 3274 508.5  C 3277.08 508.5  3279.5 510.92  3279.5 514  C 3279.5 517.08  3277.08 519.5  3274 519.5  C 3270.92 519.5  3268.5 517.08  3268.5 514  C 3268.5 510.92  3270.92 508.5  3274 508.5  Z " stroke-width="1" stroke="#797979" fill="none" />
  <path d="M 3274 517  C 3272.32 517  3271 515.68  3271 514  C 3271 512.32  3272.32 511  3274 511  C 3275.68 511  3277 512.32  3277 514  C 3277 515.68  3275.68 517  3274 517  " fill-rule="nonzero" fill="#797979" stroke="none" />
</svg>