<?xml version="1.0" encoding="utf-8"?>
<svg version="1.1" xmlns:xlink="http://www.w3.org/1999/xlink" width="12px" height="12px" viewBox="802 8179.5  12 12" xmlns="http://www.w3.org/2000/svg">
  <path d="M 808 8179.5  C 811.36 8179.5  814 8182.14  814 8185.5  C 814 8188.86  811.36 8191.5  808 8191.5  C 804.64 8191.5  802 8188.86  802 8185.5  C 802 8182.14  804.64 8179.5  808 8179.5  Z " fill-rule="nonzero" fill="#f0f0f0" stroke="none" />
  <path d="M 808 8180  C 811.08 8180  813.5 8182.42  813.5 8185.5  C 813.5 8188.58  811.08 8191  808 8191  C 804.92 8191  802.5 8188.58  802.5 8185.5  C 802.5 8182.42  804.92 8180  808 8180  Z " stroke-width="1" stroke="#797979" fill="none" />
  <path d="M 808 8188.5  C 806.32 8188.5  805 8187.18  805 8185.5  C 805 8183.82  806.32 8182.5  808 8182.5  C 809.68 8182.5  811 8183.82  811 8185.5  C 811 8187.18  809.68 8188.5  808 8188.5  " fill-rule="nonzero" fill="#797979" stroke="none" />
</svg>