<?xml version="1.0" encoding="utf-8"?>
<svg version="1.1" xmlns:xlink="http://www.w3.org/1999/xlink" width="12px" height="12px" viewBox="802 8219.5  12 12" xmlns="http://www.w3.org/2000/svg">
  <path d="M 808 8219.5  C 811.36 8219.5  814 8222.14  814 8225.5  C 814 8228.86  811.36 8231.5  808 8231.5  C 804.64 8231.5  802 8228.86  802 8225.5  C 802 8222.14  804.64 8219.5  808 8219.5  Z " fill-rule="nonzero" fill="#ffffff" stroke="none" />
  <path d="M 808 8220  C 811.08 8220  813.5 8222.42  813.5 8225.5  C 813.5 8228.58  811.08 8231  808 8231  C 804.92 8231  802.5 8228.58  802.5 8225.5  C 802.5 8222.42  804.92 8220  808 8220  Z " stroke-width="1" stroke="#797979" fill="none" />
  <path d="M 808 8228.5  C 806.32 8228.5  805 8227.18  805 8225.5  C 805 8223.82  806.32 8222.5  808 8222.5  C 809.68 8222.5  811 8223.82  811 8225.5  C 811 8227.18  809.68 8228.5  808 8228.5  " fill-rule="nonzero" fill="#797979" stroke="none" />
</svg>