<?xml version="1.0" encoding="utf-8"?>
<svg version="1.1" xmlns:xlink="http://www.w3.org/1999/xlink" width="12px" height="12px" viewBox="848 8264.5  12 12" xmlns="http://www.w3.org/2000/svg">
  <path d="M 854 8264.5  C 857.36 8264.5  860 8267.14  860 8270.5  C 860 8273.86  857.36 8276.5  854 8276.5  C 850.64 8276.5  848 8273.86  848 8270.5  C 848 8267.14  850.64 8264.5  854 8264.5  Z " fill-rule="nonzero" fill="#ffffff" stroke="none" />
  <path d="M 854 8265  C 857.08 8265  859.5 8267.42  859.5 8270.5  C 859.5 8273.58  857.08 8276  854 8276  C 850.92 8276  848.5 8273.58  848.5 8270.5  C 848.5 8267.42  850.92 8265  854 8265  Z " stroke-width="1" stroke="#797979" fill="none" />
  <path d="M 854 8273.5  C 852.32 8273.5  851 8272.18  851 8270.5  C 851 8268.82  852.32 8267.5  854 8267.5  C 855.68 8267.5  857 8268.82  857 8270.5  C 857 8272.18  855.68 8273.5  854 8273.5  " fill-rule="nonzero" fill="#797979" stroke="none" />
</svg>