<?xml version="1.0" encoding="utf-8"?>
<svg version="1.1" xmlns:xlink="http://www.w3.org/1999/xlink" width="12px" height="12px" viewBox="848 8351.5  12 12" xmlns="http://www.w3.org/2000/svg">
  <path d="M 854 8351.5  C 857.36 8351.5  860 8354.14  860 8357.5  C 860 8360.86  857.36 8363.5  854 8363.5  C 850.64 8363.5  848 8360.86  848 8357.5  C 848 8354.14  850.64 8351.5  854 8351.5  Z " fill-rule="nonzero" fill="#ffffff" stroke="none" />
  <path d="M 854 8352  C 857.08 8352  859.5 8354.42  859.5 8357.5  C 859.5 8360.58  857.08 8363  854 8363  C 850.92 8363  848.5 8360.58  848.5 8357.5  C 848.5 8354.42  850.92 8352  854 8352  Z " stroke-width="1" stroke="#797979" fill="none" />
  <path d="M 854 8360.5  C 852.32 8360.5  851 8359.18  851 8357.5  C 851 8355.82  852.32 8354.5  854 8354.5  C 855.68 8354.5  857 8355.82  857 8357.5  C 857 8359.18  855.68 8360.5  854 8360.5  " fill-rule="nonzero" fill="#797979" stroke="none" />
</svg>