<?xml version="1.0" encoding="utf-8"?>
<svg version="1.1" xmlns:xlink="http://www.w3.org/1999/xlink" width="12px" height="12px" viewBox="801 8351.5  12 12" xmlns="http://www.w3.org/2000/svg">
  <path d="M 807 8351.5  C 810.36 8351.5  813 8354.14  813 8357.5  C 813 8360.86  810.36 8363.5  807 8363.5  C 803.64 8363.5  801 8360.86  801 8357.5  C 801 8354.14  803.64 8351.5  807 8351.5  Z " fill-rule="nonzero" fill="#ffffff" stroke="none" />
  <path d="M 807 8352  C 810.08 8352  812.5 8354.42  812.5 8357.5  C 812.5 8360.58  810.08 8363  807 8363  C 803.92 8363  801.5 8360.58  801.5 8357.5  C 801.5 8354.42  803.92 8352  807 8352  Z " stroke-width="1" stroke="#797979" fill="none" />
  <path d="M 807 8360.5  C 805.32 8360.5  804 8359.18  804 8357.5  C 804 8355.82  805.32 8354.5  807 8354.5  C 808.68 8354.5  810 8355.82  810 8357.5  C 810 8359.18  808.68 8360.5  807 8360.5  " fill-rule="nonzero" fill="#797979" stroke="none" />
</svg>