<?xml version="1.0" encoding="utf-8"?>
<svg version="1.1" xmlns:xlink="http://www.w3.org/1999/xlink" width="12px" height="12px" viewBox="447 8349  12 12" xmlns="http://www.w3.org/2000/svg">
  <path d="M 447.5 8351  A 1.5 1.5 0 0 1 449 8349.5 L 457 8349.5  A 1.5 1.5 0 0 1 458.5 8351 L 458.5 8359  A 1.5 1.5 0 0 1 457 8360.5 L 449 8360.5  A 1.5 1.5 0 0 1 447.5 8359 L 447.5 8351  Z " fill-rule="nonzero" fill="#f0f0f0" stroke="none" />
  <path d="M 447.5 8351  A 1.5 1.5 0 0 1 449 8349.5 L 457 8349.5  A 1.5 1.5 0 0 1 458.5 8351 L 458.5 8359  A 1.5 1.5 0 0 1 457 8360.5 L 449 8360.5  A 1.5 1.5 0 0 1 447.5 8359 L 447.5 8351  Z " stroke-width="1" stroke="#797979" fill="none" />
</svg>