<?xml version="1.0" encoding="utf-8"?>
<svg version="1.1" xmlns:xlink="http://www.w3.org/1999/xlink" width="12px" height="12px" viewBox="803 8398.5  12 12" xmlns="http://www.w3.org/2000/svg">
  <path d="M 809 8398.5  C 812.36 8398.5  815 8401.14  815 8404.5  C 815 8407.86  812.36 8410.5  809 8410.5  C 805.64 8410.5  803 8407.86  803 8404.5  C 803 8401.14  805.64 8398.5  809 8398.5  Z " fill-rule="nonzero" fill="#f0f0f0" stroke="none" />
  <path d="M 809 8399  C 812.08 8399  814.5 8401.42  814.5 8404.5  C 814.5 8407.58  812.08 8410  809 8410  C 805.92 8410  803.5 8407.58  803.5 8404.5  C 803.5 8401.42  805.92 8399  809 8399  Z " stroke-width="1" stroke="#797979" fill="none" />
  <path d="M 809 8407.5  C 807.32 8407.5  806 8406.18  806 8404.5  C 806 8402.82  807.32 8401.5  809 8401.5  C 810.68 8401.5  812 8402.82  812 8404.5  C 812 8406.18  810.68 8407.5  809 8407.5  " fill-rule="nonzero" fill="#797979" stroke="none" />
</svg>