<?xml version="1.0" encoding="utf-8"?>
<svg version="1.1" xmlns:xlink="http://www.w3.org/1999/xlink" width="12px" height="12px" viewBox="219 8645  12 12" xmlns="http://www.w3.org/2000/svg">
  <path d="M 219.5 8647  A 1.5 1.5 0 0 1 221 8645.5 L 229 8645.5  A 1.5 1.5 0 0 1 230.5 8647 L 230.5 8655  A 1.5 1.5 0 0 1 229 8656.5 L 221 8656.5  A 1.5 1.5 0 0 1 219.5 8655 L 219.5 8647  Z " fill-rule="nonzero" fill="#f0f0f0" stroke="none" />
  <path d="M 219.5 8647  A 1.5 1.5 0 0 1 221 8645.5 L 229 8645.5  A 1.5 1.5 0 0 1 230.5 8647 L 230.5 8655  A 1.5 1.5 0 0 1 229 8656.5 L 221 8656.5  A 1.5 1.5 0 0 1 219.5 8655 L 219.5 8647  Z " stroke-width="1" stroke="#797979" fill="none" />
</svg>