<?xml version="1.0" encoding="utf-8"?>
<svg version="1.1" xmlns:xlink="http://www.w3.org/1999/xlink" width="12px" height="12px" viewBox="850 8398.5  12 12" xmlns="http://www.w3.org/2000/svg">
  <path d="M 856 8398.5  C 859.36 8398.5  862 8401.14  862 8404.5  C 862 8407.86  859.36 8410.5  856 8410.5  C 852.64 8410.5  850 8407.86  850 8404.5  C 850 8401.14  852.64 8398.5  856 8398.5  Z " fill-rule="nonzero" fill="#f0f0f0" stroke="none" />
  <path d="M 856 8399  C 859.08 8399  861.5 8401.42  861.5 8404.5  C 861.5 8407.58  859.08 8410  856 8410  C 852.92 8410  850.5 8407.58  850.5 8404.5  C 850.5 8401.42  852.92 8399  856 8399  Z " stroke-width="1" stroke="#797979" fill="none" />
  <path d="M 856 8407.5  C 854.32 8407.5  853 8406.18  853 8404.5  C 853 8402.82  854.32 8401.5  856 8401.5  C 857.68 8401.5  859 8402.82  859 8404.5  C 859 8406.18  857.68 8407.5  856 8407.5  " fill-rule="nonzero" fill="#797979" stroke="none" />
</svg>