<?xml version="1.0" encoding="utf-8"?>
<svg version="1.1" xmlns:xlink="http://www.w3.org/1999/xlink" width="12px" height="12px" viewBox="449 8436  12 12" xmlns="http://www.w3.org/2000/svg">
  <path d="M 449.5 8438  A 1.5 1.5 0 0 1 451 8436.5 L 459 8436.5  A 1.5 1.5 0 0 1 460.5 8438 L 460.5 8446  A 1.5 1.5 0 0 1 459 8447.5 L 451 8447.5  A 1.5 1.5 0 0 1 449.5 8446 L 449.5 8438  Z " fill-rule="nonzero" fill="#ffffff" stroke="none" />
  <path d="M 449.5 8438  A 1.5 1.5 0 0 1 451 8436.5 L 459 8436.5  A 1.5 1.5 0 0 1 460.5 8438 L 460.5 8446  A 1.5 1.5 0 0 1 459 8447.5 L 451 8447.5  A 1.5 1.5 0 0 1 449.5 8446 L 449.5 8438  Z " stroke-width="1" stroke="#797979" fill="none" />
  <path d="M 451.571428571429 8442  L 454.142857142857 8444.57142857143  " stroke-width="2.57142857142857" stroke="#797979" fill="none" />
  <path d="M 454.142857142857 8444.57142857143  L 458.428571428571 8438.57142857143  " stroke-width="2.57142857142857" stroke="#797979" fill="none" />
</svg>