<?xml version="1.0" encoding="utf-8"?>
<svg version="1.1" xmlns:xlink="http://www.w3.org/1999/xlink" width="12px" height="12px" viewBox="803 8438.5  12 12" xmlns="http://www.w3.org/2000/svg">
  <path d="M 809 8438.5  C 812.36 8438.5  815 8441.14  815 8444.5  C 815 8447.86  812.36 8450.5  809 8450.5  C 805.64 8450.5  803 8447.86  803 8444.5  C 803 8441.14  805.64 8438.5  809 8438.5  Z " fill-rule="nonzero" fill="#f0f0f0" stroke="none" />
  <path d="M 809 8439  C 812.08 8439  814.5 8441.42  814.5 8444.5  C 814.5 8447.58  812.08 8450  809 8450  C 805.92 8450  803.5 8447.58  803.5 8444.5  C 803.5 8441.42  805.92 8439  809 8439  Z " stroke-width="1" stroke="#797979" fill="none" />
  <path d="M 809 8447.5  C 807.32 8447.5  806 8446.18  806 8444.5  C 806 8442.82  807.32 8441.5  809 8441.5  C 810.68 8441.5  812 8442.82  812 8444.5  C 812 8446.18  810.68 8447.5  809 8447.5  " fill-rule="nonzero" fill="#797979" stroke="none" />
</svg>