<?xml version="1.0" encoding="utf-8"?>
<svg version="1.1" xmlns:xlink="http://www.w3.org/1999/xlink" width="12px" height="12px" viewBox="850 8438.5  12 12" xmlns="http://www.w3.org/2000/svg">
  <path d="M 856 8438.5  C 859.36 8438.5  862 8441.14  862 8444.5  C 862 8447.86  859.36 8450.5  856 8450.5  C 852.64 8450.5  850 8447.86  850 8444.5  C 850 8441.14  852.64 8438.5  856 8438.5  Z " fill-rule="nonzero" fill="#f0f0f0" stroke="none" />
  <path d="M 856 8439  C 859.08 8439  861.5 8441.42  861.5 8444.5  C 861.5 8447.58  859.08 8450  856 8450  C 852.92 8450  850.5 8447.58  850.5 8444.5  C 850.5 8441.42  852.92 8439  856 8439  Z " stroke-width="1" stroke="#797979" fill="none" />
  <path d="M 856 8447.5  C 854.32 8447.5  853 8446.18  853 8444.5  C 853 8442.82  854.32 8441.5  856 8441.5  C 857.68 8441.5  859 8442.82  859 8444.5  C 859 8446.18  857.68 8447.5  856 8447.5  " fill-rule="nonzero" fill="#797979" stroke="none" />
</svg>