<?xml version="1.0" encoding="utf-8"?>
<svg version="1.1" xmlns:xlink="http://www.w3.org/1999/xlink" width="12px" height="12px" viewBox="802 8566.5  12 12" xmlns="http://www.w3.org/2000/svg">
  <path d="M 808 8566.5  C 811.36 8566.5  814 8569.14  814 8572.5  C 814 8575.86  811.36 8578.5  808 8578.5  C 804.64 8578.5  802 8575.86  802 8572.5  C 802 8569.14  804.64 8566.5  808 8566.5  Z " fill-rule="nonzero" fill="#f0f0f0" stroke="none" />
  <path d="M 808 8567  C 811.08 8567  813.5 8569.42  813.5 8572.5  C 813.5 8575.58  811.08 8578  808 8578  C 804.92 8578  802.5 8575.58  802.5 8572.5  C 802.5 8569.42  804.92 8567  808 8567  Z " stroke-width="1" stroke="#797979" fill="none" />
  <path d="M 808 8575.5  C 806.32 8575.5  805 8574.18  805 8572.5  C 805 8570.82  806.32 8569.5  808 8569.5  C 809.68 8569.5  811 8570.82  811 8572.5  C 811 8574.18  809.68 8575.5  808 8575.5  " fill-rule="nonzero" fill="#797979" stroke="none" />
</svg>