<?xml version="1.0" encoding="utf-8"?>
<svg version="1.1" xmlns:xlink="http://www.w3.org/1999/xlink" width="12px" height="12px" viewBox="849 8526.5  12 12" xmlns="http://www.w3.org/2000/svg">
  <path d="M 855 8526.5  C 858.36 8526.5  861 8529.14  861 8532.5  C 861 8535.86  858.36 8538.5  855 8538.5  C 851.64 8538.5  849 8535.86  849 8532.5  C 849 8529.14  851.64 8526.5  855 8526.5  Z " fill-rule="nonzero" fill="#ffffff" stroke="none" />
  <path d="M 855 8527  C 858.08 8527  860.5 8529.42  860.5 8532.5  C 860.5 8535.58  858.08 8538  855 8538  C 851.92 8538  849.5 8535.58  849.5 8532.5  C 849.5 8529.42  851.92 8527  855 8527  Z " stroke-width="1" stroke="#797979" fill="none" />
  <path d="M 855 8535.5  C 853.32 8535.5  852 8534.18  852 8532.5  C 852 8530.82  853.32 8529.5  855 8529.5  C 856.68 8529.5  858 8530.82  858 8532.5  C 858 8534.18  856.68 8535.5  855 8535.5  " fill-rule="nonzero" fill="#797979" stroke="none" />
</svg>