<?xml version="1.0" encoding="utf-8"?>
<svg version="1.1" xmlns:xlink="http://www.w3.org/1999/xlink" width="12px" height="12px" viewBox="802 8526.5  12 12" xmlns="http://www.w3.org/2000/svg">
  <path d="M 808 8526.5  C 811.36 8526.5  814 8529.14  814 8532.5  C 814 8535.86  811.36 8538.5  808 8538.5  C 804.64 8538.5  802 8535.86  802 8532.5  C 802 8529.14  804.64 8526.5  808 8526.5  Z " fill-rule="nonzero" fill="#ffffff" stroke="none" />
  <path d="M 808 8527  C 811.08 8527  813.5 8529.42  813.5 8532.5  C 813.5 8535.58  811.08 8538  808 8538  C 804.92 8538  802.5 8535.58  802.5 8532.5  C 802.5 8529.42  804.92 8527  808 8527  Z " stroke-width="1" stroke="#797979" fill="none" />
  <path d="M 808 8535.5  C 806.32 8535.5  805 8534.18  805 8532.5  C 805 8530.82  806.32 8529.5  808 8529.5  C 809.68 8529.5  811 8530.82  811 8532.5  C 811 8534.18  809.68 8535.5  808 8535.5  " fill-rule="nonzero" fill="#797979" stroke="none" />
</svg>