<?xml version="1.0" encoding="utf-8"?>
<svg version="1.1" xmlns:xlink="http://www.w3.org/1999/xlink" width="12px" height="12px" viewBox="849 8566.5  12 12" xmlns="http://www.w3.org/2000/svg">
  <path d="M 855 8566.5  C 858.36 8566.5  861 8569.14  861 8572.5  C 861 8575.86  858.36 8578.5  855 8578.5  C 851.64 8578.5  849 8575.86  849 8572.5  C 849 8569.14  851.64 8566.5  855 8566.5  Z " fill-rule="nonzero" fill="#ffffff" stroke="none" />
  <path d="M 855 8567  C 858.08 8567  860.5 8569.42  860.5 8572.5  C 860.5 8575.58  858.08 8578  855 8578  C 851.92 8578  849.5 8575.58  849.5 8572.5  C 849.5 8569.42  851.92 8567  855 8567  Z " stroke-width="1" stroke="#797979" fill="none" />
  <path d="M 855 8575.5  C 853.32 8575.5  852 8574.18  852 8572.5  C 852 8570.82  853.32 8569.5  855 8569.5  C 856.68 8569.5  858 8570.82  858 8572.5  C 858 8574.18  856.68 8575.5  855 8575.5  " fill-rule="nonzero" fill="#797979" stroke="none" />
</svg>