<?xml version="1.0" encoding="utf-8"?>
<svg version="1.1" xmlns:xlink="http://www.w3.org/1999/xlink" width="12px" height="12px" viewBox="801 8652.5  12 12" xmlns="http://www.w3.org/2000/svg">
  <path d="M 807 8652.5  C 810.36 8652.5  813 8655.14  813 8658.5  C 813 8661.86  810.36 8664.5  807 8664.5  C 803.64 8664.5  801 8661.86  801 8658.5  C 801 8655.14  803.64 8652.5  807 8652.5  Z " fill-rule="nonzero" fill="#f0f0f0" stroke="none" />
  <path d="M 807 8653  C 810.08 8653  812.5 8655.42  812.5 8658.5  C 812.5 8661.58  810.08 8664  807 8664  C 803.92 8664  801.5 8661.58  801.5 8658.5  C 801.5 8655.42  803.92 8653  807 8653  Z " stroke-width="1" stroke="#797979" fill="none" />
  <path d="M 807 8661.5  C 805.32 8661.5  804 8660.18  804 8658.5  C 804 8656.82  805.32 8655.5  807 8655.5  C 808.68 8655.5  810 8656.82  810 8658.5  C 810 8660.18  808.68 8661.5  807 8661.5  " fill-rule="nonzero" fill="#797979" stroke="none" />
</svg>