<?xml version="1.0" encoding="utf-8"?>
<svg version="1.1" xmlns:xlink="http://www.w3.org/1999/xlink" width="12px" height="12px" viewBox="801 8611.5  12 12" xmlns="http://www.w3.org/2000/svg">
  <path d="M 807 8611.5  C 810.36 8611.5  813 8614.14  813 8617.5  C 813 8620.86  810.36 8623.5  807 8623.5  C 803.64 8623.5  801 8620.86  801 8617.5  C 801 8614.14  803.64 8611.5  807 8611.5  Z " fill-rule="nonzero" fill="#f0f0f0" stroke="none" />
  <path d="M 807 8612  C 810.08 8612  812.5 8614.42  812.5 8617.5  C 812.5 8620.58  810.08 8623  807 8623  C 803.92 8623  801.5 8620.58  801.5 8617.5  C 801.5 8614.42  803.92 8612  807 8612  Z " stroke-width="1" stroke="#797979" fill="none" />
  <path d="M 807 8620.5  C 805.32 8620.5  804 8619.18  804 8617.5  C 804 8615.82  805.32 8614.5  807 8614.5  C 808.68 8614.5  810 8615.82  810 8617.5  C 810 8619.18  808.68 8620.5  807 8620.5  " fill-rule="nonzero" fill="#797979" stroke="none" />
</svg>