<?xml version="1.0" encoding="utf-8"?>
<svg version="1.1" xmlns:xlink="http://www.w3.org/1999/xlink" width="12px" height="12px" viewBox="848 8652.5  12 12" xmlns="http://www.w3.org/2000/svg">
  <path d="M 854 8652.5  C 857.36 8652.5  860 8655.14  860 8658.5  C 860 8661.86  857.36 8664.5  854 8664.5  C 850.64 8664.5  848 8661.86  848 8658.5  C 848 8655.14  850.64 8652.5  854 8652.5  Z " fill-rule="nonzero" fill="#ffffff" stroke="none" />
  <path d="M 854 8653  C 857.08 8653  859.5 8655.42  859.5 8658.5  C 859.5 8661.58  857.08 8664  854 8664  C 850.92 8664  848.5 8661.58  848.5 8658.5  C 848.5 8655.42  850.92 8653  854 8653  Z " stroke-width="1" stroke="#797979" fill="none" />
  <path d="M 854 8661.5  C 852.32 8661.5  851 8660.18  851 8658.5  C 851 8656.82  852.32 8655.5  854 8655.5  C 855.68 8655.5  857 8656.82  857 8658.5  C 857 8660.18  855.68 8661.5  854 8661.5  " fill-rule="nonzero" fill="#797979" stroke="none" />
</svg>