<?xml version="1.0" encoding="utf-8"?>
<svg version="1.1" xmlns:xlink="http://www.w3.org/1999/xlink" width="12px" height="12px" viewBox="803 8699.5  12 12" xmlns="http://www.w3.org/2000/svg">
  <path d="M 809 8699.5  C 812.36 8699.5  815 8702.14  815 8705.5  C 815 8708.86  812.36 8711.5  809 8711.5  C 805.64 8711.5  803 8708.86  803 8705.5  C 803 8702.14  805.64 8699.5  809 8699.5  Z " fill-rule="nonzero" fill="#f0f0f0" stroke="none" />
  <path d="M 809 8700  C 812.08 8700  814.5 8702.42  814.5 8705.5  C 814.5 8708.58  812.08 8711  809 8711  C 805.92 8711  803.5 8708.58  803.5 8705.5  C 803.5 8702.42  805.92 8700  809 8700  Z " stroke-width="1" stroke="#797979" fill="none" />
  <path d="M 809 8708.5  C 807.32 8708.5  806 8707.18  806 8705.5  C 806 8703.82  807.32 8702.5  809 8702.5  C 810.68 8702.5  812 8703.82  812 8705.5  C 812 8707.18  810.68 8708.5  809 8708.5  " fill-rule="nonzero" fill="#797979" stroke="none" />
</svg>