<?xml version="1.0" encoding="utf-8"?>
<svg version="1.1" xmlns:xlink="http://www.w3.org/1999/xlink" width="12px" height="12px" viewBox="450 8797  12 12" xmlns="http://www.w3.org/2000/svg">
  <path d="M 450.5 8799  A 1.5 1.5 0 0 1 452 8797.5 L 460 8797.5  A 1.5 1.5 0 0 1 461.5 8799 L 461.5 8807  A 1.5 1.5 0 0 1 460 8808.5 L 452 8808.5  A 1.5 1.5 0 0 1 450.5 8807 L 450.5 8799  Z " fill-rule="nonzero" fill="#ffffff" stroke="none" />
  <path d="M 450.5 8799  A 1.5 1.5 0 0 1 452 8797.5 L 460 8797.5  A 1.5 1.5 0 0 1 461.5 8799 L 461.5 8807  A 1.5 1.5 0 0 1 460 8808.5 L 452 8808.5  A 1.5 1.5 0 0 1 450.5 8807 L 450.5 8799  Z " stroke-width="1" stroke="#797979" fill="none" />
</svg>