<?xml version="1.0" encoding="utf-8"?>
<svg version="1.1" xmlns:xlink="http://www.w3.org/1999/xlink" width="12px" height="12px" viewBox="849 8839.5  12 12" xmlns="http://www.w3.org/2000/svg">
  <path d="M 855 8839.5  C 858.36 8839.5  861 8842.14  861 8845.5  C 861 8848.86  858.36 8851.5  855 8851.5  C 851.64 8851.5  849 8848.86  849 8845.5  C 849 8842.14  851.64 8839.5  855 8839.5  Z " fill-rule="nonzero" fill="#ffffff" stroke="none" />
  <path d="M 855 8840  C 858.08 8840  860.5 8842.42  860.5 8845.5  C 860.5 8848.58  858.08 8851  855 8851  C 851.92 8851  849.5 8848.58  849.5 8845.5  C 849.5 8842.42  851.92 8840  855 8840  Z " stroke-width="1" stroke="#797979" fill="none" />
  <path d="M 855 8848.5  C 853.32 8848.5  852 8847.18  852 8845.5  C 852 8843.82  853.32 8842.5  855 8842.5  C 856.68 8842.5  858 8843.82  858 8845.5  C 858 8847.18  856.68 8848.5  855 8848.5  " fill-rule="nonzero" fill="#797979" stroke="none" />
</svg>