<?xml version="1.0" encoding="utf-8"?>
<svg version="1.1" xmlns:xlink="http://www.w3.org/1999/xlink" width="12px" height="12px" viewBox="449 8882  12 12" xmlns="http://www.w3.org/2000/svg">
  <path d="M 449.5 8884  A 1.5 1.5 0 0 1 451 8882.5 L 459 8882.5  A 1.5 1.5 0 0 1 460.5 8884 L 460.5 8892  A 1.5 1.5 0 0 1 459 8893.5 L 451 8893.5  A 1.5 1.5 0 0 1 449.5 8892 L 449.5 8884  Z " fill-rule="nonzero" fill="#ffffff" stroke="none" />
  <path d="M 449.5 8884  A 1.5 1.5 0 0 1 451 8882.5 L 459 8882.5  A 1.5 1.5 0 0 1 460.5 8884 L 460.5 8892  A 1.5 1.5 0 0 1 459 8893.5 L 451 8893.5  A 1.5 1.5 0 0 1 449.5 8892 L 449.5 8884  Z " stroke-width="1" stroke="#797979" fill="none" />
</svg>