<?xml version="1.0" encoding="utf-8"?>
<svg version="1.1" xmlns:xlink="http://www.w3.org/1999/xlink" width="12px" height="12px" viewBox="801 8884.5  12 12" xmlns="http://www.w3.org/2000/svg">
  <path d="M 807 8884.5  C 810.36 8884.5  813 8887.14  813 8890.5  C 813 8893.86  810.36 8896.5  807 8896.5  C 803.64 8896.5  801 8893.86  801 8890.5  C 801 8887.14  803.64 8884.5  807 8884.5  Z " fill-rule="nonzero" fill="#f0f0f0" stroke="none" />
  <path d="M 807 8885  C 810.08 8885  812.5 8887.42  812.5 8890.5  C 812.5 8893.58  810.08 8896  807 8896  C 803.92 8896  801.5 8893.58  801.5 8890.5  C 801.5 8887.42  803.92 8885  807 8885  Z " stroke-width="1" stroke="#797979" fill="none" />
  <path d="M 807 8893.5  C 805.32 8893.5  804 8892.18  804 8890.5  C 804 8888.82  805.32 8887.5  807 8887.5  C 808.68 8887.5  810 8888.82  810 8890.5  C 810 8892.18  808.68 8893.5  807 8893.5  " fill-rule="nonzero" fill="#797979" stroke="none" />
</svg>