<?xml version="1.0" encoding="utf-8"?>
<svg version="1.1" xmlns:xlink="http://www.w3.org/1999/xlink" width="12px" height="12px" viewBox="802 8839.5  12 12" xmlns="http://www.w3.org/2000/svg">
  <path d="M 808 8839.5  C 811.36 8839.5  814 8842.14  814 8845.5  C 814 8848.86  811.36 8851.5  808 8851.5  C 804.64 8851.5  802 8848.86  802 8845.5  C 802 8842.14  804.64 8839.5  808 8839.5  Z " fill-rule="nonzero" fill="#ffffff" stroke="none" />
  <path d="M 808 8840  C 811.08 8840  813.5 8842.42  813.5 8845.5  C 813.5 8848.58  811.08 8851  808 8851  C 804.92 8851  802.5 8848.58  802.5 8845.5  C 802.5 8842.42  804.92 8840  808 8840  Z " stroke-width="1" stroke="#797979" fill="none" />
  <path d="M 808 8848.5  C 806.32 8848.5  805 8847.18  805 8845.5  C 805 8843.82  806.32 8842.5  808 8842.5  C 809.68 8842.5  811 8843.82  811 8845.5  C 811 8847.18  809.68 8848.5  808 8848.5  " fill-rule="nonzero" fill="#797979" stroke="none" />
</svg>