<?xml version="1.0" encoding="utf-8"?>
<svg version="1.1" xmlns:xlink="http://www.w3.org/1999/xlink" width="12px" height="12px" viewBox="850 8972.5  12 12" xmlns="http://www.w3.org/2000/svg">
  <path d="M 856 8972.5  C 859.36 8972.5  862 8975.14  862 8978.5  C 862 8981.86  859.36 8984.5  856 8984.5  C 852.64 8984.5  850 8981.86  850 8978.5  C 850 8975.14  852.64 8972.5  856 8972.5  Z " fill-rule="nonzero" fill="#f0f0f0" stroke="none" />
  <path d="M 856 8973  C 859.08 8973  861.5 8975.42  861.5 8978.5  C 861.5 8981.58  859.08 8984  856 8984  C 852.92 8984  850.5 8981.58  850.5 8978.5  C 850.5 8975.42  852.92 8973  856 8973  Z " stroke-width="1" stroke="#797979" fill="none" />
  <path d="M 856 8981.5  C 854.32 8981.5  853 8980.18  853 8978.5  C 853 8976.82  854.32 8975.5  856 8975.5  C 857.68 8975.5  859 8976.82  859 8978.5  C 859 8980.18  857.68 8981.5  856 8981.5  " fill-rule="nonzero" fill="#797979" stroke="none" />
</svg>