<?xml version="1.0" encoding="utf-8"?>
<svg version="1.1" xmlns:xlink="http://www.w3.org/1999/xlink" width="12px" height="12px" viewBox="801 8925.5  12 12" xmlns="http://www.w3.org/2000/svg">
  <path d="M 807 8925.5  C 810.36 8925.5  813 8928.14  813 8931.5  C 813 8934.86  810.36 8937.5  807 8937.5  C 803.64 8937.5  801 8934.86  801 8931.5  C 801 8928.14  803.64 8925.5  807 8925.5  Z " fill-rule="nonzero" fill="#f0f0f0" stroke="none" />
  <path d="M 807 8926  C 810.08 8926  812.5 8928.42  812.5 8931.5  C 812.5 8934.58  810.08 8937  807 8937  C 803.92 8937  801.5 8934.58  801.5 8931.5  C 801.5 8928.42  803.92 8926  807 8926  Z " stroke-width="1" stroke="#797979" fill="none" />
  <path d="M 807 8934.5  C 805.32 8934.5  804 8933.18  804 8931.5  C 804 8929.82  805.32 8928.5  807 8928.5  C 808.68 8928.5  810 8929.82  810 8931.5  C 810 8933.18  808.68 8934.5  807 8934.5  " fill-rule="nonzero" fill="#797979" stroke="none" />
</svg>