<?xml version="1.0" encoding="utf-8"?>
<svg version="1.1" xmlns:xlink="http://www.w3.org/1999/xlink" width="12px" height="12px" viewBox="848 8925.5  12 12" xmlns="http://www.w3.org/2000/svg">
  <path d="M 854 8925.5  C 857.36 8925.5  860 8928.14  860 8931.5  C 860 8934.86  857.36 8937.5  854 8937.5  C 850.64 8937.5  848 8934.86  848 8931.5  C 848 8928.14  850.64 8925.5  854 8925.5  Z " fill-rule="nonzero" fill="#ffffff" stroke="none" />
  <path d="M 854 8926  C 857.08 8926  859.5 8928.42  859.5 8931.5  C 859.5 8934.58  857.08 8937  854 8937  C 850.92 8937  848.5 8934.58  848.5 8931.5  C 848.5 8928.42  850.92 8926  854 8926  Z " stroke-width="1" stroke="#797979" fill="none" />
  <path d="M 854 8934.5  C 852.32 8934.5  851 8933.18  851 8931.5  C 851 8929.82  852.32 8928.5  854 8928.5  C 855.68 8928.5  857 8929.82  857 8931.5  C 857 8933.18  855.68 8934.5  854 8934.5  " fill-rule="nonzero" fill="#797979" stroke="none" />
</svg>