<?xml version="1.0" encoding="utf-8"?>
<svg version="1.1" xmlns:xlink="http://www.w3.org/1999/xlink" width="12px" height="12px" viewBox="803 8972.5  12 12" xmlns="http://www.w3.org/2000/svg">
  <path d="M 809 8972.5  C 812.36 8972.5  815 8975.14  815 8978.5  C 815 8981.86  812.36 8984.5  809 8984.5  C 805.64 8984.5  803 8981.86  803 8978.5  C 803 8975.14  805.64 8972.5  809 8972.5  Z " fill-rule="nonzero" fill="#f0f0f0" stroke="none" />
  <path d="M 809 8973  C 812.08 8973  814.5 8975.42  814.5 8978.5  C 814.5 8981.58  812.08 8984  809 8984  C 805.92 8984  803.5 8981.58  803.5 8978.5  C 803.5 8975.42  805.92 8973  809 8973  Z " stroke-width="1" stroke="#797979" fill="none" />
  <path d="M 809 8981.5  C 807.32 8981.5  806 8980.18  806 8978.5  C 806 8976.82  807.32 8975.5  809 8975.5  C 810.68 8975.5  812 8976.82  812 8978.5  C 812 8980.18  810.68 8981.5  809 8981.5  " fill-rule="nonzero" fill="#797979" stroke="none" />
</svg>