<?xml version="1.0" encoding="utf-8"?>
<svg version="1.1" xmlns:xlink="http://www.w3.org/1999/xlink" width="12px" height="12px" viewBox="848 8303.5  12 12" xmlns="http://www.w3.org/2000/svg">
  <path d="M 854 8303.5  C 857.36 8303.5  860 8306.14  860 8309.5  C 860 8312.86  857.36 8315.5  854 8315.5  C 850.64 8315.5  848 8312.86  848 8309.5  C 848 8306.14  850.64 8303.5  854 8303.5  Z " fill-rule="nonzero" fill="#ffffff" stroke="none" />
  <path d="M 854 8304  C 857.08 8304  859.5 8306.42  859.5 8309.5  C 859.5 8312.58  857.08 8315  854 8315  C 850.92 8315  848.5 8312.58  848.5 8309.5  C 848.5 8306.42  850.92 8304  854 8304  Z " stroke-width="1" stroke="#797979" fill="none" />
  <path d="M 854 8312.5  C 852.32 8312.5  851 8311.18  851 8309.5  C 851 8307.82  852.32 8306.5  854 8306.5  C 855.68 8306.5  857 8307.82  857 8309.5  C 857 8311.18  855.68 8312.5  854 8312.5  " fill-rule="nonzero" fill="#797979" stroke="none" />
</svg>