<?xml version="1.0" encoding="utf-8"?>
<svg version="1.1" xmlns:xlink="http://www.w3.org/1999/xlink" width="12px" height="12px" viewBox="801 8303.5  12 12" xmlns="http://www.w3.org/2000/svg">
  <path d="M 807 8303.5  C 810.36 8303.5  813 8306.14  813 8309.5  C 813 8312.86  810.36 8315.5  807 8315.5  C 803.64 8315.5  801 8312.86  801 8309.5  C 801 8306.14  803.64 8303.5  807 8303.5  Z " fill-rule="nonzero" fill="#f0f0f0" stroke="none" />
  <path d="M 807 8304  C 810.08 8304  812.5 8306.42  812.5 8309.5  C 812.5 8312.58  810.08 8315  807 8315  C 803.92 8315  801.5 8312.58  801.5 8309.5  C 801.5 8306.42  803.92 8304  807 8304  Z " stroke-width="1" stroke="#797979" fill="none" />
  <path d="M 807 8312.5  C 805.32 8312.5  804 8311.18  804 8309.5  C 804 8307.82  805.32 8306.5  807 8306.5  C 808.68 8306.5  810 8307.82  810 8309.5  C 810 8311.18  808.68 8312.5  807 8312.5  " fill-rule="nonzero" fill="#797979" stroke="none" />
</svg>