<?xml version="1.0" encoding="utf-8"?>
<svg version="1.1" xmlns:xlink="http://www.w3.org/1999/xlink" width="12px" height="12px" viewBox="850 9012.5  12 12" xmlns="http://www.w3.org/2000/svg">
  <path d="M 856 9012.5  C 859.36 9012.5  862 9015.14  862 9018.5  C 862 9021.86  859.36 9024.5  856 9024.5  C 852.64 9024.5  850 9021.86  850 9018.5  C 850 9015.14  852.64 9012.5  856 9012.5  Z " fill-rule="nonzero" fill="#f0f0f0" stroke="none" />
  <path d="M 856 9013  C 859.08 9013  861.5 9015.42  861.5 9018.5  C 861.5 9021.58  859.08 9024  856 9024  C 852.92 9024  850.5 9021.58  850.5 9018.5  C 850.5 9015.42  852.92 9013  856 9013  Z " stroke-width="1" stroke="#797979" fill="none" />
  <path d="M 856 9021.5  C 854.32 9021.5  853 9020.18  853 9018.5  C 853 9016.82  854.32 9015.5  856 9015.5  C 857.68 9015.5  859 9016.82  859 9018.5  C 859 9020.18  857.68 9021.5  856 9021.5  " fill-rule="nonzero" fill="#797979" stroke="none" />
</svg>