<?xml version="1.0" encoding="utf-8"?>
<svg version="1.1" xmlns:xlink="http://www.w3.org/1999/xlink" width="12px" height="12px" viewBox="435 7633  12 12" xmlns="http://www.w3.org/2000/svg">
  <path d="M 435.5 7635  A 1.5 1.5 0 0 1 437 7633.5 L 445 7633.5  A 1.5 1.5 0 0 1 446.5 7635 L 446.5 7643  A 1.5 1.5 0 0 1 445 7644.5 L 437 7644.5  A 1.5 1.5 0 0 1 435.5 7643 L 435.5 7635  Z " fill-rule="nonzero" fill="#ffffff" stroke="none" />
  <path d="M 435.5 7635  A 1.5 1.5 0 0 1 437 7633.5 L 445 7633.5  A 1.5 1.5 0 0 1 446.5 7635 L 446.5 7643  A 1.5 1.5 0 0 1 445 7644.5 L 437 7644.5  A 1.5 1.5 0 0 1 435.5 7643 L 435.5 7635  Z " stroke-width="1" stroke="#797979" fill="none" />
</svg>