<?xml version="1.0" encoding="utf-8"?>
<svg version="1.1" xmlns:xlink="http://www.w3.org/1999/xlink" width="12px" height="12px" viewBox="437 7593  12 12" xmlns="http://www.w3.org/2000/svg">
  <path d="M 437.5 7595  A 1.5 1.5 0 0 1 439 7593.5 L 447 7593.5  A 1.5 1.5 0 0 1 448.5 7595 L 448.5 7603  A 1.5 1.5 0 0 1 447 7604.5 L 439 7604.5  A 1.5 1.5 0 0 1 437.5 7603 L 437.5 7595  Z " fill-rule="nonzero" fill="#f0f0f0" stroke="none" />
  <path d="M 437.5 7595  A 1.5 1.5 0 0 1 439 7593.5 L 447 7593.5  A 1.5 1.5 0 0 1 448.5 7595 L 448.5 7603  A 1.5 1.5 0 0 1 447 7604.5 L 439 7604.5  A 1.5 1.5 0 0 1 437.5 7603 L 437.5 7595  Z " stroke-width="1" stroke="#797979" fill="none" />
</svg>