<?xml version="1.0" encoding="utf-8"?>
<svg version="1.1" xmlns:xlink="http://www.w3.org/1999/xlink" width="12px" height="12px" viewBox="434 7719  12 12" xmlns="http://www.w3.org/2000/svg">
  <path d="M 434.5 7721  A 1.5 1.5 0 0 1 436 7719.5 L 444 7719.5  A 1.5 1.5 0 0 1 445.5 7721 L 445.5 7729  A 1.5 1.5 0 0 1 444 7730.5 L 436 7730.5  A 1.5 1.5 0 0 1 434.5 7729 L 434.5 7721  Z " fill-rule="nonzero" fill="#ffffff" stroke="none" />
  <path d="M 434.5 7721  A 1.5 1.5 0 0 1 436 7719.5 L 444 7719.5  A 1.5 1.5 0 0 1 445.5 7721 L 445.5 7729  A 1.5 1.5 0 0 1 444 7730.5 L 436 7730.5  A 1.5 1.5 0 0 1 434.5 7729 L 434.5 7721  Z " stroke-width="1" stroke="#797979" fill="none" />
</svg>