<?xml version="1.0" encoding="utf-8"?>
<svg version="1.1" xmlns:xlink="http://www.w3.org/1999/xlink" width="12px" height="12px" viewBox="799 7593.5  12 12" xmlns="http://www.w3.org/2000/svg">
  <path d="M 805 7593.5  C 808.36 7593.5  811 7596.14  811 7599.5  C 811 7602.86  808.36 7605.5  805 7605.5  C 801.64 7605.5  799 7602.86  799 7599.5  C 799 7596.14  801.64 7593.5  805 7593.5  Z " fill-rule="nonzero" fill="#ffffff" stroke="none" />
  <path d="M 805 7594  C 808.08 7594  810.5 7596.42  810.5 7599.5  C 810.5 7602.58  808.08 7605  805 7605  C 801.92 7605  799.5 7602.58  799.5 7599.5  C 799.5 7596.42  801.92 7594  805 7594  Z " stroke-width="1" stroke="#797979" fill="none" />
  <path d="M 805 7602.5  C 803.32 7602.5  802 7601.18  802 7599.5  C 802 7597.82  803.32 7596.5  805 7596.5  C 806.68 7596.5  808 7597.82  808 7599.5  C 808 7601.18  806.68 7602.5  805 7602.5  " fill-rule="nonzero" fill="#797979" stroke="none" />
</svg>