<?xml version="1.0" encoding="utf-8"?>
<svg version="1.1" xmlns:xlink="http://www.w3.org/1999/xlink" width="12px" height="12px" viewBox="799 7632.5  12 12" xmlns="http://www.w3.org/2000/svg">
  <path d="M 805 7632.5  C 808.36 7632.5  811 7635.14  811 7638.5  C 811 7641.86  808.36 7644.5  805 7644.5  C 801.64 7644.5  799 7641.86  799 7638.5  C 799 7635.14  801.64 7632.5  805 7632.5  Z " fill-rule="nonzero" fill="#f0f0f0" stroke="none" />
  <path d="M 805 7633  C 808.08 7633  810.5 7635.42  810.5 7638.5  C 810.5 7641.58  808.08 7644  805 7644  C 801.92 7644  799.5 7641.58  799.5 7638.5  C 799.5 7635.42  801.92 7633  805 7633  Z " stroke-width="1" stroke="#797979" fill="none" />
  <path d="M 805 7641.5  C 803.32 7641.5  802 7640.18  802 7638.5  C 802 7636.82  803.32 7635.5  805 7635.5  C 806.68 7635.5  808 7636.82  808 7638.5  C 808 7640.18  806.68 7641.5  805 7641.5  " fill-rule="nonzero" fill="#797979" stroke="none" />
</svg>