<?xml version="1.0" encoding="utf-8"?>
<svg version="1.1" xmlns:xlink="http://www.w3.org/1999/xlink" width="12px" height="12px" viewBox="846 7593.5  12 12" xmlns="http://www.w3.org/2000/svg">
  <path d="M 852 7593.5  C 855.36 7593.5  858 7596.14  858 7599.5  C 858 7602.86  855.36 7605.5  852 7605.5  C 848.64 7605.5  846 7602.86  846 7599.5  C 846 7596.14  848.64 7593.5  852 7593.5  Z " fill-rule="nonzero" fill="#ffffff" stroke="none" />
  <path d="M 852 7594  C 855.08 7594  857.5 7596.42  857.5 7599.5  C 857.5 7602.58  855.08 7605  852 7605  C 848.92 7605  846.5 7602.58  846.5 7599.5  C 846.5 7596.42  848.92 7594  852 7594  Z " stroke-width="1" stroke="#797979" fill="none" />
  <path d="M 852 7602.5  C 850.32 7602.5  849 7601.18  849 7599.5  C 849 7597.82  850.32 7596.5  852 7596.5  C 853.68 7596.5  855 7597.82  855 7599.5  C 855 7601.18  853.68 7602.5  852 7602.5  " fill-rule="nonzero" fill="#797979" stroke="none" />
</svg>