<?xml version="1.0" encoding="utf-8"?>
<svg version="1.1" xmlns:xlink="http://www.w3.org/1999/xlink" width="12px" height="12px" viewBox="846 7677.5  12 12" xmlns="http://www.w3.org/2000/svg">
  <path d="M 852 7677.5  C 855.36 7677.5  858 7680.14  858 7683.5  C 858 7686.86  855.36 7689.5  852 7689.5  C 848.64 7689.5  846 7686.86  846 7683.5  C 846 7680.14  848.64 7677.5  852 7677.5  Z " fill-rule="nonzero" fill="#f0f0f0" stroke="none" />
  <path d="M 852 7678  C 855.08 7678  857.5 7680.42  857.5 7683.5  C 857.5 7686.58  855.08 7689  852 7689  C 848.92 7689  846.5 7686.58  846.5 7683.5  C 846.5 7680.42  848.92 7678  852 7678  Z " stroke-width="1" stroke="#797979" fill="none" />
  <path d="M 852 7686.5  C 850.32 7686.5  849 7685.18  849 7683.5  C 849 7681.82  850.32 7680.5  852 7680.5  C 853.68 7680.5  855 7681.82  855 7683.5  C 855 7685.18  853.68 7686.5  852 7686.5  " fill-rule="nonzero" fill="#797979" stroke="none" />
</svg>