<?xml version="1.0" encoding="utf-8"?>
<svg version="1.1" xmlns:xlink="http://www.w3.org/1999/xlink" width="12px" height="12px" viewBox="201 7727  12 12" xmlns="http://www.w3.org/2000/svg">
  <path d="M 201.5 7729  A 1.5 1.5 0 0 1 203 7727.5 L 211 7727.5  A 1.5 1.5 0 0 1 212.5 7729 L 212.5 7737  A 1.5 1.5 0 0 1 211 7738.5 L 203 7738.5  A 1.5 1.5 0 0 1 201.5 7737 L 201.5 7729  Z " fill-rule="nonzero" fill="#ffffff" stroke="none" />
  <path d="M 201.5 7729  A 1.5 1.5 0 0 1 203 7727.5 L 211 7727.5  A 1.5 1.5 0 0 1 212.5 7729 L 212.5 7737  A 1.5 1.5 0 0 1 211 7738.5 L 203 7738.5  A 1.5 1.5 0 0 1 201.5 7737 L 201.5 7729  Z " stroke-width="1" stroke="#797979" fill="none" />
</svg>