<?xml version="1.0" encoding="utf-8"?>
<svg version="1.1" xmlns:xlink="http://www.w3.org/1999/xlink" width="12px" height="12px" viewBox="799 7722.5  12 12" xmlns="http://www.w3.org/2000/svg">
  <path d="M 805 7722.5  C 808.36 7722.5  811 7725.14  811 7728.5  C 811 7731.86  808.36 7734.5  805 7734.5  C 801.64 7734.5  799 7731.86  799 7728.5  C 799 7725.14  801.64 7722.5  805 7722.5  Z " fill-rule="nonzero" fill="#ffffff" stroke="none" />
  <path d="M 805 7723  C 808.08 7723  810.5 7725.42  810.5 7728.5  C 810.5 7731.58  808.08 7734  805 7734  C 801.92 7734  799.5 7731.58  799.5 7728.5  C 799.5 7725.42  801.92 7723  805 7723  Z " stroke-width="1" stroke="#797979" fill="none" />
  <path d="M 805 7731.5  C 803.32 7731.5  802 7730.18  802 7728.5  C 802 7726.82  803.32 7725.5  805 7725.5  C 806.68 7725.5  808 7726.82  808 7728.5  C 808 7730.18  806.68 7731.5  805 7731.5  " fill-rule="nonzero" fill="#797979" stroke="none" />
</svg>