<?xml version="1.0" encoding="utf-8"?>
<svg version="1.1" xmlns:xlink="http://www.w3.org/1999/xlink" width="12px" height="12px" viewBox="846 7722.5  12 12" xmlns="http://www.w3.org/2000/svg">
  <path d="M 852 7722.5  C 855.36 7722.5  858 7725.14  858 7728.5  C 858 7731.86  855.36 7734.5  852 7734.5  C 848.64 7734.5  846 7731.86  846 7728.5  C 846 7725.14  848.64 7722.5  852 7722.5  Z " fill-rule="nonzero" fill="#f0f0f0" stroke="none" />
  <path d="M 852 7723  C 855.08 7723  857.5 7725.42  857.5 7728.5  C 857.5 7731.58  855.08 7734  852 7734  C 848.92 7734  846.5 7731.58  846.5 7728.5  C 846.5 7725.42  848.92 7723  852 7723  Z " stroke-width="1" stroke="#797979" fill="none" />
  <path d="M 852 7731.5  C 850.32 7731.5  849 7730.18  849 7728.5  C 849 7726.82  850.32 7725.5  852 7725.5  C 853.68 7725.5  855 7726.82  855 7728.5  C 855 7730.18  853.68 7731.5  852 7731.5  " fill-rule="nonzero" fill="#797979" stroke="none" />
</svg>