<?xml version="1.0" encoding="utf-8"?>
<svg version="1.1" xmlns:xlink="http://www.w3.org/1999/xlink" width="12px" height="12px" viewBox="437 7755  12 12" xmlns="http://www.w3.org/2000/svg">
  <path d="M 437.5 7757  A 1.5 1.5 0 0 1 439 7755.5 L 447 7755.5  A 1.5 1.5 0 0 1 448.5 7757 L 448.5 7765  A 1.5 1.5 0 0 1 447 7766.5 L 439 7766.5  A 1.5 1.5 0 0 1 437.5 7765 L 437.5 7757  Z " fill-rule="nonzero" fill="#ffffff" stroke="none" />
  <path d="M 437.5 7757  A 1.5 1.5 0 0 1 439 7755.5 L 447 7755.5  A 1.5 1.5 0 0 1 448.5 7757 L 448.5 7765  A 1.5 1.5 0 0 1 447 7766.5 L 439 7766.5  A 1.5 1.5 0 0 1 437.5 7765 L 437.5 7757  Z " stroke-width="1" stroke="#797979" fill="none" />
</svg>