<?xml version="1.0" encoding="utf-8"?>
<svg version="1.1" xmlns:xlink="http://www.w3.org/1999/xlink" width="12px" height="12px" viewBox="436 7859  12 12" xmlns="http://www.w3.org/2000/svg">
  <path d="M 436.5 7861  A 1.5 1.5 0 0 1 438 7859.5 L 446 7859.5  A 1.5 1.5 0 0 1 447.5 7861 L 447.5 7869  A 1.5 1.5 0 0 1 446 7870.5 L 438 7870.5  A 1.5 1.5 0 0 1 436.5 7869 L 436.5 7861  Z " fill-rule="nonzero" fill="#ffffff" stroke="none" />
  <path d="M 436.5 7861  A 1.5 1.5 0 0 1 438 7859.5 L 446 7859.5  A 1.5 1.5 0 0 1 447.5 7861 L 447.5 7869  A 1.5 1.5 0 0 1 446 7870.5 L 438 7870.5  A 1.5 1.5 0 0 1 436.5 7869 L 436.5 7861  Z " stroke-width="1" stroke="#797979" fill="none" />
  <path d="M 438.571428571429 7865  L 441.142857142857 7867.57142857143  " stroke-width="2.57142857142857" stroke="#797979" fill="none" />
  <path d="M 441.142857142857 7867.57142857143  L 445.428571428571 7861.57142857143  " stroke-width="2.57142857142857" stroke="#797979" fill="none" />
</svg>