<?xml version="1.0" encoding="utf-8"?>
<svg version="1.1" xmlns:xlink="http://www.w3.org/1999/xlink" width="12px" height="12px" viewBox="799 7794.5  12 12" xmlns="http://www.w3.org/2000/svg">
  <path d="M 805 7794.5  C 808.36 7794.5  811 7797.14  811 7800.5  C 811 7803.86  808.36 7806.5  805 7806.5  C 801.64 7806.5  799 7803.86  799 7800.5  C 799 7797.14  801.64 7794.5  805 7794.5  Z " fill-rule="nonzero" fill="#ffffff" stroke="none" />
  <path d="M 805 7795  C 808.08 7795  810.5 7797.42  810.5 7800.5  C 810.5 7803.58  808.08 7806  805 7806  C 801.92 7806  799.5 7803.58  799.5 7800.5  C 799.5 7797.42  801.92 7795  805 7795  Z " stroke-width="1" stroke="#797979" fill="none" />
  <path d="M 805 7803.5  C 803.32 7803.5  802 7802.18  802 7800.5  C 802 7798.82  803.32 7797.5  805 7797.5  C 806.68 7797.5  808 7798.82  808 7800.5  C 808 7802.18  806.68 7803.5  805 7803.5  " fill-rule="nonzero" fill="#797979" stroke="none" />
</svg>