<?xml version="1.0" encoding="utf-8"?>
<svg version="1.1" xmlns:xlink="http://www.w3.org/1999/xlink" width="12px" height="12px" viewBox="435 7795  12 12" xmlns="http://www.w3.org/2000/svg">
  <path d="M 435.5 7797  A 1.5 1.5 0 0 1 437 7795.5 L 445 7795.5  A 1.5 1.5 0 0 1 446.5 7797 L 446.5 7805  A 1.5 1.5 0 0 1 445 7806.5 L 437 7806.5  A 1.5 1.5 0 0 1 435.5 7805 L 435.5 7797  Z " fill-rule="nonzero" fill="#f0f0f0" stroke="none" />
  <path d="M 435.5 7797  A 1.5 1.5 0 0 1 437 7795.5 L 445 7795.5  A 1.5 1.5 0 0 1 446.5 7797 L 446.5 7805  A 1.5 1.5 0 0 1 445 7806.5 L 437 7806.5  A 1.5 1.5 0 0 1 435.5 7805 L 435.5 7797  Z " stroke-width="1" stroke="#797979" fill="none" />
  <path d="M 437.571428571429 7801  L 440.142857142857 7803.57142857143  " stroke-width="2.57142857142857" stroke="#797979" fill="none" />
  <path d="M 440.142857142857 7803.57142857143  L 444.428571428571 7797.57142857143  " stroke-width="2.57142857142857" stroke="#797979" fill="none" />
</svg>