<?xml version="1.0" encoding="utf-8"?>
<svg version="1.1" xmlns:xlink="http://www.w3.org/1999/xlink" width="12px" height="12px" viewBox="799 7755.5  12 12" xmlns="http://www.w3.org/2000/svg">
  <path d="M 805 7755.5  C 808.36 7755.5  811 7758.14  811 7761.5  C 811 7764.86  808.36 7767.5  805 7767.5  C 801.64 7767.5  799 7764.86  799 7761.5  C 799 7758.14  801.64 7755.5  805 7755.5  Z " fill-rule="nonzero" fill="#ffffff" stroke="none" />
  <path d="M 805 7756  C 808.08 7756  810.5 7758.42  810.5 7761.5  C 810.5 7764.58  808.08 7767  805 7767  C 801.92 7767  799.5 7764.58  799.5 7761.5  C 799.5 7758.42  801.92 7756  805 7756  Z " stroke-width="1" stroke="#797979" fill="none" />
  <path d="M 805 7764.5  C 803.32 7764.5  802 7763.18  802 7761.5  C 802 7759.82  803.32 7758.5  805 7758.5  C 806.68 7758.5  808 7759.82  808 7761.5  C 808 7763.18  806.68 7764.5  805 7764.5  " fill-rule="nonzero" fill="#797979" stroke="none" />
</svg>