<?xml version="1.0" encoding="utf-8"?>
<svg version="1.1" xmlns:xlink="http://www.w3.org/1999/xlink" width="12px" height="12px" viewBox="801 643.5  12 12" xmlns="http://www.w3.org/2000/svg">
  <path d="M 807 643.5  C 810.36 643.5  813 646.14  813 649.5  C 813 652.86  810.36 655.5  807 655.5  C 803.64 655.5  801 652.86  801 649.5  C 801 646.14  803.64 643.5  807 643.5  Z " fill-rule="nonzero" fill="#ffffff" stroke="none" fill-opacity="0" />
  <path d="M 807 644  C 810.08 644  812.5 646.42  812.5 649.5  C 812.5 652.58  810.08 655  807 655  C 803.92 655  801.5 652.58  801.5 649.5  C 801.5 646.42  803.92 644  807 644  Z " stroke-width="1" stroke="#797979" fill="none" />
  <path d="M 807 652.5  C 805.32 652.5  804 651.18  804 649.5  C 804 647.82  805.32 646.5  807 646.5  C 808.68 646.5  810 647.82  810 649.5  C 810 651.18  808.68 652.5  807 652.5  " fill-rule="nonzero" fill="#797979" stroke="none" />
</svg>