<?xml version="1.0" encoding="utf-8"?>
<svg version="1.1" xmlns:xlink="http://www.w3.org/1999/xlink" width="12px" height="12px" viewBox="799 7858.5  12 12" xmlns="http://www.w3.org/2000/svg">
  <path d="M 805 7858.5  C 808.36 7858.5  811 7861.14  811 7864.5  C 811 7867.86  808.36 7870.5  805 7870.5  C 801.64 7870.5  799 7867.86  799 7864.5  C 799 7861.14  801.64 7858.5  805 7858.5  Z " fill-rule="nonzero" fill="#ffffff" stroke="none" />
  <path d="M 805 7859  C 808.08 7859  810.5 7861.42  810.5 7864.5  C 810.5 7867.58  808.08 7870  805 7870  C 801.92 7870  799.5 7867.58  799.5 7864.5  C 799.5 7861.42  801.92 7859  805 7859  Z " stroke-width="1" stroke="#797979" fill="none" />
  <path d="M 805 7867.5  C 803.32 7867.5  802 7866.18  802 7864.5  C 802 7862.82  803.32 7861.5  805 7861.5  C 806.68 7861.5  808 7862.82  808 7864.5  C 808 7866.18  806.68 7867.5  805 7867.5  " fill-rule="nonzero" fill="#797979" stroke="none" />
</svg>