<?xml version="1.0" encoding="utf-8"?>
<svg version="1.1" xmlns:xlink="http://www.w3.org/1999/xlink" width="12px" height="12px" viewBox="846 7794.5  12 12" xmlns="http://www.w3.org/2000/svg">
  <path d="M 852 7794.5  C 855.36 7794.5  858 7797.14  858 7800.5  C 858 7803.86  855.36 7806.5  852 7806.5  C 848.64 7806.5  846 7803.86  846 7800.5  C 846 7797.14  848.64 7794.5  852 7794.5  Z " fill-rule="nonzero" fill="#ffffff" stroke="none" />
  <path d="M 852 7795  C 855.08 7795  857.5 7797.42  857.5 7800.5  C 857.5 7803.58  855.08 7806  852 7806  C 848.92 7806  846.5 7803.58  846.5 7800.5  C 846.5 7797.42  848.92 7795  852 7795  Z " stroke-width="1" stroke="#797979" fill="none" />
  <path d="M 852 7803.5  C 850.32 7803.5  849 7802.18  849 7800.5  C 849 7798.82  850.32 7797.5  852 7797.5  C 853.68 7797.5  855 7798.82  855 7800.5  C 855 7802.18  853.68 7803.5  852 7803.5  " fill-rule="nonzero" fill="#797979" stroke="none" />
</svg>