<?xml version="1.0" encoding="utf-8"?>
<svg version="1.1" xmlns:xlink="http://www.w3.org/1999/xlink" width="12px" height="12px" viewBox="849 686.5  12 12" xmlns="http://www.w3.org/2000/svg">
  <path d="M 855 686.5  C 858.36 686.5  861 689.14  861 692.5  C 861 695.86  858.36 698.5  855 698.5  C 851.64 698.5  849 695.86  849 692.5  C 849 689.14  851.64 686.5  855 686.5  Z " fill-rule="nonzero" fill="#d7d7d7" stroke="none" />
  <path d="M 855 687  C 858.08 687  860.5 689.42  860.5 692.5  C 860.5 695.58  858.08 698  855 698  C 851.92 698  849.5 695.58  849.5 692.5  C 849.5 689.42  851.92 687  855 687  Z " stroke-width="1" stroke="#797979" fill="none" />
  <path d="M 855 695.5  C 853.32 695.5  852 694.18  852 692.5  C 852 690.82  853.32 689.5  855 689.5  C 856.68 689.5  858 690.82  858 692.5  C 858 694.18  856.68 695.5  855 695.5  " fill-rule="nonzero" fill="#797979" stroke="none" />
</svg>