<?xml version="1.0" encoding="utf-8"?>
<svg version="1.1" xmlns:xlink="http://www.w3.org/1999/xlink" width="12px" height="12px" viewBox="802 686.5  12 12" xmlns="http://www.w3.org/2000/svg">
  <path d="M 808 686.5  C 811.36 686.5  814 689.14  814 692.5  C 814 695.86  811.36 698.5  808 698.5  C 804.64 698.5  802 695.86  802 692.5  C 802 689.14  804.64 686.5  808 686.5  Z " fill-rule="nonzero" fill="#f0f0f0" stroke="none" />
  <path d="M 808 687  C 811.08 687  813.5 689.42  813.5 692.5  C 813.5 695.58  811.08 698  808 698  C 804.92 698  802.5 695.58  802.5 692.5  C 802.5 689.42  804.92 687  808 687  Z " stroke-width="1" stroke="#797979" fill="none" />
  <path d="M 808 695.5  C 806.32 695.5  805 694.18  805 692.5  C 805 690.82  806.32 689.5  808 689.5  C 809.68 689.5  811 690.82  811 692.5  C 811 694.18  809.68 695.5  808 695.5  " fill-rule="nonzero" fill="#797979" stroke="none" />
</svg>