<?xml version="1.0" encoding="utf-8"?>
<svg version="1.1" xmlns:xlink="http://www.w3.org/1999/xlink" width="12px" height="12px" viewBox="212 838  12 12" xmlns="http://www.w3.org/2000/svg">
  <path d="M 212.5 840  A 1.5 1.5 0 0 1 214 838.5 L 222 838.5  A 1.5 1.5 0 0 1 223.5 840 L 223.5 848  A 1.5 1.5 0 0 1 222 849.5 L 214 849.5  A 1.5 1.5 0 0 1 212.5 848 L 212.5 840  Z " fill-rule="nonzero" fill="#f0f0f0" stroke="none" />
  <path d="M 212.5 840  A 1.5 1.5 0 0 1 214 838.5 L 222 838.5  A 1.5 1.5 0 0 1 223.5 840 L 223.5 848  A 1.5 1.5 0 0 1 222 849.5 L 214 849.5  A 1.5 1.5 0 0 1 212.5 848 L 212.5 840  Z " stroke-width="1" stroke="#797979" fill="none" />
  <path d="M 214.571428571429 844  L 217.142857142857 846.571428571429  " stroke-width="2.57142857142857" stroke="#797979" fill="none" />
  <path d="M 217.142857142857 846.571428571429  L 221.428571428571 840.571428571429  " stroke-width="2.57142857142857" stroke="#797979" fill="none" />
</svg>