<?xml version="1.0" encoding="utf-8"?>
<svg version="1.1" xmlns:xlink="http://www.w3.org/1999/xlink" width="12px" height="12px" viewBox="846 453.5  12 12" xmlns="http://www.w3.org/2000/svg">
  <path d="M 852 453.5  C 855.36 453.5  858 456.14  858 459.5  C 858 462.86  855.36 465.5  852 465.5  C 848.64 465.5  846 462.86  846 459.5  C 846 456.14  848.64 453.5  852 453.5  Z " fill-rule="nonzero" fill="#f0f0f0" stroke="none" />
  <path d="M 852 454  C 855.08 454  857.5 456.42  857.5 459.5  C 857.5 462.58  855.08 465  852 465  C 848.92 465  846.5 462.58  846.5 459.5  C 846.5 456.42  848.92 454  852 454  Z " stroke-width="1" stroke="#797979" fill="none" />
  <path d="M 852 462.5  C 850.32 462.5  849 461.18  849 459.5  C 849 457.82  850.32 456.5  852 456.5  C 853.68 456.5  855 457.82  855 459.5  C 855 461.18  853.68 462.5  852 462.5  " fill-rule="nonzero" fill="#797979" stroke="none" />
</svg>