<?xml version="1.0" encoding="utf-8"?>
<svg version="1.1" xmlns:xlink="http://www.w3.org/1999/xlink" width="12px" height="12px" viewBox="798 503.5  12 12" xmlns="http://www.w3.org/2000/svg">
  <path d="M 804 503.5  C 807.36 503.5  810 506.14  810 509.5  C 810 512.86  807.36 515.5  804 515.5  C 800.64 515.5  798 512.86  798 509.5  C 798 506.14  800.64 503.5  804 503.5  Z " fill-rule="nonzero" fill="#ffffff" stroke="none" />
  <path d="M 804 504  C 807.08 504  809.5 506.42  809.5 509.5  C 809.5 512.58  807.08 515  804 515  C 800.92 515  798.5 512.58  798.5 509.5  C 798.5 506.42  800.92 504  804 504  Z " stroke-width="1" stroke="#797979" fill="none" />
  <path d="M 804 512.5  C 802.32 512.5  801 511.18  801 509.5  C 801 507.82  802.32 506.5  804 506.5  C 805.68 506.5  807 507.82  807 509.5  C 807 511.18  805.68 512.5  804 512.5  " fill-rule="nonzero" fill="#797979" stroke="none" />
</svg>