<?xml version="1.0" encoding="utf-8"?>
<svg version="1.1" xmlns:xlink="http://www.w3.org/1999/xlink" width="12px" height="12px" viewBox="799 768.5  12 12" xmlns="http://www.w3.org/2000/svg">
  <path d="M 805 768.5  C 808.36 768.5  811 771.14  811 774.5  C 811 777.86  808.36 780.5  805 780.5  C 801.64 780.5  799 777.86  799 774.5  C 799 771.14  801.64 768.5  805 768.5  Z " fill-rule="nonzero" fill="#f0f0f0" stroke="none" />
  <path d="M 805 769  C 808.08 769  810.5 771.42  810.5 774.5  C 810.5 777.58  808.08 780  805 780  C 801.92 780  799.5 777.58  799.5 774.5  C 799.5 771.42  801.92 769  805 769  Z " stroke-width="1" stroke="#797979" fill="none" />
  <path d="M 805 777.5  C 803.32 777.5  802 776.18  802 774.5  C 802 772.82  803.32 771.5  805 771.5  C 806.68 771.5  808 772.82  808 774.5  C 808 776.18  806.68 777.5  805 777.5  " fill-rule="nonzero" fill="#797979" stroke="none" />
</svg>