<?xml version="1.0" encoding="utf-8"?>
<svg version="1.1" xmlns:xlink="http://www.w3.org/1999/xlink" width="12px" height="12px" viewBox="845 503.5  12 12" xmlns="http://www.w3.org/2000/svg">
  <path d="M 851 503.5  C 854.36 503.5  857 506.14  857 509.5  C 857 512.86  854.36 515.5  851 515.5  C 847.64 515.5  845 512.86  845 509.5  C 845 506.14  847.64 503.5  851 503.5  Z " fill-rule="nonzero" fill="#ffffff" stroke="none" />
  <path d="M 851 504  C 854.08 504  856.5 506.42  856.5 509.5  C 856.5 512.58  854.08 515  851 515  C 847.92 515  845.5 512.58  845.5 509.5  C 845.5 506.42  847.92 504  851 504  Z " stroke-width="1" stroke="#797979" fill="none" />
  <path d="M 851 512.5  C 849.32 512.5  848 511.18  848 509.5  C 848 507.82  849.32 506.5  851 506.5  C 852.68 506.5  854 507.82  854 509.5  C 854 511.18  852.68 512.5  851 512.5  " fill-rule="nonzero" fill="#797979" stroke="none" />
</svg>