<?xml version="1.0" encoding="utf-8"?>
<svg version="1.1" xmlns:xlink="http://www.w3.org/1999/xlink" width="12px" height="12px" viewBox="848 987.5  12 12" xmlns="http://www.w3.org/2000/svg">
  <path d="M 854 987.5  C 857.36 987.5  860 990.14  860 993.5  C 860 996.86  857.36 999.5  854 999.5  C 850.64 999.5  848 996.86  848 993.5  C 848 990.14  850.64 987.5  854 987.5  Z " fill-rule="nonzero" fill="#ffffff" stroke="none" fill-opacity="0" />
  <path d="M 854 988  C 857.08 988  859.5 990.42  859.5 993.5  C 859.5 996.58  857.08 999  854 999  C 850.92 999  848.5 996.58  848.5 993.5  C 848.5 990.42  850.92 988  854 988  Z " stroke-width="1" stroke="#797979" fill="none" />
  <path d="M 854 996.5  C 852.32 996.5  851 995.18  851 993.5  C 851 991.82  852.32 990.5  854 990.5  C 855.68 990.5  857 991.82  857 993.5  C 857 995.18  855.68 996.5  854 996.5  " fill-rule="nonzero" fill="#797979" stroke="none" />
</svg>