<?xml version="1.0" encoding="utf-8"?>
<svg version="1.1" xmlns:xlink="http://www.w3.org/1999/xlink" width="12px" height="12px" viewBox="801 987.5  12 12" xmlns="http://www.w3.org/2000/svg">
  <path d="M 807 987.5  C 810.36 987.5  813 990.14  813 993.5  C 813 996.86  810.36 999.5  807 999.5  C 803.64 999.5  801 996.86  801 993.5  C 801 990.14  803.64 987.5  807 987.5  Z " fill-rule="nonzero" fill="#f0f0f0" stroke="none" />
  <path d="M 807 988  C 810.08 988  812.5 990.42  812.5 993.5  C 812.5 996.58  810.08 999  807 999  C 803.92 999  801.5 996.58  801.5 993.5  C 801.5 990.42  803.92 988  807 988  Z " stroke-width="1" stroke="#797979" fill="none" />
  <path d="M 807 996.5  C 805.32 996.5  804 995.18  804 993.5  C 804 991.82  805.32 990.5  807 990.5  C 808.68 990.5  810 991.82  810 993.5  C 810 995.18  808.68 996.5  807 996.5  " fill-rule="nonzero" fill="#797979" stroke="none" />
</svg>