<?xml version="1.0" encoding="utf-8"?>
<svg version="1.1" xmlns:xlink="http://www.w3.org/1999/xlink" width="12px" height="12px" viewBox="445 766  12 12" xmlns="http://www.w3.org/2000/svg">
  <path d="M 445.5 768  A 1.5 1.5 0 0 1 447 766.5 L 455 766.5  A 1.5 1.5 0 0 1 456.5 768 L 456.5 776  A 1.5 1.5 0 0 1 455 777.5 L 447 777.5  A 1.5 1.5 0 0 1 445.5 776 L 445.5 768  Z " fill-rule="nonzero" fill="#ffffff" stroke="none" />
  <path d="M 445.5 768  A 1.5 1.5 0 0 1 447 766.5 L 455 766.5  A 1.5 1.5 0 0 1 456.5 768 L 456.5 776  A 1.5 1.5 0 0 1 455 777.5 L 447 777.5  A 1.5 1.5 0 0 1 445.5 776 L 445.5 768  Z " stroke-width="1" stroke="#797979" fill="none" />
  <path d="M 447.571428571429 772  L 450.142857142857 774.571428571429  " stroke-width="2.57142857142857" stroke="#797979" fill="none" />
  <path d="M 450.142857142857 774.571428571429  L 454.428571428571 768.571428571429  " stroke-width="2.57142857142857" stroke="#797979" fill="none" />
</svg>