<?xml version="1.0" encoding="utf-8"?>
<svg version="1.1" xmlns:xlink="http://www.w3.org/1999/xlink" width="12px" height="12px" viewBox="447 1022  12 12" xmlns="http://www.w3.org/2000/svg">
  <path d="M 447.5 1024  A 1.5 1.5 0 0 1 449 1022.5 L 457 1022.5  A 1.5 1.5 0 0 1 458.5 1024 L 458.5 1032  A 1.5 1.5 0 0 1 457 1033.5 L 449 1033.5  A 1.5 1.5 0 0 1 447.5 1032 L 447.5 1024  Z " fill-rule="nonzero" fill="#ffffff" stroke="none" />
  <path d="M 447.5 1024  A 1.5 1.5 0 0 1 449 1022.5 L 457 1022.5  A 1.5 1.5 0 0 1 458.5 1024 L 458.5 1032  A 1.5 1.5 0 0 1 457 1033.5 L 449 1033.5  A 1.5 1.5 0 0 1 447.5 1032 L 447.5 1024  Z " stroke-width="1" stroke="#797979" fill="none" />
</svg>