<?xml version="1.0" encoding="utf-8"?>
<svg version="1.1" xmlns:xlink="http://www.w3.org/1999/xlink" width="12px" height="12px" viewBox="448 1267  12 12" xmlns="http://www.w3.org/2000/svg">
  <path d="M 448.5 1269  A 1.5 1.5 0 0 1 450 1267.5 L 458 1267.5  A 1.5 1.5 0 0 1 459.5 1269 L 459.5 1277  A 1.5 1.5 0 0 1 458 1278.5 L 450 1278.5  A 1.5 1.5 0 0 1 448.5 1277 L 448.5 1269  Z " fill-rule="nonzero" fill="#ffffff" stroke="none" fill-opacity="0" />
  <path d="M 448.5 1269  A 1.5 1.5 0 0 1 450 1267.5 L 458 1267.5  A 1.5 1.5 0 0 1 459.5 1269 L 459.5 1277  A 1.5 1.5 0 0 1 458 1278.5 L 450 1278.5  A 1.5 1.5 0 0 1 448.5 1277 L 448.5 1269  Z " stroke-width="1" stroke="#797979" fill="none" />
  <path d="M 450.571428571429 1273  L 453.142857142857 1275.57142857143  " stroke-width="2.57142857142857" stroke="#797979" fill="none" />
  <path d="M 453.142857142857 1275.57142857143  L 457.428571428571 1269.57142857143  " stroke-width="2.57142857142857" stroke="#797979" fill="none" />
</svg>