<?xml version="1.0" encoding="utf-8"?>
<svg version="1.1" xmlns:xlink="http://www.w3.org/1999/xlink" width="12px" height="12px" viewBox="849 1269.5  12 12" xmlns="http://www.w3.org/2000/svg">
  <path d="M 855 1269.5  C 858.36 1269.5  861 1272.14  861 1275.5  C 861 1278.86  858.36 1281.5  855 1281.5  C 851.64 1281.5  849 1278.86  849 1275.5  C 849 1272.14  851.64 1269.5  855 1269.5  Z " fill-rule="nonzero" fill="#ffffff" stroke="none" fill-opacity="0" />
  <path d="M 855 1270  C 858.08 1270  860.5 1272.42  860.5 1275.5  C 860.5 1278.58  858.08 1281  855 1281  C 851.92 1281  849.5 1278.58  849.5 1275.5  C 849.5 1272.42  851.92 1270  855 1270  Z " stroke-width="1" stroke="#797979" fill="none" />
  <path d="M 855 1278.5  C 853.32 1278.5  852 1277.18  852 1275.5  C 852 1273.82  853.32 1272.5  855 1272.5  C 856.68 1272.5  858 1273.82  858 1275.5  C 858 1277.18  856.68 1278.5  855 1278.5  " fill-rule="nonzero" fill="#797979" stroke="none" />
</svg>