<?xml version="1.0" encoding="utf-8"?>
<svg version="1.1" xmlns:xlink="http://www.w3.org/1999/xlink" width="12px" height="12px" viewBox="802 1269.5  12 12" xmlns="http://www.w3.org/2000/svg">
  <path d="M 808 1269.5  C 811.36 1269.5  814 1272.14  814 1275.5  C 814 1278.86  811.36 1281.5  808 1281.5  C 804.64 1281.5  802 1278.86  802 1275.5  C 802 1272.14  804.64 1269.5  808 1269.5  Z " fill-rule="nonzero" fill="#f0f0f0" stroke="none" />
  <path d="M 808 1270  C 811.08 1270  813.5 1272.42  813.5 1275.5  C 813.5 1278.58  811.08 1281  808 1281  C 804.92 1281  802.5 1278.58  802.5 1275.5  C 802.5 1272.42  804.92 1270  808 1270  Z " stroke-width="1" stroke="#797979" fill="none" />
  <path d="M 808 1278.5  C 806.32 1278.5  805 1277.18  805 1275.5  C 805 1273.82  806.32 1272.5  808 1272.5  C 809.68 1272.5  811 1273.82  811 1275.5  C 811 1277.18  809.68 1278.5  808 1278.5  " fill-rule="nonzero" fill="#797979" stroke="none" />
</svg>