<?xml version="1.0" encoding="utf-8"?>
<svg version="1.1" xmlns:xlink="http://www.w3.org/1999/xlink" width="12px" height="12px" viewBox="801 1433.5  12 12" xmlns="http://www.w3.org/2000/svg">
  <path d="M 807 1433.5  C 810.36 1433.5  813 1436.14  813 1439.5  C 813 1442.86  810.36 1445.5  807 1445.5  C 803.64 1445.5  801 1442.86  801 1439.5  C 801 1436.14  803.64 1433.5  807 1433.5  Z " fill-rule="nonzero" fill="#f0f0f0" stroke="none" />
  <path d="M 807 1434  C 810.08 1434  812.5 1436.42  812.5 1439.5  C 812.5 1442.58  810.08 1445  807 1445  C 803.92 1445  801.5 1442.58  801.5 1439.5  C 801.5 1436.42  803.92 1434  807 1434  Z " stroke-width="1" stroke="#797979" fill="none" />
  <path d="M 807 1442.5  C 805.32 1442.5  804 1441.18  804 1439.5  C 804 1437.82  805.32 1436.5  807 1436.5  C 808.68 1436.5  810 1437.82  810 1439.5  C 810 1441.18  808.68 1442.5  807 1442.5  " fill-rule="nonzero" fill="#797979" stroke="none" />
</svg>