<?xml version="1.0" encoding="utf-8"?>
<svg version="1.1" xmlns:xlink="http://www.w3.org/1999/xlink" width="12px" height="12px" viewBox="801 1473.5  12 12" xmlns="http://www.w3.org/2000/svg">
  <path d="M 807 1473.5  C 810.36 1473.5  813 1476.14  813 1479.5  C 813 1482.86  810.36 1485.5  807 1485.5  C 803.64 1485.5  801 1482.86  801 1479.5  C 801 1476.14  803.64 1473.5  807 1473.5  Z " fill-rule="nonzero" fill="#ecf2fe" stroke="none" fill-opacity="0" />
  <path d="M 807 1474  C 810.08 1474  812.5 1476.42  812.5 1479.5  C 812.5 1482.58  810.08 1485  807 1485  C 803.92 1485  801.5 1482.58  801.5 1479.5  C 801.5 1476.42  803.92 1474  807 1474  Z " stroke-width="1" stroke="#797979" fill="none" />
  <path d="M 807 1482.5  C 805.32 1482.5  804 1481.18  804 1479.5  C 804 1477.82  805.32 1476.5  807 1476.5  C 808.68 1476.5  810 1477.82  810 1479.5  C 810 1481.18  808.68 1482.5  807 1482.5  " fill-rule="nonzero" fill="#797979" stroke="none" />
</svg>