<?xml version="1.0" encoding="utf-8"?>
<svg version="1.1" xmlns:xlink="http://www.w3.org/1999/xlink" width="12px" height="12px" viewBox="848 1473.5  12 12" xmlns="http://www.w3.org/2000/svg">
  <path d="M 854 1473.5  C 857.36 1473.5  860 1476.14  860 1479.5  C 860 1482.86  857.36 1485.5  854 1485.5  C 850.64 1485.5  848 1482.86  848 1479.5  C 848 1476.14  850.64 1473.5  854 1473.5  Z " fill-rule="nonzero" fill="#ecf2fe" stroke="none" fill-opacity="0" />
  <path d="M 854 1474  C 857.08 1474  859.5 1476.42  859.5 1479.5  C 859.5 1482.58  857.08 1485  854 1485  C 850.92 1485  848.5 1482.58  848.5 1479.5  C 848.5 1476.42  850.92 1474  854 1474  Z " stroke-width="1" stroke="#797979" fill="none" />
  <path d="M 854 1482.5  C 852.32 1482.5  851 1481.18  851 1479.5  C 851 1477.82  852.32 1476.5  854 1476.5  C 855.68 1476.5  857 1477.82  857 1479.5  C 857 1481.18  855.68 1482.5  854 1482.5  " fill-rule="nonzero" fill="#797979" stroke="none" />
</svg>