<?xml version="1.0" encoding="utf-8"?>
<svg version="1.1" xmlns:xlink="http://www.w3.org/1999/xlink" width="12px" height="12px" viewBox="848 1433.5  12 12" xmlns="http://www.w3.org/2000/svg">
  <path d="M 854 1433.5  C 857.36 1433.5  860 1436.14  860 1439.5  C 860 1442.86  857.36 1445.5  854 1445.5  C 850.64 1445.5  848 1442.86  848 1439.5  C 848 1436.14  850.64 1433.5  854 1433.5  Z " fill-rule="nonzero" fill="#ffffff" stroke="none" fill-opacity="0" />
  <path d="M 854 1434  C 857.08 1434  859.5 1436.42  859.5 1439.5  C 859.5 1442.58  857.08 1445  854 1445  C 850.92 1445  848.5 1442.58  848.5 1439.5  C 848.5 1436.42  850.92 1434  854 1434  Z " stroke-width="1" stroke="#797979" fill="none" />
  <path d="M 854 1442.5  C 852.32 1442.5  851 1441.18  851 1439.5  C 851 1437.82  852.32 1436.5  854 1436.5  C 855.68 1436.5  857 1437.82  857 1439.5  C 857 1441.18  855.68 1442.5  854 1442.5  " fill-rule="nonzero" fill="#797979" stroke="none" />
</svg>