<?xml version="1.0" encoding="utf-8"?>
<svg version="1.1" xmlns:xlink="http://www.w3.org/1999/xlink" width="12px" height="12px" viewBox="846 732.5  12 12" xmlns="http://www.w3.org/2000/svg">
  <path d="M 852 732.5  C 855.36 732.5  858 735.14  858 738.5  C 858 741.86  855.36 744.5  852 744.5  C 848.64 744.5  846 741.86  846 738.5  C 846 735.14  848.64 732.5  852 732.5  Z " fill-rule="nonzero" fill="#ffffff" stroke="none" />
  <path d="M 852 733  C 855.08 733  857.5 735.42  857.5 738.5  C 857.5 741.58  855.08 744  852 744  C 848.92 744  846.5 741.58  846.5 738.5  C 846.5 735.42  848.92 733  852 733  Z " stroke-width="1" stroke="#797979" fill="none" />
  <path d="M 852 741.5  C 850.32 741.5  849 740.18  849 738.5  C 849 736.82  850.32 735.5  852 735.5  C 853.68 735.5  855 736.82  855 738.5  C 855 740.18  853.68 741.5  852 741.5  " fill-rule="nonzero" fill="#797979" stroke="none" />
</svg>