<?xml version="1.0" encoding="utf-8"?>
<svg version="1.1" xmlns:xlink="http://www.w3.org/1999/xlink" width="12px" height="12px" viewBox="447 1343  12 12" xmlns="http://www.w3.org/2000/svg">
  <path d="M 447.5 1345  A 1.5 1.5 0 0 1 449 1343.5 L 457 1343.5  A 1.5 1.5 0 0 1 458.5 1345 L 458.5 1353  A 1.5 1.5 0 0 1 457 1354.5 L 449 1354.5  A 1.5 1.5 0 0 1 447.5 1353 L 447.5 1345  Z " fill-rule="nonzero" fill="#f2f2f2" stroke="none" />
  <path d="M 447.5 1345  A 1.5 1.5 0 0 1 449 1343.5 L 457 1343.5  A 1.5 1.5 0 0 1 458.5 1345 L 458.5 1353  A 1.5 1.5 0 0 1 457 1354.5 L 449 1354.5  A 1.5 1.5 0 0 1 447.5 1353 L 447.5 1345  Z " stroke-width="1" stroke="#797979" fill="none" />
  <path d="M 449.571428571429 1349  L 452.142857142857 1351.57142857143  " stroke-width="2.57142857142857" stroke="#797979" fill="none" />
  <path d="M 452.142857142857 1351.57142857143  L 456.428571428571 1345.57142857143  " stroke-width="2.57142857142857" stroke="#797979" fill="none" />
</svg>