<?xml version="1.0" encoding="utf-8"?>
<svg version="1.1" xmlns:xlink="http://www.w3.org/1999/xlink" width="12px" height="12px" viewBox="848 1345.5  12 12" xmlns="http://www.w3.org/2000/svg">
  <path d="M 854 1345.5  C 857.36 1345.5  860 1348.14  860 1351.5  C 860 1354.86  857.36 1357.5  854 1357.5  C 850.64 1357.5  848 1354.86  848 1351.5  C 848 1348.14  850.64 1345.5  854 1345.5  Z " fill-rule="nonzero" fill="#f0f0f0" stroke="none" />
  <path d="M 854 1346  C 857.08 1346  859.5 1348.42  859.5 1351.5  C 859.5 1354.58  857.08 1357  854 1357  C 850.92 1357  848.5 1354.58  848.5 1351.5  C 848.5 1348.42  850.92 1346  854 1346  Z " stroke-width="1" stroke="#797979" fill="none" />
  <path d="M 854 1354.5  C 852.32 1354.5  851 1353.18  851 1351.5  C 851 1349.82  852.32 1348.5  854 1348.5  C 855.68 1348.5  857 1349.82  857 1351.5  C 857 1353.18  855.68 1354.5  854 1354.5  " fill-rule="nonzero" fill="#797979" stroke="none" />
</svg>