<?xml version="1.0" encoding="utf-8"?>
<svg version="1.1" xmlns:xlink="http://www.w3.org/1999/xlink" width="12px" height="12px" viewBox="848 1310.5  12 12" xmlns="http://www.w3.org/2000/svg">
  <path d="M 854 1310.5  C 857.36 1310.5  860 1313.14  860 1316.5  C 860 1319.86  857.36 1322.5  854 1322.5  C 850.64 1322.5  848 1319.86  848 1316.5  C 848 1313.14  850.64 1310.5  854 1310.5  Z " fill-rule="nonzero" fill="#ffffff" stroke="none" fill-opacity="0" />
  <path d="M 854 1311  C 857.08 1311  859.5 1313.42  859.5 1316.5  C 859.5 1319.58  857.08 1322  854 1322  C 850.92 1322  848.5 1319.58  848.5 1316.5  C 848.5 1313.42  850.92 1311  854 1311  Z " stroke-width="1" stroke="#797979" fill="none" />
  <path d="M 854 1319.5  C 852.32 1319.5  851 1318.18  851 1316.5  C 851 1314.82  852.32 1313.5  854 1313.5  C 855.68 1313.5  857 1314.82  857 1316.5  C 857 1318.18  855.68 1319.5  854 1319.5  " fill-rule="nonzero" fill="#797979" stroke="none" />
</svg>