<?xml version="1.0" encoding="utf-8"?>
<svg version="1.1" xmlns:xlink="http://www.w3.org/1999/xlink" width="12px" height="12px" viewBox="801 1345.5  12 12" xmlns="http://www.w3.org/2000/svg">
  <path d="M 807 1345.5  C 810.36 1345.5  813 1348.14  813 1351.5  C 813 1354.86  810.36 1357.5  807 1357.5  C 803.64 1357.5  801 1354.86  801 1351.5  C 801 1348.14  803.64 1345.5  807 1345.5  Z " fill-rule="nonzero" fill="#dcf3fd" stroke="none" />
  <path d="M 807 1346  C 810.08 1346  812.5 1348.42  812.5 1351.5  C 812.5 1354.58  810.08 1357  807 1357  C 803.92 1357  801.5 1354.58  801.5 1351.5  C 801.5 1348.42  803.92 1346  807 1346  Z " stroke-width="1" stroke="#797979" fill="none" />
  <path d="M 807 1354.5  C 805.32 1354.5  804 1353.18  804 1351.5  C 804 1349.82  805.32 1348.5  807 1348.5  C 808.68 1348.5  810 1349.82  810 1351.5  C 810 1353.18  808.68 1354.5  807 1354.5  " fill-rule="nonzero" fill="#797979" stroke="none" />
</svg>