<?xml version="1.0" encoding="utf-8"?>
<svg version="1.1" xmlns:xlink="http://www.w3.org/1999/xlink" width="12px" height="12px" viewBox="798 549  12 12" xmlns="http://www.w3.org/2000/svg">
  <path d="M 804 549  C 807.36 549  810 551.64  810 555  C 810 558.36  807.36 561  804 561  C 800.64 561  798 558.36  798 555  C 798 551.64  800.64 549  804 549  Z " fill-rule="nonzero" fill="#f0f0f0" stroke="none" />
  <path d="M 804 549.5  C 807.08 549.5  809.5 551.92  809.5 555  C 809.5 558.08  807.08 560.5  804 560.5  C 800.92 560.5  798.5 558.08  798.5 555  C 798.5 551.92  800.92 549.5  804 549.5  Z " stroke-width="1" stroke="#797979" fill="none" />
  <path d="M 804 558  C 802.32 558  801 556.68  801 555  C 801 553.32  802.32 552  804 552  C 805.68 552  807 553.32  807 555  C 807 556.68  805.68 558  804 558  " fill-rule="nonzero" fill="#797979" stroke="none" />
</svg>