<?xml version="1.0" encoding="utf-8"?>
<svg version="1.1" xmlns:xlink="http://www.w3.org/1999/xlink" width="12px" height="12px" viewBox="444 536  12 12" xmlns="http://www.w3.org/2000/svg">
  <path d="M 444.5 538  A 1.5 1.5 0 0 1 446 536.5 L 454 536.5  A 1.5 1.5 0 0 1 455.5 538 L 455.5 546  A 1.5 1.5 0 0 1 454 547.5 L 446 547.5  A 1.5 1.5 0 0 1 444.5 546 L 444.5 538  Z " fill-rule="nonzero" fill="#f0f0f0" stroke="none" />
  <path d="M 444.5 538  A 1.5 1.5 0 0 1 446 536.5 L 454 536.5  A 1.5 1.5 0 0 1 455.5 538 L 455.5 546  A 1.5 1.5 0 0 1 454 547.5 L 446 547.5  A 1.5 1.5 0 0 1 444.5 546 L 444.5 538  Z " stroke-width="1" stroke="#797979" fill="none" />
  <path d="M 446.571428571429 542  L 449.142857142857 544.571428571429  " stroke-width="2.57142857142857" stroke="#797979" fill="none" />
  <path d="M 449.142857142857 544.571428571429  L 453.428571428571 538.571428571429  " stroke-width="2.57142857142857" stroke="#797979" fill="none" />
</svg>