<?xml version="1.0" encoding="utf-8"?>
<svg version="1.1" xmlns:xlink="http://www.w3.org/1999/xlink" width="12px" height="12px" viewBox="845 540  12 12" xmlns="http://www.w3.org/2000/svg">
  <path d="M 851 540  C 854.36 540  857 542.64  857 546  C 857 549.36  854.36 552  851 552  C 847.64 552  845 549.36  845 546  C 845 542.64  847.64 540  851 540  Z " fill-rule="nonzero" fill="#ffffff" stroke="none" />
  <path d="M 851 540.5  C 854.08 540.5  856.5 542.92  856.5 546  C 856.5 549.08  854.08 551.5  851 551.5  C 847.92 551.5  845.5 549.08  845.5 546  C 845.5 542.92  847.92 540.5  851 540.5  Z " stroke-width="1" stroke="#797979" fill="none" />
  <path d="M 851 549  C 849.32 549  848 547.68  848 546  C 848 544.32  849.32 543  851 543  C 852.68 543  854 544.32  854 546  C 854 547.68  852.68 549  851 549  " fill-rule="nonzero" fill="#797979" stroke="none" />
</svg>