<?xml version="1.0" encoding="utf-8"?>
<svg version="1.1" xmlns:xlink="http://www.w3.org/1999/xlink" width="12px" height="12px" viewBox="447 1059  12 12" xmlns="http://www.w3.org/2000/svg">
  <path d="M 447.5 1061  A 1.5 1.5 0 0 1 449 1059.5 L 457 1059.5  A 1.5 1.5 0 0 1 458.5 1061 L 458.5 1069  A 1.5 1.5 0 0 1 457 1070.5 L 449 1070.5  A 1.5 1.5 0 0 1 447.5 1069 L 447.5 1061  Z " fill-rule="nonzero" fill="#ffffff" stroke="none" />
  <path d="M 447.5 1061  A 1.5 1.5 0 0 1 449 1059.5 L 457 1059.5  A 1.5 1.5 0 0 1 458.5 1061 L 458.5 1069  A 1.5 1.5 0 0 1 457 1070.5 L 449 1070.5  A 1.5 1.5 0 0 1 447.5 1069 L 447.5 1061  Z " stroke-width="1" stroke="#797979" fill="none" />
</svg>