<?xml version="1.0" encoding="utf-8"?>
<svg version="1.1" xmlns:xlink="http://www.w3.org/1999/xlink" width="12px" height="12px" viewBox="802 1106.5  12 12" xmlns="http://www.w3.org/2000/svg">
  <path d="M 808 1106.5  C 811.36 1106.5  814 1109.14  814 1112.5  C 814 1115.86  811.36 1118.5  808 1118.5  C 804.64 1118.5  802 1115.86  802 1112.5  C 802 1109.14  804.64 1106.5  808 1106.5  Z " fill-rule="nonzero" fill="#d7d7d7" stroke="none" />
  <path d="M 808 1107  C 811.08 1107  813.5 1109.42  813.5 1112.5  C 813.5 1115.58  811.08 1118  808 1118  C 804.92 1118  802.5 1115.58  802.5 1112.5  C 802.5 1109.42  804.92 1107  808 1107  Z " stroke-width="1" stroke="#797979" fill="none" />
  <path d="M 808 1115.5  C 806.32 1115.5  805 1114.18  805 1112.5  C 805 1110.82  806.32 1109.5  808 1109.5  C 809.68 1109.5  811 1110.82  811 1112.5  C 811 1114.18  809.68 1115.5  808 1115.5  " fill-rule="nonzero" fill="#797979" stroke="none" />
</svg>