<?xml version="1.0" encoding="utf-8"?>
<svg version="1.1" xmlns:xlink="http://www.w3.org/1999/xlink" width="12px" height="12px" viewBox="849 1068.5  12 12" xmlns="http://www.w3.org/2000/svg">
  <path d="M 855 1068.5  C 858.36 1068.5  861 1071.14  861 1074.5  C 861 1077.86  858.36 1080.5  855 1080.5  C 851.64 1080.5  849 1077.86  849 1074.5  C 849 1071.14  851.64 1068.5  855 1068.5  Z " fill-rule="nonzero" fill="#d7d7d7" stroke="none" />
  <path d="M 855 1069  C 858.08 1069  860.5 1071.42  860.5 1074.5  C 860.5 1077.58  858.08 1080  855 1080  C 851.92 1080  849.5 1077.58  849.5 1074.5  C 849.5 1071.42  851.92 1069  855 1069  Z " stroke-width="1" stroke="#797979" fill="none" />
  <path d="M 855 1077.5  C 853.32 1077.5  852 1076.18  852 1074.5  C 852 1072.82  853.32 1071.5  855 1071.5  C 856.68 1071.5  858 1072.82  858 1074.5  C 858 1076.18  856.68 1077.5  855 1077.5  " fill-rule="nonzero" fill="#797979" stroke="none" />
</svg>