<?xml version="1.0" encoding="utf-8"?>
<svg version="1.1" xmlns:xlink="http://www.w3.org/1999/xlink" width="12px" height="12px" viewBox="849 1235.5  12 12" xmlns="http://www.w3.org/2000/svg">
  <path d="M 855 1235.5  C 858.36 1235.5  861 1238.14  861 1241.5  C 861 1244.86  858.36 1247.5  855 1247.5  C 851.64 1247.5  849 1244.86  849 1241.5  C 849 1238.14  851.64 1235.5  855 1235.5  Z " fill-rule="nonzero" fill="#f0f0f0" stroke="none" />
  <path d="M 855 1236  C 858.08 1236  860.5 1238.42  860.5 1241.5  C 860.5 1244.58  858.08 1247  855 1247  C 851.92 1247  849.5 1244.58  849.5 1241.5  C 849.5 1238.42  851.92 1236  855 1236  Z " stroke-width="1" stroke="#797979" fill="none" />
  <path d="M 855 1244.5  C 853.32 1244.5  852 1243.18  852 1241.5  C 852 1239.82  853.32 1238.5  855 1238.5  C 856.68 1238.5  858 1239.82  858 1241.5  C 858 1243.18  856.68 1244.5  855 1244.5  " fill-rule="nonzero" fill="#797979" stroke="none" />
</svg>