<?xml version="1.0" encoding="utf-8"?>
<svg version="1.1" xmlns:xlink="http://www.w3.org/1999/xlink" width="12px" height="12px" viewBox="802 1147.5  12 12" xmlns="http://www.w3.org/2000/svg">
  <path d="M 808 1147.5  C 811.36 1147.5  814 1150.14  814 1153.5  C 814 1156.86  811.36 1159.5  808 1159.5  C 804.64 1159.5  802 1156.86  802 1153.5  C 802 1150.14  804.64 1147.5  808 1147.5  Z " fill-rule="nonzero" fill="#f0f0f0" stroke="none" />
  <path d="M 808 1148  C 811.08 1148  813.5 1150.42  813.5 1153.5  C 813.5 1156.58  811.08 1159  808 1159  C 804.92 1159  802.5 1156.58  802.5 1153.5  C 802.5 1150.42  804.92 1148  808 1148  Z " stroke-width="1" stroke="#797979" fill="none" />
  <path d="M 808 1156.5  C 806.32 1156.5  805 1155.18  805 1153.5  C 805 1151.82  806.32 1150.5  808 1150.5  C 809.68 1150.5  811 1151.82  811 1153.5  C 811 1155.18  809.68 1156.5  808 1156.5  " fill-rule="nonzero" fill="#797979" stroke="none" />
</svg>