<?xml version="1.0" encoding="utf-8"?>
<svg version="1.1" xmlns:xlink="http://www.w3.org/1999/xlink" width="12px" height="12px" viewBox="849 1147.5  12 12" xmlns="http://www.w3.org/2000/svg">
  <path d="M 855 1147.5  C 858.36 1147.5  861 1150.14  861 1153.5  C 861 1156.86  858.36 1159.5  855 1159.5  C 851.64 1159.5  849 1156.86  849 1153.5  C 849 1150.14  851.64 1147.5  855 1147.5  Z " fill-rule="nonzero" fill="#f0f0f0" stroke="none" />
  <path d="M 855 1148  C 858.08 1148  860.5 1150.42  860.5 1153.5  C 860.5 1156.58  858.08 1159  855 1159  C 851.92 1159  849.5 1156.58  849.5 1153.5  C 849.5 1150.42  851.92 1148  855 1148  Z " stroke-width="1" stroke="#797979" fill="none" />
  <path d="M 855 1156.5  C 853.32 1156.5  852 1155.18  852 1153.5  C 852 1151.82  853.32 1150.5  855 1150.5  C 856.68 1150.5  858 1151.82  858 1153.5  C 858 1155.18  856.68 1156.5  855 1156.5  " fill-rule="nonzero" fill="#797979" stroke="none" />
</svg>