<?xml version="1.0" encoding="utf-8"?>
<svg version="1.1" xmlns:xlink="http://www.w3.org/1999/xlink" width="12px" height="12px" viewBox="849 1106.5  12 12" xmlns="http://www.w3.org/2000/svg">
  <path d="M 855 1106.5  C 858.36 1106.5  861 1109.14  861 1112.5  C 861 1115.86  858.36 1118.5  855 1118.5  C 851.64 1118.5  849 1115.86  849 1112.5  C 849 1109.14  851.64 1106.5  855 1106.5  Z " fill-rule="nonzero" fill="#f0f0f0" stroke="none" />
  <path d="M 855 1107  C 858.08 1107  860.5 1109.42  860.5 1112.5  C 860.5 1115.58  858.08 1118  855 1118  C 851.92 1118  849.5 1115.58  849.5 1112.5  C 849.5 1109.42  851.92 1107  855 1107  Z " stroke-width="1" stroke="#797979" fill="none" />
  <path d="M 855 1115.5  C 853.32 1115.5  852 1114.18  852 1112.5  C 852 1110.82  853.32 1109.5  855 1109.5  C 856.68 1109.5  858 1110.82  858 1112.5  C 858 1114.18  856.68 1115.5  855 1115.5  " fill-rule="nonzero" fill="#797979" stroke="none" />
</svg>