<?xml version="1.0" encoding="utf-8"?>
<svg version="1.1" xmlns:xlink="http://www.w3.org/1999/xlink" width="12px" height="12px" viewBox="799 409.5  12 12" xmlns="http://www.w3.org/2000/svg">
  <path d="M 805 409.5  C 808.36 409.5  811 412.14  811 415.5  C 811 418.86  808.36 421.5  805 421.5  C 801.64 421.5  799 418.86  799 415.5  C 799 412.14  801.64 409.5  805 409.5  Z " fill-rule="nonzero" fill="#f0f0f0" stroke="none" />
  <path d="M 805 410  C 808.08 410  810.5 412.42  810.5 415.5  C 810.5 418.58  808.08 421  805 421  C 801.92 421  799.5 418.58  799.5 415.5  C 799.5 412.42  801.92 410  805 410  Z " stroke-width="1" stroke="#797979" fill="none" />
  <path d="M 805 418.5  C 803.32 418.5  802 417.18  802 415.5  C 802 413.82  803.32 412.5  805 412.5  C 806.68 412.5  808 413.82  808 415.5  C 808 417.18  806.68 418.5  805 418.5  " fill-rule="nonzero" fill="#797979" stroke="none" />
</svg>