<?xml version="1.0" encoding="utf-8"?>
<svg version="1.1" xmlns:xlink="http://www.w3.org/1999/xlink" width="12px" height="12px" viewBox="846 409.5  12 12" xmlns="http://www.w3.org/2000/svg">
  <path d="M 852 409.5  C 855.36 409.5  858 412.14  858 415.5  C 858 418.86  855.36 421.5  852 421.5  C 848.64 421.5  846 418.86  846 415.5  C 846 412.14  848.64 409.5  852 409.5  Z " fill-rule="nonzero" fill="#ffffff" stroke="none" />
  <path d="M 852 410  C 855.08 410  857.5 412.42  857.5 415.5  C 857.5 418.58  855.08 421  852 421  C 848.92 421  846.5 418.58  846.5 415.5  C 846.5 412.42  848.92 410  852 410  Z " stroke-width="1" stroke="#797979" fill="none" />
  <path d="M 852 418.5  C 850.32 418.5  849 417.18  849 415.5  C 849 413.82  850.32 412.5  852 412.5  C 853.68 412.5  855 413.82  855 415.5  C 855 417.18  853.68 418.5  852 418.5  " fill-rule="nonzero" fill="#797979" stroke="none" />
</svg>