<?xml version="1.0" encoding="utf-8"?>
<svg version="1.1" xmlns:xlink="http://www.w3.org/1999/xlink" width="12px" height="12px" viewBox="846 368.5  12 12" xmlns="http://www.w3.org/2000/svg">
  <path d="M 852 368.5  C 855.36 368.5  858 371.14  858 374.5  C 858 377.86  855.36 380.5  852 380.5  C 848.64 380.5  846 377.86  846 374.5  C 846 371.14  848.64 368.5  852 368.5  Z " fill-rule="nonzero" fill="#f0f0f0" stroke="none" />
  <path d="M 852 369  C 855.08 369  857.5 371.42  857.5 374.5  C 857.5 377.58  855.08 380  852 380  C 848.92 380  846.5 377.58  846.5 374.5  C 846.5 371.42  848.92 369  852 369  Z " stroke-width="1" stroke="#797979" fill="none" />
  <path d="M 852 377.5  C 850.32 377.5  849 376.18  849 374.5  C 849 372.82  850.32 371.5  852 371.5  C 853.68 371.5  855 372.82  855 374.5  C 855 376.18  853.68 377.5  852 377.5  " fill-rule="nonzero" fill="#797979" stroke="none" />
</svg>