<?xml version="1.0" encoding="utf-8"?>
<svg version="1.1" xmlns:xlink="http://www.w3.org/1999/xlink" width="12px" height="12px" viewBox="447 366  12 12" xmlns="http://www.w3.org/2000/svg">
  <path d="M 447.5 368  A 1.5 1.5 0 0 1 449 366.5 L 457 366.5  A 1.5 1.5 0 0 1 458.5 368 L 458.5 376  A 1.5 1.5 0 0 1 457 377.5 L 449 377.5  A 1.5 1.5 0 0 1 447.5 376 L 447.5 368  Z " fill-rule="nonzero" fill="#f0f0f0" stroke="none" />
  <path d="M 447.5 368  A 1.5 1.5 0 0 1 449 366.5 L 457 366.5  A 1.5 1.5 0 0 1 458.5 368 L 458.5 376  A 1.5 1.5 0 0 1 457 377.5 L 449 377.5  A 1.5 1.5 0 0 1 447.5 376 L 447.5 368  Z " stroke-width="1" stroke="#797979" fill="none" />
  <path d="M 449.571428571429 372  L 452.142857142857 374.571428571429  " stroke-width="2.57142857142857" stroke="#797979" fill="none" />
  <path d="M 452.142857142857 374.571428571429  L 456.428571428571 368.571428571429  " stroke-width="2.57142857142857" stroke="#797979" fill="none" />
</svg>