<?xml version="1.0" encoding="utf-8"?>
<svg version="1.1" xmlns:xlink="http://www.w3.org/1999/xlink" width="12px" height="12px" viewBox="799 368.5  12 12" xmlns="http://www.w3.org/2000/svg">
  <path d="M 805 368.5  C 808.36 368.5  811 371.14  811 374.5  C 811 377.86  808.36 380.5  805 380.5  C 801.64 380.5  799 377.86  799 374.5  C 799 371.14  801.64 368.5  805 368.5  Z " fill-rule="nonzero" fill="#ffffff" stroke="none" />
  <path d="M 805 369  C 808.08 369  810.5 371.42  810.5 374.5  C 810.5 377.58  808.08 380  805 380  C 801.92 380  799.5 377.58  799.5 374.5  C 799.5 371.42  801.92 369  805 369  Z " stroke-width="1" stroke="#797979" fill="none" />
  <path d="M 805 377.5  C 803.32 377.5  802 376.18  802 374.5  C 802 372.82  803.32 371.5  805 371.5  C 806.68 371.5  808 372.82  808 374.5  C 808 376.18  806.68 377.5  805 377.5  " fill-rule="nonzero" fill="#797979" stroke="none" />
</svg>