<?xml version="1.0" encoding="utf-8"?>
<svg version="1.1" xmlns:xlink="http://www.w3.org/1999/xlink" width="12px" height="12px" viewBox="444 585  12 12" xmlns="http://www.w3.org/2000/svg">
  <path d="M 444.5 587  A 1.5 1.5 0 0 1 446 585.5 L 454 585.5  A 1.5 1.5 0 0 1 455.5 587 L 455.5 595  A 1.5 1.5 0 0 1 454 596.5 L 446 596.5  A 1.5 1.5 0 0 1 444.5 595 L 444.5 587  Z " fill-rule="nonzero" fill="#f0f0f0" stroke="none" />
  <path d="M 444.5 587  A 1.5 1.5 0 0 1 446 585.5 L 454 585.5  A 1.5 1.5 0 0 1 455.5 587 L 455.5 595  A 1.5 1.5 0 0 1 454 596.5 L 446 596.5  A 1.5 1.5 0 0 1 444.5 595 L 444.5 587  Z " stroke-width="1" stroke="#797979" fill="none" />
</svg>