<?xml version="1.0" encoding="utf-8"?>
<svg version="1.1" xmlns:xlink="http://www.w3.org/1999/xlink" width="12px" height="12px" viewBox="799 863.5  12 12" xmlns="http://www.w3.org/2000/svg">
  <path d="M 805 863.5  C 808.36 863.5  811 866.14  811 869.5  C 811 872.86  808.36 875.5  805 875.5  C 801.64 875.5  799 872.86  799 869.5  C 799 866.14  801.64 863.5  805 863.5  Z " fill-rule="nonzero" fill="#ffffff" stroke="none" />
  <path d="M 805 864  C 808.08 864  810.5 866.42  810.5 869.5  C 810.5 872.58  808.08 875  805 875  C 801.92 875  799.5 872.58  799.5 869.5  C 799.5 866.42  801.92 864  805 864  Z " stroke-width="1" stroke="#797979" fill="none" />
  <path d="M 805 872.5  C 803.32 872.5  802 871.18  802 869.5  C 802 867.82  803.32 866.5  805 866.5  C 806.68 866.5  808 867.82  808 869.5  C 808 871.18  806.68 872.5  805 872.5  " fill-rule="nonzero" fill="#797979" stroke="none" />
</svg>