<?xml version="1.0" encoding="utf-8"?>
<svg version="1.1" xmlns:xlink="http://www.w3.org/1999/xlink" width="12px" height="12px" viewBox="846 863.5  12 12" xmlns="http://www.w3.org/2000/svg">
  <path d="M 852 863.5  C 855.36 863.5  858 866.14  858 869.5  C 858 872.86  855.36 875.5  852 875.5  C 848.64 875.5  846 872.86  846 869.5  C 846 866.14  848.64 863.5  852 863.5  Z " fill-rule="nonzero" fill="#ffffff" stroke="none" />
  <path d="M 852 864  C 855.08 864  857.5 866.42  857.5 869.5  C 857.5 872.58  855.08 875  852 875  C 848.92 875  846.5 872.58  846.5 869.5  C 846.5 866.42  848.92 864  852 864  Z " stroke-width="1" stroke="#797979" fill="none" />
  <path d="M 852 872.5  C 850.32 872.5  849 871.18  849 869.5  C 849 867.82  850.32 866.5  852 866.5  C 853.68 866.5  855 867.82  855 869.5  C 855 871.18  853.68 872.5  852 872.5  " fill-rule="nonzero" fill="#797979" stroke="none" />
</svg>