<?xml version="1.0" encoding="utf-8"?>
<svg version="1.1" xmlns:xlink="http://www.w3.org/1999/xlink" width="12px" height="12px" viewBox="846 822.5  12 12" xmlns="http://www.w3.org/2000/svg">
  <path d="M 852 822.5  C 855.36 822.5  858 825.14  858 828.5  C 858 831.86  855.36 834.5  852 834.5  C 848.64 834.5  846 831.86  846 828.5  C 846 825.14  848.64 822.5  852 822.5  Z " fill-rule="nonzero" fill="#f0f0f0" stroke="none" />
  <path d="M 852 823  C 855.08 823  857.5 825.42  857.5 828.5  C 857.5 831.58  855.08 834  852 834  C 848.92 834  846.5 831.58  846.5 828.5  C 846.5 825.42  848.92 823  852 823  Z " stroke-width="1" stroke="#797979" fill="none" />
  <path d="M 852 831.5  C 850.32 831.5  849 830.18  849 828.5  C 849 826.82  850.32 825.5  852 825.5  C 853.68 825.5  855 826.82  855 828.5  C 855 830.18  853.68 831.5  852 831.5  " fill-rule="nonzero" fill="#797979" stroke="none" />
</svg>