<?xml version="1.0" encoding="utf-8"?>
<svg version="1.1" xmlns:xlink="http://www.w3.org/1999/xlink" width="12px" height="12px" viewBox="799 6640.5  12 12" xmlns="http://www.w3.org/2000/svg">
  <path d="M 805 6640.5  C 808.36 6640.5  811 6643.14  811 6646.5  C 811 6649.86  808.36 6652.5  805 6652.5  C 801.64 6652.5  799 6649.86  799 6646.5  C 799 6643.14  801.64 6640.5  805 6640.5  Z " fill-rule="nonzero" fill="#f0f0f0" stroke="none" />
  <path d="M 805 6641  C 808.08 6641  810.5 6643.42  810.5 6646.5  C 810.5 6649.58  808.08 6652  805 6652  C 801.92 6652  799.5 6649.58  799.5 6646.5  C 799.5 6643.42  801.92 6641  805 6641  Z " stroke-width="1" stroke="#797979" fill="none" />
  <path d="M 805 6649.5  C 803.32 6649.5  802 6648.18  802 6646.5  C 802 6644.82  803.32 6643.5  805 6643.5  C 806.68 6643.5  808 6644.82  808 6646.5  C 808 6648.18  806.68 6649.5  805 6649.5  " fill-rule="nonzero" fill="#797979" stroke="none" />
</svg>