<?xml version="1.0" encoding="utf-8"?>
<svg version="1.1" xmlns:xlink="http://www.w3.org/1999/xlink" width="12px" height="12px" viewBox="846 6640.5  12 12" xmlns="http://www.w3.org/2000/svg">
  <path d="M 852 6640.5  C 855.36 6640.5  858 6643.14  858 6646.5  C 858 6649.86  855.36 6652.5  852 6652.5  C 848.64 6652.5  846 6649.86  846 6646.5  C 846 6643.14  848.64 6640.5  852 6640.5  Z " fill-rule="nonzero" fill="#ffffff" stroke="none" />
  <path d="M 852 6641  C 855.08 6641  857.5 6643.42  857.5 6646.5  C 857.5 6649.58  855.08 6652  852 6652  C 848.92 6652  846.5 6649.58  846.5 6646.5  C 846.5 6643.42  848.92 6641  852 6641  Z " stroke-width="1" stroke="#797979" fill="none" />
  <path d="M 852 6649.5  C 850.32 6649.5  849 6648.18  849 6646.5  C 849 6644.82  850.32 6643.5  852 6643.5  C 853.68 6643.5  855 6644.82  855 6646.5  C 855 6648.18  853.68 6649.5  852 6649.5  " fill-rule="nonzero" fill="#797979" stroke="none" />
</svg>