<?xml version="1.0" encoding="utf-8"?>
<svg version="1.1" xmlns:xlink="http://www.w3.org/1999/xlink" width="12px" height="12px" viewBox="447 6638  12 12" xmlns="http://www.w3.org/2000/svg">
  <path d="M 447.5 6640  A 1.5 1.5 0 0 1 449 6638.5 L 457 6638.5  A 1.5 1.5 0 0 1 458.5 6640 L 458.5 6648  A 1.5 1.5 0 0 1 457 6649.5 L 449 6649.5  A 1.5 1.5 0 0 1 447.5 6648 L 447.5 6640  Z " fill-rule="nonzero" fill="#ffffff" stroke="none" />
  <path d="M 447.5 6640  A 1.5 1.5 0 0 1 449 6638.5 L 457 6638.5  A 1.5 1.5 0 0 1 458.5 6640 L 458.5 6648  A 1.5 1.5 0 0 1 457 6649.5 L 449 6649.5  A 1.5 1.5 0 0 1 447.5 6648 L 447.5 6640  Z " stroke-width="1" stroke="#797979" fill="none" />
</svg>