<?xml version="1.0" encoding="utf-8"?>
<svg version="1.1" xmlns:xlink="http://www.w3.org/1999/xlink" width="12px" height="12px" viewBox="845 6725.5  12 12" xmlns="http://www.w3.org/2000/svg">
  <path d="M 851 6725.5  C 854.36 6725.5  857 6728.14  857 6731.5  C 857 6734.86  854.36 6737.5  851 6737.5  C 847.64 6737.5  845 6734.86  845 6731.5  C 845 6728.14  847.64 6725.5  851 6725.5  Z " fill-rule="nonzero" fill="#ffffff" stroke="none" />
  <path d="M 851 6726  C 854.08 6726  856.5 6728.42  856.5 6731.5  C 856.5 6734.58  854.08 6737  851 6737  C 847.92 6737  845.5 6734.58  845.5 6731.5  C 845.5 6728.42  847.92 6726  851 6726  Z " stroke-width="1" stroke="#797979" fill="none" />
  <path d="M 851 6734.5  C 849.32 6734.5  848 6733.18  848 6731.5  C 848 6729.82  849.32 6728.5  851 6728.5  C 852.68 6728.5  854 6729.82  854 6731.5  C 854 6733.18  852.68 6734.5  851 6734.5  " fill-rule="nonzero" fill="#797979" stroke="none" />
</svg>