<?xml version="1.0" encoding="utf-8"?>
<svg version="1.1" xmlns:xlink="http://www.w3.org/1999/xlink" width="12px" height="12px" viewBox="798 6809.5  12 12" xmlns="http://www.w3.org/2000/svg">
  <path d="M 804 6809.5  C 807.36 6809.5  810 6812.14  810 6815.5  C 810 6818.86  807.36 6821.5  804 6821.5  C 800.64 6821.5  798 6818.86  798 6815.5  C 798 6812.14  800.64 6809.5  804 6809.5  Z " fill-rule="nonzero" fill="#ffffff" stroke="none" />
  <path d="M 804 6810  C 807.08 6810  809.5 6812.42  809.5 6815.5  C 809.5 6818.58  807.08 6821  804 6821  C 800.92 6821  798.5 6818.58  798.5 6815.5  C 798.5 6812.42  800.92 6810  804 6810  Z " stroke-width="1" stroke="#797979" fill="none" />
  <path d="M 804 6818.5  C 802.32 6818.5  801 6817.18  801 6815.5  C 801 6813.82  802.32 6812.5  804 6812.5  C 805.68 6812.5  807 6813.82  807 6815.5  C 807 6817.18  805.68 6818.5  804 6818.5  " fill-rule="nonzero" fill="#797979" stroke="none" />
</svg>