<?xml version="1.0" encoding="utf-8"?>
<svg version="1.1" xmlns:xlink="http://www.w3.org/1999/xlink" width="12px" height="12px" viewBox="799 6764.5  12 12" xmlns="http://www.w3.org/2000/svg">
  <path d="M 805 6764.5  C 808.36 6764.5  811 6767.14  811 6770.5  C 811 6773.86  808.36 6776.5  805 6776.5  C 801.64 6776.5  799 6773.86  799 6770.5  C 799 6767.14  801.64 6764.5  805 6764.5  Z " fill-rule="nonzero" fill="#ffffff" stroke="none" />
  <path d="M 805 6765  C 808.08 6765  810.5 6767.42  810.5 6770.5  C 810.5 6773.58  808.08 6776  805 6776  C 801.92 6776  799.5 6773.58  799.5 6770.5  C 799.5 6767.42  801.92 6765  805 6765  Z " stroke-width="1" stroke="#797979" fill="none" />
  <path d="M 805 6773.5  C 803.32 6773.5  802 6772.18  802 6770.5  C 802 6768.82  803.32 6767.5  805 6767.5  C 806.68 6767.5  808 6768.82  808 6770.5  C 808 6772.18  806.68 6773.5  805 6773.5  " fill-rule="nonzero" fill="#797979" stroke="none" />
</svg>