<?xml version="1.0" encoding="utf-8"?>
<svg version="1.1" xmlns:xlink="http://www.w3.org/1999/xlink" width="12px" height="12px" viewBox="446 6930  12 12" xmlns="http://www.w3.org/2000/svg">
  <path d="M 446.5 6932  A 1.5 1.5 0 0 1 448 6930.5 L 456 6930.5  A 1.5 1.5 0 0 1 457.5 6932 L 457.5 6940  A 1.5 1.5 0 0 1 456 6941.5 L 448 6941.5  A 1.5 1.5 0 0 1 446.5 6940 L 446.5 6932  Z " fill-rule="nonzero" fill="#ffffff" stroke="none" />
  <path d="M 446.5 6932  A 1.5 1.5 0 0 1 448 6930.5 L 456 6930.5  A 1.5 1.5 0 0 1 457.5 6932 L 457.5 6940  A 1.5 1.5 0 0 1 456 6941.5 L 448 6941.5  A 1.5 1.5 0 0 1 446.5 6940 L 446.5 6932  Z " stroke-width="1" stroke="#797979" fill="none" />
</svg>