<?xml version="1.0" encoding="utf-8"?>
<svg version="1.1" xmlns:xlink="http://www.w3.org/1999/xlink" width="12px" height="12px" viewBox="845 6932.5  12 12" xmlns="http://www.w3.org/2000/svg">
  <path d="M 851 6932.5  C 854.36 6932.5  857 6935.14  857 6938.5  C 857 6941.86  854.36 6944.5  851 6944.5  C 847.64 6944.5  845 6941.86  845 6938.5  C 845 6935.14  847.64 6932.5  851 6932.5  Z " fill-rule="nonzero" fill="#f0f0f0" stroke="none" />
  <path d="M 851 6933  C 854.08 6933  856.5 6935.42  856.5 6938.5  C 856.5 6941.58  854.08 6944  851 6944  C 847.92 6944  845.5 6941.58  845.5 6938.5  C 845.5 6935.42  847.92 6933  851 6933  Z " stroke-width="1" stroke="#797979" fill="none" />
  <path d="M 851 6941.5  C 849.32 6941.5  848 6940.18  848 6938.5  C 848 6936.82  849.32 6935.5  851 6935.5  C 852.68 6935.5  854 6936.82  854 6938.5  C 854 6940.18  852.68 6941.5  851 6941.5  " fill-rule="nonzero" fill="#797979" stroke="none" />
</svg>