<?xml version="1.0" encoding="utf-8"?>
<svg version="1.1" xmlns:xlink="http://www.w3.org/1999/xlink" width="12px" height="12px" viewBox="799 6887.5  12 12" xmlns="http://www.w3.org/2000/svg">
  <path d="M 805 6887.5  C 808.36 6887.5  811 6890.14  811 6893.5  C 811 6896.86  808.36 6899.5  805 6899.5  C 801.64 6899.5  799 6896.86  799 6893.5  C 799 6890.14  801.64 6887.5  805 6887.5  Z " fill-rule="nonzero" fill="#f0f0f0" stroke="none" />
  <path d="M 805 6888  C 808.08 6888  810.5 6890.42  810.5 6893.5  C 810.5 6896.58  808.08 6899  805 6899  C 801.92 6899  799.5 6896.58  799.5 6893.5  C 799.5 6890.42  801.92 6888  805 6888  Z " stroke-width="1" stroke="#797979" fill="none" />
  <path d="M 805 6896.5  C 803.32 6896.5  802 6895.18  802 6893.5  C 802 6891.82  803.32 6890.5  805 6890.5  C 806.68 6890.5  808 6891.82  808 6893.5  C 808 6895.18  806.68 6896.5  805 6896.5  " fill-rule="nonzero" fill="#797979" stroke="none" />
</svg>