<?xml version="1.0" encoding="utf-8"?>
<svg version="1.1" xmlns:xlink="http://www.w3.org/1999/xlink" width="12px" height="12px" viewBox="797 6853.5  12 12" xmlns="http://www.w3.org/2000/svg">
  <path d="M 803 6853.5  C 806.36 6853.5  809 6856.14  809 6859.5  C 809 6862.86  806.36 6865.5  803 6865.5  C 799.64 6865.5  797 6862.86  797 6859.5  C 797 6856.14  799.64 6853.5  803 6853.5  Z " fill-rule="nonzero" fill="#f0f0f0" stroke="none" />
  <path d="M 803 6854  C 806.08 6854  808.5 6856.42  808.5 6859.5  C 808.5 6862.58  806.08 6865  803 6865  C 799.92 6865  797.5 6862.58  797.5 6859.5  C 797.5 6856.42  799.92 6854  803 6854  Z " stroke-width="1" stroke="#797979" fill="none" />
  <path d="M 803 6862.5  C 801.32 6862.5  800 6861.18  800 6859.5  C 800 6857.82  801.32 6856.5  803 6856.5  C 804.68 6856.5  806 6857.82  806 6859.5  C 806 6861.18  804.68 6862.5  803 6862.5  " fill-rule="nonzero" fill="#797979" stroke="none" />
</svg>