<?xml version="1.0" encoding="utf-8"?>
<svg version="1.1" xmlns:xlink="http://www.w3.org/1999/xlink" width="12px" height="12px" viewBox="844 6853.5  12 12" xmlns="http://www.w3.org/2000/svg">
  <path d="M 850 6853.5  C 853.36 6853.5  856 6856.14  856 6859.5  C 856 6862.86  853.36 6865.5  850 6865.5  C 846.64 6865.5  844 6862.86  844 6859.5  C 844 6856.14  846.64 6853.5  850 6853.5  Z " fill-rule="nonzero" fill="#ffffff" stroke="none" />
  <path d="M 850 6854  C 853.08 6854  855.5 6856.42  855.5 6859.5  C 855.5 6862.58  853.08 6865  850 6865  C 846.92 6865  844.5 6862.58  844.5 6859.5  C 844.5 6856.42  846.92 6854  850 6854  Z " stroke-width="1" stroke="#797979" fill="none" />
  <path d="M 850 6862.5  C 848.32 6862.5  847 6861.18  847 6859.5  C 847 6857.82  848.32 6856.5  850 6856.5  C 851.68 6856.5  853 6857.82  853 6859.5  C 853 6861.18  851.68 6862.5  850 6862.5  " fill-rule="nonzero" fill="#797979" stroke="none" />
</svg>