<?xml version="1.0" encoding="utf-8"?>
<svg version="1.1" xmlns:xlink="http://www.w3.org/1999/xlink" width="12px" height="12px" viewBox="443 6851  12 12" xmlns="http://www.w3.org/2000/svg">
  <path d="M 443.5 6853  A 1.5 1.5 0 0 1 445 6851.5 L 453 6851.5  A 1.5 1.5 0 0 1 454.5 6853 L 454.5 6861  A 1.5 1.5 0 0 1 453 6862.5 L 445 6862.5  A 1.5 1.5 0 0 1 443.5 6861 L 443.5 6853  Z " fill-rule="nonzero" fill="#ffffff" stroke="none" />
  <path d="M 443.5 6853  A 1.5 1.5 0 0 1 445 6851.5 L 453 6851.5  A 1.5 1.5 0 0 1 454.5 6853 L 454.5 6861  A 1.5 1.5 0 0 1 453 6862.5 L 445 6862.5  A 1.5 1.5 0 0 1 443.5 6861 L 443.5 6853  Z " stroke-width="1" stroke="#797979" fill="none" />
  <path d="M 445.571428571429 6857  L 448.142857142857 6859.57142857143  " stroke-width="2.57142857142857" stroke="#797979" fill="none" />
  <path d="M 448.142857142857 6859.57142857143  L 452.428571428571 6853.57142857143  " stroke-width="2.57142857142857" stroke="#797979" fill="none" />
</svg>