<?xml version="1.0" encoding="utf-8"?>
<svg version="1.1" xmlns:xlink="http://www.w3.org/1999/xlink" width="12px" height="12px" viewBox="846 7019.5  12 12" xmlns="http://www.w3.org/2000/svg">
  <path d="M 852 7019.5  C 855.36 7019.5  858 7022.14  858 7025.5  C 858 7028.86  855.36 7031.5  852 7031.5  C 848.64 7031.5  846 7028.86  846 7025.5  C 846 7022.14  848.64 7019.5  852 7019.5  Z " fill-rule="nonzero" fill="#ffffff" stroke="none" />
  <path d="M 852 7020  C 855.08 7020  857.5 7022.42  857.5 7025.5  C 857.5 7028.58  855.08 7031  852 7031  C 848.92 7031  846.5 7028.58  846.5 7025.5  C 846.5 7022.42  848.92 7020  852 7020  Z " stroke-width="1" stroke="#797979" fill="none" />
  <path d="M 852 7028.5  C 850.32 7028.5  849 7027.18  849 7025.5  C 849 7023.82  850.32 7022.5  852 7022.5  C 853.68 7022.5  855 7023.82  855 7025.5  C 855 7027.18  853.68 7028.5  852 7028.5  " fill-rule="nonzero" fill="#797979" stroke="none" />
</svg>