<?xml version="1.0" encoding="utf-8"?>
<svg version="1.1" xmlns:xlink="http://www.w3.org/1999/xlink" width="12px" height="12px" viewBox="846 6979.5  12 12" xmlns="http://www.w3.org/2000/svg">
  <path d="M 852 6979.5  C 855.36 6979.5  858 6982.14  858 6985.5  C 858 6988.86  855.36 6991.5  852 6991.5  C 848.64 6991.5  846 6988.86  846 6985.5  C 846 6982.14  848.64 6979.5  852 6979.5  Z " fill-rule="nonzero" fill="#f0f0f0" stroke="none" />
  <path d="M 852 6980  C 855.08 6980  857.5 6982.42  857.5 6985.5  C 857.5 6988.58  855.08 6991  852 6991  C 848.92 6991  846.5 6988.58  846.5 6985.5  C 846.5 6982.42  848.92 6980  852 6980  Z " stroke-width="1" stroke="#797979" fill="none" />
  <path d="M 852 6988.5  C 850.32 6988.5  849 6987.18  849 6985.5  C 849 6983.82  850.32 6982.5  852 6982.5  C 853.68 6982.5  855 6983.82  855 6985.5  C 855 6987.18  853.68 6988.5  852 6988.5  " fill-rule="nonzero" fill="#797979" stroke="none" />
</svg>