<?xml version="1.0" encoding="utf-8"?>
<svg version="1.1" xmlns:xlink="http://www.w3.org/1999/xlink" width="12px" height="12px" viewBox="446 7062  12 12" xmlns="http://www.w3.org/2000/svg">
  <path d="M 446.5 7064  A 1.5 1.5 0 0 1 448 7062.5 L 456 7062.5  A 1.5 1.5 0 0 1 457.5 7064 L 457.5 7072  A 1.5 1.5 0 0 1 456 7073.5 L 448 7073.5  A 1.5 1.5 0 0 1 446.5 7072 L 446.5 7064  Z " fill-rule="nonzero" fill="#ffffff" stroke="none" />
  <path d="M 446.5 7064  A 1.5 1.5 0 0 1 448 7062.5 L 456 7062.5  A 1.5 1.5 0 0 1 457.5 7064 L 457.5 7072  A 1.5 1.5 0 0 1 456 7073.5 L 448 7073.5  A 1.5 1.5 0 0 1 446.5 7072 L 446.5 7064  Z " stroke-width="1" stroke="#797979" fill="none" />
  <path d="M 448.571428571429 7068  L 451.142857142857 7070.57142857143  " stroke-width="2.57142857142857" stroke="#797979" fill="none" />
  <path d="M 451.142857142857 7070.57142857143  L 455.428571428571 7064.57142857143  " stroke-width="2.57142857142857" stroke="#797979" fill="none" />
</svg>