<?xml version="1.0" encoding="utf-8"?>
<svg version="1.1" xmlns:xlink="http://www.w3.org/1999/xlink" width="12px" height="12px" viewBox="799 7103.5  12 12" xmlns="http://www.w3.org/2000/svg">
  <path d="M 805 7103.5  C 808.36 7103.5  811 7106.14  811 7109.5  C 811 7112.86  808.36 7115.5  805 7115.5  C 801.64 7115.5  799 7112.86  799 7109.5  C 799 7106.14  801.64 7103.5  805 7103.5  Z " fill-rule="nonzero" fill="#ffffff" stroke="none" />
  <path d="M 805 7104  C 808.08 7104  810.5 7106.42  810.5 7109.5  C 810.5 7112.58  808.08 7115  805 7115  C 801.92 7115  799.5 7112.58  799.5 7109.5  C 799.5 7106.42  801.92 7104  805 7104  Z " stroke-width="1" stroke="#797979" fill="none" />
  <path d="M 805 7112.5  C 803.32 7112.5  802 7111.18  802 7109.5  C 802 7107.82  803.32 7106.5  805 7106.5  C 806.68 7106.5  808 7107.82  808 7109.5  C 808 7111.18  806.68 7112.5  805 7112.5  " fill-rule="nonzero" fill="#797979" stroke="none" />
</svg>