<?xml version="1.0" encoding="utf-8"?>
<svg version="1.1" xmlns:xlink="http://www.w3.org/1999/xlink" width="12px" height="12px" viewBox="845 7064.5  12 12" xmlns="http://www.w3.org/2000/svg">
  <path d="M 851 7064.5  C 854.36 7064.5  857 7067.14  857 7070.5  C 857 7073.86  854.36 7076.5  851 7076.5  C 847.64 7076.5  845 7073.86  845 7070.5  C 845 7067.14  847.64 7064.5  851 7064.5  Z " fill-rule="nonzero" fill="#ffffff" stroke="none" />
  <path d="M 851 7065  C 854.08 7065  856.5 7067.42  856.5 7070.5  C 856.5 7073.58  854.08 7076  851 7076  C 847.92 7076  845.5 7073.58  845.5 7070.5  C 845.5 7067.42  847.92 7065  851 7065  Z " stroke-width="1" stroke="#797979" fill="none" />
  <path d="M 851 7073.5  C 849.32 7073.5  848 7072.18  848 7070.5  C 848 7068.82  849.32 7067.5  851 7067.5  C 852.68 7067.5  854 7068.82  854 7070.5  C 854 7072.18  852.68 7073.5  851 7073.5  " fill-rule="nonzero" fill="#797979" stroke="none" />
</svg>