<?xml version="1.0" encoding="utf-8"?>
<svg version="1.1" xmlns:xlink="http://www.w3.org/1999/xlink" width="12px" height="12px" viewBox="846 7226.5  12 12" xmlns="http://www.w3.org/2000/svg">
  <path d="M 852 7226.5  C 855.36 7226.5  858 7229.14  858 7232.5  C 858 7235.86  855.36 7238.5  852 7238.5  C 848.64 7238.5  846 7235.86  846 7232.5  C 846 7229.14  848.64 7226.5  852 7226.5  Z " fill-rule="nonzero" fill="#f0f0f0" stroke="none" />
  <path d="M 852 7227  C 855.08 7227  857.5 7229.42  857.5 7232.5  C 857.5 7235.58  855.08 7238  852 7238  C 848.92 7238  846.5 7235.58  846.5 7232.5  C 846.5 7229.42  848.92 7227  852 7227  Z " stroke-width="1" stroke="#797979" fill="none" />
  <path d="M 852 7235.5  C 850.32 7235.5  849 7234.18  849 7232.5  C 849 7230.82  850.32 7229.5  852 7229.5  C 853.68 7229.5  855 7230.82  855 7232.5  C 855 7234.18  853.68 7235.5  852 7235.5  " fill-rule="nonzero" fill="#797979" stroke="none" />
</svg>