<?xml version="1.0" encoding="utf-8"?>
<svg version="1.1" xmlns:xlink="http://www.w3.org/1999/xlink" width="12px" height="12px" viewBox="446 7146  12 12" xmlns="http://www.w3.org/2000/svg">
  <path d="M 446.5 7148  A 1.5 1.5 0 0 1 448 7146.5 L 456 7146.5  A 1.5 1.5 0 0 1 457.5 7148 L 457.5 7156  A 1.5 1.5 0 0 1 456 7157.5 L 448 7157.5  A 1.5 1.5 0 0 1 446.5 7156 L 446.5 7148  Z " fill-rule="nonzero" fill="#ffffff" stroke="none" />
  <path d="M 446.5 7148  A 1.5 1.5 0 0 1 448 7146.5 L 456 7146.5  A 1.5 1.5 0 0 1 457.5 7148 L 457.5 7156  A 1.5 1.5 0 0 1 456 7157.5 L 448 7157.5  A 1.5 1.5 0 0 1 446.5 7156 L 446.5 7148  Z " stroke-width="1" stroke="#797979" fill="none" />
  <path d="M 448.571428571429 7152  L 451.142857142857 7154.57142857143  " stroke-width="2.57142857142857" stroke="#797979" fill="none" />
  <path d="M 451.142857142857 7154.57142857143  L 455.428571428571 7148.57142857143  " stroke-width="2.57142857142857" stroke="#797979" fill="none" />
</svg>