<?xml version="1.0" encoding="utf-8"?>
<svg version="1.1" xmlns:xlink="http://www.w3.org/1999/xlink" width="12px" height="12px" viewBox="799 7226.5  12 12" xmlns="http://www.w3.org/2000/svg">
  <path d="M 805 7226.5  C 808.36 7226.5  811 7229.14  811 7232.5  C 811 7235.86  808.36 7238.5  805 7238.5  C 801.64 7238.5  799 7235.86  799 7232.5  C 799 7229.14  801.64 7226.5  805 7226.5  Z " fill-rule="nonzero" fill="#ffffff" stroke="none" />
  <path d="M 805 7227  C 808.08 7227  810.5 7229.42  810.5 7232.5  C 810.5 7235.58  808.08 7238  805 7238  C 801.92 7238  799.5 7235.58  799.5 7232.5  C 799.5 7229.42  801.92 7227  805 7227  Z " stroke-width="1" stroke="#797979" fill="none" />
  <path d="M 805 7235.5  C 803.32 7235.5  802 7234.18  802 7232.5  C 802 7230.82  803.32 7229.5  805 7229.5  C 806.68 7229.5  808 7230.82  808 7232.5  C 808 7234.18  806.68 7235.5  805 7235.5  " fill-rule="nonzero" fill="#797979" stroke="none" />
</svg>