<?xml version="1.0" encoding="utf-8"?>
<svg version="1.1" xmlns:xlink="http://www.w3.org/1999/xlink" width="12px" height="12px" viewBox="798 7148.5  12 12" xmlns="http://www.w3.org/2000/svg">
  <path d="M 804 7148.5  C 807.36 7148.5  810 7151.14  810 7154.5  C 810 7157.86  807.36 7160.5  804 7160.5  C 800.64 7160.5  798 7157.86  798 7154.5  C 798 7151.14  800.64 7148.5  804 7148.5  Z " fill-rule="nonzero" fill="#ffffff" stroke="none" />
  <path d="M 804 7149  C 807.08 7149  809.5 7151.42  809.5 7154.5  C 809.5 7157.58  807.08 7160  804 7160  C 800.92 7160  798.5 7157.58  798.5 7154.5  C 798.5 7151.42  800.92 7149  804 7149  Z " stroke-width="1" stroke="#797979" fill="none" />
  <path d="M 804 7157.5  C 802.32 7157.5  801 7156.18  801 7154.5  C 801 7152.82  802.32 7151.5  804 7151.5  C 805.68 7151.5  807 7152.82  807 7154.5  C 807 7156.18  805.68 7157.5  804 7157.5  " fill-rule="nonzero" fill="#797979" stroke="none" />
</svg>