<?xml version="1.0" encoding="utf-8"?>
<svg version="1.1" xmlns:xlink="http://www.w3.org/1999/xlink" width="12px" height="12px" viewBox="443 7190  12 12" xmlns="http://www.w3.org/2000/svg">
  <path d="M 443.5 7192  A 1.5 1.5 0 0 1 445 7190.5 L 453 7190.5  A 1.5 1.5 0 0 1 454.5 7192 L 454.5 7200  A 1.5 1.5 0 0 1 453 7201.5 L 445 7201.5  A 1.5 1.5 0 0 1 443.5 7200 L 443.5 7192  Z " fill-rule="nonzero" fill="#f0f0f0" stroke="none" />
  <path d="M 443.5 7192  A 1.5 1.5 0 0 1 445 7190.5 L 453 7190.5  A 1.5 1.5 0 0 1 454.5 7192 L 454.5 7200  A 1.5 1.5 0 0 1 453 7201.5 L 445 7201.5  A 1.5 1.5 0 0 1 443.5 7200 L 443.5 7192  Z " stroke-width="1" stroke="#797979" fill="none" />
</svg>