<?xml version="1.0" encoding="utf-8"?>
<svg version="1.1" xmlns:xlink="http://www.w3.org/1999/xlink" width="12px" height="12px" viewBox="798 7271.5  12 12" xmlns="http://www.w3.org/2000/svg">
  <path d="M 804 7271.5  C 807.36 7271.5  810 7274.14  810 7277.5  C 810 7280.86  807.36 7283.5  804 7283.5  C 800.64 7283.5  798 7280.86  798 7277.5  C 798 7274.14  800.64 7271.5  804 7271.5  Z " fill-rule="nonzero" fill="#ffffff" stroke="none" />
  <path d="M 804 7272  C 807.08 7272  809.5 7274.42  809.5 7277.5  C 809.5 7280.58  807.08 7283  804 7283  C 800.92 7283  798.5 7280.58  798.5 7277.5  C 798.5 7274.42  800.92 7272  804 7272  Z " stroke-width="1" stroke="#797979" fill="none" />
  <path d="M 804 7280.5  C 802.32 7280.5  801 7279.18  801 7277.5  C 801 7275.82  802.32 7274.5  804 7274.5  C 805.68 7274.5  807 7275.82  807 7277.5  C 807 7279.18  805.68 7280.5  804 7280.5  " fill-rule="nonzero" fill="#797979" stroke="none" />
</svg>