<?xml version="1.0" encoding="utf-8"?>
<svg version="1.1" xmlns:xlink="http://www.w3.org/1999/xlink" width="12px" height="12px" viewBox="845 7271.5  12 12" xmlns="http://www.w3.org/2000/svg">
  <path d="M 851 7271.5  C 854.36 7271.5  857 7274.14  857 7277.5  C 857 7280.86  854.36 7283.5  851 7283.5  C 847.64 7283.5  845 7280.86  845 7277.5  C 845 7274.14  847.64 7271.5  851 7271.5  Z " fill-rule="nonzero" fill="#ffffff" stroke="none" />
  <path d="M 851 7272  C 854.08 7272  856.5 7274.42  856.5 7277.5  C 856.5 7280.58  854.08 7283  851 7283  C 847.92 7283  845.5 7280.58  845.5 7277.5  C 845.5 7274.42  847.92 7272  851 7272  Z " stroke-width="1" stroke="#797979" fill="none" />
  <path d="M 851 7280.5  C 849.32 7280.5  848 7279.18  848 7277.5  C 848 7275.82  849.32 7274.5  851 7274.5  C 852.68 7274.5  854 7275.82  854 7277.5  C 854 7279.18  852.68 7280.5  851 7280.5  " fill-rule="nonzero" fill="#797979" stroke="none" />
</svg>