<?xml version="1.0" encoding="utf-8"?>
<svg version="1.1" xmlns:xlink="http://www.w3.org/1999/xlink" width="12px" height="12px" viewBox="799 7316.5  12 12" xmlns="http://www.w3.org/2000/svg">
  <path d="M 805 7316.5  C 808.36 7316.5  811 7319.14  811 7322.5  C 811 7325.86  808.36 7328.5  805 7328.5  C 801.64 7328.5  799 7325.86  799 7322.5  C 799 7319.14  801.64 7316.5  805 7316.5  Z " fill-rule="nonzero" fill="#f0f0f0" stroke="none" />
  <path d="M 805 7317  C 808.08 7317  810.5 7319.42  810.5 7322.5  C 810.5 7325.58  808.08 7328  805 7328  C 801.92 7328  799.5 7325.58  799.5 7322.5  C 799.5 7319.42  801.92 7317  805 7317  Z " stroke-width="1" stroke="#797979" fill="none" />
  <path d="M 805 7325.5  C 803.32 7325.5  802 7324.18  802 7322.5  C 802 7320.82  803.32 7319.5  805 7319.5  C 806.68 7319.5  808 7320.82  808 7322.5  C 808 7324.18  806.68 7325.5  805 7325.5  " fill-rule="nonzero" fill="#797979" stroke="none" />
</svg>