<?xml version="1.0" encoding="utf-8"?>
<svg version="1.1" xmlns:xlink="http://www.w3.org/1999/xlink" width="12px" height="12px" viewBox="845 7401.5  12 12" xmlns="http://www.w3.org/2000/svg">
  <path d="M 851 7401.5  C 854.36 7401.5  857 7404.14  857 7407.5  C 857 7410.86  854.36 7413.5  851 7413.5  C 847.64 7413.5  845 7410.86  845 7407.5  C 845 7404.14  847.64 7401.5  851 7401.5  Z " fill-rule="nonzero" fill="#ffffff" stroke="none" />
  <path d="M 851 7402  C 854.08 7402  856.5 7404.42  856.5 7407.5  C 856.5 7410.58  854.08 7413  851 7413  C 847.92 7413  845.5 7410.58  845.5 7407.5  C 845.5 7404.42  847.92 7402  851 7402  Z " stroke-width="1" stroke="#797979" fill="none" />
  <path d="M 851 7410.5  C 849.32 7410.5  848 7409.18  848 7407.5  C 848 7405.82  849.32 7404.5  851 7404.5  C 852.68 7404.5  854 7405.82  854 7407.5  C 854 7409.18  852.68 7410.5  851 7410.5  " fill-rule="nonzero" fill="#797979" stroke="none" />
</svg>