<?xml version="1.0" encoding="utf-8"?>
<svg version="1.1" xmlns:xlink="http://www.w3.org/1999/xlink" width="12px" height="12px" viewBox="846 7356.5  12 12" xmlns="http://www.w3.org/2000/svg">
  <path d="M 852 7356.5  C 855.36 7356.5  858 7359.14  858 7362.5  C 858 7365.86  855.36 7368.5  852 7368.5  C 848.64 7368.5  846 7365.86  846 7362.5  C 846 7359.14  848.64 7356.5  852 7356.5  Z " fill-rule="nonzero" fill="#ffffff" stroke="none" />
  <path d="M 852 7357  C 855.08 7357  857.5 7359.42  857.5 7362.5  C 857.5 7365.58  855.08 7368  852 7368  C 848.92 7368  846.5 7365.58  846.5 7362.5  C 846.5 7359.42  848.92 7357  852 7357  Z " stroke-width="1" stroke="#797979" fill="none" />
  <path d="M 852 7365.5  C 850.32 7365.5  849 7364.18  849 7362.5  C 849 7360.82  850.32 7359.5  852 7359.5  C 853.68 7359.5  855 7360.82  855 7362.5  C 855 7364.18  853.68 7365.5  852 7365.5  " fill-rule="nonzero" fill="#797979" stroke="none" />
</svg>