<?xml version="1.0" encoding="utf-8"?>
<svg version="1.1" xmlns:xlink="http://www.w3.org/1999/xlink" width="12px" height="12px" viewBox="799 7440.5  12 12" xmlns="http://www.w3.org/2000/svg">
  <path d="M 805 7440.5  C 808.36 7440.5  811 7443.14  811 7446.5  C 811 7449.86  808.36 7452.5  805 7452.5  C 801.64 7452.5  799 7449.86  799 7446.5  C 799 7443.14  801.64 7440.5  805 7440.5  Z " fill-rule="nonzero" fill="#ffffff" stroke="none" />
  <path d="M 805 7441  C 808.08 7441  810.5 7443.42  810.5 7446.5  C 810.5 7449.58  808.08 7452  805 7452  C 801.92 7452  799.5 7449.58  799.5 7446.5  C 799.5 7443.42  801.92 7441  805 7441  Z " stroke-width="1" stroke="#797979" fill="none" />
  <path d="M 805 7449.5  C 803.32 7449.5  802 7448.18  802 7446.5  C 802 7444.82  803.32 7443.5  805 7443.5  C 806.68 7443.5  808 7444.82  808 7446.5  C 808 7448.18  806.68 7449.5  805 7449.5  " fill-rule="nonzero" fill="#797979" stroke="none" />
</svg>