<?xml version="1.0" encoding="utf-8"?>
<svg version="1.1" xmlns:xlink="http://www.w3.org/1999/xlink" width="12px" height="12px" viewBox="845 7485.5  12 12" xmlns="http://www.w3.org/2000/svg">
  <path d="M 851 7485.5  C 854.36 7485.5  857 7488.14  857 7491.5  C 857 7494.86  854.36 7497.5  851 7497.5  C 847.64 7497.5  845 7494.86  845 7491.5  C 845 7488.14  847.64 7485.5  851 7485.5  Z " fill-rule="nonzero" fill="#f0f0f0" stroke="none" />
  <path d="M 851 7486  C 854.08 7486  856.5 7488.42  856.5 7491.5  C 856.5 7494.58  854.08 7497  851 7497  C 847.92 7497  845.5 7494.58  845.5 7491.5  C 845.5 7488.42  847.92 7486  851 7486  Z " stroke-width="1" stroke="#797979" fill="none" />
  <path d="M 851 7494.5  C 849.32 7494.5  848 7493.18  848 7491.5  C 848 7489.82  849.32 7488.5  851 7488.5  C 852.68 7488.5  854 7489.82  854 7491.5  C 854 7493.18  852.68 7494.5  851 7494.5  " fill-rule="nonzero" fill="#797979" stroke="none" />
</svg>