<?xml version="1.0" encoding="utf-8"?>
<svg version="1.1" xmlns:xlink="http://www.w3.org/1999/xlink" width="12px" height="12px" viewBox="799 7563.5  12 12" xmlns="http://www.w3.org/2000/svg">
  <path d="M 805 7563.5  C 808.36 7563.5  811 7566.14  811 7569.5  C 811 7572.86  808.36 7575.5  805 7575.5  C 801.64 7575.5  799 7572.86  799 7569.5  C 799 7566.14  801.64 7563.5  805 7563.5  Z " fill-rule="nonzero" fill="#ffffff" stroke="none" />
  <path d="M 805 7564  C 808.08 7564  810.5 7566.42  810.5 7569.5  C 810.5 7572.58  808.08 7575  805 7575  C 801.92 7575  799.5 7572.58  799.5 7569.5  C 799.5 7566.42  801.92 7564  805 7564  Z " stroke-width="1" stroke="#797979" fill="none" />
  <path d="M 805 7572.5  C 803.32 7572.5  802 7571.18  802 7569.5  C 802 7567.82  803.32 7566.5  805 7566.5  C 806.68 7566.5  808 7567.82  808 7569.5  C 808 7571.18  806.68 7572.5  805 7572.5  " fill-rule="nonzero" fill="#797979" stroke="none" />
</svg>