<?xml version="1.0" encoding="utf-8"?>
<svg version="1.1" xmlns:xlink="http://www.w3.org/1999/xlink" width="12px" height="12px" viewBox="846 7440.5  12 12" xmlns="http://www.w3.org/2000/svg">
  <path d="M 852 7440.5  C 855.36 7440.5  858 7443.14  858 7446.5  C 858 7449.86  855.36 7452.5  852 7452.5  C 848.64 7452.5  846 7449.86  846 7446.5  C 846 7443.14  848.64 7440.5  852 7440.5  Z " fill-rule="nonzero" fill="#ffffff" stroke="none" />
  <path d="M 852 7441  C 855.08 7441  857.5 7443.42  857.5 7446.5  C 857.5 7449.58  855.08 7452  852 7452  C 848.92 7452  846.5 7449.58  846.5 7446.5  C 846.5 7443.42  848.92 7441  852 7441  Z " stroke-width="1" stroke="#797979" fill="none" />
  <path d="M 852 7449.5  C 850.32 7449.5  849 7448.18  849 7446.5  C 849 7444.82  850.32 7443.5  852 7443.5  C 853.68 7443.5  855 7444.82  855 7446.5  C 855 7448.18  853.68 7449.5  852 7449.5  " fill-rule="nonzero" fill="#797979" stroke="none" />
</svg>