<?xml version="1.0" encoding="utf-8"?>
<svg version="1.1" xmlns:xlink="http://www.w3.org/1999/xlink" width="12px" height="12px" viewBox="445 7438  12 12" xmlns="http://www.w3.org/2000/svg">
  <path d="M 445.5 7440  A 1.5 1.5 0 0 1 447 7438.5 L 455 7438.5  A 1.5 1.5 0 0 1 456.5 7440 L 456.5 7448  A 1.5 1.5 0 0 1 455 7449.5 L 447 7449.5  A 1.5 1.5 0 0 1 445.5 7448 L 445.5 7440  Z " fill-rule="nonzero" fill="#f0f0f0" stroke="none" />
  <path d="M 445.5 7440  A 1.5 1.5 0 0 1 447 7438.5 L 455 7438.5  A 1.5 1.5 0 0 1 456.5 7440 L 456.5 7448  A 1.5 1.5 0 0 1 455 7449.5 L 447 7449.5  A 1.5 1.5 0 0 1 445.5 7448 L 445.5 7440  Z " stroke-width="1" stroke="#797979" fill="none" />
</svg>