<?xml version="1.0" encoding="utf-8"?>
<svg version="1.1" xmlns:xlink="http://www.w3.org/1999/xlink" width="12px" height="12px" viewBox="797 7529.5  12 12" xmlns="http://www.w3.org/2000/svg">
  <path d="M 803 7529.5  C 806.36 7529.5  809 7532.14  809 7535.5  C 809 7538.86  806.36 7541.5  803 7541.5  C 799.64 7541.5  797 7538.86  797 7535.5  C 797 7532.14  799.64 7529.5  803 7529.5  Z " fill-rule="nonzero" fill="#f0f0f0" stroke="none" />
  <path d="M 803 7530  C 806.08 7530  808.5 7532.42  808.5 7535.5  C 808.5 7538.58  806.08 7541  803 7541  C 799.92 7541  797.5 7538.58  797.5 7535.5  C 797.5 7532.42  799.92 7530  803 7530  Z " stroke-width="1" stroke="#797979" fill="none" />
  <path d="M 803 7538.5  C 801.32 7538.5  800 7537.18  800 7535.5  C 800 7533.82  801.32 7532.5  803 7532.5  C 804.68 7532.5  806 7533.82  806 7535.5  C 806 7537.18  804.68 7538.5  803 7538.5  " fill-rule="nonzero" fill="#797979" stroke="none" />
</svg>