<?xml version="1.0" encoding="utf-8"?>
<svg version="1.1" xmlns:xlink="http://www.w3.org/1999/xlink" width="12px" height="12px" viewBox="844 7529.5  12 12" xmlns="http://www.w3.org/2000/svg">
  <path d="M 850 7529.5  C 853.36 7529.5  856 7532.14  856 7535.5  C 856 7538.86  853.36 7541.5  850 7541.5  C 846.64 7541.5  844 7538.86  844 7535.5  C 844 7532.14  846.64 7529.5  850 7529.5  Z " fill-rule="nonzero" fill="#f0f0f0" stroke="none" />
  <path d="M 850 7530  C 853.08 7530  855.5 7532.42  855.5 7535.5  C 855.5 7538.58  853.08 7541  850 7541  C 846.92 7541  844.5 7538.58  844.5 7535.5  C 844.5 7532.42  846.92 7530  850 7530  Z " stroke-width="1" stroke="#797979" fill="none" />
  <path d="M 850 7538.5  C 848.32 7538.5  847 7537.18  847 7535.5  C 847 7533.82  848.32 7532.5  850 7532.5  C 851.68 7532.5  853 7533.82  853 7535.5  C 853 7537.18  851.68 7538.5  850 7538.5  " fill-rule="nonzero" fill="#797979" stroke="none" />
</svg>