<?xml version="1.0" encoding="utf-8"?>
<svg version="1.1" xmlns:xlink="http://www.w3.org/1999/xlink" width="12px" height="12px" viewBox="865 1660  12 12" xmlns="http://www.w3.org/2000/svg">
  <path d="M 871 1660  C 874.36 1660  877 1662.64  877 1666  C 877 1669.36  874.36 1672  871 1672  C 867.64 1672  865 1669.36  865 1666  C 865 1662.64  867.64 1660  871 1660  Z " fill-rule="nonzero" fill="#f0f0f0" stroke="none" />
  <path d="M 871 1660.5  C 874.08 1660.5  876.5 1662.92  876.5 1666  C 876.5 1669.08  874.08 1671.5  871 1671.5  C 867.92 1671.5  865.5 1669.08  865.5 1666  C 865.5 1662.92  867.92 1660.5  871 1660.5  Z " stroke-width="1" stroke="#797979" fill="none" />
  <path d="M 871 1669  C 869.32 1669  868 1667.68  868 1666  C 868 1664.32  869.32 1663  871 1663  C 872.68 1663  874 1664.32  874 1666  C 874 1667.68  872.68 1669  871 1669  " fill-rule="nonzero" fill="#797979" stroke="none" />
</svg>