<?xml version="1.0" encoding="utf-8"?>
<svg version="1.1" xmlns:xlink="http://www.w3.org/1999/xlink" width="12px" height="12px" viewBox="797 1660  12 12" xmlns="http://www.w3.org/2000/svg">
  <path d="M 803 1660  C 806.36 1660  809 1662.64  809 1666  C 809 1669.36  806.36 1672  803 1672  C 799.64 1672  797 1669.36  797 1666  C 797 1662.64  799.64 1660  803 1660  Z " fill-rule="nonzero" fill="#f0f0f0" stroke="none" />
  <path d="M 803 1660.5  C 806.08 1660.5  808.5 1662.92  808.5 1666  C 808.5 1669.08  806.08 1671.5  803 1671.5  C 799.92 1671.5  797.5 1669.08  797.5 1666  C 797.5 1662.92  799.92 1660.5  803 1660.5  Z " stroke-width="1" stroke="#797979" fill="none" />
  <path d="M 803 1669  C 801.32 1669  800 1667.68  800 1666  C 800 1664.32  801.32 1663  803 1663  C 804.68 1663  806 1664.32  806 1666  C 806 1667.68  804.68 1669  803 1669  " fill-rule="nonzero" fill="#797979" stroke="none" />
</svg>