<?xml version="1.0" encoding="utf-8"?>
<svg version="1.1" xmlns:xlink="http://www.w3.org/1999/xlink" width="12px" height="12px" viewBox="445 1656  12 12" xmlns="http://www.w3.org/2000/svg">
  <path d="M 445.5 1658  A 1.5 1.5 0 0 1 447 1656.5 L 455 1656.5  A 1.5 1.5 0 0 1 456.5 1658 L 456.5 1666  A 1.5 1.5 0 0 1 455 1667.5 L 447 1667.5  A 1.5 1.5 0 0 1 445.5 1666 L 445.5 1658  Z " fill-rule="nonzero" fill="#ffffff" stroke="none" />
  <path d="M 445.5 1658  A 1.5 1.5 0 0 1 447 1656.5 L 455 1656.5  A 1.5 1.5 0 0 1 456.5 1658 L 456.5 1666  A 1.5 1.5 0 0 1 455 1667.5 L 447 1667.5  A 1.5 1.5 0 0 1 445.5 1666 L 445.5 1658  Z " stroke-width="1" stroke="#797979" fill="none" />
</svg>