<?xml version="1.0" encoding="utf-8"?>
<svg version="1.1" xmlns:xlink="http://www.w3.org/1999/xlink" width="12px" height="12px" viewBox="447 1782  12 12" xmlns="http://www.w3.org/2000/svg">
  <path d="M 447.5 1784  A 1.5 1.5 0 0 1 449 1782.5 L 457 1782.5  A 1.5 1.5 0 0 1 458.5 1784 L 458.5 1792  A 1.5 1.5 0 0 1 457 1793.5 L 449 1793.5  A 1.5 1.5 0 0 1 447.5 1792 L 447.5 1784  Z " fill-rule="nonzero" fill="#f0f0f0" stroke="none" />
  <path d="M 447.5 1784  A 1.5 1.5 0 0 1 449 1782.5 L 457 1782.5  A 1.5 1.5 0 0 1 458.5 1784 L 458.5 1792  A 1.5 1.5 0 0 1 457 1793.5 L 449 1793.5  A 1.5 1.5 0 0 1 447.5 1792 L 447.5 1784  Z " stroke-width="1" stroke="#797979" fill="none" />
  <path d="M 449.571428571429 1788  L 452.142857142857 1790.57142857143  " stroke-width="2.57142857142857" stroke="#797979" fill="none" />
  <path d="M 452.142857142857 1790.57142857143  L 456.428571428571 1784.57142857143  " stroke-width="2.57142857142857" stroke="#797979" fill="none" />
</svg>