<?xml version="1.0" encoding="utf-8"?>
<svg version="1.1" xmlns:xlink="http://www.w3.org/1999/xlink" width="12px" height="12px" viewBox="848 1784.5  12 12" xmlns="http://www.w3.org/2000/svg">
  <path d="M 854 1784.5  C 857.36 1784.5  860 1787.14  860 1790.5  C 860 1793.86  857.36 1796.5  854 1796.5  C 850.64 1796.5  848 1793.86  848 1790.5  C 848 1787.14  850.64 1784.5  854 1784.5  Z " fill-rule="nonzero" fill="#f0f0f0" stroke="none" />
  <path d="M 854 1785  C 857.08 1785  859.5 1787.42  859.5 1790.5  C 859.5 1793.58  857.08 1796  854 1796  C 850.92 1796  848.5 1793.58  848.5 1790.5  C 848.5 1787.42  850.92 1785  854 1785  Z " stroke-width="1" stroke="#797979" fill="none" />
  <path d="M 854 1793.5  C 852.32 1793.5  851 1792.18  851 1790.5  C 851 1788.82  852.32 1787.5  854 1787.5  C 855.68 1787.5  857 1788.82  857 1790.5  C 857 1792.18  855.68 1793.5  854 1793.5  " fill-rule="nonzero" fill="#797979" stroke="none" />
</svg>