<?xml version="1.0" encoding="utf-8"?>
<svg version="1.1" xmlns:xlink="http://www.w3.org/1999/xlink" width="12px" height="12px" viewBox="847 1871.5  12 12" xmlns="http://www.w3.org/2000/svg">
  <path d="M 853 1871.5  C 856.36 1871.5  859 1874.14  859 1877.5  C 859 1880.86  856.36 1883.5  853 1883.5  C 849.64 1883.5  847 1880.86  847 1877.5  C 847 1874.14  849.64 1871.5  853 1871.5  Z " fill-rule="nonzero" fill="#ffffff" stroke="none" />
  <path d="M 853 1872  C 856.08 1872  858.5 1874.42  858.5 1877.5  C 858.5 1880.58  856.08 1883  853 1883  C 849.92 1883  847.5 1880.58  847.5 1877.5  C 847.5 1874.42  849.92 1872  853 1872  Z " stroke-width="1" stroke="#797979" fill="none" />
  <path d="M 853 1880.5  C 851.32 1880.5  850 1879.18  850 1877.5  C 850 1875.82  851.32 1874.5  853 1874.5  C 854.68 1874.5  856 1875.82  856 1877.5  C 856 1879.18  854.68 1880.5  853 1880.5  " fill-rule="nonzero" fill="#797979" stroke="none" />
</svg>