<?xml version="1.0" encoding="utf-8"?>
<svg version="1.1" xmlns:xlink="http://www.w3.org/1999/xlink" width="12px" height="12px" viewBox="800 1871.5  12 12" xmlns="http://www.w3.org/2000/svg">
  <path d="M 806 1871.5  C 809.36 1871.5  812 1874.14  812 1877.5  C 812 1880.86  809.36 1883.5  806 1883.5  C 802.64 1883.5  800 1880.86  800 1877.5  C 800 1874.14  802.64 1871.5  806 1871.5  Z " fill-rule="nonzero" fill="#ffffff" stroke="none" />
  <path d="M 806 1872  C 809.08 1872  811.5 1874.42  811.5 1877.5  C 811.5 1880.58  809.08 1883  806 1883  C 802.92 1883  800.5 1880.58  800.5 1877.5  C 800.5 1874.42  802.92 1872  806 1872  Z " stroke-width="1" stroke="#797979" fill="none" />
  <path d="M 806 1880.5  C 804.32 1880.5  803 1879.18  803 1877.5  C 803 1875.82  804.32 1874.5  806 1874.5  C 807.68 1874.5  809 1875.82  809 1877.5  C 809 1879.18  807.68 1880.5  806 1880.5  " fill-rule="nonzero" fill="#797979" stroke="none" />
</svg>