<?xml version="1.0" encoding="utf-8"?>
<svg version="1.1" xmlns:xlink="http://www.w3.org/1999/xlink" width="12px" height="12px" viewBox="448 1827  12 12" xmlns="http://www.w3.org/2000/svg">
  <path d="M 448.5 1829  A 1.5 1.5 0 0 1 450 1827.5 L 458 1827.5  A 1.5 1.5 0 0 1 459.5 1829 L 459.5 1837  A 1.5 1.5 0 0 1 458 1838.5 L 450 1838.5  A 1.5 1.5 0 0 1 448.5 1837 L 448.5 1829  Z " fill-rule="nonzero" fill="#f0f0f0" stroke="none" />
  <path d="M 448.5 1829  A 1.5 1.5 0 0 1 450 1827.5 L 458 1827.5  A 1.5 1.5 0 0 1 459.5 1829 L 459.5 1837  A 1.5 1.5 0 0 1 458 1838.5 L 450 1838.5  A 1.5 1.5 0 0 1 448.5 1837 L 448.5 1829  Z " stroke-width="1" stroke="#797979" fill="none" />
</svg>