<?xml version="1.0" encoding="utf-8"?>
<svg version="1.1" xmlns:xlink="http://www.w3.org/1999/xlink" width="12px" height="12px" viewBox="801 1744.5  12 12" xmlns="http://www.w3.org/2000/svg">
  <path d="M 807 1744.5  C 810.36 1744.5  813 1747.14  813 1750.5  C 813 1753.86  810.36 1756.5  807 1756.5  C 803.64 1756.5  801 1753.86  801 1750.5  C 801 1747.14  803.64 1744.5  807 1744.5  Z " fill-rule="nonzero" fill="#ffffff" stroke="none" />
  <path d="M 807 1745  C 810.08 1745  812.5 1747.42  812.5 1750.5  C 812.5 1753.58  810.08 1756  807 1756  C 803.92 1756  801.5 1753.58  801.5 1750.5  C 801.5 1747.42  803.92 1745  807 1745  Z " stroke-width="1" stroke="#797979" fill="none" />
  <path d="M 807 1753.5  C 805.32 1753.5  804 1752.18  804 1750.5  C 804 1748.82  805.32 1747.5  807 1747.5  C 808.68 1747.5  810 1748.82  810 1750.5  C 810 1752.18  808.68 1753.5  807 1753.5  " fill-rule="nonzero" fill="#797979" stroke="none" />
</svg>