<?xml version="1.0" encoding="utf-8"?>
<svg version="1.1" xmlns:xlink="http://www.w3.org/1999/xlink" width="12px" height="12px" viewBox="449 1742  12 12" xmlns="http://www.w3.org/2000/svg">
  <path d="M 449.5 1744  A 1.5 1.5 0 0 1 451 1742.5 L 459 1742.5  A 1.5 1.5 0 0 1 460.5 1744 L 460.5 1752  A 1.5 1.5 0 0 1 459 1753.5 L 451 1753.5  A 1.5 1.5 0 0 1 449.5 1752 L 449.5 1744  Z " fill-rule="nonzero" fill="#ffffff" stroke="none" />
  <path d="M 449.5 1744  A 1.5 1.5 0 0 1 451 1742.5 L 459 1742.5  A 1.5 1.5 0 0 1 460.5 1744 L 460.5 1752  A 1.5 1.5 0 0 1 459 1753.5 L 451 1753.5  A 1.5 1.5 0 0 1 449.5 1752 L 449.5 1744  Z " stroke-width="1" stroke="#797979" fill="none" />
  <path d="M 451.571428571429 1748  L 454.142857142857 1750.57142857143  " stroke-width="2.57142857142857" stroke="#797979" fill="none" />
  <path d="M 454.142857142857 1750.57142857143  L 458.428571428571 1744.57142857143  " stroke-width="2.57142857142857" stroke="#797979" fill="none" />
</svg>