<?xml version="1.0" encoding="utf-8"?>
<svg version="1.1" xmlns:xlink="http://www.w3.org/1999/xlink" width="12px" height="12px" viewBox="847 1533.5  12 12" xmlns="http://www.w3.org/2000/svg">
  <path d="M 853 1533.5  C 856.36 1533.5  859 1536.14  859 1539.5  C 859 1542.86  856.36 1545.5  853 1545.5  C 849.64 1545.5  847 1542.86  847 1539.5  C 847 1536.14  849.64 1533.5  853 1533.5  Z " fill-rule="nonzero" fill="#f0f0f0" stroke="none" />
  <path d="M 853 1534  C 856.08 1534  858.5 1536.42  858.5 1539.5  C 858.5 1542.58  856.08 1545  853 1545  C 849.92 1545  847.5 1542.58  847.5 1539.5  C 847.5 1536.42  849.92 1534  853 1534  Z " stroke-width="1" stroke="#797979" fill="none" />
  <path d="M 853 1542.5  C 851.32 1542.5  850 1541.18  850 1539.5  C 850 1537.82  851.32 1536.5  853 1536.5  C 854.68 1536.5  856 1537.82  856 1539.5  C 856 1541.18  854.68 1542.5  853 1542.5  " fill-rule="nonzero" fill="#797979" stroke="none" />
</svg>