<?xml version="1.0" encoding="utf-8"?>
<svg version="1.1" xmlns:xlink="http://www.w3.org/1999/xlink" width="12px" height="12px" viewBox="848 1744.5  12 12" xmlns="http://www.w3.org/2000/svg">
  <path d="M 854 1744.5  C 857.36 1744.5  860 1747.14  860 1750.5  C 860 1753.86  857.36 1756.5  854 1756.5  C 850.64 1756.5  848 1753.86  848 1750.5  C 848 1747.14  850.64 1744.5  854 1744.5  Z " fill-rule="nonzero" fill="#ffffff" stroke="none" />
  <path d="M 854 1745  C 857.08 1745  859.5 1747.42  859.5 1750.5  C 859.5 1753.58  857.08 1756  854 1756  C 850.92 1756  848.5 1753.58  848.5 1750.5  C 848.5 1747.42  850.92 1745  854 1745  Z " stroke-width="1" stroke="#797979" fill="none" />
  <path d="M 854 1753.5  C 852.32 1753.5  851 1752.18  851 1750.5  C 851 1748.82  852.32 1747.5  854 1747.5  C 855.68 1747.5  857 1748.82  857 1750.5  C 857 1752.18  855.68 1753.5  854 1753.5  " fill-rule="nonzero" fill="#797979" stroke="none" />
</svg>