<?xml version="1.0" encoding="utf-8"?>
<svg version="1.1" xmlns:xlink="http://www.w3.org/1999/xlink" width="12px" height="12px" viewBox="799 1618.5  12 12" xmlns="http://www.w3.org/2000/svg">
  <path d="M 805 1618.5  C 808.36 1618.5  811 1621.14  811 1624.5  C 811 1627.86  808.36 1630.5  805 1630.5  C 801.64 1630.5  799 1627.86  799 1624.5  C 799 1621.14  801.64 1618.5  805 1618.5  Z " fill-rule="nonzero" fill="#f0f0f0" stroke="none" />
  <path d="M 805 1619  C 808.08 1619  810.5 1621.42  810.5 1624.5  C 810.5 1627.58  808.08 1630  805 1630  C 801.92 1630  799.5 1627.58  799.5 1624.5  C 799.5 1621.42  801.92 1619  805 1619  Z " stroke-width="1" stroke="#797979" fill="none" />
  <path d="M 805 1627.5  C 803.32 1627.5  802 1626.18  802 1624.5  C 802 1622.82  803.32 1621.5  805 1621.5  C 806.68 1621.5  808 1622.82  808 1624.5  C 808 1626.18  806.68 1627.5  805 1627.5  " fill-rule="nonzero" fill="#797979" stroke="none" />
</svg>