<?xml version="1.0" encoding="utf-8"?>
<svg version="1.1" xmlns:xlink="http://www.w3.org/1999/xlink" width="12px" height="12px" viewBox="446 1571  12 12" xmlns="http://www.w3.org/2000/svg">
  <path d="M 446.5 1573  A 1.5 1.5 0 0 1 448 1571.5 L 456 1571.5  A 1.5 1.5 0 0 1 457.5 1573 L 457.5 1581  A 1.5 1.5 0 0 1 456 1582.5 L 448 1582.5  A 1.5 1.5 0 0 1 446.5 1581 L 446.5 1573  Z " fill-rule="nonzero" fill="#ffffff" stroke="none" />
  <path d="M 446.5 1573  A 1.5 1.5 0 0 1 448 1571.5 L 456 1571.5  A 1.5 1.5 0 0 1 457.5 1573 L 457.5 1581  A 1.5 1.5 0 0 1 456 1582.5 L 448 1582.5  A 1.5 1.5 0 0 1 446.5 1581 L 446.5 1573  Z " stroke-width="1" stroke="#797979" fill="none" />
</svg>