<?xml version="1.0" encoding="utf-8"?>
<svg version="1.1" xmlns:xlink="http://www.w3.org/1999/xlink" width="12px" height="12px" viewBox="800 1573.5  12 12" xmlns="http://www.w3.org/2000/svg">
  <path d="M 806 1573.5  C 809.36 1573.5  812 1576.14  812 1579.5  C 812 1582.86  809.36 1585.5  806 1585.5  C 802.64 1585.5  800 1582.86  800 1579.5  C 800 1576.14  802.64 1573.5  806 1573.5  Z " fill-rule="nonzero" fill="#f0f0f0" stroke="none" />
  <path d="M 806 1574  C 809.08 1574  811.5 1576.42  811.5 1579.5  C 811.5 1582.58  809.08 1585  806 1585  C 802.92 1585  800.5 1582.58  800.5 1579.5  C 800.5 1576.42  802.92 1574  806 1574  Z " stroke-width="1" stroke="#797979" fill="none" />
  <path d="M 806 1582.5  C 804.32 1582.5  803 1581.18  803 1579.5  C 803 1577.82  804.32 1576.5  806 1576.5  C 807.68 1576.5  809 1577.82  809 1579.5  C 809 1581.18  807.68 1582.5  806 1582.5  " fill-rule="nonzero" fill="#797979" stroke="none" />
</svg>