<?xml version="1.0" encoding="utf-8"?>
<svg version="1.1" xmlns:xlink="http://www.w3.org/1999/xlink" width="12px" height="12px" viewBox="205 2201  12 12" xmlns="http://www.w3.org/2000/svg">
  <path d="M 205.5 2203  A 1.5 1.5 0 0 1 207 2201.5 L 215 2201.5  A 1.5 1.5 0 0 1 216.5 2203 L 216.5 2211  A 1.5 1.5 0 0 1 215 2212.5 L 207 2212.5  A 1.5 1.5 0 0 1 205.5 2211 L 205.5 2203  Z " fill-rule="nonzero" fill="#ffffff" stroke="none" />
  <path d="M 205.5 2203  A 1.5 1.5 0 0 1 207 2201.5 L 215 2201.5  A 1.5 1.5 0 0 1 216.5 2203 L 216.5 2211  A 1.5 1.5 0 0 1 215 2212.5 L 207 2212.5  A 1.5 1.5 0 0 1 205.5 2211 L 205.5 2203  Z " stroke-width="1" stroke="#797979" fill="none" />
  <path d="M 207.571428571429 2207  L 210.142857142857 2209.57142857143  " stroke-width="2.57142857142857" stroke="#797979" fill="none" />
  <path d="M 210.142857142857 2209.57142857143  L 214.428571428571 2203.57142857143  " stroke-width="2.57142857142857" stroke="#797979" fill="none" />
</svg>