<?xml version="1.0" encoding="utf-8"?>
<svg version="1.1" xmlns:xlink="http://www.w3.org/1999/xlink" width="12px" height="12px" viewBox="847 1999.5  12 12" xmlns="http://www.w3.org/2000/svg">
  <path d="M 853 1999.5  C 856.36 1999.5  859 2002.14  859 2005.5  C 859 2008.86  856.36 2011.5  853 2011.5  C 849.64 2011.5  847 2008.86  847 2005.5  C 847 2002.14  849.64 1999.5  853 1999.5  Z " fill-rule="nonzero" fill="#f0f0f0" stroke="none" />
  <path d="M 853 2000  C 856.08 2000  858.5 2002.42  858.5 2005.5  C 858.5 2008.58  856.08 2011  853 2011  C 849.92 2011  847.5 2008.58  847.5 2005.5  C 847.5 2002.42  849.92 2000  853 2000  Z " stroke-width="1" stroke="#797979" fill="none" />
  <path d="M 853 2008.5  C 851.32 2008.5  850 2007.18  850 2005.5  C 850 2003.82  851.32 2002.5  853 2002.5  C 854.68 2002.5  856 2003.82  856 2005.5  C 856 2007.18  854.68 2008.5  853 2008.5  " fill-rule="nonzero" fill="#797979" stroke="none" />
</svg>