<?xml version="1.0" encoding="utf-8"?>
<svg version="1.1" xmlns:xlink="http://www.w3.org/1999/xlink" width="12px" height="12px" viewBox="800 1999.5  12 12" xmlns="http://www.w3.org/2000/svg">
  <path d="M 806 1999.5  C 809.36 1999.5  812 2002.14  812 2005.5  C 812 2008.86  809.36 2011.5  806 2011.5  C 802.64 2011.5  800 2008.86  800 2005.5  C 800 2002.14  802.64 1999.5  806 1999.5  Z " fill-rule="nonzero" fill="#f0f0f0" stroke="none" />
  <path d="M 806 2000  C 809.08 2000  811.5 2002.42  811.5 2005.5  C 811.5 2008.58  809.08 2011  806 2011  C 802.92 2011  800.5 2008.58  800.5 2005.5  C 800.5 2002.42  802.92 2000  806 2000  Z " stroke-width="1" stroke="#797979" fill="none" />
  <path d="M 806 2008.5  C 804.32 2008.5  803 2007.18  803 2005.5  C 803 2003.82  804.32 2002.5  806 2002.5  C 807.68 2002.5  809 2003.82  809 2005.5  C 809 2007.18  807.68 2008.5  806 2008.5  " fill-rule="nonzero" fill="#797979" stroke="none" />
</svg>