<?xml version="1.0" encoding="utf-8"?>
<svg version="1.1" xmlns:xlink="http://www.w3.org/1999/xlink" width="12px" height="12px" viewBox="446 1997  12 12" xmlns="http://www.w3.org/2000/svg">
  <path d="M 446.5 1999  A 1.5 1.5 0 0 1 448 1997.5 L 456 1997.5  A 1.5 1.5 0 0 1 457.5 1999 L 457.5 2007  A 1.5 1.5 0 0 1 456 2008.5 L 448 2008.5  A 1.5 1.5 0 0 1 446.5 2007 L 446.5 1999  Z " fill-rule="nonzero" fill="#f0f0f0" stroke="none" />
  <path d="M 446.5 1999  A 1.5 1.5 0 0 1 448 1997.5 L 456 1997.5  A 1.5 1.5 0 0 1 457.5 1999 L 457.5 2007  A 1.5 1.5 0 0 1 456 2008.5 L 448 2008.5  A 1.5 1.5 0 0 1 446.5 2007 L 446.5 1999  Z " stroke-width="1" stroke="#797979" fill="none" />
  <path d="M 448.571428571429 2003  L 451.142857142857 2005.57142857143  " stroke-width="2.57142857142857" stroke="#797979" fill="none" />
  <path d="M 451.142857142857 2005.57142857143  L 455.428571428571 1999.57142857143  " stroke-width="2.57142857142857" stroke="#797979" fill="none" />
</svg>