<?xml version="1.0" encoding="utf-8"?>
<svg version="1.1" xmlns:xlink="http://www.w3.org/1999/xlink" width="12px" height="12px" viewBox="801 2274.5  12 12" xmlns="http://www.w3.org/2000/svg">
  <path d="M 807 2274.5  C 810.36 2274.5  813 2277.14  813 2280.5  C 813 2283.86  810.36 2286.5  807 2286.5  C 803.64 2286.5  801 2283.86  801 2280.5  C 801 2277.14  803.64 2274.5  807 2274.5  Z " fill-rule="nonzero" fill="#ffffff" stroke="none" fill-opacity="0" />
  <path d="M 807 2275  C 810.08 2275  812.5 2277.42  812.5 2280.5  C 812.5 2283.58  810.08 2286  807 2286  C 803.92 2286  801.5 2283.58  801.5 2280.5  C 801.5 2277.42  803.92 2275  807 2275  Z " stroke-width="1" stroke="#797979" fill="none" />
  <path d="M 807 2283.5  C 805.32 2283.5  804 2282.18  804 2280.5  C 804 2278.82  805.32 2277.5  807 2277.5  C 808.68 2277.5  810 2278.82  810 2280.5  C 810 2282.18  808.68 2283.5  807 2283.5  " fill-rule="nonzero" fill="#797979" stroke="none" />
</svg>