<?xml version="1.0" encoding="utf-8"?>
<svg version="1.1" xmlns:xlink="http://www.w3.org/1999/xlink" width="12px" height="12px" viewBox="848 2274.5  12 12" xmlns="http://www.w3.org/2000/svg">
  <path d="M 854 2274.5  C 857.36 2274.5  860 2277.14  860 2280.5  C 860 2283.86  857.36 2286.5  854 2286.5  C 850.64 2286.5  848 2283.86  848 2280.5  C 848 2277.14  850.64 2274.5  854 2274.5  Z " fill-rule="nonzero" fill="#ffffff" stroke="none" fill-opacity="0" />
  <path d="M 854 2275  C 857.08 2275  859.5 2277.42  859.5 2280.5  C 859.5 2283.58  857.08 2286  854 2286  C 850.92 2286  848.5 2283.58  848.5 2280.5  C 848.5 2277.42  850.92 2275  854 2275  Z " stroke-width="1" stroke="#797979" fill="none" />
  <path d="M 854 2283.5  C 852.32 2283.5  851 2282.18  851 2280.5  C 851 2278.82  852.32 2277.5  854 2277.5  C 855.68 2277.5  857 2278.82  857 2280.5  C 857 2282.18  855.68 2283.5  854 2283.5  " fill-rule="nonzero" fill="#797979" stroke="none" />
</svg>