<?xml version="1.0" encoding="utf-8"?>
<svg version="1.1" xmlns:xlink="http://www.w3.org/1999/xlink" width="12px" height="12px" viewBox="447 2272  12 12" xmlns="http://www.w3.org/2000/svg">
  <path d="M 447.5 2274  A 1.5 1.5 0 0 1 449 2272.5 L 457 2272.5  A 1.5 1.5 0 0 1 458.5 2274 L 458.5 2282  A 1.5 1.5 0 0 1 457 2283.5 L 449 2283.5  A 1.5 1.5 0 0 1 447.5 2282 L 447.5 2274  Z " fill-rule="nonzero" fill="#f0f0f0" stroke="none" />
  <path d="M 447.5 2274  A 1.5 1.5 0 0 1 449 2272.5 L 457 2272.5  A 1.5 1.5 0 0 1 458.5 2274 L 458.5 2282  A 1.5 1.5 0 0 1 457 2283.5 L 449 2283.5  A 1.5 1.5 0 0 1 447.5 2282 L 447.5 2274  Z " stroke-width="1" stroke="#797979" fill="none" />
</svg>