<?xml version="1.0" encoding="utf-8"?>
<svg version="1.1" xmlns:xlink="http://www.w3.org/1999/xlink" width="12px" height="12px" viewBox="802 2233.5  12 12" xmlns="http://www.w3.org/2000/svg">
  <path d="M 808 2233.5  C 811.36 2233.5  814 2236.14  814 2239.5  C 814 2242.86  811.36 2245.5  808 2245.5  C 804.64 2245.5  802 2242.86  802 2239.5  C 802 2236.14  804.64 2233.5  808 2233.5  Z " fill-rule="nonzero" fill="#f0f0f0" stroke="none" />
  <path d="M 808 2234  C 811.08 2234  813.5 2236.42  813.5 2239.5  C 813.5 2242.58  811.08 2245  808 2245  C 804.92 2245  802.5 2242.58  802.5 2239.5  C 802.5 2236.42  804.92 2234  808 2234  Z " stroke-width="1" stroke="#797979" fill="none" />
  <path d="M 808 2242.5  C 806.32 2242.5  805 2241.18  805 2239.5  C 805 2237.82  806.32 2236.5  808 2236.5  C 809.68 2236.5  811 2237.82  811 2239.5  C 811 2241.18  809.68 2242.5  808 2242.5  " fill-rule="nonzero" fill="#797979" stroke="none" />
</svg>