<?xml version="1.0" encoding="utf-8"?>
<svg version="1.1" xmlns:xlink="http://www.w3.org/1999/xlink" width="12px" height="12px" viewBox="447 2379  12 12" xmlns="http://www.w3.org/2000/svg">
  <path d="M 447.5 2381  A 1.5 1.5 0 0 1 449 2379.5 L 457 2379.5  A 1.5 1.5 0 0 1 458.5 2381 L 458.5 2389  A 1.5 1.5 0 0 1 457 2390.5 L 449 2390.5  A 1.5 1.5 0 0 1 447.5 2389 L 447.5 2381  Z " fill-rule="nonzero" fill="#f0f0f0" stroke="none" />
  <path d="M 447.5 2381  A 1.5 1.5 0 0 1 449 2379.5 L 457 2379.5  A 1.5 1.5 0 0 1 458.5 2381 L 458.5 2389  A 1.5 1.5 0 0 1 457 2390.5 L 449 2390.5  A 1.5 1.5 0 0 1 447.5 2389 L 447.5 2381  Z " stroke-width="1" stroke="#797979" fill="none" />
</svg>