<?xml version="1.0" encoding="utf-8"?>
<svg version="1.1" xmlns:xlink="http://www.w3.org/1999/xlink" width="12px" height="12px" viewBox="848 2381.5  12 12" xmlns="http://www.w3.org/2000/svg">
  <path d="M 854 2381.5  C 857.36 2381.5  860 2384.14  860 2387.5  C 860 2390.86  857.36 2393.5  854 2393.5  C 850.64 2393.5  848 2390.86  848 2387.5  C 848 2384.14  850.64 2381.5  854 2381.5  Z " fill-rule="nonzero" fill="#ffffff" stroke="none" fill-opacity="0" />
  <path d="M 854 2382  C 857.08 2382  859.5 2384.42  859.5 2387.5  C 859.5 2390.58  857.08 2393  854 2393  C 850.92 2393  848.5 2390.58  848.5 2387.5  C 848.5 2384.42  850.92 2382  854 2382  Z " stroke-width="1" stroke="#797979" fill="none" />
  <path d="M 854 2390.5  C 852.32 2390.5  851 2389.18  851 2387.5  C 851 2385.82  852.32 2384.5  854 2384.5  C 855.68 2384.5  857 2385.82  857 2387.5  C 857 2389.18  855.68 2390.5  854 2390.5  " fill-rule="nonzero" fill="#797979" stroke="none" />
</svg>