<?xml version="1.0" encoding="utf-8"?>
<svg version="1.1" xmlns:xlink="http://www.w3.org/1999/xlink" width="12px" height="12px" viewBox="800 2422.5  12 12" xmlns="http://www.w3.org/2000/svg">
  <path d="M 806 2422.5  C 809.36 2422.5  812 2425.14  812 2428.5  C 812 2431.86  809.36 2434.5  806 2434.5  C 802.64 2434.5  800 2431.86  800 2428.5  C 800 2425.14  802.64 2422.5  806 2422.5  Z " fill-rule="nonzero" fill="#ffffff" stroke="none" fill-opacity="0" />
  <path d="M 806 2423  C 809.08 2423  811.5 2425.42  811.5 2428.5  C 811.5 2431.58  809.08 2434  806 2434  C 802.92 2434  800.5 2431.58  800.5 2428.5  C 800.5 2425.42  802.92 2423  806 2423  Z " stroke-width="1" stroke="#797979" fill="none" />
  <path d="M 806 2431.5  C 804.32 2431.5  803 2430.18  803 2428.5  C 803 2426.82  804.32 2425.5  806 2425.5  C 807.68 2425.5  809 2426.82  809 2428.5  C 809 2430.18  807.68 2431.5  806 2431.5  " fill-rule="nonzero" fill="#797979" stroke="none" />
</svg>