<?xml version="1.0" encoding="utf-8"?>
<svg version="1.1" xmlns:xlink="http://www.w3.org/1999/xlink" width="12px" height="12px" viewBox="847 2422.5  12 12" xmlns="http://www.w3.org/2000/svg">
  <path d="M 853 2422.5  C 856.36 2422.5  859 2425.14  859 2428.5  C 859 2431.86  856.36 2434.5  853 2434.5  C 849.64 2434.5  847 2431.86  847 2428.5  C 847 2425.14  849.64 2422.5  853 2422.5  Z " fill-rule="nonzero" fill="#f0f0f0" stroke="none" />
  <path d="M 853 2423  C 856.08 2423  858.5 2425.42  858.5 2428.5  C 858.5 2431.58  856.08 2434  853 2434  C 849.92 2434  847.5 2431.58  847.5 2428.5  C 847.5 2425.42  849.92 2423  853 2423  Z " stroke-width="1" stroke="#797979" fill="none" />
  <path d="M 853 2431.5  C 851.32 2431.5  850 2430.18  850 2428.5  C 850 2426.82  851.32 2425.5  853 2425.5  C 854.68 2425.5  856 2426.82  856 2428.5  C 856 2430.18  854.68 2431.5  853 2431.5  " fill-rule="nonzero" fill="#797979" stroke="none" />
</svg>