<?xml version="1.0" encoding="utf-8"?>
<svg version="1.1" xmlns:xlink="http://www.w3.org/1999/xlink" width="12px" height="12px" viewBox="456 2703  12 12" xmlns="http://www.w3.org/2000/svg">
  <path d="M 456.5 2705  A 1.5 1.5 0 0 1 458 2703.5 L 466 2703.5  A 1.5 1.5 0 0 1 467.5 2705 L 467.5 2713  A 1.5 1.5 0 0 1 466 2714.5 L 458 2714.5  A 1.5 1.5 0 0 1 456.5 2713 L 456.5 2705  Z " fill-rule="nonzero" fill="#ffffff" stroke="none" />
  <path d="M 456.5 2705  A 1.5 1.5 0 0 1 458 2703.5 L 466 2703.5  A 1.5 1.5 0 0 1 467.5 2705 L 467.5 2713  A 1.5 1.5 0 0 1 466 2714.5 L 458 2714.5  A 1.5 1.5 0 0 1 456.5 2713 L 456.5 2705  Z " stroke-width="1" stroke="#797979" fill="none" />
</svg>