<?xml version="1.0" encoding="utf-8"?>
<svg version="1.1" xmlns:xlink="http://www.w3.org/1999/xlink" width="12px" height="12px" viewBox="457 2662  12 12" xmlns="http://www.w3.org/2000/svg">
  <path d="M 457.5 2664  A 1.5 1.5 0 0 1 459 2662.5 L 467 2662.5  A 1.5 1.5 0 0 1 468.5 2664 L 468.5 2672  A 1.5 1.5 0 0 1 467 2673.5 L 459 2673.5  A 1.5 1.5 0 0 1 457.5 2672 L 457.5 2664  Z " fill-rule="nonzero" fill="#f0f0f0" stroke="none" />
  <path d="M 457.5 2664  A 1.5 1.5 0 0 1 459 2662.5 L 467 2662.5  A 1.5 1.5 0 0 1 468.5 2664 L 468.5 2672  A 1.5 1.5 0 0 1 467 2673.5 L 459 2673.5  A 1.5 1.5 0 0 1 457.5 2672 L 457.5 2664  Z " stroke-width="1" stroke="#797979" fill="none" />
</svg>