<?xml version="1.0" encoding="utf-8"?>
<svg version="1.1" xmlns:xlink="http://www.w3.org/1999/xlink" width="12px" height="12px" viewBox="810 2705.5  12 12" xmlns="http://www.w3.org/2000/svg">
  <path d="M 816 2705.5  C 819.36 2705.5  822 2708.14  822 2711.5  C 822 2714.86  819.36 2717.5  816 2717.5  C 812.64 2717.5  810 2714.86  810 2711.5  C 810 2708.14  812.64 2705.5  816 2705.5  Z " fill-rule="nonzero" fill="#ffffff" stroke="none" fill-opacity="0" />
  <path d="M 816 2706  C 819.08 2706  821.5 2708.42  821.5 2711.5  C 821.5 2714.58  819.08 2717  816 2717  C 812.92 2717  810.5 2714.58  810.5 2711.5  C 810.5 2708.42  812.92 2706  816 2706  Z " stroke-width="1" stroke="#797979" fill="none" />
  <path d="M 816 2714.5  C 814.32 2714.5  813 2713.18  813 2711.5  C 813 2709.82  814.32 2708.5  816 2708.5  C 817.68 2708.5  819 2709.82  819 2711.5  C 819 2713.18  817.68 2714.5  816 2714.5  " fill-rule="nonzero" fill="#797979" stroke="none" />
</svg>