<?xml version="1.0" encoding="utf-8"?>
<svg version="1.1" xmlns:xlink="http://www.w3.org/1999/xlink" width="12px" height="12px" viewBox="857 2705.5  12 12" xmlns="http://www.w3.org/2000/svg">
  <path d="M 863 2705.5  C 866.36 2705.5  869 2708.14  869 2711.5  C 869 2714.86  866.36 2717.5  863 2717.5  C 859.64 2717.5  857 2714.86  857 2711.5  C 857 2708.14  859.64 2705.5  863 2705.5  Z " fill-rule="nonzero" fill="#ffffff" stroke="none" fill-opacity="0" />
  <path d="M 863 2706  C 866.08 2706  868.5 2708.42  868.5 2711.5  C 868.5 2714.58  866.08 2717  863 2717  C 859.92 2717  857.5 2714.58  857.5 2711.5  C 857.5 2708.42  859.92 2706  863 2706  Z " stroke-width="1" stroke="#797979" fill="none" />
  <path d="M 863 2714.5  C 861.32 2714.5  860 2713.18  860 2711.5  C 860 2709.82  861.32 2708.5  863 2708.5  C 864.68 2708.5  866 2709.82  866 2711.5  C 866 2713.18  864.68 2714.5  863 2714.5  " fill-rule="nonzero" fill="#797979" stroke="none" />
</svg>