<?xml version="1.0" encoding="utf-8"?>
<svg version="1.1" xmlns:xlink="http://www.w3.org/1999/xlink" width="12px" height="12px" viewBox="857 2847.5  12 12" xmlns="http://www.w3.org/2000/svg">
  <path d="M 863 2847.5  C 866.36 2847.5  869 2850.14  869 2853.5  C 869 2856.86  866.36 2859.5  863 2859.5  C 859.64 2859.5  857 2856.86  857 2853.5  C 857 2850.14  859.64 2847.5  863 2847.5  Z " fill-rule="nonzero" fill="#f0f0f0" stroke="none" />
  <path d="M 863 2848  C 866.08 2848  868.5 2850.42  868.5 2853.5  C 868.5 2856.58  866.08 2859  863 2859  C 859.92 2859  857.5 2856.58  857.5 2853.5  C 857.5 2850.42  859.92 2848  863 2848  Z " stroke-width="1" stroke="#797979" fill="none" />
  <path d="M 863 2856.5  C 861.32 2856.5  860 2855.18  860 2853.5  C 860 2851.82  861.32 2850.5  863 2850.5  C 864.68 2850.5  866 2851.82  866 2853.5  C 866 2855.18  864.68 2856.5  863 2856.5  " fill-rule="nonzero" fill="#797979" stroke="none" />
</svg>