<?xml version="1.0" encoding="utf-8"?>
<svg version="1.1" xmlns:xlink="http://www.w3.org/1999/xlink" width="12px" height="12px" viewBox="811 2806.5  12 12" xmlns="http://www.w3.org/2000/svg">
  <path d="M 817 2806.5  C 820.36 2806.5  823 2809.14  823 2812.5  C 823 2815.86  820.36 2818.5  817 2818.5  C 813.64 2818.5  811 2815.86  811 2812.5  C 811 2809.14  813.64 2806.5  817 2806.5  Z " fill-rule="nonzero" fill="#ffffff" stroke="none" fill-opacity="0" />
  <path d="M 817 2807  C 820.08 2807  822.5 2809.42  822.5 2812.5  C 822.5 2815.58  820.08 2818  817 2818  C 813.92 2818  811.5 2815.58  811.5 2812.5  C 811.5 2809.42  813.92 2807  817 2807  Z " stroke-width="1" stroke="#797979" fill="none" />
  <path d="M 817 2815.5  C 815.32 2815.5  814 2814.18  814 2812.5  C 814 2810.82  815.32 2809.5  817 2809.5  C 818.68 2809.5  820 2810.82  820 2812.5  C 820 2814.18  818.68 2815.5  817 2815.5  " fill-rule="nonzero" fill="#797979" stroke="none" />
</svg>