<?xml version="1.0" encoding="utf-8"?>
<svg version="1.1" xmlns:xlink="http://www.w3.org/1999/xlink" width="12px" height="12px" viewBox="810 2847.5  12 12" xmlns="http://www.w3.org/2000/svg">
  <path d="M 816 2847.5  C 819.36 2847.5  822 2850.14  822 2853.5  C 822 2856.86  819.36 2859.5  816 2859.5  C 812.64 2859.5  810 2856.86  810 2853.5  C 810 2850.14  812.64 2847.5  816 2847.5  Z " fill-rule="nonzero" fill="#ffffff" stroke="none" fill-opacity="0" />
  <path d="M 816 2848  C 819.08 2848  821.5 2850.42  821.5 2853.5  C 821.5 2856.58  819.08 2859  816 2859  C 812.92 2859  810.5 2856.58  810.5 2853.5  C 810.5 2850.42  812.92 2848  816 2848  Z " stroke-width="1" stroke="#797979" fill="none" />
  <path d="M 816 2856.5  C 814.32 2856.5  813 2855.18  813 2853.5  C 813 2851.82  814.32 2850.5  816 2850.5  C 817.68 2850.5  819 2851.82  819 2853.5  C 819 2855.18  817.68 2856.5  816 2856.5  " fill-rule="nonzero" fill="#797979" stroke="none" />
</svg>