<?xml version="1.0" encoding="utf-8"?>
<svg version="1.1" xmlns:xlink="http://www.w3.org/1999/xlink" width="12px" height="12px" viewBox="457 2936  12 12" xmlns="http://www.w3.org/2000/svg">
  <path d="M 457.5 2938  A 1.5 1.5 0 0 1 459 2936.5 L 467 2936.5  A 1.5 1.5 0 0 1 468.5 2938 L 468.5 2946  A 1.5 1.5 0 0 1 467 2947.5 L 459 2947.5  A 1.5 1.5 0 0 1 457.5 2946 L 457.5 2938  Z " fill-rule="nonzero" fill="#f0f0f0" stroke="none" />
  <path d="M 457.5 2938  A 1.5 1.5 0 0 1 459 2936.5 L 467 2936.5  A 1.5 1.5 0 0 1 468.5 2938 L 468.5 2946  A 1.5 1.5 0 0 1 467 2947.5 L 459 2947.5  A 1.5 1.5 0 0 1 457.5 2946 L 457.5 2938  Z " stroke-width="1" stroke="#797979" fill="none" />
  <path d="M 459.571428571429 2942  L 462.142857142857 2944.57142857143  " stroke-width="2.57142857142857" stroke="#797979" fill="none" />
  <path d="M 462.142857142857 2944.57142857143  L 466.428571428571 2938.57142857143  " stroke-width="2.57142857142857" stroke="#797979" fill="none" />
</svg>