<?xml version="1.0" encoding="utf-8"?>
<svg version="1.1" xmlns:xlink="http://www.w3.org/1999/xlink" width="12px" height="12px" viewBox="456 2845  12 12" xmlns="http://www.w3.org/2000/svg">
  <path d="M 456.5 2847  A 1.5 1.5 0 0 1 458 2845.5 L 466 2845.5  A 1.5 1.5 0 0 1 467.5 2847 L 467.5 2855  A 1.5 1.5 0 0 1 466 2856.5 L 458 2856.5  A 1.5 1.5 0 0 1 456.5 2855 L 456.5 2847  Z " fill-rule="nonzero" fill="#ffffff" stroke="none" />
  <path d="M 456.5 2847  A 1.5 1.5 0 0 1 458 2845.5 L 466 2845.5  A 1.5 1.5 0 0 1 467.5 2847 L 467.5 2855  A 1.5 1.5 0 0 1 466 2856.5 L 458 2856.5  A 1.5 1.5 0 0 1 456.5 2855 L 456.5 2847  Z " stroke-width="1" stroke="#797979" fill="none" />
  <path d="M 458.571428571429 2851  L 461.142857142857 2853.57142857143  " stroke-width="2.57142857142857" stroke="#797979" fill="none" />
  <path d="M 461.142857142857 2853.57142857143  L 465.428571428571 2847.57142857143  " stroke-width="2.57142857142857" stroke="#797979" fill="none" />
</svg>