<?xml version="1.0" encoding="utf-8"?>
<svg version="1.1" xmlns:xlink="http://www.w3.org/1999/xlink" width="12px" height="12px" viewBox="858 2938.5  12 12" xmlns="http://www.w3.org/2000/svg">
  <path d="M 864 2938.5  C 867.36 2938.5  870 2941.14  870 2944.5  C 870 2947.86  867.36 2950.5  864 2950.5  C 860.64 2950.5  858 2947.86  858 2944.5  C 858 2941.14  860.64 2938.5  864 2938.5  Z " fill-rule="nonzero" fill="#ffffff" stroke="none" fill-opacity="0" />
  <path d="M 864 2939  C 867.08 2939  869.5 2941.42  869.5 2944.5  C 869.5 2947.58  867.08 2950  864 2950  C 860.92 2950  858.5 2947.58  858.5 2944.5  C 858.5 2941.42  860.92 2939  864 2939  Z " stroke-width="1" stroke="#797979" fill="none" />
  <path d="M 864 2947.5  C 862.32 2947.5  861 2946.18  861 2944.5  C 861 2942.82  862.32 2941.5  864 2941.5  C 865.68 2941.5  867 2942.82  867 2944.5  C 867 2946.18  865.68 2947.5  864 2947.5  " fill-rule="nonzero" fill="#797979" stroke="none" />
</svg>