<?xml version="1.0" encoding="utf-8"?>
<svg version="1.1" xmlns:xlink="http://www.w3.org/1999/xlink" width="12px" height="12px" viewBox="811 2938.5  12 12" xmlns="http://www.w3.org/2000/svg">
  <path d="M 817 2938.5  C 820.36 2938.5  823 2941.14  823 2944.5  C 823 2947.86  820.36 2950.5  817 2950.5  C 813.64 2950.5  811 2947.86  811 2944.5  C 811 2941.14  813.64 2938.5  817 2938.5  Z " fill-rule="nonzero" fill="#ffffff" stroke="none" fill-opacity="0" />
  <path d="M 817 2939  C 820.08 2939  822.5 2941.42  822.5 2944.5  C 822.5 2947.58  820.08 2950  817 2950  C 813.92 2950  811.5 2947.58  811.5 2944.5  C 811.5 2941.42  813.92 2939  817 2939  Z " stroke-width="1" stroke="#797979" fill="none" />
  <path d="M 817 2947.5  C 815.32 2947.5  814 2946.18  814 2944.5  C 814 2942.82  815.32 2941.5  817 2941.5  C 818.68 2941.5  820 2942.82  820 2944.5  C 820 2946.18  818.68 2947.5  817 2947.5  " fill-rule="nonzero" fill="#797979" stroke="none" />
</svg>