<?xml version="1.0" encoding="utf-8"?>
<svg version="1.1" xmlns:xlink="http://www.w3.org/1999/xlink" width="12px" height="12px" viewBox="857 2979.5  12 12" xmlns="http://www.w3.org/2000/svg">
  <path d="M 863 2979.5  C 866.36 2979.5  869 2982.14  869 2985.5  C 869 2988.86  866.36 2991.5  863 2991.5  C 859.64 2991.5  857 2988.86  857 2985.5  C 857 2982.14  859.64 2979.5  863 2979.5  Z " fill-rule="nonzero" fill="#ffffff" stroke="none" fill-opacity="0" />
  <path d="M 863 2980  C 866.08 2980  868.5 2982.42  868.5 2985.5  C 868.5 2988.58  866.08 2991  863 2991  C 859.92 2991  857.5 2988.58  857.5 2985.5  C 857.5 2982.42  859.92 2980  863 2980  Z " stroke-width="1" stroke="#797979" fill="none" />
  <path d="M 863 2988.5  C 861.32 2988.5  860 2987.18  860 2985.5  C 860 2983.82  861.32 2982.5  863 2982.5  C 864.68 2982.5  866 2983.82  866 2985.5  C 866 2987.18  864.68 2988.5  863 2988.5  " fill-rule="nonzero" fill="#797979" stroke="none" />
</svg>