<?xml version="1.0" encoding="utf-8"?>
<svg version="1.1" xmlns:xlink="http://www.w3.org/1999/xlink" width="12px" height="12px" viewBox="800 2108.5  12 12" xmlns="http://www.w3.org/2000/svg">
  <path d="M 806 2108.5  C 809.36 2108.5  812 2111.14  812 2114.5  C 812 2117.86  809.36 2120.5  806 2120.5  C 802.64 2120.5  800 2117.86  800 2114.5  C 800 2111.14  802.64 2108.5  806 2108.5  Z " fill-rule="nonzero" fill="#f0f0f0" stroke="none" />
  <path d="M 806 2109  C 809.08 2109  811.5 2111.42  811.5 2114.5  C 811.5 2117.58  809.08 2120  806 2120  C 802.92 2120  800.5 2117.58  800.5 2114.5  C 800.5 2111.42  802.92 2109  806 2109  Z " stroke-width="1" stroke="#797979" fill="none" />
  <path d="M 806 2117.5  C 804.32 2117.5  803 2116.18  803 2114.5  C 803 2112.82  804.32 2111.5  806 2111.5  C 807.68 2111.5  809 2112.82  809 2114.5  C 809 2116.18  807.68 2117.5  806 2117.5  " fill-rule="nonzero" fill="#797979" stroke="none" />
</svg>