<?xml version="1.0" encoding="utf-8"?>
<svg version="1.1" xmlns:xlink="http://www.w3.org/1999/xlink" width="12px" height="12px" viewBox="810 2979.5  12 12" xmlns="http://www.w3.org/2000/svg">
  <path d="M 816 2979.5  C 819.36 2979.5  822 2982.14  822 2985.5  C 822 2988.86  819.36 2991.5  816 2991.5  C 812.64 2991.5  810 2988.86  810 2985.5  C 810 2982.14  812.64 2979.5  816 2979.5  Z " fill-rule="nonzero" fill="#ffffff" stroke="none" fill-opacity="0" />
  <path d="M 816 2980  C 819.08 2980  821.5 2982.42  821.5 2985.5  C 821.5 2988.58  819.08 2991  816 2991  C 812.92 2991  810.5 2988.58  810.5 2985.5  C 810.5 2982.42  812.92 2980  816 2980  Z " stroke-width="1" stroke="#797979" fill="none" />
  <path d="M 816 2988.5  C 814.32 2988.5  813 2987.18  813 2985.5  C 813 2983.82  814.32 2982.5  816 2982.5  C 817.68 2982.5  819 2983.82  819 2985.5  C 819 2987.18  817.68 2988.5  816 2988.5  " fill-rule="nonzero" fill="#797979" stroke="none" />
</svg>