<?xml version="1.0" encoding="utf-8"?>
<svg version="1.1" xmlns:xlink="http://www.w3.org/1999/xlink" width="12px" height="12px" viewBox="446 2136  12 12" xmlns="http://www.w3.org/2000/svg">
  <path d="M 446.5 2138  A 1.5 1.5 0 0 1 448 2136.5 L 456 2136.5  A 1.5 1.5 0 0 1 457.5 2138 L 457.5 2146  A 1.5 1.5 0 0 1 456 2147.5 L 448 2147.5  A 1.5 1.5 0 0 1 446.5 2146 L 446.5 2138  Z " fill-rule="nonzero" fill="#f0f0f0" stroke="none" />
  <path d="M 446.5 2138  A 1.5 1.5 0 0 1 448 2136.5 L 456 2136.5  A 1.5 1.5 0 0 1 457.5 2138 L 457.5 2146  A 1.5 1.5 0 0 1 456 2147.5 L 448 2147.5  A 1.5 1.5 0 0 1 446.5 2146 L 446.5 2138  Z " stroke-width="1" stroke="#797979" fill="none" />
</svg>