<?xml version="1.0" encoding="utf-8"?>
<svg version="1.1" xmlns:xlink="http://www.w3.org/1999/xlink" width="12px" height="12px" viewBox="847 2108.5  12 12" xmlns="http://www.w3.org/2000/svg">
  <path d="M 853 2108.5  C 856.36 2108.5  859 2111.14  859 2114.5  C 859 2117.86  856.36 2120.5  853 2120.5  C 849.64 2120.5  847 2117.86  847 2114.5  C 847 2111.14  849.64 2108.5  853 2108.5  Z " fill-rule="nonzero" fill="#f0f0f0" stroke="none" />
  <path d="M 853 2109  C 856.08 2109  858.5 2111.42  858.5 2114.5  C 858.5 2117.58  856.08 2120  853 2120  C 849.92 2120  847.5 2117.58  847.5 2114.5  C 847.5 2111.42  849.92 2109  853 2109  Z " stroke-width="1" stroke="#797979" fill="none" />
  <path d="M 853 2117.5  C 851.32 2117.5  850 2116.18  850 2114.5  C 850 2112.82  851.32 2111.5  853 2111.5  C 854.68 2111.5  856 2112.82  856 2114.5  C 856 2116.18  854.68 2117.5  853 2117.5  " fill-rule="nonzero" fill="#797979" stroke="none" />
</svg>