<?xml version="1.0" encoding="utf-8"?>
<svg version="1.1" xmlns:xlink="http://www.w3.org/1999/xlink" width="12px" height="12px" viewBox="847 3284.5  12 12" xmlns="http://www.w3.org/2000/svg">
  <path d="M 853 3284.5  C 856.36 3284.5  859 3287.14  859 3290.5  C 859 3293.86  856.36 3296.5  853 3296.5  C 849.64 3296.5  847 3293.86  847 3290.5  C 847 3287.14  849.64 3284.5  853 3284.5  Z " fill-rule="nonzero" fill="#f0f0f0" stroke="none" />
  <path d="M 853 3285  C 856.08 3285  858.5 3287.42  858.5 3290.5  C 858.5 3293.58  856.08 3296  853 3296  C 849.92 3296  847.5 3293.58  847.5 3290.5  C 847.5 3287.42  849.92 3285  853 3285  Z " stroke-width="1" stroke="#797979" fill="none" />
  <path d="M 853 3293.5  C 851.32 3293.5  850 3292.18  850 3290.5  C 850 3288.82  851.32 3287.5  853 3287.5  C 854.68 3287.5  856 3288.82  856 3290.5  C 856 3292.18  854.68 3293.5  853 3293.5  " fill-rule="nonzero" fill="#797979" stroke="none" />
</svg>