<?xml version="1.0" encoding="utf-8"?>
<svg version="1.1" xmlns:xlink="http://www.w3.org/1999/xlink" width="12px" height="12px" viewBox="800 3244.5  12 12" xmlns="http://www.w3.org/2000/svg">
  <path d="M 806 3244.5  C 809.36 3244.5  812 3247.14  812 3250.5  C 812 3253.86  809.36 3256.5  806 3256.5  C 802.64 3256.5  800 3253.86  800 3250.5  C 800 3247.14  802.64 3244.5  806 3244.5  Z " fill-rule="nonzero" fill="#f0f0f0" stroke="none" />
  <path d="M 806 3245  C 809.08 3245  811.5 3247.42  811.5 3250.5  C 811.5 3253.58  809.08 3256  806 3256  C 802.92 3256  800.5 3253.58  800.5 3250.5  C 800.5 3247.42  802.92 3245  806 3245  Z " stroke-width="1" stroke="#797979" fill="none" />
  <path d="M 806 3253.5  C 804.32 3253.5  803 3252.18  803 3250.5  C 803 3248.82  804.32 3247.5  806 3247.5  C 807.68 3247.5  809 3248.82  809 3250.5  C 809 3252.18  807.68 3253.5  806 3253.5  " fill-rule="nonzero" fill="#797979" stroke="none" />
</svg>