<?xml version="1.0" encoding="utf-8"?>
<svg version="1.1" xmlns:xlink="http://www.w3.org/1999/xlink" width="12px" height="12px" viewBox="799 3046.5  12 12" xmlns="http://www.w3.org/2000/svg">
  <path d="M 805 3046.5  C 808.36 3046.5  811 3049.14  811 3052.5  C 811 3055.86  808.36 3058.5  805 3058.5  C 801.64 3058.5  799 3055.86  799 3052.5  C 799 3049.14  801.64 3046.5  805 3046.5  Z " fill-rule="nonzero" fill="#f0f0f0" stroke="none" />
  <path d="M 805 3047  C 808.08 3047  810.5 3049.42  810.5 3052.5  C 810.5 3055.58  808.08 3058  805 3058  C 801.92 3058  799.5 3055.58  799.5 3052.5  C 799.5 3049.42  801.92 3047  805 3047  Z " stroke-width="1" stroke="#797979" fill="none" />
  <path d="M 805 3055.5  C 803.32 3055.5  802 3054.18  802 3052.5  C 802 3050.82  803.32 3049.5  805 3049.5  C 806.68 3049.5  808 3050.82  808 3052.5  C 808 3054.18  806.68 3055.5  805 3055.5  " fill-rule="nonzero" fill="#797979" stroke="none" />
</svg>