<?xml version="1.0" encoding="utf-8"?>
<svg version="1.1" xmlns:xlink="http://www.w3.org/1999/xlink" width="12px" height="12px" viewBox="846 3329.5  12 12" xmlns="http://www.w3.org/2000/svg">
  <path d="M 852 3329.5  C 855.36 3329.5  858 3332.14  858 3335.5  C 858 3338.86  855.36 3341.5  852 3341.5  C 848.64 3341.5  846 3338.86  846 3335.5  C 846 3332.14  848.64 3329.5  852 3329.5  Z " fill-rule="nonzero" fill="#f0f0f0" stroke="none" />
  <path d="M 852 3330  C 855.08 3330  857.5 3332.42  857.5 3335.5  C 857.5 3338.58  855.08 3341  852 3341  C 848.92 3341  846.5 3338.58  846.5 3335.5  C 846.5 3332.42  848.92 3330  852 3330  Z " stroke-width="1" stroke="#797979" fill="none" />
  <path d="M 852 3338.5  C 850.32 3338.5  849 3337.18  849 3335.5  C 849 3333.82  850.32 3332.5  852 3332.5  C 853.68 3332.5  855 3333.82  855 3335.5  C 855 3337.18  853.68 3338.5  852 3338.5  " fill-rule="nonzero" fill="#797979" stroke="none" />
</svg>