<?xml version="1.0" encoding="utf-8"?>
<svg version="1.1" xmlns:xlink="http://www.w3.org/1999/xlink" width="12px" height="12px" viewBox="846 3046.5  12 12" xmlns="http://www.w3.org/2000/svg">
  <path d="M 852 3046.5  C 855.36 3046.5  858 3049.14  858 3052.5  C 858 3055.86  855.36 3058.5  852 3058.5  C 848.64 3058.5  846 3055.86  846 3052.5  C 846 3049.14  848.64 3046.5  852 3046.5  Z " fill-rule="nonzero" fill="#ffffff" stroke="none" />
  <path d="M 852 3047  C 855.08 3047  857.5 3049.42  857.5 3052.5  C 857.5 3055.58  855.08 3058  852 3058  C 848.92 3058  846.5 3055.58  846.5 3052.5  C 846.5 3049.42  848.92 3047  852 3047  Z " stroke-width="1" stroke="#797979" fill="none" />
  <path d="M 852 3055.5  C 850.32 3055.5  849 3054.18  849 3052.5  C 849 3050.82  850.32 3049.5  852 3049.5  C 853.68 3049.5  855 3050.82  855 3052.5  C 855 3054.18  853.68 3055.5  852 3055.5  " fill-rule="nonzero" fill="#797979" stroke="none" />
</svg>