<?xml version="1.0" encoding="utf-8"?>
<svg version="1.1" xmlns:xlink="http://www.w3.org/1999/xlink" width="12px" height="12px" viewBox="445 3084  12 12" xmlns="http://www.w3.org/2000/svg">
  <path d="M 445.5 3086  A 1.5 1.5 0 0 1 447 3084.5 L 455 3084.5  A 1.5 1.5 0 0 1 456.5 3086 L 456.5 3094  A 1.5 1.5 0 0 1 455 3095.5 L 447 3095.5  A 1.5 1.5 0 0 1 445.5 3094 L 445.5 3086  Z " fill-rule="nonzero" fill="#ffffff" stroke="none" />
  <path d="M 445.5 3086  A 1.5 1.5 0 0 1 447 3084.5 L 455 3084.5  A 1.5 1.5 0 0 1 456.5 3086 L 456.5 3094  A 1.5 1.5 0 0 1 455 3095.5 L 447 3095.5  A 1.5 1.5 0 0 1 445.5 3094 L 445.5 3086  Z " stroke-width="1" stroke="#797979" fill="none" />
  <path d="M 447.571428571429 3090  L 450.142857142857 3092.57142857143  " stroke-width="2.57142857142857" stroke="#797979" fill="none" />
  <path d="M 450.142857142857 3092.57142857143  L 454.428571428571 3086.57142857143  " stroke-width="2.57142857142857" stroke="#797979" fill="none" />
</svg>