<?xml version="1.0" encoding="utf-8"?>
<svg version="1.1" xmlns:xlink="http://www.w3.org/1999/xlink" width="12px" height="12px" viewBox="447 3044  12 12" xmlns="http://www.w3.org/2000/svg">
  <path d="M 447.5 3046  A 1.5 1.5 0 0 1 449 3044.5 L 457 3044.5  A 1.5 1.5 0 0 1 458.5 3046 L 458.5 3054  A 1.5 1.5 0 0 1 457 3055.5 L 449 3055.5  A 1.5 1.5 0 0 1 447.5 3054 L 447.5 3046  Z " fill-rule="nonzero" fill="#f0f0f0" stroke="none" />
  <path d="M 447.5 3046  A 1.5 1.5 0 0 1 449 3044.5 L 457 3044.5  A 1.5 1.5 0 0 1 458.5 3046 L 458.5 3054  A 1.5 1.5 0 0 1 457 3055.5 L 449 3055.5  A 1.5 1.5 0 0 1 447.5 3054 L 447.5 3046  Z " stroke-width="1" stroke="#797979" fill="none" />
  <path d="M 449.571428571429 3050  L 452.142857142857 3052.57142857143  " stroke-width="2.57142857142857" stroke="#797979" fill="none" />
  <path d="M 452.142857142857 3052.57142857143  L 456.428571428571 3046.57142857143  " stroke-width="2.57142857142857" stroke="#797979" fill="none" />
</svg>