<?xml version="1.0" encoding="utf-8"?>
<svg version="1.1" xmlns:xlink="http://www.w3.org/1999/xlink" width="12px" height="12px" viewBox="845 3131.5  12 12" xmlns="http://www.w3.org/2000/svg">
  <path d="M 851 3131.5  C 854.36 3131.5  857 3134.14  857 3137.5  C 857 3140.86  854.36 3143.5  851 3143.5  C 847.64 3143.5  845 3140.86  845 3137.5  C 845 3134.14  847.64 3131.5  851 3131.5  Z " fill-rule="nonzero" fill="#ffffff" stroke="none" />
  <path d="M 851 3132  C 854.08 3132  856.5 3134.42  856.5 3137.5  C 856.5 3140.58  854.08 3143  851 3143  C 847.92 3143  845.5 3140.58  845.5 3137.5  C 845.5 3134.42  847.92 3132  851 3132  Z " stroke-width="1" stroke="#797979" fill="none" />
  <path d="M 851 3140.5  C 849.32 3140.5  848 3139.18  848 3137.5  C 848 3135.82  849.32 3134.5  851 3134.5  C 852.68 3134.5  854 3135.82  854 3137.5  C 854 3139.18  852.68 3140.5  851 3140.5  " fill-rule="nonzero" fill="#797979" stroke="none" />
</svg>