<?xml version="1.0" encoding="utf-8"?>
<svg version="1.1" xmlns:xlink="http://www.w3.org/1999/xlink" width="12px" height="12px" viewBox="446 3129  12 12" xmlns="http://www.w3.org/2000/svg">
  <path d="M 446.5 3131  A 1.5 1.5 0 0 1 448 3129.5 L 456 3129.5  A 1.5 1.5 0 0 1 457.5 3131 L 457.5 3139  A 1.5 1.5 0 0 1 456 3140.5 L 448 3140.5  A 1.5 1.5 0 0 1 446.5 3139 L 446.5 3131  Z " fill-rule="nonzero" fill="#f0f0f0" stroke="none" />
  <path d="M 446.5 3131  A 1.5 1.5 0 0 1 448 3129.5 L 456 3129.5  A 1.5 1.5 0 0 1 457.5 3131 L 457.5 3139  A 1.5 1.5 0 0 1 456 3140.5 L 448 3140.5  A 1.5 1.5 0 0 1 446.5 3139 L 446.5 3131  Z " stroke-width="1" stroke="#797979" fill="none" />
</svg>