<?xml version="1.0" encoding="utf-8"?>
<svg version="1.1" xmlns:xlink="http://www.w3.org/1999/xlink" width="12px" height="12px" viewBox="208 3757  12 12" xmlns="http://www.w3.org/2000/svg">
  <path d="M 208.5 3759  A 1.5 1.5 0 0 1 210 3757.5 L 218 3757.5  A 1.5 1.5 0 0 1 219.5 3759 L 219.5 3767  A 1.5 1.5 0 0 1 218 3768.5 L 210 3768.5  A 1.5 1.5 0 0 1 208.5 3767 L 208.5 3759  Z " fill-rule="nonzero" fill="#f0f0f0" stroke="none" />
  <path d="M 208.5 3759  A 1.5 1.5 0 0 1 210 3757.5 L 218 3757.5  A 1.5 1.5 0 0 1 219.5 3759 L 219.5 3767  A 1.5 1.5 0 0 1 218 3768.5 L 210 3768.5  A 1.5 1.5 0 0 1 208.5 3767 L 208.5 3759  Z " stroke-width="1" stroke="#797979" fill="none" />
  <path d="M 210.571428571429 3763  L 213.142857142857 3765.57142857143  " stroke-width="2.57142857142857" stroke="#797979" fill="none" />
  <path d="M 213.142857142857 3765.57142857143  L 217.428571428571 3759.57142857143  " stroke-width="2.57142857142857" stroke="#797979" fill="none" />
</svg>