<?xml version="1.0" encoding="utf-8"?>
<svg version="1.1" xmlns:xlink="http://www.w3.org/1999/xlink" width="12px" height="12px" viewBox="797 3164  12 12" xmlns="http://www.w3.org/2000/svg">
  <path d="M 803 3164  C 806.36 3164  809 3166.64  809 3170  C 809 3173.36  806.36 3176  803 3176  C 799.64 3176  797 3173.36  797 3170  C 797 3166.64  799.64 3164  803 3164  Z " fill-rule="nonzero" fill="#ffffff" stroke="none" />
  <path d="M 803 3164.5  C 806.08 3164.5  808.5 3166.92  808.5 3170  C 808.5 3173.08  806.08 3175.5  803 3175.5  C 799.92 3175.5  797.5 3173.08  797.5 3170  C 797.5 3166.92  799.92 3164.5  803 3164.5  Z " stroke-width="1" stroke="#797979" fill="none" />
  <path d="M 803 3173  C 801.32 3173  800 3171.68  800 3170  C 800 3168.32  801.32 3167  803 3167  C 804.68 3167  806 3168.32  806 3170  C 806 3171.68  804.68 3173  803 3173  " fill-rule="nonzero" fill="#797979" stroke="none" />
</svg>