<?xml version="1.0" encoding="utf-8"?>
<svg version="1.1" xmlns:xlink="http://www.w3.org/1999/xlink" width="12px" height="12px" viewBox="847 3494.5  12 12" xmlns="http://www.w3.org/2000/svg">
  <path d="M 853 3494.5  C 856.36 3494.5  859 3497.14  859 3500.5  C 859 3503.86  856.36 3506.5  853 3506.5  C 849.64 3506.5  847 3503.86  847 3500.5  C 847 3497.14  849.64 3494.5  853 3494.5  Z " fill-rule="nonzero" fill="#f0f0f0" stroke="none" />
  <path d="M 853 3495  C 856.08 3495  858.5 3497.42  858.5 3500.5  C 858.5 3503.58  856.08 3506  853 3506  C 849.92 3506  847.5 3503.58  847.5 3500.5  C 847.5 3497.42  849.92 3495  853 3495  Z " stroke-width="1" stroke="#797979" fill="none" />
  <path d="M 853 3503.5  C 851.32 3503.5  850 3502.18  850 3500.5  C 850 3498.82  851.32 3497.5  853 3497.5  C 854.68 3497.5  856 3498.82  856 3500.5  C 856 3502.18  854.68 3503.5  853 3503.5  " fill-rule="nonzero" fill="#797979" stroke="none" />
</svg>