<?xml version="1.0" encoding="utf-8"?>
<svg version="1.1" xmlns:xlink="http://www.w3.org/1999/xlink" width="12px" height="12px" viewBox="800 3494.5  12 12" xmlns="http://www.w3.org/2000/svg">
  <path d="M 806 3494.5  C 809.36 3494.5  812 3497.14  812 3500.5  C 812 3503.86  809.36 3506.5  806 3506.5  C 802.64 3506.5  800 3503.86  800 3500.5  C 800 3497.14  802.64 3494.5  806 3494.5  Z " fill-rule="nonzero" fill="#f0f0f0" stroke="none" />
  <path d="M 806 3495  C 809.08 3495  811.5 3497.42  811.5 3500.5  C 811.5 3503.58  809.08 3506  806 3506  C 802.92 3506  800.5 3503.58  800.5 3500.5  C 800.5 3497.42  802.92 3495  806 3495  Z " stroke-width="1" stroke="#797979" fill="none" />
  <path d="M 806 3503.5  C 804.32 3503.5  803 3502.18  803 3500.5  C 803 3498.82  804.32 3497.5  806 3497.5  C 807.68 3497.5  809 3498.82  809 3500.5  C 809 3502.18  807.68 3503.5  806 3503.5  " fill-rule="nonzero" fill="#797979" stroke="none" />
</svg>