<?xml version="1.0" encoding="utf-8"?>
<svg version="1.1" xmlns:xlink="http://www.w3.org/1999/xlink" width="12px" height="12px" viewBox="800 3457.5  12 12" xmlns="http://www.w3.org/2000/svg">
  <path d="M 806 3457.5  C 809.36 3457.5  812 3460.14  812 3463.5  C 812 3466.86  809.36 3469.5  806 3469.5  C 802.64 3469.5  800 3466.86  800 3463.5  C 800 3460.14  802.64 3457.5  806 3457.5  Z " fill-rule="nonzero" fill="#ffffff" stroke="none" fill-opacity="0" />
  <path d="M 806 3458  C 809.08 3458  811.5 3460.42  811.5 3463.5  C 811.5 3466.58  809.08 3469  806 3469  C 802.92 3469  800.5 3466.58  800.5 3463.5  C 800.5 3460.42  802.92 3458  806 3458  Z " stroke-width="1" stroke="#797979" fill="none" />
  <path d="M 806 3466.5  C 804.32 3466.5  803 3465.18  803 3463.5  C 803 3461.82  804.32 3460.5  806 3460.5  C 807.68 3460.5  809 3461.82  809 3463.5  C 809 3465.18  807.68 3466.5  806 3466.5  " fill-rule="nonzero" fill="#797979" stroke="none" />
</svg>