<?xml version="1.0" encoding="utf-8"?>
<svg version="1.1" xmlns:xlink="http://www.w3.org/1999/xlink" width="12px" height="12px" viewBox="848 3984.5  12 12" xmlns="http://www.w3.org/2000/svg">
  <path d="M 854 3984.5  C 857.36 3984.5  860 3987.14  860 3990.5  C 860 3993.86  857.36 3996.5  854 3996.5  C 850.64 3996.5  848 3993.86  848 3990.5  C 848 3987.14  850.64 3984.5  854 3984.5  Z " fill-rule="nonzero" fill="#f0f0f0" stroke="none" />
  <path d="M 854 3985  C 857.08 3985  859.5 3987.42  859.5 3990.5  C 859.5 3993.58  857.08 3996  854 3996  C 850.92 3996  848.5 3993.58  848.5 3990.5  C 848.5 3987.42  850.92 3985  854 3985  Z " stroke-width="1" stroke="#797979" fill="none" />
  <path d="M 854 3993.5  C 852.32 3993.5  851 3992.18  851 3990.5  C 851 3988.82  852.32 3987.5  854 3987.5  C 855.68 3987.5  857 3988.82  857 3990.5  C 857 3992.18  855.68 3993.5  854 3993.5  " fill-rule="nonzero" fill="#797979" stroke="none" />
</svg>