<?xml version="1.0" encoding="utf-8"?>
<svg version="1.1" xmlns:xlink="http://www.w3.org/1999/xlink" width="12px" height="12px" viewBox="447 3982  12 12" xmlns="http://www.w3.org/2000/svg">
  <path d="M 447.5 3984  A 1.5 1.5 0 0 1 449 3982.5 L 457 3982.5  A 1.5 1.5 0 0 1 458.5 3984 L 458.5 3992  A 1.5 1.5 0 0 1 457 3993.5 L 449 3993.5  A 1.5 1.5 0 0 1 447.5 3992 L 447.5 3984  Z " fill-rule="nonzero" fill="#ffffff" stroke="none" fill-opacity="0" />
  <path d="M 447.5 3984  A 1.5 1.5 0 0 1 449 3982.5 L 457 3982.5  A 1.5 1.5 0 0 1 458.5 3984 L 458.5 3992  A 1.5 1.5 0 0 1 457 3993.5 L 449 3993.5  A 1.5 1.5 0 0 1 447.5 3992 L 447.5 3984  Z " stroke-width="1" stroke="#797979" fill="none" />
</svg>