<?xml version="1.0" encoding="utf-8"?>
<svg version="1.1" xmlns:xlink="http://www.w3.org/1999/xlink" width="12px" height="12px" viewBox="801 3984.5  12 12" xmlns="http://www.w3.org/2000/svg">
  <path d="M 807 3984.5  C 810.36 3984.5  813 3987.14  813 3990.5  C 813 3993.86  810.36 3996.5  807 3996.5  C 803.64 3996.5  801 3993.86  801 3990.5  C 801 3987.14  803.64 3984.5  807 3984.5  Z " fill-rule="nonzero" fill="#ffffff" stroke="none" fill-opacity="0" />
  <path d="M 807 3985  C 810.08 3985  812.5 3987.42  812.5 3990.5  C 812.5 3993.58  810.08 3996  807 3996  C 803.92 3996  801.5 3993.58  801.5 3990.5  C 801.5 3987.42  803.92 3985  807 3985  Z " stroke-width="1" stroke="#797979" fill="none" />
  <path d="M 807 3993.5  C 805.32 3993.5  804 3992.18  804 3990.5  C 804 3988.82  805.32 3987.5  807 3987.5  C 808.68 3987.5  810 3988.82  810 3990.5  C 810 3992.18  808.68 3993.5  807 3993.5  " fill-rule="nonzero" fill="#797979" stroke="none" />
</svg>