<?xml version="1.0" encoding="utf-8"?>
<svg version="1.1" xmlns:xlink="http://www.w3.org/1999/xlink" width="12px" height="12px" viewBox="800 4025.5  12 12" xmlns="http://www.w3.org/2000/svg">
  <path d="M 806 4025.5  C 809.36 4025.5  812 4028.14  812 4031.5  C 812 4034.86  809.36 4037.5  806 4037.5  C 802.64 4037.5  800 4034.86  800 4031.5  C 800 4028.14  802.64 4025.5  806 4025.5  Z " fill-rule="nonzero" fill="#ffffff" stroke="none" fill-opacity="0" />
  <path d="M 806 4026  C 809.08 4026  811.5 4028.42  811.5 4031.5  C 811.5 4034.58  809.08 4037  806 4037  C 802.92 4037  800.5 4034.58  800.5 4031.5  C 800.5 4028.42  802.92 4026  806 4026  Z " stroke-width="1" stroke="#797979" fill="none" />
  <path d="M 806 4034.5  C 804.32 4034.5  803 4033.18  803 4031.5  C 803 4029.82  804.32 4028.5  806 4028.5  C 807.68 4028.5  809 4029.82  809 4031.5  C 809 4033.18  807.68 4034.5  806 4034.5  " fill-rule="nonzero" fill="#797979" stroke="none" />
</svg>