<?xml version="1.0" encoding="utf-8"?>
<svg version="1.1" xmlns:xlink="http://www.w3.org/1999/xlink" width="12px" height="12px" viewBox="802 3691.5  12 12" xmlns="http://www.w3.org/2000/svg">
  <path d="M 808 3691.5  C 811.36 3691.5  814 3694.14  814 3697.5  C 814 3700.86  811.36 3703.5  808 3703.5  C 804.64 3703.5  802 3700.86  802 3697.5  C 802 3694.14  804.64 3691.5  808 3691.5  Z " fill-rule="nonzero" fill="#ffffff" stroke="none" fill-opacity="0" />
  <path d="M 808 3692  C 811.08 3692  813.5 3694.42  813.5 3697.5  C 813.5 3700.58  811.08 3703  808 3703  C 804.92 3703  802.5 3700.58  802.5 3697.5  C 802.5 3694.42  804.92 3692  808 3692  Z " stroke-width="1" stroke="#797979" fill="none" />
  <path d="M 808 3700.5  C 806.32 3700.5  805 3699.18  805 3697.5  C 805 3695.82  806.32 3694.5  808 3694.5  C 809.68 3694.5  811 3695.82  811 3697.5  C 811 3699.18  809.68 3700.5  808 3700.5  " fill-rule="nonzero" fill="#797979" stroke="none" />
</svg>