<?xml version="1.0" encoding="utf-8"?>
<svg version="1.1" xmlns:xlink="http://www.w3.org/1999/xlink" width="12px" height="12px" viewBox="801 3732.5  12 12" xmlns="http://www.w3.org/2000/svg">
  <path d="M 807 3732.5  C 810.36 3732.5  813 3735.14  813 3738.5  C 813 3741.86  810.36 3744.5  807 3744.5  C 803.64 3744.5  801 3741.86  801 3738.5  C 801 3735.14  803.64 3732.5  807 3732.5  Z " fill-rule="nonzero" fill="#f0f0f0" stroke="none" />
  <path d="M 807 3733  C 810.08 3733  812.5 3735.42  812.5 3738.5  C 812.5 3741.58  810.08 3744  807 3744  C 803.92 3744  801.5 3741.58  801.5 3738.5  C 801.5 3735.42  803.92 3733  807 3733  Z " stroke-width="1" stroke="#797979" fill="none" />
  <path d="M 807 3741.5  C 805.32 3741.5  804 3740.18  804 3738.5  C 804 3736.82  805.32 3735.5  807 3735.5  C 808.68 3735.5  810 3736.82  810 3738.5  C 810 3740.18  808.68 3741.5  807 3741.5  " fill-rule="nonzero" fill="#797979" stroke="none" />
</svg>