<?xml version="1.0" encoding="utf-8"?>
<svg version="1.1" xmlns:xlink="http://www.w3.org/1999/xlink" width="12px" height="12px" viewBox="848 3732.5  12 12" xmlns="http://www.w3.org/2000/svg">
  <path d="M 854 3732.5  C 857.36 3732.5  860 3735.14  860 3738.5  C 860 3741.86  857.36 3744.5  854 3744.5  C 850.64 3744.5  848 3741.86  848 3738.5  C 848 3735.14  850.64 3732.5  854 3732.5  Z " fill-rule="nonzero" fill="#ffffff" stroke="none" fill-opacity="0" />
  <path d="M 854 3733  C 857.08 3733  859.5 3735.42  859.5 3738.5  C 859.5 3741.58  857.08 3744  854 3744  C 850.92 3744  848.5 3741.58  848.5 3738.5  C 848.5 3735.42  850.92 3733  854 3733  Z " stroke-width="1" stroke="#797979" fill="none" />
  <path d="M 854 3741.5  C 852.32 3741.5  851 3740.18  851 3738.5  C 851 3736.82  852.32 3735.5  854 3735.5  C 855.68 3735.5  857 3736.82  857 3738.5  C 857 3740.18  855.68 3741.5  854 3741.5  " fill-rule="nonzero" fill="#797979" stroke="none" />
</svg>