<?xml version="1.0" encoding="utf-8"?>
<svg version="1.1" xmlns:xlink="http://www.w3.org/1999/xlink" width="12px" height="12px" viewBox="801 3839.5  12 12" xmlns="http://www.w3.org/2000/svg">
  <path d="M 807 3839.5  C 810.36 3839.5  813 3842.14  813 3845.5  C 813 3848.86  810.36 3851.5  807 3851.5  C 803.64 3851.5  801 3848.86  801 3845.5  C 801 3842.14  803.64 3839.5  807 3839.5  Z " fill-rule="nonzero" fill="#f0f0f0" stroke="none" />
  <path d="M 807 3840  C 810.08 3840  812.5 3842.42  812.5 3845.5  C 812.5 3848.58  810.08 3851  807 3851  C 803.92 3851  801.5 3848.58  801.5 3845.5  C 801.5 3842.42  803.92 3840  807 3840  Z " stroke-width="1" stroke="#797979" fill="none" />
  <path d="M 807 3848.5  C 805.32 3848.5  804 3847.18  804 3845.5  C 804 3843.82  805.32 3842.5  807 3842.5  C 808.68 3842.5  810 3843.82  810 3845.5  C 810 3847.18  808.68 3848.5  807 3848.5  " fill-rule="nonzero" fill="#797979" stroke="none" />
</svg>