<?xml version="1.0" encoding="utf-8"?>
<svg version="1.1" xmlns:xlink="http://www.w3.org/1999/xlink" width="12px" height="12px" viewBox="848 3839.5  12 12" xmlns="http://www.w3.org/2000/svg">
  <path d="M 854 3839.5  C 857.36 3839.5  860 3842.14  860 3845.5  C 860 3848.86  857.36 3851.5  854 3851.5  C 850.64 3851.5  848 3848.86  848 3845.5  C 848 3842.14  850.64 3839.5  854 3839.5  Z " fill-rule="nonzero" fill="#f0f0f0" stroke="none" />
  <path d="M 854 3840  C 857.08 3840  859.5 3842.42  859.5 3845.5  C 859.5 3848.58  857.08 3851  854 3851  C 850.92 3851  848.5 3848.58  848.5 3845.5  C 848.5 3842.42  850.92 3840  854 3840  Z " stroke-width="1" stroke="#797979" fill="none" />
  <path d="M 854 3848.5  C 852.32 3848.5  851 3847.18  851 3845.5  C 851 3843.82  852.32 3842.5  854 3842.5  C 855.68 3842.5  857 3843.82  857 3845.5  C 857 3847.18  855.68 3848.5  854 3848.5  " fill-rule="nonzero" fill="#797979" stroke="none" />
</svg>