<?xml version="1.0" encoding="utf-8"?>
<svg version="1.1" xmlns:xlink="http://www.w3.org/1999/xlink" width="12px" height="12px" viewBox="447 3837  12 12" xmlns="http://www.w3.org/2000/svg">
  <path d="M 447.5 3839  A 1.5 1.5 0 0 1 449 3837.5 L 457 3837.5  A 1.5 1.5 0 0 1 458.5 3839 L 458.5 3847  A 1.5 1.5 0 0 1 457 3848.5 L 449 3848.5  A 1.5 1.5 0 0 1 447.5 3847 L 447.5 3839  Z " fill-rule="nonzero" fill="#ffffff" stroke="none" fill-opacity="0" />
  <path d="M 447.5 3839  A 1.5 1.5 0 0 1 449 3837.5 L 457 3837.5  A 1.5 1.5 0 0 1 458.5 3839 L 458.5 3847  A 1.5 1.5 0 0 1 457 3848.5 L 449 3848.5  A 1.5 1.5 0 0 1 447.5 3847 L 447.5 3839  Z " stroke-width="1" stroke="#797979" fill="none" />
  <path d="M 449.571428571429 3843  L 452.142857142857 3845.57142857143  " stroke-width="2.57142857142857" stroke="#797979" fill="none" />
  <path d="M 452.142857142857 3845.57142857143  L 456.428571428571 3839.57142857143  " stroke-width="2.57142857142857" stroke="#797979" fill="none" />
</svg>