<?xml version="1.0" encoding="utf-8"?>
<svg version="1.1" xmlns:xlink="http://www.w3.org/1999/xlink" width="12px" height="12px" viewBox="800 3880.5  12 12" xmlns="http://www.w3.org/2000/svg">
  <path d="M 806 3880.5  C 809.36 3880.5  812 3883.14  812 3886.5  C 812 3889.86  809.36 3892.5  806 3892.5  C 802.64 3892.5  800 3889.86  800 3886.5  C 800 3883.14  802.64 3880.5  806 3880.5  Z " fill-rule="nonzero" fill="#f0f0f0" stroke="none" />
  <path d="M 806 3881  C 809.08 3881  811.5 3883.42  811.5 3886.5  C 811.5 3889.58  809.08 3892  806 3892  C 802.92 3892  800.5 3889.58  800.5 3886.5  C 800.5 3883.42  802.92 3881  806 3881  Z " stroke-width="1" stroke="#797979" fill="none" />
  <path d="M 806 3889.5  C 804.32 3889.5  803 3888.18  803 3886.5  C 803 3884.82  804.32 3883.5  806 3883.5  C 807.68 3883.5  809 3884.82  809 3886.5  C 809 3888.18  807.68 3889.5  806 3889.5  " fill-rule="nonzero" fill="#797979" stroke="none" />
</svg>