<?xml version="1.0" encoding="utf-8"?>
<svg version="1.1" xmlns:xlink="http://www.w3.org/1999/xlink" width="12px" height="12px" viewBox="811 4122.5  12 12" xmlns="http://www.w3.org/2000/svg">
  <path d="M 817 4122.5  C 820.36 4122.5  823 4125.14  823 4128.5  C 823 4131.86  820.36 4134.5  817 4134.5  C 813.64 4134.5  811 4131.86  811 4128.5  C 811 4125.14  813.64 4122.5  817 4122.5  Z " fill-rule="nonzero" fill="#f0f0f0" stroke="none" />
  <path d="M 817 4123  C 820.08 4123  822.5 4125.42  822.5 4128.5  C 822.5 4131.58  820.08 4134  817 4134  C 813.92 4134  811.5 4131.58  811.5 4128.5  C 811.5 4125.42  813.92 4123  817 4123  Z " stroke-width="1" stroke="#797979" fill="none" />
  <path d="M 817 4131.5  C 815.32 4131.5  814 4130.18  814 4128.5  C 814 4126.82  815.32 4125.5  817 4125.5  C 818.68 4125.5  820 4126.82  820 4128.5  C 820 4130.18  818.68 4131.5  817 4131.5  " fill-rule="nonzero" fill="#797979" stroke="none" />
</svg>