<?xml version="1.0" encoding="utf-8"?>
<svg version="1.1" xmlns:xlink="http://www.w3.org/1999/xlink" width="12px" height="12px" viewBox="858 4122.5  12 12" xmlns="http://www.w3.org/2000/svg">
  <path d="M 864 4122.5  C 867.36 4122.5  870 4125.14  870 4128.5  C 870 4131.86  867.36 4134.5  864 4134.5  C 860.64 4134.5  858 4131.86  858 4128.5  C 858 4125.14  860.64 4122.5  864 4122.5  Z " fill-rule="nonzero" fill="#f0f0f0" stroke="none" />
  <path d="M 864 4123  C 867.08 4123  869.5 4125.42  869.5 4128.5  C 869.5 4131.58  867.08 4134  864 4134  C 860.92 4134  858.5 4131.58  858.5 4128.5  C 858.5 4125.42  860.92 4123  864 4123  Z " stroke-width="1" stroke="#797979" fill="none" />
  <path d="M 864 4131.5  C 862.32 4131.5  861 4130.18  861 4128.5  C 861 4126.82  862.32 4125.5  864 4125.5  C 865.68 4125.5  867 4126.82  867 4128.5  C 867 4130.18  865.68 4131.5  864 4131.5  " fill-rule="nonzero" fill="#797979" stroke="none" />
</svg>