<?xml version="1.0" encoding="utf-8"?>
<svg version="1.1" xmlns:xlink="http://www.w3.org/1999/xlink" width="12px" height="12px" viewBox="847 3880.5  12 12" xmlns="http://www.w3.org/2000/svg">
  <path d="M 853 3880.5  C 856.36 3880.5  859 3883.14  859 3886.5  C 859 3889.86  856.36 3892.5  853 3892.5  C 849.64 3892.5  847 3889.86  847 3886.5  C 847 3883.14  849.64 3880.5  853 3880.5  Z " fill-rule="nonzero" fill="#f0f0f0" stroke="none" />
  <path d="M 853 3881  C 856.08 3881  858.5 3883.42  858.5 3886.5  C 858.5 3889.58  856.08 3892  853 3892  C 849.92 3892  847.5 3889.58  847.5 3886.5  C 847.5 3883.42  849.92 3881  853 3881  Z " stroke-width="1" stroke="#797979" fill="none" />
  <path d="M 853 3889.5  C 851.32 3889.5  850 3888.18  850 3886.5  C 850 3884.82  851.32 3883.5  853 3883.5  C 854.68 3883.5  856 3884.82  856 3886.5  C 856 3888.18  854.68 3889.5  853 3889.5  " fill-rule="nonzero" fill="#797979" stroke="none" />
</svg>