<?xml version="1.0" encoding="utf-8"?>
<svg version="1.1" xmlns:xlink="http://www.w3.org/1999/xlink" width="12px" height="12px" viewBox="456 4161  12 12" xmlns="http://www.w3.org/2000/svg">
  <path d="M 456.5 4163  A 1.5 1.5 0 0 1 458 4161.5 L 466 4161.5  A 1.5 1.5 0 0 1 467.5 4163 L 467.5 4171  A 1.5 1.5 0 0 1 466 4172.5 L 458 4172.5  A 1.5 1.5 0 0 1 456.5 4171 L 456.5 4163  Z " fill-rule="nonzero" fill="#f0f0f0" stroke="none" />
  <path d="M 456.5 4163  A 1.5 1.5 0 0 1 458 4161.5 L 466 4161.5  A 1.5 1.5 0 0 1 467.5 4163 L 467.5 4171  A 1.5 1.5 0 0 1 466 4172.5 L 458 4172.5  A 1.5 1.5 0 0 1 456.5 4171 L 456.5 4163  Z " stroke-width="1" stroke="#797979" fill="none" />
  <path d="M 458.571428571429 4167  L 461.142857142857 4169.57142857143  " stroke-width="2.57142857142857" stroke="#797979" fill="none" />
  <path d="M 461.142857142857 4169.57142857143  L 465.428571428571 4163.57142857143  " stroke-width="2.57142857142857" stroke="#797979" fill="none" />
</svg>