<?xml version="1.0" encoding="utf-8"?>
<svg version="1.1" xmlns:xlink="http://www.w3.org/1999/xlink" width="12px" height="12px" viewBox="810 4305.5  12 12" xmlns="http://www.w3.org/2000/svg">
  <path d="M 816 4305.5  C 819.36 4305.5  822 4308.14  822 4311.5  C 822 4314.86  819.36 4317.5  816 4317.5  C 812.64 4317.5  810 4314.86  810 4311.5  C 810 4308.14  812.64 4305.5  816 4305.5  Z " fill-rule="nonzero" fill="#ffffff" stroke="none" fill-opacity="0" />
  <path d="M 816 4306  C 819.08 4306  821.5 4308.42  821.5 4311.5  C 821.5 4314.58  819.08 4317  816 4317  C 812.92 4317  810.5 4314.58  810.5 4311.5  C 810.5 4308.42  812.92 4306  816 4306  Z " stroke-width="1" stroke="#797979" fill="none" />
  <path d="M 816 4314.5  C 814.32 4314.5  813 4313.18  813 4311.5  C 813 4309.82  814.32 4308.5  816 4308.5  C 817.68 4308.5  819 4309.82  819 4311.5  C 819 4313.18  817.68 4314.5  816 4314.5  " fill-rule="nonzero" fill="#797979" stroke="none" />
</svg>