<?xml version="1.0" encoding="utf-8"?>
<svg version="1.1" xmlns:xlink="http://www.w3.org/1999/xlink" width="12px" height="12px" viewBox="858 4264.5  12 12" xmlns="http://www.w3.org/2000/svg">
  <path d="M 864 4264.5  C 867.36 4264.5  870 4267.14  870 4270.5  C 870 4273.86  867.36 4276.5  864 4276.5  C 860.64 4276.5  858 4273.86  858 4270.5  C 858 4267.14  860.64 4264.5  864 4264.5  Z " fill-rule="nonzero" fill="#ffffff" stroke="none" fill-opacity="0" />
  <path d="M 864 4265  C 867.08 4265  869.5 4267.42  869.5 4270.5  C 869.5 4273.58  867.08 4276  864 4276  C 860.92 4276  858.5 4273.58  858.5 4270.5  C 858.5 4267.42  860.92 4265  864 4265  Z " stroke-width="1" stroke="#797979" fill="none" />
  <path d="M 864 4273.5  C 862.32 4273.5  861 4272.18  861 4270.5  C 861 4268.82  862.32 4267.5  864 4267.5  C 865.68 4267.5  867 4268.82  867 4270.5  C 867 4272.18  865.68 4273.5  864 4273.5  " fill-rule="nonzero" fill="#797979" stroke="none" />
</svg>