<?xml version="1.0" encoding="utf-8"?>
<svg version="1.1" xmlns:xlink="http://www.w3.org/1999/xlink" width="12px" height="12px" viewBox="811 4264.5  12 12" xmlns="http://www.w3.org/2000/svg">
  <path d="M 817 4264.5  C 820.36 4264.5  823 4267.14  823 4270.5  C 823 4273.86  820.36 4276.5  817 4276.5  C 813.64 4276.5  811 4273.86  811 4270.5  C 811 4267.14  813.64 4264.5  817 4264.5  Z " fill-rule="nonzero" fill="#ffffff" stroke="none" fill-opacity="0" />
  <path d="M 817 4265  C 820.08 4265  822.5 4267.42  822.5 4270.5  C 822.5 4273.58  820.08 4276  817 4276  C 813.92 4276  811.5 4273.58  811.5 4270.5  C 811.5 4267.42  813.92 4265  817 4265  Z " stroke-width="1" stroke="#797979" fill="none" />
  <path d="M 817 4273.5  C 815.32 4273.5  814 4272.18  814 4270.5  C 814 4268.82  815.32 4267.5  817 4267.5  C 818.68 4267.5  820 4268.82  820 4270.5  C 820 4272.18  818.68 4273.5  817 4273.5  " fill-rule="nonzero" fill="#797979" stroke="none" />
</svg>