<?xml version="1.0" encoding="utf-8"?>
<svg version="1.1" xmlns:xlink="http://www.w3.org/1999/xlink" width="12px" height="12px" viewBox="457 4394  12 12" xmlns="http://www.w3.org/2000/svg">
  <path d="M 457.5 4396  A 1.5 1.5 0 0 1 459 4394.5 L 467 4394.5  A 1.5 1.5 0 0 1 468.5 4396 L 468.5 4404  A 1.5 1.5 0 0 1 467 4405.5 L 459 4405.5  A 1.5 1.5 0 0 1 457.5 4404 L 457.5 4396  Z " fill-rule="nonzero" fill="#f0f0f0" stroke="none" />
  <path d="M 457.5 4396  A 1.5 1.5 0 0 1 459 4394.5 L 467 4394.5  A 1.5 1.5 0 0 1 468.5 4396 L 468.5 4404  A 1.5 1.5 0 0 1 467 4405.5 L 459 4405.5  A 1.5 1.5 0 0 1 457.5 4404 L 457.5 4396  Z " stroke-width="1" stroke="#797979" fill="none" />
  <path d="M 459.571428571429 4400  L 462.142857142857 4402.57142857143  " stroke-width="2.57142857142857" stroke="#797979" fill="none" />
  <path d="M 462.142857142857 4402.57142857143  L 466.428571428571 4396.57142857143  " stroke-width="2.57142857142857" stroke="#797979" fill="none" />
</svg>