<?xml version="1.0" encoding="utf-8"?>
<svg version="1.1" xmlns:xlink="http://www.w3.org/1999/xlink" width="12px" height="12px" viewBox="456 4303  12 12" xmlns="http://www.w3.org/2000/svg">
  <path d="M 456.5 4305  A 1.5 1.5 0 0 1 458 4303.5 L 466 4303.5  A 1.5 1.5 0 0 1 467.5 4305 L 467.5 4313  A 1.5 1.5 0 0 1 466 4314.5 L 458 4314.5  A 1.5 1.5 0 0 1 456.5 4313 L 456.5 4305  Z " fill-rule="nonzero" fill="#ffffff" stroke="none" />
  <path d="M 456.5 4305  A 1.5 1.5 0 0 1 458 4303.5 L 466 4303.5  A 1.5 1.5 0 0 1 467.5 4305 L 467.5 4313  A 1.5 1.5 0 0 1 466 4314.5 L 458 4314.5  A 1.5 1.5 0 0 1 456.5 4313 L 456.5 4305  Z " stroke-width="1" stroke="#797979" fill="none" />
</svg>