<?xml version="1.0" encoding="utf-8"?>
<svg version="1.1" xmlns:xlink="http://www.w3.org/1999/xlink" width="12px" height="12px" viewBox="811 4396.5  12 12" xmlns="http://www.w3.org/2000/svg">
  <path d="M 817 4396.5  C 820.36 4396.5  823 4399.14  823 4402.5  C 823 4405.86  820.36 4408.5  817 4408.5  C 813.64 4408.5  811 4405.86  811 4402.5  C 811 4399.14  813.64 4396.5  817 4396.5  Z " fill-rule="nonzero" fill="#ffffff" stroke="none" fill-opacity="0" />
  <path d="M 817 4397  C 820.08 4397  822.5 4399.42  822.5 4402.5  C 822.5 4405.58  820.08 4408  817 4408  C 813.92 4408  811.5 4405.58  811.5 4402.5  C 811.5 4399.42  813.92 4397  817 4397  Z " stroke-width="1" stroke="#797979" fill="none" />
  <path d="M 817 4405.5  C 815.32 4405.5  814 4404.18  814 4402.5  C 814 4400.82  815.32 4399.5  817 4399.5  C 818.68 4399.5  820 4400.82  820 4402.5  C 820 4404.18  818.68 4405.5  817 4405.5  " fill-rule="nonzero" fill="#797979" stroke="none" />
</svg>