<?xml version="1.0" encoding="utf-8"?>
<svg version="1.1" xmlns:xlink="http://www.w3.org/1999/xlink" width="12px" height="12px" viewBox="858 4396.5  12 12" xmlns="http://www.w3.org/2000/svg">
  <path d="M 864 4396.5  C 867.36 4396.5  870 4399.14  870 4402.5  C 870 4405.86  867.36 4408.5  864 4408.5  C 860.64 4408.5  858 4405.86  858 4402.5  C 858 4399.14  860.64 4396.5  864 4396.5  Z " fill-rule="nonzero" fill="#f0f0f0" stroke="none" />
  <path d="M 864 4397  C 867.08 4397  869.5 4399.42  869.5 4402.5  C 869.5 4405.58  867.08 4408  864 4408  C 860.92 4408  858.5 4405.58  858.5 4402.5  C 858.5 4399.42  860.92 4397  864 4397  Z " stroke-width="1" stroke="#797979" fill="none" />
  <path d="M 864 4405.5  C 862.32 4405.5  861 4404.18  861 4402.5  C 861 4400.82  862.32 4399.5  864 4399.5  C 865.68 4399.5  867 4400.82  867 4402.5  C 867 4404.18  865.68 4405.5  864 4405.5  " fill-rule="nonzero" fill="#797979" stroke="none" />
</svg>