<?xml version="1.0" encoding="utf-8"?>
<svg version="1.1" xmlns:xlink="http://www.w3.org/1999/xlink" width="12px" height="12px" viewBox="857 4437.5  12 12" xmlns="http://www.w3.org/2000/svg">
  <path d="M 863 4437.5  C 866.36 4437.5  869 4440.14  869 4443.5  C 869 4446.86  866.36 4449.5  863 4449.5  C 859.64 4449.5  857 4446.86  857 4443.5  C 857 4440.14  859.64 4437.5  863 4437.5  Z " fill-rule="nonzero" fill="#f0f0f0" stroke="none" />
  <path d="M 863 4438  C 866.08 4438  868.5 4440.42  868.5 4443.5  C 868.5 4446.58  866.08 4449  863 4449  C 859.92 4449  857.5 4446.58  857.5 4443.5  C 857.5 4440.42  859.92 4438  863 4438  Z " stroke-width="1" stroke="#797979" fill="none" />
  <path d="M 863 4446.5  C 861.32 4446.5  860 4445.18  860 4443.5  C 860 4441.82  861.32 4440.5  863 4440.5  C 864.68 4440.5  866 4441.82  866 4443.5  C 866 4445.18  864.68 4446.5  863 4446.5  " fill-rule="nonzero" fill="#797979" stroke="none" />
</svg>