<?xml version="1.0" encoding="utf-8"?>
<svg version="1.1" xmlns:xlink="http://www.w3.org/1999/xlink" width="12px" height="12px" viewBox="800 3571.5  12 12" xmlns="http://www.w3.org/2000/svg">
  <path d="M 806 3571.5  C 809.36 3571.5  812 3574.14  812 3577.5  C 812 3580.86  809.36 3583.5  806 3583.5  C 802.64 3583.5  800 3580.86  800 3577.5  C 800 3574.14  802.64 3571.5  806 3571.5  Z " fill-rule="nonzero" fill="#f0f0f0" stroke="none" />
  <path d="M 806 3572  C 809.08 3572  811.5 3574.42  811.5 3577.5  C 811.5 3580.58  809.08 3583  806 3583  C 802.92 3583  800.5 3580.58  800.5 3577.5  C 800.5 3574.42  802.92 3572  806 3572  Z " stroke-width="1" stroke="#797979" fill="none" />
  <path d="M 806 3580.5  C 804.32 3580.5  803 3579.18  803 3577.5  C 803 3575.82  804.32 3574.5  806 3574.5  C 807.68 3574.5  809 3575.82  809 3577.5  C 809 3579.18  807.68 3580.5  806 3580.5  " fill-rule="nonzero" fill="#797979" stroke="none" />
</svg>