<?xml version="1.0" encoding="utf-8"?>
<svg version="1.1" xmlns:xlink="http://www.w3.org/1999/xlink" width="12px" height="12px" viewBox="810 4437.5  12 12" xmlns="http://www.w3.org/2000/svg">
  <path d="M 816 4437.5  C 819.36 4437.5  822 4440.14  822 4443.5  C 822 4446.86  819.36 4449.5  816 4449.5  C 812.64 4449.5  810 4446.86  810 4443.5  C 810 4440.14  812.64 4437.5  816 4437.5  Z " fill-rule="nonzero" fill="#f0f0f0" stroke="none" />
  <path d="M 816 4438  C 819.08 4438  821.5 4440.42  821.5 4443.5  C 821.5 4446.58  819.08 4449  816 4449  C 812.92 4449  810.5 4446.58  810.5 4443.5  C 810.5 4440.42  812.92 4438  816 4438  Z " stroke-width="1" stroke="#797979" fill="none" />
  <path d="M 816 4446.5  C 814.32 4446.5  813 4445.18  813 4443.5  C 813 4441.82  814.32 4440.5  816 4440.5  C 817.68 4440.5  819 4441.82  819 4443.5  C 819 4445.18  817.68 4446.5  816 4446.5  " fill-rule="nonzero" fill="#797979" stroke="none" />
</svg>