<?xml version="1.0" encoding="utf-8"?>
<svg version="1.1" xmlns:xlink="http://www.w3.org/1999/xlink" width="12px" height="12px" viewBox="847 3601.5  12 12" xmlns="http://www.w3.org/2000/svg">
  <path d="M 853 3601.5  C 856.36 3601.5  859 3604.14  859 3607.5  C 859 3610.86  856.36 3613.5  853 3613.5  C 849.64 3613.5  847 3610.86  847 3607.5  C 847 3604.14  849.64 3601.5  853 3601.5  Z " fill-rule="nonzero" fill="#f2f2f2" stroke="none" />
  <path d="M 853 3602  C 856.08 3602  858.5 3604.42  858.5 3607.5  C 858.5 3610.58  856.08 3613  853 3613  C 849.92 3613  847.5 3610.58  847.5 3607.5  C 847.5 3604.42  849.92 3602  853 3602  Z " stroke-width="1" stroke="#797979" fill="none" />
  <path d="M 853 3610.5  C 851.32 3610.5  850 3609.18  850 3607.5  C 850 3605.82  851.32 3604.5  853 3604.5  C 854.68 3604.5  856 3605.82  856 3607.5  C 856 3609.18  854.68 3610.5  853 3610.5  " fill-rule="nonzero" fill="#797979" stroke="none" />
</svg>