<?xml version="1.0" encoding="utf-8"?>
<svg version="1.1" xmlns:xlink="http://www.w3.org/1999/xlink" width="12px" height="12px" viewBox="847 3571.5  12 12" xmlns="http://www.w3.org/2000/svg">
  <path d="M 853 3571.5  C 856.36 3571.5  859 3574.14  859 3577.5  C 859 3580.86  856.36 3583.5  853 3583.5  C 849.64 3583.5  847 3580.86  847 3577.5  C 847 3574.14  849.64 3571.5  853 3571.5  Z " fill-rule="nonzero" fill="#f2f2f2" stroke="none" />
  <path d="M 853 3572  C 856.08 3572  858.5 3574.42  858.5 3577.5  C 858.5 3580.58  856.08 3583  853 3583  C 849.92 3583  847.5 3580.58  847.5 3577.5  C 847.5 3574.42  849.92 3572  853 3572  Z " stroke-width="1" stroke="#797979" fill="none" />
  <path d="M 853 3580.5  C 851.32 3580.5  850 3579.18  850 3577.5  C 850 3575.82  851.32 3574.5  853 3574.5  C 854.68 3574.5  856 3575.82  856 3577.5  C 856 3579.18  854.68 3580.5  853 3580.5  " fill-rule="nonzero" fill="#797979" stroke="none" />
</svg>