<?xml version="1.0" encoding="utf-8"?>
<svg version="1.1" xmlns:xlink="http://www.w3.org/1999/xlink" width="12px" height="12px" viewBox="800 3601.5  12 12" xmlns="http://www.w3.org/2000/svg">
  <path d="M 806 3601.5  C 809.36 3601.5  812 3604.14  812 3607.5  C 812 3610.86  809.36 3613.5  806 3613.5  C 802.64 3613.5  800 3610.86  800 3607.5  C 800 3604.14  802.64 3601.5  806 3601.5  Z " fill-rule="nonzero" fill="#f2f2f2" stroke="none" />
  <path d="M 806 3602  C 809.08 3602  811.5 3604.42  811.5 3607.5  C 811.5 3610.58  809.08 3613  806 3613  C 802.92 3613  800.5 3610.58  800.5 3607.5  C 800.5 3604.42  802.92 3602  806 3602  Z " stroke-width="1" stroke="#797979" fill="none" />
  <path d="M 806 3610.5  C 804.32 3610.5  803 3609.18  803 3607.5  C 803 3605.82  804.32 3604.5  806 3604.5  C 807.68 3604.5  809 3605.82  809 3607.5  C 809 3609.18  807.68 3610.5  806 3610.5  " fill-rule="nonzero" fill="#797979" stroke="none" />
</svg>