<?xml version="1.0" encoding="utf-8"?>
<svg version="1.1" xmlns:xlink="http://www.w3.org/1999/xlink" width="12px" height="12px" viewBox="847 6103.5  12 12" xmlns="http://www.w3.org/2000/svg">
  <path d="M 853 6103.5  C 856.36 6103.5  859 6106.14  859 6109.5  C 859 6112.86  856.36 6115.5  853 6115.5  C 849.64 6115.5  847 6112.86  847 6109.5  C 847 6106.14  849.64 6103.5  853 6103.5  Z " fill-rule="nonzero" fill="#ffffff" stroke="none" />
  <path d="M 853 6104  C 856.08 6104  858.5 6106.42  858.5 6109.5  C 858.5 6112.58  856.08 6115  853 6115  C 849.92 6115  847.5 6112.58  847.5 6109.5  C 847.5 6106.42  849.92 6104  853 6104  Z " stroke-width="1" stroke="#797979" fill="none" />
  <path d="M 853 6112.5  C 851.32 6112.5  850 6111.18  850 6109.5  C 850 6107.82  851.32 6106.5  853 6106.5  C 854.68 6106.5  856 6107.82  856 6109.5  C 856 6111.18  854.68 6112.5  853 6112.5  " fill-rule="nonzero" fill="#797979" stroke="none" />
</svg>