<?xml version="1.0" encoding="utf-8"?>
<svg version="1.1" xmlns:xlink="http://www.w3.org/1999/xlink" width="12px" height="12px" viewBox="846 6189.5  12 12" xmlns="http://www.w3.org/2000/svg">
  <path d="M 852 6189.5  C 855.36 6189.5  858 6192.14  858 6195.5  C 858 6198.86  855.36 6201.5  852 6201.5  C 848.64 6201.5  846 6198.86  846 6195.5  C 846 6192.14  848.64 6189.5  852 6189.5  Z " fill-rule="nonzero" fill="#ffffff" stroke="none" />
  <path d="M 852 6190  C 855.08 6190  857.5 6192.42  857.5 6195.5  C 857.5 6198.58  855.08 6201  852 6201  C 848.92 6201  846.5 6198.58  846.5 6195.5  C 846.5 6192.42  848.92 6190  852 6190  Z " stroke-width="1" stroke="#797979" fill="none" />
  <path d="M 852 6198.5  C 850.32 6198.5  849 6197.18  849 6195.5  C 849 6193.82  850.32 6192.5  852 6192.5  C 853.68 6192.5  855 6193.82  855 6195.5  C 855 6197.18  853.68 6198.5  852 6198.5  " fill-rule="nonzero" fill="#797979" stroke="none" />
</svg>