<?xml version="1.0" encoding="utf-8"?>
<svg version="1.1" xmlns:xlink="http://www.w3.org/1999/xlink" width="12px" height="12px" viewBox="799 6148.5  12 12" xmlns="http://www.w3.org/2000/svg">
  <path d="M 805 6148.5  C 808.36 6148.5  811 6151.14  811 6154.5  C 811 6157.86  808.36 6160.5  805 6160.5  C 801.64 6160.5  799 6157.86  799 6154.5  C 799 6151.14  801.64 6148.5  805 6148.5  Z " fill-rule="nonzero" fill="#ffffff" stroke="none" />
  <path d="M 805 6149  C 808.08 6149  810.5 6151.42  810.5 6154.5  C 810.5 6157.58  808.08 6160  805 6160  C 801.92 6160  799.5 6157.58  799.5 6154.5  C 799.5 6151.42  801.92 6149  805 6149  Z " stroke-width="1" stroke="#797979" fill="none" />
  <path d="M 805 6157.5  C 803.32 6157.5  802 6156.18  802 6154.5  C 802 6152.82  803.32 6151.5  805 6151.5  C 806.68 6151.5  808 6152.82  808 6154.5  C 808 6156.18  806.68 6157.5  805 6157.5  " fill-rule="nonzero" fill="#797979" stroke="none" />
</svg>