<?xml version="1.0" encoding="utf-8"?>
<svg version="1.1" xmlns:xlink="http://www.w3.org/1999/xlink" width="12px" height="12px" viewBox="445 6187  12 12" xmlns="http://www.w3.org/2000/svg">
  <path d="M 445.5 6189  A 1.5 1.5 0 0 1 447 6187.5 L 455 6187.5  A 1.5 1.5 0 0 1 456.5 6189 L 456.5 6197  A 1.5 1.5 0 0 1 455 6198.5 L 447 6198.5  A 1.5 1.5 0 0 1 445.5 6197 L 445.5 6189  Z " fill-rule="nonzero" fill="#f0f0f0" stroke="none" />
  <path d="M 445.5 6189  A 1.5 1.5 0 0 1 447 6187.5 L 455 6187.5  A 1.5 1.5 0 0 1 456.5 6189 L 456.5 6197  A 1.5 1.5 0 0 1 455 6198.5 L 447 6198.5  A 1.5 1.5 0 0 1 445.5 6197 L 445.5 6189  Z " stroke-width="1" stroke="#797979" fill="none" />
  <path d="M 447.571428571429 6193  L 450.142857142857 6195.57142857143  " stroke-width="2.57142857142857" stroke="#797979" fill="none" />
  <path d="M 450.142857142857 6195.57142857143  L 454.428571428571 6189.57142857143  " stroke-width="2.57142857142857" stroke="#797979" fill="none" />
</svg>