<?xml version="1.0" encoding="utf-8"?>
<svg version="1.1" xmlns:xlink="http://www.w3.org/1999/xlink" width="12px" height="12px" viewBox="846 6148.5  12 12" xmlns="http://www.w3.org/2000/svg">
  <path d="M 852 6148.5  C 855.36 6148.5  858 6151.14  858 6154.5  C 858 6157.86  855.36 6160.5  852 6160.5  C 848.64 6160.5  846 6157.86  846 6154.5  C 846 6151.14  848.64 6148.5  852 6148.5  Z " fill-rule="nonzero" fill="#ffffff" stroke="none" />
  <path d="M 852 6149  C 855.08 6149  857.5 6151.42  857.5 6154.5  C 857.5 6157.58  855.08 6160  852 6160  C 848.92 6160  846.5 6157.58  846.5 6154.5  C 846.5 6151.42  848.92 6149  852 6149  Z " stroke-width="1" stroke="#797979" fill="none" />
  <path d="M 852 6157.5  C 850.32 6157.5  849 6156.18  849 6154.5  C 849 6152.82  850.32 6151.5  852 6151.5  C 853.68 6151.5  855 6152.82  855 6154.5  C 855 6156.18  853.68 6157.5  852 6157.5  " fill-rule="nonzero" fill="#797979" stroke="none" />
</svg>