<?xml version="1.0" encoding="utf-8"?>
<svg version="1.1" xmlns:xlink="http://www.w3.org/1999/xlink" width="12px" height="12px" viewBox="801 6276.5  12 12" xmlns="http://www.w3.org/2000/svg">
  <path d="M 807 6276.5  C 810.36 6276.5  813 6279.14  813 6282.5  C 813 6285.86  810.36 6288.5  807 6288.5  C 803.64 6288.5  801 6285.86  801 6282.5  C 801 6279.14  803.64 6276.5  807 6276.5  Z " fill-rule="nonzero" fill="#ffffff" stroke="none" />
  <path d="M 807 6277  C 810.08 6277  812.5 6279.42  812.5 6282.5  C 812.5 6285.58  810.08 6288  807 6288  C 803.92 6288  801.5 6285.58  801.5 6282.5  C 801.5 6279.42  803.92 6277  807 6277  Z " stroke-width="1" stroke="#797979" fill="none" />
  <path d="M 807 6285.5  C 805.32 6285.5  804 6284.18  804 6282.5  C 804 6280.82  805.32 6279.5  807 6279.5  C 808.68 6279.5  810 6280.82  810 6282.5  C 810 6284.18  808.68 6285.5  807 6285.5  " fill-rule="nonzero" fill="#797979" stroke="none" />
</svg>