<?xml version="1.0" encoding="utf-8"?>
<svg version="1.1" xmlns:xlink="http://www.w3.org/1999/xlink" width="12px" height="12px" viewBox="801 6236.5  12 12" xmlns="http://www.w3.org/2000/svg">
  <path d="M 807 6236.5  C 810.36 6236.5  813 6239.14  813 6242.5  C 813 6245.86  810.36 6248.5  807 6248.5  C 803.64 6248.5  801 6245.86  801 6242.5  C 801 6239.14  803.64 6236.5  807 6236.5  Z " fill-rule="nonzero" fill="#f0f0f0" stroke="none" />
  <path d="M 807 6237  C 810.08 6237  812.5 6239.42  812.5 6242.5  C 812.5 6245.58  810.08 6248  807 6248  C 803.92 6248  801.5 6245.58  801.5 6242.5  C 801.5 6239.42  803.92 6237  807 6237  Z " stroke-width="1" stroke="#797979" fill="none" />
  <path d="M 807 6245.5  C 805.32 6245.5  804 6244.18  804 6242.5  C 804 6240.82  805.32 6239.5  807 6239.5  C 808.68 6239.5  810 6240.82  810 6242.5  C 810 6244.18  808.68 6245.5  807 6245.5  " fill-rule="nonzero" fill="#797979" stroke="none" />
</svg>