<?xml version="1.0" encoding="utf-8"?>
<svg version="1.1" xmlns:xlink="http://www.w3.org/1999/xlink" width="12px" height="12px" viewBox="848 6276.5  12 12" xmlns="http://www.w3.org/2000/svg">
  <path d="M 854 6276.5  C 857.36 6276.5  860 6279.14  860 6282.5  C 860 6285.86  857.36 6288.5  854 6288.5  C 850.64 6288.5  848 6285.86  848 6282.5  C 848 6279.14  850.64 6276.5  854 6276.5  Z " fill-rule="nonzero" fill="#ffffff" stroke="none" />
  <path d="M 854 6277  C 857.08 6277  859.5 6279.42  859.5 6282.5  C 859.5 6285.58  857.08 6288  854 6288  C 850.92 6288  848.5 6285.58  848.5 6282.5  C 848.5 6279.42  850.92 6277  854 6277  Z " stroke-width="1" stroke="#797979" fill="none" />
  <path d="M 854 6285.5  C 852.32 6285.5  851 6284.18  851 6282.5  C 851 6280.82  852.32 6279.5  854 6279.5  C 855.68 6279.5  857 6280.82  857 6282.5  C 857 6284.18  855.68 6285.5  854 6285.5  " fill-rule="nonzero" fill="#797979" stroke="none" />
</svg>