<?xml version="1.0" encoding="utf-8"?>
<svg version="1.1" xmlns:xlink="http://www.w3.org/1999/xlink" width="12px" height="12px" viewBox="800 6412.5  12 12" xmlns="http://www.w3.org/2000/svg">
  <path d="M 806 6412.5  C 809.36 6412.5  812 6415.14  812 6418.5  C 812 6421.86  809.36 6424.5  806 6424.5  C 802.64 6424.5  800 6421.86  800 6418.5  C 800 6415.14  802.64 6412.5  806 6412.5  Z " fill-rule="nonzero" fill="#f0f0f0" stroke="none" />
  <path d="M 806 6413  C 809.08 6413  811.5 6415.42  811.5 6418.5  C 811.5 6421.58  809.08 6424  806 6424  C 802.92 6424  800.5 6421.58  800.5 6418.5  C 800.5 6415.42  802.92 6413  806 6413  Z " stroke-width="1" stroke="#797979" fill="none" />
  <path d="M 806 6421.5  C 804.32 6421.5  803 6420.18  803 6418.5  C 803 6416.82  804.32 6415.5  806 6415.5  C 807.68 6415.5  809 6416.82  809 6418.5  C 809 6420.18  807.68 6421.5  806 6421.5  " fill-rule="nonzero" fill="#797979" stroke="none" />
</svg>