<?xml version="1.0" encoding="utf-8"?>
<svg version="1.1" xmlns:xlink="http://www.w3.org/1999/xlink" width="12px" height="12px" viewBox="800 6487.5  12 12" xmlns="http://www.w3.org/2000/svg">
  <path d="M 806 6487.5  C 809.36 6487.5  812 6490.14  812 6493.5  C 812 6496.86  809.36 6499.5  806 6499.5  C 802.64 6499.5  800 6496.86  800 6493.5  C 800 6490.14  802.64 6487.5  806 6487.5  Z " fill-rule="nonzero" fill="#f0f0f0" stroke="none" />
  <path d="M 806 6488  C 809.08 6488  811.5 6490.42  811.5 6493.5  C 811.5 6496.58  809.08 6499  806 6499  C 802.92 6499  800.5 6496.58  800.5 6493.5  C 800.5 6490.42  802.92 6488  806 6488  Z " stroke-width="1" stroke="#797979" fill="none" />
  <path d="M 806 6496.5  C 804.32 6496.5  803 6495.18  803 6493.5  C 803 6491.82  804.32 6490.5  806 6490.5  C 807.68 6490.5  809 6491.82  809 6493.5  C 809 6495.18  807.68 6496.5  806 6496.5  " fill-rule="nonzero" fill="#797979" stroke="none" />
</svg>