<?xml version="1.0" encoding="utf-8"?>
<svg version="1.1" xmlns:xlink="http://www.w3.org/1999/xlink" width="12px" height="12px" viewBox="847 6487.5  12 12" xmlns="http://www.w3.org/2000/svg">
  <path d="M 853 6487.5  C 856.36 6487.5  859 6490.14  859 6493.5  C 859 6496.86  856.36 6499.5  853 6499.5  C 849.64 6499.5  847 6496.86  847 6493.5  C 847 6490.14  849.64 6487.5  853 6487.5  Z " fill-rule="nonzero" fill="#f0f0f0" stroke="none" />
  <path d="M 853 6488  C 856.08 6488  858.5 6490.42  858.5 6493.5  C 858.5 6496.58  856.08 6499  853 6499  C 849.92 6499  847.5 6496.58  847.5 6493.5  C 847.5 6490.42  849.92 6488  853 6488  Z " stroke-width="1" stroke="#797979" fill="none" />
  <path d="M 853 6496.5  C 851.32 6496.5  850 6495.18  850 6493.5  C 850 6491.82  851.32 6490.5  853 6490.5  C 854.68 6490.5  856 6491.82  856 6493.5  C 856 6495.18  854.68 6496.5  853 6496.5  " fill-rule="nonzero" fill="#797979" stroke="none" />
</svg>