<?xml version="1.0" encoding="utf-8"?>
<svg version="1.1" xmlns:xlink="http://www.w3.org/1999/xlink" width="12px" height="12px" viewBox="800 6529.5  12 12" xmlns="http://www.w3.org/2000/svg">
  <path d="M 806 6529.5  C 809.36 6529.5  812 6532.14  812 6535.5  C 812 6538.86  809.36 6541.5  806 6541.5  C 802.64 6541.5  800 6538.86  800 6535.5  C 800 6532.14  802.64 6529.5  806 6529.5  Z " fill-rule="nonzero" fill="#f0f0f0" stroke="none" />
  <path d="M 806 6530  C 809.08 6530  811.5 6532.42  811.5 6535.5  C 811.5 6538.58  809.08 6541  806 6541  C 802.92 6541  800.5 6538.58  800.5 6535.5  C 800.5 6532.42  802.92 6530  806 6530  Z " stroke-width="1" stroke="#797979" fill="none" />
  <path d="M 806 6538.5  C 804.32 6538.5  803 6537.18  803 6535.5  C 803 6533.82  804.32 6532.5  806 6532.5  C 807.68 6532.5  809 6533.82  809 6535.5  C 809 6537.18  807.68 6538.5  806 6538.5  " fill-rule="nonzero" fill="#797979" stroke="none" />
</svg>