<?xml version="1.0" encoding="utf-8"?>
<svg version="1.1" xmlns:xlink="http://www.w3.org/1999/xlink" width="12px" height="12px" viewBox="448 6527  12 12" xmlns="http://www.w3.org/2000/svg">
  <path d="M 448.5 6529  A 1.5 1.5 0 0 1 450 6527.5 L 458 6527.5  A 1.5 1.5 0 0 1 459.5 6529 L 459.5 6537  A 1.5 1.5 0 0 1 458 6538.5 L 450 6538.5  A 1.5 1.5 0 0 1 448.5 6537 L 448.5 6529  Z " fill-rule="nonzero" fill="#ffffff" stroke="none" />
  <path d="M 448.5 6529  A 1.5 1.5 0 0 1 450 6527.5 L 458 6527.5  A 1.5 1.5 0 0 1 459.5 6529 L 459.5 6537  A 1.5 1.5 0 0 1 458 6538.5 L 450 6538.5  A 1.5 1.5 0 0 1 448.5 6537 L 448.5 6529  Z " stroke-width="1" stroke="#797979" fill="none" />
  <path d="M 450.571428571429 6533  L 453.142857142857 6535.57142857143  " stroke-width="2.57142857142857" stroke="#797979" fill="none" />
  <path d="M 453.142857142857 6535.57142857143  L 457.428571428571 6529.57142857143  " stroke-width="2.57142857142857" stroke="#797979" fill="none" />
</svg>