<?xml version="1.0" encoding="utf-8"?>
<svg version="1.1" xmlns:xlink="http://www.w3.org/1999/xlink" width="12px" height="12px" viewBox="847 6529.5  12 12" xmlns="http://www.w3.org/2000/svg">
  <path d="M 853 6529.5  C 856.36 6529.5  859 6532.14  859 6535.5  C 859 6538.86  856.36 6541.5  853 6541.5  C 849.64 6541.5  847 6538.86  847 6535.5  C 847 6532.14  849.64 6529.5  853 6529.5  Z " fill-rule="nonzero" fill="#f0f0f0" stroke="none" />
  <path d="M 853 6530  C 856.08 6530  858.5 6532.42  858.5 6535.5  C 858.5 6538.58  856.08 6541  853 6541  C 849.92 6541  847.5 6538.58  847.5 6535.5  C 847.5 6532.42  849.92 6530  853 6530  Z " stroke-width="1" stroke="#797979" fill="none" />
  <path d="M 853 6538.5  C 851.32 6538.5  850 6537.18  850 6535.5  C 850 6533.82  851.32 6532.5  853 6532.5  C 854.68 6532.5  856 6533.82  856 6535.5  C 856 6537.18  854.68 6538.5  853 6538.5  " fill-rule="nonzero" fill="#797979" stroke="none" />
</svg>