<?xml version="1.0" encoding="utf-8"?>
<svg version="1.1" xmlns:xlink="http://www.w3.org/1999/xlink" width="12px" height="12px" viewBox="847 4541.5  12 12" xmlns="http://www.w3.org/2000/svg">
  <path d="M 853 4541.5  C 856.36 4541.5  859 4544.14  859 4547.5  C 859 4550.86  856.36 4553.5  853 4553.5  C 849.64 4553.5  847 4550.86  847 4547.5  C 847 4544.14  849.64 4541.5  853 4541.5  Z " fill-rule="nonzero" fill="#ffffff" stroke="none" />
  <path d="M 853 4542  C 856.08 4542  858.5 4544.42  858.5 4547.5  C 858.5 4550.58  856.08 4553  853 4553  C 849.92 4553  847.5 4550.58  847.5 4547.5  C 847.5 4544.42  849.92 4542  853 4542  Z " stroke-width="1" stroke="#797979" fill="none" />
  <path d="M 853 4550.5  C 851.32 4550.5  850 4549.18  850 4547.5  C 850 4545.82  851.32 4544.5  853 4544.5  C 854.68 4544.5  856 4545.82  856 4547.5  C 856 4549.18  854.68 4550.5  853 4550.5  " fill-rule="nonzero" fill="#797979" stroke="none" />
</svg>