<?xml version="1.0" encoding="utf-8"?>
<svg version="1.1" xmlns:xlink="http://www.w3.org/1999/xlink" width="12px" height="12px" viewBox="800 4541.5  12 12" xmlns="http://www.w3.org/2000/svg">
  <path d="M 806 4541.5  C 809.36 4541.5  812 4544.14  812 4547.5  C 812 4550.86  809.36 4553.5  806 4553.5  C 802.64 4553.5  800 4550.86  800 4547.5  C 800 4544.14  802.64 4541.5  806 4541.5  Z " fill-rule="nonzero" fill="#ffffff" stroke="none" />
  <path d="M 806 4542  C 809.08 4542  811.5 4544.42  811.5 4547.5  C 811.5 4550.58  809.08 4553  806 4553  C 802.92 4553  800.5 4550.58  800.5 4547.5  C 800.5 4544.42  802.92 4542  806 4542  Z " stroke-width="1" stroke="#797979" fill="none" />
  <path d="M 806 4550.5  C 804.32 4550.5  803 4549.18  803 4547.5  C 803 4545.82  804.32 4544.5  806 4544.5  C 807.68 4544.5  809 4545.82  809 4547.5  C 809 4549.18  807.68 4550.5  806 4550.5  " fill-rule="nonzero" fill="#797979" stroke="none" />
</svg>