<?xml version="1.0" encoding="utf-8"?>
<svg version="1.1" xmlns:xlink="http://www.w3.org/1999/xlink" width="12px" height="12px" viewBox="846 4626.5  12 12" xmlns="http://www.w3.org/2000/svg">
  <path d="M 852 4626.5  C 855.36 4626.5  858 4629.14  858 4632.5  C 858 4635.86  855.36 4638.5  852 4638.5  C 848.64 4638.5  846 4635.86  846 4632.5  C 846 4629.14  848.64 4626.5  852 4626.5  Z " fill-rule="nonzero" fill="#f0f0f0" stroke="none" />
  <path d="M 852 4627  C 855.08 4627  857.5 4629.42  857.5 4632.5  C 857.5 4635.58  855.08 4638  852 4638  C 848.92 4638  846.5 4635.58  846.5 4632.5  C 846.5 4629.42  848.92 4627  852 4627  Z " stroke-width="1" stroke="#797979" fill="none" />
  <path d="M 852 4635.5  C 850.32 4635.5  849 4634.18  849 4632.5  C 849 4630.82  850.32 4629.5  852 4629.5  C 853.68 4629.5  855 4630.82  855 4632.5  C 855 4634.18  853.68 4635.5  852 4635.5  " fill-rule="nonzero" fill="#797979" stroke="none" />
</svg>