<?xml version="1.0" encoding="utf-8"?>
<svg version="1.1" xmlns:xlink="http://www.w3.org/1999/xlink" width="12px" height="12px" viewBox="799 4626.5  12 12" xmlns="http://www.w3.org/2000/svg">
  <path d="M 805 4626.5  C 808.36 4626.5  811 4629.14  811 4632.5  C 811 4635.86  808.36 4638.5  805 4638.5  C 801.64 4638.5  799 4635.86  799 4632.5  C 799 4629.14  801.64 4626.5  805 4626.5  Z " fill-rule="nonzero" fill="#f0f0f0" stroke="none" />
  <path d="M 805 4627  C 808.08 4627  810.5 4629.42  810.5 4632.5  C 810.5 4635.58  808.08 4638  805 4638  C 801.92 4638  799.5 4635.58  799.5 4632.5  C 799.5 4629.42  801.92 4627  805 4627  Z " stroke-width="1" stroke="#797979" fill="none" />
  <path d="M 805 4635.5  C 803.32 4635.5  802 4634.18  802 4632.5  C 802 4630.82  803.32 4629.5  805 4629.5  C 806.68 4629.5  808 4630.82  808 4632.5  C 808 4634.18  806.68 4635.5  805 4635.5  " fill-rule="nonzero" fill="#797979" stroke="none" />
</svg>