<?xml version="1.0" encoding="utf-8"?>
<svg version="1.1" xmlns:xlink="http://www.w3.org/1999/xlink" width="12px" height="12px" viewBox="445 4625  12 12" xmlns="http://www.w3.org/2000/svg">
  <path d="M 445.5 4627  A 1.5 1.5 0 0 1 447 4625.5 L 455 4625.5  A 1.5 1.5 0 0 1 456.5 4627 L 456.5 4635  A 1.5 1.5 0 0 1 455 4636.5 L 447 4636.5  A 1.5 1.5 0 0 1 445.5 4635 L 445.5 4627  Z " fill-rule="nonzero" fill="#f0f0f0" stroke="none" />
  <path d="M 445.5 4627  A 1.5 1.5 0 0 1 447 4625.5 L 455 4625.5  A 1.5 1.5 0 0 1 456.5 4627 L 456.5 4635  A 1.5 1.5 0 0 1 455 4636.5 L 447 4636.5  A 1.5 1.5 0 0 1 445.5 4635 L 445.5 4627  Z " stroke-width="1" stroke="#797979" fill="none" />
  <path d="M 447.571428571429 4631  L 450.142857142857 4633.57142857143  " stroke-width="2.57142857142857" stroke="#797979" fill="none" />
  <path d="M 450.142857142857 4633.57142857143  L 454.428571428571 4627.57142857143  " stroke-width="2.57142857142857" stroke="#797979" fill="none" />
</svg>