<?xml version="1.0" encoding="utf-8"?>
<svg version="1.1" xmlns:xlink="http://www.w3.org/1999/xlink" width="12px" height="12px" viewBox="846 4828.5  12 12" xmlns="http://www.w3.org/2000/svg">
  <path d="M 852 4828.5  C 855.36 4828.5  858 4831.14  858 4834.5  C 858 4837.86  855.36 4840.5  852 4840.5  C 848.64 4840.5  846 4837.86  846 4834.5  C 846 4831.14  848.64 4828.5  852 4828.5  Z " fill-rule="nonzero" fill="#f0f0f0" stroke="none" />
  <path d="M 852 4829  C 855.08 4829  857.5 4831.42  857.5 4834.5  C 857.5 4837.58  855.08 4840  852 4840  C 848.92 4840  846.5 4837.58  846.5 4834.5  C 846.5 4831.42  848.92 4829  852 4829  Z " stroke-width="1" stroke="#797979" fill="none" />
  <path d="M 852 4837.5  C 850.32 4837.5  849 4836.18  849 4834.5  C 849 4832.82  850.32 4831.5  852 4831.5  C 853.68 4831.5  855 4832.82  855 4834.5  C 855 4836.18  853.68 4837.5  852 4837.5  " fill-rule="nonzero" fill="#797979" stroke="none" />
</svg>