<?xml version="1.0" encoding="utf-8"?>
<svg version="1.1" xmlns:xlink="http://www.w3.org/1999/xlink" width="12px" height="12px" viewBox="846 4787.5  12 12" xmlns="http://www.w3.org/2000/svg">
  <path d="M 852 4787.5  C 855.36 4787.5  858 4790.14  858 4793.5  C 858 4796.86  855.36 4799.5  852 4799.5  C 848.64 4799.5  846 4796.86  846 4793.5  C 846 4790.14  848.64 4787.5  852 4787.5  Z " fill-rule="nonzero" fill="#f0f0f0" stroke="none" />
  <path d="M 852 4788  C 855.08 4788  857.5 4790.42  857.5 4793.5  C 857.5 4796.58  855.08 4799  852 4799  C 848.92 4799  846.5 4796.58  846.5 4793.5  C 846.5 4790.42  848.92 4788  852 4788  Z " stroke-width="1" stroke="#797979" fill="none" />
  <path d="M 852 4796.5  C 850.32 4796.5  849 4795.18  849 4793.5  C 849 4791.82  850.32 4790.5  852 4790.5  C 853.68 4790.5  855 4791.82  855 4793.5  C 855 4795.18  853.68 4796.5  852 4796.5  " fill-rule="nonzero" fill="#797979" stroke="none" />
</svg>