<?xml version="1.0" encoding="utf-8"?>
<svg version="1.1" xmlns:xlink="http://www.w3.org/1999/xlink" width="12px" height="12px" viewBox="221 5240  12 12" xmlns="http://www.w3.org/2000/svg">
  <path d="M 221.5 5242  A 1.5 1.5 0 0 1 223 5240.5 L 231 5240.5  A 1.5 1.5 0 0 1 232.5 5242 L 232.5 5250  A 1.5 1.5 0 0 1 231 5251.5 L 223 5251.5  A 1.5 1.5 0 0 1 221.5 5250 L 221.5 5242  Z " fill-rule="nonzero" fill="#ffffff" stroke="none" />
  <path d="M 221.5 5242  A 1.5 1.5 0 0 1 223 5240.5 L 231 5240.5  A 1.5 1.5 0 0 1 232.5 5242 L 232.5 5250  A 1.5 1.5 0 0 1 231 5251.5 L 223 5251.5  A 1.5 1.5 0 0 1 221.5 5250 L 221.5 5242  Z " stroke-width="1" stroke="#797979" fill="none" />
  <path d="M 223.571428571429 5246  L 226.142857142857 5248.57142857143  " stroke-width="2.57142857142857" stroke="#797979" fill="none" />
  <path d="M 226.142857142857 5248.57142857143  L 230.428571428571 5242.57142857143  " stroke-width="2.57142857142857" stroke="#797979" fill="none" />
</svg>