<?xml version="1.0" encoding="utf-8"?>
<svg version="1.1" xmlns:xlink="http://www.w3.org/1999/xlink" width="12px" height="12px" viewBox="845 4873.5  12 12" xmlns="http://www.w3.org/2000/svg">
  <path d="M 851 4873.5  C 854.36 4873.5  857 4876.14  857 4879.5  C 857 4882.86  854.36 4885.5  851 4885.5  C 847.64 4885.5  845 4882.86  845 4879.5  C 845 4876.14  847.64 4873.5  851 4873.5  Z " fill-rule="nonzero" fill="#f0f0f0" stroke="none" />
  <path d="M 851 4874  C 854.08 4874  856.5 4876.42  856.5 4879.5  C 856.5 4882.58  854.08 4885  851 4885  C 847.92 4885  845.5 4882.58  845.5 4879.5  C 845.5 4876.42  847.92 4874  851 4874  Z " stroke-width="1" stroke="#797979" fill="none" />
  <path d="M 851 4882.5  C 849.32 4882.5  848 4881.18  848 4879.5  C 848 4877.82  849.32 4876.5  851 4876.5  C 852.68 4876.5  854 4877.82  854 4879.5  C 854 4881.18  852.68 4882.5  851 4882.5  " fill-rule="nonzero" fill="#797979" stroke="none" />
</svg>