<?xml version="1.0" encoding="utf-8"?>
<svg version="1.1" xmlns:xlink="http://www.w3.org/1999/xlink" width="12px" height="12px" viewBox="444 4682  12 12" xmlns="http://www.w3.org/2000/svg">
  <path d="M 444.5 4684  A 1.5 1.5 0 0 1 446 4682.5 L 454 4682.5  A 1.5 1.5 0 0 1 455.5 4684 L 455.5 4692  A 1.5 1.5 0 0 1 454 4693.5 L 446 4693.5  A 1.5 1.5 0 0 1 444.5 4692 L 444.5 4684  Z " fill-rule="nonzero" fill="#ffffff" stroke="none" />
  <path d="M 444.5 4684  A 1.5 1.5 0 0 1 446 4682.5 L 454 4682.5  A 1.5 1.5 0 0 1 455.5 4684 L 455.5 4692  A 1.5 1.5 0 0 1 454 4693.5 L 446 4693.5  A 1.5 1.5 0 0 1 444.5 4692 L 444.5 4684  Z " stroke-width="1" stroke="#797979" fill="none" />
  <path d="M 446.571428571429 4688  L 449.142857142857 4690.57142857143  " stroke-width="2.57142857142857" stroke="#797979" fill="none" />
  <path d="M 449.142857142857 4690.57142857143  L 453.428571428571 4684.57142857143  " stroke-width="2.57142857142857" stroke="#797979" fill="none" />
</svg>