<?xml version="1.0" encoding="utf-8"?>
<svg version="1.1" xmlns:xlink="http://www.w3.org/1999/xlink" width="12px" height="12px" viewBox="881 4686  12 12" xmlns="http://www.w3.org/2000/svg">
  <path d="M 887 4686  C 890.36 4686  893 4688.64  893 4692  C 893 4695.36  890.36 4698  887 4698  C 883.64 4698  881 4695.36  881 4692  C 881 4688.64  883.64 4686  887 4686  Z " fill-rule="nonzero" fill="#ffffff" stroke="none" />
  <path d="M 887 4686.5  C 890.08 4686.5  892.5 4688.92  892.5 4692  C 892.5 4695.08  890.08 4697.5  887 4697.5  C 883.92 4697.5  881.5 4695.08  881.5 4692  C 881.5 4688.92  883.92 4686.5  887 4686.5  Z " stroke-width="1" stroke="#797979" fill="none" />
  <path d="M 887 4695  C 885.32 4695  884 4693.68  884 4692  C 884 4690.32  885.32 4689  887 4689  C 888.68 4689  890 4690.32  890 4692  C 890 4693.68  888.68 4695  887 4695  " fill-rule="nonzero" fill="#797979" stroke="none" />
</svg>