<?xml version="1.0" encoding="utf-8"?>
<svg version="1.1" xmlns:xlink="http://www.w3.org/1999/xlink" width="12px" height="12px" viewBox="442 4720  12 12" xmlns="http://www.w3.org/2000/svg">
  <path d="M 442.5 4722  A 1.5 1.5 0 0 1 444 4720.5 L 452 4720.5  A 1.5 1.5 0 0 1 453.5 4722 L 453.5 4730  A 1.5 1.5 0 0 1 452 4731.5 L 444 4731.5  A 1.5 1.5 0 0 1 442.5 4730 L 442.5 4722  Z " fill-rule="nonzero" fill="#f0f0f0" stroke="none" />
  <path d="M 442.5 4722  A 1.5 1.5 0 0 1 444 4720.5 L 452 4720.5  A 1.5 1.5 0 0 1 453.5 4722 L 453.5 4730  A 1.5 1.5 0 0 1 452 4731.5 L 444 4731.5  A 1.5 1.5 0 0 1 442.5 4730 L 442.5 4722  Z " stroke-width="1" stroke="#797979" fill="none" />
  <path d="M 444.571428571429 4726  L 447.142857142857 4728.57142857143  " stroke-width="2.57142857142857" stroke="#797979" fill="none" />
  <path d="M 447.142857142857 4728.57142857143  L 451.428571428571 4722.57142857143  " stroke-width="2.57142857142857" stroke="#797979" fill="none" />
</svg>