<?xml version="1.0" encoding="utf-8"?>
<svg version="1.1" xmlns:xlink="http://www.w3.org/1999/xlink" width="12px" height="12px" viewBox="799 5018.5  12 12" xmlns="http://www.w3.org/2000/svg">
  <path d="M 805 5018.5  C 808.36 5018.5  811 5021.14  811 5024.5  C 811 5027.86  808.36 5030.5  805 5030.5  C 801.64 5030.5  799 5027.86  799 5024.5  C 799 5021.14  801.64 5018.5  805 5018.5  Z " fill-rule="nonzero" fill="#f0f0f0" stroke="none" />
  <path d="M 805 5019  C 808.08 5019  810.5 5021.42  810.5 5024.5  C 810.5 5027.58  808.08 5030  805 5030  C 801.92 5030  799.5 5027.58  799.5 5024.5  C 799.5 5021.42  801.92 5019  805 5019  Z " stroke-width="1" stroke="#797979" fill="none" />
  <path d="M 805 5027.5  C 803.32 5027.5  802 5026.18  802 5024.5  C 802 5022.82  803.32 5021.5  805 5021.5  C 806.68 5021.5  808 5022.82  808 5024.5  C 808 5026.18  806.68 5027.5  805 5027.5  " fill-rule="nonzero" fill="#797979" stroke="none" />
</svg>