<?xml version="1.0" encoding="utf-8"?>
<svg version="1.1" xmlns:xlink="http://www.w3.org/1999/xlink" width="12px" height="12px" viewBox="799 5055.5  12 12" xmlns="http://www.w3.org/2000/svg">
  <path d="M 805 5055.5  C 808.36 5055.5  811 5058.14  811 5061.5  C 811 5064.86  808.36 5067.5  805 5067.5  C 801.64 5067.5  799 5064.86  799 5061.5  C 799 5058.14  801.64 5055.5  805 5055.5  Z " fill-rule="nonzero" fill="#f0f0f0" stroke="none" />
  <path d="M 805 5056  C 808.08 5056  810.5 5058.42  810.5 5061.5  C 810.5 5064.58  808.08 5067  805 5067  C 801.92 5067  799.5 5064.58  799.5 5061.5  C 799.5 5058.42  801.92 5056  805 5056  Z " stroke-width="1" stroke="#797979" fill="none" />
  <path d="M 805 5064.5  C 803.32 5064.5  802 5063.18  802 5061.5  C 802 5059.82  803.32 5058.5  805 5058.5  C 806.68 5058.5  808 5059.82  808 5061.5  C 808 5063.18  806.68 5064.5  805 5064.5  " fill-rule="nonzero" fill="#797979" stroke="none" />
</svg>