<?xml version="1.0" encoding="utf-8"?>
<svg version="1.1" xmlns:xlink="http://www.w3.org/1999/xlink" width="12px" height="12px" viewBox="846 5018.5  12 12" xmlns="http://www.w3.org/2000/svg">
  <path d="M 852 5018.5  C 855.36 5018.5  858 5021.14  858 5024.5  C 858 5027.86  855.36 5030.5  852 5030.5  C 848.64 5030.5  846 5027.86  846 5024.5  C 846 5021.14  848.64 5018.5  852 5018.5  Z " fill-rule="nonzero" fill="#ffffff" stroke="none" fill-opacity="0" />
  <path d="M 852 5019  C 855.08 5019  857.5 5021.42  857.5 5024.5  C 857.5 5027.58  855.08 5030  852 5030  C 848.92 5030  846.5 5027.58  846.5 5024.5  C 846.5 5021.42  848.92 5019  852 5019  Z " stroke-width="1" stroke="#797979" fill="none" />
  <path d="M 852 5027.5  C 850.32 5027.5  849 5026.18  849 5024.5  C 849 5022.82  850.32 5021.5  852 5021.5  C 853.68 5021.5  855 5022.82  855 5024.5  C 855 5026.18  853.68 5027.5  852 5027.5  " fill-rule="nonzero" fill="#797979" stroke="none" />
</svg>