<?xml version="1.0" encoding="utf-8"?>
<svg version="1.1" xmlns:xlink="http://www.w3.org/1999/xlink" width="12px" height="12px" viewBox="847 5545.5  12 12" xmlns="http://www.w3.org/2000/svg">
  <path d="M 853 5545.5  C 856.36 5545.5  859 5548.14  859 5551.5  C 859 5554.86  856.36 5557.5  853 5557.5  C 849.64 5557.5  847 5554.86  847 5551.5  C 847 5548.14  849.64 5545.5  853 5545.5  Z " fill-rule="nonzero" fill="#ffffff" stroke="none" fill-opacity="0" />
  <path d="M 853 5546  C 856.08 5546  858.5 5548.42  858.5 5551.5  C 858.5 5554.58  856.08 5557  853 5557  C 849.92 5557  847.5 5554.58  847.5 5551.5  C 847.5 5548.42  849.92 5546  853 5546  Z " stroke-width="1" stroke="#797979" fill="none" />
  <path d="M 853 5554.5  C 851.32 5554.5  850 5553.18  850 5551.5  C 850 5549.82  851.32 5548.5  853 5548.5  C 854.68 5548.5  856 5549.82  856 5551.5  C 856 5553.18  854.68 5554.5  853 5554.5  " fill-rule="nonzero" fill="#797979" stroke="none" />
</svg>