<?xml version="1.0" encoding="utf-8"?>
<svg version="1.1" xmlns:xlink="http://www.w3.org/1999/xlink" width="12px" height="12px" viewBox="446 5543  12 12" xmlns="http://www.w3.org/2000/svg">
  <path d="M 446.5 5545  A 1.5 1.5 0 0 1 448 5543.5 L 456 5543.5  A 1.5 1.5 0 0 1 457.5 5545 L 457.5 5553  A 1.5 1.5 0 0 1 456 5554.5 L 448 5554.5  A 1.5 1.5 0 0 1 446.5 5553 L 446.5 5545  Z " fill-rule="nonzero" fill="#f0f0f0" stroke="none" />
  <path d="M 446.5 5545  A 1.5 1.5 0 0 1 448 5543.5 L 456 5543.5  A 1.5 1.5 0 0 1 457.5 5545 L 457.5 5553  A 1.5 1.5 0 0 1 456 5554.5 L 448 5554.5  A 1.5 1.5 0 0 1 446.5 5553 L 446.5 5545  Z " stroke-width="1" stroke="#797979" fill="none" />
</svg>