<?xml version="1.0" encoding="utf-8"?>
<svg version="1.1" xmlns:xlink="http://www.w3.org/1999/xlink" width="12px" height="12px" viewBox="848 5252.5  12 12" xmlns="http://www.w3.org/2000/svg">
  <path d="M 854 5252.5  C 857.36 5252.5  860 5255.14  860 5258.5  C 860 5261.86  857.36 5264.5  854 5264.5  C 850.64 5264.5  848 5261.86  848 5258.5  C 848 5255.14  850.64 5252.5  854 5252.5  Z " fill-rule="nonzero" fill="#ffffff" stroke="none" fill-opacity="0" />
  <path d="M 854 5253  C 857.08 5253  859.5 5255.42  859.5 5258.5  C 859.5 5261.58  857.08 5264  854 5264  C 850.92 5264  848.5 5261.58  848.5 5258.5  C 848.5 5255.42  850.92 5253  854 5253  Z " stroke-width="1" stroke="#797979" fill="none" />
  <path d="M 854 5261.5  C 852.32 5261.5  851 5260.18  851 5258.5  C 851 5256.82  852.32 5255.5  854 5255.5  C 855.68 5255.5  857 5256.82  857 5258.5  C 857 5260.18  855.68 5261.5  854 5261.5  " fill-rule="nonzero" fill="#797979" stroke="none" />
</svg>