<?xml version="1.0" encoding="utf-8"?>
<svg version="1.1" xmlns:xlink="http://www.w3.org/1999/xlink" width="12px" height="12px" viewBox="846 5586.5  12 12" xmlns="http://www.w3.org/2000/svg">
  <path d="M 852 5586.5  C 855.36 5586.5  858 5589.14  858 5592.5  C 858 5595.86  855.36 5598.5  852 5598.5  C 848.64 5598.5  846 5595.86  846 5592.5  C 846 5589.14  848.64 5586.5  852 5586.5  Z " fill-rule="nonzero" fill="#ffffff" stroke="none" fill-opacity="0" />
  <path d="M 852 5587  C 855.08 5587  857.5 5589.42  857.5 5592.5  C 857.5 5595.58  855.08 5598  852 5598  C 848.92 5598  846.5 5595.58  846.5 5592.5  C 846.5 5589.42  848.92 5587  852 5587  Z " stroke-width="1" stroke="#797979" fill="none" />
  <path d="M 852 5595.5  C 850.32 5595.5  849 5594.18  849 5592.5  C 849 5590.82  850.32 5589.5  852 5589.5  C 853.68 5589.5  855 5590.82  855 5592.5  C 855 5594.18  853.68 5595.5  852 5595.5  " fill-rule="nonzero" fill="#797979" stroke="none" />
</svg>