<?xml version="1.0" encoding="utf-8"?>
<svg version="1.1" xmlns:xlink="http://www.w3.org/1999/xlink" width="12px" height="12px" viewBox="801 5252.5  12 12" xmlns="http://www.w3.org/2000/svg">
  <path d="M 807 5252.5  C 810.36 5252.5  813 5255.14  813 5258.5  C 813 5261.86  810.36 5264.5  807 5264.5  C 803.64 5264.5  801 5261.86  801 5258.5  C 801 5255.14  803.64 5252.5  807 5252.5  Z " fill-rule="nonzero" fill="#f0f0f0" stroke="none" />
  <path d="M 807 5253  C 810.08 5253  812.5 5255.42  812.5 5258.5  C 812.5 5261.58  810.08 5264  807 5264  C 803.92 5264  801.5 5261.58  801.5 5258.5  C 801.5 5255.42  803.92 5253  807 5253  Z " stroke-width="1" stroke="#797979" fill="none" />
  <path d="M 807 5261.5  C 805.32 5261.5  804 5260.18  804 5258.5  C 804 5256.82  805.32 5255.5  807 5255.5  C 808.68 5255.5  810 5256.82  810 5258.5  C 810 5260.18  808.68 5261.5  807 5261.5  " fill-rule="nonzero" fill="#797979" stroke="none" />
</svg>