<?xml version="1.0" encoding="utf-8"?>
<svg version="1.1" xmlns:xlink="http://www.w3.org/1999/xlink" width="12px" height="12px" viewBox="445 5584  12 12" xmlns="http://www.w3.org/2000/svg">
  <path d="M 445.5 5586  A 1.5 1.5 0 0 1 447 5584.5 L 455 5584.5  A 1.5 1.5 0 0 1 456.5 5586 L 456.5 5594  A 1.5 1.5 0 0 1 455 5595.5 L 447 5595.5  A 1.5 1.5 0 0 1 445.5 5594 L 445.5 5586  Z " fill-rule="nonzero" fill="#f0f0f0" stroke="none" />
  <path d="M 445.5 5586  A 1.5 1.5 0 0 1 447 5584.5 L 455 5584.5  A 1.5 1.5 0 0 1 456.5 5586 L 456.5 5594  A 1.5 1.5 0 0 1 455 5595.5 L 447 5595.5  A 1.5 1.5 0 0 1 445.5 5594 L 445.5 5586  Z " stroke-width="1" stroke="#797979" fill="none" />
</svg>