<?xml version="1.0" encoding="utf-8"?>
<svg version="1.1" xmlns:xlink="http://www.w3.org/1999/xlink" width="12px" height="12px" viewBox="799 5586.5  12 12" xmlns="http://www.w3.org/2000/svg">
  <path d="M 805 5586.5  C 808.36 5586.5  811 5589.14  811 5592.5  C 811 5595.86  808.36 5598.5  805 5598.5  C 801.64 5598.5  799 5595.86  799 5592.5  C 799 5589.14  801.64 5586.5  805 5586.5  Z " fill-rule="nonzero" fill="#f0f0f0" stroke="none" />
  <path d="M 805 5587  C 808.08 5587  810.5 5589.42  810.5 5592.5  C 810.5 5595.58  808.08 5598  805 5598  C 801.92 5598  799.5 5595.58  799.5 5592.5  C 799.5 5589.42  801.92 5587  805 5587  Z " stroke-width="1" stroke="#797979" fill="none" />
  <path d="M 805 5595.5  C 803.32 5595.5  802 5594.18  802 5592.5  C 802 5590.82  803.32 5589.5  805 5589.5  C 806.68 5589.5  808 5590.82  808 5592.5  C 808 5594.18  806.68 5595.5  805 5595.5  " fill-rule="nonzero" fill="#797979" stroke="none" />
</svg>