<?xml version="1.0" encoding="utf-8"?>
<svg version="1.1" xmlns:xlink="http://www.w3.org/1999/xlink" width="12px" height="12px" viewBox="800 5293.5  12 12" xmlns="http://www.w3.org/2000/svg">
  <path d="M 806 5293.5  C 809.36 5293.5  812 5296.14  812 5299.5  C 812 5302.86  809.36 5305.5  806 5305.5  C 802.64 5305.5  800 5302.86  800 5299.5  C 800 5296.14  802.64 5293.5  806 5293.5  Z " fill-rule="nonzero" fill="#f0f0f0" stroke="none" />
  <path d="M 806 5294  C 809.08 5294  811.5 5296.42  811.5 5299.5  C 811.5 5302.58  809.08 5305  806 5305  C 802.92 5305  800.5 5302.58  800.5 5299.5  C 800.5 5296.42  802.92 5294  806 5294  Z " stroke-width="1" stroke="#797979" fill="none" />
  <path d="M 806 5302.5  C 804.32 5302.5  803 5301.18  803 5299.5  C 803 5297.82  804.32 5296.5  806 5296.5  C 807.68 5296.5  809 5297.82  809 5299.5  C 809 5301.18  807.68 5302.5  806 5302.5  " fill-rule="nonzero" fill="#797979" stroke="none" />
</svg>