<?xml version="1.0" encoding="utf-8"?>
<svg version="1.1" xmlns:xlink="http://www.w3.org/1999/xlink" width="12px" height="12px" viewBox="847 5400.5  12 12" xmlns="http://www.w3.org/2000/svg">
  <path d="M 853 5400.5  C 856.36 5400.5  859 5403.14  859 5406.5  C 859 5409.86  856.36 5412.5  853 5412.5  C 849.64 5412.5  847 5409.86  847 5406.5  C 847 5403.14  849.64 5400.5  853 5400.5  Z " fill-rule="nonzero" fill="#f0f0f0" stroke="none" />
  <path d="M 853 5401  C 856.08 5401  858.5 5403.42  858.5 5406.5  C 858.5 5409.58  856.08 5412  853 5412  C 849.92 5412  847.5 5409.58  847.5 5406.5  C 847.5 5403.42  849.92 5401  853 5401  Z " stroke-width="1" stroke="#797979" fill="none" />
  <path d="M 853 5409.5  C 851.32 5409.5  850 5408.18  850 5406.5  C 850 5404.82  851.32 5403.5  853 5403.5  C 854.68 5403.5  856 5404.82  856 5406.5  C 856 5408.18  854.68 5409.5  853 5409.5  " fill-rule="nonzero" fill="#797979" stroke="none" />
</svg>