<?xml version="1.0" encoding="utf-8"?>
<svg version="1.1" xmlns:xlink="http://www.w3.org/1999/xlink" width="12px" height="12px" viewBox="857 5683.5  12 12" xmlns="http://www.w3.org/2000/svg">
  <path d="M 863 5683.5  C 866.36 5683.5  869 5686.14  869 5689.5  C 869 5692.86  866.36 5695.5  863 5695.5  C 859.64 5695.5  857 5692.86  857 5689.5  C 857 5686.14  859.64 5683.5  863 5683.5  Z " fill-rule="nonzero" fill="#ffffff" stroke="none" fill-opacity="0" />
  <path d="M 863 5684  C 866.08 5684  868.5 5686.42  868.5 5689.5  C 868.5 5692.58  866.08 5695  863 5695  C 859.92 5695  857.5 5692.58  857.5 5689.5  C 857.5 5686.42  859.92 5684  863 5684  Z " stroke-width="1" stroke="#797979" fill="none" />
  <path d="M 863 5692.5  C 861.32 5692.5  860 5691.18  860 5689.5  C 860 5687.82  861.32 5686.5  863 5686.5  C 864.68 5686.5  866 5687.82  866 5689.5  C 866 5691.18  864.68 5692.5  863 5692.5  " fill-rule="nonzero" fill="#797979" stroke="none" />
</svg>