<?xml version="1.0" encoding="utf-8"?>
<svg version="1.1" xmlns:xlink="http://www.w3.org/1999/xlink" width="12px" height="12px" viewBox="810 5683.5  12 12" xmlns="http://www.w3.org/2000/svg">
  <path d="M 816 5683.5  C 819.36 5683.5  822 5686.14  822 5689.5  C 822 5692.86  819.36 5695.5  816 5695.5  C 812.64 5695.5  810 5692.86  810 5689.5  C 810 5686.14  812.64 5683.5  816 5683.5  Z " fill-rule="nonzero" fill="#ffffff" stroke="none" fill-opacity="0" />
  <path d="M 816 5684  C 819.08 5684  821.5 5686.42  821.5 5689.5  C 821.5 5692.58  819.08 5695  816 5695  C 812.92 5695  810.5 5692.58  810.5 5689.5  C 810.5 5686.42  812.92 5684  816 5684  Z " stroke-width="1" stroke="#797979" fill="none" />
  <path d="M 816 5692.5  C 814.32 5692.5  813 5691.18  813 5689.5  C 813 5687.82  814.32 5686.5  816 5686.5  C 817.68 5686.5  819 5687.82  819 5689.5  C 819 5691.18  817.68 5692.5  816 5692.5  " fill-rule="nonzero" fill="#797979" stroke="none" />
</svg>