<?xml version="1.0" encoding="utf-8"?>
<svg version="1.1" xmlns:xlink="http://www.w3.org/1999/xlink" width="12px" height="12px" viewBox="456 5681  12 12" xmlns="http://www.w3.org/2000/svg">
  <path d="M 456.5 5683  A 1.5 1.5 0 0 1 458 5681.5 L 466 5681.5  A 1.5 1.5 0 0 1 467.5 5683 L 467.5 5691  A 1.5 1.5 0 0 1 466 5692.5 L 458 5692.5  A 1.5 1.5 0 0 1 456.5 5691 L 456.5 5683  Z " fill-rule="nonzero" fill="#ffffff" stroke="none" fill-opacity="0" />
  <path d="M 456.5 5683  A 1.5 1.5 0 0 1 458 5681.5 L 466 5681.5  A 1.5 1.5 0 0 1 467.5 5683 L 467.5 5691  A 1.5 1.5 0 0 1 466 5692.5 L 458 5692.5  A 1.5 1.5 0 0 1 456.5 5691 L 456.5 5683  Z " stroke-width="1" stroke="#797979" fill="none" />
</svg>