<?xml version="1.0" encoding="utf-8"?>
<svg version="1.1" xmlns:xlink="http://www.w3.org/1999/xlink" width="12px" height="12px" viewBox="856 5724.5  12 12" xmlns="http://www.w3.org/2000/svg">
  <path d="M 862 5724.5  C 865.36 5724.5  868 5727.14  868 5730.5  C 868 5733.86  865.36 5736.5  862 5736.5  C 858.64 5736.5  856 5733.86  856 5730.5  C 856 5727.14  858.64 5724.5  862 5724.5  Z " fill-rule="nonzero" fill="#ffffff" stroke="none" fill-opacity="0" />
  <path d="M 862 5725  C 865.08 5725  867.5 5727.42  867.5 5730.5  C 867.5 5733.58  865.08 5736  862 5736  C 858.92 5736  856.5 5733.58  856.5 5730.5  C 856.5 5727.42  858.92 5725  862 5725  Z " stroke-width="1" stroke="#797979" fill="none" />
  <path d="M 862 5733.5  C 860.32 5733.5  859 5732.18  859 5730.5  C 859 5728.82  860.32 5727.5  862 5727.5  C 863.68 5727.5  865 5728.82  865 5730.5  C 865 5732.18  863.68 5733.5  862 5733.5  " fill-rule="nonzero" fill="#797979" stroke="none" />
</svg>