<?xml version="1.0" encoding="utf-8"?>
<svg version="1.1" xmlns:xlink="http://www.w3.org/1999/xlink" width="12px" height="12px" viewBox="809 5724.5  12 12" xmlns="http://www.w3.org/2000/svg">
  <path d="M 815 5724.5  C 818.36 5724.5  821 5727.14  821 5730.5  C 821 5733.86  818.36 5736.5  815 5736.5  C 811.64 5736.5  809 5733.86  809 5730.5  C 809 5727.14  811.64 5724.5  815 5724.5  Z " fill-rule="nonzero" fill="#ffffff" stroke="none" fill-opacity="0" />
  <path d="M 815 5725  C 818.08 5725  820.5 5727.42  820.5 5730.5  C 820.5 5733.58  818.08 5736  815 5736  C 811.92 5736  809.5 5733.58  809.5 5730.5  C 809.5 5727.42  811.92 5725  815 5725  Z " stroke-width="1" stroke="#797979" fill="none" />
  <path d="M 815 5733.5  C 813.32 5733.5  812 5732.18  812 5730.5  C 812 5728.82  813.32 5727.5  815 5727.5  C 816.68 5727.5  818 5728.82  818 5730.5  C 818 5732.18  816.68 5733.5  815 5733.5  " fill-rule="nonzero" fill="#797979" stroke="none" />
</svg>