<?xml version="1.0" encoding="utf-8"?>
<svg version="1.1" xmlns:xlink="http://www.w3.org/1999/xlink" width="12px" height="12px" viewBox="455 5864  12 12" xmlns="http://www.w3.org/2000/svg">
  <path d="M 455.5 5866  A 1.5 1.5 0 0 1 457 5864.5 L 465 5864.5  A 1.5 1.5 0 0 1 466.5 5866 L 466.5 5874  A 1.5 1.5 0 0 1 465 5875.5 L 457 5875.5  A 1.5 1.5 0 0 1 455.5 5874 L 455.5 5866  Z " fill-rule="nonzero" fill="#ffffff" stroke="none" />
  <path d="M 455.5 5866  A 1.5 1.5 0 0 1 457 5864.5 L 465 5864.5  A 1.5 1.5 0 0 1 466.5 5866 L 466.5 5874  A 1.5 1.5 0 0 1 465 5875.5 L 457 5875.5  A 1.5 1.5 0 0 1 455.5 5874 L 455.5 5866  Z " stroke-width="1" stroke="#797979" fill="none" />
  <path d="M 457.571428571429 5870  L 460.142857142857 5872.57142857143  " stroke-width="2.57142857142857" stroke="#797979" fill="none" />
  <path d="M 460.142857142857 5872.57142857143  L 464.428571428571 5866.57142857143  " stroke-width="2.57142857142857" stroke="#797979" fill="none" />
</svg>