<?xml version="1.0" encoding="utf-8"?>
<svg version="1.1" xmlns:xlink="http://www.w3.org/1999/xlink" width="12px" height="12px" viewBox="456 5823  12 12" xmlns="http://www.w3.org/2000/svg">
  <path d="M 456.5 5825  A 1.5 1.5 0 0 1 458 5823.5 L 466 5823.5  A 1.5 1.5 0 0 1 467.5 5825 L 467.5 5833  A 1.5 1.5 0 0 1 466 5834.5 L 458 5834.5  A 1.5 1.5 0 0 1 456.5 5833 L 456.5 5825  Z " fill-rule="nonzero" fill="#f0f0f0" stroke="none" />
  <path d="M 456.5 5825  A 1.5 1.5 0 0 1 458 5823.5 L 466 5823.5  A 1.5 1.5 0 0 1 467.5 5825 L 467.5 5833  A 1.5 1.5 0 0 1 466 5834.5 L 458 5834.5  A 1.5 1.5 0 0 1 456.5 5833 L 456.5 5825  Z " stroke-width="1" stroke="#797979" fill="none" />
  <path d="M 458.571428571429 5829  L 461.142857142857 5831.57142857143  " stroke-width="2.57142857142857" stroke="#797979" fill="none" />
  <path d="M 461.142857142857 5831.57142857143  L 465.428571428571 5825.57142857143  " stroke-width="2.57142857142857" stroke="#797979" fill="none" />
</svg>