<?xml version="1.0" encoding="utf-8"?>
<svg version="1.1" xmlns:xlink="http://www.w3.org/1999/xlink" width="12px" height="12px" viewBox="810 5825.5  12 12" xmlns="http://www.w3.org/2000/svg">
  <path d="M 816 5825.5  C 819.36 5825.5  822 5828.14  822 5831.5  C 822 5834.86  819.36 5837.5  816 5837.5  C 812.64 5837.5  810 5834.86  810 5831.5  C 810 5828.14  812.64 5825.5  816 5825.5  Z " fill-rule="nonzero" fill="#f0f0f0" stroke="none" />
  <path d="M 816 5826  C 819.08 5826  821.5 5828.42  821.5 5831.5  C 821.5 5834.58  819.08 5837  816 5837  C 812.92 5837  810.5 5834.58  810.5 5831.5  C 810.5 5828.42  812.92 5826  816 5826  Z " stroke-width="1" stroke="#797979" fill="none" />
  <path d="M 816 5834.5  C 814.32 5834.5  813 5833.18  813 5831.5  C 813 5829.82  814.32 5828.5  816 5828.5  C 817.68 5828.5  819 5829.82  819 5831.5  C 819 5833.18  817.68 5834.5  816 5834.5  " fill-rule="nonzero" fill="#797979" stroke="none" />
</svg>