<?xml version="1.0" encoding="utf-8"?>
<svg version="1.1" xmlns:xlink="http://www.w3.org/1999/xlink" width="12px" height="12px" viewBox="856 5866.5  12 12" xmlns="http://www.w3.org/2000/svg">
  <path d="M 862 5866.5  C 865.36 5866.5  868 5869.14  868 5872.5  C 868 5875.86  865.36 5878.5  862 5878.5  C 858.64 5878.5  856 5875.86  856 5872.5  C 856 5869.14  858.64 5866.5  862 5866.5  Z " fill-rule="nonzero" fill="#f0f0f0" stroke="none" />
  <path d="M 862 5867  C 865.08 5867  867.5 5869.42  867.5 5872.5  C 867.5 5875.58  865.08 5878  862 5878  C 858.92 5878  856.5 5875.58  856.5 5872.5  C 856.5 5869.42  858.92 5867  862 5867  Z " stroke-width="1" stroke="#797979" fill="none" />
  <path d="M 862 5875.5  C 860.32 5875.5  859 5874.18  859 5872.5  C 859 5870.82  860.32 5869.5  862 5869.5  C 863.68 5869.5  865 5870.82  865 5872.5  C 865 5874.18  863.68 5875.5  862 5875.5  " fill-rule="nonzero" fill="#797979" stroke="none" />
</svg>