<?xml version="1.0" encoding="utf-8"?>
<svg version="1.1" xmlns:xlink="http://www.w3.org/1999/xlink" width="12px" height="12px" viewBox="809 5998.5  12 12" xmlns="http://www.w3.org/2000/svg">
  <path d="M 815 5998.5  C 818.36 5998.5  821 6001.14  821 6004.5  C 821 6007.86  818.36 6010.5  815 6010.5  C 811.64 6010.5  809 6007.86  809 6004.5  C 809 6001.14  811.64 5998.5  815 5998.5  Z " fill-rule="nonzero" fill="#f0f0f0" stroke="none" />
  <path d="M 815 5999  C 818.08 5999  820.5 6001.42  820.5 6004.5  C 820.5 6007.58  818.08 6010  815 6010  C 811.92 6010  809.5 6007.58  809.5 6004.5  C 809.5 6001.42  811.92 5999  815 5999  Z " stroke-width="1" stroke="#797979" fill="none" />
  <path d="M 815 6007.5  C 813.32 6007.5  812 6006.18  812 6004.5  C 812 6002.82  813.32 6001.5  815 6001.5  C 816.68 6001.5  818 6002.82  818 6004.5  C 818 6006.18  816.68 6007.5  815 6007.5  " fill-rule="nonzero" fill="#797979" stroke="none" />
</svg>