<?xml version="1.0" encoding="utf-8"?>
<svg version="1.1" xmlns:xlink="http://www.w3.org/1999/xlink" width="12px" height="12px" viewBox="856 5998.5  12 12" xmlns="http://www.w3.org/2000/svg">
  <path d="M 862 5998.5  C 865.36 5998.5  868 6001.14  868 6004.5  C 868 6007.86  865.36 6010.5  862 6010.5  C 858.64 6010.5  856 6007.86  856 6004.5  C 856 6001.14  858.64 5998.5  862 5998.5  Z " fill-rule="nonzero" fill="#f0f0f0" stroke="none" />
  <path d="M 862 5999  C 865.08 5999  867.5 6001.42  867.5 6004.5  C 867.5 6007.58  865.08 6010  862 6010  C 858.92 6010  856.5 6007.58  856.5 6004.5  C 856.5 6001.42  858.92 5999  862 5999  Z " stroke-width="1" stroke="#797979" fill="none" />
  <path d="M 862 6007.5  C 860.32 6007.5  859 6006.18  859 6004.5  C 859 6002.82  860.32 6001.5  862 6001.5  C 863.68 6001.5  865 6002.82  865 6004.5  C 865 6006.18  863.68 6007.5  862 6007.5  " fill-rule="nonzero" fill="#797979" stroke="none" />
</svg>