<?xml version="1.0" encoding="utf-8"?>
<svg version="1.1" xmlns:xlink="http://www.w3.org/1999/xlink" width="12px" height="12px" viewBox="846 5128.5  12 12" xmlns="http://www.w3.org/2000/svg">
  <path d="M 852 5128.5  C 855.36 5128.5  858 5131.14  858 5134.5  C 858 5137.86  855.36 5140.5  852 5140.5  C 848.64 5140.5  846 5137.86  846 5134.5  C 846 5131.14  848.64 5128.5  852 5128.5  Z " fill-rule="nonzero" fill="#f0f0f0" stroke="none" />
  <path d="M 852 5129  C 855.08 5129  857.5 5131.42  857.5 5134.5  C 857.5 5137.58  855.08 5140  852 5140  C 848.92 5140  846.5 5137.58  846.5 5134.5  C 846.5 5131.42  848.92 5129  852 5129  Z " stroke-width="1" stroke="#797979" fill="none" />
  <path d="M 852 5137.5  C 850.32 5137.5  849 5136.18  849 5134.5  C 849 5132.82  850.32 5131.5  852 5131.5  C 853.68 5131.5  855 5132.82  855 5134.5  C 855 5136.18  853.68 5137.5  852 5137.5  " fill-rule="nonzero" fill="#797979" stroke="none" />
</svg>