<?xml version="1.0" encoding="utf-8"?>
<svg version="1.1" xmlns:xlink="http://www.w3.org/1999/xlink" width="12px" height="12px" viewBox="799 5128.5  12 12" xmlns="http://www.w3.org/2000/svg">
  <path d="M 805 5128.5  C 808.36 5128.5  811 5131.14  811 5134.5  C 811 5137.86  808.36 5140.5  805 5140.5  C 801.64 5140.5  799 5137.86  799 5134.5  C 799 5131.14  801.64 5128.5  805 5128.5  Z " fill-rule="nonzero" fill="#f2f2f2" stroke="none" />
  <path d="M 805 5129  C 808.08 5129  810.5 5131.42  810.5 5134.5  C 810.5 5137.58  808.08 5140  805 5140  C 801.92 5140  799.5 5137.58  799.5 5134.5  C 799.5 5131.42  801.92 5129  805 5129  Z " stroke-width="1" stroke="#797979" fill="none" />
  <path d="M 805 5137.5  C 803.32 5137.5  802 5136.18  802 5134.5  C 802 5132.82  803.32 5131.5  805 5131.5  C 806.68 5131.5  808 5132.82  808 5134.5  C 808 5136.18  806.68 5137.5  805 5137.5  " fill-rule="nonzero" fill="#797979" stroke="none" />
</svg>