<?xml version="1.0" encoding="utf-8"?>
<svg version="1.1" xmlns:xlink="http://www.w3.org/1999/xlink" width="12px" height="12px" viewBox="455 5996  12 12" xmlns="http://www.w3.org/2000/svg">
  <path d="M 455.5 5998  A 1.5 1.5 0 0 1 457 5996.5 L 465 5996.5  A 1.5 1.5 0 0 1 466.5 5998 L 466.5 6006  A 1.5 1.5 0 0 1 465 6007.5 L 457 6007.5  A 1.5 1.5 0 0 1 455.5 6006 L 455.5 5998  Z " fill-rule="nonzero" fill="#f0f0f0" stroke="none" />
  <path d="M 455.5 5998  A 1.5 1.5 0 0 1 457 5996.5 L 465 5996.5  A 1.5 1.5 0 0 1 466.5 5998 L 466.5 6006  A 1.5 1.5 0 0 1 465 6007.5 L 457 6007.5  A 1.5 1.5 0 0 1 455.5 6006 L 455.5 5998  Z " stroke-width="1" stroke="#797979" fill="none" />
</svg>