<?xml version="1.0" encoding="utf-8"?>
<svg version="1.1" xmlns:xlink="http://www.w3.org/1999/xlink" width="12px" height="12px" viewBox="799 5158.5  12 12" xmlns="http://www.w3.org/2000/svg">
  <path d="M 805 5158.5  C 808.36 5158.5  811 5161.14  811 5164.5  C 811 5167.86  808.36 5170.5  805 5170.5  C 801.64 5170.5  799 5167.86  799 5164.5  C 799 5161.14  801.64 5158.5  805 5158.5  Z " fill-rule="nonzero" fill="#f0f0f0" stroke="none" />
  <path d="M 805 5159  C 808.08 5159  810.5 5161.42  810.5 5164.5  C 810.5 5167.58  808.08 5170  805 5170  C 801.92 5170  799.5 5167.58  799.5 5164.5  C 799.5 5161.42  801.92 5159  805 5159  Z " stroke-width="1" stroke="#797979" fill="none" />
  <path d="M 805 5167.5  C 803.32 5167.5  802 5166.18  802 5164.5  C 802 5162.82  803.32 5161.5  805 5161.5  C 806.68 5161.5  808 5162.82  808 5164.5  C 808 5166.18  806.68 5167.5  805 5167.5  " fill-rule="nonzero" fill="#797979" stroke="none" />
</svg>