<?xml version="1.0" encoding="utf-8"?>
<svg version="1.1" xmlns:xlink="http://www.w3.org/1999/xlink" width="12px" height="12px" viewBox="799 4495.5  12 12" xmlns="http://www.w3.org/2000/svg">
  <path d="M 805 4495.5  C 808.36 4495.5  811 4498.14  811 4501.5  C 811 4504.86  808.36 4507.5  805 4507.5  C 801.64 4507.5  799 4504.86  799 4501.5  C 799 4498.14  801.64 4495.5  805 4495.5  Z " fill-rule="nonzero" fill="#f0f0f0" stroke="none" />
  <path d="M 805 4496  C 808.08 4496  810.5 4498.42  810.5 4501.5  C 810.5 4504.58  808.08 4507  805 4507  C 801.92 4507  799.5 4504.58  799.5 4501.5  C 799.5 4498.42  801.92 4496  805 4496  Z " stroke-width="1" stroke="#797979" fill="none" />
  <path d="M 805 4504.5  C 803.32 4504.5  802 4503.18  802 4501.5  C 802 4499.82  803.32 4498.5  805 4498.5  C 806.68 4498.5  808 4499.82  808 4501.5  C 808 4503.18  806.68 4504.5  805 4504.5  " fill-rule="nonzero" fill="#797979" stroke="none" />
</svg>