<?xml version="1.0" encoding="utf-8"?>
<svg version="1.1" xmlns:xlink="http://www.w3.org/1999/xlink" width="12px" height="12px" viewBox="445 5156  12 12" xmlns="http://www.w3.org/2000/svg">
  <path d="M 445.5 5158  A 1.5 1.5 0 0 1 447 5156.5 L 455 5156.5  A 1.5 1.5 0 0 1 456.5 5158 L 456.5 5166  A 1.5 1.5 0 0 1 455 5167.5 L 447 5167.5  A 1.5 1.5 0 0 1 445.5 5166 L 445.5 5158  Z " fill-rule="nonzero" fill="#f0f0f0" stroke="none" />
  <path d="M 445.5 5158  A 1.5 1.5 0 0 1 447 5156.5 L 455 5156.5  A 1.5 1.5 0 0 1 456.5 5158 L 456.5 5166  A 1.5 1.5 0 0 1 455 5167.5 L 447 5167.5  A 1.5 1.5 0 0 1 445.5 5166 L 445.5 5158  Z " stroke-width="1" stroke="#797979" fill="none" />
</svg>