<?xml version="1.0" encoding="utf-8"?>
<svg version="1.1" xmlns:xlink="http://www.w3.org/1999/xlink" width="12px" height="12px" viewBox="445 5127  12 12" xmlns="http://www.w3.org/2000/svg">
  <path d="M 445.5 5129  A 1.5 1.5 0 0 1 447 5127.5 L 455 5127.5  A 1.5 1.5 0 0 1 456.5 5129 L 456.5 5137  A 1.5 1.5 0 0 1 455 5138.5 L 447 5138.5  A 1.5 1.5 0 0 1 445.5 5137 L 445.5 5129  Z " fill-rule="nonzero" fill="#ffffff" stroke="none" />
  <path d="M 445.5 5129  A 1.5 1.5 0 0 1 447 5127.5 L 455 5127.5  A 1.5 1.5 0 0 1 456.5 5129 L 456.5 5137  A 1.5 1.5 0 0 1 455 5138.5 L 447 5138.5  A 1.5 1.5 0 0 1 445.5 5137 L 445.5 5129  Z " stroke-width="1" stroke="#797979" fill="none" />
  <path d="M 447.571428571429 5133  L 450.142857142857 5135.57142857143  " stroke-width="2.57142857142857" stroke="#797979" fill="none" />
  <path d="M 450.142857142857 5135.57142857143  L 454.428571428571 5129.57142857143  " stroke-width="2.57142857142857" stroke="#797979" fill="none" />
</svg>