<?xml version="1.0" encoding="utf-8"?>
<svg version="1.1" xmlns:xlink="http://www.w3.org/1999/xlink" width="12px" height="12px" viewBox="846 4495.5  12 12" xmlns="http://www.w3.org/2000/svg">
  <path d="M 852 4495.5  C 855.36 4495.5  858 4498.14  858 4501.5  C 858 4504.86  855.36 4507.5  852 4507.5  C 848.64 4507.5  846 4504.86  846 4501.5  C 846 4498.14  848.64 4495.5  852 4495.5  Z " fill-rule="nonzero" fill="#ffffff" stroke="none" />
  <path d="M 852 4496  C 855.08 4496  857.5 4498.42  857.5 4501.5  C 857.5 4504.58  855.08 4507  852 4507  C 848.92 4507  846.5 4504.58  846.5 4501.5  C 846.5 4498.42  848.92 4496  852 4496  Z " stroke-width="1" stroke="#797979" fill="none" />
  <path d="M 852 4504.5  C 850.32 4504.5  849 4503.18  849 4501.5  C 849 4499.82  850.32 4498.5  852 4498.5  C 853.68 4498.5  855 4499.82  855 4501.5  C 855 4503.18  853.68 4504.5  852 4504.5  " fill-rule="nonzero" fill="#797979" stroke="none" />
</svg>