<?xml version="1.0" encoding="utf-8"?>
<svg version="1.1" xmlns:xlink="http://www.w3.org/1999/xlink" width="12px" height="12px" viewBox="194 313  12 12" xmlns="http://www.w3.org/2000/svg">
  <path d="M 194.5 315  A 1.5 1.5 0 0 1 196 313.5 L 204 313.5  A 1.5 1.5 0 0 1 205.5 315 L 205.5 323  A 1.5 1.5 0 0 1 204 324.5 L 196 324.5  A 1.5 1.5 0 0 1 194.5 323 L 194.5 315  Z " fill-rule="nonzero" fill="#ffffff" stroke="none" />
  <path d="M 194.5 315  A 1.5 1.5 0 0 1 196 313.5 L 204 313.5  A 1.5 1.5 0 0 1 205.5 315 L 205.5 323  A 1.5 1.5 0 0 1 204 324.5 L 196 324.5  A 1.5 1.5 0 0 1 194.5 323 L 194.5 315  Z " stroke-width="1" stroke="#797979" fill="none" />
</svg>