<?xml version="1.0" encoding="utf-8"?>
<svg version="1.1" xmlns:xlink="http://www.w3.org/1999/xlink" width="12px" height="12px" viewBox="801 7954.5  12 12" xmlns="http://www.w3.org/2000/svg">
  <path d="M 807 7954.5  C 810.36 7954.5  813 7957.14  813 7960.5  C 813 7963.86  810.36 7966.5  807 7966.5  C 803.64 7966.5  801 7963.86  801 7960.5  C 801 7957.14  803.64 7954.5  807 7954.5  Z " fill-rule="nonzero" fill="#ffffff" stroke="none" />
  <path d="M 807 7955  C 810.08 7955  812.5 7957.42  812.5 7960.5  C 812.5 7963.58  810.08 7966  807 7966  C 803.92 7966  801.5 7963.58  801.5 7960.5  C 801.5 7957.42  803.92 7955  807 7955  Z " stroke-width="1" stroke="#797979" fill="none" />
  <path d="M 807 7963.5  C 805.32 7963.5  804 7962.18  804 7960.5  C 804 7958.82  805.32 7957.5  807 7957.5  C 808.68 7957.5  810 7958.82  810 7960.5  C 810 7962.18  808.68 7963.5  807 7963.5  " fill-rule="nonzero" fill="#797979" stroke="none" />
</svg>