<?xml version="1.0" encoding="utf-8"?>
<svg version="1.1" xmlns:xlink="http://www.w3.org/1999/xlink" width="12px" height="12px" viewBox="449 7912  12 12" xmlns="http://www.w3.org/2000/svg">
  <path d="M 449.5 7914  A 1.5 1.5 0 0 1 451 7912.5 L 459 7912.5  A 1.5 1.5 0 0 1 460.5 7914 L 460.5 7922  A 1.5 1.5 0 0 1 459 7923.5 L 451 7923.5  A 1.5 1.5 0 0 1 449.5 7922 L 449.5 7914  Z " fill-rule="nonzero" fill="#f0f0f0" stroke="none" />
  <path d="M 449.5 7914  A 1.5 1.5 0 0 1 451 7912.5 L 459 7912.5  A 1.5 1.5 0 0 1 460.5 7914 L 460.5 7922  A 1.5 1.5 0 0 1 459 7923.5 L 451 7923.5  A 1.5 1.5 0 0 1 449.5 7922 L 449.5 7914  Z " stroke-width="1" stroke="#797979" fill="none" />
  <path d="M 451.571428571429 7918  L 454.142857142857 7920.57142857143  " stroke-width="2.57142857142857" stroke="#797979" fill="none" />
  <path d="M 454.142857142857 7920.57142857143  L 458.428571428571 7914.57142857143  " stroke-width="2.57142857142857" stroke="#797979" fill="none" />
</svg>