<?xml version="1.0" encoding="utf-8"?>
<svg version="1.1" xmlns:xlink="http://www.w3.org/1999/xlink" width="12px" height="12px" viewBox="800 7999.5  12 12" xmlns="http://www.w3.org/2000/svg">
  <path d="M 806 7999.5  C 809.36 7999.5  812 8002.14  812 8005.5  C 812 8008.86  809.36 8011.5  806 8011.5  C 802.64 8011.5  800 8008.86  800 8005.5  C 800 8002.14  802.64 7999.5  806 7999.5  Z " fill-rule="nonzero" fill="#f0f0f0" stroke="none" />
  <path d="M 806 8000  C 809.08 8000  811.5 8002.42  811.5 8005.5  C 811.5 8008.58  809.08 8011  806 8011  C 802.92 8011  800.5 8008.58  800.5 8005.5  C 800.5 8002.42  802.92 8000  806 8000  Z " stroke-width="1" stroke="#797979" fill="none" />
  <path d="M 806 8008.5  C 804.32 8008.5  803 8007.18  803 8005.5  C 803 8003.82  804.32 8002.5  806 8002.5  C 807.68 8002.5  809 8003.82  809 8005.5  C 809 8007.18  807.68 8008.5  806 8008.5  " fill-rule="nonzero" fill="#797979" stroke="none" />
</svg>