<?xml version="1.0" encoding="utf-8"?>
<svg version="1.1" xmlns:xlink="http://www.w3.org/1999/xlink" width="12px" height="12px" viewBox="848 7914.5  12 12" xmlns="http://www.w3.org/2000/svg">
  <path d="M 854 7914.5  C 857.36 7914.5  860 7917.14  860 7920.5  C 860 7923.86  857.36 7926.5  854 7926.5  C 850.64 7926.5  848 7923.86  848 7920.5  C 848 7917.14  850.64 7914.5  854 7914.5  Z " fill-rule="nonzero" fill="#ffffff" stroke="none" />
  <path d="M 854 7915  C 857.08 7915  859.5 7917.42  859.5 7920.5  C 859.5 7923.58  857.08 7926  854 7926  C 850.92 7926  848.5 7923.58  848.5 7920.5  C 848.5 7917.42  850.92 7915  854 7915  Z " stroke-width="1" stroke="#797979" fill="none" />
  <path d="M 854 7923.5  C 852.32 7923.5  851 7922.18  851 7920.5  C 851 7918.82  852.32 7917.5  854 7917.5  C 855.68 7917.5  857 7918.82  857 7920.5  C 857 7922.18  855.68 7923.5  854 7923.5  " fill-rule="nonzero" fill="#797979" stroke="none" />
</svg>