<?xml version="1.0" encoding="utf-8"?>
<svg version="1.1" xmlns:xlink="http://www.w3.org/1999/xlink" width="12px" height="12px" viewBox="801 7914.5  12 12" xmlns="http://www.w3.org/2000/svg">
  <path d="M 807 7914.5  C 810.36 7914.5  813 7917.14  813 7920.5  C 813 7923.86  810.36 7926.5  807 7926.5  C 803.64 7926.5  801 7923.86  801 7920.5  C 801 7917.14  803.64 7914.5  807 7914.5  Z " fill-rule="nonzero" fill="#f0f0f0" stroke="none" />
  <path d="M 807 7915  C 810.08 7915  812.5 7917.42  812.5 7920.5  C 812.5 7923.58  810.08 7926  807 7926  C 803.92 7926  801.5 7923.58  801.5 7920.5  C 801.5 7917.42  803.92 7915  807 7915  Z " stroke-width="1" stroke="#797979" fill="none" />
  <path d="M 807 7923.5  C 805.32 7923.5  804 7922.18  804 7920.5  C 804 7918.82  805.32 7917.5  807 7917.5  C 808.68 7917.5  810 7918.82  810 7920.5  C 810 7922.18  808.68 7923.5  807 7923.5  " fill-rule="nonzero" fill="#797979" stroke="none" />
</svg>