<?xml version="1.0" encoding="utf-8"?>
<svg version="1.1" xmlns:xlink="http://www.w3.org/1999/xlink" width="12px" height="12px" viewBox="847 7999.5  12 12" xmlns="http://www.w3.org/2000/svg">
  <path d="M 853 7999.5  C 856.36 7999.5  859 8002.14  859 8005.5  C 859 8008.86  856.36 8011.5  853 8011.5  C 849.64 8011.5  847 8008.86  847 8005.5  C 847 8002.14  849.64 7999.5  853 7999.5  Z " fill-rule="nonzero" fill="#ffffff" stroke="none" />
  <path d="M 853 8000  C 856.08 8000  858.5 8002.42  858.5 8005.5  C 858.5 8008.58  856.08 8011  853 8011  C 849.92 8011  847.5 8008.58  847.5 8005.5  C 847.5 8002.42  849.92 8000  853 8000  Z " stroke-width="1" stroke="#797979" fill="none" />
  <path d="M 853 8008.5  C 851.32 8008.5  850 8007.18  850 8005.5  C 850 8003.82  851.32 8002.5  853 8002.5  C 854.68 8002.5  856 8003.82  856 8005.5  C 856 8007.18  854.68 8008.5  853 8008.5  " fill-rule="nonzero" fill="#797979" stroke="none" />
</svg>