<?xml version="1.0" encoding="utf-8"?>
<svg version="1.1" xmlns:xlink="http://www.w3.org/1999/xlink" width="12px" height="12px" viewBox="206 7990  12 12" xmlns="http://www.w3.org/2000/svg">
  <path d="M 206.5 7992  A 1.5 1.5 0 0 1 208 7990.5 L 216 7990.5  A 1.5 1.5 0 0 1 217.5 7992 L 217.5 8000  A 1.5 1.5 0 0 1 216 8001.5 L 208 8001.5  A 1.5 1.5 0 0 1 206.5 8000 L 206.5 7992  Z " fill-rule="nonzero" fill="#ffffff" stroke="none" />
  <path d="M 206.5 7992  A 1.5 1.5 0 0 1 208 7990.5 L 216 7990.5  A 1.5 1.5 0 0 1 217.5 7992 L 217.5 8000  A 1.5 1.5 0 0 1 216 8001.5 L 208 8001.5  A 1.5 1.5 0 0 1 206.5 8000 L 206.5 7992  Z " stroke-width="1" stroke="#797979" fill="none" />
</svg>