<?xml version="1.0" encoding="utf-8"?>
<svg version="1.1" xmlns:xlink="http://www.w3.org/1999/xlink" width="12px" height="12px" viewBox="801 8038.5  12 12" xmlns="http://www.w3.org/2000/svg">
  <path d="M 807 8038.5  C 810.36 8038.5  813 8041.14  813 8044.5  C 813 8047.86  810.36 8050.5  807 8050.5  C 803.64 8050.5  801 8047.86  801 8044.5  C 801 8041.14  803.64 8038.5  807 8038.5  Z " fill-rule="nonzero" fill="#ffffff" stroke="none" />
  <path d="M 807 8039  C 810.08 8039  812.5 8041.42  812.5 8044.5  C 812.5 8047.58  810.08 8050  807 8050  C 803.92 8050  801.5 8047.58  801.5 8044.5  C 801.5 8041.42  803.92 8039  807 8039  Z " stroke-width="1" stroke="#797979" fill="none" />
  <path d="M 807 8047.5  C 805.32 8047.5  804 8046.18  804 8044.5  C 804 8042.82  805.32 8041.5  807 8041.5  C 808.68 8041.5  810 8042.82  810 8044.5  C 810 8046.18  808.68 8047.5  807 8047.5  " fill-rule="nonzero" fill="#797979" stroke="none" />
</svg>