<?xml version="1.0" encoding="utf-8"?>
<svg version="1.1" xmlns:xlink="http://www.w3.org/1999/xlink" width="12px" height="12px" viewBox="848 8038.5  12 12" xmlns="http://www.w3.org/2000/svg">
  <path d="M 854 8038.5  C 857.36 8038.5  860 8041.14  860 8044.5  C 860 8047.86  857.36 8050.5  854 8050.5  C 850.64 8050.5  848 8047.86  848 8044.5  C 848 8041.14  850.64 8038.5  854 8038.5  Z " fill-rule="nonzero" fill="#f0f0f0" stroke="none" />
  <path d="M 854 8039  C 857.08 8039  859.5 8041.42  859.5 8044.5  C 859.5 8047.58  857.08 8050  854 8050  C 850.92 8050  848.5 8047.58  848.5 8044.5  C 848.5 8041.42  850.92 8039  854 8039  Z " stroke-width="1" stroke="#797979" fill="none" />
  <path d="M 854 8047.5  C 852.32 8047.5  851 8046.18  851 8044.5  C 851 8042.82  852.32 8041.5  854 8041.5  C 855.68 8041.5  857 8042.82  857 8044.5  C 857 8046.18  855.68 8047.5  854 8047.5  " fill-rule="nonzero" fill="#797979" stroke="none" />
</svg>