<?xml version="1.0" encoding="utf-8"?>
<svg version="1.1" xmlns:xlink="http://www.w3.org/1999/xlink" width="12px" height="12px" viewBox="847 8083.5  12 12" xmlns="http://www.w3.org/2000/svg">
  <path d="M 853 8083.5  C 856.36 8083.5  859 8086.14  859 8089.5  C 859 8092.86  856.36 8095.5  853 8095.5  C 849.64 8095.5  847 8092.86  847 8089.5  C 847 8086.14  849.64 8083.5  853 8083.5  Z " fill-rule="nonzero" fill="#ffffff" stroke="none" />
  <path d="M 853 8084  C 856.08 8084  858.5 8086.42  858.5 8089.5  C 858.5 8092.58  856.08 8095  853 8095  C 849.92 8095  847.5 8092.58  847.5 8089.5  C 847.5 8086.42  849.92 8084  853 8084  Z " stroke-width="1" stroke="#797979" fill="none" />
  <path d="M 853 8092.5  C 851.32 8092.5  850 8091.18  850 8089.5  C 850 8087.82  851.32 8086.5  853 8086.5  C 854.68 8086.5  856 8087.82  856 8089.5  C 856 8091.18  854.68 8092.5  853 8092.5  " fill-rule="nonzero" fill="#797979" stroke="none" />
</svg>