<?xml version="1.0" encoding="utf-8"?>
<svg version="1.1" xmlns:xlink="http://www.w3.org/1999/xlink" width="12px" height="12px" viewBox="448 8081  12 12" xmlns="http://www.w3.org/2000/svg">
  <path d="M 448.5 8083  A 1.5 1.5 0 0 1 450 8081.5 L 458 8081.5  A 1.5 1.5 0 0 1 459.5 8083 L 459.5 8091  A 1.5 1.5 0 0 1 458 8092.5 L 450 8092.5  A 1.5 1.5 0 0 1 448.5 8091 L 448.5 8083  Z " fill-rule="nonzero" fill="#ffffff" stroke="none" />
  <path d="M 448.5 8083  A 1.5 1.5 0 0 1 450 8081.5 L 458 8081.5  A 1.5 1.5 0 0 1 459.5 8083 L 459.5 8091  A 1.5 1.5 0 0 1 458 8092.5 L 450 8092.5  A 1.5 1.5 0 0 1 448.5 8091 L 448.5 8083  Z " stroke-width="1" stroke="#797979" fill="none" />
  <path d="M 450.571428571429 8087  L 453.142857142857 8089.57142857143  " stroke-width="2.57142857142857" stroke="#797979" fill="none" />
  <path d="M 453.142857142857 8089.57142857143  L 457.428571428571 8083.57142857143  " stroke-width="2.57142857142857" stroke="#797979" fill="none" />
</svg>