<?xml version="1.0" encoding="utf-8"?>
<svg version="1.1" xmlns:xlink="http://www.w3.org/1999/xlink" width="12px" height="12px" viewBox="800 8083.5  12 12" xmlns="http://www.w3.org/2000/svg">
  <path d="M 806 8083.5  C 809.36 8083.5  812 8086.14  812 8089.5  C 812 8092.86  809.36 8095.5  806 8095.5  C 802.64 8095.5  800 8092.86  800 8089.5  C 800 8086.14  802.64 8083.5  806 8083.5  Z " fill-rule="nonzero" fill="#f0f0f0" stroke="none" />
  <path d="M 806 8084  C 809.08 8084  811.5 8086.42  811.5 8089.5  C 811.5 8092.58  809.08 8095  806 8095  C 802.92 8095  800.5 8092.58  800.5 8089.5  C 800.5 8086.42  802.92 8084  806 8084  Z " stroke-width="1" stroke="#797979" fill="none" />
  <path d="M 806 8092.5  C 804.32 8092.5  803 8091.18  803 8089.5  C 803 8087.82  804.32 8086.5  806 8086.5  C 807.68 8086.5  809 8087.82  809 8089.5  C 809 8091.18  807.68 8092.5  806 8092.5  " fill-rule="nonzero" fill="#797979" stroke="none" />
</svg>