<?xml version="1.0" encoding="utf-8"?>
<svg version="1.1" xmlns:xlink="http://www.w3.org/1999/xlink" width="12px" height="12px" viewBox="849 9058.5  12 12" xmlns="http://www.w3.org/2000/svg">
  <path d="M 855 9058.5  C 858.36 9058.5  861 9061.14  861 9064.5  C 861 9067.86  858.36 9070.5  855 9070.5  C 851.64 9070.5  849 9067.86  849 9064.5  C 849 9061.14  851.64 9058.5  855 9058.5  Z " fill-rule="nonzero" fill="#ffffff" stroke="none" />
  <path d="M 855 9059  C 858.08 9059  860.5 9061.42  860.5 9064.5  C 860.5 9067.58  858.08 9070  855 9070  C 851.92 9070  849.5 9067.58  849.5 9064.5  C 849.5 9061.42  851.92 9059  855 9059  Z " stroke-width="1" stroke="#797979" fill="none" />
  <path d="M 855 9067.5  C 853.32 9067.5  852 9066.18  852 9064.5  C 852 9062.82  853.32 9061.5  855 9061.5  C 856.68 9061.5  858 9062.82  858 9064.5  C 858 9066.18  856.68 9067.5  855 9067.5  " fill-rule="nonzero" fill="#797979" stroke="none" />
</svg>