<?xml version="1.0" encoding="utf-8"?>
<svg version="1.1" xmlns:xlink="http://www.w3.org/1999/xlink" width="12px" height="12px" viewBox="802 9098.5  12 12" xmlns="http://www.w3.org/2000/svg">
  <path d="M 808 9098.5  C 811.36 9098.5  814 9101.14  814 9104.5  C 814 9107.86  811.36 9110.5  808 9110.5  C 804.64 9110.5  802 9107.86  802 9104.5  C 802 9101.14  804.64 9098.5  808 9098.5  Z " fill-rule="nonzero" fill="#ffffff" stroke="none" />
  <path d="M 808 9099  C 811.08 9099  813.5 9101.42  813.5 9104.5  C 813.5 9107.58  811.08 9110  808 9110  C 804.92 9110  802.5 9107.58  802.5 9104.5  C 802.5 9101.42  804.92 9099  808 9099  Z " stroke-width="1" stroke="#797979" fill="none" />
  <path d="M 808 9107.5  C 806.32 9107.5  805 9106.18  805 9104.5  C 805 9102.82  806.32 9101.5  808 9101.5  C 809.68 9101.5  811 9102.82  811 9104.5  C 811 9106.18  809.68 9107.5  808 9107.5  " fill-rule="nonzero" fill="#797979" stroke="none" />
</svg>