<?xml version="1.0" encoding="utf-8"?>
<svg version="1.1" xmlns:xlink="http://www.w3.org/1999/xlink" width="12px" height="12px" viewBox="802 9058.5  12 12" xmlns="http://www.w3.org/2000/svg">
  <path d="M 808 9058.5  C 811.36 9058.5  814 9061.14  814 9064.5  C 814 9067.86  811.36 9070.5  808 9070.5  C 804.64 9070.5  802 9067.86  802 9064.5  C 802 9061.14  804.64 9058.5  808 9058.5  Z " fill-rule="nonzero" fill="#ffffff" stroke="none" />
  <path d="M 808 9059  C 811.08 9059  813.5 9061.42  813.5 9064.5  C 813.5 9067.58  811.08 9070  808 9070  C 804.92 9070  802.5 9067.58  802.5 9064.5  C 802.5 9061.42  804.92 9059  808 9059  Z " stroke-width="1" stroke="#797979" fill="none" />
  <path d="M 808 9067.5  C 806.32 9067.5  805 9066.18  805 9064.5  C 805 9062.82  806.32 9061.5  808 9061.5  C 809.68 9061.5  811 9062.82  811 9064.5  C 811 9066.18  809.68 9067.5  808 9067.5  " fill-rule="nonzero" fill="#797979" stroke="none" />
</svg>