<?xml version="1.0" encoding="utf-8"?>
<svg version="1.1" xmlns:xlink="http://www.w3.org/1999/xlink" width="12px" height="12px" viewBox="849 9098.5  12 12" xmlns="http://www.w3.org/2000/svg">
  <path d="M 855 9098.5  C 858.36 9098.5  861 9101.14  861 9104.5  C 861 9107.86  858.36 9110.5  855 9110.5  C 851.64 9110.5  849 9107.86  849 9104.5  C 849 9101.14  851.64 9098.5  855 9098.5  Z " fill-rule="nonzero" fill="#f0f0f0" stroke="none" />
  <path d="M 855 9099  C 858.08 9099  860.5 9101.42  860.5 9104.5  C 860.5 9107.58  858.08 9110  855 9110  C 851.92 9110  849.5 9107.58  849.5 9104.5  C 849.5 9101.42  851.92 9099  855 9099  Z " stroke-width="1" stroke="#797979" fill="none" />
  <path d="M 855 9107.5  C 853.32 9107.5  852 9106.18  852 9104.5  C 852 9102.82  853.32 9101.5  855 9101.5  C 856.68 9101.5  858 9102.82  858 9104.5  C 858 9106.18  856.68 9107.5  855 9107.5  " fill-rule="nonzero" fill="#797979" stroke="none" />
</svg>