<?xml version="1.0" encoding="utf-8"?>
<svg version="1.1" xmlns:xlink="http://www.w3.org/1999/xlink" width="12px" height="12px" viewBox="207 9134  12 12" xmlns="http://www.w3.org/2000/svg">
  <path d="M 207.5 9136  A 1.5 1.5 0 0 1 209 9134.5 L 217 9134.5  A 1.5 1.5 0 0 1 218.5 9136 L 218.5 9144  A 1.5 1.5 0 0 1 217 9145.5 L 209 9145.5  A 1.5 1.5 0 0 1 207.5 9144 L 207.5 9136  Z " fill-rule="nonzero" fill="#f0f0f0" stroke="none" />
  <path d="M 207.5 9136  A 1.5 1.5 0 0 1 209 9134.5 L 217 9134.5  A 1.5 1.5 0 0 1 218.5 9136 L 218.5 9144  A 1.5 1.5 0 0 1 217 9145.5 L 209 9145.5  A 1.5 1.5 0 0 1 207.5 9144 L 207.5 9136  Z " stroke-width="1" stroke="#797979" fill="none" />
  <path d="M 209.571428571429 9140  L 212.142857142857 9142.57142857143  " stroke-width="2.57142857142857" stroke="#797979" fill="none" />
  <path d="M 212.142857142857 9142.57142857143  L 216.428571428571 9136.57142857143  " stroke-width="2.57142857142857" stroke="#797979" fill="none" />
</svg>