<?xml version="1.0" encoding="utf-8"?>
<svg version="1.1" xmlns:xlink="http://www.w3.org/1999/xlink" width="12px" height="12px" viewBox="848 9143.5  12 12" xmlns="http://www.w3.org/2000/svg">
  <path d="M 854 9143.5  C 857.36 9143.5  860 9146.14  860 9149.5  C 860 9152.86  857.36 9155.5  854 9155.5  C 850.64 9155.5  848 9152.86  848 9149.5  C 848 9146.14  850.64 9143.5  854 9143.5  Z " fill-rule="nonzero" fill="#f0f0f0" stroke="none" />
  <path d="M 854 9144  C 857.08 9144  859.5 9146.42  859.5 9149.5  C 859.5 9152.58  857.08 9155  854 9155  C 850.92 9155  848.5 9152.58  848.5 9149.5  C 848.5 9146.42  850.92 9144  854 9144  Z " stroke-width="1" stroke="#797979" fill="none" />
  <path d="M 854 9152.5  C 852.32 9152.5  851 9151.18  851 9149.5  C 851 9147.82  852.32 9146.5  854 9146.5  C 855.68 9146.5  857 9147.82  857 9149.5  C 857 9151.18  855.68 9152.5  854 9152.5  " fill-rule="nonzero" fill="#797979" stroke="none" />
</svg>