<?xml version="1.0" encoding="utf-8"?>
<svg version="1.1" xmlns:xlink="http://www.w3.org/1999/xlink" width="12px" height="12px" viewBox="801 9227.5  12 12" xmlns="http://www.w3.org/2000/svg">
  <path d="M 807 9227.5  C 810.36 9227.5  813 9230.14  813 9233.5  C 813 9236.86  810.36 9239.5  807 9239.5  C 803.64 9239.5  801 9236.86  801 9233.5  C 801 9230.14  803.64 9227.5  807 9227.5  Z " fill-rule="nonzero" fill="#f0f0f0" stroke="none" />
  <path d="M 807 9228  C 810.08 9228  812.5 9230.42  812.5 9233.5  C 812.5 9236.58  810.08 9239  807 9239  C 803.92 9239  801.5 9236.58  801.5 9233.5  C 801.5 9230.42  803.92 9228  807 9228  Z " stroke-width="1" stroke="#797979" fill="none" />
  <path d="M 807 9236.5  C 805.32 9236.5  804 9235.18  804 9233.5  C 804 9231.82  805.32 9230.5  807 9230.5  C 808.68 9230.5  810 9231.82  810 9233.5  C 810 9235.18  808.68 9236.5  807 9236.5  " fill-rule="nonzero" fill="#797979" stroke="none" />
</svg>