<?xml version="1.0" encoding="utf-8"?>
<svg version="1.1" xmlns:xlink="http://www.w3.org/1999/xlink" width="12px" height="12px" viewBox="849 9182.5  12 12" xmlns="http://www.w3.org/2000/svg">
  <path d="M 855 9182.5  C 858.36 9182.5  861 9185.14  861 9188.5  C 861 9191.86  858.36 9194.5  855 9194.5  C 851.64 9194.5  849 9191.86  849 9188.5  C 849 9185.14  851.64 9182.5  855 9182.5  Z " fill-rule="nonzero" fill="#f0f0f0" stroke="none" />
  <path d="M 855 9183  C 858.08 9183  860.5 9185.42  860.5 9188.5  C 860.5 9191.58  858.08 9194  855 9194  C 851.92 9194  849.5 9191.58  849.5 9188.5  C 849.5 9185.42  851.92 9183  855 9183  Z " stroke-width="1" stroke="#797979" fill="none" />
  <path d="M 855 9191.5  C 853.32 9191.5  852 9190.18  852 9188.5  C 852 9186.82  853.32 9185.5  855 9185.5  C 856.68 9185.5  858 9186.82  858 9188.5  C 858 9190.18  856.68 9191.5  855 9191.5  " fill-rule="nonzero" fill="#797979" stroke="none" />
</svg>