<?xml version="1.0" encoding="utf-8"?>
<svg version="1.1" xmlns:xlink="http://www.w3.org/1999/xlink" width="12px" height="12px" viewBox="802 9182.5  12 12" xmlns="http://www.w3.org/2000/svg">
  <path d="M 808 9182.5  C 811.36 9182.5  814 9185.14  814 9188.5  C 814 9191.86  811.36 9194.5  808 9194.5  C 804.64 9194.5  802 9191.86  802 9188.5  C 802 9185.14  804.64 9182.5  808 9182.5  Z " fill-rule="nonzero" fill="#f0f0f0" stroke="none" />
  <path d="M 808 9183  C 811.08 9183  813.5 9185.42  813.5 9188.5  C 813.5 9191.58  811.08 9194  808 9194  C 804.92 9194  802.5 9191.58  802.5 9188.5  C 802.5 9185.42  804.92 9183  808 9183  Z " stroke-width="1" stroke="#797979" fill="none" />
  <path d="M 808 9191.5  C 806.32 9191.5  805 9190.18  805 9188.5  C 805 9186.82  806.32 9185.5  808 9185.5  C 809.68 9185.5  811 9186.82  811 9188.5  C 811 9190.18  809.68 9191.5  808 9191.5  " fill-rule="nonzero" fill="#797979" stroke="none" />
</svg>