<?xml version="1.0" encoding="utf-8"?>
<svg version="1.1" xmlns:xlink="http://www.w3.org/1999/xlink" width="12px" height="12px" viewBox="448 9180  12 12" xmlns="http://www.w3.org/2000/svg">
  <path d="M 448.5 9182  A 1.5 1.5 0 0 1 450 9180.5 L 458 9180.5  A 1.5 1.5 0 0 1 459.5 9182 L 459.5 9190  A 1.5 1.5 0 0 1 458 9191.5 L 450 9191.5  A 1.5 1.5 0 0 1 448.5 9190 L 448.5 9182  Z " fill-rule="nonzero" fill="#ffffff" stroke="none" />
  <path d="M 448.5 9182  A 1.5 1.5 0 0 1 450 9180.5 L 458 9180.5  A 1.5 1.5 0 0 1 459.5 9182 L 459.5 9190  A 1.5 1.5 0 0 1 458 9191.5 L 450 9191.5  A 1.5 1.5 0 0 1 448.5 9190 L 448.5 9182  Z " stroke-width="1" stroke="#797979" fill="none" />
</svg>