<?xml version="1.0" encoding="utf-8"?>
<svg version="1.1" xmlns:xlink="http://www.w3.org/1999/xlink" width="12px" height="12px" viewBox="450 9276  12 12" xmlns="http://www.w3.org/2000/svg">
  <path d="M 450.5 9278  A 1.5 1.5 0 0 1 452 9276.5 L 460 9276.5  A 1.5 1.5 0 0 1 461.5 9278 L 461.5 9286  A 1.5 1.5 0 0 1 460 9287.5 L 452 9287.5  A 1.5 1.5 0 0 1 450.5 9286 L 450.5 9278  Z " fill-rule="nonzero" fill="#f0f0f0" stroke="none" />
  <path d="M 450.5 9278  A 1.5 1.5 0 0 1 452 9276.5 L 460 9276.5  A 1.5 1.5 0 0 1 461.5 9278 L 461.5 9286  A 1.5 1.5 0 0 1 460 9287.5 L 452 9287.5  A 1.5 1.5 0 0 1 450.5 9286 L 450.5 9278  Z " stroke-width="1" stroke="#797979" fill="none" />
  <path d="M 452.571428571429 9282  L 455.142857142857 9284.57142857143  " stroke-width="2.57142857142857" stroke="#797979" fill="none" />
  <path d="M 455.142857142857 9284.57142857143  L 459.428571428571 9278.57142857143  " stroke-width="2.57142857142857" stroke="#797979" fill="none" />
</svg>