<?xml version="1.0" encoding="utf-8"?>
<svg version="1.1" xmlns:xlink="http://www.w3.org/1999/xlink" width="12px" height="12px" viewBox="448 9316  12 12" xmlns="http://www.w3.org/2000/svg">
  <path d="M 448.5 9318  A 1.5 1.5 0 0 1 450 9316.5 L 458 9316.5  A 1.5 1.5 0 0 1 459.5 9318 L 459.5 9326  A 1.5 1.5 0 0 1 458 9327.5 L 450 9327.5  A 1.5 1.5 0 0 1 448.5 9326 L 448.5 9318  Z " fill-rule="nonzero" fill="#f0f0f0" stroke="none" />
  <path d="M 448.5 9318  A 1.5 1.5 0 0 1 450 9316.5 L 458 9316.5  A 1.5 1.5 0 0 1 459.5 9318 L 459.5 9326  A 1.5 1.5 0 0 1 458 9327.5 L 450 9327.5  A 1.5 1.5 0 0 1 448.5 9326 L 448.5 9318  Z " stroke-width="1" stroke="#797979" fill="none" />
  <path d="M 450.571428571429 9322  L 453.142857142857 9324.57142857143  " stroke-width="2.57142857142857" stroke="#797979" fill="none" />
  <path d="M 453.142857142857 9324.57142857143  L 457.428571428571 9318.57142857143  " stroke-width="2.57142857142857" stroke="#797979" fill="none" />
</svg>