<?xml version="1.0" encoding="utf-8"?>
<svg version="1.1" xmlns:xlink="http://www.w3.org/1999/xlink" width="12px" height="12px" viewBox="802 9318.5  12 12" xmlns="http://www.w3.org/2000/svg">
  <path d="M 808 9318.5  C 811.36 9318.5  814 9321.14  814 9324.5  C 814 9327.86  811.36 9330.5  808 9330.5  C 804.64 9330.5  802 9327.86  802 9324.5  C 802 9321.14  804.64 9318.5  808 9318.5  Z " fill-rule="nonzero" fill="#ffffff" stroke="none" />
  <path d="M 808 9319  C 811.08 9319  813.5 9321.42  813.5 9324.5  C 813.5 9327.58  811.08 9330  808 9330  C 804.92 9330  802.5 9327.58  802.5 9324.5  C 802.5 9321.42  804.92 9319  808 9319  Z " stroke-width="1" stroke="#797979" fill="none" />
  <path d="M 808 9327.5  C 806.32 9327.5  805 9326.18  805 9324.5  C 805 9322.82  806.32 9321.5  808 9321.5  C 809.68 9321.5  811 9322.82  811 9324.5  C 811 9326.18  809.68 9327.5  808 9327.5  " fill-rule="nonzero" fill="#797979" stroke="none" />
</svg>