<?xml version="1.0" encoding="utf-8"?>
<svg version="1.1" xmlns:xlink="http://www.w3.org/1999/xlink" width="12px" height="12px" viewBox="849 9278.5  12 12" xmlns="http://www.w3.org/2000/svg">
  <path d="M 855 9278.5  C 858.36 9278.5  861 9281.14  861 9284.5  C 861 9287.86  858.36 9290.5  855 9290.5  C 851.64 9290.5  849 9287.86  849 9284.5  C 849 9281.14  851.64 9278.5  855 9278.5  Z " fill-rule="nonzero" fill="#ffffff" stroke="none" />
  <path d="M 855 9279  C 858.08 9279  860.5 9281.42  860.5 9284.5  C 860.5 9287.58  858.08 9290  855 9290  C 851.92 9290  849.5 9287.58  849.5 9284.5  C 849.5 9281.42  851.92 9279  855 9279  Z " stroke-width="1" stroke="#797979" fill="none" />
  <path d="M 855 9287.5  C 853.32 9287.5  852 9286.18  852 9284.5  C 852 9282.82  853.32 9281.5  855 9281.5  C 856.68 9281.5  858 9282.82  858 9284.5  C 858 9286.18  856.68 9287.5  855 9287.5  " fill-rule="nonzero" fill="#797979" stroke="none" />
</svg>