<?xml version="1.0" encoding="utf-8"?>
<svg version="1.1" xmlns:xlink="http://www.w3.org/1999/xlink" width="12px" height="12px" viewBox="801 9363.5  12 12" xmlns="http://www.w3.org/2000/svg">
  <path d="M 807 9363.5  C 810.36 9363.5  813 9366.14  813 9369.5  C 813 9372.86  810.36 9375.5  807 9375.5  C 803.64 9375.5  801 9372.86  801 9369.5  C 801 9366.14  803.64 9363.5  807 9363.5  Z " fill-rule="nonzero" fill="#ffffff" stroke="none" />
  <path d="M 807 9364  C 810.08 9364  812.5 9366.42  812.5 9369.5  C 812.5 9372.58  810.08 9375  807 9375  C 803.92 9375  801.5 9372.58  801.5 9369.5  C 801.5 9366.42  803.92 9364  807 9364  Z " stroke-width="1" stroke="#797979" fill="none" />
  <path d="M 807 9372.5  C 805.32 9372.5  804 9371.18  804 9369.5  C 804 9367.82  805.32 9366.5  807 9366.5  C 808.68 9366.5  810 9367.82  810 9369.5  C 810 9371.18  808.68 9372.5  807 9372.5  " fill-rule="nonzero" fill="#797979" stroke="none" />
</svg>