<?xml version="1.0" encoding="utf-8"?>
<svg version="1.1" xmlns:xlink="http://www.w3.org/1999/xlink" width="12px" height="12px" viewBox="202 9329  12 12" xmlns="http://www.w3.org/2000/svg">
  <path d="M 202.5 9331  A 1.5 1.5 0 0 1 204 9329.5 L 212 9329.5  A 1.5 1.5 0 0 1 213.5 9331 L 213.5 9339  A 1.5 1.5 0 0 1 212 9340.5 L 204 9340.5  A 1.5 1.5 0 0 1 202.5 9339 L 202.5 9331  Z " fill-rule="nonzero" fill="#ffffff" stroke="none" />
  <path d="M 202.5 9331  A 1.5 1.5 0 0 1 204 9329.5 L 212 9329.5  A 1.5 1.5 0 0 1 213.5 9331 L 213.5 9339  A 1.5 1.5 0 0 1 212 9340.5 L 204 9340.5  A 1.5 1.5 0 0 1 202.5 9339 L 202.5 9331  Z " stroke-width="1" stroke="#797979" fill="none" />
  <path d="M 204.571428571429 9335  L 207.142857142857 9337.57142857143  " stroke-width="2.57142857142857" stroke="#797979" fill="none" />
  <path d="M 207.142857142857 9337.57142857143  L 211.428571428571 9331.57142857143  " stroke-width="2.57142857142857" stroke="#797979" fill="none" />
</svg>