<?xml version="1.0" encoding="utf-8"?>
<svg version="1.1" xmlns:xlink="http://www.w3.org/1999/xlink" width="12px" height="12px" viewBox="849 9402.5  12 12" xmlns="http://www.w3.org/2000/svg">
  <path d="M 855 9402.5  C 858.36 9402.5  861 9405.14  861 9408.5  C 861 9411.86  858.36 9414.5  855 9414.5  C 851.64 9414.5  849 9411.86  849 9408.5  C 849 9405.14  851.64 9402.5  855 9402.5  Z " fill-rule="nonzero" fill="#f0f0f0" stroke="none" />
  <path d="M 855 9403  C 858.08 9403  860.5 9405.42  860.5 9408.5  C 860.5 9411.58  858.08 9414  855 9414  C 851.92 9414  849.5 9411.58  849.5 9408.5  C 849.5 9405.42  851.92 9403  855 9403  Z " stroke-width="1" stroke="#797979" fill="none" />
  <path d="M 855 9411.5  C 853.32 9411.5  852 9410.18  852 9408.5  C 852 9406.82  853.32 9405.5  855 9405.5  C 856.68 9405.5  858 9406.82  858 9408.5  C 858 9410.18  856.68 9411.5  855 9411.5  " fill-rule="nonzero" fill="#797979" stroke="none" />
</svg>