<?xml version="1.0" encoding="utf-8"?>
<svg version="1.1" xmlns:xlink="http://www.w3.org/1999/xlink" width="815px" height="25px" xmlns="http://www.w3.org/2000/svg">
  <g transform="matrix(1 0 0 1 -361 -444 )">
    <path d="M 362 456.5  A 11.5 11.5 0 0 1 373.5 445 L 1163.5 445  A 11.5 11.5 0 0 1 1175 456.5 A 11.5 11.5 0 0 1 1163.5 468 L 373.5 468  A 11.5 11.5 0 0 1 362 456.5 Z " fill-rule="nonzero" fill="#ffffff" stroke="none" />
    <path d="M 361.5 456.5  A 12 12 0 0 1 373.5 444.5 L 1163.5 444.5  A 12 12 0 0 1 1175.5 456.5 A 12 12 0 0 1 1163.5 468.5 L 373.5 468.5  A 12 12 0 0 1 361.5 456.5 Z " stroke-width="1" stroke-dasharray="9,4" stroke="#1890ff" fill="none" stroke-dashoffset="0.5" />
  </g>
</svg>