<?xml version="1.0" encoding="utf-8"?>
<svg version="1.1" xmlns:xlink="http://www.w3.org/1999/xlink" width="12px" height="12px" viewBox="364 692  12 12" xmlns="http://www.w3.org/2000/svg">
  <path d="M 370 692  C 373.36 692  376 694.64  376 698  C 376 701.36  373.36 704  370 704  C 366.64 704  364 701.36  364 698  C 364 694.64  366.64 692  370 692  Z " fill-rule="nonzero" fill="#ffffff" stroke="none" />
  <path d="M 370 692.5  C 373.08 692.5  375.5 694.92  375.5 698  C 375.5 701.08  373.08 703.5  370 703.5  C 366.92 703.5  364.5 701.08  364.5 698  C 364.5 694.92  366.92 692.5  370 692.5  Z " stroke-width="1" stroke="#797979" fill="none" />
  <path d="M 370 701  C 368.32 701  367 699.68  367 698  C 367 696.32  368.32 695  370 695  C 371.68 695  373 696.32  373 698  C 373 699.68  371.68 701  370 701  " fill-rule="nonzero" fill="#797979" stroke="none" />
</svg>