<?xml version="1.0" encoding="utf-8"?>
<svg version="1.1" xmlns:xlink="http://www.w3.org/1999/xlink" width="12px" height="12px" viewBox="881 957  12 12" xmlns="http://www.w3.org/2000/svg">
  <path d="M 887 957  C 890.36 957  893 959.64  893 963  C 893 966.36  890.36 969  887 969  C 883.64 969  881 966.36  881 963  C 881 959.64  883.64 957  887 957  Z " fill-rule="nonzero" fill="#f0f0f0" stroke="none" />
  <path d="M 887 957.5  C 890.08 957.5  892.5 959.92  892.5 963  C 892.5 966.08  890.08 968.5  887 968.5  C 883.92 968.5  881.5 966.08  881.5 963  C 881.5 959.92  883.92 957.5  887 957.5  Z " stroke-width="1" stroke="#797979" fill="none" />
  <path d="M 887 966  C 885.32 966  884 964.68  884 963  C 884 961.32  885.32 960  887 960  C 888.68 960  890 961.32  890 963  C 890 964.68  888.68 966  887 966  " fill-rule="nonzero" fill="#797979" stroke="none" />
</svg>