<?xml version="1.0" encoding="utf-8"?>
<svg version="1.1" xmlns:xlink="http://www.w3.org/1999/xlink" width="12px" height="12px" viewBox="931 957  12 12" xmlns="http://www.w3.org/2000/svg">
  <path d="M 937 957  C 940.36 957  943 959.64  943 963  C 943 966.36  940.36 969  937 969  C 933.64 969  931 966.36  931 963  C 931 959.64  933.64 957  937 957  Z " fill-rule="nonzero" fill="#f0f0f0" stroke="none" />
  <path d="M 937 957.5  C 940.08 957.5  942.5 959.92  942.5 963  C 942.5 966.08  940.08 968.5  937 968.5  C 933.92 968.5  931.5 966.08  931.5 963  C 931.5 959.92  933.92 957.5  937 957.5  Z " stroke-width="1" stroke="#797979" fill="none" />
  <path d="M 937 966  C 935.32 966  934 964.68  934 963  C 934 961.32  935.32 960  937 960  C 938.68 960  940 961.32  940 963  C 940 964.68  938.68 966  937 966  " fill-rule="nonzero" fill="#797979" stroke="none" />
</svg>