<?xml version="1.0" encoding="utf-8"?>
<svg version="1.1" xmlns:xlink="http://www.w3.org/1999/xlink" width="12px" height="12px" viewBox="421 1004  12 12" xmlns="http://www.w3.org/2000/svg">
  <path d="M 427 1004  C 430.36 1004  433 1006.64  433 1010  C 433 1013.36  430.36 1016  427 1016  C 423.64 1016  421 1013.36  421 1010  C 421 1006.64  423.64 1004  427 1004  Z " fill-rule="nonzero" fill="#ffffff" stroke="none" />
  <path d="M 427 1004.5  C 430.08 1004.5  432.5 1006.92  432.5 1010  C 432.5 1013.08  430.08 1015.5  427 1015.5  C 423.92 1015.5  421.5 1013.08  421.5 1010  C 421.5 1006.92  423.92 1004.5  427 1004.5  Z " stroke-width="1" stroke="#797979" fill="none" />
  <path d="M 427 1013  C 425.32 1013  424 1011.68  424 1010  C 424 1008.32  425.32 1007  427 1007  C 428.68 1007  430 1008.32  430 1010  C 430 1011.68  428.68 1013  427 1013  " fill-rule="nonzero" fill="#797979" stroke="none" />
</svg>