<?xml version="1.0" encoding="utf-8"?>
<svg version="1.1" xmlns:xlink="http://www.w3.org/1999/xlink" width="12px" height="12px" viewBox="364 1161  12 12" xmlns="http://www.w3.org/2000/svg">
  <path d="M 370 1161  C 373.36 1161  376 1163.64  376 1167  C 376 1170.36  373.36 1173  370 1173  C 366.64 1173  364 1170.36  364 1167  C 364 1163.64  366.64 1161  370 1161  Z " fill-rule="nonzero" fill="#f0f0f0" stroke="none" />
  <path d="M 370 1161.5  C 373.08 1161.5  375.5 1163.92  375.5 1167  C 375.5 1170.08  373.08 1172.5  370 1172.5  C 366.92 1172.5  364.5 1170.08  364.5 1167  C 364.5 1163.92  366.92 1161.5  370 1161.5  Z " stroke-width="1" stroke="#797979" fill="none" />
  <path d="M 370 1170  C 368.32 1170  367 1168.68  367 1167  C 367 1165.32  368.32 1164  370 1164  C 371.68 1164  373 1165.32  373 1167  C 373 1168.68  371.68 1170  370 1170  " fill-rule="nonzero" fill="#797979" stroke="none" />
</svg>