<?xml version="1.0" encoding="utf-8"?>
<svg version="1.1" xmlns:xlink="http://www.w3.org/1999/xlink" width="12px" height="12px" viewBox="364 849  12 12" xmlns="http://www.w3.org/2000/svg">
  <path d="M 370 849  C 373.36 849  376 851.64  376 855  C 376 858.36  373.36 861  370 861  C 366.64 861  364 858.36  364 855  C 364 851.64  366.64 849  370 849  Z " fill-rule="nonzero" fill="#f0f0f0" stroke="none" />
  <path d="M 370 849.5  C 373.08 849.5  375.5 851.92  375.5 855  C 375.5 858.08  373.08 860.5  370 860.5  C 366.92 860.5  364.5 858.08  364.5 855  C 364.5 851.92  366.92 849.5  370 849.5  Z " stroke-width="1" stroke="#797979" fill="none" />
  <path d="M 370 858  C 368.32 858  367 856.68  367 855  C 367 853.32  368.32 852  370 852  C 371.68 852  373 853.32  373 855  C 373 856.68  371.68 858  370 858  " fill-rule="nonzero" fill="#797979" stroke="none" />
</svg>