<?xml version="1.0" encoding="utf-8"?>
<svg version="1.1" xmlns:xlink="http://www.w3.org/1999/xlink" width="12px" height="12px" viewBox="881 1114  12 12" xmlns="http://www.w3.org/2000/svg">
  <path d="M 887 1114  C 890.36 1114  893 1116.64  893 1120  C 893 1123.36  890.36 1126  887 1126  C 883.64 1126  881 1123.36  881 1120  C 881 1116.64  883.64 1114  887 1114  Z " fill-rule="nonzero" fill="#ffffff" stroke="none" />
  <path d="M 887 1114.5  C 890.08 1114.5  892.5 1116.92  892.5 1120  C 892.5 1123.08  890.08 1125.5  887 1125.5  C 883.92 1125.5  881.5 1123.08  881.5 1120  C 881.5 1116.92  883.92 1114.5  887 1114.5  Z " stroke-width="1" stroke="#797979" fill="none" />
  <path d="M 887 1123  C 885.32 1123  884 1121.68  884 1120  C 884 1118.32  885.32 1117  887 1117  C 888.68 1117  890 1118.32  890 1120  C 890 1121.68  888.68 1123  887 1123  " fill-rule="nonzero" fill="#797979" stroke="none" />
</svg>