<?xml version="1.0" encoding="utf-8"?>
<svg version="1.1" xmlns:xlink="http://www.w3.org/1999/xlink" width="20px" height="18px" xmlns="http://www.w3.org/2000/svg">
  <g transform="matrix(1 0 0 1 -211 -96 )">
    <path d="M 3.75 9  L 6.25 9  L 6.25 15  L 3.75 15  L 3.75 9  Z M 7.5 3  L 10 3  L 10 15  L 7.5 15  L 7.5 3  Z M 1.25 16.5  L 20 16.5  L 20 18  L 0 18  L 0 0  L 1.25 0  L 1.25 16.5  Z M 11.25 6  L 13.75 6  L 13.75 15  L 11.25 15  L 11.25 6  Z M 15 1.5  L 17.5 1.5  L 17.5 15  L 15 15  L 15 1.5  Z " fill-rule="nonzero" fill="#465671" stroke="none" transform="matrix(1 0 0 1 211 96 )" />
  </g>
</svg>