<svg width="443" height="321" viewBox="0 0 443 321" fill="none" xmlns="http://www.w3.org/2000/svg">
<g filter="url(#filter0_d)">
<path d="M17.2495 252.97C13.7095 252.97 10.8496 250.1 10.8496 246.57V16.9C10.8496 13.36 13.7095 10.5 17.2495 10.5H388.299C391.839 10.5 394.7 13.36 394.7 16.9V246.57C394.7 250.1 391.839 252.97 388.299 252.97H17.2495Z" fill="#8DC8E1"/>
<path d="M17.2495 252.97C13.7095 252.97 10.8496 250.1 10.8496 246.57V16.9C10.8496 13.36 13.7095 10.5 17.2495 10.5H388.299C391.839 10.5 394.7 13.36 394.7 16.9V246.57C394.7 250.1 391.839 252.97 388.299 252.97H17.2495Z" fill="url(#paint0_linear)"/>
</g>
<path d="M349.53 151.12L294.64 206.14L273.53 185.02C272.38 183.68 270.97 182.6 269.39 181.83C267.8 181.06 266.07 180.63 264.31 180.56C262.54 180.49 260.79 180.79 259.15 181.43C257.5 182.08 256.01 183.05 254.77 184.3C253.52 185.55 252.54 187.04 251.9 188.68C251.26 190.32 250.96 192.08 251.03 193.84C251.1 195.6 251.53 197.33 252.3 198.92C253.06 200.51 254.151 201.92 255.491 203.06L285.56 233.26C286.75 234.45 288.17 235.39 289.73 236.02C291.29 236.66 292.96 236.98 294.64 236.97C298 236.96 301.22 235.62 303.6 233.26L367.57 169.29C368.77 168.1 369.73 166.68 370.38 165.12C371.03 163.56 371.36 161.89 371.36 160.2C371.36 158.51 371.03 156.84 370.38 155.28C369.73 153.72 368.77 152.31 367.57 151.12C365.18 148.73 361.93 147.4 358.55 147.4C355.17 147.4 351.93 148.73 349.53 151.12ZM314.73 64.24C289.43 64.24 264.69 71.74 243.65 85.8C222.6 99.8601 206.21 119.85 196.52 143.22C186.84 166.6 184.301 192.33 189.241 217.15C194.181 241.97 206.36 264.77 224.26 282.66C242.15 300.56 264.95 312.74 289.77 317.68C314.59 322.62 340.321 320.08 363.701 310.4C387.081 300.72 407.06 284.32 421.12 263.27C435.18 242.23 442.681 217.5 442.681 192.19C442.681 175.39 439.37 158.75 432.94 143.22C426.51 127.7 417.09 113.6 405.21 101.71C393.32 89.83 379.221 80.41 363.701 73.98C348.171 67.55 331.53 64.24 314.73 64.24ZM314.73 294.55C294.49 294.55 274.7 288.55 257.86 277.3C241.03 266.05 227.91 250.06 220.16 231.36C212.42 212.66 210.39 192.08 214.34 172.22C218.29 152.36 228.04 134.13 242.35 119.81C256.67 105.49 274.91 95.75 294.76 91.8C314.62 87.85 335.2 89.87 353.9 97.62C372.61 105.37 388.59 118.49 399.84 135.32C411.09 152.15 417.09 171.94 417.09 192.19C417.09 219.34 406.31 245.37 387.11 264.57C367.91 283.76 341.88 294.55 314.73 294.55Z" fill="url(#paint1_linear)"/>
<path d="M46.0698 93.79H41.3701V107.1H38.2202V93.79H33.4902V90.98H46.0698V93.79ZM54.6899 107.1V100.56C54.6899 99.6301 54.5598 98.95 54.2998 98.53C54.0398 98.12 53.5601 97.91 52.8701 97.91C52.3701 97.91 51.9002 98.0899 51.4702 98.4399C51.0502 98.7799 50.7801 99.22 50.6401 99.76V107.1H47.6401V90.98H50.6401V96.88H50.73C51.1 96.39 51.5498 95.99 52.0898 95.7C52.6298 95.41 53.3101 95.26 54.1401 95.26C54.7201 95.26 55.2402 95.34 55.6802 95.49C56.1302 95.65 56.5 95.9 56.79 96.25C57.09 96.61 57.32 97.09 57.46 97.71C57.61 98.3 57.6899 99.0499 57.6899 99.9399V107.1H54.6899ZM60.1299 96.25C60.7399 95.98 61.4701 95.76 62.3101 95.61C63.1601 95.44 64.04 95.36 64.96 95.36C65.76 95.36 66.4302 95.46 66.9702 95.66C67.5002 95.84 67.92 96.11 68.23 96.46C68.55 96.82 68.7799 97.24 68.8999 97.73C69.0399 98.22 69.1099 98.77 69.1099 99.39C69.1099 100.06 69.08 100.75 69.04 101.44C68.99 102.11 68.9602 102.78 68.9502 103.44C68.9502 104.1 68.97 104.75 69.02 105.38C69.06 105.99 69.1799 106.57 69.3599 107.13H66.9199L66.4399 105.54H66.3198C66.0098 106.01 65.5798 106.43 65.0298 106.78C64.4898 107.12 63.7902 107.29 62.9302 107.29C62.4002 107.29 61.91 107.21 61.48 107.06C61.05 106.89 60.6899 106.66 60.3799 106.37C60.0699 106.06 59.8302 105.71 59.6602 105.31C59.5002 104.89 59.4102 104.43 59.4102 103.92C59.4102 103.22 59.5601 102.63 59.8701 102.15C60.1901 101.66 60.65 101.27 61.23 100.98C61.83 100.67 62.5401 100.46 63.3501 100.35C64.1801 100.23 65.0999 100.19 66.1099 100.24C66.2199 99.38 66.1602 98.77 65.9302 98.4C65.7002 98.01 65.1801 97.8199 64.3901 97.8199C63.7901 97.8199 63.1502 97.88 62.4702 98.01C61.8102 98.13 61.2698 98.29 60.8398 98.49L60.1299 96.25ZM63.9302 104.82C64.5202 104.82 65.0001 104.69 65.3501 104.43C65.7101 104.15 65.9701 103.86 66.1401 103.56V102.06C65.6601 102.01 65.2 102 64.75 102.04C64.32 102.07 63.9401 102.14 63.6001 102.24C63.2601 102.35 62.9998 102.5 62.7998 102.7C62.5998 102.9 62.5 103.16 62.5 103.46C62.5 103.89 62.6201 104.23 62.8701 104.48C63.1301 104.71 63.4802 104.82 63.9302 104.82ZM78.6699 107.1V100.56C78.6699 99.6301 78.53 98.95 78.25 98.53C77.99 98.12 77.5401 97.91 76.8901 97.91C76.3301 97.91 75.8399 98.08 75.4399 98.42C75.0599 98.74 74.7799 99.15 74.6099 99.64V107.1H71.6201V95.59H73.9902L74.3398 97.11H74.4302C74.7802 96.62 75.2501 96.1899 75.8301 95.8199C76.4201 95.4499 77.1698 95.26 78.0898 95.26C78.6598 95.26 79.1699 95.34 79.6099 95.49C80.0599 95.65 80.4302 95.9 80.7402 96.25C81.0502 96.61 81.2802 97.09 81.4302 97.71C81.5802 98.3 81.6602 99.0499 81.6602 99.9399V107.1H78.6699ZM87.9702 102.34H87.1602V107.1H84.1699V90.98H87.1602V100.49L87.8501 100.17L90.48 95.59H93.77L91.0098 99.96L89.8398 100.84L91.1001 101.74L94.21 107.1H90.7798L87.9702 102.34ZM103.85 101.11L98.5498 90.98H102.31L105.26 97.04L105.58 98.74H105.69L106.04 96.99L108.9 90.98H112.28L107.01 101.09V107.1H103.85V101.11ZM110.54 101.34C110.54 99.39 111.01 97.9 111.97 96.85C112.92 95.79 114.25 95.26 115.97 95.26C116.9 95.26 117.69 95.41 118.37 95.7C119.05 95.99 119.61 96.41 120.05 96.95C120.5 97.47 120.83 98.11 121.04 98.86C121.27 99.61 121.39 100.44 121.39 101.34C121.39 103.29 120.91 104.8 119.96 105.86C119.02 106.9 117.69 107.42 115.97 107.42C115.05 107.42 114.25 107.28 113.58 106.99C112.9 106.7 112.34 106.29 111.87 105.77C111.43 105.23 111.09 104.58 110.86 103.83C110.65 103.08 110.54 102.25 110.54 101.34ZM113.63 101.34C113.63 101.85 113.67 102.32 113.76 102.75C113.86 103.18 113.99 103.56 114.18 103.88C114.36 104.2 114.6 104.45 114.89 104.64C115.2 104.81 115.56 104.89 115.97 104.89C116.76 104.89 117.34 104.61 117.72 104.04C118.11 103.47 118.3 102.57 118.3 101.34C118.3 100.29 118.12 99.43 117.77 98.79C117.42 98.13 116.82 97.8 115.97 97.8C115.24 97.8 114.66 98.07 114.25 98.63C113.83 99.18 113.63 100.09 113.63 101.34ZM126.34 95.59V102.13C126.34 103.06 126.45 103.74 126.66 104.15C126.89 104.57 127.33 104.78 127.98 104.78C128.54 104.78 129.01 104.61 129.38 104.27C129.76 103.93 130.05 103.52 130.23 103.03V95.59H133.23V103.6C133.23 104.23 133.26 104.85 133.32 105.47C133.38 106.07 133.47 106.61 133.6 107.1H131.34L130.81 105.4H130.72C130.36 105.98 129.87 106.47 129.24 106.85C128.61 107.23 127.87 107.42 127.01 107.42C126.43 107.42 125.9 107.35 125.44 107.19C124.98 107.04 124.6 106.79 124.29 106.43C123.98 106.08 123.75 105.61 123.58 105.01C123.42 104.41 123.35 103.66 123.35 102.75V95.59H126.34Z" fill="white"/>
<path d="M35.3784 131.48L33.3086 127.7H34.1787L35.6484 130.44L35.7983 130.99H35.8086L35.9688 130.43L37.3784 127.7H38.1787L36.1284 131.47V133.97H35.3784V131.48ZM37.9087 131.73C37.9087 130.97 38.0785 130.4 38.4185 130C38.7585 129.59 39.2384 129.39 39.8784 129.39C40.2084 129.39 40.4988 129.44 40.7388 129.56C40.9888 129.66 41.1984 129.82 41.3584 130.03C41.5184 130.23 41.6388 130.48 41.7188 130.77C41.7987 131.06 41.8384 131.38 41.8384 131.73C41.8384 132.49 41.6686 133.07 41.3286 133.48C40.9886 133.88 40.5084 134.08 39.8784 134.08C39.5384 134.08 39.2485 134.03 38.9985 133.92C38.7485 133.8 38.5487 133.65 38.3887 133.44C38.2287 133.23 38.1083 132.99 38.0283 132.7C37.9483 132.41 37.9087 132.09 37.9087 131.73ZM38.6587 131.73C38.6587 131.96 38.6788 132.18 38.7188 132.39C38.7688 132.6 38.8387 132.78 38.9287 132.93C39.0287 133.09 39.1586 133.21 39.3086 133.31C39.4686 133.4 39.6484 133.45 39.8784 133.45C40.6884 133.46 41.0884 132.89 41.0884 131.73C41.0884 131.5 41.0686 131.28 41.0186 131.07C40.9786 130.86 40.9084 130.68 40.8184 130.52C40.7184 130.37 40.5885 130.25 40.4385 130.16C40.2785 130.06 40.0984 130.01 39.8784 130.01C39.0584 130.01 38.6587 130.58 38.6587 131.73ZM43.6084 129.49V132.05C43.6084 132.28 43.6184 132.49 43.6484 132.66C43.6784 132.84 43.7186 132.98 43.7886 133.1C43.8586 133.22 43.9486 133.3 44.0586 133.36C44.1686 133.42 44.3188 133.45 44.4888 133.45C44.6488 133.45 44.7885 133.43 44.9185 133.38C45.0385 133.33 45.1485 133.26 45.2485 133.17C45.3485 133.08 45.4383 132.97 45.5083 132.86C45.5883 132.74 45.6487 132.62 45.6987 132.49V129.49H46.4087V132.7C46.4087 132.92 46.4187 133.14 46.4287 133.37C46.4487 133.6 46.4783 133.8 46.5083 133.97H46.0186L45.8384 133.26H45.7983C45.6583 133.5 45.4688 133.69 45.2388 133.85C45.0088 134 44.7086 134.08 44.3486 134.08C44.1186 134.08 43.8988 134.05 43.7188 133.99C43.5387 133.94 43.3883 133.84 43.2583 133.69C43.1383 133.55 43.0485 133.36 42.9785 133.12C42.9185 132.88 42.8887 132.57 42.8887 132.2V129.49H43.6084ZM49.9087 130.18C49.7287 130.12 49.5584 130.09 49.3984 130.09C49.1384 130.09 48.9386 130.17 48.7886 130.31C48.6386 130.45 48.5483 130.62 48.5083 130.84V133.97H47.7886V129.49H48.2983L48.4287 130.04H48.4688C48.5787 129.84 48.7087 129.68 48.8687 129.57C49.0287 129.46 49.2285 129.4 49.4785 129.4C49.6485 129.4 49.8486 129.43 50.0586 129.49L49.9087 130.18ZM53.2285 129.49H53.7188L53.8486 130.03H53.8887C54.0287 129.82 54.1985 129.66 54.4185 129.56C54.6385 129.44 54.8885 129.39 55.1685 129.39C55.7685 129.39 56.2085 129.56 56.4985 129.91C56.7985 130.27 56.9385 130.84 56.9385 131.64C56.9385 132.02 56.8886 132.36 56.7886 132.66C56.6986 132.96 56.5584 133.22 56.3784 133.43C56.1984 133.63 55.9788 133.8 55.7188 133.91C55.4688 134.02 55.1884 134.08 54.8784 134.08C54.6584 134.08 54.4886 134.06 54.3486 134.03C54.2286 134.01 54.0885 133.97 53.9385 133.9V135.76H53.2285V129.49ZM55.0386 130.01C54.7286 130.01 54.4886 130.09 54.3086 130.26C54.1386 130.41 54.0085 130.65 53.9385 130.97V133.19C54.0485 133.28 54.1686 133.34 54.3086 133.39C54.4486 133.43 54.6284 133.45 54.8584 133.45C55.2684 133.45 55.5886 133.3 55.8286 133C56.0786 132.69 56.1987 132.23 56.1987 131.63C56.1987 131.39 56.1787 131.17 56.1387 130.97C56.0987 130.77 56.0287 130.6 55.9287 130.46C55.8387 130.32 55.7184 130.21 55.5684 130.13C55.4284 130.05 55.2486 130.01 55.0386 130.01ZM57.9985 129.83C58.2285 129.69 58.4886 129.59 58.7886 129.52C59.0886 129.45 59.4088 129.42 59.7388 129.42C60.0488 129.42 60.2985 129.46 60.4785 129.55C60.6685 129.63 60.8187 129.74 60.9087 129.88C61.0087 130.01 61.0784 130.16 61.1084 130.32C61.1384 130.48 61.1587 130.64 61.1587 130.8C61.1587 131.16 61.1484 131.51 61.1284 131.85C61.1184 132.19 61.1084 132.51 61.1084 132.82C61.1084 133.04 61.1184 133.25 61.1284 133.44C61.1484 133.64 61.1885 133.82 61.2285 133.99H60.6987L60.5186 133.36H60.4688C60.4188 133.45 60.3486 133.53 60.2686 133.61C60.1886 133.69 60.0885 133.76 59.9785 133.83C59.8685 133.89 59.7284 133.94 59.5884 133.98C59.4384 134.02 59.2684 134.04 59.0684 134.04C58.8784 134.04 58.6986 134.01 58.5386 133.95C58.3786 133.89 58.2387 133.81 58.1187 133.7C57.9987 133.59 57.8986 133.46 57.8286 133.3C57.7586 133.14 57.7285 132.97 57.7285 132.77C57.7285 132.51 57.7887 132.29 57.8887 132.12C57.9987 131.94 58.1484 131.8 58.3384 131.7C58.5384 131.59 58.7686 131.51 59.0386 131.47C59.3086 131.43 59.6185 131.4 59.9385 131.4C60.0285 131.4 60.1085 131.4 60.1885 131.4C60.2685 131.4 60.3485 131.41 60.4385 131.42C60.4485 131.24 60.4585 131.08 60.4585 130.94C60.4585 130.61 60.3986 130.38 60.2686 130.25C60.1286 130.11 59.8983 130.05 59.5483 130.05C59.4483 130.05 59.3388 130.06 59.2188 130.08C59.0987 130.09 58.9884 130.11 58.8584 130.14C58.7384 130.16 58.6183 130.2 58.5083 130.24C58.3983 130.27 58.3088 130.31 58.2188 130.36L57.9985 129.83ZM59.2686 133.42C59.4386 133.42 59.5888 133.4 59.7188 133.35C59.8487 133.31 59.9586 133.25 60.0586 133.18C60.1586 133.11 60.2286 133.03 60.2886 132.95C60.3586 132.87 60.4085 132.79 60.4385 132.71V131.97C60.3485 131.96 60.2687 131.96 60.1787 131.96C60.0887 131.95 60.0087 131.95 59.9287 131.95C59.7387 131.95 59.5584 131.96 59.3784 131.98C59.2084 132 59.0487 132.04 58.9087 132.1C58.7787 132.15 58.6684 132.23 58.5884 132.33C58.5084 132.43 58.4688 132.55 58.4688 132.7C58.4688 132.91 58.5487 133.08 58.6987 133.22C58.8487 133.35 59.0386 133.42 59.2686 133.42ZM63.8286 132.4L64.0786 133.26H64.1284L64.3184 132.39L65.1885 129.49H65.9185L64.5884 133.52C64.4884 133.81 64.3886 134.09 64.2886 134.37C64.1886 134.64 64.0888 134.89 63.9688 135.1C63.8487 135.32 63.7086 135.49 63.5586 135.61C63.4086 135.74 63.2386 135.81 63.0386 135.81C62.8286 135.81 62.6483 135.78 62.5083 135.72L62.6387 135.1C62.7187 135.13 62.7884 135.15 62.8584 135.15C63.0284 135.15 63.1886 135.06 63.3486 134.88C63.4986 134.7 63.6285 134.4 63.7285 133.97L61.9287 129.49H62.7583L63.8286 132.4ZM69.3086 133.97V131.44C69.3086 131.2 69.2983 130.99 69.2783 130.82C69.2583 130.64 69.2187 130.49 69.1587 130.37C69.0987 130.25 69.0084 130.16 68.8984 130.1C68.7884 130.04 68.6488 130.01 68.4688 130.01C68.1888 130.01 67.9583 130.1 67.7783 130.26C67.5983 130.43 67.4784 130.64 67.3984 130.89V133.97H66.6885V129.49H67.1885L67.3184 130.04H67.3584C67.5184 129.85 67.7087 129.69 67.9087 129.57C68.1287 129.45 68.4085 129.39 68.7485 129.39C69.0285 129.39 69.2687 129.44 69.4487 129.56C69.6287 129.66 69.7684 129.85 69.8784 130.13C70.0084 129.9 70.1985 129.71 70.4385 129.58C70.6785 129.45 70.9583 129.39 71.2583 129.39C71.5083 129.39 71.7284 129.42 71.8984 129.48C72.0684 129.53 72.2186 129.63 72.3286 129.77C72.4386 129.91 72.5184 130.11 72.5684 130.35C72.6284 130.6 72.6484 130.91 72.6484 131.29V133.97H71.9385V131.28C71.9385 131.06 71.9184 130.88 71.8984 130.72C71.8784 130.56 71.8386 130.43 71.7686 130.33C71.7086 130.22 71.6283 130.14 71.5083 130.09C71.4083 130.04 71.2586 130.01 71.0786 130.01C70.7886 130.01 70.5487 130.1 70.3887 130.26C70.2187 130.43 70.0983 130.67 70.0283 130.98V133.97H69.3086ZM77.2188 133.61C77.0488 133.76 76.8186 133.87 76.5386 133.95C76.2786 134.04 75.9887 134.08 75.6787 134.08C75.3387 134.08 75.0483 134.03 74.7983 133.92C74.5483 133.8 74.3387 133.65 74.1787 133.44C74.0187 133.23 73.8984 132.99 73.8184 132.7C73.7384 132.41 73.6987 132.09 73.6987 131.73C73.6987 130.97 73.8688 130.39 74.2188 129.99C74.5588 129.59 75.0387 129.39 75.6787 129.39C75.8787 129.39 76.0783 129.41 76.2783 129.46C76.4883 129.5 76.6686 129.58 76.8286 129.71C76.9886 129.83 77.1188 130.01 77.2188 130.25C77.3288 130.47 77.3784 130.77 77.3784 131.15C77.3784 131.35 77.3584 131.57 77.3184 131.8H74.4487C74.4487 132.07 74.4683 132.3 74.5283 132.5C74.5783 132.71 74.6683 132.88 74.7783 133.02C74.8883 133.16 75.0387 133.27 75.2188 133.35C75.3988 133.42 75.6287 133.45 75.8887 133.45C76.0887 133.45 76.2985 133.42 76.4985 133.35C76.6985 133.27 76.8485 133.19 76.9585 133.09L77.2188 133.61ZM75.6787 130.01C75.3287 130.01 75.0486 130.11 74.8286 130.29C74.6186 130.48 74.4985 130.79 74.4585 131.24H76.6787C76.6787 130.79 76.5885 130.47 76.4185 130.29C76.2485 130.11 75.9987 130.01 75.6787 130.01ZM81.3784 133.97V131.42C81.3784 130.95 81.3085 130.6 81.1685 130.37C81.0385 130.13 80.7985 130.01 80.4385 130.01C80.1185 130.01 79.8584 130.1 79.6484 130.27C79.4484 130.44 79.2988 130.65 79.2188 130.91V133.97H78.4985V129.49H79.0083L79.1387 130.04H79.1787C79.3187 129.85 79.5085 129.69 79.7485 129.57C79.9885 129.45 80.2787 129.39 80.6187 129.39C80.8587 129.39 81.0783 129.42 81.2583 129.48C81.4483 129.53 81.5988 129.63 81.7188 129.77C81.8387 129.91 81.9385 130.11 81.9985 130.35C82.0585 130.59 82.0986 130.9 82.0986 131.27V133.97H81.3784ZM82.8086 129.49H83.5083V128.61L84.2285 128.4V129.49H85.4385V130.12H84.2285V132.6C84.2285 132.91 84.2584 133.13 84.3384 133.26C84.4184 133.39 84.5488 133.45 84.7388 133.45C84.8888 133.45 85.0184 133.44 85.1284 133.41C85.2384 133.37 85.3588 133.33 85.4888 133.27L85.6484 133.82C85.4884 133.9 85.3087 133.96 85.1187 134.01C84.9287 134.06 84.7185 134.08 84.4985 134.08C84.1385 134.08 83.8785 133.98 83.7285 133.77C83.5785 133.57 83.5083 133.22 83.5083 132.74V130.12H82.8086V129.49ZM88.3286 129.49H89.0283V129.24C89.0283 128.97 89.0484 128.73 89.0884 128.53C89.1384 128.32 89.2184 128.16 89.3184 128.03C89.4184 127.9 89.5485 127.81 89.7085 127.75C89.8685 127.68 90.0686 127.65 90.3086 127.65C90.4986 127.65 90.6686 127.66 90.8086 127.68C90.9586 127.71 91.1183 127.75 91.2783 127.82L91.1187 128.42C90.9787 128.36 90.8488 128.32 90.7188 128.3C90.5988 128.28 90.4884 128.28 90.3784 128.28C90.2284 128.28 90.1086 128.3 90.0186 128.35C89.9286 128.4 89.8686 128.47 89.8286 128.56C89.7886 128.65 89.7683 128.77 89.7583 128.9C89.7483 129.03 89.7485 129.19 89.7485 129.37V129.49H90.9385V130.12H89.7485V133.97H89.0283V130.12H88.3286V129.49ZM91.3384 131.73C91.3384 130.97 91.4984 130.4 91.8384 130C92.1784 129.59 92.6683 129.39 93.2983 129.39C93.6283 129.39 93.9185 129.44 94.1685 129.56C94.4185 129.66 94.6186 129.82 94.7886 130.03C94.9486 130.23 95.0687 130.48 95.1387 130.77C95.2187 131.06 95.2583 131.38 95.2583 131.73C95.2583 132.49 95.0885 133.07 94.7485 133.48C94.4185 133.88 93.9283 134.08 93.2983 134.08C92.9583 134.08 92.6685 134.03 92.4185 133.92C92.1785 133.8 91.9686 133.65 91.8086 133.44C91.6486 133.23 91.5287 132.99 91.4487 132.7C91.3787 132.41 91.3384 132.09 91.3384 131.73ZM92.0786 131.73C92.0786 131.96 92.0987 132.18 92.1387 132.39C92.1887 132.6 92.2584 132.78 92.3584 132.93C92.4484 133.09 92.5785 133.21 92.7285 133.31C92.8885 133.4 93.0783 133.45 93.2983 133.45C94.1083 133.46 94.5186 132.89 94.5186 131.73C94.5186 131.5 94.4887 131.28 94.4487 131.07C94.3987 130.86 94.3388 130.68 94.2388 130.52C94.1388 130.37 94.0184 130.25 93.8584 130.16C93.7084 130.06 93.5183 130.01 93.2983 130.01C92.4883 130.01 92.0786 130.58 92.0786 131.73ZM98.4985 130.18C98.3185 130.12 98.1488 130.09 97.9888 130.09C97.7388 130.09 97.5284 130.17 97.3784 130.31C97.2384 130.45 97.1384 130.62 97.1084 130.84V133.97H96.3887V129.49H96.8887L97.0283 130.04H97.0586C97.1786 129.84 97.3087 129.68 97.4688 129.57C97.6288 129.46 97.8284 129.4 98.0684 129.4C98.2484 129.4 98.4387 129.43 98.6587 129.49L98.4985 130.18ZM105.088 133.61C104.908 133.76 104.689 133.87 104.409 133.95C104.139 134.04 103.858 134.08 103.548 134.08C103.208 134.08 102.909 134.03 102.659 133.92C102.409 133.8 102.208 133.65 102.048 133.44C101.878 133.23 101.768 132.99 101.688 132.7C101.608 132.41 101.568 132.09 101.568 131.73C101.568 130.97 101.739 130.39 102.079 129.99C102.419 129.59 102.909 129.39 103.539 129.39C103.739 129.39 103.948 129.41 104.148 129.46C104.348 129.5 104.539 129.58 104.699 129.71C104.859 129.83 104.988 130.01 105.088 130.25C105.188 130.47 105.239 130.77 105.239 131.15C105.239 131.35 105.228 131.57 105.188 131.8H102.309C102.309 132.07 102.338 132.3 102.398 132.5C102.448 132.71 102.528 132.88 102.648 133.02C102.758 133.16 102.909 133.27 103.079 133.35C103.269 133.42 103.488 133.45 103.758 133.45C103.958 133.45 104.159 133.42 104.369 133.35C104.569 133.27 104.718 133.19 104.818 133.09L105.088 133.61ZM103.548 130.01C103.198 130.01 102.909 130.11 102.699 130.29C102.489 130.48 102.368 130.79 102.318 131.24H104.539C104.539 130.79 104.459 130.47 104.289 130.29C104.109 130.11 103.868 130.01 103.548 130.01ZM106.298 129.83C106.528 129.69 106.788 129.59 107.088 129.52C107.388 129.45 107.709 129.42 108.039 129.42C108.349 129.42 108.588 129.46 108.778 129.55C108.968 129.63 109.108 129.74 109.208 129.88C109.308 130.01 109.379 130.16 109.409 130.32C109.439 130.48 109.458 130.64 109.458 130.8C109.458 131.16 109.449 131.51 109.429 131.85C109.419 132.19 109.409 132.51 109.409 132.82C109.409 133.04 109.419 133.25 109.429 133.44C109.449 133.64 109.478 133.82 109.528 133.99H108.999L108.818 133.36H108.769C108.719 133.45 108.649 133.53 108.559 133.61C108.489 133.69 108.388 133.76 108.278 133.83C108.158 133.89 108.028 133.94 107.878 133.98C107.728 134.02 107.559 134.04 107.369 134.04C107.179 134.04 106.998 134.01 106.838 133.95C106.668 133.89 106.528 133.81 106.418 133.7C106.298 133.59 106.198 133.46 106.128 133.3C106.058 133.14 106.028 132.97 106.028 132.77C106.028 132.51 106.078 132.29 106.188 132.12C106.298 131.94 106.449 131.8 106.639 131.7C106.839 131.59 107.068 131.51 107.338 131.47C107.608 131.43 107.909 131.4 108.239 131.4C108.329 131.4 108.409 131.4 108.479 131.4C108.569 131.4 108.649 131.41 108.729 131.42C108.749 131.24 108.758 131.08 108.758 130.94C108.758 130.61 108.699 130.38 108.559 130.25C108.429 130.11 108.189 130.05 107.849 130.05C107.749 130.05 107.639 130.06 107.519 130.08C107.399 130.09 107.279 130.11 107.159 130.14C107.039 130.16 106.919 130.2 106.809 130.24C106.699 130.27 106.609 130.31 106.519 130.36L106.298 129.83ZM107.568 133.42C107.738 133.42 107.889 133.4 108.019 133.35C108.149 133.31 108.258 133.25 108.358 133.18C108.448 133.11 108.528 133.03 108.588 132.95C108.658 132.87 108.699 132.79 108.729 132.71V131.97C108.649 131.96 108.559 131.96 108.479 131.96C108.389 131.95 108.309 131.95 108.219 131.95C108.039 131.95 107.859 131.96 107.679 131.98C107.499 132 107.348 132.04 107.208 132.1C107.078 132.15 106.969 132.23 106.889 132.33C106.809 132.43 106.769 132.55 106.769 132.7C106.769 132.91 106.849 133.08 106.999 133.22C107.149 133.35 107.338 133.42 107.568 133.42ZM112.929 130.18C112.749 130.12 112.578 130.09 112.418 130.09C112.158 130.09 111.959 130.17 111.809 130.31C111.659 130.45 111.568 130.62 111.528 130.84V133.97H110.809V129.49H111.318L111.449 130.04H111.489C111.599 129.84 111.729 129.68 111.889 129.57C112.049 129.46 112.249 129.4 112.499 129.4C112.669 129.4 112.859 129.43 113.079 129.49L112.929 130.18ZM114.648 132.87C114.648 133.08 114.688 133.23 114.758 133.32C114.828 133.41 114.938 133.45 115.068 133.45C115.138 133.45 115.228 133.45 115.318 133.43C115.408 133.42 115.509 133.4 115.619 133.35L115.699 133.92C115.609 133.97 115.468 134 115.298 134.03C115.128 134.06 114.988 134.08 114.858 134.08C114.588 134.08 114.369 134 114.199 133.86C114.019 133.7 113.938 133.44 113.938 133.08V127.7H114.648V132.87ZM117.789 132.4L118.039 133.26H118.079L118.278 132.39L119.148 129.49H119.878L118.548 133.52C118.448 133.81 118.349 134.09 118.249 134.37C118.149 134.64 118.038 134.89 117.918 135.1C117.798 135.32 117.669 135.49 117.519 135.61C117.369 135.74 117.199 135.81 116.999 135.81C116.789 135.81 116.609 135.78 116.469 135.72L116.599 135.1C116.679 135.13 116.748 135.15 116.818 135.15C116.988 135.15 117.149 135.06 117.309 134.88C117.459 134.7 117.588 134.4 117.688 133.97L115.889 129.49H116.708L117.789 132.4ZM124.679 132.75C124.679 132.57 124.629 132.43 124.519 132.33C124.409 132.23 124.279 132.15 124.119 132.08C123.959 132.01 123.789 131.94 123.599 131.89C123.409 131.82 123.239 131.74 123.079 131.64C122.919 131.54 122.789 131.41 122.679 131.26C122.569 131.1 122.519 130.89 122.519 130.63C122.519 130.2 122.639 129.89 122.889 129.69C123.129 129.49 123.469 129.39 123.909 129.39C124.229 129.39 124.499 129.42 124.719 129.48C124.939 129.53 125.129 129.6 125.289 129.67L125.119 130.26C124.979 130.2 124.809 130.14 124.619 130.09C124.429 130.04 124.219 130.01 123.999 130.01C123.739 130.01 123.538 130.06 123.418 130.15C123.298 130.24 123.239 130.39 123.239 130.61C123.239 130.77 123.288 130.89 123.398 130.98C123.508 131.06 123.639 131.14 123.789 131.21C123.949 131.28 124.129 131.34 124.309 131.41C124.499 131.48 124.679 131.56 124.829 131.67C124.989 131.78 125.129 131.91 125.229 132.08C125.339 132.24 125.398 132.46 125.398 132.73C125.398 132.92 125.358 133.1 125.298 133.26C125.238 133.43 125.138 133.57 125.008 133.69C124.878 133.81 124.719 133.91 124.519 133.97C124.329 134.04 124.098 134.08 123.838 134.08C123.498 134.08 123.209 134.05 122.969 133.98C122.729 133.92 122.529 133.84 122.369 133.75L122.579 133.14C122.719 133.22 122.899 133.29 123.119 133.35C123.339 133.42 123.569 133.45 123.789 133.45C124.049 133.45 124.259 133.4 124.429 133.3C124.599 133.2 124.679 133.02 124.679 132.75ZM129.749 133.61C129.569 133.76 129.338 133.87 129.068 133.95C128.798 134.04 128.508 134.08 128.208 134.08C127.868 134.08 127.568 134.03 127.318 133.92C127.068 133.8 126.859 133.65 126.699 133.44C126.539 133.23 126.418 132.99 126.338 132.7C126.268 132.41 126.229 132.09 126.229 131.73C126.229 130.97 126.399 130.39 126.739 129.99C127.079 129.59 127.569 129.39 128.199 129.39C128.399 129.39 128.599 129.41 128.809 129.46C129.009 129.5 129.189 129.58 129.349 129.71C129.509 129.83 129.649 130.01 129.749 130.25C129.849 130.47 129.898 130.77 129.898 131.15C129.898 131.35 129.879 131.57 129.849 131.8H126.969C126.969 132.07 126.998 132.3 127.048 132.5C127.108 132.71 127.188 132.88 127.298 133.02C127.418 133.16 127.559 133.27 127.739 133.35C127.929 133.42 128.149 133.45 128.409 133.45C128.619 133.45 128.819 133.42 129.019 133.35C129.229 133.27 129.379 133.19 129.479 133.09L129.749 133.61ZM128.208 130.01C127.848 130.01 127.568 130.11 127.358 130.29C127.148 130.48 127.019 130.79 126.979 131.24H129.199C129.199 130.79 129.108 130.47 128.938 130.29C128.768 130.11 128.518 130.01 128.208 130.01ZM130.438 129.49H131.128V128.61L131.849 128.4V129.49H133.068V130.12H131.849V132.6C131.849 132.91 131.889 133.13 131.969 133.26C132.039 133.39 132.178 133.45 132.358 133.45C132.518 133.45 132.648 133.44 132.758 133.41C132.858 133.37 132.978 133.33 133.108 133.27L133.269 133.82C133.109 133.9 132.939 133.96 132.749 134.01C132.559 134.06 132.348 134.08 132.128 134.08C131.758 134.08 131.508 133.98 131.358 133.77C131.208 133.57 131.128 133.22 131.128 132.74V130.12H130.438V129.49ZM133.469 129.49H134.168V128.61L134.889 128.4V129.49H136.099V130.12H134.889V132.6C134.889 132.91 134.919 133.13 134.999 133.26C135.079 133.39 135.208 133.45 135.398 133.45C135.548 133.45 135.679 133.44 135.789 133.41C135.899 133.37 136.018 133.33 136.148 133.27L136.309 133.82C136.149 133.9 135.968 133.96 135.778 134.01C135.588 134.06 135.379 134.08 135.159 134.08C134.799 134.08 134.539 133.98 134.389 133.77C134.239 133.57 134.168 133.22 134.168 132.74V130.12H133.469V129.49ZM137.889 132.87C137.889 133.08 137.929 133.23 137.999 133.32C138.069 133.41 138.169 133.45 138.309 133.45C138.379 133.45 138.469 133.45 138.559 133.43C138.649 133.42 138.748 133.4 138.858 133.35L138.938 133.92C138.848 133.97 138.709 134 138.539 134.03C138.369 134.06 138.229 134.08 138.099 134.08C137.829 134.08 137.608 134 137.438 133.86C137.258 133.7 137.179 133.44 137.179 133.08V127.7H137.889V132.87ZM142.979 133.61C142.799 133.76 142.578 133.87 142.298 133.95C142.028 134.04 141.748 134.08 141.438 134.08C141.098 134.08 140.798 134.03 140.548 133.92C140.298 133.8 140.098 133.65 139.938 133.44C139.768 133.23 139.659 132.99 139.579 132.7C139.499 132.41 139.458 132.09 139.458 131.73C139.458 130.97 139.629 130.39 139.969 129.99C140.309 129.59 140.799 129.39 141.429 129.39C141.629 129.39 141.839 129.41 142.039 129.46C142.239 129.5 142.428 129.58 142.588 129.71C142.748 129.83 142.879 130.01 142.979 130.25C143.079 130.47 143.128 130.77 143.128 131.15C143.128 131.35 143.119 131.57 143.079 131.8H140.199C140.199 132.07 140.229 132.3 140.289 132.5C140.339 132.71 140.419 132.88 140.539 133.02C140.649 133.16 140.799 133.27 140.979 133.35C141.159 133.42 141.378 133.45 141.648 133.45C141.848 133.45 142.048 133.42 142.258 133.35C142.458 133.27 142.608 133.19 142.708 133.09L142.979 133.61ZM141.438 130.01C141.088 130.01 140.798 130.11 140.588 130.29C140.378 130.48 140.258 130.79 140.208 131.24H142.429C142.429 130.79 142.349 130.47 142.179 130.29C141.999 130.11 141.758 130.01 141.438 130.01ZM146.878 133.97V131.44C146.878 131.2 146.869 130.99 146.849 130.82C146.829 130.64 146.789 130.49 146.729 130.37C146.669 130.25 146.589 130.16 146.469 130.1C146.369 130.04 146.219 130.01 146.039 130.01C145.769 130.01 145.539 130.1 145.349 130.26C145.169 130.43 145.049 130.64 144.979 130.89V133.97H144.258V129.49H144.758L144.898 130.04H144.929C145.089 129.85 145.279 129.69 145.489 129.57C145.699 129.45 145.978 129.39 146.318 129.39C146.608 129.39 146.839 129.44 147.019 129.56C147.199 129.66 147.349 129.85 147.449 130.13C147.589 129.9 147.768 129.71 148.008 129.58C148.258 129.45 148.528 129.39 148.838 129.39C149.088 129.39 149.299 129.42 149.469 129.48C149.649 129.53 149.788 129.63 149.898 129.77C150.018 129.91 150.099 130.11 150.139 130.35C150.199 130.6 150.229 130.91 150.229 131.29V133.97H149.508V131.28C149.508 131.06 149.499 130.88 149.469 130.72C149.459 130.56 149.409 130.43 149.349 130.33C149.289 130.22 149.198 130.14 149.088 130.09C148.978 130.04 148.839 130.01 148.659 130.01C148.359 130.01 148.128 130.1 147.958 130.26C147.788 130.43 147.669 130.67 147.599 130.98V133.97H146.878ZM154.798 133.61C154.618 133.76 154.389 133.87 154.119 133.95C153.849 134.04 153.558 134.08 153.258 134.08C152.918 134.08 152.619 134.03 152.369 133.92C152.119 133.8 151.909 133.65 151.749 133.44C151.589 133.23 151.469 132.99 151.389 132.7C151.319 132.41 151.278 132.09 151.278 131.73C151.278 130.97 151.449 130.39 151.789 129.99C152.129 129.59 152.619 129.39 153.249 129.39C153.449 129.39 153.648 129.41 153.858 129.46C154.058 129.5 154.238 129.58 154.398 129.71C154.568 129.83 154.698 130.01 154.798 130.25C154.898 130.47 154.949 130.77 154.949 131.15C154.949 131.35 154.928 131.57 154.898 131.8H152.019C152.019 132.07 152.049 132.3 152.099 132.5C152.159 132.71 152.239 132.88 152.349 133.02C152.469 133.16 152.609 133.27 152.789 133.35C152.979 133.42 153.198 133.45 153.458 133.45C153.668 133.45 153.868 133.42 154.068 133.35C154.278 133.27 154.428 133.19 154.528 133.09L154.798 133.61ZM153.258 130.01C152.908 130.01 152.619 130.11 152.409 130.29C152.199 130.48 152.068 130.79 152.028 131.24H154.249C154.249 130.79 154.169 130.47 153.989 130.29C153.819 130.11 153.568 130.01 153.258 130.01ZM158.949 133.97V131.42C158.949 130.95 158.879 130.6 158.749 130.37C158.609 130.13 158.368 130.01 158.008 130.01C157.698 130.01 157.429 130.1 157.219 130.27C157.019 130.44 156.879 130.65 156.789 130.91V133.97H156.079V129.49H156.579L156.708 130.04H156.749C156.889 129.85 157.078 129.69 157.318 129.57C157.568 129.45 157.858 129.39 158.188 129.39C158.438 129.39 158.648 129.42 158.838 129.48C159.018 129.53 159.169 129.63 159.289 129.77C159.419 129.91 159.508 130.11 159.568 130.35C159.638 130.59 159.668 130.9 159.668 131.27V133.97H158.949ZM160.378 129.49H161.079V128.61L161.798 128.4V129.49H163.019V130.12H161.798V132.6C161.798 132.91 161.838 133.13 161.918 133.26C161.988 133.39 162.119 133.45 162.309 133.45C162.459 133.45 162.599 133.44 162.699 133.41C162.809 133.37 162.929 133.33 163.059 133.27L163.219 133.82C163.059 133.9 162.888 133.96 162.688 134.01C162.498 134.06 162.299 134.08 162.079 134.08C161.709 134.08 161.459 133.98 161.309 133.77C161.159 133.57 161.079 133.22 161.079 132.74V130.12H160.378V129.49ZM169.298 129.49L170.329 132.11L170.548 132.97H170.568L170.739 132.09L171.539 129.49H172.219L170.719 134.07H170.369L169.188 131.11L169.019 130.38H168.999L168.818 131.12L167.688 134.07H167.338L165.778 129.49H166.559L167.449 132.1L167.599 132.97H167.608L167.818 132.08L168.778 129.49H169.298ZM172.909 129.83C173.139 129.69 173.399 129.59 173.699 129.52C174.009 129.45 174.318 129.42 174.648 129.42C174.958 129.42 175.209 129.46 175.389 129.55C175.579 129.63 175.728 129.74 175.818 129.88C175.918 130.01 175.989 130.16 176.019 130.32C176.059 130.48 176.068 130.64 176.068 130.8C176.068 131.16 176.068 131.51 176.048 131.85C176.028 132.19 176.019 132.51 176.019 132.82C176.019 133.04 176.028 133.25 176.048 133.44C176.068 133.64 176.098 133.82 176.148 133.99H175.619L175.429 133.36H175.378C175.328 133.45 175.259 133.53 175.179 133.61C175.099 133.69 175.009 133.76 174.889 133.83C174.779 133.89 174.649 133.94 174.499 133.98C174.349 134.02 174.179 134.04 173.989 134.04C173.799 134.04 173.619 134.01 173.449 133.95C173.289 133.89 173.148 133.81 173.028 133.7C172.908 133.59 172.809 133.46 172.739 133.3C172.679 133.14 172.639 132.97 172.639 132.77C172.639 132.51 172.699 132.29 172.809 132.12C172.909 131.94 173.059 131.8 173.249 131.7C173.449 131.59 173.679 131.51 173.949 131.47C174.229 131.43 174.528 131.4 174.858 131.4C174.938 131.4 175.019 131.4 175.099 131.4C175.179 131.4 175.269 131.41 175.349 131.42C175.369 131.24 175.378 131.08 175.378 130.94C175.378 130.61 175.309 130.38 175.179 130.25C175.049 130.11 174.809 130.05 174.458 130.05C174.358 130.05 174.248 130.06 174.128 130.08C174.018 130.09 173.899 130.11 173.769 130.14C173.649 130.16 173.538 130.2 173.418 130.24C173.318 130.27 173.219 130.31 173.139 130.36L172.909 129.83ZM174.179 133.42C174.349 133.42 174.498 133.4 174.628 133.35C174.758 133.31 174.879 133.25 174.969 133.18C175.069 133.11 175.148 133.03 175.208 132.95C175.268 132.87 175.319 132.79 175.349 132.71V131.97C175.269 131.96 175.178 131.96 175.088 131.96C175.008 131.95 174.918 131.95 174.838 131.95C174.648 131.95 174.469 131.96 174.289 131.98C174.119 132 173.959 132.04 173.829 132.1C173.689 132.15 173.589 132.23 173.499 132.33C173.429 132.43 173.389 132.55 173.389 132.7C173.389 132.91 173.458 133.08 173.608 133.22C173.758 133.35 173.949 133.42 174.179 133.42ZM179.398 132.75C179.398 132.57 179.339 132.43 179.239 132.33C179.129 132.23 178.989 132.15 178.829 132.08C178.679 132.01 178.509 131.94 178.309 131.89C178.129 131.82 177.959 131.74 177.789 131.64C177.639 131.54 177.508 131.41 177.398 131.26C177.288 131.1 177.239 130.89 177.239 130.63C177.239 130.2 177.358 129.89 177.608 129.69C177.848 129.49 178.188 129.39 178.628 129.39C178.948 129.39 179.219 129.42 179.429 129.48C179.649 129.53 179.848 129.6 180.008 129.67L179.838 130.26C179.698 130.2 179.528 130.14 179.338 130.09C179.138 130.04 178.939 130.01 178.719 130.01C178.449 130.01 178.259 130.06 178.139 130.15C178.019 130.24 177.958 130.39 177.958 130.61C177.958 130.77 178.009 130.89 178.119 130.98C178.219 131.06 178.358 131.14 178.508 131.21C178.668 131.28 178.848 131.34 179.028 131.41C179.218 131.48 179.388 131.56 179.548 131.67C179.708 131.78 179.849 131.91 179.949 132.08C180.059 132.24 180.108 132.46 180.108 132.73C180.108 132.92 180.079 133.1 180.019 133.26C179.959 133.43 179.859 133.57 179.729 133.69C179.599 133.81 179.429 133.91 179.239 133.97C179.049 134.04 178.819 134.08 178.559 134.08C178.219 134.08 177.928 134.05 177.688 133.98C177.448 133.92 177.248 133.84 177.088 133.75L177.298 133.14C177.438 133.22 177.618 133.29 177.838 133.35C178.058 133.42 178.278 133.45 178.508 133.45C178.768 133.45 178.978 133.4 179.148 133.3C179.308 133.2 179.398 133.02 179.398 132.75ZM36.9888 145.19C36.8088 145.32 36.5886 145.42 36.3486 145.49C36.0986 145.56 35.8486 145.59 35.5786 145.59C35.2286 145.59 34.9387 145.54 34.6987 145.43C34.4587 145.32 34.2684 145.16 34.1084 144.96C33.9584 144.75 33.8483 144.5 33.7783 144.22C33.7083 143.92 33.6787 143.6 33.6787 143.25C33.6787 142.49 33.8487 141.91 34.1787 141.51C34.5187 141.1 34.9987 140.9 35.6187 140.9C35.9087 140.9 36.1486 140.93 36.3486 140.97C36.5486 141.02 36.7284 141.08 36.8984 141.16L36.6885 141.78C36.5485 141.7 36.3985 141.64 36.2285 141.6C36.0685 141.55 35.8887 141.53 35.6987 141.53C34.8487 141.53 34.4185 142.1 34.4185 143.25C34.4185 143.48 34.4388 143.69 34.4888 143.9C34.5288 144.11 34.6085 144.29 34.7085 144.45C34.8185 144.6 34.9587 144.73 35.1187 144.82C35.2987 144.92 35.5083 144.97 35.7583 144.97C35.9683 144.97 36.1586 144.94 36.3286 144.87C36.4986 144.8 36.6385 144.73 36.7485 144.65L36.9888 145.19ZM37.5083 143.25C37.5083 142.49 37.6783 141.91 38.0083 141.51C38.3483 141.1 38.8387 140.9 39.4688 140.9C39.8088 140.9 40.0984 140.96 40.3384 141.07C40.5884 141.18 40.7985 141.34 40.9585 141.55C41.1185 141.75 41.2384 142 41.3184 142.29C41.3984 142.58 41.4287 142.9 41.4287 143.25C41.4287 144.01 41.2585 144.59 40.9185 144.99C40.5885 145.39 40.1087 145.59 39.4688 145.59C39.1388 145.59 38.8484 145.54 38.5884 145.43C38.3484 145.32 38.1488 145.16 37.9888 144.96C37.8188 144.75 37.7084 144.5 37.6284 144.22C37.5484 143.92 37.5083 143.6 37.5083 143.25ZM38.2485 143.25C38.2485 143.48 38.2784 143.69 38.3184 143.9C38.3684 144.11 38.4383 144.29 38.5283 144.45C38.6283 144.6 38.7487 144.73 38.9087 144.82C39.0587 144.92 39.2488 144.97 39.4688 144.97C40.2787 144.97 40.6885 144.4 40.6885 143.25C40.6885 143.02 40.6687 142.79 40.6187 142.59C40.5787 142.38 40.5087 142.19 40.4087 142.04C40.3187 141.88 40.1886 141.76 40.0386 141.67C39.8786 141.58 39.6887 141.53 39.4688 141.53C38.6588 141.52 38.2485 142.1 38.2485 143.25ZM45.1885 145.49V142.95C45.1885 142.71 45.1784 142.51 45.1484 142.33C45.1284 142.16 45.0986 142.01 45.0386 141.89C44.9786 141.77 44.8883 141.68 44.7783 141.62C44.6683 141.56 44.5286 141.53 44.3486 141.53C44.0686 141.53 43.8387 141.61 43.6587 141.78C43.4787 141.95 43.3483 142.16 43.2783 142.41V145.49H42.5586V141.01H43.0684L43.1987 141.56H43.2388C43.3988 141.36 43.5786 141.21 43.7886 141.09C44.0086 140.96 44.2787 140.9 44.6187 140.9C44.9087 140.9 45.1384 140.96 45.3184 141.07C45.5084 141.18 45.6485 141.37 45.7485 141.65C45.8885 141.41 46.0784 141.23 46.3184 141.1C46.5584 140.97 46.8387 140.9 47.1387 140.9C47.3887 140.9 47.5983 140.93 47.7783 140.99C47.9483 141.05 48.0885 141.14 48.2085 141.29C48.3185 141.43 48.3987 141.62 48.4487 141.87C48.4987 142.11 48.5283 142.42 48.5283 142.8V145.49H47.8086V142.79C47.8086 142.58 47.7983 142.39 47.7783 142.24C47.7583 142.08 47.7184 141.94 47.6484 141.84C47.5884 141.73 47.4987 141.66 47.3887 141.61C47.2787 141.56 47.1385 141.53 46.9585 141.53C46.6585 141.53 46.4283 141.61 46.2583 141.78C46.0983 141.95 45.9784 142.19 45.8984 142.5V145.49H45.1885ZM49.8286 141.01H50.3184L50.4585 141.55H50.4985C50.6285 141.34 50.8086 141.18 51.0186 141.07C51.2386 140.96 51.4983 140.9 51.7783 140.9C52.3683 140.9 52.8184 141.08 53.1084 141.43C53.3984 141.78 53.5483 142.36 53.5483 143.16C53.5483 143.53 53.4984 143.88 53.3984 144.18C53.2984 144.48 53.1588 144.73 52.9888 144.94C52.8088 145.15 52.5886 145.31 52.3286 145.42C52.0786 145.54 51.7988 145.59 51.4888 145.59C51.2688 145.59 51.0885 145.58 50.9585 145.55C50.8385 145.53 50.6983 145.48 50.5483 145.42V147.28H49.8286V141.01ZM51.6387 141.53C51.3387 141.53 51.0985 141.61 50.9185 141.77C50.7385 141.93 50.6183 142.16 50.5483 142.49V144.71C50.6583 144.79 50.7785 144.86 50.9185 144.91C51.0485 144.95 51.2385 144.97 51.4585 144.97C51.8685 144.97 52.1985 144.82 52.4385 144.51C52.6785 144.2 52.8086 143.75 52.8086 143.15C52.8086 142.91 52.7788 142.68 52.7388 142.49C52.6988 142.28 52.6286 142.11 52.5386 141.98C52.4486 141.83 52.3287 141.72 52.1787 141.65C52.0387 141.57 51.8587 141.53 51.6387 141.53ZM55.4785 144.39C55.4785 144.59 55.5086 144.74 55.5786 144.83C55.6486 144.92 55.7587 144.97 55.8887 144.97C55.9587 144.97 56.0487 144.96 56.1387 144.95C56.2287 144.94 56.3285 144.91 56.4385 144.87L56.5186 145.43C56.4286 145.48 56.2887 145.52 56.1187 145.55C55.9487 145.58 55.8087 145.59 55.6787 145.59C55.4087 145.59 55.1886 145.52 55.0186 145.37C54.8486 145.22 54.7583 144.96 54.7583 144.59V139.22H55.4785V144.39ZM60.5586 145.13C60.3786 145.27 60.1584 145.39 59.8784 145.47C59.6084 145.55 59.3286 145.59 59.0186 145.59C58.6786 145.59 58.3887 145.54 58.1387 145.43C57.8787 145.32 57.6786 145.16 57.5186 144.96C57.3586 144.75 57.2387 144.5 57.1587 144.22C57.0787 143.93 57.0386 143.61 57.0386 143.25C57.0386 142.48 57.2083 141.9 57.5483 141.5C57.8883 141.1 58.3783 140.9 59.0083 140.9C59.2183 140.9 59.4187 140.93 59.6187 140.97C59.8187 141.02 60.0085 141.1 60.1685 141.22C60.3285 141.35 60.4586 141.53 60.5586 141.76C60.6586 141.99 60.7085 142.29 60.7085 142.67C60.7085 142.86 60.6987 143.08 60.6587 143.32H57.7886C57.7886 143.58 57.8087 143.82 57.8687 144.02C57.9187 144.22 57.9987 144.39 58.1187 144.54C58.2287 144.68 58.3786 144.78 58.5586 144.86C58.7386 144.93 58.9685 144.97 59.2285 144.97C59.4285 144.97 59.6284 144.93 59.8384 144.86C60.0384 144.79 60.1886 144.71 60.2886 144.61L60.5586 145.13ZM59.0186 141.53C58.6686 141.53 58.3885 141.62 58.1685 141.81C57.9585 141.99 57.8386 142.31 57.7886 142.76H60.0186C60.0186 142.3 59.9283 141.99 59.7583 141.81C59.5783 141.62 59.3386 141.53 59.0186 141.53ZM61.2485 141.01H61.9487V140.12L62.6685 139.92V141.01H63.8784V141.64H62.6685V144.12C62.6685 144.43 62.6983 144.65 62.7783 144.78C62.8583 144.91 62.9887 144.97 63.1787 144.97C63.3287 144.97 63.4584 144.95 63.5684 144.92C63.6784 144.89 63.7987 144.84 63.9287 144.79L64.0884 145.34C63.9284 145.41 63.7486 145.48 63.5586 145.52C63.3686 145.57 63.1585 145.59 62.9385 145.59C62.5785 145.59 62.3185 145.49 62.1685 145.29C62.0185 145.08 61.9487 144.74 61.9487 144.25V141.64H61.2485V141.01ZM68.0483 145.13C67.8683 145.27 67.6387 145.39 67.3687 145.47C67.0987 145.55 66.8083 145.59 66.5083 145.59C66.1683 145.59 65.8687 145.54 65.6187 145.43C65.3687 145.32 65.1685 145.16 64.9985 144.96C64.8385 144.75 64.7184 144.5 64.6484 144.22C64.5684 143.93 64.5283 143.61 64.5283 143.25C64.5283 142.48 64.6986 141.9 65.0386 141.5C65.3786 141.1 65.8685 140.9 66.4985 140.9C66.6985 140.9 66.9084 140.93 67.1084 140.97C67.3084 141.02 67.4887 141.1 67.6587 141.22C67.8187 141.35 67.9483 141.53 68.0483 141.76C68.1483 141.99 68.1987 142.29 68.1987 142.67C68.1987 142.86 68.1784 143.08 68.1484 143.32H65.2686C65.2686 143.58 65.2986 143.82 65.3486 144.02C65.4086 144.22 65.4886 144.39 65.5986 144.54C65.7186 144.68 65.8586 144.78 66.0386 144.86C66.2286 144.93 66.4485 144.97 66.7085 144.97C66.9185 144.97 67.1184 144.93 67.3184 144.86C67.5284 144.79 67.6783 144.71 67.7783 144.61L68.0483 145.13ZM66.5083 141.53C66.1583 141.53 65.8687 141.62 65.6587 141.81C65.4487 141.99 65.3183 142.31 65.2783 142.76H67.4985C67.4985 142.3 67.4188 141.99 67.2388 141.81C67.0688 141.62 66.8283 141.53 66.5083 141.53ZM72.7686 143.95C72.7686 144.25 72.7683 144.53 72.7783 144.78C72.7783 145.02 72.8084 145.27 72.8584 145.51H72.3687L72.1885 144.87H72.1587C72.0387 145.08 71.8687 145.25 71.6387 145.39C71.4087 145.53 71.1484 145.59 70.8384 145.59C70.2484 145.59 69.7983 145.41 69.5083 145.03C69.2183 144.65 69.0786 144.07 69.0786 143.27C69.0786 142.5 69.2587 141.92 69.6187 141.53C69.9787 141.13 70.4784 140.93 71.1084 140.93C71.3284 140.93 71.4984 140.94 71.6284 140.96C71.7584 140.99 71.8983 141.03 72.0483 141.08V139.22H72.7686V143.95ZM70.9585 144.97C71.2585 144.97 71.4987 144.89 71.6787 144.74C71.8587 144.57 71.9883 144.33 72.0483 144.01V141.79C71.9383 141.7 71.8187 141.65 71.6787 141.61C71.5487 141.57 71.3587 141.56 71.1387 141.56C70.7287 141.56 70.3985 141.69 70.1685 141.97C69.9385 142.24 69.8184 142.67 69.8184 143.27C69.8184 143.51 69.8387 143.74 69.8687 143.95C69.9187 144.16 69.9784 144.34 70.0684 144.48C70.1584 144.63 70.2785 144.75 70.4185 144.84C70.5685 144.93 70.7485 144.97 70.9585 144.97ZM78.5083 144.27C78.5083 144.09 78.4484 143.95 78.3384 143.85C78.2384 143.75 78.0985 143.66 77.9385 143.6C77.7885 143.53 77.6085 143.46 77.4185 143.4C77.2385 143.33 77.0584 143.25 76.8984 143.16C76.7484 143.06 76.6183 142.93 76.5083 142.77C76.3983 142.62 76.3486 142.41 76.3486 142.15C76.3486 141.72 76.4685 141.4 76.7085 141.21C76.9585 141 77.2988 140.9 77.7388 140.9C78.0588 140.9 78.3286 140.93 78.5386 140.99C78.7586 141.05 78.9487 141.11 79.1187 141.19L78.9385 141.78C78.8085 141.71 78.6385 141.66 78.4385 141.61C78.2485 141.56 78.0486 141.53 77.8286 141.53C77.5586 141.53 77.3688 141.57 77.2388 141.66C77.1188 141.75 77.0586 141.91 77.0586 142.13C77.0586 142.28 77.1185 142.41 77.2285 142.5C77.3285 142.58 77.4587 142.66 77.6187 142.73C77.7787 142.79 77.9487 142.86 78.1387 142.93C78.3287 142.99 78.4987 143.08 78.6587 143.19C78.8187 143.29 78.9486 143.43 79.0586 143.6C79.1686 143.76 79.2188 143.97 79.2188 144.24C79.2188 144.43 79.1887 144.61 79.1187 144.78C79.0587 144.95 78.9684 145.09 78.8384 145.21C78.7084 145.33 78.5384 145.42 78.3384 145.49C78.1484 145.56 77.9287 145.59 77.6587 145.59C77.3187 145.59 77.0283 145.56 76.7983 145.5C76.5583 145.43 76.3587 145.35 76.1987 145.26L76.4087 144.65C76.5487 144.73 76.7287 144.8 76.9487 144.87C77.1687 144.94 77.3887 144.97 77.6187 144.97C77.8787 144.97 78.0883 144.92 78.2583 144.82C78.4183 144.71 78.5083 144.53 78.5083 144.27ZM80.9487 141.01V143.56C80.9487 143.79 80.9588 144 80.9888 144.18C81.0188 144.35 81.0584 144.5 81.1284 144.62C81.1984 144.73 81.2784 144.82 81.3984 144.88C81.5084 144.94 81.6486 144.97 81.8286 144.97C81.9886 144.97 82.1283 144.94 82.2583 144.9C82.3783 144.84 82.4884 144.77 82.5884 144.68C82.6884 144.59 82.7786 144.49 82.8486 144.38C82.9286 144.26 82.9886 144.13 83.0386 144V141.01H83.7485V144.22C83.7485 144.43 83.7586 144.65 83.7686 144.89C83.7886 145.11 83.8186 145.31 83.8486 145.49H83.3584L83.1787 144.78H83.1387C82.9987 145.01 82.8086 145.21 82.5786 145.36C82.3486 145.52 82.0485 145.59 81.6885 145.59C81.4485 145.59 81.2386 145.57 81.0586 145.51C80.8786 145.45 80.7286 145.35 80.5986 145.21C80.4786 145.07 80.3884 144.88 80.3184 144.64C80.2584 144.39 80.2285 144.08 80.2285 143.71V141.01H80.9487ZM88.1885 145.19C88.0085 145.32 87.7983 145.42 87.5483 145.49C87.3083 145.56 87.0483 145.59 86.7783 145.59C86.4383 145.59 86.1384 145.54 85.8984 145.43C85.6584 145.32 85.4686 145.16 85.3086 144.96C85.1586 144.75 85.0485 144.5 84.9785 144.22C84.9185 143.92 84.8784 143.6 84.8784 143.25C84.8784 142.49 85.0484 141.91 85.3784 141.51C85.7184 141.1 86.1986 140.9 86.8286 140.9C87.1086 140.9 87.3483 140.93 87.5483 140.97C87.7483 141.02 87.9386 141.08 88.0986 141.16L87.8887 141.78C87.7487 141.7 87.5985 141.64 87.4385 141.6C87.2685 141.55 87.0884 141.53 86.8984 141.53C86.0484 141.53 85.6284 142.1 85.6284 143.25C85.6284 143.48 85.6485 143.69 85.6885 143.9C85.7385 144.11 85.8087 144.29 85.9087 144.45C86.0187 144.6 86.1584 144.73 86.3184 144.82C86.4984 144.92 86.7085 144.97 86.9585 144.97C87.1785 144.97 87.3683 144.94 87.5283 144.87C87.7083 144.8 87.8487 144.73 87.9487 144.65L88.1885 145.19ZM92.0186 145.19C91.8386 145.32 91.6284 145.42 91.3784 145.49C91.1384 145.56 90.8784 145.59 90.6084 145.59C90.2684 145.59 89.9685 145.54 89.7285 145.43C89.4985 145.32 89.2987 145.16 89.1387 144.96C88.9887 144.75 88.8786 144.5 88.8086 144.22C88.7486 143.92 88.7085 143.6 88.7085 143.25C88.7085 142.49 88.8787 141.91 89.2188 141.51C89.5488 141.1 90.0287 140.9 90.6587 140.9C90.9387 140.9 91.1884 140.93 91.3784 140.97C91.5884 141.02 91.7687 141.08 91.9287 141.16L91.7188 141.78C91.5887 141.7 91.4286 141.64 91.2686 141.6C91.0986 141.55 90.9185 141.53 90.7285 141.53C89.8785 141.53 89.4585 142.1 89.4585 143.25C89.4585 143.48 89.4786 143.69 89.5186 143.9C89.5686 144.11 89.6388 144.29 89.7388 144.45C89.8488 144.6 89.9887 144.73 90.1587 144.82C90.3287 144.92 90.5386 144.97 90.7886 144.97C91.0086 144.97 91.1984 144.94 91.3584 144.87C91.5384 144.8 91.6786 144.73 91.7886 144.65L92.0186 145.19ZM96.0586 145.13C95.8886 145.27 95.6584 145.39 95.3784 145.47C95.1184 145.55 94.8286 145.59 94.5186 145.59C94.1786 145.59 93.8887 145.54 93.6387 145.43C93.3887 145.32 93.1786 145.16 93.0186 144.96C92.8586 144.75 92.7387 144.5 92.6587 144.22C92.5787 143.93 92.5386 143.61 92.5386 143.25C92.5386 142.48 92.7086 141.9 93.0586 141.5C93.3986 141.1 93.8786 140.9 94.5186 140.9C94.7186 140.9 94.9187 140.93 95.1187 140.97C95.3287 141.02 95.5085 141.1 95.6685 141.22C95.8285 141.35 95.9586 141.53 96.0586 141.76C96.1686 141.99 96.2188 142.29 96.2188 142.67C96.2188 142.86 96.1987 143.08 96.1587 143.32H93.2886C93.2886 143.58 93.3187 143.82 93.3687 144.02C93.4187 144.22 93.5087 144.39 93.6187 144.54C93.7287 144.68 93.8786 144.78 94.0586 144.86C94.2386 144.93 94.4685 144.97 94.7285 144.97C94.9285 144.97 95.1384 144.93 95.3384 144.86C95.5384 144.79 95.6883 144.71 95.7983 144.61L96.0586 145.13ZM94.5186 141.53C94.1686 141.53 93.8885 141.62 93.6685 141.81C93.4585 141.99 93.3383 142.31 93.2983 142.76H95.5186C95.5186 142.3 95.4283 141.99 95.2583 141.81C95.0883 141.62 94.8386 141.53 94.5186 141.53ZM99.3086 144.27C99.3086 144.09 99.2584 143.95 99.1484 143.85C99.0484 143.75 98.9085 143.66 98.7485 143.6C98.5885 143.53 98.4185 143.46 98.2285 143.4C98.0485 143.33 97.8685 143.25 97.7085 143.16C97.5585 143.06 97.4184 142.93 97.3184 142.77C97.2084 142.62 97.1587 142.41 97.1587 142.15C97.1587 141.72 97.2786 141.4 97.5186 141.21C97.7686 141 98.1086 140.9 98.5386 140.9C98.8686 140.9 99.1386 140.93 99.3486 140.99C99.5686 141.05 99.7585 141.11 99.9185 141.19L99.7485 141.78C99.6185 141.71 99.4485 141.66 99.2485 141.61C99.0585 141.56 98.8484 141.53 98.6284 141.53C98.3684 141.53 98.1783 141.57 98.0483 141.66C97.9283 141.75 97.8687 141.91 97.8687 142.13C97.8687 142.28 97.9283 142.41 98.0283 142.5C98.1383 142.58 98.2687 142.66 98.4287 142.73C98.5887 142.79 98.7587 142.86 98.9487 142.93C99.1387 142.99 99.3087 143.08 99.4688 143.19C99.6288 143.29 99.7587 143.43 99.8687 143.6C99.9787 143.76 100.028 143.97 100.028 144.24C100.028 144.43 99.9987 144.61 99.9287 144.78C99.8687 144.95 99.7784 145.09 99.6484 145.21C99.5084 145.33 99.3484 145.42 99.1484 145.49C98.9584 145.56 98.7387 145.59 98.4688 145.59C98.1288 145.59 97.8386 145.56 97.5986 145.5C97.3586 145.43 97.1585 145.35 96.9985 145.26L97.2188 144.65C97.3587 144.73 97.5283 144.8 97.7583 144.87C97.9783 144.94 98.1987 144.97 98.4287 144.97C98.6787 144.97 98.8986 144.92 99.0586 144.82C99.2286 144.71 99.3086 144.53 99.3086 144.27ZM103.079 144.27C103.079 144.09 103.028 143.95 102.918 143.85C102.818 143.75 102.679 143.66 102.519 143.6C102.359 143.53 102.189 143.46 101.999 143.4C101.819 143.33 101.639 143.25 101.479 143.16C101.329 143.06 101.188 142.93 101.088 142.77C100.978 142.62 100.929 142.41 100.929 142.15C100.929 141.72 101.049 141.4 101.289 141.21C101.539 141 101.879 140.9 102.309 140.9C102.639 140.9 102.899 140.93 103.119 140.99C103.339 141.05 103.528 141.11 103.688 141.19L103.519 141.78C103.389 141.71 103.219 141.66 103.019 141.61C102.829 141.56 102.618 141.53 102.398 141.53C102.138 141.53 101.948 141.57 101.818 141.66C101.698 141.75 101.639 141.91 101.639 142.13C101.639 142.28 101.698 142.41 101.798 142.5C101.908 142.58 102.039 142.66 102.199 142.73C102.359 142.79 102.529 142.86 102.719 142.93C102.909 142.99 103.079 143.08 103.239 143.19C103.399 143.29 103.529 143.43 103.639 143.6C103.749 143.76 103.798 143.97 103.798 144.24C103.798 144.43 103.769 144.61 103.699 144.78C103.639 144.95 103.548 145.09 103.418 145.21C103.278 145.33 103.118 145.42 102.918 145.49C102.728 145.56 102.499 145.59 102.239 145.59C101.899 145.59 101.609 145.56 101.369 145.5C101.129 145.43 100.929 145.35 100.769 145.26L100.989 144.65C101.129 144.73 101.298 144.8 101.528 144.87C101.748 144.94 101.969 144.97 102.199 144.97C102.449 144.97 102.669 144.92 102.829 144.82C102.999 144.71 103.079 144.53 103.079 144.27ZM104.389 141.01H105.088V140.76C105.088 140.48 105.108 140.24 105.148 140.04C105.198 139.84 105.268 139.67 105.378 139.55C105.478 139.42 105.609 139.32 105.769 139.26C105.929 139.2 106.129 139.16 106.369 139.16C106.559 139.16 106.729 139.18 106.869 139.2C107.019 139.22 107.178 139.27 107.338 139.33L107.179 139.93C107.039 139.87 106.908 139.84 106.778 139.82C106.658 139.8 106.548 139.79 106.438 139.79C106.288 139.79 106.158 139.82 106.068 139.86C105.988 139.91 105.929 139.98 105.889 140.08C105.849 140.17 105.829 140.28 105.809 140.42C105.809 140.55 105.809 140.7 105.809 140.88V141.01H106.999V141.64H105.809V145.49H105.088V141.64H104.389V141.01ZM108.389 141.01V143.56C108.389 143.79 108.398 144 108.418 144.18C108.448 144.35 108.498 144.5 108.568 144.62C108.628 144.73 108.718 144.82 108.838 144.88C108.948 144.94 109.089 144.97 109.269 144.97C109.429 144.97 109.569 144.94 109.699 144.9C109.819 144.84 109.928 144.77 110.028 144.68C110.128 144.59 110.219 144.49 110.289 144.38C110.359 144.26 110.429 144.13 110.479 144V141.01H111.188V144.22C111.188 144.43 111.198 144.65 111.208 144.89C111.228 145.11 111.249 145.31 111.289 145.49H110.798L110.619 144.78H110.568C110.438 145.01 110.249 145.21 110.019 145.36C109.789 145.52 109.488 145.59 109.128 145.59C108.888 145.59 108.679 145.57 108.499 145.51C108.319 145.45 108.159 145.35 108.039 145.21C107.919 145.07 107.828 144.88 107.758 144.64C107.698 144.39 107.668 144.08 107.668 143.71V141.01H108.389ZM113.369 144.39C113.369 144.59 113.399 144.74 113.479 144.83C113.549 144.92 113.648 144.97 113.778 144.97C113.858 144.97 113.938 144.96 114.028 144.95C114.118 144.94 114.218 144.91 114.338 144.87L114.418 145.43C114.318 145.48 114.188 145.52 114.008 145.55C113.848 145.58 113.698 145.59 113.568 145.59C113.308 145.59 113.089 145.52 112.909 145.37C112.739 145.22 112.648 144.96 112.648 144.59V139.22H113.369V144.39ZM115.979 144.39C115.979 144.59 116.018 144.74 116.088 144.83C116.158 144.92 116.258 144.97 116.398 144.97C116.468 144.97 116.558 144.96 116.648 144.95C116.738 144.94 116.839 144.91 116.949 144.87L117.028 145.43C116.938 145.48 116.798 145.52 116.628 145.55C116.458 145.58 116.318 145.59 116.188 145.59C115.918 145.59 115.698 145.52 115.528 145.37C115.348 145.22 115.269 144.96 115.269 144.59V139.22H115.979V144.39ZM119.119 143.91L119.369 144.77H119.409L119.608 143.9L120.479 141.01H121.208L119.878 145.03C119.778 145.32 119.679 145.61 119.579 145.88C119.479 146.16 119.369 146.4 119.249 146.62C119.129 146.83 118.999 147 118.849 147.13C118.699 147.26 118.529 147.32 118.329 147.32C118.119 147.32 117.938 147.29 117.798 147.23L117.929 146.62C118.009 146.65 118.078 146.66 118.148 146.66C118.318 146.66 118.478 146.57 118.628 146.39C118.788 146.22 118.919 145.92 119.019 145.49L117.219 141.01H118.039L119.119 143.91ZM121.079 145.08C121.079 144.91 121.118 144.79 121.208 144.7C121.308 144.6 121.428 144.56 121.588 144.56C121.748 144.56 121.879 144.6 121.969 144.7C122.069 144.79 122.119 144.91 122.119 145.08C122.119 145.23 122.069 145.36 121.969 145.45C121.879 145.55 121.748 145.59 121.588 145.59C121.428 145.59 121.308 145.55 121.208 145.45C121.118 145.36 121.079 145.23 121.079 145.08Z" fill="white"/>
<path d="M89.5303 165.32H47.959C39.1224 165.32 31.959 169.903 31.959 175.556C31.959 181.209 39.1224 185.792 47.959 185.792H89.5303C98.3668 185.792 105.53 181.209 105.53 175.556C105.53 169.903 98.3668 165.32 89.5303 165.32Z" fill="url(#paint2_linear)"/>
<path d="M89.5303 164.82H47.959C38.8463 164.82 31.459 169.627 31.459 175.556C31.459 181.485 38.8463 186.292 47.959 186.292H89.5303C98.643 186.292 106.03 181.485 106.03 175.556C106.03 169.627 98.643 164.82 89.5303 164.82Z" stroke="white" stroke-opacity="0.5"/>
<path d="M86.3398 169.16V181.31H96.5801V169.16H86.3398ZM87.3599 170.09H95.5498V180.38H87.3599V170.09ZM91.1499 172.59C90.9899 172.59 90.8199 172.64 90.6899 172.74C90.5599 172.84 90.5002 172.96 90.4702 173.09C90.4002 173.34 90.42 173.6 90.48 173.89C90.56 174.23 90.78 174.64 90.96 175.03C90.87 175.39 90.85 175.7 90.71 176.07C90.59 176.38 90.43 176.56 90.29 176.84C89.97 176.95 89.5901 177.02 89.3301 177.16C89.0601 177.32 88.8202 177.49 88.6802 177.74C88.5302 177.98 88.5502 178.32 88.7402 178.57C88.8302 178.7 88.9601 178.8 89.1201 178.86C89.2901 178.92 89.4701 178.92 89.6201 178.87C89.9201 178.78 90.1398 178.57 90.3398 178.32C90.5298 178.09 90.6598 177.7 90.8398 177.38C91.0898 177.31 91.2798 177.21 91.5498 177.15C91.8398 177.09 92.0401 177.12 92.3101 177.09C92.4201 177.21 92.5201 177.41 92.6401 177.5C92.8901 177.69 93.1502 177.85 93.4702 177.87C93.7902 177.88 94.11 177.7 94.29 177.43H94.3101V177.41C94.3801 177.29 94.4402 177.15 94.4302 177C94.4302 176.85 94.3502 176.7 94.2402 176.59C94.0302 176.39 93.7602 176.34 93.4702 176.3C93.2502 176.28 92.9402 176.35 92.6802 176.36C92.4402 176.08 92.21 175.87 92 175.51C91.89 175.32 91.8598 175.16 91.7598 174.96C91.8398 174.64 91.98 174.29 92 174.01C92.03 173.67 92.0102 173.38 91.9102 173.12C91.8502 172.98 91.7601 172.85 91.6401 172.75C91.5101 172.65 91.3399 172.6 91.1699 172.59H91.1602H91.1499ZM91.4902 176.05C91.5802 176.2 91.7 176.3 91.79 176.43C91.65 176.46 91.5399 176.43 91.3999 176.46C91.3699 176.47 91.3601 176.49 91.3301 176.49C91.3601 176.42 91.4002 176.38 91.4302 176.3C91.4602 176.22 91.4602 176.14 91.4902 176.05ZM93.3799 177C93.5499 177.02 93.6099 177.05 93.6299 177.06C93.6299 177.07 93.6399 177.07 93.6299 177.08C93.5699 177.17 93.56 177.17 93.52 177.16C93.49 177.16 93.36 177.1 93.23 177.02C93.27 177.02 93.3499 177 93.3799 177ZM89.7998 177.73C89.7698 177.77 89.7402 177.86 89.7202 177.89C89.5602 178.08 89.4199 178.17 89.3799 178.19C89.3699 178.18 89.3899 178.19 89.3799 178.17H89.3599C89.3099 178.1 89.3299 178.13 89.3599 178.07C89.3999 178.01 89.52 177.88 89.73 177.76C89.75 177.75 89.7798 177.74 89.7998 177.73Z" fill="white"/>
<path d="M40.1797 171.85C40.2997 171.83 40.4396 171.81 40.5996 171.8C40.7596 171.79 40.9194 171.78 41.0894 171.77C41.2594 171.77 41.4193 171.76 41.5693 171.76C41.7293 171.76 41.8795 171.76 41.9995 171.76C42.5595 171.76 43.0297 171.83 43.4297 171.99C43.8197 172.14 44.1396 172.36 44.3896 172.64C44.6296 172.92 44.8094 173.26 44.9194 173.65C45.0394 174.03 45.0894 174.46 45.0894 174.93C45.0894 175.35 45.0397 175.76 44.9297 176.15C44.8197 176.55 44.6496 176.9 44.3896 177.2C44.1396 177.51 43.8094 177.75 43.3994 177.94C42.9894 178.12 42.4896 178.21 41.8896 178.21C41.7896 178.21 41.6595 178.21 41.4995 178.2C41.3495 178.2 41.1793 178.19 41.0093 178.18C40.8393 178.17 40.6793 178.16 40.5293 178.15C40.3693 178.14 40.2497 178.14 40.1797 178.12V171.85ZM42.0996 172.85C41.9696 172.85 41.8397 172.85 41.6997 172.86C41.5697 172.86 41.4694 172.87 41.3994 172.88V177.08C41.4294 177.09 41.4695 177.1 41.5195 177.1C41.5795 177.1 41.6395 177.11 41.7095 177.11C41.7695 177.11 41.8394 177.11 41.8994 177.12C41.9594 177.12 41.9993 177.12 42.0293 177.12C42.3793 177.12 42.6596 177.06 42.8896 176.94C43.1196 176.82 43.3095 176.65 43.4395 176.45C43.5695 176.25 43.6697 176.01 43.7197 175.75C43.7797 175.48 43.7993 175.21 43.7993 174.93C43.7993 174.68 43.7795 174.44 43.7295 174.19C43.6795 173.94 43.5895 173.72 43.4595 173.52C43.3395 173.32 43.1595 173.16 42.9395 173.04C42.7195 172.91 42.4396 172.85 42.0996 172.85ZM45.7295 175.88C45.7295 175.12 45.9196 174.54 46.2896 174.13C46.6596 173.72 47.1796 173.51 47.8496 173.51C48.2096 173.51 48.5193 173.57 48.7793 173.68C49.0393 173.79 49.2597 173.96 49.4297 174.16C49.6097 174.37 49.7293 174.62 49.8193 174.91C49.9093 175.2 49.9497 175.52 49.9497 175.88C49.9497 176.63 49.7694 177.22 49.3994 177.63C49.0294 178.04 48.5196 178.24 47.8496 178.24C47.4896 178.24 47.1794 178.18 46.9194 178.07C46.6494 177.96 46.4295 177.8 46.2495 177.6C46.0795 177.39 45.9494 177.14 45.8594 176.84C45.7794 176.55 45.7295 176.23 45.7295 175.88ZM46.9297 175.88C46.9297 176.07 46.9497 176.25 46.9897 176.42C47.0197 176.59 47.0794 176.74 47.1494 176.86C47.2194 176.99 47.3097 177.08 47.4297 177.16C47.5497 177.22 47.6896 177.25 47.8496 177.25C48.1496 177.25 48.3793 177.14 48.5293 176.92C48.6793 176.7 48.7495 176.35 48.7495 175.88C48.7495 175.46 48.6793 175.13 48.5493 174.88C48.4093 174.62 48.1796 174.5 47.8496 174.5C47.5596 174.5 47.3397 174.6 47.1797 174.82C47.0097 175.03 46.9297 175.39 46.9297 175.88ZM53.9194 173.64L54.7397 175.93L54.8994 176.67H54.9297L55.0596 175.92L55.6294 173.64H56.6997L55.3193 178.16H54.4595L53.5596 175.65L53.4395 175.09H53.3896L53.2896 175.66L52.4297 178.16H51.5396L50.0996 173.64H51.3594L52.0093 175.88L52.1196 176.68H52.1694L52.3193 175.88L53.0596 173.64H53.9194ZM59.8794 178.11V175.57C59.8794 175.21 59.8195 174.94 59.7095 174.78C59.6095 174.62 59.4395 174.54 59.1895 174.54C58.9695 174.54 58.7796 174.61 58.6196 174.74C58.4696 174.86 58.3693 175.02 58.2993 175.21V178.11H57.1396V173.64H58.0596L58.1895 174.23H58.2295C58.3695 174.04 58.5495 173.87 58.7695 173.73C58.9995 173.58 59.2894 173.51 59.6494 173.51C59.8694 173.51 60.0697 173.54 60.2397 173.6C60.4197 173.66 60.5597 173.76 60.6797 173.9C60.7997 174.03 60.8897 174.22 60.9497 174.46C61.0097 174.69 61.0396 174.98 61.0396 175.33V178.11H59.8794ZM63.2197 176.61C63.2197 176.82 63.2393 176.97 63.2993 177.07C63.3493 177.16 63.4396 177.21 63.5596 177.21C63.6296 177.21 63.6993 177.2 63.7593 177.19C63.8293 177.18 63.9195 177.15 64.0195 177.11L64.1494 178.03C64.0494 178.07 63.9095 178.12 63.7095 178.17C63.5095 178.22 63.3096 178.24 63.0996 178.24C62.7596 178.24 62.4993 178.16 62.3193 178.01C62.1393 177.85 62.0493 177.58 62.0493 177.22V171.85H63.2197V176.61ZM64.4297 175.88C64.4297 175.12 64.6197 174.54 64.9897 174.13C65.3597 173.72 65.8793 173.51 66.5493 173.51C66.9093 173.51 67.2195 173.57 67.4795 173.68C67.7395 173.79 67.9594 173.96 68.1294 174.16C68.3094 174.37 68.4295 174.62 68.5195 174.91C68.6095 175.2 68.6494 175.52 68.6494 175.88C68.6494 176.63 68.4696 177.22 68.0996 177.63C67.7296 178.04 67.2193 178.24 66.5493 178.24C66.1893 178.24 65.8796 178.18 65.6196 178.07C65.3496 177.96 65.1297 177.8 64.9497 177.6C64.7797 177.39 64.6496 177.14 64.5596 176.84C64.4796 176.55 64.4297 176.23 64.4297 175.88ZM65.6294 175.88C65.6294 176.07 65.6495 176.25 65.6895 176.42C65.7195 176.59 65.7796 176.74 65.8496 176.86C65.9196 176.99 66.0094 177.08 66.1294 177.16C66.2494 177.22 66.3893 177.25 66.5493 177.25C66.8493 177.25 67.0795 177.14 67.2295 176.92C67.3795 176.7 67.4497 176.35 67.4497 175.88C67.4497 175.46 67.3795 175.13 67.2495 174.88C67.1095 174.62 66.8793 174.5 66.5493 174.5C66.2593 174.5 66.0394 174.6 65.8794 174.82C65.7094 175.03 65.6294 175.39 65.6294 175.88ZM69.4297 173.9C69.6697 173.79 69.9493 173.71 70.2793 173.65C70.6093 173.58 70.9496 173.55 71.3096 173.55C71.6196 173.55 71.8794 173.59 72.0894 173.66C72.2994 173.73 72.4694 173.84 72.5894 173.98C72.7094 174.11 72.7994 174.28 72.8394 174.47C72.8994 174.66 72.9297 174.88 72.9297 175.11C72.9297 175.38 72.9194 175.64 72.8994 175.91C72.8794 176.17 72.8694 176.43 72.8594 176.69C72.8594 176.95 72.8696 177.2 72.8896 177.44C72.9096 177.68 72.9495 177.91 73.0195 178.12H72.0693L71.8896 177.51H71.8394C71.7194 177.69 71.5594 177.85 71.3394 177.99C71.1294 178.12 70.8593 178.19 70.5293 178.19C70.3193 178.19 70.1295 178.16 69.9595 178.1C69.7895 178.03 69.6493 177.94 69.5293 177.83C69.4093 177.71 69.3195 177.57 69.2495 177.42C69.1895 177.25 69.1494 177.08 69.1494 176.88C69.1494 176.6 69.2096 176.37 69.3296 176.19C69.4596 176 69.6394 175.85 69.8594 175.73C70.0994 175.61 70.3695 175.53 70.6895 175.49C71.0095 175.44 71.3693 175.43 71.7593 175.45C71.7993 175.11 71.7795 174.87 71.6895 174.73C71.5995 174.58 71.3994 174.51 71.0894 174.51C70.8594 174.51 70.6096 174.53 70.3496 174.58C70.0896 174.62 69.8795 174.69 69.7095 174.76L69.4297 173.9ZM70.9097 177.23C71.1397 177.23 71.3297 177.18 71.4697 177.08C71.5997 176.97 71.6995 176.85 71.7695 176.74V176.15C71.5795 176.14 71.4095 176.13 71.2295 176.14C71.0695 176.16 70.9193 176.18 70.7793 176.22C70.6493 176.27 70.5497 176.33 70.4697 176.4C70.3897 176.48 70.3496 176.58 70.3496 176.7C70.3496 176.87 70.3995 177 70.4995 177.09C70.5995 177.18 70.7397 177.23 70.9097 177.23ZM77.7095 176.54C77.7095 176.79 77.7097 177.04 77.7197 177.29C77.7197 177.54 77.7493 177.82 77.7993 178.12H76.9697L76.7993 177.54H76.7695C76.6495 177.75 76.4795 177.92 76.2495 178.05C76.0295 178.18 75.7695 178.24 75.4595 178.24C74.8995 178.24 74.4594 178.06 74.1494 177.68C73.8394 177.31 73.6895 176.74 73.6895 175.95C73.6895 175.18 73.8595 174.59 74.2095 174.16C74.5495 173.74 75.0595 173.53 75.7295 173.53C75.9095 173.53 76.0695 173.54 76.1895 173.56C76.3095 173.58 76.4296 173.62 76.5396 173.66V171.85H77.7095V176.54ZM75.7295 177.25C75.9595 177.25 76.1395 177.2 76.2695 177.09C76.3995 176.98 76.4896 176.82 76.5396 176.61V174.71C76.4595 174.65 76.3695 174.6 76.2695 174.57C76.1695 174.53 76.0296 174.51 75.8696 174.51C75.5396 174.51 75.2994 174.62 75.1294 174.85C74.9694 175.07 74.8896 175.45 74.8896 175.98C74.8896 176.37 74.9496 176.67 75.0796 176.91C75.2196 177.14 75.4395 177.25 75.7295 177.25Z" fill="white"/>
<path d="M117.34 179.13C117.17 179.27 116.941 179.37 116.661 179.42C116.391 179.47 116.101 179.5 115.791 179.5C115.411 179.5 115.06 179.44 114.73 179.31C114.4 179.18 114.111 178.99 113.871 178.72C113.621 178.46 113.431 178.13 113.291 177.72C113.141 177.31 113.07 176.82 113.07 176.26C113.07 175.67 113.15 175.18 113.3 174.77C113.47 174.36 113.681 174.03 113.931 173.77C114.191 173.51 114.491 173.32 114.811 173.2C115.131 173.08 115.461 173.02 115.791 173.02C116.151 173.02 116.45 173.04 116.67 173.08C116.9 173.12 117.09 173.17 117.25 173.23L117.081 173.89C116.791 173.75 116.381 173.68 115.851 173.68C115.601 173.68 115.361 173.72 115.121 173.81C114.881 173.9 114.67 174.05 114.48 174.25C114.29 174.46 114.14 174.72 114.03 175.05C113.92 175.38 113.86 175.78 113.86 176.26C113.86 176.69 113.911 177.07 114.021 177.39C114.131 177.71 114.28 177.98 114.46 178.19C114.65 178.41 114.871 178.57 115.121 178.68C115.381 178.79 115.66 178.84 115.96 178.84C116.22 178.84 116.46 178.81 116.65 178.76C116.86 178.7 117.03 178.64 117.17 178.55L117.34 179.13ZM119.17 178.29C119.17 178.5 119.21 178.65 119.28 178.74C119.35 178.83 119.45 178.87 119.59 178.87C119.66 178.87 119.75 178.87 119.84 178.86C119.93 178.84 120.031 178.82 120.141 178.78L120.221 179.34C120.131 179.39 119.99 179.43 119.82 179.46C119.65 179.49 119.51 179.5 119.38 179.5C119.11 179.5 118.891 179.43 118.721 179.28C118.541 179.12 118.46 178.86 118.46 178.5V173.12H119.17V178.29ZM120.741 177.16C120.741 176.4 120.911 175.82 121.241 175.42C121.581 175.01 122.071 174.81 122.701 174.81C123.041 174.81 123.33 174.87 123.57 174.98C123.82 175.09 124.03 175.24 124.19 175.45C124.35 175.66 124.47 175.9 124.55 176.2C124.63 176.48 124.661 176.8 124.661 177.16C124.661 177.91 124.49 178.5 124.15 178.9C123.82 179.3 123.341 179.5 122.701 179.5C122.371 179.5 122.08 179.45 121.82 179.34C121.58 179.23 121.381 179.07 121.221 178.87C121.051 178.66 120.94 178.41 120.86 178.12C120.78 177.83 120.741 177.51 120.741 177.16ZM121.48 177.16C121.48 177.38 121.51 177.6 121.55 177.81C121.6 178.02 121.67 178.2 121.76 178.36C121.86 178.51 121.981 178.64 122.141 178.73C122.291 178.83 122.481 178.87 122.701 178.87C123.511 178.88 123.92 178.31 123.92 177.16C123.92 176.92 123.901 176.7 123.851 176.49C123.811 176.28 123.741 176.1 123.641 175.95C123.551 175.79 123.421 175.67 123.271 175.58C123.111 175.48 122.921 175.44 122.701 175.44C121.891 175.43 121.48 176 121.48 177.16ZM127.76 178.18C127.76 178 127.711 177.86 127.601 177.76C127.501 177.65 127.361 177.57 127.201 177.5C127.041 177.43 126.871 177.37 126.681 177.31C126.501 177.24 126.321 177.16 126.161 177.07C126.011 176.96 125.871 176.84 125.771 176.68C125.661 176.53 125.61 176.32 125.61 176.05C125.61 175.62 125.731 175.31 125.971 175.11C126.221 174.91 126.561 174.81 126.991 174.81C127.321 174.81 127.59 174.84 127.8 174.9C128.02 174.95 128.211 175.02 128.371 175.1L128.201 175.69C128.071 175.62 127.901 175.56 127.701 175.52C127.511 175.46 127.301 175.44 127.081 175.44C126.821 175.44 126.63 175.48 126.5 175.57C126.38 175.66 126.32 175.81 126.32 176.04C126.32 176.19 126.38 176.31 126.48 176.4C126.59 176.49 126.72 176.56 126.88 176.64C127.04 176.7 127.21 176.77 127.4 176.83C127.59 176.9 127.76 176.98 127.92 177.09C128.08 177.2 128.21 177.34 128.32 177.5C128.43 177.67 128.48 177.88 128.48 178.15C128.48 178.34 128.45 178.52 128.38 178.69C128.32 178.85 128.231 179 128.101 179.12C127.961 179.24 127.801 179.33 127.601 179.39C127.411 179.47 127.19 179.5 126.92 179.5C126.58 179.5 126.29 179.47 126.05 179.4C125.81 179.34 125.611 179.26 125.451 179.17L125.67 178.56C125.81 178.64 125.98 178.71 126.21 178.78C126.43 178.84 126.65 178.87 126.88 178.87C127.13 178.87 127.35 178.82 127.51 178.72C127.68 178.62 127.76 178.44 127.76 178.18ZM132.831 179.04C132.651 179.18 132.43 179.29 132.15 179.38C131.88 179.46 131.601 179.5 131.291 179.5C130.951 179.5 130.661 179.45 130.411 179.34C130.151 179.23 129.951 179.07 129.791 178.87C129.631 178.66 129.511 178.41 129.431 178.12C129.351 177.84 129.311 177.51 129.311 177.16C129.311 176.39 129.48 175.81 129.82 175.41C130.16 175.01 130.65 174.81 131.28 174.81C131.49 174.81 131.691 174.83 131.891 174.88C132.101 174.92 132.28 175.01 132.44 175.13C132.6 175.26 132.731 175.44 132.831 175.67C132.931 175.9 132.991 176.2 132.991 176.57C132.991 176.77 132.971 176.99 132.931 177.23H130.061C130.061 177.49 130.081 177.72 130.141 177.93C130.191 178.13 130.271 178.3 130.391 178.44C130.501 178.58 130.651 178.69 130.831 178.77C131.011 178.84 131.24 178.87 131.5 178.87C131.7 178.87 131.9 178.84 132.11 178.77C132.31 178.7 132.461 178.61 132.561 178.52L132.831 179.04ZM131.291 175.44C130.941 175.44 130.66 175.53 130.44 175.71C130.23 175.9 130.11 176.21 130.07 176.66H132.291C132.291 176.21 132.2 175.89 132.03 175.71C131.85 175.53 131.611 175.44 131.291 175.44Z" fill="white" fill-opacity="0.66"/>
<path d="M112.57 180.29H133.42V180.74H112.57V180.29Z" fill="white" fill-opacity="0.66"/>
<defs>
<filter id="filter0_d" x="0.849609" y="0.5" width="403.85" height="262.47" filterUnits="userSpaceOnUse" color-interpolation-filters="sRGB">
<feFlood flood-opacity="0" result="BackgroundImageFix"/>
<feColorMatrix in="SourceAlpha" type="matrix" values="0 0 0 0 0 0 0 0 0 0 0 0 0 0 0 0 0 0 127 0"/>
<feOffset/>
<feGaussianBlur stdDeviation="5"/>
<feColorMatrix type="matrix" values="0 0 0 0 0.342014 0 0 0 0 0.542027 0 0 0 0 0.820833 0 0 0 0.05 0"/>
<feBlend mode="normal" in2="BackgroundImageFix" result="effect1_dropShadow"/>
<feBlend mode="normal" in="SourceGraphic" in2="effect1_dropShadow" result="shape"/>
</filter>
<linearGradient id="paint0_linear" x1="10.8496" y1="131.73" x2="394.7" y2="131.73" gradientUnits="userSpaceOnUse">
<stop stop-color="#4E7AB6"/>
<stop offset="1" stop-color="#5A9CF8"/>
</linearGradient>
<linearGradient id="paint1_linear" x1="228.581" y1="276.64" x2="425.621" y2="118.83" gradientUnits="userSpaceOnUse">
<stop stop-color="#06D627"/>
<stop offset="1" stop-color="#06D6A0" stop-opacity="0.7"/>
</linearGradient>
<linearGradient id="paint2_linear" x1="-2061.4" y1="-338.78" x2="-2020.05" y2="-377.612" gradientUnits="userSpaceOnUse">
<stop stop-color="#5A9CF8"/>
<stop offset="1" stop-color="#90BEFD"/>
</linearGradient>
</defs>
</svg>
