<?xml version="1.0" encoding="utf-8"?>
<svg version="1.1" xmlns:xlink="http://www.w3.org/1999/xlink" width="12px" height="12px" viewBox="45 292  12 12" xmlns="http://www.w3.org/2000/svg">
  <path d="M 51 292  C 54.36 292  57 294.64  57 298  C 57 301.36  54.36 304  51 304  C 47.64 304  45 301.36  45 298  C 45 294.64  47.64 292  51 292  Z " fill-rule="nonzero" fill="#f0f0f0" stroke="none" />
  <path d="M 51 292.5  C 54.08 292.5  56.5 294.92  56.5 298  C 56.5 301.08  54.08 303.5  51 303.5  C 47.92 303.5  45.5 301.08  45.5 298  C 45.5 294.92  47.92 292.5  51 292.5  Z " stroke-width="1" stroke="#797979" fill="none" />
  <path d="M 51 301  C 49.32 301  48 299.68  48 298  C 48 296.32  49.32 295  51 295  C 52.68 295  54 296.32  54 298  C 54 299.68  52.68 301  51 301  " fill-rule="nonzero" fill="#797979" stroke="none" />
</svg>