<?xml version="1.0" encoding="utf-8"?>
<svg version="1.1" xmlns:xlink="http://www.w3.org/1999/xlink" width="17px" height="17px" xmlns="http://www.w3.org/2000/svg">
  <g transform="matrix(1 0 0 1 -645 -161 )">
    <path d="M 1.30769230769231 13.0535714285714  L 1.30769230769231 15.7857142857143  L 4.25 15.7857142857143  L 4.25 13.0535714285714  L 1.30769230769231 13.0535714285714  Z M 4.90384615384615 13.0535714285714  L 4.90384615384615 15.7857142857143  L 8.17307692307692 15.7857142857143  L 8.17307692307692 13.0535714285714  L 4.90384615384615 13.0535714285714  Z M 1.30769230769231 9.41071428571429  L 1.30769230769231 12.4464285714286  L 4.25 12.4464285714286  L 4.25 9.41071428571429  L 1.30769230769231 9.41071428571429  Z M 4.90384615384615 9.41071428571429  L 4.90384615384615 12.4464285714286  L 8.17307692307692 12.4464285714286  L 8.17307692307692 9.41071428571429  L 4.90384615384615 9.41071428571429  Z M 1.30769230769231 6.07142857142857  L 1.30769230769231 8.80357142857143  L 4.25 8.80357142857143  L 4.25 6.07142857142857  L 1.30769230769231 6.07142857142857  Z M 8.82692307692308 13.0535714285714  L 8.82692307692308 15.7857142857143  L 12.0961538461538 15.7857142857143  L 12.0961538461538 13.0535714285714  L 8.82692307692308 13.0535714285714  Z M 4.90384615384615 6.07142857142857  L 4.90384615384615 8.80357142857143  L 8.17307692307692 8.80357142857143  L 8.17307692307692 6.07142857142857  L 4.90384615384615 6.07142857142857  Z M 12.75 13.0535714285714  L 12.75 15.7857142857143  L 15.6923076923077 15.7857142857143  L 15.6923076923077 13.0535714285714  L 12.75 13.0535714285714  Z M 8.82692307692308 9.41071428571429  L 8.82692307692308 12.4464285714286  L 12.0961538461538 12.4464285714286  L 12.0961538461538 9.41071428571429  L 8.82692307692308 9.41071428571429  Z M 5.13371394230769 4.46344866071429  C 5.19841746794872 4.40336681547619  5.23076923076923 4.33221726190476  5.23076923076923 4.25  L 5.23076923076923 1.51785714285714  C 5.23076923076923 1.43563988095238  5.19841746794872 1.36449032738095  5.13371394230769 1.30440848214286  C 5.06901041666667 1.24432663690476  4.99238782051282 1.21428571428571  4.90384615384615 1.21428571428571  L 4.25 1.21428571428571  C 4.16145833333333 1.21428571428571  4.08483573717949 1.24432663690476  4.02013221153846 1.30440848214286  C 3.95542868589744 1.36449032738095  3.92307692307692 1.43563988095238  3.92307692307692 1.51785714285714  L 3.92307692307692 4.25  C 3.92307692307692 4.33221726190476  3.95542868589744 4.40336681547619  4.02013221153846 4.46344866071429  C 4.08483573717949 4.52353050595238  4.16145833333333 4.55357142857143  4.25 4.55357142857143  L 4.90384615384615 4.55357142857143  C 4.99238782051282 4.55357142857143  5.06901041666667 4.52353050595238  5.13371394230769 4.46344866071429  Z M 12.75 9.41071428571429  L 12.75 12.4464285714286  L 15.6923076923077 12.4464285714286  L 15.6923076923077 9.41071428571429  L 12.75 9.41071428571429  Z M 8.82692307692308 6.07142857142857  L 8.82692307692308 8.80357142857143  L 12.0961538461538 8.80357142857143  L 12.0961538461538 6.07142857142857  L 8.82692307692308 6.07142857142857  Z M 12.75 6.07142857142857  L 12.75 8.80357142857143  L 15.6923076923077 8.80357142857143  L 15.6923076923077 6.07142857142857  L 12.75 6.07142857142857  Z M 12.9798677884615 4.46344866071429  C 13.0445713141026 4.40336681547619  13.0769230769231 4.33221726190476  13.0769230769231 4.25  L 13.0769230769231 1.51785714285714  C 13.0769230769231 1.43563988095238  13.0445713141026 1.36449032738095  12.9798677884615 1.30440848214286  C 12.9151642628205 1.24432663690476  12.8385416666667 1.21428571428571  12.75 1.21428571428571  L 12.0961538461538 1.21428571428571  C 12.0076121794872 1.21428571428571  11.9309895833333 1.24432663690476  11.8662860576923 1.30440848214286  C 11.8015825320513 1.36449032738095  11.7692307692308 1.43563988095238  11.7692307692308 1.51785714285714  L 11.7692307692308 4.25  C 11.7692307692308 4.33221726190476  11.8015825320513 4.40336681547619  11.8662860576923 4.46344866071429  C 11.9309895833333 4.52353050595238  12.0076121794872 4.55357142857143  12.0961538461538 4.55357142857143  L 12.75 4.55357142857143  C 12.8385416666667 4.55357142857143  12.9151642628205 4.52353050595238  12.9798677884615 4.46344866071429  Z M 16.6117788461538 2.7890625  C 16.8705929487179 3.02938988095238  17 3.31398809523809  17 3.64285714285714  L 17 15.7857142857143  C 17 16.1145833333333  16.8705929487179 16.399181547619  16.6117788461538 16.6395089285714  C 16.3529647435897 16.8798363095238  16.0464743589744 17  15.6923076923077 17  L 1.30769230769231 17  C 0.953525641025641 17  0.647035256410256 16.8798363095238  0.388221153846154 16.6395089285714  C 0.129407051282051 16.399181547619  0 16.1145833333333  0 15.7857142857143  L 0 3.64285714285714  C 0 3.31398809523809  0.129407051282051 3.02938988095238  0.388221153846154 2.7890625  C 0.647035256410256 2.54873511904762  0.953525641025641 2.42857142857143  1.30769230769231 2.42857142857143  L 2.61538461538462 2.42857142857143  L 2.61538461538462 1.51785714285714  C 2.61538461538462 1.10044642857143  2.77544070512821 0.743117559523809  3.09555288461538 0.445870535714286  C 3.41566506410256 0.148623511904762  3.80048076923077 0  4.25 0  L 4.90384615384615 0  C 5.35336538461538 0  5.73818108974359 0.148623511904762  6.05829326923077 0.445870535714286  C 6.37840544871795 0.743117559523809  6.53846153846154 1.10044642857143  6.53846153846154 1.51785714285714  L 6.53846153846154 2.42857142857143  L 10.4615384615385 2.42857142857143  L 10.4615384615385 1.51785714285714  C 10.4615384615385 1.10044642857143  10.6215945512821 0.743117559523809  10.9417067307692 0.445870535714286  C 11.2618189102564 0.148623511904762  11.6466346153846 0  12.0961538461538 0  L 12.75 0  C 13.1995192307692 0  13.5843349358974 0.148623511904762  13.9044471153846 0.445870535714286  C 14.2245592948718 0.743117559523809  14.3846153846154 1.10044642857143  14.3846153846154 1.51785714285714  L 14.3846153846154 2.42857142857143  L 15.6923076923077 2.42857142857143  C 16.0464743589744 2.42857142857143  16.3529647435897 2.54873511904762  16.6117788461538 2.7890625  Z " fill-rule="nonzero" fill="#64a2f9" stroke="none" transform="matrix(1 0 0 1 645 161 )" />
  </g>
</svg>